<svg xmlns="http://www.w3.org/2000/svg" xmlns:xlink="http://www.w3.org/1999/xlink" width="2000" zoomAndPan="magnify" viewBox="0 0 1500 1499.999933" height="2000" preserveAspectRatio="xMidYMid meet" version="1.0"><defs><filter x="0%" y="0%" width="100%" height="100%" id="3ddc05445f"><feColorMatrix values="0 0 0 0 1 0 0 0 0 1 0 0 0 0 1 0 0 0 1 0" color-interpolation-filters="sRGB"/></filter><mask id="36ab2a2140"><g filter="url(#3ddc05445f)"><rect x="-150" width="1800" fill="#000000" y="-149.999993" height="1799.99992" fill-opacity="0.37"/></g></mask><clipPath id="cb7bbd8610"><path d="M 0.371094 1.09375 L 1401.320312 1.09375 L 1401.320312 1295.59375 L 0.371094 1295.59375 Z M 0.371094 1.09375 " clip-rule="nonzero"/></clipPath><clipPath id="ad7aea14de"><rect x="0" width="1402" y="0" height="1296"/></clipPath></defs><g mask="url(#36ab2a2140)"><g transform="matrix(1, 0, 0, 1, 49, 123)"><g clip-path="url(#ad7aea14de)"><g clip-path="url(#cb7bbd8610)"><path fill="#a6a6a6" d="M 1367.253906 1041.214844 C 1367.84375 1040.285156 1367.738281 1040.769531 1318.46875 972.460938 C 1318.464844 972.453125 1318.304688 972.234375 1318.300781 972.230469 L 1305.734375 959.671875 L 1324.027344 947.738281 L 1400.90625 895.328125 C 1400.910156 895.324219 1400.910156 895.324219 1400.910156 895.324219 C 1401.65625 894.703125 1401.414062 895.300781 1398.675781 848 C 1398.707031 847.832031 1398.683594 847.664062 1398.625 847.507812 C 1389.25 798.59375 1389.472656 799.007812 1389.007812 798.636719 L 1336.726562 756.515625 L 1287.015625 728.765625 L 1275.589844 686.503906 L 1330.875 640.777344 C 1331.863281 639.957031 1331.59375 640.402344 1306.394531 593.152344 C 1304.386719 590.15625 1278.003906 547.347656 1277.285156 547.023438 L 1232.738281 527.503906 L 1197.433594 522.691406 C 1156.070312 464.21875 1169.828125 482.519531 1136.488281 440.980469 C 1167.59375 405.515625 1168.324219 406.378906 1167.148438 405.132812 C 1121.402344 356.851562 1138.933594 374.570312 1090.808594 327.582031 C 1090.355469 327.160156 1090.824219 327.328125 1057.4375 325.226562 C 1057.011719 325.199219 1057.363281 325.097656 1037.363281 336.078125 C 981.167969 287.519531 1002.992188 305.304688 942.492188 258.242188 C 953.621094 239.710938 953.503906 240.167969 953.414062 239.585938 C 948.886719 210.605469 949.152344 211.136719 948.570312 210.65625 C 895.992188 174.28125 916.367188 187.632812 859.859375 152.160156 C 858.816406 151.503906 840.308594 166.449219 840.1875 166.621094 L 827.625 184.273438 C 773.394531 154.953125 795.246094 165.871094 731.164062 136.589844 L 723.796875 107.074219 L 701.585938 71.808594 C 701.289062 71.347656 701.640625 71.609375 652.679688 52.898438 C 652.671875 52.894531 652.664062 52.894531 652.660156 52.890625 L 603.480469 36.421875 C 602.289062 36.128906 602.804688 36.078125 573.1875 87.851562 C 562.5 85.433594 573.269531 87.082031 512.738281 79.625 L 484.273438 41.339844 L 441.140625 3.914062 C 440.632812 3.5 392.890625 1.199219 392.636719 1.1875 C 342.550781 4.085938 345.839844 4.140625 346.027344 4.019531 C 345.492188 4.367188 310.308594 83.296875 303.03125 99.890625 L 270.542969 76.445312 L 204.109375 43.820312 C 203.273438 43.40625 203.816406 43.390625 168.242188 67.136719 L 135.421875 96.417969 L 82.613281 238.875 C 69.003906 237.292969 68.960938 236.992188 68.515625 237.957031 L 5.023438 414.265625 L 0.371094 465.820312 C 2.132812 540.765625 2.539062 533.703125 2.371094 533.582031 C 2.578125 533.730469 2.378906 533.632812 84.636719 561.304688 L 157.390625 566.605469 L 165.300781 591.242188 C 162.8125 592.636719 159.539062 594.5 159.757812 594.363281 C 158.988281 594.839844 76.1875 762.304688 77.105469 763.835938 L 119.785156 835.386719 L 173.257812 908.46875 C 173.835938 908.890625 173.355469 908.792969 257.757812 891.792969 L 315.066406 855.773438 L 380.777344 923.445312 L 454.050781 983.910156 L 417.308594 1041.183594 L 403.390625 1121.878906 C 403.136719 1123.316406 403.699219 1122.542969 483.796875 1174.226562 C 566.179688 1217.519531 565.652344 1217.679688 566.496094 1216.914062 C 645.566406 1145.460938 617.503906 1170.5 689.800781 1106.742188 C 690.722656 1107.105469 702.035156 1111.542969 702.878906 1111.875 L 782.507812 1131.640625 L 795.027344 1207.617188 C 834.269531 1292.867188 833.765625 1292.597656 834.777344 1292.675781 L 907.632812 1295.480469 C 972.40625 1288.832031 972.070312 1288.929688 972.402344 1288.722656 C 1065.980469 1230.085938 1032.070312 1251.480469 1121.136719 1194.964844 L 1142.621094 1215.785156 C 1143.457031 1216.394531 1143.167969 1216.632812 1309.375 1113.480469 L 1342.851562 1079.710938 Z M 1222.59375 1164.890625 L 1162.378906 1109.375 L 1243.367188 1054.527344 L 1307.023438 1112.515625 Z M 1049.507812 1237.953125 L 989.546875 1241.234375 L 1070.644531 1187.5 L 1134.589844 1183.96875 Z M 835.277344 1290.085938 L 797.304688 1207.625 L 867.871094 1153.761719 L 909.746094 1238.507812 Z M 784.546875 1131.214844 L 852.234375 1075.210938 L 867.097656 1151.734375 L 796.753906 1205.425781 Z M 705.300781 1110.34375 L 770.890625 1052.675781 L 850.699219 1073.78125 L 783.164062 1129.660156 Z M 631.554688 1155.332031 L 548.15625 1110.753906 L 616.941406 1043.140625 L 705.429688 1090.183594 Z M 484.136719 1171.976562 L 406.011719 1121.84375 L 463.695312 1058.25 L 544.785156 1111.167969 Z M 455.292969 982.238281 L 382.859375 922.472656 L 433.925781 853.371094 L 510.847656 916.421875 Z M 220.429688 832.503906 L 301.746094 818.734375 L 256.566406 889.980469 L 175.984375 906.144531 Z M 164.367188 758.066406 L 209.800781 673.523438 L 268.488281 748.269531 L 219.675781 829.714844 Z M 228.402344 558.167969 L 283.417969 645.960938 L 210.074219 670.390625 L 161.773438 595.605469 Z M 86.25 559.339844 L 120.6875 479.660156 L 195.316406 487.296875 L 157.539062 564.53125 Z M 4.347656 532.101562 L 36.039062 449.550781 L 118.640625 479.15625 L 84.136719 558.976562 Z M 33.160156 383.847656 L 65.453125 297.78125 L 69.789062 355.496094 L 36.21875 443.265625 Z M 150.558594 248.875 L 146.945312 311.878906 L 67.226562 292.195312 L 70.417969 239.550781 Z M 137.757812 97.101562 L 168.960938 69.261719 L 226.554688 106.484375 L 193.453125 142.085938 Z M 270.074219 78.652344 C 309.621094 107.21875 297.746094 98.550781 322.105469 116.574219 L 287.957031 143.25 L 230.042969 106.25 Z M 392.238281 3.289062 L 423.980469 40.152344 L 372.136719 45.246094 L 348.371094 5.824219 Z M 482.910156 42.992188 L 510.078125 79.53125 L 461.027344 79.011719 L 428.417969 42.074219 Z M 564.84375 88.132812 L 587.4375 124.261719 L 542.097656 118.71875 L 514.464844 81.925781 Z M 619.792969 100.523438 L 636.128906 133.753906 L 590.121094 124.628906 L 567.671875 88.734375 Z M 662.808594 85.300781 L 673.535156 114.582031 L 621.238281 98.757812 L 605.402344 67.492188 Z M 721.910156 108.105469 L 728.785156 135.636719 L 676.046875 115.382812 L 665.375 86.257812 Z M 783.144531 162.625 L 785.5 189.957031 L 738.742188 168.171875 L 731.785156 139.160156 Z M 950.992188 240.046875 L 940.804688 257.003906 L 891.015625 222.285156 L 897.851562 203.074219 Z M 1057.199219 327.546875 L 1103.773438 372.519531 L 1081.945312 379.613281 L 1038.957031 337.574219 Z M 1159.960938 473.542969 L 1128.535156 473.007812 L 1096.070312 431.71875 L 1122.894531 427.359375 Z M 1194.625 522.324219 L 1159.953125 517.765625 L 1130.042969 475.117188 L 1161.613281 475.65625 Z M 1231.929688 529.488281 L 1264.46875 582.085938 L 1228.011719 573.40625 L 1198.851562 524.984375 Z M 1293.207031 638.464844 L 1253.308594 624.949219 L 1229.246094 575.839844 L 1265.964844 584.578125 Z M 1284.507812 727.429688 L 1236.277344 701.953125 L 1226.226562 658.488281 L 1271.082031 677.785156 Z M 1335.269531 758.066406 L 1343.589844 811.308594 L 1293.964844 780.285156 L 1287.421875 731.375 Z M 1398.203125 894.652344 L 1323.335938 945.695312 L 1273.128906 923.625 L 1345.570312 870.976562 Z M 1316.21875 973.070312 L 1286.632812 1014.929688 L 1234.769531 955.835938 L 1262.765625 919.671875 Z M 1115.359375 1043.835938 L 1193.058594 987.152344 L 1241.996094 1052.949219 L 1160.964844 1107.816406 Z M 869.554688 1152.476562 L 948.011719 1092.433594 L 993.894531 1180.28125 L 911.472656 1237.3125 Z M 465.109375 1056.691406 L 528.820312 986.585938 L 615.101562 1042.035156 L 546.289062 1109.671875 Z M 433.632812 850.289062 L 365.628906 781.824219 L 418.378906 701.824219 L 491.292969 773.871094 Z M 221.839844 830.15625 L 270.382812 749.152344 L 354.648438 737.433594 L 303.253906 816.371094 Z M 36.785156 447.609375 L 71.445312 356.992188 L 157.054688 389.472656 L 119.464844 477.238281 Z M 235.15625 231.53125 L 226.332031 272.425781 L 217.929688 269.546875 C 222.496094 260.582031 218.453125 269.355469 235.15625 231.53125 Z M 195.21875 143.242188 L 228.332031 107.625 L 286.464844 144.765625 L 259.050781 177.78125 Z M 341.820312 109.617188 C 341.824219 109.613281 341.828125 109.613281 341.832031 109.609375 L 365.65625 98.898438 L 411.007812 137.75 L 378.324219 155.59375 L 325.835938 116.800781 Z M 460.121094 81.125 L 494.246094 119.277344 L 453.589844 125.097656 L 413.820312 86.195312 Z M 541.007812 120.742188 L 569.175781 158.84375 L 531.898438 160.410156 L 498.546875 121.058594 Z M 588.851562 126.523438 L 610.53125 161.648438 L 571.734375 158.804688 L 543.804688 121.023438 Z M 674.433594 117.023438 L 686.621094 149.476562 L 638.730469 134.332031 L 622.496094 101.308594 Z M 939.71875 258.785156 L 928.660156 276.632812 L 883.957031 245.617188 L 890.351562 224.355469 Z M 1081.355469 381.996094 L 1121.257812 425.515625 L 1094.558594 429.859375 L 1058.492188 389.546875 Z M 1157.199219 517.457031 L 1121.28125 513.554688 L 1095.699219 475.21875 L 1127.480469 475.082031 Z M 1183.582031 562.683594 L 1144.132812 553.789062 L 1122.589844 515.789062 L 1158.726562 519.710938 Z M 1226.625 575.214844 L 1250.53125 624.003906 L 1208.25 609.558594 L 1187.535156 565.742188 Z M 1233.863281 700.71875 L 1185.71875 676.234375 L 1177.292969 637.195312 L 1223.863281 657.46875 Z M 1291.949219 781.472656 L 1291.132812 827.703125 L 1238.296875 789.289062 L 1241.25 749.25 Z M 1113.421875 1042.675781 L 1096.105469 1049 L 1093.761719 1044.160156 L 1142.65625 1009.078125 L 1184.921875 990.507812 Z M 949.21875 1089.910156 L 931.6875 1010.808594 L 1009.003906 1022.03125 L 1037.949219 1100.613281 Z M 844.789062 985.003906 L 839.953125 914.457031 L 911.289062 935.65625 L 928.917969 1008.089844 Z M 576.664062 842.085938 L 609.441406 790.386719 L 683.488281 839.410156 L 662.4375 899.675781 Z M 419.902344 700.410156 L 473.027344 669.203125 L 536.269531 730.425781 L 492.691406 772.328125 Z M 357.011719 734.734375 L 286.726562 647.039062 L 352.894531 624.5 L 416.617188 699.921875 Z M 316.019531 409.714844 L 385.417969 418.148438 L 406.050781 468.910156 L 337.882812 469.570312 Z M 159.359375 387.957031 L 149.109375 314.554688 L 225.664062 333.460938 L 237.835938 398.3125 Z M 260.917969 178.789062 L 288.234375 145.890625 L 345.96875 182.253906 L 323.78125 212.648438 Z M 452.832031 127.363281 L 492.796875 166.355469 L 460.519531 177.578125 L 414.960938 138.402344 Z M 927.550781 278.394531 L 915.859375 296.6875 L 876.199219 269.117188 L 883.292969 247.6875 Z M 954.945312 329.160156 L 905.035156 389.285156 L 867.8125 360.210938 L 916.320312 299.597656 Z M 1092.105469 430.234375 L 1063.808594 434.507812 L 1031.773438 398.824219 L 1056.347656 390.265625 Z M 1119.347656 514.398438 L 1062.183594 570.988281 L 1037.980469 533.433594 L 1093.617188 475.839844 Z M 1142.15625 554.507812 L 1083.695312 610.867188 L 1063.285156 572.824219 L 1120.449219 516.230469 Z M 1160.816406 594.445312 L 1100.761719 651.414062 L 1084.660156 612.828125 L 1143.128906 556.460938 Z M 1174.660156 635.125 L 1112.742188 692.1875 L 1101.550781 653.535156 L 1161.605469 596.566406 Z M 1183.667969 676.546875 L 1119.320312 732.902344 L 1113.3125 694.488281 L 1175.222656 637.433594 Z M 1186.773438 714.359375 L 1121.140625 770.621094 L 1119.636719 735.386719 L 1183.9375 679.082031 Z M 1239.269531 748 L 1236.332031 787.902344 L 1184.46875 751.734375 L 1188.652344 716.558594 Z M 1290.957031 830.144531 L 1281.335938 874.167969 L 1228.246094 829.121094 L 1237.832031 791.523438 Z M 1209.867188 865.867188 L 1227.410156 831.144531 L 1280.707031 876.367188 L 1262.332031 916.339844 Z M 1142.546875 1006.851562 L 1099.90625 938.9375 L 1143.839844 922.257812 L 1191.652344 985.28125 Z M 931.191406 1008.640625 L 913.539062 936.109375 L 980.753906 946.71875 L 1008.179688 1019.820312 Z M 839.792969 912.246094 L 834.363281 846.292969 L 895.625 865.457031 L 910.757812 933.335938 Z M 610.550781 788.632812 L 640.585938 740.710938 L 702.738281 782.324219 L 684.183594 837.378906 Z M 686 838.5 L 704.566406 783.417969 L 767.320312 817.992188 L 761.523438 879.292969 Z M 768.867188 816.46875 C 646.8125 749.222656 588.078125 709.164062 478.066406 581.792969 C 431.046875 513.691406 446.753906 539.441406 408.546875 469.546875 L 387.160156 416.9375 L 375.023438 368.257812 L 371.972656 335.507812 L 383.152344 328.195312 L 415.59375 314.84375 L 451.625 306.066406 L 490.46875 302.285156 C 541.257812 303.328125 522.386719 302.121094 572.84375 307.996094 C 658.230469 327.921875 675.722656 336.328125 740.941406 369.304688 C 900.464844 464.230469 968.773438 553.730469 1026.535156 667.832031 L 1041.675781 708.046875 L 1052.039062 748.730469 L 1057.257812 787.609375 L 1056.824219 826.785156 L 1050.65625 862.3125 L 1046.261719 872.457031 L 1009.582031 876.902344 L 955.753906 874.621094 L 896.824219 863.65625 C 820.949219 839.917969 850.386719 850.984375 768.867188 816.46875 Z M 474.890625 668.121094 L 525.019531 639.226562 L 577.78125 690.238281 L 537.765625 728.984375 Z M 355.007812 623.789062 L 417.320312 602.953125 L 471.597656 667.628906 L 418.4375 698.855469 Z M 437.511719 526.71875 L 475.601562 581.882812 L 418.089844 600.511719 L 374.988281 536.121094 Z M 476.914062 583.644531 L 523.570312 637.660156 L 473.417969 666.570312 L 419.445312 602.257812 Z M 303.507812 349.9375 L 301.378906 300.175781 L 368.734375 323.179688 L 372.828125 366.996094 Z M 404.832031 218.855469 L 386.945312 246.121094 L 325.636719 213.636719 L 347.738281 183.359375 Z M 427.757812 200.589844 L 390.285156 273.6875 L 374.769531 287.632812 L 375.285156 283.171875 L 378.039062 275.683594 L 407.125 219.179688 Z M 457.726562 181.5 L 419.898438 255.507812 L 393.722656 271.539062 L 432.027344 196.820312 Z M 451.878906 245 L 414.613281 313.007812 L 385.027344 325.191406 L 421.429688 257.070312 Z M 914.640625 298.375 L 866.136719 358.976562 L 828.296875 332.78125 L 875.195312 270.949219 Z M 1062.003906 435.605469 L 1008.621094 493.421875 L 977.957031 458.699219 L 1029.960938 399.921875 Z M 1119.152344 772.328125 L 1058.914062 824.65625 L 1059.324219 788.109375 L 1117.636719 737.136719 Z M 1114.027344 808.601562 L 1053.171875 859.976562 L 1058.792969 827.515625 L 1118.769531 775.414062 Z M 1181.394531 755.222656 L 1172.738281 784.488281 L 1105.660156 838.796875 L 1115.832031 809.800781 Z M 1236.03125 790.230469 L 1226.476562 827.644531 L 1174.835938 784.730469 L 1183.9375 753.898438 Z M 1156.90625 814.554688 L 1173.90625 786.664062 L 1225.773438 829.769531 L 1208.304688 864.351562 Z M 1130.015625 839.238281 L 1119.390625 845.6875 L 1141.335938 827.726562 Z M 1098.214844 858.539062 L 1093.683594 859.914062 L 1104.257812 842.609375 L 1169.625 789.683594 L 1154.789062 814.027344 L 1106.667969 853.40625 Z M 1099.007812 847.210938 L 1090.691406 860.820312 L 1079.714844 864.148438 Z M 1102.574219 841.308594 L 1074.894531 865.613281 L 1056.375 871.230469 L 1048.652344 872.164062 L 1052.519531 863.25 L 1112.730469 812.417969 Z M 1059.074219 785.566406 L 1054.164062 748.996094 L 1111.480469 696.175781 L 1117.472656 734.519531 Z M 1053.644531 746.648438 L 1043.839844 708.128906 L 1099.855469 655.136719 L 1111.039062 693.753906 Z M 1043.109375 705.960938 L 1028.710938 667.722656 L 1083.0625 614.386719 L 1099.148438 652.941406 Z M 1027.789062 665.710938 L 1008.867188 628.332031 L 1061.753906 574.371094 L 1082.148438 612.371094 Z M 1007.804688 626.445312 L 984.917969 588.457031 L 1036.496094 534.972656 L 1060.679688 572.496094 Z M 983.742188 586.679688 L 958.425781 550.691406 L 1008.511719 496.605469 L 1035.304688 533.210938 Z M 1007.203125 494.953125 L 957.121094 549.03125 L 928.285156 515.191406 L 976.570312 460.269531 Z M 926.871094 513.648438 L 894.863281 480.796875 L 942.203125 425.191406 L 975.152344 458.734375 Z M 893.363281 479.347656 L 859.460938 448.433594 L 905.308594 392.226562 L 940.699219 423.75 Z M 857.871094 447.089844 L 822.257812 419.195312 L 866.527344 361.847656 L 903.714844 390.890625 Z M 742.980469 368.101562 L 785.355469 309.386719 L 825.285156 333.3125 L 781.652344 391.113281 Z M 827.042969 334.441406 L 864.851562 360.613281 L 820.582031 417.957031 L 783.402344 392.246094 Z M 826.546875 331.644531 L 786.574219 307.691406 L 831.574219 244.734375 L 873.441406 269.820312 Z M 783.519531 308.375 L 741.148438 367.082031 L 700.996094 346.78125 L 742.421875 287.386719 Z M 740.503906 286.5 L 699.082031 345.886719 L 659.390625 329.679688 L 699.777344 269.070312 Z M 697.777344 268.320312 L 657.386719 328.933594 L 616.640625 316.191406 L 656.535156 254.28125 Z M 654.445312 253.679688 L 614.546875 315.59375 L 574.71875 306.304688 L 613.582031 243.171875 Z M 611.398438 242.746094 L 572.542969 305.871094 L 532.734375 301.234375 L 570.683594 236.0625 Z M 568.394531 235.859375 L 530.449219 301.027344 L 492.257812 300.246094 L 530.242188 233.714844 Z M 527.796875 233.800781 L 489.855469 300.261719 L 453.398438 303.816406 L 491.152344 236.3125 Z M 488.496094 236.792969 L 450.835938 304.128906 L 417.386719 312.277344 L 454.847656 243.910156 Z M 381.964844 326.507812 L 371.753906 333.167969 L 370.75 322.425781 L 372.136719 310.4375 L 391.894531 275.078125 L 417.984375 259.101562 Z M 387.175781 279.261719 L 372.757812 305.058594 L 374.410156 290.753906 Z M 396.316406 235.628906 L 383.882812 259.78125 L 388.230469 247.957031 Z M 373.148438 283.5625 L 370.097656 309.960938 C 370.097656 309.964844 370.097656 309.964844 370.097656 309.964844 L 368.820312 321.011719 L 301.453125 298 L 308.046875 253.960938 Z M 897.871094 865.960938 L 954.785156 876.546875 L 979.925781 944.492188 L 913.023438 933.929688 Z M 982.253906 944.78125 L 957.082031 876.75 L 1008.878906 878.941406 L 1042.738281 946.351562 Z M 1011.132812 878.796875 L 1055.960938 873.359375 L 1096.636719 937.648438 L 1045.042969 946.304688 Z M 1058.109375 872.859375 L 1098.242188 860.703125 L 1142.546875 920.527344 L 1098.789062 937.160156 Z M 1144.445312 919.59375 L 1100.15625 859.792969 L 1130.464844 841.398438 L 1179.386719 896.339844 Z M 1180.96875 894.984375 L 1132.089844 840.097656 L 1155.601562 816.1875 L 1207.148438 866.128906 Z M 1182.394531 751.679688 L 1116.390625 806.628906 L 1121.148438 773.351562 L 1186.484375 717.347656 Z M 1036.769531 531.695312 L 1009.945312 495.054688 L 1063.34375 437.222656 L 1092.386719 474.117188 Z M 976.53125 457.171875 L 943.558594 423.605469 L 994.734375 364.152344 L 1028.535156 398.394531 Z M 942.050781 422.171875 L 906.632812 390.617188 L 956.546875 330.472656 L 993.222656 362.71875 Z M 881.5 246.488281 L 874.390625 267.96875 L 832.417969 242.8125 L 836.003906 218.066406 Z M 829.757812 243.699219 L 784.746094 306.667969 L 743.625 285.667969 L 788.765625 221.285156 Z M 786.871094 220.359375 L 741.71875 284.757812 L 700.9375 267.308594 L 744.078125 201.410156 Z M 742.109375 200.621094 L 698.960938 266.527344 L 657.683594 252.476562 L 700.335938 185.105469 Z M 698.28125 184.460938 L 655.625 251.839844 L 614.703125 241.316406 L 655.964844 172.605469 Z M 653.828125 172.117188 L 612.566406 240.832031 L 571.804688 234.144531 L 613.007812 164 Z M 610.746094 163.742188 L 569.570312 233.84375 L 531.390625 231.703125 L 571.757812 160.886719 Z M 569.34375 160.914062 L 529.03125 231.640625 L 492.347656 234.152344 L 532.054688 162.480469 Z M 529.503906 162.792969 L 489.835938 234.390625 L 456.121094 241.53125 L 495.394531 167.738281 Z M 453.429688 242.167969 L 422.863281 254.28125 L 461.035156 179.601562 L 492.570312 168.613281 Z M 412.699219 139.195312 L 458.523438 178.605469 L 431.320312 194.84375 L 380.152344 156.945312 Z M 378.242188 158.121094 L 429.597656 196.15625 L 406.171875 217.238281 L 349.253906 181.851562 Z M 386.003906 247.980469 L 373.675781 281.519531 L 308.585938 251.921875 L 324.589844 215.4375 Z M 306.078125 253.070312 L 299.46875 297.324219 L 228.3125 273.101562 L 239.070312 223.253906 Z M 299.285156 299.460938 L 301.417969 349.433594 L 227.613281 331.792969 L 228.128906 275.21875 Z M 227.863281 333.992188 L 301.621094 351.617188 L 313.171875 407.273438 L 240.003906 398.589844 Z M 303.84375 352.160156 L 373.132812 369.214844 L 384.785156 415.972656 L 315.339844 407.535156 Z M 406.96875 470.984375 L 436.375 524.785156 L 373.769531 534.199219 L 338.90625 471.640625 Z M 372.714844 536.460938 L 416.042969 601.1875 L 353.660156 622.046875 L 303.980469 546.472656 Z M 579.34375 691.625 L 638.898438 739.480469 L 608.878906 787.378906 L 539.328125 730.371094 Z M 664.25 900.796875 L 685.316406 840.488281 L 761.289062 881.523438 L 753.03125 948.074219 Z M 763.519531 880.296875 L 769.324219 818.921875 L 832.214844 845.546875 L 837.636719 911.414062 Z M 1010.492188 1020.066406 L 983.035156 946.875 L 1043.789062 948.441406 L 1079.15625 1018.851562 Z M 1046.011719 948.230469 L 1097.828125 939.539062 L 1140.449219 1007.429688 L 1081.410156 1018.707031 Z M 1137.699219 1010.074219 L 1092.839844 1042.261719 L 1082.355469 1020.628906 Z M 1193.484375 984.253906 L 1145.695312 921.261719 L 1180.78125 897.910156 L 1231.890625 955.71875 Z M 1233.367188 954.246094 L 1182.355469 896.550781 L 1208.644531 867.574219 L 1261.28125 918.195312 Z M 1271.050781 922.566406 L 1263.972656 917.753906 L 1282.960938 876.421875 L 1292.773438 831.496094 L 1343.695312 869.769531 Z M 1188.828125 714.214844 L 1185.984375 678.699219 L 1234.398438 703.324219 L 1239.101562 745.445312 Z M 1176.691406 634.664062 L 1163.730469 596.363281 L 1206.695312 611.226562 L 1222.941406 654.796875 Z M 1205.503906 608.613281 L 1162.828125 593.851562 L 1145.289062 556.179688 L 1184.945312 565.121094 Z M 1094.269531 473.144531 L 1065.328125 436.382812 L 1093.71875 432.09375 L 1125.886719 473.007812 Z M 1030.234375 397.160156 L 996.351562 362.832031 L 1016.417969 350.851562 L 1054.742188 388.625 Z M 994.796875 361.335938 L 957.984375 328.972656 L 973.46875 314.578125 L 1014.792969 349.398438 Z M 956.375 327.636719 L 917.539062 297.910156 L 929.226562 279.640625 L 971.839844 313.253906 Z M 888.542969 223.148438 L 882.140625 244.4375 L 836.300781 215.804688 L 838.585938 192.777344 Z M 834.066406 216.925781 L 830.472656 241.71875 L 789.449219 219.292969 L 787.839844 193.410156 Z M 785.6875 192.339844 L 787.300781 218.28125 L 744.617188 199.371094 L 739.242188 170.695312 Z M 736.933594 169.667969 L 742.332031 198.484375 L 700.726562 183.035156 L 690.058594 152.832031 Z M 698.257812 182.296875 L 656.214844 170.515625 L 639.976562 136.902344 L 687.539062 151.945312 Z M 637.273438 136.09375 L 653.636719 169.960938 L 613.136719 161.914062 L 591.613281 127.039062 Z M 529.421875 160.707031 L 495.101562 165.695312 L 455.457031 126.921875 L 495.886719 121.136719 Z M 451.132812 125.699219 L 413.078125 136.785156 L 368.015625 98.183594 L 411.164062 86.558594 Z M 365.800781 96.636719 C 365.496094 96.65625 365.773438 96.582031 343.660156 106.511719 L 371.894531 48.101562 L 409.449219 84.878906 Z M 376.53125 156.855469 L 347.390625 180.6875 L 289.824219 144.429688 L 323.839844 117.859375 Z M 322.75 214.457031 L 306.691406 251.066406 L 239.734375 221.269531 L 259.765625 180.53125 Z M 226.054688 274.511719 L 225.554688 331.289062 L 148.980469 312.382812 L 152.613281 249.382812 Z M 146.957031 314.023438 L 157.164062 387.289062 L 71.832031 354.914062 L 67.273438 294.347656 Z M 121.550781 477.65625 L 159.085938 390.019531 L 237.558594 400.375 L 196.289062 485.304688 Z M 313.714844 409.433594 L 335.6875 469.582031 L 264.925781 469.828125 L 240.65625 400.761719 Z M 336.546875 471.660156 L 371.574219 534.523438 L 302.8125 544.539062 L 265.875 471.90625 Z M 301.71875 546.804688 L 351.632812 622.730469 L 285.4375 645.28125 L 230.476562 557.566406 Z M 284.636719 647.746094 L 354.808594 735.308594 L 270.199219 747.078125 L 211.367188 672.152344 Z M 307.148438 814.199219 L 357.5 736.863281 L 414.890625 703.339844 L 363.558594 781.1875 Z M 537.824219 731.820312 L 607.761719 789.148438 L 575 840.824219 L 494.226562 773.71875 Z M 661.742188 901.710938 L 640.300781 966.832031 L 540.558594 900.308594 L 575.5625 843.84375 Z M 537.679688 903.945312 L 527.648438 984.78125 L 465.050781 1053.664062 L 476.597656 975.808594 Z M 529.757812 984.714844 L 539.96875 902.417969 L 639.625 968.882812 L 616.1875 1040.261719 Z M 642.121094 967.953125 L 663.574219 902.789062 L 752.769531 950.285156 L 744.964844 1022.300781 Z M 755.011719 949.042969 L 763.273438 882.441406 L 837.820312 913.738281 L 842.648438 984.222656 Z M 844.074219 986.957031 L 928.140625 1010.027344 L 852.671875 1072.152344 L 772.738281 1051.019531 Z M 929.699219 1011.441406 L 947.203125 1090.433594 L 868.945312 1150.324219 L 854.058594 1073.703125 Z M 995.898438 1179.621094 L 950.199219 1092.125 L 1038.75 1102.792969 L 1068.773438 1185.316406 Z M 1040.230469 1100.792969 L 1011.253906 1022.117188 L 1080.175781 1020.898438 L 1117.207031 1097.292969 Z M 1097.019531 1050.882812 L 1106.40625 1047.453125 L 1098.097656 1053.105469 Z M 1243.640625 1051.707031 L 1194.734375 985.917969 L 1233.269531 957.285156 L 1285.242188 1016.496094 Z M 1293.167969 829.191406 L 1293.992188 782.757812 L 1343.921875 813.96875 L 1344.386719 867.683594 Z M 1291.683594 778.839844 L 1241.335938 746.839844 L 1236.613281 704.484375 L 1285.164062 730.128906 Z M 1225.578125 655.945312 L 1209.234375 612.09375 L 1251.765625 626.625 L 1270.121094 675.105469 Z M 1254.3125 627.488281 L 1293.214844 640.667969 L 1267.574219 662.519531 Z M 1225.171875 572.722656 L 1186.34375 563.316406 L 1161.316406 520.042969 L 1196.210938 524.625 Z M 1123.730469 425.140625 L 1083.527344 381.285156 L 1105.421875 374.171875 L 1148.871094 422.078125 Z M 1079.71875 380.34375 L 1056.9375 387.871094 L 1018.265625 349.753906 L 1037.074219 338.636719 Z M 1016.683594 348.273438 L 974.96875 313.117188 L 989.96875 297.875 L 1035.457031 337.175781 Z M 973.351562 311.792969 L 930.339844 277.875 L 941.398438 260.027344 L 988.355469 296.550781 Z M 896.066406 201.886719 L 889.21875 221.128906 L 838.839844 190.496094 L 841.84375 168.933594 Z M 836.894531 189.386719 L 829.464844 185.277344 L 839.417969 171.289062 Z M 836.613281 191.609375 L 834.320312 214.722656 L 787.675781 190.996094 L 785.328125 163.765625 C 834.320312 190.253906 824.375 184.839844 836.613281 191.609375 Z M 736.386719 167.269531 L 689.152344 150.296875 L 677.015625 117.980469 L 729.390625 138.097656 Z M 618.582031 98.121094 L 589.109375 91.453125 L 603.285156 67.917969 Z M 539.457031 118.675781 L 496.785156 119 L 462.894531 81.105469 L 511.632812 81.625 Z M 458.441406 79.226562 L 411.90625 84.324219 L 373.910156 47.160156 L 425.640625 42.074219 Z M 370.40625 46.398438 L 340.710938 107.839844 L 329.988281 112.65625 L 312.621094 83.210938 L 346.726562 7.125 Z M 328.078125 113.511719 L 323.917969 115.378906 L 304.75 101.148438 L 311.589844 85.554688 Z M 257.929688 179.539062 C 232.054688 232.1875 240.902344 213.375 219.796875 261.179688 L 159.472656 230.234375 L 194.082031 144.96875 Z M 218.902344 263.058594 L 215.941406 268.867188 L 153.003906 247.316406 L 158.714844 232.179688 Z M 198.023438 486.488281 L 238.96875 402.230469 L 263.066406 470.777344 L 219.996094 553.289062 Z M 264.179688 473.144531 L 300.648438 544.863281 L 228.601562 555.746094 C 228.597656 555.746094 228.597656 555.746094 228.59375 555.746094 C 228.304688 555.792969 228.15625 555.917969 222 559.375 L 220.90625 556.046875 Z M 220.15625 560.414062 L 217.550781 561.875 L 219.53125 558.457031 Z M 304.621094 818.089844 L 360.863281 785.171875 L 314.488281 853.679688 L 260.550781 887.582031 Z M 364.445312 783.585938 L 432.375 851.96875 L 381.332031 921.035156 L 316.5625 854.324219 Z M 435.167969 851.707031 L 492.835938 775.261719 L 573.773438 842.5 L 512.191406 914.835938 Z M 567.078125 853.578125 L 538.300781 900.003906 L 483.878906 964.027344 L 513.167969 916.902344 Z M 474.058594 978.746094 L 462.535156 1056.429688 L 406.046875 1118.710938 L 419.160156 1042.203125 Z M 618.015625 1041.359375 L 641.464844 969.957031 L 744.386719 1024.351562 L 706.851562 1088.582031 Z M 754.765625 951.179688 L 841.867188 986.140625 L 770.40625 1050.316406 L 739.054688 1037.59375 C 749.449219 1019.8125 745.304688 1038.476562 754.765625 951.179688 Z M 995.53125 1181.683594 L 1067.222656 1187.273438 L 985.5 1241.421875 L 914.226562 1237.964844 Z M 1071.019531 1185.40625 L 1040.972656 1102.824219 L 1118.011719 1099.339844 L 1137.21875 1181.742188 Z M 1119.84375 1098.023438 L 1099.015625 1054.996094 L 1113.65625 1045.035156 L 1159.230469 1108.972656 L 1127.261719 1129.851562 Z M 1308.707031 1111.234375 L 1245.027344 1053.253906 L 1286.621094 1018.058594 L 1340.6875 1078.941406 Z M 1341.972656 1077.253906 L 1288.050781 1016.535156 L 1317.574219 974.757812 L 1365.121094 1040.695312 Z M 1270.96875 924.929688 L 1321.265625 947.058594 L 1304.230469 958.167969 Z M 1346.480469 869.105469 L 1346.003906 815.316406 L 1396.628906 848.457031 L 1399.183594 892.8125 Z M 1396.164062 845.667969 L 1345.914062 812.769531 L 1337.664062 759.921875 L 1387.40625 800.019531 Z M 1268.359375 664.589844 L 1295.675781 641.304688 L 1327.292969 641.042969 L 1274.992188 684.296875 C 1272.394531 674.691406 1273.839844 679.070312 1268.359375 664.589844 Z M 1295.921875 639.222656 L 1268.632812 585.257812 L 1304.796875 594.566406 L 1328.484375 638.949219 Z M 1276.15625 548.800781 L 1303.234375 592.015625 L 1267.339844 582.777344 L 1235.195312 530.820312 Z M 1125.304688 427.042969 L 1148.414062 424.230469 L 1135.167969 439.332031 Z M 1150.992188 421.320312 L 1107.585938 373.46875 L 1127.996094 366.835938 L 1164.976562 405.863281 Z M 1089.632812 329.339844 L 1126.34375 365.183594 L 1106.011719 371.792969 L 1060.128906 327.480469 Z M 950.980469 237.503906 L 898.566406 201.035156 L 904.742188 182.867188 L 947.019531 212.113281 Z M 859.371094 154.308594 L 902.949219 181.667969 L 896.761719 199.878906 L 842.863281 167.121094 Z M 700.011719 73.210938 L 720.226562 105.222656 L 664.421875 83.664062 L 654.011719 55.636719 Z M 651.433594 54.671875 L 661.898438 82.839844 L 604.402344 65.003906 L 604.285156 38.863281 Z M 602.214844 41.296875 L 602.320312 65.484375 L 586.972656 90.96875 L 575.308594 88.332031 Z M 440.046875 5.71875 L 480.59375 40.871094 L 426.566406 39.964844 L 395.074219 3.390625 Z M 203.730469 45.953125 L 268.046875 77.519531 L 228.144531 105.03125 L 170.757812 67.945312 Z M 192.308594 143.808594 L 157.71875 229.023438 L 104.488281 185.355469 L 136.625 98.859375 Z M 103.726562 187.421875 L 156.914062 231.054688 L 150.964844 246.828125 L 84.742188 239.121094 Z M 65.117188 292.75 L 33.5625 376.855469 L 36.054688 334.828125 L 67.96875 245.613281 Z M 33.566406 341.683594 L 31.09375 383.433594 L 3.140625 458.199219 L 7.082031 414.589844 Z M 2.449219 465.992188 L 31.335938 388.730469 L 34.382812 448.0625 L 3.902344 527.457031 Z M 159.285156 565.699219 L 196.714844 489.164062 L 218.671875 555.785156 L 213.992188 563.875 L 167.152344 590.199219 Z M 208.433594 671.675781 L 163.074219 756.085938 L 117.800781 683.132812 L 160.417969 597.34375 Z M 116.726562 685.347656 L 161.933594 758.1875 L 120.613281 832.722656 L 79.175781 763.25 Z M 121.875 834.738281 L 163.277344 760.050781 L 218.527344 831.628906 L 173.789062 905.75 Z M 456.261719 984.320312 L 503.875 927.910156 L 474.765625 974.75 L 426.914062 1030.058594 Z M 565.640625 1214.886719 L 486.011719 1173.042969 L 546.613281 1112.28125 L 629.90625 1156.808594 Z M 708.164062 1090.460938 L 737.996094 1039.410156 L 768.671875 1051.851562 L 702.917969 1109.664062 L 691.554688 1105.195312 C 708.203125 1090.511719 707.996094 1090.742188 708.164062 1090.460938 Z M 911.414062 1239.910156 L 982.582031 1243.355469 L 907.230469 1293.390625 L 838.007812 1290.726562 Z M 971.503906 1286.832031 L 911.597656 1292.988281 L 986.128906 1243.5 L 1045.867188 1240.234375 Z M 1143.378906 1213.636719 L 1122.945312 1193.820312 L 1139.070312 1183.589844 C 1140.027344 1182.980469 1139.742188 1183.4375 1127.761719 1132.007812 L 1160.597656 1110.5625 L 1220.753906 1166.023438 Z M 1143.378906 1213.636719 " fill-opacity="1" fill-rule="nonzero"/></g></g></g></g></svg>