<svg xmlns="http://www.w3.org/2000/svg" xmlns:xlink="http://www.w3.org/1999/xlink" width="2000" zoomAndPan="magnify" viewBox="0 0 1500 1499.999933" height="2000" preserveAspectRatio="xMidYMid meet" version="1.0"><defs><clipPath id="4968ebc748"><path d="M 1250.113281 575.851562 L 1301.863281 575.851562 L 1301.863281 641.101562 L 1250.113281 641.101562 Z M 1250.113281 575.851562 " clip-rule="nonzero"/></clipPath><clipPath id="176e8b79aa"><path d="M 207.121094 62.808594 L 1293 62.808594 L 1293 1437.558594 L 207.121094 1437.558594 Z M 207.121094 62.808594 " clip-rule="nonzero"/></clipPath></defs><g clip-path="url(#4968ebc748)"><path fill="#ffffff" d="M 1294.214844 619.597656 C 1298.773438 614.953125 1301.589844 608.589844 1301.589844 601.582031 C 1301.589844 587.394531 1290.046875 575.851562 1275.859375 575.851562 C 1261.671875 575.851562 1250.128906 587.394531 1250.128906 601.582031 C 1250.128906 608.589844 1252.945312 614.953125 1257.507812 619.597656 L 1250.628906 631.507812 C 1250.449219 631.820312 1250.46875 632.210938 1250.679688 632.507812 C 1250.890625 632.800781 1251.257812 632.945312 1251.613281 632.875 L 1260.867188 631.007812 L 1263.875 639.953125 C 1263.992188 640.296875 1264.300781 640.542969 1264.660156 640.578125 C 1264.691406 640.582031 1264.722656 640.582031 1264.753906 640.582031 C 1265.082031 640.582031 1265.386719 640.410156 1265.554688 640.121094 L 1273.039062 627.15625 C 1273.964844 627.257812 1274.90625 627.3125 1275.859375 627.3125 C 1276.8125 627.3125 1277.753906 627.257812 1278.683594 627.15625 L 1286.4375 640.59375 C 1286.605469 640.882812 1286.910156 641.054688 1287.238281 641.054688 C 1287.269531 641.054688 1287.300781 641.054688 1287.332031 641.050781 C 1287.691406 641.015625 1288 640.769531 1288.113281 640.425781 L 1291.125 631.476562 L 1300.378906 633.34375 C 1300.734375 633.417969 1301.097656 633.273438 1301.3125 632.980469 C 1301.523438 632.683594 1301.542969 632.292969 1301.359375 631.976562 Z M 1264.976562 637.425781 L 1262.359375 629.644531 C 1262.210938 629.203125 1261.757812 628.941406 1261.300781 629.035156 L 1253.253906 630.65625 L 1258.886719 620.902344 C 1262.277344 623.886719 1266.460938 625.992188 1271.074219 626.867188 Z M 1251.976562 601.582031 C 1251.976562 588.414062 1262.691406 577.699219 1275.859375 577.699219 C 1289.027344 577.699219 1299.742188 588.414062 1299.742188 601.582031 C 1299.742188 614.75 1289.027344 625.464844 1275.859375 625.464844 C 1262.691406 625.464844 1251.976562 614.75 1251.976562 601.582031 Z M 1290.691406 629.503906 C 1290.234375 629.414062 1289.78125 629.675781 1289.632812 630.117188 L 1287.015625 637.898438 L 1280.648438 626.863281 C 1285.261719 625.992188 1289.441406 623.886719 1292.832031 620.902344 L 1298.738281 631.128906 Z M 1275.859375 582.46875 C 1265.320312 582.46875 1256.746094 591.042969 1256.746094 601.582031 C 1256.746094 612.121094 1265.320312 620.695312 1275.859375 620.695312 C 1286.398438 620.695312 1294.972656 612.121094 1294.972656 601.582031 C 1294.972656 591.042969 1286.398438 582.46875 1275.859375 582.46875 Z M 1275.859375 618.847656 C 1266.339844 618.847656 1258.59375 611.101562 1258.59375 601.582031 C 1258.59375 592.0625 1266.339844 584.316406 1275.859375 584.316406 C 1285.378906 584.316406 1293.125 592.0625 1293.125 601.582031 C 1293.125 611.101562 1285.378906 618.847656 1275.859375 618.847656 Z M 1288.289062 598.703125 C 1288.171875 598.34375 1287.84375 598.089844 1287.464844 598.066406 L 1279.605469 597.585938 L 1276.71875 590.261719 C 1276.582031 589.90625 1276.238281 589.675781 1275.859375 589.675781 C 1275.480469 589.675781 1275.140625 589.90625 1275 590.261719 L 1272.113281 597.585938 L 1264.253906 598.066406 C 1263.875 598.089844 1263.550781 598.34375 1263.433594 598.703125 C 1263.316406 599.066406 1263.429688 599.460938 1263.722656 599.703125 L 1269.800781 604.710938 L 1267.828125 612.335938 C 1267.734375 612.703125 1267.871094 613.089844 1268.179688 613.3125 C 1268.488281 613.535156 1268.898438 613.550781 1269.21875 613.347656 L 1275.859375 609.113281 L 1282.5 613.347656 C 1282.652344 613.441406 1282.824219 613.492188 1282.996094 613.492188 C 1283.1875 613.492188 1283.378906 613.429688 1283.539062 613.3125 C 1283.847656 613.089844 1283.988281 612.703125 1283.890625 612.335938 L 1281.917969 604.710938 L 1287.996094 599.703125 C 1288.289062 599.460938 1288.40625 599.066406 1288.289062 598.703125 Z M 1280.289062 603.660156 C 1280.011719 603.886719 1279.894531 604.257812 1279.984375 604.605469 L 1281.515625 610.527344 L 1276.355469 607.238281 C 1276.207031 607.144531 1276.03125 607.09375 1275.859375 607.09375 C 1275.6875 607.09375 1275.515625 607.144531 1275.363281 607.238281 L 1270.203125 610.527344 L 1271.738281 604.605469 C 1271.828125 604.257812 1271.707031 603.886719 1271.429688 603.660156 L 1266.707031 599.769531 L 1272.816406 599.394531 C 1273.171875 599.375 1273.488281 599.148438 1273.617188 598.8125 L 1275.859375 593.121094 L 1278.101562 598.8125 C 1278.234375 599.148438 1278.546875 599.375 1278.90625 599.394531 L 1285.011719 599.769531 Z M 1280.289062 603.660156 " fill-opacity="1" fill-rule="nonzero"/></g><g clip-path="url(#176e8b79aa)"><path fill="#d9d9d9" d="M 1136.714844 984.890625 C 1232.832031 886.980469 1292.222656 752.890625 1292.222656 605.171875 C 1292.222656 306.113281 1048.917969 62.808594 749.859375 62.808594 C 450.796875 62.808594 207.492188 306.113281 207.492188 605.171875 C 207.492188 752.890625 266.882812 886.976562 363 984.886719 L 218.070312 1235.910156 C 214.242188 1242.539062 214.652344 1250.796875 219.121094 1257.011719 C 223.585938 1263.230469 231.285156 1266.257812 238.789062 1264.738281 L 433.84375 1225.367188 L 497.277344 1413.976562 C 499.714844 1421.230469 506.179688 1426.382812 513.800781 1427.144531 C 514.445312 1427.207031 515.09375 1427.242188 515.742188 1427.242188 C 522.644531 1427.242188 529.101562 1423.570312 532.601562 1417.503906 L 690.359375 1144.257812 C 709.902344 1146.398438 729.75 1147.535156 749.855469 1147.535156 C 769.960938 1147.535156 789.804688 1146.398438 809.347656 1144.257812 L 972.851562 1427.445312 C 976.351562 1433.511719 982.804688 1437.183594 989.710938 1437.183594 C 990.355469 1437.183594 991 1437.152344 991.652344 1437.085938 C 999.269531 1436.328125 1005.734375 1431.175781 1008.175781 1423.917969 L 1071.609375 1235.308594 L 1266.664062 1274.679688 C 1274.164062 1276.203125 1281.863281 1273.171875 1286.332031 1266.957031 C 1290.800781 1260.742188 1291.210938 1252.484375 1287.382812 1245.855469 Z M 520.441406 1360.667969 L 465.285156 1196.671875 C 462.15625 1187.367188 452.589844 1181.847656 442.972656 1183.789062 L 273.371094 1218.023438 L 392.078125 1012.421875 C 463.585938 1075.316406 551.714844 1119.710938 648.949219 1138.085938 Z M 246.445312 605.171875 C 246.445312 327.589844 472.277344 101.757812 749.859375 101.757812 C 1027.441406 101.757812 1253.269531 327.589844 1253.269531 605.171875 C 1253.269531 882.753906 1027.441406 1108.585938 749.859375 1108.585938 C 472.273438 1108.585938 246.445312 882.753906 246.445312 605.171875 Z M 1062.476562 1193.730469 C 1052.847656 1191.792969 1043.292969 1197.308594 1040.164062 1206.613281 L 985.011719 1370.609375 L 850.761719 1138.082031 C 947.996094 1119.710938 1036.132812 1075.316406 1107.636719 1012.417969 L 1232.078125 1227.960938 Z M 749.859375 202.304688 C 527.714844 202.304688 346.992188 383.027344 346.992188 605.171875 C 346.992188 827.316406 527.714844 1008.039062 749.859375 1008.039062 C 972 1008.039062 1152.726562 827.316406 1152.726562 605.171875 C 1152.726562 383.03125 972 202.304688 749.859375 202.304688 Z M 749.859375 969.089844 C 549.191406 969.089844 385.941406 805.835938 385.941406 605.171875 C 385.941406 404.507812 549.191406 241.253906 749.859375 241.253906 C 950.523438 241.253906 1113.777344 404.507812 1113.777344 605.171875 C 1113.777344 805.839844 950.523438 969.089844 749.859375 969.089844 Z M 1011.816406 544.5 C 1009.339844 536.890625 1002.46875 531.570312 994.480469 531.078125 L 828.800781 520.960938 L 767.980469 366.511719 C 765.046875 359.066406 757.863281 354.175781 749.859375 354.175781 C 741.859375 354.175781 734.671875 359.066406 731.742188 366.511719 L 670.921875 520.960938 L 505.238281 531.078125 C 497.25 531.566406 490.375 536.886719 487.90625 544.5 C 485.433594 552.113281 487.867188 560.457031 494.039062 565.546875 L 622.136719 671.117188 L 580.558594 831.816406 C 578.554688 839.5625 581.492188 847.746094 587.96875 852.449219 C 594.4375 857.148438 603.128906 857.414062 609.878906 853.117188 L 749.859375 763.917969 L 889.84375 853.121094 C 893.042969 855.15625 896.679688 856.171875 900.308594 856.171875 C 904.332031 856.171875 908.351562 854.925781 911.753906 852.453125 C 918.230469 847.75 921.167969 839.566406 919.164062 831.820312 L 877.589844 671.121094 L 1005.683594 565.550781 C 1011.855469 560.457031 1014.289062 552.109375 1011.816406 544.5 Z M 843.238281 648.953125 C 837.394531 653.765625 834.875 661.53125 836.769531 668.859375 L 869.066406 793.691406 L 760.324219 724.402344 C 757.132812 722.367188 753.492188 721.347656 749.859375 721.347656 C 746.222656 721.347656 742.585938 722.367188 739.390625 724.402344 L 630.644531 793.691406 L 662.945312 668.859375 C 664.839844 661.53125 662.316406 653.765625 656.476562 648.953125 L 556.964844 566.941406 L 685.671875 559.082031 C 693.230469 558.621094 699.832031 553.824219 702.605469 546.777344 L 749.859375 426.800781 L 797.105469 546.78125 C 799.878906 553.824219 806.480469 558.621094 814.035156 559.085938 L 942.742188 566.945312 Z M 843.238281 648.953125 " fill-opacity="1" fill-rule="nonzero"/></g></svg>