<svg xmlns="http://www.w3.org/2000/svg" xmlns:xlink="http://www.w3.org/1999/xlink" width="2000" zoomAndPan="magnify" viewBox="0 0 1500 1499.999933" height="2000" preserveAspectRatio="xMidYMid meet" version="1.0"><defs><clipPath id="3fdac8be9b"><path d="M 259.75 741 L 381 741 L 381 750 L 259.75 750 Z M 259.75 741 " clip-rule="nonzero"/></clipPath><clipPath id="392ad025cc"><path d="M 746 991 L 754 991 L 754 1349.753906 L 746 1349.753906 Z M 746 991 " clip-rule="nonzero"/></clipPath><clipPath id="cdccb16689"><path d="M 1119 741 L 1240 741 L 1240 749.671875 L 1119 749.671875 Z M 1119 741 " clip-rule="nonzero"/></clipPath></defs><path fill="#3a2a79" d="M 732.757812 717.90625 L 732.789062 717.960938 L 732.757812 717.90625 " fill-opacity="1" fill-rule="nonzero"/><path fill="#3a2a79" d="M 698.671875 986.71875 L 648.941406 1204.636719 C 648.554688 1206.34375 647.074219 1207.480469 645.398438 1207.480469 C 645.132812 1207.480469 644.867188 1207.449219 644.601562 1207.382812 C 642.644531 1206.949219 641.402344 1204.980469 641.867188 1203.039062 L 691.542969 985.414062 C 693.917969 985.878906 696.296875 986.332031 698.671875 986.71875 " fill-opacity="1" fill-rule="nonzero"/><path fill="#3a2a79" d="M 648.941406 286.21875 L 698.691406 504.183594 C 696.316406 504.570312 693.9375 505.035156 691.570312 505.492188 L 641.867188 287.820312 C 641.402344 285.878906 642.644531 283.90625 644.601562 283.472656 C 646.546875 283.035156 648.503906 284.25 648.941406 286.21875 " fill-opacity="1" fill-rule="nonzero"/><path fill="#3a2a79" d="M 575.085938 373.738281 L 644.746094 518.390625 C 642.445312 519.195312 640.160156 520.019531 637.886719 520.890625 L 568.542969 376.894531 C 567.671875 375.074219 568.417969 372.914062 570.238281 372.042969 C 572.054688 371.171875 574.214844 371.921875 575.085938 373.738281 " fill-opacity="1" fill-rule="nonzero"/><path fill="#3a2a79" d="M 644.726562 972.542969 L 575.085938 1117.117188 C 574.460938 1118.425781 573.171875 1119.171875 571.820312 1119.171875 C 571.277344 1119.171875 570.75 1119.058594 570.238281 1118.8125 C 568.417969 1117.941406 567.671875 1115.78125 568.542969 1113.964844 L 637.859375 970.042969 C 640.160156 970.886719 642.445312 971.738281 644.726562 972.542969 " fill-opacity="1" fill-rule="nonzero"/><path fill="#3a2a79" d="M 569.414062 741.792969 L 569.414062 749.066406 L 569.460938 749.066406 C 569.679688 760.363281 570.949219 771.417969 573.125 782.089844 L 573.25 782.574219 C 573.683594 784.800781 574.195312 786.988281 574.753906 789.164062 C 577.445312 800.058594 581.128906 810.53125 585.714844 820.542969 C 586.707031 822.75 587.75 824.929688 588.855469 827.085938 C 593.90625 837.03125 599.824219 846.464844 606.558594 855.214844 C 608.015625 857.148438 609.542969 859.042969 611.09375 860.890625 C 618.171875 869.421875 626.050781 877.300781 634.59375 884.378906 C 636.429688 885.929688 638.324219 887.457031 640.265625 888.914062 L 640.285156 888.914062 C 649.035156 895.65625 658.449219 901.59375 668.386719 906.613281 C 670.542969 907.734375 672.722656 908.773438 674.929688 909.769531 C 684.949219 914.351562 695.425781 918.035156 706.308594 920.726562 C 708.484375 921.285156 710.671875 921.789062 712.898438 922.234375 L 713.390625 922.347656 C 724.054688 924.535156 735.109375 925.792969 746.40625 926.011719 L 746.40625 926.058594 L 753.679688 926.058594 L 753.679688 926.011719 C 764.980469 925.792969 776.042969 924.535156 786.707031 922.347656 L 787.1875 922.234375 C 789.425781 921.789062 791.601562 921.285156 793.789062 920.726562 C 804.671875 918.035156 815.148438 914.351562 825.15625 909.769531 C 827.363281 908.773438 829.550781 907.734375 831.703125 906.632812 C 841.648438 901.566406 851.082031 895.65625 859.832031 888.914062 C 861.773438 887.457031 863.65625 885.929688 865.503906 884.378906 C 874.039062 877.300781 881.898438 869.441406 889 860.90625 L 889 860.890625 C 890.554688 859.042969 892.078125 857.148438 893.527344 855.214844 C 900.273438 846.464844 906.191406 837.03125 911.230469 827.085938 C 912.347656 824.929688 913.390625 822.75 914.382812 820.542969 C 918.96875 810.53125 922.652344 800.058594 925.34375 789.164062 C 925.902344 786.988281 926.414062 784.800781 926.847656 782.574219 L 926.972656 782.089844 C 929.148438 771.417969 930.410156 760.363281 930.625 749.066406 L 930.675781 749.066406 L 930.675781 741.792969 L 930.625 741.792969 C 930.410156 730.492188 929.148438 719.441406 926.972656 708.765625 L 926.847656 708.285156 C 926.414062 706.078125 925.902344 703.871094 925.34375 701.710938 L 925.34375 701.691406 C 922.652344 690.800781 918.96875 680.324219 914.382812 670.3125 C 913.390625 668.105469 912.347656 665.929688 911.230469 663.769531 C 906.191406 653.824219 900.273438 644.390625 893.527344 635.640625 C 892.078125 633.707031 890.554688 631.816406 889 629.96875 C 881.917969 621.433594 874.039062 613.554688 865.503906 606.480469 C 863.65625 604.925781 861.773438 603.402344 859.832031 601.941406 C 851.082031 595.199219 841.648438 589.289062 831.703125 584.222656 C 829.550781 583.125 827.363281 582.082031 825.15625 581.089844 C 815.148438 576.503906 804.671875 572.820312 793.789062 570.128906 C 791.601562 569.570312 789.425781 569.070312 787.1875 568.625 L 786.707031 568.511719 C 776.042969 566.324219 764.980469 565.0625 753.679688 564.84375 L 753.679688 564.796875 L 746.40625 564.796875 L 746.40625 564.84375 C 735.109375 565.0625 724.054688 566.324219 713.390625 568.511719 L 712.898438 568.625 C 710.671875 569.070312 708.484375 569.570312 706.308594 570.128906 C 695.425781 572.820312 684.949219 576.503906 674.929688 581.089844 C 672.722656 582.082031 670.542969 583.125 668.386719 584.222656 C 658.449219 589.261719 649.035156 595.199219 640.285156 601.914062 C 640.265625 601.914062 640.265625 601.914062 640.265625 601.941406 C 638.324219 603.402344 636.429688 604.925781 634.59375 606.480469 C 626.050781 613.554688 618.171875 621.433594 611.09375 629.96875 C 609.542969 631.816406 608.015625 633.707031 606.558594 635.640625 C 599.824219 644.390625 593.90625 653.824219 588.855469 663.769531 C 587.75 665.929688 586.707031 668.105469 585.714844 670.3125 C 581.128906 680.324219 577.445312 690.800781 574.753906 701.691406 C 574.195312 703.871094 573.683594 706.058594 573.25 708.285156 L 573.125 708.765625 C 570.949219 719.441406 569.679688 730.492188 569.460938 741.792969 Z M 919.886719 780.460938 C 921.96875 770.234375 923.164062 759.730469 923.351562 749.066406 L 887.449219 749.066406 C 886.453125 750.808594 884.757812 752.097656 882.675781 752.53125 C 879.472656 753.214844 876.292969 753.867188 873.117188 754.519531 C 866.207031 755.921875 859.054688 757.410156 852.140625 758.953125 C 847.679688 759.976562 843.492188 761.019531 839.515625 762.105469 C 839.488281 762.105469 839.488281 762.136719 839.488281 762.136719 Z M 918.285156 787.546875 C 915.738281 797.820312 912.273438 807.785156 907.859375 817.390625 L 812.648438 771.539062 C 812.914062 771.398438 813.160156 771.304688 813.421875 771.179688 C 817.277344 769.484375 821.332031 767.902344 825.621094 766.398438 Z M 887.46875 741.792969 L 923.351562 741.792969 C 923.164062 731.128906 921.96875 720.625 919.886719 710.394531 L 839.488281 728.722656 L 839.515625 728.75 C 846.355469 730.617188 852.972656 732.121094 859.082031 733.449219 C 863.855469 734.46875 868.675781 735.417969 873.480469 736.363281 C 875.882812 736.847656 878.308594 737.300781 880.734375 737.792969 C 881.3125 737.910156 881.871094 738.058594 882.476562 738.230469 L 883.035156 738.402344 C 884.976562 738.902344 886.550781 740.144531 887.46875 741.792969 Z M 825.59375 724.460938 L 918.285156 703.3125 C 915.738281 693.035156 912.273438 683.070312 907.859375 673.46875 L 812.582031 719.335938 C 813.765625 719.894531 815.003906 720.433594 816.238281 720.9375 C 819.34375 722.222656 822.46875 723.390625 825.59375 724.460938 Z M 887.855469 850.679688 C 894.335938 842.269531 899.960938 833.320312 904.714844 823.960938 L 804.625 775.734375 L 804.597656 775.734375 C 802.589844 776.949219 800.648438 778.234375 798.78125 779.636719 Z M 804.644531 715.09375 L 904.714844 666.894531 C 899.960938 657.539062 894.335938 648.585938 887.855469 640.175781 L 798.78125 711.21875 C 800.648438 712.601562 802.589844 713.910156 804.625 715.09375 Z M 883.328125 856.351562 L 883.328125 856.382812 C 879.957031 860.40625 876.414062 864.28125 872.65625 868.039062 C 868.894531 871.800781 864.992188 875.359375 860.96875 878.703125 L 788.988281 788.417969 C 790.265625 787.007812 791.601562 785.652344 793.011719 784.363281 L 793.03125 784.363281 Z M 863.515625 749.066406 C 866.207031 748.507812 868.894531 747.949219 871.566406 747.417969 L 872.417969 747.21875 C 875.324219 746.640625 878.234375 746.035156 881.167969 745.429688 L 880.5625 745.257812 C 880.082031 745.117188 879.691406 745.011719 879.273438 744.917969 C 876.898438 744.460938 874.472656 743.96875 872.078125 743.515625 C 869.234375 742.957031 866.355469 742.371094 863.441406 741.792969 C 861.480469 741.375 859.519531 740.96875 857.550781 740.550781 C 847.707031 738.449219 836.53125 735.804688 825.15625 732.015625 L 825.15625 732 C 821.285156 730.691406 817.371094 729.253906 813.472656 727.660156 C 813.253906 727.558594 813.035156 727.492188 812.847656 727.386719 L 808.355469 728.410156 L 812.816406 727.367188 C 809.863281 726.125 807.019531 724.792969 804.332031 723.3125 C 801.765625 721.929688 799.292969 720.433594 796.933594 718.804688 C 795.550781 717.90625 794.199219 716.910156 792.910156 715.898438 C 790.949219 714.390625 789.082031 712.792969 787.285156 711.066406 C 786.269531 710.148438 785.304688 709.183594 784.40625 708.1875 C 782.679688 706.417969 781.082031 704.550781 779.554688 702.582031 C 778.53125 701.304688 777.566406 699.96875 776.648438 698.585938 L 776.621094 698.585938 C 775.019531 696.234375 773.511719 693.765625 772.128906 691.1875 C 770.699219 688.574219 769.394531 685.835938 768.179688 682.96875 C 768.160156 682.902344 768.113281 682.804688 768.085938 682.730469 C 766.363281 678.65625 764.835938 674.539062 763.453125 670.390625 L 763.453125 670.363281 C 759.476562 658.578125 756.710938 646.769531 754.457031 636.277344 C 754.191406 635.015625 753.925781 633.773438 753.679688 632.542969 C 752.902344 628.785156 752.15625 625.023438 751.378906 621.09375 L 751.191406 620.175781 C 750.773438 618.042969 750.367188 615.902344 749.902344 613.707031 L 748.9375 618.601562 C 748.253906 622.089844 747.621094 625.335938 746.964844 628.613281 C 746.777344 629.511719 746.605469 630.433594 746.40625 631.332031 C 743.933594 643.425781 740.953125 656.882812 736.566406 670.019531 C 735.714844 672.519531 734.84375 674.992188 733.894531 677.445312 C 733.242188 679.113281 732.589844 680.742188 731.933594 682.3125 L 731.90625 682.34375 C 730.628906 685.371094 729.265625 688.234375 727.835938 690.921875 C 726.402344 693.566406 724.925781 696.039062 723.375 698.394531 L 723.355469 698.394531 C 722.425781 699.796875 721.460938 701.132812 720.445312 702.441406 L 720.445312 702.46875 C 718.914062 704.457031 717.3125 706.339844 715.617188 708.113281 C 714.914062 708.890625 714.1875 709.617188 713.4375 710.347656 C 713.21875 710.566406 712.972656 710.785156 712.726562 711 C 712.726562 711.019531 712.726562 711.019531 712.710938 711.019531 C 710.9375 712.726562 709.074219 714.324219 707.082031 715.820312 C 705.777344 716.84375 704.441406 717.8125 703.03125 718.757812 C 700.710938 720.332031 698.238281 721.816406 695.59375 723.246094 C 692.925781 724.675781 690.113281 726.03125 687.082031 727.339844 C 683.320312 728.96875 679.25 730.492188 674.816406 731.96875 L 674.789062 731.96875 C 674.523438 732.066406 674.257812 732.167969 673.964844 732.265625 C 661.433594 736.363281 648.648438 739.320312 636.382812 741.792969 C 633.617188 742.371094 630.878906 742.910156 628.191406 743.421875 C 626.03125 743.855469 623.871094 744.292969 621.710938 744.726562 L 618.925781 745.285156 C 623.898438 746.46875 628.917969 747.511719 633.789062 748.507812 C 634.6875 748.707031 635.585938 748.875 636.457031 749.066406 C 637.886719 749.359375 639.320312 749.671875 640.71875 749.964844 C 651.128906 752.191406 662.929688 754.9375 674.789062 758.886719 C 678.453125 760.117188 682.109375 761.453125 685.746094 762.929688 C 686.210938 763.128906 686.644531 763.300781 687.109375 763.519531 C 690.0625 764.75 692.894531 766.113281 695.613281 767.609375 C 698.179688 768.992188 700.664062 770.5 703.011719 772.128906 C 704.394531 773.046875 705.746094 774.039062 707.054688 775.054688 C 709.023438 776.589844 710.890625 778.1875 712.679688 779.882812 L 712.710938 779.882812 C 713.703125 780.832031 714.667969 781.796875 715.597656 782.792969 C 717.3125 784.582031 718.914062 786.457031 720.417969 788.390625 C 720.417969 788.417969 720.445312 788.417969 720.445312 788.417969 C 721.460938 789.753906 722.453125 791.105469 723.355469 792.488281 C 725.003906 794.867188 726.480469 797.339844 727.835938 799.933594 C 728.808594 801.703125 729.679688 803.496094 730.535156 805.359375 C 731.015625 806.429688 731.472656 807.5 731.90625 808.5625 C 733.628906 812.632812 735.15625 816.734375 736.539062 820.902344 C 740.734375 833.414062 743.667969 846.390625 746.40625 859.628906 C 746.578125 860.453125 746.746094 861.25 746.917969 862.074219 C 747.601562 865.320312 748.226562 868.597656 748.90625 872.035156 L 749.902344 877.179688 L 751.378906 869.734375 C 752.15625 865.804688 752.902344 862.054688 753.679688 858.339844 C 753.925781 857.082031 754.191406 855.839844 754.457031 854.609375 C 756.664062 844.183594 759.429688 832.351562 763.425781 820.402344 L 763.425781 820.371094 C 764.636719 816.78125 765.972656 813.191406 767.433594 809.605469 C 767.621094 809.121094 767.839844 808.609375 768.085938 808.125 L 768.085938 808.105469 C 769.296875 805.171875 770.652344 802.359375 772.128906 799.6875 L 772.128906 799.667969 C 773.511719 797.09375 775.019531 794.648438 776.648438 792.289062 C 777.566406 790.917969 778.53125 789.554688 779.554688 788.273438 C 781.082031 786.304688 782.679688 784.410156 784.375 782.648438 C 785.324219 781.65625 786.269531 780.707031 787.234375 779.761719 C 789.035156 778.066406 790.902344 776.464844 792.863281 774.941406 C 794.179688 773.917969 795.503906 772.949219 796.886719 772.023438 C 799.265625 770.402344 801.738281 768.898438 804.332031 767.542969 C 806.320312 766.453125 808.386719 765.460938 810.488281 764.511719 C 811.265625 764.171875 812.070312 763.832031 812.863281 763.488281 C 816.765625 761.839844 820.847656 760.289062 825.15625 758.859375 L 825.1875 758.839844 C 832.746094 756.3125 841.070312 754.039062 850.519531 751.878906 C 854.839844 750.914062 859.179688 749.964844 863.515625 749.066406 Z M 793.0625 706.492188 L 883.328125 634.503906 L 883.328125 634.476562 C 879.957031 630.449219 876.414062 626.578125 872.65625 622.816406 C 868.894531 619.058594 864.992188 615.496094 860.96875 612.152344 L 788.988281 702.441406 C 790.265625 703.851562 791.628906 705.175781 793.03125 706.492188 C 793.03125 706.492188 793.03125 706.492188 793.0625 706.492188 Z M 784.253906 794.167969 L 855.292969 883.242188 C 846.882812 889.71875 837.933594 895.335938 828.578125 900.089844 L 780.351562 799.953125 C 781.5625 797.917969 782.851562 796.003906 784.253906 794.167969 Z M 784.234375 696.71875 L 855.292969 607.617188 C 846.882812 601.136719 837.933594 595.523438 828.578125 590.765625 L 780.351562 690.902344 C 781.542969 692.941406 782.851562 694.851562 784.234375 696.71875 Z M 776.109375 682.921875 L 822.003906 587.613281 C 812.429688 583.226562 802.4375 579.734375 792.191406 577.214844 L 792.160156 577.1875 L 770.992188 669.972656 L 770.992188 670 C 772.1875 673.421875 773.464844 676.8125 774.875 680.15625 C 775.265625 681.101562 775.671875 682.03125 776.109375 682.921875 Z M 776.109375 807.9375 L 822.003906 903.242188 C 812.410156 907.65625 802.4375 911.125 792.160156 913.671875 L 770.976562 820.835938 C 771.96875 817.996094 773.03125 815.164062 774.175781 812.351562 C 774.78125 810.84375 775.40625 809.367188 776.109375 807.9375 Z M 644.792969 883.242188 L 715.738281 794.28125 L 715.738281 794.308594 C 717.140625 796.175781 718.457031 798.132812 719.640625 800.199219 L 671.511719 900.089844 C 662.152344 895.335938 653.210938 889.71875 644.792969 883.242188 Z M 639.121094 878.703125 L 710.984375 788.585938 C 709.726562 787.15625 708.34375 785.773438 706.914062 784.488281 L 616.769531 856.351562 C 620.113281 860.378906 623.683594 864.28125 627.433594 868.039062 C 631.191406 871.800781 635.09375 875.359375 639.121094 878.703125 Z M 715.011719 915.269531 C 725.238281 917.355469 735.742188 918.539062 746.40625 918.738281 L 746.40625 883.535156 C 744.570312 882.511719 743.207031 880.742188 742.769531 878.5625 L 741.777344 873.464844 C 741.101562 870.027344 740.46875 866.78125 739.816406 863.53125 C 737.828125 853.898438 735.789062 844.476562 733.269531 835.230469 Z M 707.9375 913.671875 C 697.648438 911.125 687.6875 907.65625 678.082031 903.242188 L 723.835938 808.25 C 723.867188 808.277344 723.867188 808.324219 723.886719 808.34375 C 725.777344 812.566406 727.472656 816.90625 729 821.289062 L 729 821.320312 Z M 612.230469 850.679688 L 701.164062 779.761719 C 699.296875 778.332031 697.335938 777.023438 695.300781 775.832031 L 595.382812 823.960938 C 600.136719 833.320312 605.761719 842.269531 612.230469 850.679688 Z M 592.230469 817.390625 L 687.375 771.585938 C 685.964844 770.914062 684.515625 770.28125 683.007812 769.675781 C 680.148438 768.507812 677.257812 767.421875 674.351562 766.425781 L 581.800781 787.546875 C 584.347656 797.820312 587.816406 807.785156 592.230469 817.390625 Z M 580.210938 710.394531 L 660.4375 728.703125 C 649.082031 731.847656 637.691406 734.207031 626.828125 736.289062 C 624.621094 736.695312 622.441406 737.132812 620.261719 737.597656 L 617.496094 738.15625 C 615.339844 738.589844 613.546875 739.945312 612.554688 741.792969 L 576.734375 741.792969 C 576.933594 731.128906 578.117188 720.625 580.210938 710.394531 Z M 581.800781 703.3125 L 674.351562 724.429688 L 674.378906 724.429688 C 679.105469 722.785156 683.398438 721.089844 687.296875 719.242188 L 592.230469 673.46875 C 587.816406 683.070312 584.347656 693.035156 581.800781 703.3125 Z M 580.210938 780.460938 L 660.484375 762.152344 C 653.089844 760.117188 645.863281 758.46875 639.222656 757.066406 C 636.914062 756.585938 634.640625 756.121094 632.339844 755.636719 C 627.414062 754.617188 622.316406 753.574219 617.230469 752.359375 C 615.289062 751.90625 613.660156 750.695312 612.695312 749.066406 L 576.734375 749.066406 C 576.933594 759.730469 578.117188 770.234375 580.210938 780.460938 Z M 644.792969 607.585938 C 653.210938 601.136719 662.152344 595.523438 671.511719 590.765625 L 719.621094 690.65625 C 718.410156 692.742188 717.121094 694.703125 715.757812 696.578125 L 715.757812 696.597656 L 644.792969 607.617188 Z M 639.121094 612.152344 C 635.09375 615.496094 631.191406 619.058594 627.433594 622.816406 C 623.683594 626.578125 620.113281 630.480469 616.769531 634.503906 L 706.988281 706.445312 C 707.441406 706 707.90625 705.566406 708.371094 705.128906 C 709.289062 704.238281 710.191406 703.3125 711.0625 702.363281 Z M 595.382812 666.894531 C 600.136719 657.539062 605.761719 648.585938 612.230469 640.175781 L 701.210938 711.144531 C 699.34375 712.507812 697.386719 713.785156 695.300781 715.027344 Z M 753.679688 572.117188 C 764.355469 572.316406 774.847656 573.5 785.085938 575.585938 L 766.703125 656.109375 C 764.667969 648.691406 763.019531 641.4375 761.558594 634.75 C 760.519531 629.824219 759.523438 624.851562 758.511719 619.691406 C 758.046875 617.265625 757.535156 614.796875 757.035156 612.265625 C 756.617188 610.210938 755.386719 608.515625 753.679688 607.492188 Z M 707.9375 577.1875 C 697.648438 579.734375 687.6875 583.199219 678.082031 587.613281 L 723.835938 682.609375 C 724.972656 680.15625 726.0625 677.585938 727.113281 674.851562 C 727.769531 673.128906 728.421875 671.382812 729.027344 669.632812 L 729.027344 669.613281 Z M 753.679688 918.738281 C 764.355469 918.539062 774.847656 917.355469 785.085938 915.269531 L 766.703125 834.703125 C 764.636719 842.164062 762.992188 849.4375 761.558594 856.105469 C 760.519531 861.058594 759.550781 866.003906 758.511719 871.164062 L 757.035156 878.609375 C 756.691406 880.304688 755.765625 881.761719 754.503906 882.804688 C 754.238281 883.023438 753.972656 883.191406 753.679688 883.363281 Z M 715.011719 575.585938 L 733.289062 655.691406 C 735.988281 645.851562 738.023438 636.078125 739.816406 627.183594 C 740.46875 623.933594 741.121094 620.65625 741.804688 617.191406 L 742.769531 612.265625 C 743.207031 610.117188 744.570312 608.34375 746.40625 607.324219 L 746.40625 572.117188 C 735.742188 572.316406 725.238281 573.5 715.011719 575.585938 " fill-opacity="1" fill-rule="evenodd"/><path fill="#3a2a79" d="M 459.949219 509.449219 L 539.789062 573.113281 C 537.722656 574.523438 535.667969 575.972656 533.605469 577.453125 L 533.585938 577.453125 L 455.410156 515.121094 C 453.859375 513.882812 453.59375 511.582031 454.851562 510 C 456.09375 508.457031 458.394531 508.179688 459.949219 509.449219 " fill-opacity="1" fill-rule="nonzero"/><path fill="#3a2a79" d="M 592.011719 541.40625 L 592.011719 541.421875 C 589.832031 542.542969 587.644531 543.675781 585.464844 544.871094 L 509.234375 449.269531 C 507.976562 447.71875 508.242188 445.417969 509.820312 444.175781 C 511.375 442.914062 513.675781 443.179688 514.90625 444.734375 L 592.011719 541.40625 " fill-opacity="1" fill-rule="nonzero"/><path fill="#3a2a79" d="M 591.992188 949.453125 L 514.90625 1046.121094 C 514.207031 1047.023438 513.144531 1047.476562 512.074219 1047.476562 C 511.269531 1047.476562 510.476562 1047.210938 509.820312 1046.679688 C 508.242188 1045.441406 507.976562 1043.140625 509.234375 1041.566406 L 585.464844 945.984375 C 587.625 947.179688 589.804688 948.34375 591.992188 949.453125 " fill-opacity="1" fill-rule="nonzero"/><path fill="#3a2a79" d="M 539.757812 917.761719 L 459.949219 981.40625 C 459.292969 981.945312 458.488281 982.210938 457.695312 982.210938 C 456.625 982.210938 455.5625 981.75 454.851562 980.859375 C 453.59375 979.277344 453.859375 976.976562 455.410156 975.734375 L 533.585938 913.40625 C 535.640625 914.882812 537.703125 916.332031 539.757812 917.761719 " fill-opacity="1" fill-rule="nonzero"/><path fill="#3a2a79" d="M 404.324219 574.914062 L 486.835938 614.644531 C 484.847656 616.347656 482.886719 618.0625 480.917969 619.863281 L 401.179688 581.457031 C 399.363281 580.585938 398.605469 578.425781 399.476562 576.609375 C 400.347656 574.789062 402.507812 574.03125 404.324219 574.914062 " fill-opacity="1" fill-rule="nonzero"/><path fill="#3a2a79" d="M 486.816406 876.230469 L 404.324219 915.945312 C 403.824219 916.191406 403.28125 916.3125 402.753906 916.3125 C 401.398438 916.3125 400.109375 915.566406 399.476562 914.25 C 398.605469 912.429688 399.363281 910.269531 401.179688 909.398438 L 480.898438 871.023438 C 482.859375 872.792969 484.828125 874.507812 486.816406 876.230469 " fill-opacity="1" fill-rule="nonzero"/><path fill="#3a2a79" d="M 431.164062 821.925781 L 341.96875 842.289062 C 341.703125 842.363281 341.4375 842.382812 341.171875 842.382812 C 339.496094 842.382812 338.019531 841.246094 337.628906 839.550781 C 337.167969 837.609375 338.40625 835.648438 340.367188 835.214844 L 425.566406 815.769531 C 427.386719 817.824219 429.253906 819.890625 431.164062 821.925781 " fill-opacity="1" fill-rule="nonzero"/><path fill="#3a2a79" d="M 418.152344 741.792969 C 416.710938 744.433594 416.742188 746.421875 418.152344 749.066406 C 418.757812 750.230469 419.648438 751.488281 420.792969 752.996094 C 435.066406 771.683594 450.277344 789.535156 466.398438 806.460938 C 468.359375 808.515625 470.300781 810.550781 472.289062 812.539062 C 486.351562 826.964844 501.117188 840.734375 516.507812 853.851562 C 518.542969 855.574219 520.5625 857.300781 522.625 858.964844 C 522.988281 859.289062 523.375 859.601562 523.734375 859.914062 C 536.511719 870.464844 549.628906 880.476562 563.238281 889.765625 C 565.320312 891.195312 567.425781 892.625 569.566406 894.007812 C 582.140625 902.34375 595.117188 910.054688 608.546875 917.042969 C 610.734375 918.207031 612.941406 919.316406 615.167969 920.414062 C 619.550781 922.613281 623.964844 924.722656 628.457031 926.757812 C 636.800781 930.546875 645.210938 934.015625 653.714844 937.09375 C 656.027344 937.933594 658.296875 938.742188 660.601562 939.515625 C 673.40625 943.855469 686.425781 947.351562 699.640625 949.886719 C 702.015625 950.378906 704.414062 950.816406 706.789062 951.203125 C 719.738281 953.363281 732.882812 954.59375 746.265625 954.8125 C 746.3125 954.8125 746.359375 954.8125 746.40625 954.8125 C 747.335938 954.839844 748.273438 954.839844 749.199219 954.839844 C 750.699219 954.839844 752.183594 954.8125 753.679688 954.8125 C 766.828125 954.546875 780.378906 953.289062 793.296875 951.175781 C 795.703125 950.789062 798.097656 950.378906 800.457031 949.917969 C 805.308594 948.996094 810.03125 947.976562 814.589844 946.839844 C 823.027344 944.726562 831.3125 942.28125 839.488281 939.535156 C 841.789062 938.757812 844.101562 937.964844 846.375 937.113281 C 859.613281 932.367188 872.464844 926.808594 884.996094 920.507812 C 887.203125 919.417969 889.410156 918.300781 891.617188 917.136719 C 904.902344 910.175781 917.851562 902.417969 930.484375 893.980469 C 931.089844 893.621094 931.667969 893.203125 932.273438 892.816406 C 933.808594 891.800781 935.304688 890.761719 936.839844 889.71875 C 950.921875 880.039062 964.503906 869.78125 977.566406 859.023438 C 979.628906 857.320312 981.664062 855.625 983.675781 853.898438 C 999.101562 840.859375 1013.820312 827.039062 1027.902344 812.566406 C 1029.863281 810.550781 1031.832031 808.515625 1033.71875 806.460938 C 1049.089844 790.28125 1063.636719 773.261719 1077.484375 755.515625 C 1079.566406 752.824219 1081.074219 750.808594 1081.972656 749.066406 C 1083.375 746.421875 1083.375 744.433594 1081.972656 741.792969 C 1081.074219 740.066406 1079.566406 738.03125 1077.484375 735.34375 C 1063.714844 717.574219 1049.136719 700.601562 1033.71875 684.398438 C 1031.785156 682.359375 1029.816406 680.324219 1027.828125 678.316406 C 1014.976562 665.152344 1001.574219 652.519531 987.605469 640.421875 C 986.269531 639.257812 984.941406 638.113281 983.578125 637.003906 C 981.570312 635.253906 979.535156 633.539062 977.5 631.863281 C 964.382812 620.953125 950.875 610.617188 936.886719 601.070312 C 934.773438 599.613281 932.691406 598.210938 930.5625 596.828125 C 917.972656 588.511719 905 580.777344 891.570312 573.796875 C 889.390625 572.628906 887.183594 571.511719 884.949219 570.421875 C 877.890625 566.882812 870.695312 563.558594 863.375 560.433594 C 857.746094 558.035156 852.074219 555.800781 846.375 553.746094 C 844.101562 552.894531 841.789062 552.097656 839.488281 551.320312 C 826.683594 546.953125 813.667969 543.460938 800.457031 540.914062 C 798.082031 540.429688 795.675781 540.023438 793.296875 539.632812 C 781.980469 537.738281 770.511719 536.574219 758.871094 536.167969 C 757.148438 536.121094 755.40625 536.0625 753.679688 536.042969 C 752.46875 536.015625 751.257812 536.015625 750.042969 536.015625 C 748.832031 536.015625 747.621094 536.015625 746.40625 536.0625 C 733.003906 536.234375 719.8125 537.472656 706.789062 539.652344 C 704.414062 540.039062 702.042969 540.457031 699.667969 540.941406 C 686.472656 543.488281 673.480469 547.003906 660.628906 551.386719 C 658.328125 552.144531 656.042969 552.941406 653.742188 553.792969 C 650.417969 554.976562 647.105469 556.265625 643.796875 557.570312 C 634.035156 561.472656 624.476562 565.765625 615.167969 570.421875 C 612.941406 571.542969 610.734375 572.648438 608.546875 573.8125 C 595.136719 580.804688 582.171875 588.511719 569.582031 596.875 C 567.453125 598.230469 565.339844 599.660156 563.257812 601.121094 C 552.515625 608.46875 542.042969 616.273438 531.8125 624.445312 C 528.734375 626.890625 525.675781 629.390625 522.675781 631.890625 C 520.609375 633.585938 518.574219 635.300781 516.535156 637.003906 C 501.117188 650.140625 486.351562 663.894531 472.289062 678.316406 C 470.300781 680.324219 468.339844 682.359375 466.417969 684.425781 C 450.277344 701.351562 435.066406 719.195312 420.765625 737.890625 C 419.628906 739.394531 418.730469 740.65625 418.152344 741.792969 Z M 880.316406 576.21875 C 873.746094 572.972656 867.152344 569.941406 860.53125 567.128906 C 854.71875 564.65625 848.96875 562.402344 843.21875 560.335938 C 840.917969 559.484375 838.617188 558.660156 836.316406 557.914062 C 823.726562 553.667969 811.265625 550.375 798.828125 547.996094 C 796.453125 547.511719 794.054688 547.097656 791.679688 546.707031 C 780.671875 544.890625 769.6875 543.828125 758.632812 543.441406 C 757.003906 543.394531 755.328125 543.335938 753.679688 543.316406 C 752.46875 543.289062 751.257812 543.289062 750.042969 543.289062 C 748.832031 543.289062 747.621094 543.289062 746.40625 543.335938 C 733.753906 543.507812 721.101562 544.625 708.417969 546.738281 C 706.042969 547.097656 703.636719 547.53125 701.269531 548.015625 C 688.871094 550.394531 676.417969 553.699219 663.800781 557.988281 C 661.527344 558.738281 659.226562 559.53125 656.914062 560.382812 C 653.476562 561.625 649.984375 562.933594 646.496094 564.332031 C 637.519531 567.921875 628.625 571.902344 619.800781 576.265625 C 617.59375 577.335938 615.386719 578.445312 613.179688 579.609375 C 600.574219 586.089844 588.0625 593.429688 575.550781 601.628906 C 573.4375 603.011719 571.308594 604.414062 569.195312 605.875 C 558.265625 613.261719 547.328125 621.339844 536.339844 630.136719 C 534.191406 631.863281 532.03125 633.605469 529.902344 635.375 C 527.835938 637.050781 525.769531 638.746094 523.734375 640.488281 C 508.78125 653.046875 494.402344 666.316406 480.652344 680.230469 C 478.613281 682.246094 476.65625 684.285156 474.695312 686.320312 C 457.742188 703.871094 441.8125 722.394531 426.921875 741.792969 C 426.808594 741.960938 426.65625 742.132812 426.535156 742.304688 C 425.179688 744.09375 424.648438 744.992188 424.433594 745.429688 C 424.648438 745.863281 425.179688 746.78125 426.5625 748.582031 C 426.6875 748.753906 426.808594 748.894531 426.949219 749.066406 C 441.734375 768.386719 457.695312 786.941406 474.695312 804.566406 C 476.671875 806.601562 478.664062 808.636719 480.652344 810.644531 C 494.375 824.519531 508.75 837.78125 523.734375 850.386719 C 525.289062 851.691406 526.839844 853.007812 528.394531 854.289062 C 528.878906 854.703125 529.390625 855.113281 529.871094 855.5 C 543.007812 866.316406 556.078125 876.136719 569.175781 885.011719 C 571.308594 886.46875 573.417969 887.871094 575.523438 889.253906 C 588.015625 897.398438 600.496094 904.722656 613.160156 911.246094 C 615.367188 912.410156 617.59375 913.519531 619.800781 914.617188 C 623.683594 916.53125 627.554688 918.367188 631.457031 920.140625 C 639.992188 924.023438 648.457031 927.460938 656.867188 930.519531 C 659.167969 931.34375 661.480469 932.148438 663.78125 932.914062 C 676.339844 937.160156 688.824219 940.464844 701.269531 942.839844 C 703.636719 943.296875 706.011719 943.730469 708.417969 944.101562 C 721.070312 946.203125 733.707031 947.351562 746.40625 947.566406 C 747.308594 947.566406 748.253906 947.566406 749.199219 947.566406 C 750.679688 947.566406 752.183594 947.539062 753.679688 947.519531 C 766.171875 947.300781 779.121094 946.109375 791.679688 944.074219 C 794.074219 943.710938 796.480469 943.296875 798.828125 942.839844 C 803.601562 941.941406 808.261719 940.917969 812.816406 939.78125 C 820.699219 937.820312 828.53125 935.539062 836.316406 932.945312 C 838.617188 932.167969 840.917969 931.390625 843.21875 930.546875 C 855.683594 926.085938 868.050781 920.820312 880.394531 914.710938 C 882.597656 913.625 884.804688 912.507812 887.011719 911.339844 C 899.496094 904.871094 911.988281 897.496094 924.519531 889.226562 C 925.757812 888.429688 926.988281 887.605469 928.230469 886.78125 C 929.101562 886.175781 930 885.589844 930.875 884.984375 C 944.425781 875.75 957.589844 865.957031 970.367188 855.558594 C 972.433594 853.878906 974.488281 852.183594 976.550781 850.460938 C 991.394531 838.046875 1005.722656 824.832031 1019.605469 810.675781 C 1021.59375 808.65625 1023.566406 806.648438 1025.527344 804.585938 C 1041.429688 787.980469 1056.800781 770.1875 1071.734375 751.027344 C 1072.105469 750.570312 1072.664062 749.859375 1073.242188 749.066406 C 1074.234375 747.757812 1075.324219 746.253906 1075.664062 745.429688 C 1075.304688 744.605469 1074.265625 743.097656 1073.269531 741.792969 C 1072.683594 741.015625 1072.125 740.285156 1071.734375 739.800781 C 1057.3125 721.183594 1041.84375 703.292969 1025.429688 686.292969 C 1023.460938 684.253906 1021.480469 682.21875 1019.492188 680.210938 C 1007.703125 668.304688 995.484375 656.855469 982.851562 645.898438 C 980.71875 644.0625 978.589844 642.214844 976.457031 640.421875 C 974.390625 638.699219 972.355469 637.003906 970.320312 635.328125 C 957.15625 624.539062 944.058594 614.71875 930.9375 605.828125 C 928.808594 604.386719 926.695312 602.984375 924.566406 601.601562 C 912.082031 593.410156 899.542969 586.089844 886.9375 579.589844 C 884.730469 578.425781 882.523438 577.308594 880.316406 576.21875 " fill-opacity="1" fill-rule="evenodd"/><g clip-path="url(#3fdac8be9b)"><path fill="#3a2a79" d="M 263.386719 741.792969 L 380.929688 741.792969 C 380.714844 744.214844 380.714844 746.640625 380.929688 749.066406 L 263.386719 749.066406 C 261.378906 749.066406 259.75 747.4375 259.75 745.429688 C 259.75 743.421875 261.378906 741.792969 263.386719 741.792969 " fill-opacity="1" fill-rule="nonzero"/></g><path fill="#3a2a79" d="M 431.164062 668.929688 C 429.28125 670.96875 427.414062 673.03125 425.566406 675.085938 L 340.367188 655.644531 C 338.40625 655.207031 337.167969 653.246094 337.628906 651.304688 C 338.066406 649.34375 340.007812 648.105469 341.96875 648.570312 L 431.164062 668.929688 " fill-opacity="1" fill-rule="nonzero"/><path fill="#3a2a79" d="M 753.679688 144.742188 L 753.679688 499.675781 C 752.46875 499.648438 751.257812 499.648438 750.070312 499.648438 C 748.859375 499.648438 747.621094 499.648438 746.40625 499.695312 L 746.40625 144.742188 C 746.40625 142.734375 748.035156 141.105469 750.042969 141.105469 C 752.0625 141.105469 753.679688 142.734375 753.679688 144.742188 " fill-opacity="1" fill-rule="nonzero"/><g clip-path="url(#392ad025cc)"><path fill="#3a2a79" d="M 753.679688 991.164062 L 753.679688 1346.117188 C 753.679688 1348.125 752.0625 1349.753906 750.042969 1349.753906 C 748.035156 1349.753906 746.40625 1348.125 746.40625 1346.117188 L 746.40625 991.179688 C 747.570312 991.210938 749.199219 991.210938 749.199219 991.210938 C 750.679688 991.210938 752.183594 991.210938 753.679688 991.164062 " fill-opacity="1" fill-rule="nonzero"/></g><path fill="#3a2a79" d="M 858.230469 1203.039062 C 858.695312 1204.980469 857.453125 1206.949219 855.492188 1207.382812 C 855.226562 1207.449219 854.953125 1207.480469 854.6875 1207.480469 C 853.023438 1207.480469 851.535156 1206.34375 851.15625 1204.636719 L 801.394531 986.703125 C 803.800781 986.3125 806.195312 985.878906 808.554688 985.414062 L 858.230469 1203.039062 " fill-opacity="1" fill-rule="nonzero"/><path fill="#3a2a79" d="M 855.492188 283.472656 C 857.453125 283.90625 858.695312 285.878906 858.230469 287.820312 L 808.554688 505.425781 C 806.179688 504.933594 803.800781 504.496094 801.425781 504.089844 L 851.15625 286.21875 C 851.589844 284.25 853.523438 283.015625 855.492188 283.472656 " fill-opacity="1" fill-rule="nonzero"/><path fill="#3a2a79" d="M 929.851562 372.042969 C 931.667969 372.914062 932.425781 375.074219 931.546875 376.894531 L 862.226562 520.816406 C 859.953125 519.945312 857.671875 519.121094 855.398438 518.296875 L 925 373.738281 C 925.871094 371.921875 928.058594 371.171875 929.851562 372.042969 " fill-opacity="1" fill-rule="nonzero"/><path fill="#3a2a79" d="M 931.546875 1113.964844 C 932.425781 1115.78125 931.667969 1117.941406 929.851562 1118.8125 C 929.347656 1119.058594 928.808594 1119.171875 928.277344 1119.171875 C 926.921875 1119.171875 925.636719 1118.425781 925 1117.117188 L 855.398438 972.542969 C 857.699219 971.738281 859.972656 970.914062 862.257812 970.0625 L 931.546875 1113.964844 " fill-opacity="1" fill-rule="nonzero"/><path fill="#3a2a79" d="M 1045.234375 510 C 1046.496094 511.582031 1046.230469 513.882812 1044.675781 515.121094 L 966.539062 577.433594 C 964.476562 575.972656 962.390625 574.523438 960.328125 573.066406 L 1040.121094 509.449219 C 1041.703125 508.179688 1044.003906 508.457031 1045.234375 510 " fill-opacity="1" fill-rule="nonzero"/><path fill="#3a2a79" d="M 990.851562 1041.566406 C 992.113281 1043.140625 991.847656 1045.441406 990.292969 1046.679688 C 989.621094 1047.210938 988.816406 1047.476562 988.019531 1047.476562 C 986.949219 1047.476562 985.878906 1047.023438 985.179688 1046.121094 L 908.179688 949.554688 C 910.332031 948.410156 912.519531 947.246094 914.695312 946.0625 L 990.851562 1041.566406 " fill-opacity="1" fill-rule="nonzero"/><path fill="#3a2a79" d="M 990.292969 444.175781 C 991.847656 445.417969 992.113281 447.71875 990.851562 449.269531 L 914.628906 544.871094 C 912.472656 543.675781 910.285156 542.511719 908.105469 541.40625 L 985.179688 444.734375 C 986.421875 443.179688 988.722656 442.914062 990.292969 444.175781 " fill-opacity="1" fill-rule="nonzero"/><path fill="#3a2a79" d="M 1159.730469 835.214844 C 1161.691406 835.648438 1162.929688 837.609375 1162.46875 839.550781 C 1162.078125 841.246094 1160.601562 842.382812 1158.925781 842.382812 C 1158.660156 842.382812 1158.394531 842.363281 1158.128906 842.289062 L 1068.949219 821.945312 C 1070.816406 819.90625 1072.683594 817.851562 1074.546875 815.769531 L 1159.730469 835.214844 " fill-opacity="1" fill-rule="nonzero"/><path fill="#3a2a79" d="M 1162.46875 651.304688 C 1162.929688 653.246094 1161.691406 655.207031 1159.730469 655.644531 L 1074.578125 675.085938 C 1072.730469 673.03125 1070.863281 670.96875 1068.980469 668.914062 L 1158.128906 648.570312 C 1160.089844 648.132812 1162.03125 649.34375 1162.46875 651.304688 " fill-opacity="1" fill-rule="nonzero"/><path fill="#3a2a79" d="M 1100.613281 576.609375 C 1101.492188 578.425781 1100.734375 580.585938 1098.917969 581.457031 L 1019.21875 619.832031 C 1017.285156 618.042969 1015.316406 616.320312 1013.328125 614.597656 L 1095.761719 574.914062 C 1097.5625 574.03125 1099.742188 574.789062 1100.613281 576.609375 " fill-opacity="1" fill-rule="nonzero"/><g clip-path="url(#cdccb16689)"><path fill="#3a2a79" d="M 1236.710938 741.792969 C 1238.71875 741.792969 1240.347656 743.421875 1240.347656 745.429688 C 1240.347656 747.4375 1238.71875 749.066406 1236.710938 749.066406 L 1119.230469 749.066406 C 1119.507812 746.640625 1119.507812 744.214844 1119.261719 741.792969 L 1236.710938 741.792969 " fill-opacity="1" fill-rule="nonzero"/></g><path fill="#3a2a79" d="M 1044.675781 975.734375 C 1046.230469 976.976562 1046.496094 979.277344 1045.234375 980.859375 C 1044.535156 981.75 1043.464844 982.210938 1042.402344 982.210938 C 1041.597656 982.210938 1040.804688 981.945312 1040.121094 981.40625 L 960.261719 917.714844 C 962.34375 916.285156 964.402344 914.835938 966.464844 913.359375 L 1044.675781 975.734375 " fill-opacity="1" fill-rule="nonzero"/><path fill="#3a2a79" d="M 1098.917969 909.398438 C 1100.734375 910.269531 1101.492188 912.429688 1100.613281 914.25 C 1099.988281 915.566406 1098.699219 916.3125 1097.34375 916.3125 C 1096.804688 916.3125 1096.273438 916.191406 1095.761719 915.945312 L 1013.375 876.28125 C 1015.363281 874.566406 1017.332031 872.839844 1019.292969 871.070312 L 1098.917969 909.398438 " fill-opacity="1" fill-rule="nonzero"/></svg>