<svg xmlns="http://www.w3.org/2000/svg" xmlns:xlink="http://www.w3.org/1999/xlink" width="1920" zoomAndPan="magnify" viewBox="0 0 1440 809.999993" height="1080" preserveAspectRatio="xMidYMid meet" version="1.0"><defs><clipPath id="ee37cb4931"><path d="M 0 474.058594 L 1440 474.058594 L 1440 810 L 0 810 Z M 0 474.058594 " clip-rule="nonzero"/></clipPath></defs><g clip-path="url(#ee37cb4931)"><path fill="#3a2a79" d="M 1390.808594 490.859375 C 1285.617188 525.992188 1210.773438 547.476562 1128.085938 566.113281 C 1032.566406 587.699219 964.644531 596.558594 884.707031 597.882812 C 798.355469 599.207031 730.636719 592.179688 625.546875 570.695312 C 583.1875 562.039062 534 550.941406 429.421875 526.398438 C 325.65625 502.0625 261.5 489.128906 221.785156 484.75 C 151.21875 476.804688 79.527344 483.121094 12.320312 503.179688 L -0.207031 506.847656 L -0.410156 658.371094 L -0.714844 810 L 1440.707031 810 L 1440.707031 641.976562 C 1440.707031 549.515625 1440.605469 474.058594 1440.503906 474.160156 C 1440.300781 474.261719 1418 481.796875 1390.808594 490.859375 Z M 1390.808594 490.859375 " fill-opacity="1" fill-rule="nonzero"/></g></svg>