<svg xmlns="http://www.w3.org/2000/svg" xmlns:xlink="http://www.w3.org/1999/xlink" width="2000" zoomAndPan="magnify" viewBox="0 0 1500 1499.999933" height="2000" preserveAspectRatio="xMidYMid meet" version="1.0"><defs><clipPath id="c91193593e"><path d="M 150 150 L 1328.847656 150 L 1328.847656 1328.847656 L 150 1328.847656 Z M 150 150 " clip-rule="nonzero"/></clipPath><clipPath id="3ed679e52a"><path d="M 739.457031 150 L 1328.910156 739.457031 L 739.457031 1328.910156 L 150 739.457031 Z M 739.457031 150 " clip-rule="nonzero"/></clipPath><clipPath id="9afd78f8c5"><path d="M 191.777344 193.125 L 1279.753906 193.125 L 1279.753906 1281.101562 L 191.777344 1281.101562 Z M 191.777344 193.125 " clip-rule="nonzero"/></clipPath><clipPath id="0bf2d81766"><path d="M 735.8125 193.125 L 1279.84375 737.160156 L 735.8125 1281.191406 L 191.777344 737.160156 Z M 735.8125 193.125 " clip-rule="nonzero"/></clipPath><clipPath id="5ce96882ff"><path d="M 632 806 L 841 806 L 841 924.40625 L 632 924.40625 Z M 632 806 " clip-rule="nonzero"/></clipPath><clipPath id="bae60eeef4"><path d="M 640 452.703125 L 833 452.703125 L 833 645 L 640 645 Z M 640 452.703125 " clip-rule="nonzero"/></clipPath></defs><g clip-path="url(#c91193593e)"><g clip-path="url(#3ed679e52a)"><path stroke-linecap="butt" transform="matrix(0.826101, 0, 0, 0.826101, 150.00002, 149.999967)" fill="none" stroke-linejoin="miter" d="M 713.540885 0.0000398498 L 1427.077067 713.54095 L 713.540885 1427.077132 L -0.0000247306 713.54095 Z M 713.540885 0.0000398498 " stroke="#d9d9d9" stroke-width="27.236366" stroke-opacity="1" stroke-miterlimit="4"/></g></g><g clip-path="url(#9afd78f8c5)"><g clip-path="url(#0bf2d81766)"><path stroke-linecap="butt" transform="matrix(0.826101, 0, 0, 0.826101, 191.778444, 193.126252)" fill="none" stroke-linejoin="miter" d="M 658.556154 -0.00151575 L 1317.108911 658.55597 L 658.556154 1317.108727 L -0.0013319 658.55597 Z M 658.556154 -0.00151575 " stroke="#d9d9d9" stroke-width="18.157578" stroke-opacity="1" stroke-miterlimit="4"/></g></g><path fill="#d9d9d9" d="M 584.566406 615.707031 L 584.566406 583.21875 C 584.566406 569.777344 595.210938 559.132812 608.65625 559.132812 L 620.976562 559.132812 C 620.417969 555.773438 620.417969 551.851562 620.417969 548.488281 C 620.417969 545.128906 620.417969 541.207031 620.976562 537.847656 L 608.65625 537.847656 C 583.449219 537.847656 563.28125 558.011719 563.28125 583.21875 L 563.28125 615.707031 C 566.644531 615.148438 570.5625 615.148438 573.925781 615.148438 C 577.285156 615.148438 581.207031 615.148438 584.566406 615.707031 Z M 584.566406 615.707031 " fill-opacity="1" fill-rule="nonzero"/><path fill="#d9d9d9" d="M 864.644531 559.132812 C 877.53125 559.132812 888.734375 569.777344 888.734375 583.21875 L 888.734375 615.707031 C 892.09375 615.148438 896.015625 615.148438 899.375 615.148438 C 903.296875 615.148438 906.65625 615.148438 910.019531 615.707031 L 910.019531 583.21875 C 910.019531 558.011719 889.851562 537.847656 864.644531 537.847656 L 852.324219 537.847656 C 852.882812 541.207031 852.882812 545.128906 852.882812 548.488281 C 852.882812 551.851562 852.882812 555.773438 852.324219 559.132812 Z M 864.644531 559.132812 " fill-opacity="1" fill-rule="nonzero"/><path fill="#d9d9d9" d="M 660.1875 800 C 651.226562 783.195312 636.664062 770.3125 619.296875 763.03125 C 606.414062 771.992188 590.167969 777.035156 573.363281 777.035156 C 556.558594 777.035156 540.875 771.992188 527.433594 763.03125 C 506.144531 772.550781 488.78125 789.917969 480.9375 812.324219 C 474.777344 829.128906 470.855469 847.054688 469.734375 864.976562 C 469.175781 873.378906 475.898438 880.101562 484.300781 880.101562 L 614.816406 880.101562 C 617.058594 869.460938 619.859375 858.816406 623.21875 848.734375 C 631.0625 829.128906 643.945312 812.324219 660.1875 800 Z M 660.1875 800 " fill-opacity="1" fill-rule="nonzero"/><path fill="#d9d9d9" d="M 573.925781 755.746094 C 606.972656 755.746094 633.300781 728.859375 633.300781 696.371094 C 633.300781 663.320312 606.414062 636.996094 573.925781 636.996094 C 541.4375 636.996094 514.546875 663.882812 514.546875 696.371094 C 513.988281 728.859375 540.875 755.746094 573.925781 755.746094 Z M 573.925781 755.746094 " fill-opacity="1" fill-rule="nonzero"/><path fill="#d9d9d9" d="M 991.242188 812.324219 C 983.398438 789.355469 966.035156 771.992188 944.75 763.03125 C 931.863281 771.992188 916.179688 777.035156 898.816406 777.035156 C 882.011719 777.035156 865.765625 771.992188 852.882812 763.03125 C 835.519531 770.3125 821.515625 783.195312 811.992188 800 C 828.234375 812.324219 841.121094 829.128906 848.402344 849.292969 C 851.761719 859.375 855.125 870.019531 856.804688 880.664062 L 987.320312 880.664062 C 995.722656 880.664062 1002.445312 873.941406 1001.882812 865.539062 C 1001.324219 847.054688 997.402344 829.128906 991.242188 812.324219 Z M 991.242188 812.324219 " fill-opacity="1" fill-rule="nonzero"/><path fill="#d9d9d9" d="M 898.816406 755.746094 C 931.863281 755.746094 958.191406 728.859375 958.191406 696.371094 C 958.191406 663.320312 931.304688 636.996094 898.816406 636.996094 C 865.765625 636.996094 839.4375 663.882812 839.4375 696.371094 C 839.4375 728.859375 866.328125 755.746094 898.816406 755.746094 Z M 898.816406 755.746094 " fill-opacity="1" fill-rule="nonzero"/><g clip-path="url(#5ce96882ff)"><path fill="#d9d9d9" d="M 782.304688 806.722656 C 769.417969 815.683594 753.734375 820.726562 736.371094 820.726562 C 719.566406 820.726562 703.882812 815.683594 690.4375 806.722656 C 669.152344 816.246094 652.347656 833.609375 643.945312 856.574219 C 637.78125 873.378906 634.421875 891.304688 632.742188 909.230469 C 632.179688 917.632812 638.902344 924.355469 647.304688 924.355469 L 825.433594 924.355469 C 833.835938 924.355469 840.558594 917.632812 840 909.230469 C 838.878906 891.304688 834.957031 873.378906 828.796875 856.574219 C 820.394531 833.609375 803.589844 816.246094 782.304688 806.722656 Z M 782.304688 806.722656 " fill-opacity="1" fill-rule="nonzero"/></g><path fill="#d9d9d9" d="M 676.992188 740.0625 C 676.992188 773.113281 703.882812 799.441406 736.371094 799.441406 C 769.417969 799.441406 795.746094 772.550781 795.746094 740.0625 C 795.746094 707.015625 768.859375 680.6875 736.371094 680.6875 C 703.320312 680.6875 676.992188 707.015625 676.992188 740.0625 Z M 676.992188 740.0625 " fill-opacity="1" fill-rule="nonzero"/><g clip-path="url(#bae60eeef4)"><path fill="#d9d9d9" d="M 736.371094 644.277344 C 789.023438 644.277344 832.15625 601.144531 832.15625 548.488281 C 832.15625 495.835938 789.023438 452.703125 736.371094 452.703125 C 683.714844 452.703125 640.582031 495.835938 640.582031 548.488281 C 640.582031 601.144531 683.714844 644.277344 736.371094 644.277344 Z M 726.289062 485.191406 C 729.089844 482.390625 732.449219 481.269531 736.929688 481.269531 C 741.410156 481.269531 744.773438 482.949219 747.574219 485.191406 C 750.375 487.992188 752.054688 491.351562 752.054688 495.835938 C 752.054688 500.316406 750.375 503.675781 747.574219 506.476562 C 744.773438 509.277344 741.410156 510.398438 736.929688 510.398438 C 732.449219 510.398438 729.089844 508.71875 726.289062 506.476562 C 723.488281 503.675781 721.804688 499.753906 721.804688 495.835938 C 721.804688 491.914062 723.488281 487.992188 726.289062 485.191406 Z M 711.164062 532.246094 C 711.164062 529.445312 712.84375 527.203125 715.644531 527.203125 L 736.929688 523.84375 C 736.929688 523.84375 737.492188 523.84375 738.050781 523.84375 L 743.652344 523.84375 C 746.453125 523.84375 748.695312 526.082031 748.695312 528.882812 L 748.695312 596.664062 C 748.695312 596.664062 757.65625 597.785156 757.65625 597.785156 C 759.898438 597.785156 762.136719 600.023438 762.136719 602.824219 L 762.136719 607.304688 C 762.136719 610.105469 759.898438 612.347656 757.097656 612.347656 L 716.203125 612.347656 C 713.402344 612.347656 711.164062 610.105469 711.164062 607.304688 L 711.164062 602.824219 C 711.164062 600.023438 713.402344 597.785156 716.203125 597.785156 L 725.726562 596.664062 L 725.726562 542.886719 L 715.644531 541.769531 C 712.84375 541.769531 710.601562 539.527344 710.601562 536.726562 L 710.601562 532.246094 Z M 711.164062 532.246094 " fill-opacity="1" fill-rule="nonzero"/></g></svg>