<?xml version="1.0" encoding="UTF-8" standalone="no" ?>
<!DOCTYPE svg PUBLIC "-//W3C//DTD SVG 1.1//EN" "http://www.w3.org/Graphics/SVG/1.1/DTD/svg11.dtd">
<svg xmlns="http://www.w3.org/2000/svg" xmlns:xlink="http://www.w3.org/1999/xlink" version="1.1" width="1080" height="1080" viewBox="0 0 1080 1080" xml:space="preserve">
<desc>Created with Fabric.js 5.2.4</desc>
<defs>
</defs>
<g transform="matrix(1 0 0 1 540 540)" id="0fb7e260-fc9b-4c2e-8f36-1651feeee88a"  >
<rect style="stroke: none; stroke-width: 1; stroke-dasharray: none; stroke-linecap: butt; stroke-dashoffset: 0; stroke-linejoin: miter; stroke-miterlimit: 4; fill: rgb(255,255,255); fill-rule: nonzero; opacity: 1; visibility: hidden;" vector-effect="non-scaling-stroke"  x="-540" y="-540" rx="0" ry="0" width="1080" height="1080" />
</g>
<g transform="matrix(1 0 0 1 540 540)" id="07fd03ee-5c19-451c-84cf-327cc1c21f86"  >
</g>
<g transform="matrix(1.33 0 0 1.33 596.31 -143.32)"  >
<path style="stroke: none; stroke-width: 1; stroke-dasharray: none; stroke-linecap: butt; stroke-dashoffset: 0; stroke-linejoin: miter; stroke-miterlimit: 4; fill: rgb(217,217,217); fill-rule: nonzero; opacity: 1;" vector-effect="non-scaling-stroke"  transform=" translate(-773.9, -336.39)" d="M 754.347656 292.792969 C 750.726562 281.464844 742.46875 271.816406 732.242188 266.976562 C 712.476562 257.601562 691.871094 258.863281 674.097656 260.769531 C 671.828125 261.019531 669.839844 262.417969 668.851562 264.480469 C 667.855469 266.542969 668.007812 268.972656 669.242188 270.902344 C 671.449219 274.355469 674.675781 279.628906 676.234375 282.476562 C 680.1875 289.6875 682.042969 298.011719 683.476562 305.242188 C 686.949219 322.75 704.113281 339.453125 726.992188 339.453125 C 729.386719 339.453125 731.839844 339.269531 734.351562 338.882812 C 737.960938 338.332031 740.441406 334.960938 739.890625 331.359375 C 739.335938 327.746094 735.925781 325.253906 732.355469 325.820312 C 714.152344 328.589844 699.101562 316.09375 696.4375 302.671875 C 694.816406 294.46875 692.675781 284.976562 687.820312 276.113281 C 687.332031 275.214844 686.710938 274.148438 686.03125 272.984375 C 701.226562 272.027344 714.339844 273.109375 726.578125 278.917969 C 733.554688 282.222656 739.226562 288.910156 741.753906 296.808594 C 742.914062 300.449219 743.710938 305.394531 742.691406 311.046875 C 736.742188 304.4375 729.582031 297.359375 720.757812 289.773438 C 717.988281 287.386719 713.8125 287.707031 711.441406 290.476562 C 709.054688 293.242188 709.375 297.410156 712.144531 299.796875 C 723.859375 309.867188 732.480469 318.867188 738.929688 326.878906 C 739.339844 327.765625 739.949219 328.554688 740.726562 329.195312 C 753.054688 345.171875 756.679688 357.027344 759.160156 365.25 C 759.496094 366.375 759.816406 367.421875 760.128906 368.410156 C 753.46875 382.429688 749.425781 395.597656 747.601562 405.5625 C 746.945312 409.148438 749.320312 412.59375 752.910156 413.25 C 753.316406 413.328125 753.710938 413.355469 754.109375 413.355469 C 757.238281 413.355469 760.023438 411.125 760.605469 407.941406 C 762.363281 398.3125 766.355469 385.433594 773.070312 371.808594 C 773.160156 371.640625 773.238281 371.472656 773.316406 371.296875 C 777.449219 362.988281 782.648438 354.4375 788.957031 346.15625 C 789.488281 346.078125 790.019531 345.964844 790.539062 345.75 C 805.417969 339.636719 822.636719 343.515625 822.808594 343.550781 C 826.355469 344.378906 829.90625 342.171875 830.742188 338.625 C 831.578125 335.078125 829.375 331.523438 825.824219 330.679688 C 825.246094 330.542969 815.796875 328.402344 803.953125 329.324219 C 813.277344 320.472656 824.25 312.53125 837.144531 306.4375 C 840.445312 304.878906 841.847656 300.941406 840.289062 297.640625 C 838.730469 294.335938 834.792969 292.933594 831.496094 294.492188 C 824.023438 298.019531 817.1875 302.140625 810.839844 306.644531 L 811.128906 305.648438 C 812.132812 302.136719 810.105469 298.476562 806.601562 297.46875 C 803.085938 296.464844 799.4375 298.492188 798.425781 301.996094 L 792.890625 321.28125 C 792.835938 321.484375 792.820312 321.691406 792.785156 321.890625 C 784.195312 330.410156 776.898438 339.605469 770.910156 348.914062 C 767.742188 338.015625 769.175781 328.425781 771.328125 321.671875 C 775.308594 309.210938 784.277344 298.644531 795.328125 293.410156 C 815.359375 283.9375 836.691406 282.722656 861.761719 284.746094 C 859.804688 287.960938 857.894531 291.207031 856.570312 293.628906 C 849.617188 306.3125 846.53125 320.03125 844.1875 331.886719 C 841.707031 344.390625 834.804688 355.152344 825.25 361.40625 C 814.890625 368.183594 801.800781 369.914062 786.390625 366.527344 C 782.816406 365.761719 779.296875 368.003906 778.519531 371.566406 C 777.738281 375.128906 779.996094 378.65625 783.558594 379.4375 C 789.511719 380.746094 795.265625 381.394531 800.796875 381.394531 C 812.671875 381.394531 823.433594 378.386719 832.484375 372.46875 C 845.171875 364.164062 853.9375 350.667969 857.148438 334.453125 C 859.304688 323.5625 862.105469 311.019531 868.164062 299.976562 C 870.433594 295.8125 875.222656 287.980469 878.5625 282.734375 C 879.792969 280.804688 879.941406 278.378906 878.949219 276.316406 C 877.960938 274.257812 875.972656 272.855469 873.699219 272.613281 C 847.957031 269.847656 818.109375 268.023438 789.679688 281.46875 C 775.378906 288.246094 763.808594 301.777344 758.734375 317.652344 C 757.613281 321.183594 756.875 324.78125 756.417969 328.382812 C 755.277344 326.699219 754.039062 324.964844 752.71875 323.191406 C 756.953125 313.472656 757.554688 302.84375 754.347656 292.792969 Z M 754.347656 292.792969" stroke-linecap="round" />
</g>
<g transform="matrix(1.33 0 0 1.33 513.05 -190.43)"  >
<path style="stroke: none; stroke-width: 1; stroke-dasharray: none; stroke-linecap: butt; stroke-dashoffset: 0; stroke-linejoin: miter; stroke-miterlimit: 4; fill: rgb(217,217,217); fill-rule: nonzero; opacity: 1;" vector-effect="non-scaling-stroke"  transform=" translate(-711.45, -301.06)" d="M 715.925781 450.804688 C 716.773438 451.164062 717.644531 451.332031 718.507812 451.332031 C 721.078125 451.332031 723.523438 449.824219 724.597656 447.308594 C 726.027344 443.953125 724.460938 440.074219 721.101562 438.644531 C 669.03125 416.457031 638.121094 363.707031 644.183594 307.371094 C 651.125 242.9375 705.0625 194.796875 768.210938 193.332031 L 751.898438 206.46875 C 749.058594 208.761719 748.609375 212.917969 750.894531 215.761719 C 752.203125 217.382812 754.113281 218.226562 756.050781 218.226562 C 757.503906 218.226562 758.96875 217.746094 760.1875 216.765625 L 790.230469 192.574219 C 793.070312 190.28125 793.519531 186.125 791.234375 183.28125 L 767.042969 153.246094 C 764.753906 150.402344 760.597656 149.953125 757.75 152.242188 C 754.910156 154.535156 754.460938 158.691406 756.746094 161.535156 L 771.652344 180.042969 C 700.40625 179.765625 638.84375 233.578125 631.042969 305.953125 C 624.351562 368.113281 658.464844 426.320312 715.925781 450.804688 Z M 715.925781 450.804688" stroke-linecap="round" />
</g>
<g transform="matrix(1.33 0 0 1.33 1226.33 -300.59)" clip-path="url(#CLIPPATH_4)"  >
<clipPath id="CLIPPATH_4" >
	<path transform="matrix(1 0 0 1 0.08 0.06) translate(-1246.5, -218.5)" id="3" d="M 1168 178.992188 L 1325 178.992188 L 1325 258 L 1168 258 Z M 1168 178.992188" stroke-linecap="round" />
</clipPath>
<path style="stroke: none; stroke-width: 1; stroke-dasharray: none; stroke-linecap: butt; stroke-dashoffset: 0; stroke-linejoin: miter; stroke-miterlimit: 4; fill: rgb(217,217,217); fill-rule: nonzero; opacity: 1;" vector-effect="non-scaling-stroke"  transform=" translate(-1246.42, -218.44)" d="M 1177.460938 191.9375 C 1187.816406 189.367188 1198.496094 188.070312 1209.242188 188.070312 C 1243.222656 188.070312 1275.5 201 1300.101562 224.484375 L 1303.3125 227.550781 L 1306.664062 224.199219 L 1311.964844 245.394531 L 1290.773438 240.089844 L 1296.910156 233.9375 L 1293.539062 230.742188 C 1270.679688 209.089844 1240.742188 197.152344 1209.242188 197.152344 C 1198.460938 197.152344 1187.78125 198.554688 1177.460938 201.300781 Z M 1178.683594 210.382812 C 1188.582031 207.632812 1198.867188 206.234375 1209.242188 206.234375 C 1236.855469 206.234375 1263.15625 216.128906 1283.835938 234.183594 L 1273 245.019531 L 1324.453125 257.878906 L 1311.59375 206.429688 L 1303.117188 214.90625 C 1277.238281 191.707031 1244.09375 178.992188 1209.242188 178.992188 C 1196.507812 178.992188 1183.882812 180.695312 1171.714844 184.046875 L 1168.378906 184.96875 L 1168.378906 210.984375 L 1177.671875 210.558594 L 1178.683594 210.382812" stroke-linecap="round" />
</g>
<g transform="matrix(1.33 0 0 1.33 1041.7 -215.08)" clip-path="url(#CLIPPATH_5)"  >
<clipPath id="CLIPPATH_5" >
	<path transform="matrix(1 0 0 1 0.31 -0.07) translate(-1108.25, -282.5)" id="fb44ae0145" d="M 1068.496094 204 L 1148 204 L 1148 361 L 1068.496094 361 Z M 1068.496094 204" stroke-linecap="round" />
</clipPath>
<path style="stroke: none; stroke-width: 1; stroke-dasharray: none; stroke-linecap: butt; stroke-dashoffset: 0; stroke-linejoin: miter; stroke-miterlimit: 4; fill: rgb(217,217,217); fill-rule: nonzero; opacity: 1;" vector-effect="non-scaling-stroke"  transform=" translate(-1107.94, -282.57)" d="M 1113.984375 228.882812 L 1117.054688 225.671875 L 1113.703125 222.320312 L 1134.894531 217.015625 L 1129.59375 238.210938 L 1123.4375 232.054688 L 1120.246094 235.441406 C 1098.574219 258.304688 1086.65625 288.242188 1086.65625 319.738281 C 1086.65625 330.523438 1088.054688 341.199219 1090.824219 351.519531 L 1081.441406 351.519531 C 1078.871094 341.164062 1077.574219 330.488281 1077.574219 319.738281 C 1077.574219 285.757812 1090.503906 253.480469 1113.984375 228.882812 Z M 1073.550781 357.265625 L 1074.472656 360.601562 L 1100.488281 360.601562 L 1100.0625 351.308594 L 1099.902344 350.296875 C 1097.136719 340.402344 1095.734375 330.113281 1095.734375 319.738281 C 1095.734375 292.144531 1105.632812 265.824219 1123.6875 245.144531 L 1134.523438 255.980469 L 1147.382812 204.53125 L 1095.929688 217.386719 L 1104.410156 225.867188 C 1081.210938 251.742188 1068.496094 284.890625 1068.496094 319.738281 C 1068.496094 332.472656 1070.195312 345.101562 1073.550781 357.265625" stroke-linecap="round" />
</g>
<g transform="matrix(1.33 0 0 1.33 1311.84 -134.11)" clip-path="url(#CLIPPATH_6)"  >
<clipPath id="CLIPPATH_6" >
	<path transform="matrix(1 0 0 1 -0.17 0.21) translate(-1310.37, -343.5)" d="M 1271 265 L 1349.746094 265 L 1349.746094 422 L 1271 422 Z M 1271 265" stroke-linecap="round" />
</clipPath>
<path style="stroke: none; stroke-width: 1; stroke-dasharray: none; stroke-linecap: butt; stroke-dashoffset: 0; stroke-linejoin: miter; stroke-miterlimit: 4; fill: rgb(217,217,217); fill-rule: nonzero; opacity: 1;" vector-effect="non-scaling-stroke"  transform=" translate(-1310.55, -343.29)" d="M 1337.042969 274.335938 C 1339.617188 284.695312 1340.910156 295.371094 1340.910156 306.117188 C 1340.910156 340.101562 1327.980469 372.378906 1304.5 396.976562 L 1301.429688 400.1875 L 1304.78125 403.539062 L 1283.589844 408.84375 L 1288.890625 387.648438 L 1295.046875 393.800781 L 1298.238281 390.414062 C 1319.894531 367.554688 1331.828125 337.617188 1331.828125 306.117188 C 1331.828125 295.335938 1330.429688 284.660156 1327.679688 274.335938 Z M 1318.421875 274.550781 L 1318.597656 275.5625 C 1321.347656 285.457031 1322.75 295.742188 1322.75 306.117188 C 1322.75 333.714844 1312.851562 360.035156 1294.796875 380.714844 L 1283.960938 369.878906 L 1271.101562 421.328125 L 1322.554688 408.46875 L 1314.078125 399.992188 C 1337.273438 374.117188 1349.992188 340.96875 1349.992188 306.117188 C 1349.992188 293.382812 1348.289062 280.757812 1344.9375 268.589844 L 1344.015625 265.257812 L 1317.996094 265.257812 L 1318.421875 274.550781" stroke-linecap="round" />
</g>
<g transform="matrix(1.33 0 0 1.33 1122.29 -117.09)"  >
<path style="stroke: none; stroke-width: 1; stroke-dasharray: none; stroke-linecap: butt; stroke-dashoffset: 0; stroke-linejoin: miter; stroke-miterlimit: 4; fill: rgb(217,217,217); fill-rule: nonzero; opacity: 1;" vector-effect="non-scaling-stroke"  transform=" translate(-1168.38, -356.06)" d="M 1163.839844 351.519531 L 1163.839844 360.601562 L 1172.921875 360.601562 L 1172.921875 351.519531 L 1163.839844 351.519531" stroke-linecap="round" />
</g>
<g transform="matrix(1.33 0 0 1.33 1073.86 -117.09)"  >
<path style="stroke: none; stroke-width: 1; stroke-dasharray: none; stroke-linecap: butt; stroke-dashoffset: 0; stroke-linejoin: miter; stroke-miterlimit: 4; fill: rgb(217,217,217); fill-rule: nonzero; opacity: 1;" vector-effect="non-scaling-stroke"  transform=" translate(-1132.06, -356.06)" d="M 1127.519531 360.601562 L 1136.597656 360.601562 L 1136.597656 351.519531 L 1127.519531 351.519531 L 1127.519531 360.601562" stroke-linecap="round" />
</g>
<g transform="matrix(1.33 0 0 1.33 1098.07 -117.09)"  >
<path style="stroke: none; stroke-width: 1; stroke-dasharray: none; stroke-linecap: butt; stroke-dashoffset: 0; stroke-linejoin: miter; stroke-miterlimit: 4; fill: rgb(217,217,217); fill-rule: nonzero; opacity: 1;" vector-effect="non-scaling-stroke"  transform=" translate(-1150.22, -356.06)" d="M 1145.679688 360.601562 L 1154.757812 360.601562 L 1154.757812 351.519531 L 1145.679688 351.519531 L 1145.679688 360.601562" stroke-linecap="round" />
</g>
<g transform="matrix(1.33 0 0 1.33 1098.07 -92.87)"  >
<path style="stroke: none; stroke-width: 1; stroke-dasharray: none; stroke-linecap: butt; stroke-dashoffset: 0; stroke-linejoin: miter; stroke-miterlimit: 4; fill: rgb(217,217,217); fill-rule: nonzero; opacity: 1;" vector-effect="non-scaling-stroke"  transform=" translate(-1150.22, -374.22)" d="M 1145.679688 378.761719 L 1154.757812 378.761719 L 1154.757812 369.683594 L 1145.679688 369.683594 L 1145.679688 378.761719" stroke-linecap="round" />
</g>
<g transform="matrix(1.33 0 0 1.33 1073.86 -92.87)"  >
<path style="stroke: none; stroke-width: 1; stroke-dasharray: none; stroke-linecap: butt; stroke-dashoffset: 0; stroke-linejoin: miter; stroke-miterlimit: 4; fill: rgb(217,217,217); fill-rule: nonzero; opacity: 1;" vector-effect="non-scaling-stroke"  transform=" translate(-1132.06, -374.22)" d="M 1127.519531 378.761719 L 1136.597656 378.761719 L 1136.597656 369.683594 L 1127.519531 369.683594 L 1127.519531 378.761719" stroke-linecap="round" />
</g>
<g transform="matrix(1.33 0 0 1.33 1122.29 -92.87)"  >
<path style="stroke: none; stroke-width: 1; stroke-dasharray: none; stroke-linecap: butt; stroke-dashoffset: 0; stroke-linejoin: miter; stroke-miterlimit: 4; fill: rgb(217,217,217); fill-rule: nonzero; opacity: 1;" vector-effect="non-scaling-stroke"  transform=" translate(-1168.38, -374.22)" d="M 1163.839844 378.761719 L 1172.921875 378.761719 L 1172.921875 369.683594 L 1163.839844 369.683594 L 1163.839844 378.761719" stroke-linecap="round" />
</g>
<g transform="matrix(1.33 0 0 1.33 1098.07 -68.66)"  >
<path style="stroke: none; stroke-width: 1; stroke-dasharray: none; stroke-linecap: butt; stroke-dashoffset: 0; stroke-linejoin: miter; stroke-miterlimit: 4; fill: rgb(217,217,217); fill-rule: nonzero; opacity: 1;" vector-effect="non-scaling-stroke"  transform=" translate(-1150.22, -392.38)" d="M 1145.679688 396.925781 L 1154.757812 396.925781 L 1154.757812 387.84375 L 1145.679688 387.84375 L 1145.679688 396.925781" stroke-linecap="round" />
</g>
<g transform="matrix(1.33 0 0 1.33 1122.29 -68.66)"  >
<path style="stroke: none; stroke-width: 1; stroke-dasharray: none; stroke-linecap: butt; stroke-dashoffset: 0; stroke-linejoin: miter; stroke-miterlimit: 4; fill: rgb(217,217,217); fill-rule: nonzero; opacity: 1;" vector-effect="non-scaling-stroke"  transform=" translate(-1168.38, -392.38)" d="M 1163.839844 396.925781 L 1172.921875 396.925781 L 1172.921875 387.84375 L 1163.839844 387.84375 L 1163.839844 396.925781" stroke-linecap="round" />
</g>
<g transform="matrix(1.33 0 0 1.33 1073.86 -68.66)"  >
<path style="stroke: none; stroke-width: 1; stroke-dasharray: none; stroke-linecap: butt; stroke-dashoffset: 0; stroke-linejoin: miter; stroke-miterlimit: 4; fill: rgb(217,217,217); fill-rule: nonzero; opacity: 1;" vector-effect="non-scaling-stroke"  transform=" translate(-1132.06, -392.38)" d="M 1127.519531 396.925781 L 1136.597656 396.925781 L 1136.597656 387.84375 L 1127.519531 387.84375 L 1127.519531 396.925781" stroke-linecap="round" />
</g>
<g transform="matrix(1.33 0 0 1.33 1073.86 -44.44)"  >
<path style="stroke: none; stroke-width: 1; stroke-dasharray: none; stroke-linecap: butt; stroke-dashoffset: 0; stroke-linejoin: miter; stroke-miterlimit: 4; fill: rgb(217,217,217); fill-rule: nonzero; opacity: 1;" vector-effect="non-scaling-stroke"  transform=" translate(-1132.06, -410.54)" d="M 1127.519531 415.085938 L 1136.597656 415.085938 L 1136.597656 406.003906 L 1127.519531 406.003906 L 1127.519531 415.085938" stroke-linecap="round" />
</g>
<g transform="matrix(1.33 0 0 1.33 1122.29 -44.44)"  >
<path style="stroke: none; stroke-width: 1; stroke-dasharray: none; stroke-linecap: butt; stroke-dashoffset: 0; stroke-linejoin: miter; stroke-miterlimit: 4; fill: rgb(217,217,217); fill-rule: nonzero; opacity: 1;" vector-effect="non-scaling-stroke"  transform=" translate(-1168.38, -410.54)" d="M 1163.839844 415.085938 L 1172.921875 415.085938 L 1172.921875 406.003906 L 1163.839844 406.003906 L 1163.839844 415.085938" stroke-linecap="round" />
</g>
<g transform="matrix(1.33 0 0 1.33 1098.07 -44.44)"  >
<path style="stroke: none; stroke-width: 1; stroke-dasharray: none; stroke-linecap: butt; stroke-dashoffset: 0; stroke-linejoin: miter; stroke-miterlimit: 4; fill: rgb(217,217,217); fill-rule: nonzero; opacity: 1;" vector-effect="non-scaling-stroke"  transform=" translate(-1150.22, -410.54)" d="M 1145.679688 415.085938 L 1154.757812 415.085938 L 1154.757812 406.003906 L 1145.679688 406.003906 L 1145.679688 415.085938" stroke-linecap="round" />
</g>
<g transform="matrix(1.33 0 0 1.33 1085.96 -165.52)"  >
<path style="stroke: none; stroke-width: 1; stroke-dasharray: none; stroke-linecap: butt; stroke-dashoffset: 0; stroke-linejoin: miter; stroke-miterlimit: 4; fill: rgb(217,217,217); fill-rule: nonzero; opacity: 1;" vector-effect="non-scaling-stroke"  transform=" translate(-1141.14, -319.74)" d="M 1136.597656 324.28125 L 1145.679688 324.28125 L 1145.679688 315.199219 L 1136.597656 315.199219 L 1136.597656 324.28125" stroke-linecap="round" />
</g>
<g transform="matrix(1.33 0 0 1.33 1134.39 -165.52)"  >
<path style="stroke: none; stroke-width: 1; stroke-dasharray: none; stroke-linecap: butt; stroke-dashoffset: 0; stroke-linejoin: miter; stroke-miterlimit: 4; fill: rgb(217,217,217); fill-rule: nonzero; opacity: 1;" vector-effect="non-scaling-stroke"  transform=" translate(-1177.46, -319.74)" d="M 1172.921875 324.28125 L 1182 324.28125 L 1182 315.199219 L 1172.921875 315.199219 L 1172.921875 324.28125" stroke-linecap="round" />
</g>
<g transform="matrix(1.33 0 0 1.33 1110.18 -165.52)"  >
<path style="stroke: none; stroke-width: 1; stroke-dasharray: none; stroke-linecap: butt; stroke-dashoffset: 0; stroke-linejoin: miter; stroke-miterlimit: 4; fill: rgb(217,217,217); fill-rule: nonzero; opacity: 1;" vector-effect="non-scaling-stroke"  transform=" translate(-1159.3, -319.74)" d="M 1154.757812 324.28125 L 1163.839844 324.28125 L 1163.839844 315.199219 L 1154.757812 315.199219 L 1154.757812 324.28125" stroke-linecap="round" />
</g>
<g transform="matrix(1.33 0 0 1.33 1158.61 -165.52)"  >
<path style="stroke: none; stroke-width: 1; stroke-dasharray: none; stroke-linecap: butt; stroke-dashoffset: 0; stroke-linejoin: miter; stroke-miterlimit: 4; fill: rgb(217,217,217); fill-rule: nonzero; opacity: 1;" vector-effect="non-scaling-stroke"  transform=" translate(-1195.62, -319.74)" d="M 1200.160156 315.199219 L 1191.082031 315.199219 L 1191.082031 324.28125 L 1200.160156 324.28125 L 1200.160156 315.199219" stroke-linecap="round" />
</g>
<g transform="matrix(1.33 0 0 1.33 1134.39 -189.73)"  >
<path style="stroke: none; stroke-width: 1; stroke-dasharray: none; stroke-linecap: butt; stroke-dashoffset: 0; stroke-linejoin: miter; stroke-miterlimit: 4; fill: rgb(217,217,217); fill-rule: nonzero; opacity: 1;" vector-effect="non-scaling-stroke"  transform=" translate(-1177.46, -301.58)" d="M 1172.921875 306.117188 L 1182 306.117188 L 1182 297.039062 L 1172.921875 297.039062 L 1172.921875 306.117188" stroke-linecap="round" />
</g>
<g transform="matrix(1.33 0 0 1.33 1158.61 -189.73)"  >
<path style="stroke: none; stroke-width: 1; stroke-dasharray: none; stroke-linecap: butt; stroke-dashoffset: 0; stroke-linejoin: miter; stroke-miterlimit: 4; fill: rgb(217,217,217); fill-rule: nonzero; opacity: 1;" vector-effect="non-scaling-stroke"  transform=" translate(-1195.62, -301.58)" d="M 1200.160156 297.039062 L 1191.082031 297.039062 L 1191.082031 306.117188 L 1200.160156 306.117188 L 1200.160156 297.039062" stroke-linecap="round" />
</g>
<g transform="matrix(1.33 0 0 1.33 1110.18 -189.73)"  >
<path style="stroke: none; stroke-width: 1; stroke-dasharray: none; stroke-linecap: butt; stroke-dashoffset: 0; stroke-linejoin: miter; stroke-miterlimit: 4; fill: rgb(217,217,217); fill-rule: nonzero; opacity: 1;" vector-effect="non-scaling-stroke"  transform=" translate(-1159.3, -301.58)" d="M 1154.757812 306.117188 L 1163.839844 306.117188 L 1163.839844 297.039062 L 1154.757812 297.039062 L 1154.757812 306.117188" stroke-linecap="round" />
</g>
<g transform="matrix(1.33 0 0 1.33 1085.96 -189.73)"  >
<path style="stroke: none; stroke-width: 1; stroke-dasharray: none; stroke-linecap: butt; stroke-dashoffset: 0; stroke-linejoin: miter; stroke-miterlimit: 4; fill: rgb(217,217,217); fill-rule: nonzero; opacity: 1;" vector-effect="non-scaling-stroke"  transform=" translate(-1141.14, -301.58)" d="M 1136.597656 306.117188 L 1145.679688 306.117188 L 1145.679688 297.039062 L 1136.597656 297.039062 L 1136.597656 306.117188" stroke-linecap="round" />
</g>
<g transform="matrix(1.33 0 0 1.33 1085.96 -213.95)"  >
<path style="stroke: none; stroke-width: 1; stroke-dasharray: none; stroke-linecap: butt; stroke-dashoffset: 0; stroke-linejoin: miter; stroke-miterlimit: 4; fill: rgb(217,217,217); fill-rule: nonzero; opacity: 1;" vector-effect="non-scaling-stroke"  transform=" translate(-1141.14, -283.42)" d="M 1136.597656 287.957031 L 1145.679688 287.957031 L 1145.679688 278.878906 L 1136.597656 278.878906 L 1136.597656 287.957031" stroke-linecap="round" />
</g>
<g transform="matrix(1.33 0 0 1.33 1134.39 -213.95)"  >
<path style="stroke: none; stroke-width: 1; stroke-dasharray: none; stroke-linecap: butt; stroke-dashoffset: 0; stroke-linejoin: miter; stroke-miterlimit: 4; fill: rgb(217,217,217); fill-rule: nonzero; opacity: 1;" vector-effect="non-scaling-stroke"  transform=" translate(-1177.46, -283.42)" d="M 1172.921875 287.957031 L 1182 287.957031 L 1182 278.878906 L 1172.921875 278.878906 L 1172.921875 287.957031" stroke-linecap="round" />
</g>
<g transform="matrix(1.33 0 0 1.33 1110.18 -213.95)"  >
<path style="stroke: none; stroke-width: 1; stroke-dasharray: none; stroke-linecap: butt; stroke-dashoffset: 0; stroke-linejoin: miter; stroke-miterlimit: 4; fill: rgb(217,217,217); fill-rule: nonzero; opacity: 1;" vector-effect="non-scaling-stroke"  transform=" translate(-1159.3, -283.42)" d="M 1154.757812 287.957031 L 1163.839844 287.957031 L 1163.839844 278.878906 L 1154.757812 278.878906 L 1154.757812 287.957031" stroke-linecap="round" />
</g>
<g transform="matrix(1.33 0 0 1.33 1158.61 -213.95)"  >
<path style="stroke: none; stroke-width: 1; stroke-dasharray: none; stroke-linecap: butt; stroke-dashoffset: 0; stroke-linejoin: miter; stroke-miterlimit: 4; fill: rgb(217,217,217); fill-rule: nonzero; opacity: 1;" vector-effect="non-scaling-stroke"  transform=" translate(-1195.62, -283.42)" d="M 1200.160156 278.878906 L 1191.082031 278.878906 L 1191.082031 287.957031 L 1200.160156 287.957031 L 1200.160156 278.878906" stroke-linecap="round" />
</g>
<g transform="matrix(1.33 0 0 1.33 1176.77 -129.2)" clip-path="url(#CLIPPATH_7)"  >
<clipPath id="CLIPPATH_7" >
	<path transform="matrix(1 0 0 1 -0.12 0.02) translate(-1209.12, -347)" id="63" d="M 1068.496094 260 L 1349.746094 260 L 1349.746094 434 L 1068.496094 434 Z M 1068.496094 260" stroke-linecap="round" />
</clipPath>
<path style="stroke: none; stroke-width: 1; stroke-dasharray: none; stroke-linecap: butt; stroke-dashoffset: 0; stroke-linejoin: miter; stroke-miterlimit: 4; fill: rgb(217,217,217); fill-rule: nonzero; opacity: 1;" vector-effect="non-scaling-stroke"  transform=" translate(-1209.24, -346.98)" d="M 1118.4375 342.441406 L 1182 342.441406 L 1182 424.164062 L 1118.4375 424.164062 Z M 1127.519531 269.796875 L 1209.242188 269.796875 L 1209.242188 424.164062 L 1191.082031 424.164062 L 1191.082031 333.359375 L 1127.519531 333.359375 Z M 1241.023438 306.117188 L 1254.644531 306.117188 L 1254.644531 324.777344 C 1248.863281 318.871094 1240.828125 315.199219 1231.945312 315.199219 L 1218.324219 315.199219 L 1218.324219 296.542969 C 1224.105469 302.449219 1232.140625 306.117188 1241.023438 306.117188 Z M 1231.945312 278.878906 C 1242.902344 278.878906 1252.074219 286.679688 1254.183594 297.039062 L 1241.023438 297.039062 C 1230.0625 297.039062 1220.894531 289.234375 1218.785156 278.878906 Z M 1218.785156 324.28125 L 1231.945312 324.28125 C 1242.902344 324.28125 1252.074219 332.082031 1254.183594 342.441406 L 1241.023438 342.441406 C 1230.0625 342.441406 1220.894531 334.636719 1218.785156 324.28125 Z M 1254.644531 424.164062 L 1218.324219 424.164062 L 1218.324219 341.945312 C 1224.105469 347.851562 1232.140625 351.519531 1241.023438 351.519531 L 1254.644531 351.519531 Z M 1286.425781 297.039062 L 1299.585938 297.039062 C 1297.476562 307.394531 1288.308594 315.199219 1277.347656 315.199219 L 1264.1875 315.199219 C 1266.296875 304.839844 1275.464844 297.039062 1286.425781 297.039062 Z M 1286.425781 342.441406 L 1299.585938 342.441406 C 1297.476562 352.796875 1288.308594 360.601562 1277.347656 360.601562 L 1264.1875 360.601562 C 1266.296875 350.246094 1275.464844 342.441406 1286.425781 342.441406 Z M 1263.726562 369.683594 L 1277.347656 369.683594 C 1294.867188 369.683594 1309.128906 355.421875 1309.128906 337.902344 L 1309.128906 333.359375 L 1286.425781 333.359375 C 1277.542969 333.359375 1269.507812 337.03125 1263.726562 342.9375 L 1263.726562 324.28125 L 1277.347656 324.28125 C 1294.867188 324.28125 1309.128906 310.019531 1309.128906 292.496094 L 1309.128906 287.957031 L 1286.425781 287.957031 C 1277.417969 287.957031 1269.277344 291.753906 1263.476562 297.800781 C 1261.597656 282.070312 1248.1875 269.796875 1231.945312 269.796875 L 1218.324219 269.796875 L 1218.324219 260.714844 L 1118.4375 260.714844 L 1118.4375 333.359375 L 1109.355469 333.359375 L 1109.355469 424.164062 L 1068.496094 424.164062 L 1068.496094 433.246094 L 1349.992188 433.246094 L 1349.992188 424.164062 L 1263.726562 424.164062 L 1263.726562 369.683594" stroke-linecap="round" />
</g>
<g transform="matrix(1.33 0 0 1.33 -174.48 483.19)" clip-path="url(#CLIPPATH_8)"  >
<clipPath id="CLIPPATH_8" >
	<path transform="matrix(1 0 0 1 0.45 0.23) translate(-196.26, -806.5)" id="2" d="M 179.511719 801 L 213 801 L 213 812 L 179.511719 812 Z M 179.511719 801" stroke-linecap="round" />
</clipPath>
<path style="stroke: none; stroke-width: 1; stroke-dasharray: none; stroke-linecap: butt; stroke-dashoffset: 0; stroke-linejoin: miter; stroke-miterlimit: 4; fill: rgb(217,217,217); fill-rule: nonzero; opacity: 1;" vector-effect="non-scaling-stroke"  transform=" translate(-195.81, -806.27)" d="M 206.832031 801 L 184.785156 801 C 181.875 801 179.511719 803.359375 179.511719 806.273438 C 179.511719 809.183594 181.875 811.542969 184.785156 811.542969 L 206.832031 811.542969 C 209.746094 811.542969 212.105469 809.183594 212.105469 806.273438 C 212.105469 803.359375 209.746094 801 206.832031 801 Z M 206.832031 801" stroke-linecap="round" />
</g>
<g transform="matrix(1.33 0 0 1.33 -131.05 588.04)"  >
<path style="stroke: none; stroke-width: 1; stroke-dasharray: none; stroke-linecap: butt; stroke-dashoffset: 0; stroke-linejoin: miter; stroke-miterlimit: 4; fill: rgb(217,217,217); fill-rule: nonzero; opacity: 1;" vector-effect="non-scaling-stroke"  transform=" translate(-228.38, -884.91)" d="M 232.449219 873.386719 L 216.859375 888.976562 C 214.800781 891.035156 214.800781 894.375 216.859375 896.433594 C 217.886719 897.460938 219.238281 897.976562 220.585938 897.976562 C 221.933594 897.976562 223.285156 897.460938 224.3125 896.433594 L 239.902344 880.84375 C 241.960938 878.785156 241.960938 875.445312 239.902344 873.386719 C 237.84375 871.328125 234.507812 871.328125 232.449219 873.386719 Z M 232.449219 873.386719" stroke-linecap="round" />
</g>
<g transform="matrix(1.33 0 0 1.33 -131.05 378.34)"  >
<path style="stroke: none; stroke-width: 1; stroke-dasharray: none; stroke-linecap: butt; stroke-dashoffset: 0; stroke-linejoin: miter; stroke-miterlimit: 4; fill: rgb(217,217,217); fill-rule: nonzero; opacity: 1;" vector-effect="non-scaling-stroke"  transform=" translate(-228.38, -727.64)" d="M 232.449219 739.160156 C 233.480469 740.1875 234.828125 740.703125 236.175781 740.703125 C 237.523438 740.703125 238.875 740.1875 239.902344 739.160156 C 241.960938 737.101562 241.960938 733.761719 239.902344 731.703125 L 224.3125 716.113281 C 222.253906 714.054688 218.917969 714.054688 216.859375 716.113281 C 214.800781 718.171875 214.800781 721.507812 216.859375 723.570312 Z M 232.449219 739.160156" stroke-linecap="round" />
</g>
<g transform="matrix(1.33 0 0 1.33 -26.2 334.92)" clip-path="url(#CLIPPATH_9)"  >
<clipPath id="CLIPPATH_9" >
	<path transform="matrix(1 0 0 1 -0.02 0.3) translate(-307, -695.37)" id="c506636d49" d="M 301 678.738281 L 313 678.738281 L 313 712 L 301 712 Z M 301 678.738281" stroke-linecap="round" />
</clipPath>
<path style="stroke: none; stroke-width: 1; stroke-dasharray: none; stroke-linecap: butt; stroke-dashoffset: 0; stroke-linejoin: miter; stroke-miterlimit: 4; fill: rgb(217,217,217); fill-rule: nonzero; opacity: 1;" vector-effect="non-scaling-stroke"  transform=" translate(-307.02, -695.06)" d="M 307.019531 711.359375 C 309.929688 711.359375 312.289062 709 312.289062 706.085938 L 312.289062 684.039062 C 312.289062 681.128906 309.929688 678.769531 307.019531 678.769531 C 304.105469 678.769531 301.746094 681.128906 301.746094 684.039062 L 301.746094 706.085938 C 301.746094 709 304.105469 711.359375 307.019531 711.359375 Z M 307.019531 711.359375" stroke-linecap="round" />
</g>
<g transform="matrix(1.33 0 0 1.33 548.5 465.46)" clip-path="url(#CLIPPATH_10)"  >
<clipPath id="CLIPPATH_10" >
	<path transform="matrix(1 0 0 1 -0.18 0.44) translate(-737.87, -793.41)" id="9" d="M 629 719.824219 L 846.730469 719.824219 L 846.730469 867 L 629 867 Z M 629 719.824219" stroke-linecap="round" />
</clipPath>
<path style="stroke: none; stroke-width: 1; stroke-dasharray: none; stroke-linecap: butt; stroke-dashoffset: 0; stroke-linejoin: miter; stroke-miterlimit: 4; fill: rgb(217,217,217); fill-rule: nonzero; opacity: 1;" vector-effect="non-scaling-stroke"  transform=" translate(-738.04, -792.97)" d="M 803.625 780.363281 L 803.433594 780.363281 C 800.847656 746.546875 772.507812 719.824219 738.042969 719.824219 C 703.578125 719.824219 675.234375 746.546875 672.648438 780.363281 L 672.457031 780.363281 C 648.8125 780.363281 629.578125 799.597656 629.578125 823.242188 C 629.578125 847.351562 651.734375 866.125 674.980469 866.125 C 677.765625 866.125 680.023438 863.867188 680.023438 861.082031 C 680.023438 858.292969 677.765625 856.035156 674.980469 856.035156 C 656.167969 856.035156 639.667969 840.710938 639.667969 823.242188 C 639.667969 805.164062 654.375 790.453125 672.457031 790.453125 L 677.503906 790.453125 C 680.289062 790.453125 682.546875 788.191406 682.546875 785.40625 C 682.546875 754.808594 707.441406 729.914062 738.042969 729.914062 C 768.640625 729.914062 793.535156 754.808594 793.535156 785.40625 C 793.535156 788.191406 795.792969 790.453125 798.582031 790.453125 L 803.625 790.453125 C 821.707031 790.453125 836.417969 805.164062 836.417969 823.242188 C 836.417969 842.246094 823.6875 856.035156 806.148438 856.035156 C 803.363281 856.035156 801.101562 858.292969 801.101562 861.082031 C 801.101562 863.867188 803.363281 866.125 806.148438 866.125 C 829.15625 866.125 846.507812 847.691406 846.507812 823.242188 C 846.507812 799.597656 827.269531 780.363281 803.625 780.363281 Z M 803.625 780.363281" stroke-linecap="round" />
</g>
<g transform="matrix(1.33 0 0 1.33 514.87 559.63)"  >
<path style="stroke: none; stroke-width: 1; stroke-dasharray: none; stroke-linecap: butt; stroke-dashoffset: 0; stroke-linejoin: miter; stroke-miterlimit: 4; fill: rgb(217,217,217); fill-rule: nonzero; opacity: 1;" vector-effect="non-scaling-stroke"  transform=" translate(-712.82, -863.6)" d="M 710.292969 840.902344 L 715.339844 840.902344 C 720.902344 840.902344 725.429688 845.425781 725.429688 850.992188 C 725.429688 853.777344 727.6875 856.035156 730.472656 856.035156 C 733.261719 856.035156 735.519531 853.777344 735.519531 850.992188 C 735.519531 839.863281 726.464844 830.8125 715.339844 830.8125 L 710.292969 830.8125 C 699.167969 830.8125 690.113281 839.863281 690.113281 850.992188 L 690.113281 876.214844 C 690.113281 887.34375 699.167969 896.394531 710.292969 896.394531 L 715.339844 896.394531 C 726.464844 896.394531 735.519531 887.34375 735.519531 876.214844 C 735.519531 873.429688 733.261719 871.171875 730.472656 871.171875 C 727.6875 871.171875 725.429688 873.429688 725.429688 876.214844 C 725.429688 881.777344 720.902344 886.304688 715.339844 886.304688 L 710.292969 886.304688 C 704.730469 886.304688 700.203125 881.777344 700.203125 876.214844 L 700.203125 850.992188 C 700.203125 845.425781 704.730469 840.902344 710.292969 840.902344 Z M 710.292969 840.902344" stroke-linecap="round" />
</g>
<g transform="matrix(1.33 0 0 1.33 588.86 559.63)"  >
<path style="stroke: none; stroke-width: 1; stroke-dasharray: none; stroke-linecap: butt; stroke-dashoffset: 0; stroke-linejoin: miter; stroke-miterlimit: 4; fill: rgb(217,217,217); fill-rule: nonzero; opacity: 1;" vector-effect="non-scaling-stroke"  transform=" translate(-768.31, -863.6)" d="M 768.3125 830.8125 C 755.792969 830.8125 745.609375 840.996094 745.609375 853.511719 L 745.609375 873.691406 C 745.609375 886.210938 755.792969 896.394531 768.3125 896.394531 C 780.828125 896.394531 791.011719 886.210938 791.011719 873.691406 L 791.011719 853.511719 C 791.011719 840.996094 780.828125 830.8125 768.3125 830.8125 Z M 780.921875 873.691406 C 780.921875 880.648438 775.265625 886.304688 768.3125 886.304688 C 761.355469 886.304688 755.699219 880.648438 755.699219 873.691406 L 755.699219 853.511719 C 755.699219 846.558594 761.355469 840.902344 768.3125 840.902344 C 775.265625 840.902344 780.921875 846.558594 780.921875 853.511719 Z M 780.921875 873.691406" stroke-linecap="round" />
</g>
<g transform="matrix(1.33 0 0 1.33 646.99 620.85)"  >
<path style="stroke: none; stroke-width: 1; stroke-dasharray: none; stroke-linecap: butt; stroke-dashoffset: 0; stroke-linejoin: miter; stroke-miterlimit: 4; fill: rgb(217,217,217); fill-rule: nonzero; opacity: 1;" vector-effect="non-scaling-stroke"  transform=" translate(-811.91, -909.51)" d="M 815.246094 917.191406 C 815.269531 917.183594 815.289062 917.285156 815.308594 917.273438 C 822.996094 913.429688 827.769531 905.707031 827.769531 897.117188 C 827.769531 888.371094 820.65625 881.261719 811.914062 881.261719 C 803.171875 881.261719 796.058594 888.371094 796.058594 897.117188 C 796.058594 899.902344 798.316406 902.160156 801.101562 902.160156 C 803.886719 902.160156 806.148438 899.902344 806.148438 897.117188 C 806.148438 893.9375 808.734375 891.351562 811.914062 891.351562 C 815.09375 891.351562 817.679688 893.9375 817.679688 897.117188 C 817.679688 901.851562 815.054688 906.109375 810.824219 908.234375 C 794.828125 915.984375 796.09375 932.816406 796.058594 932.941406 C 796.058594 935.726562 798.316406 937.761719 801.101562 937.761719 L 821.28125 937.761719 C 824.070312 937.761719 826.328125 935.503906 826.328125 932.71875 C 826.328125 929.933594 824.070312 927.671875 821.28125 927.671875 L 806.636719 927.671875 C 807.789062 923.132812 810.917969 919.28125 815.246094 917.191406 Z M 815.246094 917.191406" stroke-linecap="round" />
</g>
<g transform="matrix(1.33 0 0 1.33 447.6 643.71)" clip-path="url(#CLIPPATH_11)"  >
<clipPath id="CLIPPATH_11" >
	<path transform="matrix(1 0 0 1 0.13 0.25) translate(-662.5, -926.91)" id="137" d="M 624 876 L 701 876 L 701 977.824219 L 624 977.824219 Z M 624 876" stroke-linecap="round" />
</clipPath>
<path style="stroke: none; stroke-width: 1; stroke-dasharray: none; stroke-linecap: butt; stroke-dashoffset: 0; stroke-linejoin: miter; stroke-miterlimit: 4; fill: rgb(217,217,217); fill-rule: nonzero; opacity: 1;" vector-effect="non-scaling-stroke"  transform=" translate(-662.37, -926.66)" d="M 695.160156 926.664062 L 680.023438 926.664062 L 680.023438 881.261719 C 680.023438 878.472656 677.765625 876.214844 674.980469 876.214844 L 649.757812 876.214844 C 646.96875 876.214844 644.710938 878.472656 644.710938 881.261719 L 644.710938 926.664062 L 629.578125 926.664062 C 627.636719 926.664062 625.871094 927.773438 625.03125 929.519531 C 624.191406 931.269531 624.425781 933.34375 625.632812 934.855469 L 657.863281 975.214844 C 659.871094 977.730469 663.671875 977.730469 665.691406 975.28125 L 699.046875 934.921875 C 700.292969 933.417969 700.554688 931.328125 699.722656 929.558594 C 698.890625 927.792969 697.113281 926.664062 695.160156 926.664062 Z M 695.160156 926.664062" stroke-linecap="round" />
</g>
<g transform="matrix(1.33 0 0 1.33 572.04 428.47)"  >
<path style="stroke: none; stroke-width: 1; stroke-dasharray: none; stroke-linecap: butt; stroke-dashoffset: 0; stroke-linejoin: miter; stroke-miterlimit: 4; fill: rgb(217,217,217); fill-rule: nonzero; opacity: 1;" vector-effect="non-scaling-stroke"  transform=" translate(-755.7, -765.23)" d="M 765.789062 780.363281 C 765.789062 783.148438 768.046875 785.40625 770.832031 785.40625 C 773.617188 785.40625 775.878906 783.148438 775.878906 780.363281 C 775.878906 760.890625 760.035156 745.046875 740.5625 745.046875 C 737.777344 745.046875 735.519531 747.308594 735.519531 750.09375 C 735.519531 752.878906 737.777344 755.136719 740.5625 755.136719 C 754.472656 755.136719 765.789062 766.453125 765.789062 780.363281 Z M 765.789062 780.363281" stroke-linecap="round" />
</g>
</svg>