<?xml version="1.0" encoding="UTF-8" standalone="no" ?>
<!DOCTYPE svg PUBLIC "-//W3C//DTD SVG 1.1//EN" "http://www.w3.org/Graphics/SVG/1.1/DTD/svg11.dtd">
<svg xmlns="http://www.w3.org/2000/svg" xmlns:xlink="http://www.w3.org/1999/xlink" version="1.1" width="1080" height="1080" viewBox="0 0 1080 1080" xml:space="preserve">
<desc>Created with Fabric.js 5.2.4</desc>
<defs>
</defs>
<g transform="matrix(1 0 0 1 540 540)" id="340fbc09-05a2-437a-aed9-b2e74255a56a"  >
</g>
<g transform="matrix(1 0 0 1 540 540)" id="0888c1ee-e7b8-4159-aacb-cc646fde9a9b"  >
<rect style="stroke: none; stroke-width: 1; stroke-dasharray: none; stroke-linecap: butt; stroke-dashoffset: 0; stroke-linejoin: miter; stroke-miterlimit: 4; fill: rgb(255,255,255); fill-rule: nonzero; opacity: 1; visibility: hidden;" vector-effect="non-scaling-stroke"  x="-540" y="-540" rx="0" ry="0" width="1080" height="1080" />
</g>
<g transform="matrix(1.33 0 0 1.33 530.86 557.68)"  >
<path style="stroke: none; stroke-width: 1; stroke-dasharray: none; stroke-linecap: butt; stroke-dashoffset: 0; stroke-linejoin: miter; stroke-miterlimit: 4; fill: rgb(217,217,217); fill-rule: nonzero; opacity: 1;" vector-effect="non-scaling-stroke"  transform=" translate(-773.9, -336.39)" d="M 754.347656 292.792969 C 750.726562 281.464844 742.46875 271.816406 732.242188 266.976562 C 712.476562 257.601562 691.871094 258.863281 674.097656 260.769531 C 671.828125 261.019531 669.839844 262.417969 668.851562 264.480469 C 667.855469 266.542969 668.007812 268.972656 669.242188 270.902344 C 671.449219 274.355469 674.675781 279.628906 676.234375 282.476562 C 680.1875 289.6875 682.042969 298.011719 683.476562 305.242188 C 686.949219 322.75 704.113281 339.453125 726.992188 339.453125 C 729.386719 339.453125 731.839844 339.269531 734.351562 338.882812 C 737.960938 338.332031 740.441406 334.960938 739.890625 331.359375 C 739.335938 327.746094 735.925781 325.253906 732.355469 325.820312 C 714.152344 328.589844 699.101562 316.09375 696.4375 302.671875 C 694.816406 294.46875 692.675781 284.976562 687.820312 276.113281 C 687.332031 275.214844 686.710938 274.148438 686.03125 272.984375 C 701.226562 272.027344 714.339844 273.109375 726.578125 278.917969 C 733.554688 282.222656 739.226562 288.910156 741.753906 296.808594 C 742.914062 300.449219 743.710938 305.394531 742.691406 311.046875 C 736.742188 304.4375 729.582031 297.359375 720.757812 289.773438 C 717.988281 287.386719 713.8125 287.707031 711.441406 290.476562 C 709.054688 293.242188 709.375 297.410156 712.144531 299.796875 C 723.859375 309.867188 732.480469 318.867188 738.929688 326.878906 C 739.339844 327.765625 739.949219 328.554688 740.726562 329.195312 C 753.054688 345.171875 756.679688 357.027344 759.160156 365.25 C 759.496094 366.375 759.816406 367.421875 760.128906 368.410156 C 753.46875 382.429688 749.425781 395.597656 747.601562 405.5625 C 746.945312 409.148438 749.320312 412.59375 752.910156 413.25 C 753.316406 413.328125 753.710938 413.355469 754.109375 413.355469 C 757.238281 413.355469 760.023438 411.125 760.605469 407.941406 C 762.363281 398.3125 766.355469 385.433594 773.070312 371.808594 C 773.160156 371.640625 773.238281 371.472656 773.316406 371.296875 C 777.449219 362.988281 782.648438 354.4375 788.957031 346.15625 C 789.488281 346.078125 790.019531 345.964844 790.539062 345.75 C 805.417969 339.636719 822.636719 343.515625 822.808594 343.550781 C 826.355469 344.378906 829.90625 342.171875 830.742188 338.625 C 831.578125 335.078125 829.375 331.523438 825.824219 330.679688 C 825.246094 330.542969 815.796875 328.402344 803.953125 329.324219 C 813.277344 320.472656 824.25 312.53125 837.144531 306.4375 C 840.445312 304.878906 841.847656 300.941406 840.289062 297.640625 C 838.730469 294.335938 834.792969 292.933594 831.496094 294.492188 C 824.023438 298.019531 817.1875 302.140625 810.839844 306.644531 L 811.128906 305.648438 C 812.132812 302.136719 810.105469 298.476562 806.601562 297.46875 C 803.085938 296.464844 799.4375 298.492188 798.425781 301.996094 L 792.890625 321.28125 C 792.835938 321.484375 792.820312 321.691406 792.785156 321.890625 C 784.195312 330.410156 776.898438 339.605469 770.910156 348.914062 C 767.742188 338.015625 769.175781 328.425781 771.328125 321.671875 C 775.308594 309.210938 784.277344 298.644531 795.328125 293.410156 C 815.359375 283.9375 836.691406 282.722656 861.761719 284.746094 C 859.804688 287.960938 857.894531 291.207031 856.570312 293.628906 C 849.617188 306.3125 846.53125 320.03125 844.1875 331.886719 C 841.707031 344.390625 834.804688 355.152344 825.25 361.40625 C 814.890625 368.183594 801.800781 369.914062 786.390625 366.527344 C 782.816406 365.761719 779.296875 368.003906 778.519531 371.566406 C 777.738281 375.128906 779.996094 378.65625 783.558594 379.4375 C 789.511719 380.746094 795.265625 381.394531 800.796875 381.394531 C 812.671875 381.394531 823.433594 378.386719 832.484375 372.46875 C 845.171875 364.164062 853.9375 350.667969 857.148438 334.453125 C 859.304688 323.5625 862.105469 311.019531 868.164062 299.976562 C 870.433594 295.8125 875.222656 287.980469 878.5625 282.734375 C 879.792969 280.804688 879.941406 278.378906 878.949219 276.316406 C 877.960938 274.257812 875.972656 272.855469 873.699219 272.613281 C 847.957031 269.847656 818.109375 268.023438 789.679688 281.46875 C 775.378906 288.246094 763.808594 301.777344 758.734375 317.652344 C 757.613281 321.183594 756.875 324.78125 756.417969 328.382812 C 755.277344 326.699219 754.039062 324.964844 752.71875 323.191406 C 756.953125 313.472656 757.554688 302.84375 754.347656 292.792969 Z M 754.347656 292.792969" stroke-linecap="round" />
</g>
<g transform="matrix(1.33 0 0 1.33 447.68 510.33)"  >
<path style="stroke: none; stroke-width: 1; stroke-dasharray: none; stroke-linecap: butt; stroke-dashoffset: 0; stroke-linejoin: miter; stroke-miterlimit: 4; fill: rgb(217,217,217); fill-rule: nonzero; opacity: 1;" vector-effect="non-scaling-stroke"  transform=" translate(-711.45, -301.06)" d="M 715.925781 450.804688 C 716.773438 451.164062 717.644531 451.332031 718.507812 451.332031 C 721.078125 451.332031 723.523438 449.824219 724.597656 447.308594 C 726.027344 443.953125 724.460938 440.074219 721.101562 438.644531 C 669.03125 416.457031 638.121094 363.707031 644.183594 307.371094 C 651.125 242.9375 705.0625 194.796875 768.210938 193.332031 L 751.898438 206.46875 C 749.058594 208.761719 748.609375 212.917969 750.894531 215.761719 C 752.203125 217.382812 754.113281 218.226562 756.050781 218.226562 C 757.503906 218.226562 758.96875 217.746094 760.1875 216.765625 L 790.230469 192.574219 C 793.070312 190.28125 793.519531 186.125 791.234375 183.28125 L 767.042969 153.246094 C 764.753906 150.402344 760.597656 149.953125 757.75 152.242188 C 754.910156 154.535156 754.460938 158.691406 756.746094 161.535156 L 771.652344 180.042969 C 700.40625 179.765625 638.84375 233.578125 631.042969 305.953125 C 624.351562 368.113281 658.464844 426.320312 715.925781 450.804688 Z M 715.925781 450.804688" stroke-linecap="round" />
</g>
<g transform="matrix(1.33 0 0 1.33 607.1 563.31)" clip-path="url(#CLIPPATH_7)"  >
<clipPath id="CLIPPATH_7" >
	<path transform="matrix(1 0 0 1 -0.01 -0.16) translate(-831, -340.63)" d="M 749 190 L 913 190 L 913 491.25 L 749 491.25 Z M 749 190" stroke-linecap="round" />
</clipPath>
<path style="stroke: none; stroke-width: 1; stroke-dasharray: none; stroke-linecap: butt; stroke-dashoffset: 0; stroke-linejoin: miter; stroke-miterlimit: 4; fill: rgb(217,217,217); fill-rule: nonzero; opacity: 1;" vector-effect="non-scaling-stroke"  transform=" translate(-831.01, -340.79)" d="M 820.160156 202.953125 C 872.203125 224.484375 904.34375 278.679688 898.308594 334.753906 C 891.363281 399.1875 837.414062 447.347656 774.253906 448.785156 L 790.574219 435.648438 C 793.414062 433.355469 793.863281 429.195312 791.578125 426.355469 C 789.28125 423.507812 785.125 423.058594 782.285156 425.355469 L 752.242188 449.546875 C 750.878906 450.644531 750.011719 452.238281 749.820312 453.984375 C 749.636719 455.726562 750.148438 457.472656 751.242188 458.839844 L 775.441406 488.871094 C 776.75 490.492188 778.660156 491.335938 780.585938 491.335938 C 782.046875 491.335938 783.507812 490.855469 784.734375 489.875 C 787.570312 487.582031 788.023438 483.421875 785.734375 480.582031 L 770.8125 462.066406 C 770.988281 462.066406 771.164062 462.082031 771.339844 462.082031 C 842.378906 462.074219 903.667969 408.359375 911.445312 336.171875 C 918.105469 274.304688 882.644531 214.5 825.207031 190.746094 C 821.835938 189.355469 817.96875 190.960938 816.574219 194.328125 C 815.179688 197.691406 816.789062 201.554688 820.160156 202.953125 Z M 820.160156 202.953125" stroke-linecap="round" />
</g>
<g transform="matrix(1.33 0 0 1.33 1246.61 566.89)" clip-path="url(#CLIPPATH_8)"  >
<clipPath id="CLIPPATH_8" >
	<path transform="matrix(1 0 0 1 -0.18 0.21) translate(-1310.37, -343.5)" d="M 1271 265 L 1349.746094 265 L 1349.746094 422 L 1271 422 Z M 1271 265" stroke-linecap="round" />
</clipPath>
<path style="stroke: none; stroke-width: 1; stroke-dasharray: none; stroke-linecap: butt; stroke-dashoffset: 0; stroke-linejoin: miter; stroke-miterlimit: 4; fill: rgb(217,217,217); fill-rule: nonzero; opacity: 1;" vector-effect="non-scaling-stroke"  transform=" translate(-1310.55, -343.29)" d="M 1337.042969 274.335938 C 1339.617188 284.695312 1340.910156 295.371094 1340.910156 306.117188 C 1340.910156 340.101562 1327.980469 372.378906 1304.5 396.976562 L 1301.429688 400.1875 L 1304.78125 403.539062 L 1283.589844 408.84375 L 1288.890625 387.648438 L 1295.046875 393.800781 L 1298.238281 390.414062 C 1319.894531 367.554688 1331.828125 337.617188 1331.828125 306.117188 C 1331.828125 295.335938 1330.429688 284.660156 1327.679688 274.335938 Z M 1318.421875 274.550781 L 1318.597656 275.5625 C 1321.347656 285.457031 1322.75 295.742188 1322.75 306.117188 C 1322.75 333.714844 1312.851562 360.035156 1294.796875 380.714844 L 1283.960938 369.878906 L 1271.101562 421.328125 L 1322.554688 408.46875 L 1314.078125 399.992188 C 1337.273438 374.117188 1349.992188 340.96875 1349.992188 306.117188 C 1349.992188 293.382812 1348.289062 280.757812 1344.9375 268.589844 L 1344.015625 265.257812 L 1317.996094 265.257812 L 1318.421875 274.550781" stroke-linecap="round" />
</g>
<g transform="matrix(1.33 0 0 1.33 1093.5 535.73)"  >
<path style="stroke: none; stroke-width: 1; stroke-dasharray: none; stroke-linecap: butt; stroke-dashoffset: 0; stroke-linejoin: miter; stroke-miterlimit: 4; fill: rgb(217,217,217); fill-rule: nonzero; opacity: 1;" vector-effect="non-scaling-stroke"  transform=" translate(-1195.62, -319.74)" d="M 1200.160156 315.199219 L 1191.082031 315.199219 L 1191.082031 324.28125 L 1200.160156 324.28125 L 1200.160156 315.199219" stroke-linecap="round" />
</g>
<g transform="matrix(1.33 0 0 1.33 1093.5 511.52)"  >
<path style="stroke: none; stroke-width: 1; stroke-dasharray: none; stroke-linecap: butt; stroke-dashoffset: 0; stroke-linejoin: miter; stroke-miterlimit: 4; fill: rgb(217,217,217); fill-rule: nonzero; opacity: 1;" vector-effect="non-scaling-stroke"  transform=" translate(-1195.62, -301.58)" d="M 1200.160156 297.039062 L 1191.082031 297.039062 L 1191.082031 306.117188 L 1200.160156 306.117188 L 1200.160156 297.039062" stroke-linecap="round" />
</g>
<g transform="matrix(1.33 0 0 1.33 1093.5 487.3)"  >
<path style="stroke: none; stroke-width: 1; stroke-dasharray: none; stroke-linecap: butt; stroke-dashoffset: 0; stroke-linejoin: miter; stroke-miterlimit: 4; fill: rgb(217,217,217); fill-rule: nonzero; opacity: 1;" vector-effect="non-scaling-stroke"  transform=" translate(-1195.62, -283.42)" d="M 1200.160156 278.878906 L 1191.082031 278.878906 L 1191.082031 287.957031 L 1200.160156 287.957031 L 1200.160156 278.878906" stroke-linecap="round" />
</g>
<g transform="matrix(1.33 0 0 1.33 -91.56 1246.08)" clip-path="url(#CLIPPATH_9)"  >
<clipPath id="CLIPPATH_9" >
	<path transform="matrix(1 0 0 1 -0.02 -0.31) translate(-307, -852.49)" d="M 225 727 L 389 727 L 389 977.988281 L 225 977.988281 Z M 225 727" stroke-linecap="round" />
</clipPath>
<path style="stroke: none; stroke-width: 1; stroke-dasharray: none; stroke-linecap: butt; stroke-dashoffset: 0; stroke-linejoin: miter; stroke-miterlimit: 4; fill: rgb(217,217,217); fill-rule: nonzero; opacity: 1;" vector-effect="non-scaling-stroke"  transform=" translate(-307.02, -852.8)" d="M 388.074219 808.972656 C 388.074219 798.195312 385.988281 787.722656 381.882812 777.851562 C 377.914062 768.316406 372.226562 759.722656 364.976562 752.308594 C 357.734375 744.902344 349.28125 739.027344 339.847656 734.84375 C 330.097656 730.519531 319.714844 728.195312 308.988281 727.941406 C 297.789062 727.671875 286.925781 729.605469 276.691406 733.683594 C 266.800781 737.625 257.917969 743.398438 250.292969 750.835938 C 242.671875 758.273438 236.683594 767 232.5 776.78125 C 228.171875 786.898438 225.972656 797.703125 225.960938 808.894531 C 225.953125 818.609375 227.648438 828.117188 230.996094 837.148438 C 234.230469 845.871094 238.917969 853.925781 244.929688 861.078125 C 254.765625 872.789062 260.183594 887.550781 260.183594 902.648438 L 260.183594 902.824219 C 260.183594 907.589844 262.480469 911.832031 266.023438 914.5 L 266.023438 944.707031 C 266.023438 953.140625 272.003906 960.199219 279.949219 961.867188 C 282.15625 970.9375 290.34375 977.691406 300.082031 977.691406 L 313.953125 977.691406 C 323.691406 977.691406 331.882812 970.9375 334.089844 961.867188 C 342.03125 960.199219 348.011719 953.140625 348.011719 944.707031 L 348.011719 914.5 C 351.554688 911.832031 353.851562 907.589844 353.851562 902.824219 C 353.851562 887.644531 359.292969 872.792969 369.167969 861.007812 C 375.152344 853.867188 379.820312 845.835938 383.042969 837.136719 C 386.382812 828.132812 388.074219 818.65625 388.074219 808.972656 Z M 337.46875 917.429688 L 337.46875 929.292969 L 276.566406 929.292969 L 276.566406 917.429688 Z M 313.953125 967.148438 L 300.082031 967.148438 C 296.398438 967.148438 293.167969 965.179688 291.378906 962.242188 L 322.65625 962.242188 C 320.867188 965.179688 317.636719 967.148438 313.953125 967.148438 Z M 337.46875 944.707031 C 337.46875 948.5625 334.332031 951.699219 330.480469 951.699219 L 283.558594 951.699219 C 279.703125 951.699219 276.566406 948.5625 276.566406 944.707031 L 276.566406 939.835938 L 337.46875 939.835938 Z M 373.15625 833.472656 C 370.355469 841.035156 366.292969 848.019531 361.089844 854.234375 C 349.621094 867.914062 343.308594 885.171875 343.308594 902.824219 C 343.308594 905.066406 341.484375 906.886719 339.242188 906.886719 L 307.765625 906.886719 C 309.445312 896.734375 310.457031 886.527344 310.859375 876.332031 C 311.210938 867.023438 311.074219 857.699219 310.441406 848.414062 C 311.023438 847.832031 312.121094 846.730469 312.121094 846.730469 C 320.539062 838.601562 330.960938 832.601562 342.257812 829.367188 C 343.488281 828.996094 344.980469 828.636719 346.273438 828.324219 C 346.523438 828.289062 346.769531 828.253906 347.007812 828.226562 C 347.820312 828.105469 349.4375 827.898438 350.257812 827.8125 L 348.6875 828.3125 C 347.917969 828.574219 346.347656 829.121094 345.582031 829.382812 C 344.664062 829.753906 343.433594 830.234375 342.527344 830.613281 C 335.15625 833.785156 328.265625 838.351562 322.121094 844.089844 C 326.699219 849.699219 334.15625 852.640625 341.746094 851.09375 C 352.632812 848.875 367.203125 825.367188 367.203125 825.367188 C 367.203125 825.367188 344.589844 809.445312 333.703125 811.664062 C 323.707031 813.703125 316.964844 822.824219 317.644531 832.730469 C 314.8125 833.855469 312.042969 835.148438 309.355469 836.589844 C 308.246094 826.972656 306.585938 817.425781 304.355469 808.007812 C 304.472656 807.949219 304.59375 807.890625 304.710938 807.832031 C 314.464844 802.800781 318.296875 790.816406 313.265625 781.0625 C 308.238281 771.304688 281.988281 763.757812 281.988281 763.757812 C 281.988281 763.757812 272.910156 789.519531 277.941406 799.273438 C 281.445312 806.074219 288.328125 809.992188 295.480469 810.042969 C 296.09375 801.761719 295.339844 793.628906 293.21875 785.996094 C 292.949219 785.0625 292.558594 783.820312 292.277344 782.886719 C 292.007812 782.132812 291.453125 780.585938 291.179688 779.832031 L 290.589844 778.3125 C 291.035156 778.996094 291.875 780.371094 292.285156 781.070312 C 293.089844 782.367188 293.945312 784 294.640625 785.34375 C 295.296875 786.714844 296.101562 788.40625 296.65625 789.824219 C 298.011719 793.152344 299.109375 796.613281 299.933594 800.171875 C 302.339844 815.085938 303.339844 830.238281 302.945312 845.351562 C 302.078125 844.878906 301.214844 844.421875 300.367188 844 C 298.875 843.261719 297.359375 842.566406 295.820312 841.917969 C 296.445312 832.363281 290.152344 823.453125 280.535156 821.089844 C 269.742188 818.441406 246.519531 833.460938 246.519531 833.460938 C 246.519531 833.460938 260.148438 857.523438 270.941406 860.171875 C 278.460938 862.019531 286.03125 859.375 290.828125 853.949219 C 284.914062 847.972656 278.203125 843.136719 270.964844 839.675781 C 270.074219 839.261719 268.863281 838.734375 267.964844 838.328125 C 267.210938 838.035156 265.660156 837.429688 264.902344 837.136719 L 263.355469 836.574219 C 264.140625 836.6875 265.65625 836.941406 266.488281 837.097656 C 267.101562 837.242188 267.734375 837.398438 268.253906 837.53125 C 269.101562 837.777344 270.308594 838.101562 271.144531 838.367188 C 282.820312 841.992188 293.457031 848.539062 301.871094 857.34375 C 301.871094 857.34375 302.066406 857.105469 302.386719 856.710938 C 301.167969 873.566406 298.21875 890.285156 293.550781 906.476562 C 293.511719 906.613281 293.476562 906.75 293.441406 906.886719 L 274.792969 906.886719 C 272.550781 906.886719 270.726562 905.066406 270.726562 902.824219 L 270.726562 902.648438 C 270.726562 885.074219 264.429688 867.90625 253 854.296875 C 247.769531 848.070312 243.691406 841.070312 240.878906 833.484375 C 237.96875 825.632812 236.496094 817.363281 236.503906 808.90625 C 236.511719 799.144531 238.425781 789.734375 242.195312 780.929688 C 245.828125 772.429688 251.027344 764.847656 257.652344 758.386719 C 264.28125 751.921875 272 746.90625 280.59375 743.480469 C 288.957031 740.148438 297.8125 738.460938 306.949219 738.460938 C 307.542969 738.460938 308.136719 738.46875 308.734375 738.484375 C 318.066406 738.707031 327.097656 740.722656 335.570312 744.484375 C 343.777344 748.121094 351.132812 753.234375 357.433594 759.683594 C 370.390625 772.933594 377.527344 790.4375 377.527344 808.972656 C 377.527344 817.402344 376.058594 825.644531 373.15625 833.472656 Z M 373.15625 833.472656" stroke-linecap="round" />
</g>
<g transform="matrix(1.33 0 0 1.33 56.93 1184.43)" clip-path="url(#CLIPPATH_10)"  >
<clipPath id="CLIPPATH_10" >
	<path transform="matrix(1 0 0 1 -0.47 0.23) translate(-417.76, -806.5)" d="M 401 801 L 434.511719 801 L 434.511719 812 L 401 812 Z M 401 801" stroke-linecap="round" />
</clipPath>
<path style="stroke: none; stroke-width: 1; stroke-dasharray: none; stroke-linecap: butt; stroke-dashoffset: 0; stroke-linejoin: miter; stroke-miterlimit: 4; fill: rgb(217,217,217); fill-rule: nonzero; opacity: 1;" vector-effect="non-scaling-stroke"  transform=" translate(-418.23, -806.27)" d="M 429.25 801 L 407.203125 801 C 404.292969 801 401.929688 803.359375 401.929688 806.273438 C 401.929688 809.183594 404.292969 811.542969 407.203125 811.542969 L 429.25 811.542969 C 432.164062 811.542969 434.523438 809.183594 434.523438 806.273438 C 434.523438 803.359375 432.164062 801 429.25 801 Z M 429.25 801" stroke-linecap="round" />
</g>
<g transform="matrix(1.33 0 0 1.33 -239.63 1184.43)" clip-path="url(#CLIPPATH_11)"  >
<clipPath id="CLIPPATH_11" >
	<path transform="matrix(1 0 0 1 0.44 0.23) translate(-196.26, -806.5)" d="M 179.511719 801 L 213 801 L 213 812 L 179.511719 812 Z M 179.511719 801" stroke-linecap="round" />
</clipPath>
<path style="stroke: none; stroke-width: 1; stroke-dasharray: none; stroke-linecap: butt; stroke-dashoffset: 0; stroke-linejoin: miter; stroke-miterlimit: 4; fill: rgb(217,217,217); fill-rule: nonzero; opacity: 1;" vector-effect="non-scaling-stroke"  transform=" translate(-195.81, -806.27)" d="M 206.832031 801 L 184.785156 801 C 181.875 801 179.511719 803.359375 179.511719 806.273438 C 179.511719 809.183594 181.875 811.542969 184.785156 811.542969 L 206.832031 811.542969 C 209.746094 811.542969 212.105469 809.183594 212.105469 806.273438 C 212.105469 803.359375 209.746094 801 206.832031 801 Z M 206.832031 801" stroke-linecap="round" />
</g>
<g transform="matrix(1.33 0 0 1.33 13.51 1079.56)"  >
<path style="stroke: none; stroke-width: 1; stroke-dasharray: none; stroke-linecap: butt; stroke-dashoffset: 0; stroke-linejoin: miter; stroke-miterlimit: 4; fill: rgb(217,217,217); fill-rule: nonzero; opacity: 1;" vector-effect="non-scaling-stroke"  transform=" translate(-385.65, -727.64)" d="M 389.722656 716.113281 L 374.132812 731.703125 C 372.074219 733.761719 372.074219 737.101562 374.132812 739.160156 C 375.160156 740.1875 376.511719 740.703125 377.859375 740.703125 C 379.207031 740.703125 380.558594 740.1875 381.585938 739.160156 L 397.175781 723.570312 C 399.234375 721.511719 399.234375 718.171875 397.175781 716.113281 C 395.117188 714.054688 391.78125 714.054688 389.722656 716.113281 Z M 389.722656 716.113281" stroke-linecap="round" />
</g>
<g transform="matrix(1.33 0 0 1.33 -196.18 1289.26)"  >
<path style="stroke: none; stroke-width: 1; stroke-dasharray: none; stroke-linecap: butt; stroke-dashoffset: 0; stroke-linejoin: miter; stroke-miterlimit: 4; fill: rgb(217,217,217); fill-rule: nonzero; opacity: 1;" vector-effect="non-scaling-stroke"  transform=" translate(-228.38, -884.91)" d="M 232.449219 873.386719 L 216.859375 888.976562 C 214.800781 891.035156 214.800781 894.375 216.859375 896.433594 C 217.886719 897.460938 219.238281 897.976562 220.585938 897.976562 C 221.933594 897.976562 223.285156 897.460938 224.3125 896.433594 L 239.902344 880.84375 C 241.960938 878.785156 241.960938 875.445312 239.902344 873.386719 C 237.84375 871.328125 234.507812 871.328125 232.449219 873.386719 Z M 232.449219 873.386719" stroke-linecap="round" />
</g>
<g transform="matrix(1.33 0 0 1.33 13.51 1289.26)"  >
<path style="stroke: none; stroke-width: 1; stroke-dasharray: none; stroke-linecap: butt; stroke-dashoffset: 0; stroke-linejoin: miter; stroke-miterlimit: 4; fill: rgb(217,217,217); fill-rule: nonzero; opacity: 1;" vector-effect="non-scaling-stroke"  transform=" translate(-385.65, -884.91)" d="M 381.585938 873.386719 C 379.527344 871.328125 376.191406 871.328125 374.132812 873.386719 C 372.070312 875.445312 372.074219 878.78125 374.132812 880.84375 L 389.722656 896.433594 C 390.75 897.460938 392.101562 897.976562 393.449219 897.976562 C 394.796875 897.976562 396.148438 897.460938 397.175781 896.433594 C 399.234375 894.375 399.234375 891.035156 397.175781 888.976562 Z M 381.585938 873.386719" stroke-linecap="round" />
</g>
<g transform="matrix(1.33 0 0 1.33 -196.18 1079.56)"  >
<path style="stroke: none; stroke-width: 1; stroke-dasharray: none; stroke-linecap: butt; stroke-dashoffset: 0; stroke-linejoin: miter; stroke-miterlimit: 4; fill: rgb(217,217,217); fill-rule: nonzero; opacity: 1;" vector-effect="non-scaling-stroke"  transform=" translate(-228.38, -727.64)" d="M 232.449219 739.160156 C 233.480469 740.1875 234.828125 740.703125 236.175781 740.703125 C 237.523438 740.703125 238.875 740.1875 239.902344 739.160156 C 241.960938 737.101562 241.960938 733.761719 239.902344 731.703125 L 224.3125 716.113281 C 222.253906 714.054688 218.917969 714.054688 216.859375 716.113281 C 214.800781 718.171875 214.800781 721.507812 216.859375 723.570312 Z M 232.449219 739.160156" stroke-linecap="round" />
</g>
<g transform="matrix(1.33 0 0 1.33 -91.31 1036.12)" clip-path="url(#CLIPPATH_12)"  >
<clipPath id="CLIPPATH_12" >
	<path transform="matrix(1 0 0 1 -0.02 0.3) translate(-307, -695.37)" d="M 301 678.738281 L 313 678.738281 L 313 712 L 301 712 Z M 301 678.738281" stroke-linecap="round" />
</clipPath>
<path style="stroke: none; stroke-width: 1; stroke-dasharray: none; stroke-linecap: butt; stroke-dashoffset: 0; stroke-linejoin: miter; stroke-miterlimit: 4; fill: rgb(217,217,217); fill-rule: nonzero; opacity: 1;" vector-effect="non-scaling-stroke"  transform=" translate(-307.02, -695.06)" d="M 307.019531 711.359375 C 309.929688 711.359375 312.289062 709 312.289062 706.085938 L 312.289062 684.039062 C 312.289062 681.128906 309.929688 678.769531 307.019531 678.769531 C 304.105469 678.769531 301.746094 681.128906 301.746094 684.039062 L 301.746094 706.085938 C 301.746094 709 304.105469 711.359375 307.019531 711.359375 Z M 307.019531 711.359375" stroke-linecap="round" />
</g>
<g transform="matrix(1.33 0 0 1.33 449.7 1260.78)"  >
<path style="stroke: none; stroke-width: 1; stroke-dasharray: none; stroke-linecap: butt; stroke-dashoffset: 0; stroke-linejoin: miter; stroke-miterlimit: 4; fill: rgb(217,217,217); fill-rule: nonzero; opacity: 1;" vector-effect="non-scaling-stroke"  transform=" translate(-712.82, -863.6)" d="M 710.292969 840.902344 L 715.339844 840.902344 C 720.902344 840.902344 725.429688 845.425781 725.429688 850.992188 C 725.429688 853.777344 727.6875 856.035156 730.472656 856.035156 C 733.261719 856.035156 735.519531 853.777344 735.519531 850.992188 C 735.519531 839.863281 726.464844 830.8125 715.339844 830.8125 L 710.292969 830.8125 C 699.167969 830.8125 690.113281 839.863281 690.113281 850.992188 L 690.113281 876.214844 C 690.113281 887.34375 699.167969 896.394531 710.292969 896.394531 L 715.339844 896.394531 C 726.464844 896.394531 735.519531 887.34375 735.519531 876.214844 C 735.519531 873.429688 733.261719 871.171875 730.472656 871.171875 C 727.6875 871.171875 725.429688 873.429688 725.429688 876.214844 C 725.429688 881.777344 720.902344 886.304688 715.339844 886.304688 L 710.292969 886.304688 C 704.730469 886.304688 700.203125 881.777344 700.203125 876.214844 L 700.203125 850.992188 C 700.203125 845.425781 704.730469 840.902344 710.292969 840.902344 Z M 710.292969 840.902344" stroke-linecap="round" />
</g>
<g transform="matrix(1.33 0 0 1.33 523.68 1260.78)"  >
<path style="stroke: none; stroke-width: 1; stroke-dasharray: none; stroke-linecap: butt; stroke-dashoffset: 0; stroke-linejoin: miter; stroke-miterlimit: 4; fill: rgb(217,217,217); fill-rule: nonzero; opacity: 1;" vector-effect="non-scaling-stroke"  transform=" translate(-768.31, -863.6)" d="M 768.3125 830.8125 C 755.792969 830.8125 745.609375 840.996094 745.609375 853.511719 L 745.609375 873.691406 C 745.609375 886.210938 755.792969 896.394531 768.3125 896.394531 C 780.828125 896.394531 791.011719 886.210938 791.011719 873.691406 L 791.011719 853.511719 C 791.011719 840.996094 780.828125 830.8125 768.3125 830.8125 Z M 780.921875 873.691406 C 780.921875 880.648438 775.265625 886.304688 768.3125 886.304688 C 761.355469 886.304688 755.699219 880.648438 755.699219 873.691406 L 755.699219 853.511719 C 755.699219 846.558594 761.355469 840.902344 768.3125 840.902344 C 775.265625 840.902344 780.921875 846.558594 780.921875 853.511719 Z M 780.921875 873.691406" stroke-linecap="round" />
</g>
<g transform="matrix(1.33 0 0 1.33 581.84 1322.01)"  >
<path style="stroke: none; stroke-width: 1; stroke-dasharray: none; stroke-linecap: butt; stroke-dashoffset: 0; stroke-linejoin: miter; stroke-miterlimit: 4; fill: rgb(217,217,217); fill-rule: nonzero; opacity: 1;" vector-effect="non-scaling-stroke"  transform=" translate(-811.91, -909.51)" d="M 815.246094 917.191406 C 815.269531 917.183594 815.289062 917.285156 815.308594 917.273438 C 822.996094 913.429688 827.769531 905.707031 827.769531 897.117188 C 827.769531 888.371094 820.65625 881.261719 811.914062 881.261719 C 803.171875 881.261719 796.058594 888.371094 796.058594 897.117188 C 796.058594 899.902344 798.316406 902.160156 801.101562 902.160156 C 803.886719 902.160156 806.148438 899.902344 806.148438 897.117188 C 806.148438 893.9375 808.734375 891.351562 811.914062 891.351562 C 815.09375 891.351562 817.679688 893.9375 817.679688 897.117188 C 817.679688 901.851562 815.054688 906.109375 810.824219 908.234375 C 794.828125 915.984375 796.09375 932.816406 796.058594 932.941406 C 796.058594 935.726562 798.316406 937.761719 801.101562 937.761719 L 821.28125 937.761719 C 824.070312 937.761719 826.328125 935.503906 826.328125 932.71875 C 826.328125 929.933594 824.070312 927.671875 821.28125 927.671875 L 806.636719 927.671875 C 807.789062 923.132812 810.917969 919.28125 815.246094 917.191406 Z M 815.246094 917.191406" stroke-linecap="round" />
</g>
<g transform="matrix(1.33 0 0 1.33 382.38 1344.81)" clip-path="url(#CLIPPATH_13)"  >
<clipPath id="CLIPPATH_13" >
	<path transform="matrix(1 0 0 1 0.13 0.25) translate(-662.5, -926.91)" d="M 624 876 L 701 876 L 701 977.824219 L 624 977.824219 Z M 624 876" stroke-linecap="round" />
</clipPath>
<path style="stroke: none; stroke-width: 1; stroke-dasharray: none; stroke-linecap: butt; stroke-dashoffset: 0; stroke-linejoin: miter; stroke-miterlimit: 4; fill: rgb(217,217,217); fill-rule: nonzero; opacity: 1;" vector-effect="non-scaling-stroke"  transform=" translate(-662.37, -926.66)" d="M 695.160156 926.664062 L 680.023438 926.664062 L 680.023438 881.261719 C 680.023438 878.472656 677.765625 876.214844 674.980469 876.214844 L 649.757812 876.214844 C 646.96875 876.214844 644.710938 878.472656 644.710938 881.261719 L 644.710938 926.664062 L 629.578125 926.664062 C 627.636719 926.664062 625.871094 927.773438 625.03125 929.519531 C 624.191406 931.269531 624.425781 933.34375 625.632812 934.855469 L 657.863281 975.214844 C 659.871094 977.730469 663.671875 977.730469 665.691406 975.28125 L 699.046875 934.921875 C 700.292969 933.417969 700.554688 931.328125 699.722656 929.558594 C 698.890625 927.792969 697.113281 926.664062 695.160156 926.664062 Z M 695.160156 926.664062" stroke-linecap="round" />
</g>
<g transform="matrix(1.33 0 0 1.33 506.88 1129.66)"  >
<path style="stroke: none; stroke-width: 1; stroke-dasharray: none; stroke-linecap: butt; stroke-dashoffset: 0; stroke-linejoin: miter; stroke-miterlimit: 4; fill: rgb(217,217,217); fill-rule: nonzero; opacity: 1;" vector-effect="non-scaling-stroke"  transform=" translate(-755.7, -765.23)" d="M 765.789062 780.363281 C 765.789062 783.148438 768.046875 785.40625 770.832031 785.40625 C 773.617188 785.40625 775.878906 783.148438 775.878906 780.363281 C 775.878906 760.890625 760.035156 745.046875 740.5625 745.046875 C 737.777344 745.046875 735.519531 747.308594 735.519531 750.09375 C 735.519531 752.878906 737.777344 755.136719 740.5625 755.136719 C 754.472656 755.136719 765.789062 766.453125 765.789062 780.363281 Z M 765.789062 780.363281" stroke-linecap="round" />
</g>
</svg>