<svg xmlns="http://www.w3.org/2000/svg" xmlns:xlink="http://www.w3.org/1999/xlink" width="2000" zoomAndPan="magnify" viewBox="0 0 1500 1499.999933" height="2000" preserveAspectRatio="xMidYMid meet" version="1.0"><defs><clipPath id="680eeb5630"><path d="M 114.511719 175.550781 L 1385.757812 175.550781 L 1385.757812 1375.550781 L 114.511719 1375.550781 Z M 114.511719 175.550781 " clip-rule="nonzero"/></clipPath></defs><g clip-path="url(#680eeb5630)"><path fill="#d9d9d9" d="M 114.265625 1375.5625 L 114.265625 402.875 C 114.265625 342.148438 137.910156 285.0625 180.847656 242.128906 C 223.789062 199.191406 280.875 175.542969 341.59375 175.542969 L 1385.734375 175.542969 L 1385.734375 193.332031 L 341.589844 193.332031 C 226.050781 193.332031 132.050781 287.332031 132.050781 402.875 L 132.050781 1375.554688 L 114.265625 1375.554688 Z M 114.265625 1375.5625 " fill-opacity="1" fill-rule="nonzero"/></g><path fill="#d9d9d9" d="M 178.28125 1316 L 178.28125 440.585938 C 178.28125 327.773438 270.0625 235.988281 382.882812 235.988281 L 1322.605469 235.988281 L 1322.605469 251.996094 L 382.875 251.996094 C 278.890625 251.996094 194.289062 336.59375 194.289062 440.582031 L 194.289062 1315.996094 L 178.28125 1315.996094 Z M 178.28125 1316 " fill-opacity="1" fill-rule="nonzero"/><path fill="#d9d9d9" d="M 235.898438 474.527344 C 235.898438 372.996094 318.5 290.386719 420.035156 290.386719 L 420.035156 304.796875 C 326.449219 304.796875 250.308594 380.9375 250.308594 474.523438 L 235.898438 474.523438 Z M 235.898438 474.527344 " fill-opacity="1" fill-rule="nonzero"/></svg>