<svg xmlns="http://www.w3.org/2000/svg" xmlns:xlink="http://www.w3.org/1999/xlink" width="2000" zoomAndPan="magnify" viewBox="0 0 1500 1499.999933" height="2000" preserveAspectRatio="xMidYMid meet" version="1.0"><defs><clipPath id="114a4f54f5"><path d="M 114.242188 175.550781 L 1385.488281 175.550781 L 1385.488281 1375.550781 L 114.242188 1375.550781 Z M 114.242188 175.550781 " clip-rule="nonzero"/></clipPath></defs><g clip-path="url(#114a4f54f5)"><path fill="#d9d9d9" d="M 1385.734375 175.542969 L 1385.734375 1148.230469 C 1385.734375 1208.953125 1362.089844 1266.042969 1319.152344 1308.976562 C 1276.210938 1351.910156 1219.125 1375.5625 1158.40625 1375.5625 L 114.265625 1375.5625 L 114.265625 1357.773438 L 1158.410156 1357.773438 C 1273.949219 1357.773438 1367.949219 1263.773438 1367.949219 1148.230469 L 1367.949219 175.546875 L 1385.734375 175.546875 Z M 1385.734375 175.542969 " fill-opacity="1" fill-rule="nonzero"/></g><path fill="#d9d9d9" d="M 1321.714844 235.101562 L 1321.714844 1110.519531 C 1321.714844 1223.332031 1229.9375 1315.117188 1117.117188 1315.117188 L 177.394531 1315.117188 L 177.394531 1299.105469 L 1117.125 1299.105469 C 1221.109375 1299.105469 1305.710938 1214.507812 1305.710938 1110.523438 L 1305.710938 235.105469 L 1321.714844 235.105469 Z M 1321.714844 235.101562 " fill-opacity="1" fill-rule="nonzero"/><path fill="#d9d9d9" d="M 1264.101562 1076.578125 C 1264.101562 1178.109375 1181.5 1260.714844 1079.964844 1260.714844 L 1079.964844 1246.308594 C 1173.550781 1246.308594 1249.691406 1170.167969 1249.691406 1076.582031 L 1264.101562 1076.582031 Z M 1264.101562 1076.578125 " fill-opacity="1" fill-rule="nonzero"/></svg>