<?xml version="1.0" encoding="UTF-8" standalone="no" ?>
<!DOCTYPE svg PUBLIC "-//W3C//DTD SVG 1.1//EN" "http://www.w3.org/Graphics/SVG/1.1/DTD/svg11.dtd">
<svg xmlns="http://www.w3.org/2000/svg" xmlns:xlink="http://www.w3.org/1999/xlink" version="1.1" width="1080" height="1080" viewBox="0 0 1080 1080" xml:space="preserve">
<desc>Created with Fabric.js 5.2.4</desc>
<defs>
</defs>
<g transform="matrix(1 0 0 1 540 540)" id="b0ce6ab7-f98a-4ae1-a4bd-0d604f1a67f3"  >
<rect style="stroke: none; stroke-width: 1; stroke-dasharray: none; stroke-linecap: butt; stroke-dashoffset: 0; stroke-linejoin: miter; stroke-miterlimit: 4; fill: rgb(255,255,255); fill-rule: nonzero; opacity: 1; visibility: hidden;" vector-effect="non-scaling-stroke"  x="-540" y="-540" rx="0" ry="0" width="1080" height="1080" />
</g>
<g transform="matrix(1 0 0 1 540 540)" id="5290f15d-9377-4fdb-a78e-67ceca809dfc"  >
</g>
<g transform="matrix(1.33 0 0 1.33 -177.31 -300.28)"  >
<path style="stroke: none; stroke-width: 1; stroke-dasharray: none; stroke-linecap: butt; stroke-dashoffset: 0; stroke-linejoin: miter; stroke-miterlimit: 4; fill: rgb(58,42,121); fill-rule: nonzero; opacity: 1;" vector-effect="non-scaling-stroke"  transform=" translate(-223.5, -137.32)" d="M 356.019531 135.496094 C 354.042969 116.386719 336.910156 101.230469 314.507812 103.207031 L 132.632812 103.207031 C 110.886719 101.886719 93.09375 117.042969 91.117188 135.496094 C 88.480469 159.21875 112.203125 179.648438 134.609375 168.445312 C 150.421875 159.878906 152.402344 140.769531 141.199219 130.222656 C 131.3125 121 114.179688 126.269531 112.203125 138.132812 C 110.226562 148.675781 120.109375 156.582031 128.019531 151.96875 C 129.996094 150.652344 130.65625 149.992188 130.65625 149.992188 C 130.65625 149.992188 129.996094 150.652344 128.019531 151.3125 C 120.769531 153.945312 114.839844 146.039062 117.476562 139.449219 C 119.453125 133.519531 129.335938 130.882812 134.609375 136.8125 C 140.539062 143.402344 137.902344 153.289062 129.335938 157.242188 C 117.476562 163.171875 104.296875 151.3125 105.613281 136.8125 C 106.933594 123.632812 120.109375 115.066406 133.289062 115.726562 L 314.507812 115.726562 C 327.6875 115.066406 340.863281 123.632812 342.183594 136.8125 C 342.84375 143.402344 340.207031 149.992188 334.933594 154.605469 C 330.980469 158.558594 323.730469 159.878906 317.800781 157.242188 C 308.574219 153.289062 306.597656 143.402344 312.53125 136.8125 C 317.800781 130.882812 327.6875 132.859375 329.664062 139.449219 C 332.296875 146.039062 326.367188 153.945312 319.121094 151.3125 C 317.140625 150.652344 316.484375 149.992188 316.484375 149.992188 C 316.484375 149.992188 317.140625 151.3125 319.121094 151.96875 C 327.027344 156.582031 336.910156 148.675781 334.933594 138.132812 C 332.957031 126.269531 315.824219 121 305.941406 130.222656 C 294.738281 140.769531 296.714844 159.878906 312.53125 168.445312 C 321.753906 173.058594 334.933594 173.058594 343.5 165.148438 C 352.066406 158.558594 356.679688 146.699219 356.019531 135.496094 Z M 356.019531 135.496094" stroke-linecap="round" />
</g>
<g transform="matrix(1.33 0 0 1.33 -177.21 -297.43)"  >
<path style="stroke: none; stroke-width: 1; stroke-dasharray: none; stroke-linecap: butt; stroke-dashoffset: 0; stroke-linejoin: miter; stroke-miterlimit: 4; fill: rgb(58,42,121); fill-rule: nonzero; opacity: 1;" vector-effect="non-scaling-stroke"  transform=" translate(-223.57, -139.45)" d="M 288.808594 140.109375 L 288.808594 138.789062 C 288.808594 133.519531 284.851562 129.566406 279.582031 129.566406 L 167.558594 129.566406 C 162.285156 129.566406 158.332031 133.519531 158.332031 138.789062 L 158.332031 140.109375 C 158.332031 145.378906 162.285156 149.335938 167.558594 149.335938 L 280.238281 149.335938 C 284.851562 149.335938 288.808594 145.378906 288.808594 140.109375 Z M 288.808594 140.109375" stroke-linecap="round" />
</g>
<g transform="matrix(1.33 0 0 1.33 -231.69 -129.18)"  >
<path style="stroke: none; stroke-width: 1; stroke-dasharray: none; stroke-linecap: butt; stroke-dashoffset: 0; stroke-linejoin: miter; stroke-miterlimit: 4; fill: rgb(58,42,121); fill-rule: nonzero; opacity: 1;" vector-effect="non-scaling-stroke"  transform=" translate(-182.71, -265.64)" d="M 182.054688 163.171875 C 176.125 163.171875 171.511719 167.785156 171.511719 173.714844 L 171.511719 357.566406 C 171.511719 363.5 176.125 368.113281 182.054688 368.113281 L 183.371094 368.113281 C 189.304688 368.113281 193.914062 363.5 193.914062 357.566406 L 193.914062 173.714844 C 193.914062 167.785156 189.304688 163.171875 183.371094 163.171875 Z M 182.054688 163.171875" stroke-linecap="round" />
</g>
<g transform="matrix(1.33 0 0 1.33 -177.21 -94.91)" clip-path="url(#CLIPPATH_3)"  >
<clipPath id="CLIPPATH_3" >
	<path transform="matrix(1 0 0 1 -0.07 -0.23) translate(-223.5, -291.12)" id="680000000" d="M 212 163 L 235 163 L 235 419.230469 L 212 419.230469 Z M 212 163" stroke-linecap="round" />
</clipPath>
<path style="stroke: none; stroke-width: 1; stroke-dasharray: none; stroke-linecap: butt; stroke-dashoffset: 0; stroke-linejoin: miter; stroke-miterlimit: 4; fill: rgb(58,42,121); fill-rule: nonzero; opacity: 1;" vector-effect="non-scaling-stroke"  transform=" translate(-223.57, -291.34)" d="M 222.910156 163.171875 C 216.980469 163.171875 212.367188 167.785156 212.367188 173.714844 L 212.367188 408.96875 C 212.367188 414.898438 216.980469 419.511719 222.910156 419.511719 L 224.226562 419.511719 C 230.160156 419.511719 234.773438 414.898438 234.773438 408.96875 L 234.773438 173.714844 C 234.773438 167.785156 230.160156 163.171875 224.226562 163.171875 Z M 222.910156 163.171875" stroke-linecap="round" />
</g>
<g transform="matrix(1.33 0 0 1.33 -122.74 -129.18)"  >
<path style="stroke: none; stroke-width: 1; stroke-dasharray: none; stroke-linecap: butt; stroke-dashoffset: 0; stroke-linejoin: miter; stroke-miterlimit: 4; fill: rgb(58,42,121); fill-rule: nonzero; opacity: 1;" vector-effect="non-scaling-stroke"  transform=" translate(-264.43, -265.64)" d="M 263.765625 163.171875 C 257.835938 163.171875 253.222656 167.785156 253.222656 173.714844 L 253.222656 357.566406 C 253.222656 363.5 257.835938 368.113281 263.765625 368.113281 L 265.085938 368.113281 C 271.015625 368.113281 275.628906 363.5 275.628906 357.566406 L 275.628906 173.714844 C 275.628906 167.785156 271.015625 163.171875 265.085938 163.171875 Z M 263.765625 163.171875" stroke-linecap="round" />
</g>
<g transform="matrix(1.33 0 0 1.33 500.57 -173.47)"  >
<path style="stroke: none; stroke-width: 1; stroke-dasharray: none; stroke-linecap: butt; stroke-dashoffset: 0; stroke-linejoin: miter; stroke-miterlimit: 4; fill: rgb(58,42,121); fill-rule: nonzero; opacity: 1;" vector-effect="non-scaling-stroke"  transform=" translate(-731.9, -232.42)" d="M 727.453125 315.65625 L 736.050781 315.65625 C 744.035156 315.65625 750.792969 309.511719 750.792969 301.835938 L 750.792969 295.691406 C 755.09375 294.464844 759.085938 292.621094 763.078125 290.472656 L 767.378906 294.769531 C 772.601562 299.992188 781.8125 299.683594 787.34375 294.15625 L 793.484375 288.015625 C 799.320312 282.179688 799.628906 273.273438 794.097656 268.050781 L 789.800781 263.75 C 791.949219 259.757812 793.484375 255.765625 795.019531 251.464844 L 801.164062 251.464844 C 808.839844 251.464844 814.984375 245.015625 814.984375 236.722656 L 814.984375 228.125 C 814.984375 220.136719 808.839844 213.378906 801.164062 213.378906 L 795.019531 213.378906 C 793.792969 209.082031 791.949219 205.089844 789.800781 201.09375 L 794.097656 196.796875 C 799.320312 191.574219 799.011719 182.359375 793.484375 176.832031 L 787.34375 170.6875 C 781.507812 164.855469 772.601562 164.546875 767.378906 170.074219 L 763.078125 174.375 C 759.085938 172.226562 755.09375 170.6875 750.792969 169.152344 L 750.792969 163.011719 C 750.792969 155.332031 744.34375 149.191406 736.050781 149.191406 L 727.453125 149.191406 C 719.464844 149.191406 712.710938 155.332031 712.710938 163.011719 L 712.710938 169.152344 C 708.410156 170.382812 704.417969 172.226562 700.421875 174.375 L 696.125 170.074219 C 690.902344 164.855469 681.6875 165.160156 676.160156 170.6875 L 670.019531 176.832031 C 667.253906 179.597656 665.410156 183.589844 665.410156 187.582031 C 665.410156 191.265625 666.640625 194.644531 669.097656 197.101562 L 673.394531 201.402344 C 671.246094 205.394531 669.710938 209.386719 668.175781 213.6875 L 662.03125 213.6875 C 654.96875 213.6875 648.824219 220.445312 648.824219 228.429688 L 648.824219 237.03125 C 648.824219 245.015625 654.96875 251.773438 662.648438 251.773438 L 668.789062 251.773438 C 670.019531 256.070312 671.859375 260.066406 674.011719 264.058594 L 669.710938 268.355469 C 664.488281 273.578125 664.796875 282.792969 670.324219 288.320312 L 676.46875 294.464844 C 682.304688 300.300781 691.210938 300.605469 696.429688 295.078125 L 700.730469 290.777344 C 704.722656 292.929688 708.714844 294.464844 713.015625 296 L 713.015625 302.140625 C 712.710938 309.511719 719.464844 315.65625 727.453125 315.65625 Z M 702.878906 277.878906 L 698.582031 275.113281 L 687.523438 286.171875 C 687.21875 286.476562 685.679688 286.476562 684.761719 285.558594 L 678.617188 279.414062 C 677.695312 278.492188 677.390625 277.265625 678.003906 276.648438 L 689.058594 265.59375 L 686.296875 261.292969 C 682.917969 255.765625 680.460938 249.929688 679.230469 243.785156 L 678.308594 238.871094 L 662.339844 238.871094 C 661.726562 238.871094 660.804688 237.953125 660.804688 236.414062 L 660.804688 227.816406 C 660.804688 226.28125 661.726562 225.359375 662.339844 225.359375 L 678.308594 225.359375 L 679.230469 220.445312 C 680.460938 214.300781 682.917969 208.464844 686.296875 202.9375 L 689.058594 198.636719 L 678.003906 187.582031 C 677.695312 187.273438 677.695312 186.96875 677.695312 186.96875 C 677.695312 186.351562 678.003906 185.433594 678.617188 185.125 L 684.761719 178.980469 C 685.679688 178.0625 687.21875 177.753906 687.523438 178.367188 L 698.582031 189.425781 L 702.878906 186.660156 C 708.101562 183.28125 713.9375 180.824219 720.386719 179.597656 L 725.300781 178.675781 L 725.300781 162.703125 C 725.300781 162.089844 726.222656 161.167969 727.757812 161.167969 L 736.359375 161.167969 C 737.894531 161.167969 738.816406 162.089844 738.816406 162.703125 L 738.816406 178.675781 L 743.730469 179.597656 C 749.871094 180.824219 755.707031 183.28125 761.234375 186.660156 L 765.535156 189.425781 L 776.59375 178.367188 C 776.898438 178.0625 778.128906 178.0625 779.355469 178.980469 L 785.5 185.125 C 786.421875 186.046875 786.726562 187.273438 786.113281 187.890625 L 775.058594 198.945312 L 777.820312 203.246094 C 781.199219 208.464844 783.65625 214.609375 784.886719 220.75 L 785.804688 225.667969 L 801.46875 225.667969 C 802.085938 225.667969 803.003906 226.585938 803.003906 228.125 L 803.003906 236.722656 C 803.003906 238.257812 802.085938 239.179688 801.46875 239.179688 L 785.804688 239.179688 L 783.964844 244.09375 C 782.734375 250.238281 780.277344 256.070312 776.898438 261.601562 L 774.136719 265.898438 L 785.191406 276.957031 C 785.5 277.265625 785.5 278.492188 784.578125 279.722656 L 778.433594 285.863281 C 777.515625 286.785156 776.285156 287.09375 775.671875 286.476562 L 764.613281 275.421875 L 760.316406 278.1875 C 755.09375 281.5625 749.257812 284.019531 742.808594 285.25 L 737.894531 286.171875 L 737.894531 302.140625 C 737.894531 302.757812 736.972656 303.675781 735.4375 303.675781 L 726.835938 303.675781 C 725.300781 303.675781 724.378906 302.757812 724.378906 302.140625 L 724.378906 286.171875 L 720.386719 284.941406 C 713.9375 283.714844 708.101562 281.257812 702.878906 277.878906 Z M 702.878906 277.878906" stroke-linecap="round" />
</g>
<g transform="matrix(1.33 0 0 1.33 500.36 -173.06)"  >
<path style="stroke: none; stroke-width: 1; stroke-dasharray: none; stroke-linecap: butt; stroke-dashoffset: 0; stroke-linejoin: miter; stroke-miterlimit: 4; fill: rgb(58,42,121); fill-rule: nonzero; opacity: 1;" vector-effect="non-scaling-stroke"  transform=" translate(-731.75, -232.73)" d="M 764 232.730469 C 764 214.917969 749.566406 200.480469 731.75 200.480469 C 713.9375 200.480469 699.503906 214.917969 699.503906 232.730469 C 699.503906 250.542969 713.9375 264.980469 731.75 264.980469 C 749.566406 264.980469 764 250.542969 764 232.730469 Z M 711.789062 232.730469 C 711.789062 221.671875 720.695312 212.765625 731.75 212.765625 C 742.808594 212.765625 751.714844 221.671875 751.714844 232.730469 C 751.714844 243.785156 742.808594 252.695312 731.75 252.695312 C 720.695312 252.695312 711.789062 243.785156 711.789062 232.730469 Z M 711.789062 232.730469" stroke-linecap="round" />
</g>
<g transform="matrix(1.33 0 0 1.33 508.55 -377.81)" clip-path="url(#CLIPPATH_4)"  >
<clipPath id="CLIPPATH_4" >
	<path transform="matrix(1 0 0 1 0.11 0.24) translate(-738, -79.4)" id="e9f1374ba5" d="M 731 63.808594 L 745 63.808594 L 745 95 L 731 95 Z M 731 63.808594" stroke-linecap="round" />
</clipPath>
<path style="stroke: none; stroke-width: 1; stroke-dasharray: none; stroke-linecap: butt; stroke-dashoffset: 0; stroke-linejoin: miter; stroke-miterlimit: 4; fill: rgb(58,42,121); fill-rule: nonzero; opacity: 1;" vector-effect="non-scaling-stroke"  transform=" translate(-737.89, -79.16)" d="M 737.894531 94.519531 C 741.273438 94.519531 744.035156 91.757812 744.035156 88.378906 L 744.035156 69.949219 C 744.035156 66.570312 741.273438 63.808594 737.894531 63.808594 C 734.515625 63.808594 731.75 66.570312 731.75 69.949219 L 731.75 88.378906 C 731.75 91.757812 734.515625 94.519531 737.894531 94.519531 Z M 737.894531 94.519531" stroke-linecap="round" />
</g>
<g transform="matrix(1.33 0 0 1.33 416.01 -359.46)"  >
<path style="stroke: none; stroke-width: 1; stroke-dasharray: none; stroke-linecap: butt; stroke-dashoffset: 0; stroke-linejoin: miter; stroke-miterlimit: 4; fill: rgb(58,42,121); fill-rule: nonzero; opacity: 1;" vector-effect="non-scaling-stroke"  transform=" translate(-668.48, -92.93)" d="M 666.332031 103.734375 C 667.253906 106.191406 669.710938 107.421875 671.859375 107.421875 C 672.78125 107.421875 673.394531 107.421875 674.316406 106.804688 C 677.390625 105.578125 678.925781 101.890625 677.695312 98.820312 L 670.632812 82.234375 C 669.402344 79.164062 665.71875 77.628906 662.648438 78.855469 C 659.574219 80.085938 658.039062 83.769531 659.269531 86.84375 Z M 666.332031 103.734375" stroke-linecap="round" />
</g>
<g transform="matrix(1.33 0 0 1.33 337.79 -306.97)"  >
<path style="stroke: none; stroke-width: 1; stroke-dasharray: none; stroke-linecap: butt; stroke-dashoffset: 0; stroke-linejoin: miter; stroke-miterlimit: 4; fill: rgb(58,42,121); fill-rule: nonzero; opacity: 1;" vector-effect="non-scaling-stroke"  transform=" translate(-609.82, -132.3)" d="M 611.96875 143.046875 C 613.199219 144.277344 614.734375 144.890625 616.269531 144.890625 C 617.804688 144.890625 619.339844 144.277344 620.570312 143.046875 C 623.027344 140.589844 623.027344 136.90625 620.570312 134.449219 L 607.667969 121.546875 C 605.210938 119.089844 601.527344 119.089844 599.070312 121.546875 C 596.613281 124.003906 596.613281 127.691406 599.070312 130.148438 Z M 611.96875 143.046875" stroke-linecap="round" />
</g>
<g transform="matrix(1.33 0 0 1.33 285.37 -228.62)"  >
<path style="stroke: none; stroke-width: 1; stroke-dasharray: none; stroke-linecap: butt; stroke-dashoffset: 0; stroke-linejoin: miter; stroke-miterlimit: 4; fill: rgb(58,42,121); fill-rule: nonzero; opacity: 1;" vector-effect="non-scaling-stroke"  transform=" translate(-570.51, -191.06)" d="M 581.257812 188.808594 L 564.363281 181.746094 C 561.292969 180.519531 557.605469 182.054688 556.378906 185.125 C 555.148438 188.195312 556.6875 191.882812 559.757812 193.109375 L 576.648438 200.175781 C 577.570312 200.480469 578.183594 200.789062 579.105469 200.789062 C 581.5625 200.789062 583.714844 199.253906 584.636719 197.101562 C 585.863281 193.722656 584.328125 190.039062 581.257812 188.808594 Z M 581.257812 188.808594" stroke-linecap="round" />
</g>
<g transform="matrix(1.33 0 0 1.33 266.94 -136.2)" clip-path="url(#CLIPPATH_5)"  >
<clipPath id="CLIPPATH_5" >
	<path transform="matrix(1 0 0 1 0.48 0.13) translate(-557.16, -260.5)" id="6609" d="M 541.328125 254 L 573 254 L 573 267 L 541.328125 267 Z M 541.328125 254" stroke-linecap="round" />
</clipPath>
<path style="stroke: none; stroke-width: 1; stroke-dasharray: none; stroke-linecap: butt; stroke-dashoffset: 0; stroke-linejoin: miter; stroke-miterlimit: 4; fill: rgb(58,42,121); fill-rule: nonzero; opacity: 1;" vector-effect="non-scaling-stroke"  transform=" translate(-556.69, -260.37)" d="M 572.042969 260.371094 C 572.042969 256.992188 569.277344 254.230469 565.898438 254.230469 L 547.472656 254.230469 C 544.09375 254.230469 541.328125 256.992188 541.328125 260.371094 C 541.328125 263.75 544.09375 266.515625 547.472656 266.515625 L 565.898438 266.515625 C 569.277344 266.515625 572.042969 263.75 572.042969 260.371094 Z M 572.042969 260.371094" stroke-linecap="round" />
</g>
<g transform="matrix(1.33 0 0 1.33 285.37 -43.76)"  >
<path style="stroke: none; stroke-width: 1; stroke-dasharray: none; stroke-linecap: butt; stroke-dashoffset: 0; stroke-linejoin: miter; stroke-miterlimit: 4; fill: rgb(58,42,121); fill-rule: nonzero; opacity: 1;" vector-effect="non-scaling-stroke"  transform=" translate(-570.51, -329.7)" d="M 576.648438 320.570312 L 559.757812 327.632812 C 556.6875 328.863281 555.148438 332.546875 556.378906 335.621094 C 557.300781 338.078125 559.757812 339.304688 561.90625 339.304688 C 562.828125 339.304688 563.441406 339.304688 564.363281 338.691406 L 581.257812 331.625 C 584.328125 330.398438 585.863281 326.710938 584.636719 323.640625 C 583.40625 320.570312 579.722656 319.339844 576.648438 320.570312 Z M 576.648438 320.570312" stroke-linecap="round" />
</g>
<g transform="matrix(1.33 0 0 1.33 731.85 -43.53)"  >
<path style="stroke: none; stroke-width: 1; stroke-dasharray: none; stroke-linecap: butt; stroke-dashoffset: 0; stroke-linejoin: miter; stroke-miterlimit: 4; fill: rgb(58,42,121); fill-rule: nonzero; opacity: 1;" vector-effect="non-scaling-stroke"  transform=" translate(-905.37, -329.88)" d="M 916.03125 327.632812 L 899.136719 320.570312 C 896.066406 319.339844 892.382812 320.875 891.152344 323.949219 C 889.925781 327.019531 891.460938 330.707031 894.53125 331.933594 L 911.421875 338.996094 C 912.34375 339.304688 912.960938 339.613281 913.878906 339.613281 C 916.335938 339.613281 918.488281 338.078125 919.410156 335.925781 C 920.945312 332.546875 919.410156 328.863281 916.03125 327.632812 Z M 916.03125 327.632812" stroke-linecap="round" />
</g>
<g transform="matrix(1.33 0 0 1.33 750.16 -136.2)" clip-path="url(#CLIPPATH_6)"  >
<clipPath id="CLIPPATH_6" >
	<path transform="matrix(1 0 0 1 -0.44 0.13) translate(-918.66, -260.5)" id="bf9c0a24d2" d="M 903 254 L 934.328125 254 L 934.328125 267 L 903 267 Z M 903 254" stroke-linecap="round" />
</clipPath>
<path style="stroke: none; stroke-width: 1; stroke-dasharray: none; stroke-linecap: butt; stroke-dashoffset: 0; stroke-linejoin: miter; stroke-miterlimit: 4; fill: rgb(58,42,121); fill-rule: nonzero; opacity: 1;" vector-effect="non-scaling-stroke"  transform=" translate(-919.1, -260.37)" d="M 928.316406 254.230469 L 909.886719 254.230469 C 906.507812 254.230469 903.746094 256.992188 903.746094 260.371094 C 903.746094 263.75 906.507812 266.515625 909.886719 266.515625 L 928.316406 266.515625 C 931.695312 266.515625 934.457031 263.75 934.457031 260.371094 C 934.457031 256.992188 931.695312 254.230469 928.316406 254.230469 Z M 928.316406 254.230469" stroke-linecap="round" />
</g>
<g transform="matrix(1.33 0 0 1.33 731.74 -228.62)"  >
<path style="stroke: none; stroke-width: 1; stroke-dasharray: none; stroke-linecap: butt; stroke-dashoffset: 0; stroke-linejoin: miter; stroke-miterlimit: 4; fill: rgb(58,42,121); fill-rule: nonzero; opacity: 1;" vector-effect="non-scaling-stroke"  transform=" translate(-905.28, -191.06)" d="M 896.679688 200.789062 C 897.601562 200.789062 898.214844 200.789062 899.136719 200.175781 L 916.03125 193.109375 C 919.101562 191.882812 920.636719 188.195312 919.410156 185.125 C 918.179688 182.054688 914.496094 180.519531 911.421875 181.746094 L 894.53125 188.808594 C 891.460938 190.039062 889.925781 193.722656 891.152344 196.796875 C 892.074219 199.253906 894.53125 200.789062 896.679688 200.789062 Z M 896.679688 200.789062" stroke-linecap="round" />
</g>
<g transform="matrix(1.33 0 0 1.33 679.32 -307.3)"  >
<path style="stroke: none; stroke-width: 1; stroke-dasharray: none; stroke-linecap: butt; stroke-dashoffset: 0; stroke-linejoin: miter; stroke-miterlimit: 4; fill: rgb(58,42,121); fill-rule: nonzero; opacity: 1;" vector-effect="non-scaling-stroke"  transform=" translate(-865.97, -132.05)" d="M 868.117188 121.242188 L 855.21875 134.140625 C 852.761719 136.597656 852.761719 140.285156 855.21875 142.742188 C 856.445312 143.96875 857.984375 144.582031 859.519531 144.582031 C 861.054688 144.582031 862.589844 143.96875 863.816406 142.742188 L 876.71875 129.839844 C 879.175781 127.382812 879.175781 123.699219 876.71875 121.242188 C 874.261719 118.785156 870.574219 119.089844 868.117188 121.242188 Z M 868.117188 121.242188" stroke-linecap="round" />
</g>
<g transform="matrix(1.33 0 0 1.33 601.07 -359.05)"  >
<path style="stroke: none; stroke-width: 1; stroke-dasharray: none; stroke-linecap: butt; stroke-dashoffset: 0; stroke-linejoin: miter; stroke-miterlimit: 4; fill: rgb(58,42,121); fill-rule: nonzero; opacity: 1;" vector-effect="non-scaling-stroke"  transform=" translate(-807.28, -93.23)" d="M 801.46875 107.113281 C 802.390625 107.421875 803.003906 107.726562 803.925781 107.726562 C 806.382812 107.726562 808.535156 106.191406 809.457031 104.042969 L 816.519531 87.148438 C 817.75 84.078125 816.210938 80.394531 813.140625 79.164062 C 810.070312 77.9375 806.382812 79.472656 805.15625 82.542969 L 798.089844 99.433594 C 796.863281 102.199219 798.089844 105.882812 801.46875 107.113281 Z M 801.46875 107.113281" stroke-linecap="round" />
</g>
<g transform="matrix(1.33 0 0 1.33 -289.35 679.13)"  >
<path style="stroke: none; stroke-width: 1; stroke-dasharray: none; stroke-linecap: butt; stroke-dashoffset: 0; stroke-linejoin: miter; stroke-miterlimit: 4; fill: rgb(58,42,121); fill-rule: nonzero; opacity: 1;" vector-effect="non-scaling-stroke"  transform=" translate(-139.46, -871.87)" d="M 139.460938 863.820312 C 135.019531 863.820312 131.414062 867.425781 131.414062 871.871094 C 131.414062 876.3125 135.019531 879.917969 139.460938 879.917969 C 143.90625 879.917969 147.511719 876.3125 147.511719 871.871094 C 147.511719 867.425781 143.90625 863.820312 139.460938 863.820312" stroke-linecap="round" />
</g>
<g transform="matrix(1.33 0 0 1.33 -218.64 378.73)" clip-path="url(#CLIPPATH_7)"  >
<clipPath id="CLIPPATH_7" >
	<path transform="matrix(1 0 0 1 0 0.44) translate(-192.5, -647.02)" d="M 161 616.035156 L 224 616.035156 L 224 678 L 161 678 Z M 161 616.035156" stroke-linecap="round" />
</clipPath>
<path style="stroke: none; stroke-width: 1; stroke-dasharray: none; stroke-linecap: butt; stroke-dashoffset: 0; stroke-linejoin: miter; stroke-miterlimit: 4; fill: rgb(58,42,121); fill-rule: nonzero; opacity: 1;" vector-effect="non-scaling-stroke"  transform=" translate(-192.5, -646.57)" d="M 223.035156 646.574219 C 223.035156 663.441406 209.363281 677.113281 192.496094 677.113281 C 175.628906 677.113281 161.957031 663.441406 161.957031 646.574219 C 161.957031 629.707031 175.628906 616.035156 192.496094 616.035156 C 209.363281 616.035156 223.035156 629.707031 223.035156 646.574219" stroke-linecap="round" />
</g>
<g transform="matrix(1.33 0 0 1.33 -226.8 468.98)"  >
<path style="stroke: none; stroke-width: 1; stroke-dasharray: none; stroke-linecap: butt; stroke-dashoffset: 0; stroke-linejoin: miter; stroke-miterlimit: 4; fill: rgb(58,42,121); fill-rule: nonzero; opacity: 1;" vector-effect="non-scaling-stroke"  transform=" translate(-186.38, -714.26)" d="M 236.003906 708.003906 C 240.789062 704.800781 241.15625 697.933594 236.753906 694.222656 C 229.289062 687.925781 219.660156 684.121094 209.1875 684.121094 L 175.804688 684.121094 C 152.21875 684.121094 132.921875 703.417969 132.921875 727.003906 C 132.921875 736.570312 140.746094 744.398438 150.3125 744.398438 L 204.785156 744.398438 C 208.523438 744.398438 211.835938 741.984375 212.980469 738.429688 C 215.746094 729.800781 220.558594 721.882812 227.171875 715.265625 C 229.910156 712.53125 232.867188 710.105469 236.003906 708.003906" stroke-linecap="round" />
</g>
<g transform="matrix(1.33 0 0 1.33 -92.99 505.49)"  >
<path style="stroke: none; stroke-width: 1; stroke-dasharray: none; stroke-linecap: butt; stroke-dashoffset: 0; stroke-linejoin: miter; stroke-miterlimit: 4; fill: rgb(58,42,121); fill-rule: nonzero; opacity: 1;" vector-effect="non-scaling-stroke"  transform=" translate(-286.73, -741.64)" d="M 305.550781 707.667969 L 267.921875 707.667969 C 241.328125 707.667969 219.574219 729.421875 219.574219 756.011719 C 219.574219 766.796875 228.398438 775.617188 239.179688 775.617188 L 334.289062 775.617188 C 345.074219 775.617188 353.894531 766.796875 353.894531 756.011719 C 353.894531 729.421875 332.140625 707.667969 305.550781 707.667969" stroke-linecap="round" />
</g>
<g transform="matrix(1.33 0 0 1.33 -92.99 403.75)"  >
<path style="stroke: none; stroke-width: 1; stroke-dasharray: none; stroke-linecap: butt; stroke-dashoffset: 0; stroke-linejoin: miter; stroke-miterlimit: 4; fill: rgb(58,42,121); fill-rule: nonzero; opacity: 1;" vector-effect="non-scaling-stroke"  transform=" translate(-286.73, -665.34)" d="M 321.164062 665.339844 C 321.164062 684.355469 305.75 699.765625 286.734375 699.765625 C 267.722656 699.765625 252.304688 684.355469 252.304688 665.339844 C 252.304688 646.324219 267.722656 630.914062 286.734375 630.914062 C 305.75 630.914062 321.164062 646.324219 321.164062 665.339844" stroke-linecap="round" />
</g>
<g transform="matrix(1.49 0 0 1.49 563.23 822.01)" clip-path="url(#CLIPPATH_8)"  >
<clipPath id="CLIPPATH_8" >
	<path transform="matrix(1 0 0 1 -0.04 -0.36) translate(-770.79, -942.13)" id="63" d="M 589.667969 936 L 951.917969 936 L 951.917969 948.257812 L 589.667969 948.257812 Z M 589.667969 936" stroke-linecap="round" />
</clipPath>
<path style="stroke: none; stroke-width: 1; stroke-dasharray: none; stroke-linecap: butt; stroke-dashoffset: 0; stroke-linejoin: miter; stroke-miterlimit: 4; fill: rgb(58,42,121); fill-rule: nonzero; opacity: 1;" vector-effect="non-scaling-stroke"  transform=" translate(-770.83, -942.48)" d="M 589.667969 948.328125 L 951.988281 948.328125 L 951.988281 936.640625 L 589.667969 936.640625 L 589.667969 948.328125" stroke-linecap="round" />
</g>
<g transform="matrix(1.49 0 0 1.49 634.54 366.37)" clip-path="url(#CLIPPATH_9)"  >
<clipPath id="CLIPPATH_9" >
	<path transform="matrix(1 0 0 1 0.32 0.23) translate(-819, -637)" id="f4eea58079" d="M 718 586.007812 L 920 586.007812 L 920 688 L 718 688 Z M 718 586.007812" stroke-linecap="round" />
</clipPath>
<path style="stroke: none; stroke-width: 1; stroke-dasharray: none; stroke-linecap: butt; stroke-dashoffset: 0; stroke-linejoin: miter; stroke-miterlimit: 4; fill: rgb(58,42,121); fill-rule: nonzero; opacity: 1;" vector-effect="non-scaling-stroke"  transform=" translate(-818.68, -636.78)" d="M 729.921875 602.671875 C 743.25 599.363281 756.992188 597.695312 770.828125 597.695312 C 814.566406 597.695312 856.113281 614.335938 887.773438 644.558594 L 891.90625 648.507812 L 896.21875 644.195312 L 903.046875 671.472656 L 875.765625 664.648438 L 883.664062 656.726562 L 879.328125 652.617188 C 849.902344 624.746094 811.371094 609.382812 770.828125 609.382812 C 756.949219 609.382812 743.207031 611.1875 729.921875 614.722656 Z M 731.496094 626.414062 C 744.234375 622.875 757.472656 621.070312 770.828125 621.070312 C 806.371094 621.070312 840.222656 633.808594 866.839844 657.046875 L 852.894531 670.996094 L 919.117188 687.542969 L 902.566406 621.320312 L 891.652344 632.234375 C 858.347656 602.375 815.683594 586.007812 770.828125 586.007812 C 754.4375 586.007812 738.183594 588.199219 722.523438 592.511719 L 718.234375 593.699219 L 718.234375 627.1875 L 730.195312 626.640625 L 731.496094 626.414062" stroke-linecap="round" />
</g>
<g transform="matrix(1.49 0 0 1.49 368.89 489.4)" clip-path="url(#CLIPPATH_10)"  >
<clipPath id="CLIPPATH_10" >
	<path transform="matrix(1 0 0 1 0.4 -0.32) translate(-640.83, -719)" id="Infinity" d="M 589.667969 618 L 692 618 L 692 820 L 589.667969 820 Z M 589.667969 618" stroke-linecap="round" />
</clipPath>
<path style="stroke: none; stroke-width: 1; stroke-dasharray: none; stroke-linecap: butt; stroke-dashoffset: 0; stroke-linejoin: miter; stroke-miterlimit: 4; fill: rgb(58,42,121); fill-rule: nonzero; opacity: 1;" vector-effect="non-scaling-stroke"  transform=" translate(-640.44, -719.32)" d="M 648.21875 650.222656 L 652.167969 646.089844 L 647.855469 641.773438 L 675.132812 634.949219 L 668.308594 662.230469 L 660.386719 654.308594 L 656.277344 658.667969 C 628.382812 688.09375 613.042969 726.625 613.042969 767.167969 C 613.042969 781.046875 614.847656 794.789062 618.40625 808.074219 L 606.332031 808.074219 C 603.019531 794.742188 601.355469 781 601.355469 767.167969 C 601.355469 723.429688 617.996094 681.882812 648.21875 650.222656 Z M 596.171875 815.46875 L 597.359375 819.761719 L 630.847656 819.761719 L 630.300781 807.800781 L 630.09375 806.5 C 626.535156 793.761719 624.730469 780.523438 624.730469 767.167969 C 624.730469 731.648438 637.46875 697.769531 660.707031 671.15625 L 674.65625 685.101562 L 691.203125 618.878906 L 624.980469 635.429688 L 635.894531 646.339844 C 606.035156 679.644531 589.667969 722.3125 589.667969 767.167969 C 589.667969 783.558594 591.859375 799.8125 596.171875 815.46875" stroke-linecap="round" />
</g>
<g transform="matrix(1.49 0 0 1.49 757.57 605.89)" clip-path="url(#CLIPPATH_11)"  >
<clipPath id="CLIPPATH_11" >
	<path transform="matrix(1 0 0 1 -0.26 0.02) translate(-900.96, -797.5)" id="cf772c8181" d="M 850 697 L 951.917969 697 L 951.917969 898 L 850 898 Z M 850 697" stroke-linecap="round" />
</clipPath>
<path style="stroke: none; stroke-width: 1; stroke-dasharray: none; stroke-linecap: butt; stroke-dashoffset: 0; stroke-linejoin: miter; stroke-miterlimit: 4; fill: rgb(58,42,121); fill-rule: nonzero; opacity: 1;" vector-effect="non-scaling-stroke"  transform=" translate(-901.22, -797.48)" d="M 935.324219 708.730469 C 938.632812 722.058594 940.300781 735.800781 940.300781 749.636719 C 940.300781 793.375 923.660156 834.917969 893.433594 866.582031 L 889.484375 870.714844 L 893.800781 875.027344 L 866.519531 881.851562 L 873.347656 854.574219 L 881.265625 862.496094 L 885.375 858.136719 C 913.25 828.710938 928.613281 790.175781 928.613281 749.636719 C 928.613281 735.757812 926.808594 722.015625 923.269531 708.730469 Z M 911.355469 709.003906 L 911.582031 710.304688 C 915.121094 723.042969 916.925781 736.28125 916.925781 749.636719 C 916.925781 785.15625 904.1875 819.03125 880.949219 845.648438 L 867 831.699219 L 850.449219 897.925781 L 916.671875 881.375 L 905.761719 870.460938 C 935.621094 837.15625 951.988281 794.492188 951.988281 749.636719 C 951.988281 733.246094 949.796875 716.992188 945.480469 701.332031 L 944.292969 697.039062 L 910.804688 697.039062 L 911.355469 709.003906" stroke-linecap="round" />
</g>
<g transform="matrix(1.49 0 0 1.49 484.84 630.39)"  >
<path style="stroke: none; stroke-width: 1; stroke-dasharray: none; stroke-linecap: butt; stroke-dashoffset: 0; stroke-linejoin: miter; stroke-miterlimit: 4; fill: rgb(58,42,121); fill-rule: nonzero; opacity: 1;" vector-effect="non-scaling-stroke"  transform=" translate(-718.23, -813.92)" d="M 712.386719 808.074219 L 712.386719 819.761719 L 724.078125 819.761719 L 724.078125 808.074219 L 712.386719 808.074219" stroke-linecap="round" />
</g>
<g transform="matrix(1.49 0 0 1.49 415.16 630.39)"  >
<path style="stroke: none; stroke-width: 1; stroke-dasharray: none; stroke-linecap: butt; stroke-dashoffset: 0; stroke-linejoin: miter; stroke-miterlimit: 4; fill: rgb(58,42,121); fill-rule: nonzero; opacity: 1;" vector-effect="non-scaling-stroke"  transform=" translate(-671.48, -813.92)" d="M 665.636719 819.761719 L 677.324219 819.761719 L 677.324219 808.074219 L 665.636719 808.074219 L 665.636719 819.761719" stroke-linecap="round" />
</g>
<g transform="matrix(1.49 0 0 1.49 450 630.39)"  >
<path style="stroke: none; stroke-width: 1; stroke-dasharray: none; stroke-linecap: butt; stroke-dashoffset: 0; stroke-linejoin: miter; stroke-miterlimit: 4; fill: rgb(58,42,121); fill-rule: nonzero; opacity: 1;" vector-effect="non-scaling-stroke"  transform=" translate(-694.86, -813.92)" d="M 689.011719 819.761719 L 700.699219 819.761719 L 700.699219 808.074219 L 689.011719 808.074219 L 689.011719 819.761719" stroke-linecap="round" />
</g>
<g transform="matrix(1.49 0 0 1.49 450 665.23)"  >
<path style="stroke: none; stroke-width: 1; stroke-dasharray: none; stroke-linecap: butt; stroke-dashoffset: 0; stroke-linejoin: miter; stroke-miterlimit: 4; fill: rgb(58,42,121); fill-rule: nonzero; opacity: 1;" vector-effect="non-scaling-stroke"  transform=" translate(-694.86, -837.29)" d="M 689.011719 843.136719 L 700.699219 843.136719 L 700.699219 831.449219 L 689.011719 831.449219 L 689.011719 843.136719" stroke-linecap="round" />
</g>
<g transform="matrix(1.49 0 0 1.49 415.16 665.23)"  >
<path style="stroke: none; stroke-width: 1; stroke-dasharray: none; stroke-linecap: butt; stroke-dashoffset: 0; stroke-linejoin: miter; stroke-miterlimit: 4; fill: rgb(58,42,121); fill-rule: nonzero; opacity: 1;" vector-effect="non-scaling-stroke"  transform=" translate(-671.48, -837.29)" d="M 665.636719 843.136719 L 677.324219 843.136719 L 677.324219 831.449219 L 665.636719 831.449219 L 665.636719 843.136719" stroke-linecap="round" />
</g>
<g transform="matrix(1.49 0 0 1.49 484.84 665.23)"  >
<path style="stroke: none; stroke-width: 1; stroke-dasharray: none; stroke-linecap: butt; stroke-dashoffset: 0; stroke-linejoin: miter; stroke-miterlimit: 4; fill: rgb(58,42,121); fill-rule: nonzero; opacity: 1;" vector-effect="non-scaling-stroke"  transform=" translate(-718.23, -837.29)" d="M 712.386719 843.136719 L 724.078125 843.136719 L 724.078125 831.449219 L 712.386719 831.449219 L 712.386719 843.136719" stroke-linecap="round" />
</g>
<g transform="matrix(1.49 0 0 1.49 450 700.07)"  >
<path style="stroke: none; stroke-width: 1; stroke-dasharray: none; stroke-linecap: butt; stroke-dashoffset: 0; stroke-linejoin: miter; stroke-miterlimit: 4; fill: rgb(58,42,121); fill-rule: nonzero; opacity: 1;" vector-effect="non-scaling-stroke"  transform=" translate(-694.86, -860.67)" d="M 689.011719 866.511719 L 700.699219 866.511719 L 700.699219 854.824219 L 689.011719 854.824219 L 689.011719 866.511719" stroke-linecap="round" />
</g>
<g transform="matrix(1.49 0 0 1.49 484.84 700.07)"  >
<path style="stroke: none; stroke-width: 1; stroke-dasharray: none; stroke-linecap: butt; stroke-dashoffset: 0; stroke-linejoin: miter; stroke-miterlimit: 4; fill: rgb(58,42,121); fill-rule: nonzero; opacity: 1;" vector-effect="non-scaling-stroke"  transform=" translate(-718.23, -860.67)" d="M 712.386719 866.511719 L 724.078125 866.511719 L 724.078125 854.824219 L 712.386719 854.824219 L 712.386719 866.511719" stroke-linecap="round" />
</g>
<g transform="matrix(1.49 0 0 1.49 415.16 700.07)"  >
<path style="stroke: none; stroke-width: 1; stroke-dasharray: none; stroke-linecap: butt; stroke-dashoffset: 0; stroke-linejoin: miter; stroke-miterlimit: 4; fill: rgb(58,42,121); fill-rule: nonzero; opacity: 1;" vector-effect="non-scaling-stroke"  transform=" translate(-671.48, -860.67)" d="M 665.636719 866.511719 L 677.324219 866.511719 L 677.324219 854.824219 L 665.636719 854.824219 L 665.636719 866.511719" stroke-linecap="round" />
</g>
<g transform="matrix(1.49 0 0 1.49 415.16 734.91)"  >
<path style="stroke: none; stroke-width: 1; stroke-dasharray: none; stroke-linecap: butt; stroke-dashoffset: 0; stroke-linejoin: miter; stroke-miterlimit: 4; fill: rgb(58,42,121); fill-rule: nonzero; opacity: 1;" vector-effect="non-scaling-stroke"  transform=" translate(-671.48, -884.04)" d="M 665.636719 889.890625 L 677.324219 889.890625 L 677.324219 878.199219 L 665.636719 878.199219 L 665.636719 889.890625" stroke-linecap="round" />
</g>
<g transform="matrix(1.49 0 0 1.49 484.84 734.91)"  >
<path style="stroke: none; stroke-width: 1; stroke-dasharray: none; stroke-linecap: butt; stroke-dashoffset: 0; stroke-linejoin: miter; stroke-miterlimit: 4; fill: rgb(58,42,121); fill-rule: nonzero; opacity: 1;" vector-effect="non-scaling-stroke"  transform=" translate(-718.23, -884.04)" d="M 712.386719 889.890625 L 724.078125 889.890625 L 724.078125 878.199219 L 712.386719 878.199219 L 712.386719 889.890625" stroke-linecap="round" />
</g>
<g transform="matrix(1.49 0 0 1.49 450 734.91)"  >
<path style="stroke: none; stroke-width: 1; stroke-dasharray: none; stroke-linecap: butt; stroke-dashoffset: 0; stroke-linejoin: miter; stroke-miterlimit: 4; fill: rgb(58,42,121); fill-rule: nonzero; opacity: 1;" vector-effect="non-scaling-stroke"  transform=" translate(-694.86, -884.04)" d="M 689.011719 889.890625 L 700.699219 889.890625 L 700.699219 878.199219 L 689.011719 878.199219 L 689.011719 889.890625" stroke-linecap="round" />
</g>
<g transform="matrix(1.49 0 0 1.49 432.58 560.71)"  >
<path style="stroke: none; stroke-width: 1; stroke-dasharray: none; stroke-linecap: butt; stroke-dashoffset: 0; stroke-linejoin: miter; stroke-miterlimit: 4; fill: rgb(58,42,121); fill-rule: nonzero; opacity: 1;" vector-effect="non-scaling-stroke"  transform=" translate(-683.17, -767.17)" d="M 677.324219 773.011719 L 689.011719 773.011719 L 689.011719 761.324219 L 677.324219 761.324219 L 677.324219 773.011719" stroke-linecap="round" />
</g>
<g transform="matrix(1.49 0 0 1.49 502.26 560.71)"  >
<path style="stroke: none; stroke-width: 1; stroke-dasharray: none; stroke-linecap: butt; stroke-dashoffset: 0; stroke-linejoin: miter; stroke-miterlimit: 4; fill: rgb(58,42,121); fill-rule: nonzero; opacity: 1;" vector-effect="non-scaling-stroke"  transform=" translate(-729.92, -767.17)" d="M 724.078125 773.011719 L 735.765625 773.011719 L 735.765625 761.324219 L 724.078125 761.324219 L 724.078125 773.011719" stroke-linecap="round" />
</g>
<g transform="matrix(1.49 0 0 1.49 467.42 560.71)"  >
<path style="stroke: none; stroke-width: 1; stroke-dasharray: none; stroke-linecap: butt; stroke-dashoffset: 0; stroke-linejoin: miter; stroke-miterlimit: 4; fill: rgb(58,42,121); fill-rule: nonzero; opacity: 1;" vector-effect="non-scaling-stroke"  transform=" translate(-706.54, -767.17)" d="M 700.699219 773.011719 L 712.386719 773.011719 L 712.386719 761.324219 L 700.699219 761.324219 L 700.699219 773.011719" stroke-linecap="round" />
</g>
<g transform="matrix(1.49 0 0 1.49 537.1 560.71)"  >
<path style="stroke: none; stroke-width: 1; stroke-dasharray: none; stroke-linecap: butt; stroke-dashoffset: 0; stroke-linejoin: miter; stroke-miterlimit: 4; fill: rgb(58,42,121); fill-rule: nonzero; opacity: 1;" vector-effect="non-scaling-stroke"  transform=" translate(-753.3, -767.17)" d="M 759.140625 761.324219 L 747.453125 761.324219 L 747.453125 773.011719 L 759.140625 773.011719 L 759.140625 761.324219" stroke-linecap="round" />
</g>
<g transform="matrix(1.49 0 0 1.49 502.26 525.87)"  >
<path style="stroke: none; stroke-width: 1; stroke-dasharray: none; stroke-linecap: butt; stroke-dashoffset: 0; stroke-linejoin: miter; stroke-miterlimit: 4; fill: rgb(58,42,121); fill-rule: nonzero; opacity: 1;" vector-effect="non-scaling-stroke"  transform=" translate(-729.92, -743.79)" d="M 724.078125 749.636719 L 735.765625 749.636719 L 735.765625 737.949219 L 724.078125 737.949219 L 724.078125 749.636719" stroke-linecap="round" />
</g>
<g transform="matrix(1.49 0 0 1.49 537.1 525.87)"  >
<path style="stroke: none; stroke-width: 1; stroke-dasharray: none; stroke-linecap: butt; stroke-dashoffset: 0; stroke-linejoin: miter; stroke-miterlimit: 4; fill: rgb(58,42,121); fill-rule: nonzero; opacity: 1;" vector-effect="non-scaling-stroke"  transform=" translate(-753.3, -743.79)" d="M 759.140625 737.949219 L 747.453125 737.949219 L 747.453125 749.636719 L 759.140625 749.636719 L 759.140625 737.949219" stroke-linecap="round" />
</g>
<g transform="matrix(1.49 0 0 1.49 467.42 525.87)"  >
<path style="stroke: none; stroke-width: 1; stroke-dasharray: none; stroke-linecap: butt; stroke-dashoffset: 0; stroke-linejoin: miter; stroke-miterlimit: 4; fill: rgb(58,42,121); fill-rule: nonzero; opacity: 1;" vector-effect="non-scaling-stroke"  transform=" translate(-706.54, -743.79)" d="M 700.699219 749.636719 L 712.386719 749.636719 L 712.386719 737.949219 L 700.699219 737.949219 L 700.699219 749.636719" stroke-linecap="round" />
</g>
<g transform="matrix(1.49 0 0 1.49 432.58 525.87)"  >
<path style="stroke: none; stroke-width: 1; stroke-dasharray: none; stroke-linecap: butt; stroke-dashoffset: 0; stroke-linejoin: miter; stroke-miterlimit: 4; fill: rgb(58,42,121); fill-rule: nonzero; opacity: 1;" vector-effect="non-scaling-stroke"  transform=" translate(-683.17, -743.79)" d="M 677.324219 749.636719 L 689.011719 749.636719 L 689.011719 737.949219 L 677.324219 737.949219 L 677.324219 749.636719" stroke-linecap="round" />
</g>
<g transform="matrix(1.49 0 0 1.49 432.58 491.03)"  >
<path style="stroke: none; stroke-width: 1; stroke-dasharray: none; stroke-linecap: butt; stroke-dashoffset: 0; stroke-linejoin: miter; stroke-miterlimit: 4; fill: rgb(58,42,121); fill-rule: nonzero; opacity: 1;" vector-effect="non-scaling-stroke"  transform=" translate(-683.17, -720.42)" d="M 677.324219 726.261719 L 689.011719 726.261719 L 689.011719 714.574219 L 677.324219 714.574219 L 677.324219 726.261719" stroke-linecap="round" />
</g>
<g transform="matrix(1.49 0 0 1.49 502.26 491.03)"  >
<path style="stroke: none; stroke-width: 1; stroke-dasharray: none; stroke-linecap: butt; stroke-dashoffset: 0; stroke-linejoin: miter; stroke-miterlimit: 4; fill: rgb(58,42,121); fill-rule: nonzero; opacity: 1;" vector-effect="non-scaling-stroke"  transform=" translate(-729.92, -720.42)" d="M 724.078125 726.261719 L 735.765625 726.261719 L 735.765625 714.574219 L 724.078125 714.574219 L 724.078125 726.261719" stroke-linecap="round" />
</g>
<g transform="matrix(1.49 0 0 1.49 467.42 491.03)"  >
<path style="stroke: none; stroke-width: 1; stroke-dasharray: none; stroke-linecap: butt; stroke-dashoffset: 0; stroke-linejoin: miter; stroke-miterlimit: 4; fill: rgb(58,42,121); fill-rule: nonzero; opacity: 1;" vector-effect="non-scaling-stroke"  transform=" translate(-706.54, -720.42)" d="M 700.699219 726.261719 L 712.386719 726.261719 L 712.386719 714.574219 L 700.699219 714.574219 L 700.699219 726.261719" stroke-linecap="round" />
</g>
<g transform="matrix(1.49 0 0 1.49 537.1 491.03)"  >
<path style="stroke: none; stroke-width: 1; stroke-dasharray: none; stroke-linecap: butt; stroke-dashoffset: 0; stroke-linejoin: miter; stroke-miterlimit: 4; fill: rgb(58,42,121); fill-rule: nonzero; opacity: 1;" vector-effect="non-scaling-stroke"  transform=" translate(-753.3, -720.42)" d="M 759.140625 714.574219 L 747.453125 714.574219 L 747.453125 726.261719 L 759.140625 726.261719 L 759.140625 714.574219" stroke-linecap="round" />
</g>
<g transform="matrix(1.49 0 0 1.49 563.23 612.97)" clip-path="url(#CLIPPATH_12)"  >
<clipPath id="CLIPPATH_12" >
	<path transform="matrix(1 0 0 1 -0.04 0.27) translate(-770.79, -802.5)" id="cc5b6fa74f" d="M 589.667969 691 L 951.917969 691 L 951.917969 914 L 589.667969 914 Z M 589.667969 691" stroke-linecap="round" />
</clipPath>
<path style="stroke: none; stroke-width: 1; stroke-dasharray: none; stroke-linecap: butt; stroke-dashoffset: 0; stroke-linejoin: miter; stroke-miterlimit: 4; fill: rgb(58,42,121); fill-rule: nonzero; opacity: 1;" vector-effect="non-scaling-stroke"  transform=" translate(-770.83, -802.23)" d="M 653.949219 796.386719 L 735.765625 796.386719 L 735.765625 901.578125 L 653.949219 901.578125 Z M 665.636719 702.886719 L 770.828125 702.886719 L 770.828125 901.578125 L 747.453125 901.578125 L 747.453125 784.699219 L 665.636719 784.699219 Z M 811.734375 749.636719 L 829.265625 749.636719 L 829.265625 773.652344 C 821.824219 766.050781 811.484375 761.324219 800.046875 761.324219 L 782.515625 761.324219 L 782.515625 737.308594 C 789.957031 744.910156 800.296875 749.636719 811.734375 749.636719 Z M 800.046875 714.574219 C 814.152344 714.574219 825.957031 724.617188 828.671875 737.949219 L 811.734375 737.949219 C 797.628906 737.949219 785.824219 727.902344 783.109375 714.574219 Z M 783.109375 773.011719 L 800.046875 773.011719 C 814.152344 773.011719 825.957031 783.054688 828.671875 796.386719 L 811.734375 796.386719 C 797.628906 796.386719 785.824219 786.34375 783.109375 773.011719 Z M 829.265625 901.578125 L 782.515625 901.578125 L 782.515625 795.746094 C 789.957031 803.347656 800.296875 808.074219 811.734375 808.074219 L 829.265625 808.074219 Z M 870.171875 737.949219 L 887.113281 737.949219 C 884.394531 751.28125 872.59375 761.324219 858.484375 761.324219 L 841.546875 761.324219 C 844.265625 747.992188 856.066406 737.949219 870.171875 737.949219 Z M 870.171875 796.386719 L 887.113281 796.386719 C 884.394531 809.71875 872.59375 819.761719 858.484375 819.761719 L 841.546875 819.761719 C 844.265625 806.429688 856.066406 796.386719 870.171875 796.386719 Z M 840.953125 831.449219 L 858.484375 831.449219 C 881.039062 831.449219 899.394531 813.097656 899.394531 790.542969 L 899.394531 784.699219 L 870.171875 784.699219 C 858.738281 784.699219 848.394531 789.425781 840.953125 797.027344 L 840.953125 773.011719 L 858.484375 773.011719 C 881.039062 773.011719 899.394531 754.65625 899.394531 732.105469 L 899.394531 726.261719 L 870.171875 726.261719 C 858.578125 726.261719 848.097656 731.144531 840.632812 738.929688 C 838.214844 718.679688 820.957031 702.886719 800.046875 702.886719 L 782.515625 702.886719 L 782.515625 691.195312 L 653.949219 691.195312 L 653.949219 784.699219 L 642.261719 784.699219 L 642.261719 901.578125 L 589.667969 901.578125 L 589.667969 913.265625 L 951.988281 913.265625 L 951.988281 901.578125 L 840.953125 901.578125 L 840.953125 831.449219" stroke-linecap="round" />
</g>
</svg>