<?xml version="1.0" encoding="UTF-8" standalone="no" ?>
<!DOCTYPE svg PUBLIC "-//W3C//DTD SVG 1.1//EN" "http://www.w3.org/Graphics/SVG/1.1/DTD/svg11.dtd">
<svg xmlns="http://www.w3.org/2000/svg" xmlns:xlink="http://www.w3.org/1999/xlink" version="1.1" width="1080" height="1080" viewBox="0 0 1080 1080" xml:space="preserve">
<desc>Created with Fabric.js 5.2.4</desc>
<defs>
</defs>
<g transform="matrix(1 0 0 1 540 540)" id="01cb80e0-e39e-4d3d-b7af-a3ab986d3f5f"  >
<rect style="stroke: none; stroke-width: 1; stroke-dasharray: none; stroke-linecap: butt; stroke-dashoffset: 0; stroke-linejoin: miter; stroke-miterlimit: 4; fill: rgb(255,255,255); fill-rule: nonzero; opacity: 1; visibility: hidden;" vector-effect="non-scaling-stroke"  x="-540" y="-540" rx="0" ry="0" width="1080" height="1080" />
</g>
<g transform="matrix(1 0 0 1 540 540)" id="5267bef7-8320-4d59-a9e8-c239efad0229"  >
</g>
<g transform="matrix(1.33 0 0 1.33 1151.05 752.83)" clip-path="url(#CLIPPATH_3)"  >
<clipPath id="CLIPPATH_3" >
	<path transform="matrix(1 0 0 1 0.21 -0.16) translate(-1178.5, -564.46)" id="d54afba86f" d="M 932 355 L 1425 355 L 1425 773.921875 L 932 773.921875 Z M 932 355" stroke-linecap="round" />
</clipPath>
<path style="stroke: none; stroke-width: 1; stroke-dasharray: none; stroke-linecap: butt; stroke-dashoffset: 0; stroke-linejoin: miter; stroke-miterlimit: 4; fill: rgb(58,42,121); fill-rule: nonzero; opacity: 1;" vector-effect="non-scaling-stroke"  transform=" translate(-1178.29, -564.62)" d="M 1423.792969 773.832031 C 1423.945312 773.832031 1424.078125 773.722656 1424.101562 773.566406 C 1424.125 773.398438 1424.007812 773.238281 1423.839844 773.210938 C 1320.238281 757.472656 1202.644531 697.070312 1101.207031 607.5 C 1055.164062 566.84375 1015.328125 522.386719 986.003906 478.929688 C 955.871094 434.28125 937.574219 391.664062 933.089844 355.6875 C 933.070312 355.515625 932.902344 355.398438 932.742188 355.417969 C 932.574219 355.4375 932.453125 355.59375 932.472656 355.765625 C 936.96875 391.839844 955.296875 434.550781 985.484375 479.28125 C 1014.839844 522.777344 1054.710938 567.277344 1100.792969 607.964844 C 1202.316406 697.617188 1320.03125 758.070312 1423.746094 773.828125 C 1423.761719 773.832031 1423.777344 773.832031 1423.792969 773.832031 Z M 1423.792969 773.832031" stroke-linecap="round" />
</g>
<g transform="matrix(1.33 0 0 1.33 1151.67 746.52)"  >
<path style="stroke: none; stroke-width: 1; stroke-dasharray: none; stroke-linecap: butt; stroke-dashoffset: 0; stroke-linejoin: miter; stroke-miterlimit: 4; fill: rgb(58,42,121); fill-rule: nonzero; opacity: 1;" vector-effect="non-scaling-stroke"  transform=" translate(-1178.75, -559.89)" d="M 1424.722656 764.347656 C 1424.878906 764.347656 1425.011719 764.230469 1425.03125 764.074219 C 1425.050781 763.902344 1424.929688 763.746094 1424.757812 763.726562 C 1343.902344 754.320312 1255.695312 718.960938 1176.382812 664.164062 C 1140.902344 639.609375 1107.109375 610.714844 1078.660156 580.601562 C 1049.476562 549.914062 1025.691406 519.433594 1003.832031 490.84375 C 974.96875 453.089844 940.84375 403.613281 933.089844 355.691406 C 933.0625 355.519531 932.898438 355.40625 932.734375 355.433594 C 932.5625 355.460938 932.449219 355.621094 932.476562 355.789062 C 940.25 403.847656 974.429688 453.410156 1003.335938 491.222656 C 1025.207031 519.824219 1049 550.320312 1078.207031 581.03125 C 1106.683594 611.171875 1140.511719 640.097656 1176.027344 664.675781 C 1255.425781 719.53125 1343.730469 754.925781 1424.683594 764.347656 C 1424.699219 764.347656 1424.710938 764.347656 1424.722656 764.347656 Z M 1424.722656 764.347656" stroke-linecap="round" />
</g>
<g transform="matrix(1.33 0 0 1.33 1152.29 740.2)"  >
<path style="stroke: none; stroke-width: 1; stroke-dasharray: none; stroke-linecap: butt; stroke-dashoffset: 0; stroke-linejoin: miter; stroke-miterlimit: 4; fill: rgb(58,42,121); fill-rule: nonzero; opacity: 1;" vector-effect="non-scaling-stroke"  transform=" translate(-1179.22, -555.15)" d="M 1425.652344 754.863281 C 1425.8125 754.863281 1425.949219 754.738281 1425.960938 754.578125 C 1425.976562 754.40625 1425.847656 754.253906 1425.675781 754.242188 C 1341.261719 747.320312 1248.285156 712.183594 1170.585938 657.835938 C 1134.835938 632.75 1100.648438 601.65625 1074.320312 570.285156 C 1058.0625 550.917969 1044.964844 533.042969 1032.296875 515.753906 C 1023.984375 504.410156 1016.128906 493.691406 1008.175781 483.691406 L 1006.355469 481.402344 C 974.648438 441.546875 941.867188 400.335938 933.09375 355.691406 C 933.058594 355.523438 932.898438 355.414062 932.726562 355.445312 C 932.558594 355.480469 932.449219 355.644531 932.480469 355.8125 C 941.285156 400.605469 974.117188 441.878906 1005.867188 481.789062 L 1007.6875 484.078125 C 1015.632812 494.070312 1023.484375 504.78125 1031.792969 516.125 C 1043.878906 532.613281 1057.570312 551.300781 1073.84375 570.6875 C 1100.203125 602.097656 1134.433594 633.226562 1170.230469 658.347656 C 1248.015625 712.753906 1341.105469 747.933594 1425.625 754.863281 C 1425.632812 754.863281 1425.640625 754.863281 1425.652344 754.863281 Z M 1425.652344 754.863281" stroke-linecap="round" />
</g>
<g transform="matrix(1.33 0 0 1.33 1152.91 733.89)"  >
<path style="stroke: none; stroke-width: 1; stroke-dasharray: none; stroke-linecap: butt; stroke-dashoffset: 0; stroke-linejoin: miter; stroke-miterlimit: 4; fill: rgb(58,42,121); fill-rule: nonzero; opacity: 1;" vector-effect="non-scaling-stroke"  transform=" translate(-1179.68, -550.42)" d="M 1426.578125 745.378906 C 1426.746094 745.378906 1426.882812 745.246094 1426.890625 745.082031 C 1426.898438 744.910156 1426.765625 744.761719 1426.59375 744.753906 C 1339.132812 740.496094 1241.261719 705.636719 1164.789062 651.507812 C 1127.847656 625.242188 1094.175781 592.734375 1069.980469 559.972656 C 1058.410156 544.300781 1048.914062 529.578125 1040.535156 516.589844 C 1030.671875 501.292969 1022.148438 488.082031 1012.515625 476.535156 C 1007.507812 470.53125 1002.191406 464.390625 997.050781 458.453125 C 970.03125 427.226562 942.085938 394.941406 933.089844 355.695312 C 933.054688 355.527344 932.890625 355.421875 932.71875 355.460938 C 932.550781 355.5 932.445312 355.667969 932.484375 355.835938 C 941.515625 395.230469 969.507812 427.578125 996.582031 458.859375 C 1001.71875 464.796875 1007.03125 470.9375 1012.035156 476.933594 C 1021.648438 488.449219 1030.15625 501.648438 1040.011719 516.925781 C 1048.394531 529.925781 1057.894531 544.65625 1069.480469 560.339844 C 1093.714844 593.15625 1127.433594 625.714844 1164.429688 652.015625 C 1202.65625 679.074219 1247.058594 701.90625 1292.828125 718.042969 C 1337.65625 733.847656 1383.902344 743.300781 1426.5625 745.375 C 1426.570312 745.378906 1426.574219 745.378906 1426.578125 745.378906 Z M 1426.578125 745.378906" stroke-linecap="round" />
</g>
<g transform="matrix(1.33 0 0 1.33 1153.53 727.57)"  >
<path style="stroke: none; stroke-width: 1; stroke-dasharray: none; stroke-linecap: butt; stroke-dashoffset: 0; stroke-linejoin: miter; stroke-miterlimit: 4; fill: rgb(58,42,121); fill-rule: nonzero; opacity: 1;" vector-effect="non-scaling-stroke"  transform=" translate(-1180.15, -545.68)" d="M 1427.507812 735.894531 C 1427.679688 735.894531 1427.816406 735.757812 1427.820312 735.585938 C 1427.824219 735.414062 1427.683594 735.273438 1427.511719 735.269531 C 1336.054688 733.757812 1235.675781 700.078125 1158.992188 645.179688 C 1121.324219 618.0625 1087.300781 583.246094 1065.640625 549.65625 C 1056.070312 534.816406 1048.726562 521.316406 1042.246094 509.40625 C 1033.644531 493.59375 1026.214844 479.9375 1016.855469 469.378906 C 1010.355469 462.050781 1003.246094 454.789062 995.722656 447.101562 C 970.917969 421.765625 942.800781 393.054688 933.09375 355.699219 C 933.046875 355.535156 932.882812 355.433594 932.710938 355.476562 C 932.546875 355.519531 932.445312 355.691406 932.488281 355.855469 C 942.242188 393.371094 970.417969 422.148438 995.277344 447.535156 C 1002.796875 455.21875 1009.902344 462.472656 1016.386719 469.792969 C 1025.699219 480.300781 1033.113281 493.925781 1041.699219 509.703125 C 1048.183594 521.625 1055.535156 535.132812 1065.117188 549.996094 C 1086.816406 583.644531 1120.902344 618.523438 1158.628906 645.683594 C 1235.410156 700.65625 1335.921875 734.378906 1427.503906 735.894531 Z M 1427.507812 735.894531" stroke-linecap="round" />
</g>
<g transform="matrix(1.33 0 0 1.33 1154.15 721.29)"  >
<path style="stroke: none; stroke-width: 1; stroke-dasharray: none; stroke-linecap: butt; stroke-dashoffset: 0; stroke-linejoin: miter; stroke-miterlimit: 4; fill: rgb(58,42,121); fill-rule: nonzero; opacity: 1;" vector-effect="non-scaling-stroke"  transform=" translate(-1180.62, -540.96)" d="M 1422.859375 726.449219 C 1424.726562 726.449219 1426.585938 726.433594 1428.441406 726.40625 C 1428.613281 726.40625 1428.75 726.265625 1428.75 726.09375 C 1428.746094 725.921875 1428.605469 725.785156 1428.4375 725.785156 L 1428.433594 725.785156 C 1334.652344 727.175781 1229.167969 693.839844 1153.199219 638.847656 C 1114.21875 610.457031 1080.722656 574.1875 1061.300781 539.34375 C 1052.792969 524.082031 1046.972656 510.765625 1041.839844 499.015625 C 1034.996094 483.355469 1029.589844 470.988281 1021.191406 462.222656 C 1014.441406 455.179688 1006.390625 448.070312 997.863281 440.539062 C 972.53125 418.175781 943.820312 392.828125 933.089844 355.703125 C 933.042969 355.539062 932.875 355.445312 932.707031 355.492188 C 932.539062 355.539062 932.445312 355.710938 932.492188 355.878906 C 943.269531 393.175781 972.054688 418.589844 997.449219 441.007812 C 1005.964844 448.527344 1014.011719 455.628906 1020.742188 462.652344 C 1029.0625 471.339844 1034.449219 483.664062 1041.269531 499.265625 C 1046.410156 511.027344 1052.234375 524.359375 1060.757812 539.648438 C 1080.222656 574.566406 1113.78125 610.90625 1152.832031 639.351562 C 1191.492188 667.339844 1238.128906 690.152344 1287.695312 705.332031 C 1332.914062 719.179688 1379.515625 726.449219 1422.859375 726.449219 Z M 1422.859375 726.449219" stroke-linecap="round" />
</g>
<g transform="matrix(1.33 0 0 1.33 1154.77 715.2)"  >
<path style="stroke: none; stroke-width: 1; stroke-dasharray: none; stroke-linecap: butt; stroke-dashoffset: 0; stroke-linejoin: miter; stroke-miterlimit: 4; fill: rgb(58,42,121); fill-rule: nonzero; opacity: 1;" vector-effect="non-scaling-stroke"  transform=" translate(-1181.08, -536.4)" d="M 1411.96875 717.308594 C 1417.828125 717.308594 1423.632812 717.179688 1429.378906 716.921875 C 1429.550781 716.914062 1429.683594 716.769531 1429.675781 716.597656 C 1429.667969 716.425781 1429.519531 716.277344 1429.351562 716.300781 C 1332.027344 720.648438 1223.988281 688.550781 1147.402344 632.519531 C 1107.675781 603.257812 1073.867188 564.570312 1056.957031 529.03125 C 1049.144531 512.609375 1044.558594 498.433594 1040.871094 487.046875 C 1036.128906 472.390625 1032.703125 461.804688 1025.527344 455.0625 C 1019.175781 449.097656 1010.917969 442.921875 1002.175781 436.382812 C 976.75 417.359375 945.105469 393.683594 933.09375 355.710938 C 933.039062 355.546875 932.863281 355.453125 932.703125 355.507812 C 932.535156 355.558594 932.445312 355.734375 932.496094 355.898438 C 944.570312 394.0625 976.304688 417.804688 1001.804688 436.878906 C 1010.53125 443.410156 1018.777344 449.578125 1025.101562 455.515625 C 1032.160156 462.148438 1035.566406 472.671875 1040.28125 487.238281 C 1043.972656 498.644531 1048.566406 512.839844 1056.394531 529.296875 C 1073.347656 564.925781 1107.230469 603.699219 1147.03125 633.023438 C 1185.996094 661.527344 1233.75 684.332031 1285.128906 698.976562 C 1327.488281 711.046875 1370.972656 717.308594 1411.96875 717.308594 Z M 1411.96875 717.308594" stroke-linecap="round" />
</g>
<g transform="matrix(1.33 0 0 1.33 1155.39 709.33)"  >
<path style="stroke: none; stroke-width: 1; stroke-dasharray: none; stroke-linecap: butt; stroke-dashoffset: 0; stroke-linejoin: miter; stroke-miterlimit: 4; fill: rgb(58,42,121); fill-rule: nonzero; opacity: 1;" vector-effect="non-scaling-stroke"  transform=" translate(-1181.54, -532)" d="M 1401.210938 708.492188 C 1411.054688 708.492188 1420.769531 708.144531 1430.316406 707.4375 C 1430.488281 707.425781 1430.617188 707.273438 1430.605469 707.101562 C 1430.59375 706.933594 1430.433594 706.820312 1430.273438 706.816406 C 1331.101562 714.15625 1217.792969 682.5 1141.605469 626.191406 C 1100.546875 595.617188 1067.277344 555.441406 1052.617188 518.71875 C 1045.371094 500.578125 1042.433594 485.957031 1040.074219 474.214844 C 1037.464844 461.226562 1035.738281 452.644531 1029.855469 447.898438 C 1024.320312 443.433594 1016.925781 438.867188 1008.363281 433.578125 C 982.34375 417.503906 946.703125 395.488281 933.089844 355.714844 C 933.035156 355.554688 932.859375 355.464844 932.695312 355.523438 C 932.53125 355.578125 932.445312 355.753906 932.5 355.917969 C 946.1875 395.902344 981.933594 417.984375 1008.035156 434.109375 C 1016.582031 439.386719 1023.960938 443.945312 1029.460938 448.382812 C 1035.171875 452.988281 1036.878906 461.480469 1039.464844 474.335938 C 1041.828125 486.105469 1044.773438 500.753906 1052.035156 518.949219 C 1066.738281 555.773438 1100.085938 596.050781 1141.234375 626.691406 C 1180.539062 655.742188 1229.410156 678.539062 1282.558594 692.621094 C 1322.15625 703.109375 1362.640625 708.492188 1401.210938 708.492188 Z M 1401.210938 708.492188" stroke-linecap="round" />
</g>
<g transform="matrix(1.33 0 0 1.33 1156.02 703.66)"  >
<path style="stroke: none; stroke-width: 1; stroke-dasharray: none; stroke-linecap: butt; stroke-dashoffset: 0; stroke-linejoin: miter; stroke-miterlimit: 4; fill: rgb(58,42,121); fill-rule: nonzero; opacity: 1;" vector-effect="non-scaling-stroke"  transform=" translate(-1182.01, -527.75)" d="M 1390.707031 699.976562 C 1404.480469 699.976562 1418.035156 699.304688 1431.253906 697.949219 C 1431.425781 697.933594 1431.550781 697.78125 1431.535156 697.609375 C 1431.515625 697.4375 1431.363281 697.3125 1431.191406 697.332031 C 1328.832031 707.796875 1212.878906 677.390625 1135.808594 619.863281 C 1094.035156 588.4375 1060.492188 545.726562 1048.273438 508.40625 C 1041.597656 488.023438 1040.613281 472.378906 1039.898438 460.953125 C 1039.242188 450.542969 1038.808594 443.667969 1034.171875 440.726562 C 1029.839844 437.984375 1023.789062 435.039062 1016.78125 431.625 C 989.703125 418.433594 948.78125 398.5 933.089844 355.722656 C 933.03125 355.5625 932.855469 355.480469 932.691406 355.535156 C 932.53125 355.597656 932.449219 355.777344 932.507812 355.9375 C 948.285156 398.949219 989.339844 418.949219 1016.507812 432.183594 C 1023.5 435.589844 1029.535156 438.53125 1033.835938 441.253906 C 1038.207031 444.023438 1038.609375 450.410156 1039.273438 460.992188 C 1039.996094 472.449219 1040.980469 488.140625 1047.679688 508.601562 C 1059.9375 546.039062 1093.566406 588.859375 1135.433594 620.359375 C 1175.113281 649.976562 1225.097656 672.765625 1279.992188 686.261719 C 1316.945312 695.347656 1354.566406 699.976562 1390.707031 699.976562 Z M 1390.707031 699.976562" stroke-linecap="round" />
</g>
<g transform="matrix(1.33 0 0 1.33 1156.64 698.11)"  >
<path style="stroke: none; stroke-width: 1; stroke-dasharray: none; stroke-linecap: butt; stroke-dashoffset: 0; stroke-linejoin: miter; stroke-miterlimit: 4; fill: rgb(58,42,121); fill-rule: nonzero; opacity: 1;" vector-effect="non-scaling-stroke"  transform=" translate(-1182.48, -523.59)" d="M 1381.132812 691.640625 C 1398.671875 691.640625 1415.824219 690.589844 1432.191406 688.464844 C 1432.363281 688.445312 1432.484375 688.285156 1432.460938 688.117188 C 1432.441406 687.945312 1432.285156 687.820312 1432.113281 687.847656 C 1326.652344 701.523438 1208.070312 672.355469 1130.011719 613.53125 C 1086.910156 580.785156 1053.921875 536.550781 1043.925781 498.09375 C 1037.945312 475.085938 1039.804688 457.605469 1040.910156 447.160156 C 1041.792969 438.847656 1042.28125 434.246094 1038.46875 433.546875 C 1034.378906 430.816406 1027.535156 428.152344 1018.878906 424.78125 C 991.246094 414.019531 949.484375 397.753906 933.089844 355.730469 C 933.027344 355.570312 932.847656 355.488281 932.6875 355.554688 C 932.527344 355.613281 932.449219 355.796875 932.511719 355.957031 C 949.003906 398.238281 990.917969 414.558594 1018.652344 425.359375 C 1027.3125 428.734375 1034.148438 431.394531 1038.175781 434.101562 C 1038.210938 434.125 1038.253906 434.144531 1038.296875 434.148438 C 1041.605469 434.710938 1041.140625 439.109375 1040.292969 447.09375 C 1039.179688 457.582031 1037.3125 475.132812 1043.324219 498.25 C 1053.351562 536.835938 1086.425781 581.203125 1129.636719 614.03125 C 1169.707031 644.226562 1220.8125 667.007812 1277.425781 679.90625 C 1311.515625 687.675781 1347.058594 691.640625 1381.132812 691.640625 Z M 1381.132812 691.640625" stroke-linecap="round" />
</g>
<g transform="matrix(1.33 0 0 1.33 1157.26 692.76)"  >
<path style="stroke: none; stroke-width: 1; stroke-dasharray: none; stroke-linecap: butt; stroke-dashoffset: 0; stroke-linejoin: miter; stroke-miterlimit: 4; fill: rgb(58,42,121); fill-rule: nonzero; opacity: 1;" vector-effect="non-scaling-stroke"  transform=" translate(-1182.94, -519.57)" d="M 1371.085938 683.597656 C 1392.480469 683.597656 1413.382812 682.066406 1433.128906 678.980469 C 1433.300781 678.953125 1433.417969 678.792969 1433.390625 678.621094 C 1433.363281 678.453125 1433.199219 678.335938 1433.035156 678.363281 C 1344.160156 692.257812 1214.203125 675.644531 1124.214844 607.203125 C 1080.453125 573.640625 1047.230469 526.765625 1039.582031 487.78125 C 1034.257812 460.664062 1040.21875 442.042969 1043.082031 433.09375 C 1044.3125 429.25 1044.933594 427.320312 1044.195312 426.558594 C 1043.804688 426.160156 1043.195312 426.238281 1042.722656 426.363281 C 1039.796875 424.984375 1034.683594 423.605469 1028.234375 421.867188 C 1001.546875 414.679688 951.871094 401.300781 933.089844 355.738281 C 933.027344 355.578125 932.839844 355.503906 932.683594 355.566406 C 932.527344 355.632812 932.449219 355.816406 932.515625 355.972656 C 951.414062 401.824219 1001.28125 415.253906 1028.070312 422.46875 C 1034.570312 424.21875 1039.703125 425.601562 1042.558594 426.976562 C 1042.628906 427.007812 1042.707031 427.015625 1042.78125 426.992188 C 1043.125 426.894531 1043.574219 426.816406 1043.746094 426.992188 C 1044.226562 427.484375 1043.460938 429.878906 1042.488281 432.90625 C 1039.609375 441.902344 1033.617188 460.625 1038.96875 487.902344 C 1046.648438 527.027344 1079.960938 574.050781 1123.835938 607.699219 C 1164.324219 638.492188 1216.546875 661.261719 1274.855469 673.550781 C 1306.523438 680.222656 1339.34375 683.597656 1371.085938 683.597656 Z M 1371.085938 683.597656" stroke-linecap="round" />
</g>
<g transform="matrix(1.33 0 0 1.33 1157.88 687.56)"  >
<path style="stroke: none; stroke-width: 1; stroke-dasharray: none; stroke-linecap: butt; stroke-dashoffset: 0; stroke-linejoin: miter; stroke-miterlimit: 4; fill: rgb(58,42,121); fill-rule: nonzero; opacity: 1;" vector-effect="non-scaling-stroke"  transform=" translate(-1183.41, -515.67)" d="M 1361.121094 675.789062 C 1386.339844 675.789062 1410.996094 673.695312 1434.066406 669.492188 C 1434.234375 669.460938 1434.347656 669.300781 1434.316406 669.128906 C 1434.285156 668.960938 1434.121094 668.847656 1433.953125 668.878906 C 1342.460938 685.554688 1209.410156 670.988281 1118.417969 600.875 C 1073.367188 566.160156 1040.714844 517.71875 1035.230469 477.46875 C 1030.464844 442.464844 1044.910156 422.710938 1047.558594 419.453125 C 1048.132812 418.847656 1048.160156 418.765625 1048.027344 418.566406 C 1047.949219 418.441406 1047.792969 418.394531 1047.65625 418.445312 C 1047.648438 418.449219 1047.601562 418.492188 1047.523438 418.582031 L 1047.503906 418.570312 C 1047.484375 418.597656 1047.324219 418.792969 1046.933594 419.203125 C 1045.40625 418.882812 1042.976562 418.5625 1039.929688 418.15625 C 1016.765625 415.070312 955.242188 406.871094 933.089844 355.746094 C 933.023438 355.585938 932.835938 355.515625 932.679688 355.582031 C 932.523438 355.652344 932.449219 355.835938 932.519531 355.992188 C 954.808594 407.441406 1016.589844 415.671875 1039.847656 418.773438 C 1042.714844 419.15625 1045.035156 419.464844 1046.550781 419.761719 C 1042.664062 424.828125 1030.105469 444.429688 1034.613281 477.554688 C 1040.117188 517.957031 1072.863281 566.558594 1118.039062 601.371094 C 1158.859375 632.824219 1212.179688 655.609375 1272.238281 667.257812 C 1301.515625 672.9375 1331.699219 675.789062 1361.121094 675.789062 Z M 1361.121094 675.789062" stroke-linecap="round" />
</g>
<g transform="matrix(1.33 0 0 1.33 1158.5 682.48)"  >
<path style="stroke: none; stroke-width: 1; stroke-dasharray: none; stroke-linecap: butt; stroke-dashoffset: 0; stroke-linejoin: miter; stroke-miterlimit: 4; fill: rgb(58,42,121); fill-rule: nonzero; opacity: 1;" vector-effect="non-scaling-stroke"  transform=" translate(-1183.87, -511.86)" d="M 1351.707031 668.148438 C 1380.582031 668.148438 1408.835938 665.433594 1435.003906 660.007812 C 1435.171875 659.972656 1435.28125 659.808594 1435.246094 659.636719 C 1435.210938 659.46875 1435.046875 659.363281 1434.875 659.394531 C 1344.078125 678.222656 1204.503906 665.957031 1112.621094 594.546875 C 1066.25 558.503906 1034.164062 508.5 1030.882812 467.15625 C 1028.550781 437.75 1040.136719 419.363281 1047.074219 413.085938 C 1049.132812 412.980469 1050.621094 412.832031 1051.433594 412.703125 C 1051.542969 412.6875 1051.632812 412.613281 1051.675781 412.511719 C 1052.089844 411.460938 1052.085938 410.734375 1051.671875 410.351562 C 1051.394531 410.09375 1050.820312 409.90625 1049.664062 410.464844 C 1048.882812 410.84375 1047.917969 411.515625 1046.84375 412.476562 C 1038.089844 412.910156 1019.328125 412.5625 998.5625 406.871094 C 976.527344 400.832031 947.28125 387.058594 933.089844 355.753906 C 933.019531 355.59375 932.835938 355.527344 932.679688 355.597656 C 932.523438 355.667969 932.453125 355.851562 932.523438 356.011719 C 946.8125 387.535156 976.234375 401.398438 998.394531 407.472656 C 1018.652344 413.023438 1037.03125 413.507812 1046.140625 413.128906 C 1039.035156 419.984375 1027.972656 438.367188 1030.261719 467.207031 C 1031.90625 487.90625 1040.773438 511.113281 1055.902344 534.316406 C 1070.546875 556.773438 1090.027344 577.773438 1112.242188 595.039062 C 1153.503906 627.109375 1207.941406 649.882812 1269.667969 660.902344 C 1296.738281 665.734375 1324.496094 668.148438 1351.707031 668.148438 Z M 1051.15625 412.117188 C 1050.449219 412.21875 1049.328125 412.332031 1047.847656 412.421875 C 1048.632812 411.78125 1049.339844 411.316406 1049.9375 411.027344 C 1050.6875 410.664062 1051.105469 410.675781 1051.246094 410.808594 C 1051.390625 410.9375 1051.433594 411.347656 1051.15625 412.117188 Z M 1051.15625 412.117188" stroke-linecap="round" />
</g>
<g transform="matrix(1.33 0 0 1.33 1159.12 677.5)"  >
<path style="stroke: none; stroke-width: 1; stroke-dasharray: none; stroke-linecap: butt; stroke-dashoffset: 0; stroke-linejoin: miter; stroke-miterlimit: 4; fill: rgb(58,42,121); fill-rule: nonzero; opacity: 1;" vector-effect="non-scaling-stroke"  transform=" translate(-1184.34, -508.12)" d="M 1342.621094 660.664062 C 1375.054688 660.664062 1406.816406 657.269531 1435.9375 650.519531 C 1436.105469 650.480469 1436.210938 650.3125 1436.171875 650.144531 C 1436.132812 649.976562 1435.960938 649.871094 1435.796875 649.914062 C 1342.773438 671.46875 1200.152344 661.359375 1106.828125 588.214844 C 1059.871094 551.417969 1027.601562 498.621094 1026.535156 456.84375 C 1025.9375 433.488281 1034.320312 417.085938 1042.582031 408.5625 C 1049.476562 407.914062 1054.300781 406.710938 1055.917969 405.496094 C 1055.984375 405.449219 1056.027344 405.375 1056.039062 405.292969 C 1056.332031 403.273438 1055.648438 402.328125 1055.023438 401.890625 C 1053.777344 401.015625 1051.648438 401.304688 1049.035156 402.707031 C 1046.925781 403.84375 1044.601562 405.613281 1042.269531 408 C 1031.074219 409.015625 1014.402344 408.554688 997.210938 404.304688 C 975.933594 399.042969 947.542969 386.351562 933.089844 355.761719 C 933.015625 355.605469 932.828125 355.539062 932.675781 355.613281 C 932.519531 355.6875 932.453125 355.871094 932.527344 356.027344 C 947.082031 386.839844 975.652344 399.617188 997.058594 404.910156 C 1013.941406 409.082031 1030.363281 409.601562 1041.652344 408.644531 C 1033.449219 417.417969 1025.320312 433.792969 1025.910156 456.859375 C 1026.453125 478.09375 1034.679688 502.042969 1049.695312 526.121094 C 1064.15625 549.304688 1083.777344 570.945312 1106.441406 588.707031 C 1148.15625 621.398438 1203.710938 644.167969 1267.097656 654.546875 C 1292.058594 658.632812 1317.542969 660.664062 1342.621094 660.664062 Z M 1055.441406 405.074219 C 1053.828125 406.191406 1049.449219 407.28125 1043.230469 407.910156 C 1045.335938 405.839844 1047.421875 404.28125 1049.328125 403.257812 C 1051.691406 401.992188 1053.636719 401.679688 1054.667969 402.402344 C 1055.5 402.984375 1055.554688 404.148438 1055.441406 405.074219 Z M 1055.441406 405.074219" stroke-linecap="round" />
</g>
<g transform="matrix(1.33 0 0 1.33 1159.74 672.59)"  >
<path style="stroke: none; stroke-width: 1; stroke-dasharray: none; stroke-linecap: butt; stroke-dashoffset: 0; stroke-linejoin: miter; stroke-miterlimit: 4; fill: rgb(58,42,121); fill-rule: nonzero; opacity: 1;" vector-effect="non-scaling-stroke"  transform=" translate(-1184.8, -504.44)" d="M 1334.097656 653.289062 C 1369.921875 653.289062 1405.023438 649.167969 1436.875 641.03125 C 1437.042969 640.992188 1437.140625 640.820312 1437.097656 640.652344 C 1437.054688 640.488281 1436.886719 640.386719 1436.71875 640.429688 C 1341.71875 664.695312 1196.148438 656.730469 1101.03125 581.886719 C 1052.785156 543.617188 1021.097656 489.222656 1022.183594 446.527344 C 1022.683594 426.871094 1029.53125 413.894531 1035.191406 406.46875 C 1035.398438 406.199219 1035.605469 405.929688 1035.816406 405.667969 C 1049.3125 404.570312 1058.617188 401.402344 1060.351562 398.25 C 1060.375 398.203125 1060.386719 398.152344 1060.386719 398.101562 C 1060.40625 394.53125 1058.4375 392.457031 1054.992188 392.40625 C 1054.949219 392.40625 1054.90625 392.402344 1054.867188 392.402344 C 1050.179688 392.402344 1042.515625 396.308594 1035.507812 405.054688 C 1031.441406 405.378906 1027.023438 405.515625 1022.375 405.410156 C 1002.625 404.949219 954.398438 399.195312 933.089844 355.769531 C 933.015625 355.613281 932.832031 355.550781 932.675781 355.628906 C 932.519531 355.703125 932.457031 355.890625 932.53125 356.042969 C 953.988281 399.777344 1002.496094 405.570312 1022.359375 406.035156 C 1026.84375 406.140625 1031.078125 406.023438 1034.972656 405.734375 C 1034.878906 405.851562 1034.789062 405.972656 1034.695312 406.09375 C 1028.980469 413.589844 1022.0625 426.691406 1021.558594 446.511719 C 1021.007812 468.257812 1028.601562 492.941406 1043.519531 517.894531 C 1057.578125 541.40625 1077.863281 564.308594 1100.644531 582.375 C 1142.914062 615.636719 1199.605469 638.371094 1264.582031 648.121094 C 1287.601562 651.578125 1311 653.289062 1334.097656 653.289062 Z M 1059.765625 398.015625 C 1058.03125 400.960938 1048.976562 403.878906 1036.367188 404.984375 C 1043.199219 396.648438 1050.5625 392.9375 1054.980469 393.027344 C 1058.054688 393.074219 1059.75 394.84375 1059.765625 398.015625 Z M 1059.765625 398.015625" stroke-linecap="round" />
</g>
<g transform="matrix(1.33 0 0 1.33 1160.36 667.78)"  >
<path style="stroke: none; stroke-width: 1; stroke-dasharray: none; stroke-linecap: butt; stroke-dashoffset: 0; stroke-linejoin: miter; stroke-miterlimit: 4; fill: rgb(58,42,121); fill-rule: nonzero; opacity: 1;" vector-effect="non-scaling-stroke"  transform=" translate(-1185.27, -500.84)" d="M 1325.601562 646.070312 C 1364.808594 646.070312 1403.261719 641.167969 1437.808594 631.546875 C 1437.976562 631.5 1438.074219 631.328125 1438.027344 631.164062 C 1437.980469 630.996094 1437.808594 630.894531 1437.644531 630.945312 C 1337.402344 658.863281 1187.597656 648.804688 1095.230469 575.558594 C 1045.707031 535.972656 1014.601562 479.972656 1017.832031 436.210938 C 1018.800781 423.089844 1023.085938 412.171875 1028.714844 403.761719 C 1034.476562 403.464844 1039.878906 402.78125 1044.746094 401.800781 C 1056.769531 399.371094 1064.425781 395.222656 1064.730469 390.972656 C 1065.0625 386.363281 1062.636719 383.527344 1058.082031 383.195312 C 1052.449219 382.777344 1042.777344 386.589844 1033.957031 396.023438 C 1032.121094 397.988281 1030.167969 400.359375 1028.261719 403.164062 C 995.863281 404.730469 952.527344 394.039062 933.089844 355.777344 C 933.015625 355.625 932.824219 355.5625 932.671875 355.640625 C 932.519531 355.71875 932.457031 355.90625 932.535156 356.0625 C 950.90625 392.21875 990.441406 403.925781 1022.179688 403.929688 C 1024.09375 403.929688 1025.980469 403.886719 1027.832031 403.804688 C 1022.824219 411.378906 1018.257812 421.992188 1017.210938 436.167969 C 1013.964844 480.125 1045.164062 536.335938 1094.84375 576.046875 C 1137.585938 609.9375 1195.390625 632.664062 1262.011719 641.765625 C 1283.097656 644.644531 1304.460938 646.070312 1325.601562 646.070312 Z M 1057.132812 383.785156 C 1057.441406 383.785156 1057.742188 383.792969 1058.035156 383.816406 C 1062.261719 384.125 1064.417969 386.648438 1064.109375 390.929688 C 1063.832031 394.828125 1056.183594 398.855469 1044.625 401.1875 C 1039.921875 402.136719 1034.699219 402.808594 1029.152344 403.117188 C 1037.785156 390.570312 1049.394531 383.785156 1057.132812 383.785156 Z M 1057.132812 383.785156" stroke-linecap="round" />
</g>
<g transform="matrix(1.33 0 0 1.33 1160.98 663.06)"  >
<path style="stroke: none; stroke-width: 1; stroke-dasharray: none; stroke-linecap: butt; stroke-dashoffset: 0; stroke-linejoin: miter; stroke-miterlimit: 4; fill: rgb(58,42,121); fill-rule: nonzero; opacity: 1;" vector-effect="non-scaling-stroke"  transform=" translate(-1185.74, -497.29)" d="M 1317.363281 638.960938 C 1359.882812 638.960938 1401.613281 633.234375 1438.746094 622.058594 C 1438.910156 622.007812 1439.003906 621.835938 1438.953125 621.671875 C 1438.902344 621.507812 1438.734375 621.410156 1438.566406 621.460938 C 1336.132812 652.289062 1183.320312 644.246094 1089.4375 569.226562 C 1038.628906 528.320312 1008.105469 470.722656 1013.480469 425.894531 C 1014.59375 416.617188 1017.257812 408.617188 1020.828125 401.875 C 1031.011719 401.726562 1040.449219 400.378906 1048.21875 398.285156 C 1061.320312 394.753906 1069.316406 389.199219 1069.078125 383.789062 C 1068.808594 377.605469 1064.863281 373.914062 1058.246094 373.664062 C 1050.125 373.34375 1039.832031 378.285156 1031.433594 386.53125 C 1027.878906 390.023438 1023.867188 394.863281 1020.433594 401.257812 C 989.339844 401.617188 951.4375 390.753906 933.09375 355.789062 C 933.011719 355.636719 932.820312 355.578125 932.671875 355.65625 C 932.519531 355.738281 932.460938 355.925781 932.539062 356.078125 C 950.949219 391.160156 988.90625 402.164062 1020.105469 401.882812 C 1016.761719 408.28125 1014.015625 416.195312 1012.859375 425.820312 C 1010.125 448.640625 1016.429688 474.808594 1031.101562 501.5 C 1044.804688 526.4375 1065.382812 550.664062 1089.046875 569.714844 C 1132.261719 604.246094 1191.183594 626.960938 1259.445312 635.40625 C 1278.671875 637.785156 1298.101562 638.960938 1317.363281 638.960938 Z M 1057.59375 374.273438 C 1057.804688 374.273438 1058.015625 374.277344 1058.222656 374.285156 C 1064.472656 374.523438 1068.203125 377.996094 1068.457031 383.816406 C 1068.679688 388.917969 1060.859375 394.230469 1048.054688 397.683594 C 1040.417969 399.742188 1031.15625 401.074219 1021.164062 401.25 C 1031.03125 383.121094 1047.480469 374.273438 1057.59375 374.273438 Z M 1057.59375 374.273438" stroke-linecap="round" />
</g>
<g transform="matrix(1.33 0 0 1.33 1161.6 658.33)"  >
<path style="stroke: none; stroke-width: 1; stroke-dasharray: none; stroke-linecap: butt; stroke-dashoffset: 0; stroke-linejoin: miter; stroke-miterlimit: 4; fill: rgb(58,42,121); fill-rule: nonzero; opacity: 1;" vector-effect="non-scaling-stroke"  transform=" translate(-1186.2, -493.75)" d="M 1308.363281 631.867188 C 1354.476562 631.867188 1400.441406 625.238281 1439.679688 612.574219 C 1439.84375 612.519531 1439.933594 612.34375 1439.878906 612.179688 C 1439.828125 612.015625 1439.652344 611.925781 1439.488281 611.980469 C 1337.453125 644.914062 1178.0625 638.902344 1083.640625 562.898438 C 1031.558594 520.667969 1001.613281 461.464844 1009.125 415.578125 C 1010.03125 410.046875 1011.5 404.957031 1013.394531 400.304688 C 1026.378906 400.613281 1039.394531 398.9375 1050.753906 395.328125 C 1065.558594 390.621094 1074.246094 383.453125 1073.421875 376.617188 C 1072.480469 368.808594 1066.917969 364.222656 1058.160156 364.039062 C 1043.8125 363.746094 1022.824219 375.925781 1012.96875 399.707031 C 983.527344 399.003906 950.4375 387.882812 933.09375 355.796875 C 933.011719 355.644531 932.820312 355.589844 932.667969 355.671875 C 932.519531 355.753906 932.460938 355.941406 932.542969 356.09375 C 946.820312 382.5 971.042969 393.042969 988.851562 397.238281 C 996.507812 399.039062 1004.605469 400.054688 1012.730469 400.289062 C 1010.859375 404.921875 1009.410156 409.984375 1008.511719 415.476562 C 1004.6875 438.828125 1010.351562 465.742188 1024.886719 493.300781 C 1038.417969 518.949219 1059.144531 543.839844 1083.25 563.382812 C 1126.945312 598.558594 1186.984375 621.265625 1256.875 629.050781 C 1273.828125 630.9375 1291.105469 631.867188 1308.363281 631.867188 Z M 1057.628906 364.65625 C 1057.804688 364.65625 1057.976562 364.65625 1058.148438 364.660156 C 1066.5625 364.839844 1071.902344 369.226562 1072.804688 376.691406 C 1073.589844 383.210938 1065.066406 390.125 1050.566406 394.734375 C 1040.441406 397.953125 1027.457031 399.976562 1013.632812 399.722656 C 1023.296875 376.632812 1043.546875 364.65625 1057.628906 364.65625 Z M 1057.628906 364.65625" stroke-linecap="round" />
</g>
<g transform="matrix(1.33 0 0 1.33 1162.22 652.84)"  >
<path style="stroke: none; stroke-width: 1; stroke-dasharray: none; stroke-linecap: butt; stroke-dashoffset: 0; stroke-linejoin: miter; stroke-miterlimit: 4; fill: rgb(58,42,121); fill-rule: nonzero; opacity: 1;" vector-effect="non-scaling-stroke"  transform=" translate(-1186.67, -489.63)" d="M 1300.488281 624.957031 C 1349.75 624.957031 1399.011719 617.398438 1440.613281 603.085938 C 1440.777344 603.03125 1440.863281 602.851562 1440.808594 602.691406 C 1440.75 602.527344 1440.574219 602.441406 1440.410156 602.496094 C 1336.289062 638.316406 1173.832031 634.394531 1077.84375 556.570312 C 1053.363281 536.585938 1032.546875 511.105469 1019.230469 484.820312 C 1004.890625 456.515625 999.894531 429.007812 1004.773438 405.261719 C 1005.230469 403.050781 1005.777344 400.902344 1006.417969 398.816406 C 1022.371094 399.828125 1038.894531 397.761719 1052.925781 392.789062 C 1069.730469 386.839844 1079.246094 377.894531 1077.765625 369.449219 C 1076.128906 360.128906 1068.71875 354.46875 1057.9375 354.308594 C 1047.761719 354.167969 1035.984375 358.917969 1026.347656 367.027344 C 1019.417969 372.859375 1010.675781 382.800781 1005.929688 398.222656 C 978.457031 396.441406 949.386719 385.113281 933.09375 355.808594 C 933.007812 355.65625 932.820312 355.601562 932.667969 355.6875 C 932.519531 355.769531 932.464844 355.960938 932.546875 356.109375 C 947.253906 382.5625 971.742188 392.695312 989.699219 396.539062 C 994.894531 397.652344 1000.292969 398.394531 1005.761719 398.769531 C 1005.15625 400.796875 1004.617188 402.917969 1004.164062 405.136719 C 999.253906 429.019531 1004.273438 456.671875 1018.675781 485.101562 C 1032.03125 511.460938 1052.902344 537.015625 1077.449219 557.054688 C 1133.269531 602.308594 1204.433594 617.726562 1254.304688 622.695312 C 1269.539062 624.210938 1285.019531 624.957031 1300.488281 624.957031 Z M 1057.453125 354.929688 C 1057.613281 354.929688 1057.769531 354.933594 1057.925781 354.933594 C 1068.542969 355.089844 1075.546875 360.417969 1077.152344 369.558594 C 1078.574219 377.683594 1069.214844 386.359375 1052.71875 392.203125 C 1040.398438 396.570312 1023.828125 399.285156 1006.589844 398.261719 C 1015.136719 371.203125 1038.574219 354.929688 1057.453125 354.929688 Z M 1057.453125 354.929688" stroke-linecap="round" />
</g>
<g transform="matrix(1.33 0 0 1.33 1162.84 641.74)"  >
<path style="stroke: none; stroke-width: 1; stroke-dasharray: none; stroke-linecap: butt; stroke-dashoffset: 0; stroke-linejoin: miter; stroke-miterlimit: 4; fill: rgb(58,42,121); fill-rule: nonzero; opacity: 1;" vector-effect="non-scaling-stroke"  transform=" translate(-1187.13, -481.3)" d="M 1292.835938 618.125 C 1345.179688 618.125 1397.679688 609.597656 1441.550781 593.601562 C 1441.710938 593.539062 1441.792969 593.359375 1441.734375 593.199219 C 1441.675781 593.039062 1441.496094 592.953125 1441.335938 593.011719 C 1335.148438 631.742188 1169.632812 629.910156 1072.046875 550.242188 C 1019.179688 506.796875 989.820312 444.335938 999.871094 397.335938 C 1018.378906 399.320312 1038.363281 396.929688 1054.957031 390.574219 C 1073.910156 383.3125 1084.3125 372.476562 1082.109375 362.289062 C 1079.734375 351.316406 1070.585938 344.660156 1057.636719 344.484375 C 1057.457031 344.480469 1057.277344 344.480469 1057.097656 344.480469 C 1046.105469 344.480469 1034.003906 349.039062 1023.800781 357.046875 C 1015.484375 363.574219 1004.566406 375.421875 999.816406 394.792969 C 999.660156 395.425781 999.511719 396.066406 999.367188 396.707031 C 973.988281 393.933594 948.324219 382.515625 933.09375 355.816406 C 933.007812 355.667969 932.816406 355.613281 932.667969 355.699219 C 932.519531 355.785156 932.464844 355.976562 932.550781 356.125 C 947.65625 382.597656 972.382812 392.378906 990.464844 395.921875 C 993.339844 396.484375 996.273438 396.933594 999.246094 397.269531 C 994.128906 421.121094 998.675781 448.585938 1012.460938 476.902344 C 1025.644531 503.972656 1046.664062 530.191406 1071.652344 550.722656 C 1128.089844 596.796875 1200.734375 611.835938 1251.734375 616.335938 C 1265.316406 617.535156 1279.074219 618.125 1292.835938 618.125 Z M 1057.09375 345.101562 C 1057.273438 345.101562 1057.449219 345.105469 1057.628906 345.105469 C 1070.265625 345.28125 1079.1875 351.753906 1081.5 362.421875 C 1083.636719 372.285156 1073.378906 382.847656 1054.734375 389.992188 C 1040.390625 395.488281 1020.304688 398.882812 999.992188 396.773438 C 1000.128906 396.160156 1000.269531 395.550781 1000.421875 394.941406 C 1005.132812 375.742188 1015.945312 364.003906 1024.1875 357.535156 C 1034.28125 349.617188 1046.242188 345.101562 1057.09375 345.101562 Z M 1057.09375 345.101562" stroke-linecap="round" />
</g>
<g transform="matrix(1.33 0 0 1.33 1163.46 630.61)"  >
<path style="stroke: none; stroke-width: 1; stroke-dasharray: none; stroke-linecap: butt; stroke-dashoffset: 0; stroke-linejoin: miter; stroke-miterlimit: 4; fill: rgb(58,42,121); fill-rule: nonzero; opacity: 1;" vector-effect="non-scaling-stroke"  transform=" translate(-1187.6, -472.96)" d="M 1285.375 611.363281 C 1340.742188 611.363281 1396.433594 601.835938 1442.484375 584.113281 C 1442.644531 584.050781 1442.722656 583.871094 1442.660156 583.710938 C 1442.601562 583.546875 1442.417969 583.46875 1442.257812 583.53125 C 1332.511719 625.769531 1161.859375 622.496094 1066.25 543.910156 C 1024.191406 509.132812 985.492188 449.457031 993.648438 395.796875 C 1014.351562 399.023438 1037.820312 396.382812 1056.945312 388.605469 C 1078.132812 379.984375 1089.441406 367.160156 1086.453125 355.132812 C 1083.3125 342.5 1072.414062 334.8125 1057.300781 334.566406 C 1057.058594 334.5625 1056.808594 334.558594 1056.566406 334.558594 C 1033.664062 334.558594 1004.695312 351.894531 995.46875 384.453125 C 994.484375 387.921875 993.707031 391.476562 993.140625 395.101562 C 969.921875 391.4375 947.257812 380.054688 933.09375 355.828125 C 933.007812 355.675781 932.816406 355.628906 932.667969 355.714844 C 932.519531 355.800781 932.46875 355.992188 932.554688 356.140625 C 948.042969 382.632812 973.007812 392.105469 991.21875 395.386719 C 991.828125 395.496094 992.4375 395.601562 993.050781 395.699219 C 989.714844 417.976562 994.195312 442.960938 1006.25 468.699219 C 1019.257812 496.484375 1040.425781 523.367188 1065.851562 544.394531 C 1089.09375 563.496094 1117.425781 578.882812 1150.054688 590.125 C 1180.328125 600.550781 1213.675781 607.234375 1249.164062 609.980469 C 1261.148438 610.90625 1273.257812 611.363281 1285.375 611.363281 Z M 1056.5625 335.183594 C 1056.808594 335.183594 1057.046875 335.183594 1057.289062 335.191406 C 1072.105469 335.429688 1082.78125 342.941406 1085.847656 355.28125 C 1088.753906 366.984375 1077.589844 379.53125 1056.707031 388.027344 C 1040.453125 394.636719 1016.851562 398.714844 993.742188 395.195312 C 994.304688 391.644531 995.078125 388.113281 996.066406 384.621094 C 1005.210938 352.363281 1033.894531 335.183594 1056.5625 335.183594 Z M 1056.5625 335.183594" stroke-linecap="round" />
</g>
<g transform="matrix(1.33 0 0 1.33 1164.08 619.45)"  >
<path style="stroke: none; stroke-width: 1; stroke-dasharray: none; stroke-linecap: butt; stroke-dashoffset: 0; stroke-linejoin: miter; stroke-miterlimit: 4; fill: rgb(58,42,121); fill-rule: nonzero; opacity: 1;" vector-effect="non-scaling-stroke"  transform=" translate(-1188.06, -464.59)" d="M 1278.402344 604.621094 C 1337.511719 604.621094 1396.019531 593.796875 1443.417969 574.625 C 1443.578125 574.558594 1443.652344 574.378906 1443.589844 574.21875 C 1443.523438 574.058594 1443.34375 573.984375 1443.183594 574.046875 C 1331.378906 619.269531 1157.652344 617.996094 1060.453125 537.582031 C 1019.632812 503.617188 982.648438 446.722656 987.671875 394.121094 C 989.144531 394.429688 990.585938 394.699219 991.988281 394.929688 C 1013.929688 398.578125 1038.328125 395.625 1058.933594 386.832031 C 1082.410156 376.8125 1094.617188 361.925781 1090.796875 347.976562 C 1086.875 333.683594 1074.222656 324.933594 1056.949219 324.570312 C 1032.28125 324.027344 1001.742188 340.902344 991.121094 374.109375 C 989.140625 380.292969 987.824219 386.734375 987.164062 393.386719 C 965.347656 388.5625 945.542969 376.648438 933.09375 355.835938 C 933.003906 355.6875 932.8125 355.640625 932.667969 355.730469 C 932.519531 355.816406 932.46875 356.007812 932.558594 356.15625 C 947.058594 380.398438 969.363281 390.167969 987.105469 394 C 985.191406 414.601562 989.546875 437.222656 1000.03125 460.496094 C 1012.871094 488.996094 1034.1875 516.542969 1060.054688 538.0625 C 1116.214844 584.523438 1197.863281 604.621094 1278.402344 604.621094 Z M 1055.839844 325.183594 C 1056.207031 325.183594 1056.570312 325.1875 1056.9375 325.195312 C 1073.921875 325.550781 1086.351562 334.128906 1090.195312 348.140625 C 1093.929688 361.765625 1081.855469 376.371094 1058.6875 386.257812 C 1037.238281 395.414062 1011.339844 398.589844 987.734375 393.511719 C 988.394531 387.019531 989.695312 380.605469 991.710938 374.300781 C 1002.085938 341.875 1031.597656 325.183594 1055.839844 325.183594 Z M 1055.839844 325.183594" stroke-linecap="round" />
</g>
<g transform="matrix(1.33 0 0 1.33 1164.7 608.34)"  >
<path style="stroke: none; stroke-width: 1; stroke-dasharray: none; stroke-linecap: butt; stroke-dashoffset: 0; stroke-linejoin: miter; stroke-miterlimit: 4; fill: rgb(58,42,121); fill-rule: nonzero; opacity: 1;" vector-effect="non-scaling-stroke"  transform=" translate(-1188.53, -456.25)" d="M 1270.957031 598.023438 C 1332.234375 598.023438 1394.167969 586.398438 1444.351562 565.136719 C 1444.507812 565.070312 1444.582031 564.886719 1444.515625 564.730469 C 1444.449219 564.570312 1444.265625 564.496094 1444.109375 564.5625 C 1330.261719 612.796875 1153.460938 613.519531 1054.65625 531.253906 C 1015.007812 498.070312 979.5625 443.722656 981.902344 392.265625 C 985.699219 393.28125 989.359375 394.015625 992.78125 394.539062 C 1015.058594 397.957031 1039.90625 394.558594 1060.945312 385.21875 C 1072.992188 379.871094 1082.609375 373.046875 1088.757812 365.480469 C 1095.3125 357.414062 1097.519531 348.886719 1095.136719 340.820312 C 1090.429688 324.871094 1076.023438 315.035156 1056.601562 314.507812 C 1042.9375 314.132812 1028.597656 318.386719 1016.199219 326.460938 C 1002.425781 335.433594 992.25 348.335938 986.773438 363.769531 C 983.671875 372.503906 981.890625 381.757812 981.410156 391.402344 C 961.953125 385.980469 944.550781 374.59375 933.09375 355.847656 C 933.003906 355.699219 932.816406 355.652344 932.667969 355.746094 C 932.519531 355.832031 932.472656 356.027344 932.5625 356.171875 C 945.660156 377.605469 964.765625 387.578125 981.378906 392.125 C 980.574219 411 984.742188 431.371094 993.820312 452.292969 C 1006.488281 481.503906 1027.953125 509.714844 1054.257812 531.730469 C 1077.992188 551.496094 1107.195312 567.207031 1141.054688 578.425781 C 1172.4375 588.824219 1207.078125 595.164062 1244.027344 597.265625 C 1252.960938 597.773438 1261.953125 598.023438 1270.957031 598.023438 Z M 1055.046875 315.113281 C 1055.5625 315.113281 1056.074219 315.117188 1056.585938 315.132812 C 1075.722656 315.648438 1089.914062 325.316406 1094.539062 340.996094 C 1099.078125 356.371094 1085.792969 373.507812 1060.691406 384.648438 C 1036.921875 395.203125 1007.671875 398.5625 981.9375 391.546875 C 982.429688 382.214844 984.167969 372.972656 987.359375 363.980469 C 998.824219 331.660156 1029.769531 315.113281 1055.046875 315.113281 Z M 1055.046875 315.113281" stroke-linecap="round" />
</g>
<g transform="matrix(1.33 0 0 1.33 1165.33 597.19)"  >
<path style="stroke: none; stroke-width: 1; stroke-dasharray: none; stroke-linecap: butt; stroke-dashoffset: 0; stroke-linejoin: miter; stroke-miterlimit: 4; fill: rgb(58,42,121); fill-rule: nonzero; opacity: 1;" vector-effect="non-scaling-stroke"  transform=" translate(-1188.99, -447.89)" d="M 1263.964844 591.433594 C 1328.140625 591.433594 1393.128906 578.71875 1445.285156 555.652344 C 1445.441406 555.582031 1445.511719 555.398438 1445.441406 555.238281 C 1445.371094 555.082031 1445.1875 555.011719 1445.03125 555.082031 C 1331.667969 605.226562 1147.964844 607.953125 1048.859375 524.925781 C 1010.316406 492.480469 976.238281 440.472656 976.300781 390.195312 C 982.390625 392.207031 988.285156 393.457031 993.605469 394.210938 C 1016.222656 397.414062 1041.515625 393.597656 1062.992188 383.738281 C 1090.691406 371.019531 1105.015625 351.367188 1099.484375 333.667969 C 1093.976562 316.0625 1077.820312 305.117188 1056.265625 304.390625 C 1030.183594 303.527344 995.988281 318.488281 982.425781 353.433594 C 978.09375 364.589844 975.898438 376.601562 975.828125 389.210938 C 958.699219 383.367188 943.53125 372.589844 933.09375 355.859375 C 933.003906 355.710938 932.8125 355.667969 932.664062 355.757812 C 932.519531 355.851562 932.476562 356.042969 932.566406 356.1875 C 944.324219 375.039062 960.664062 384.929688 975.828125 390.035156 C 975.859375 407.171875 979.796875 425.398438 987.601562 444.089844 C 1000.101562 474.015625 1021.714844 502.890625 1048.457031 525.402344 C 1072.445312 545.496094 1102.085938 561.371094 1136.554688 572.578125 C 1168.492188 582.960938 1203.785156 589.128906 1241.457031 590.90625 C 1248.929688 591.257812 1256.445312 591.433594 1263.964844 591.433594 Z M 1054.09375 304.976562 C 1054.816406 304.976562 1055.535156 304.992188 1056.246094 305.015625 C 1077.523438 305.730469 1093.464844 316.511719 1098.886719 333.855469 C 1104.324219 351.234375 1090.128906 370.59375 1062.730469 383.171875 C 1036.640625 395.148438 1003.960938 398.644531 976.304688 389.371094 C 976.40625 377.261719 978.503906 365.257812 983.003906 353.65625 C 996.089844 319.953125 1028.550781 304.976562 1054.09375 304.976562 Z M 1054.09375 304.976562" stroke-linecap="round" />
</g>
<g transform="matrix(1.33 0 0 1.33 1165.95 586.04)"  >
<path style="stroke: none; stroke-width: 1; stroke-dasharray: none; stroke-linecap: butt; stroke-dashoffset: 0; stroke-linejoin: miter; stroke-miterlimit: 4; fill: rgb(58,42,121); fill-rule: nonzero; opacity: 1;" vector-effect="non-scaling-stroke"  transform=" translate(-1189.46, -439.53)" d="M 1257.09375 584.890625 C 1324.136719 584.890625 1392.152344 571.0625 1446.21875 546.164062 C 1446.375 546.09375 1446.441406 545.90625 1446.371094 545.75 C 1446.296875 545.59375 1446.113281 545.527344 1445.957031 545.597656 C 1330.621094 598.714844 1143.785156 603.492188 1043.0625 518.59375 C 1004.738281 486.160156 973.429688 435.882812 971.160156 387.992188 C 979.367188 391.242188 987.414062 393.011719 994.460938 393.933594 C 1017.421875 396.933594 1043.164062 392.71875 1065.078125 382.363281 C 1095.085938 368.183594 1110.292969 346.261719 1103.828125 326.515625 C 1097.519531 307.257812 1079.621094 295.1875 1055.949219 294.226562 C 1028.828125 293.121094 992.847656 307.941406 978.078125 343.09375 C 972.375 356.660156 969.820312 371.492188 970.394531 387.148438 C 955.625 381.011719 942.605469 370.828125 933.097656 355.867188 C 933.003906 355.722656 932.8125 355.679688 932.667969 355.773438 C 932.519531 355.863281 932.476562 356.058594 932.570312 356.203125 C 943.019531 372.636719 956.894531 382.195312 970.414062 387.691406 C 971.054688 403.101562 974.714844 419.304688 981.386719 435.882812 C 993.71875 466.523438 1015.480469 496.066406 1042.660156 519.070312 C 1066.894531 539.5 1096.972656 555.53125 1132.054688 566.726562 C 1164.546875 577.097656 1200.488281 583.09375 1238.886719 584.546875 C 1244.9375 584.777344 1251.011719 584.890625 1257.09375 584.890625 Z M 1053.105469 294.789062 C 1054.054688 294.789062 1054.992188 294.808594 1055.921875 294.847656 C 1079.324219 295.800781 1097.011719 307.710938 1103.234375 326.710938 C 1109.597656 346.140625 1094.515625 367.765625 1064.8125 381.800781 C 1035.824219 395.496094 1000.179688 399.210938 971.136719 387.453125 C 970.484375 372.285156 972.753906 357.363281 978.652344 343.335938 C 992.800781 309.664062 1026.542969 294.789062 1053.105469 294.789062 Z M 1053.105469 294.789062" stroke-linecap="round" />
</g>
<g transform="matrix(1.33 0 0 1.33 1166.57 574.88)"  >
<path style="stroke: none; stroke-width: 1; stroke-dasharray: none; stroke-linecap: butt; stroke-dashoffset: 0; stroke-linejoin: miter; stroke-miterlimit: 4; fill: rgb(58,42,121); fill-rule: nonzero; opacity: 1;" vector-effect="non-scaling-stroke"  transform=" translate(-1189.93, -431.16)" d="M 1250.328125 578.394531 C 1320.21875 578.394531 1391.230469 563.425781 1447.148438 536.675781 C 1447.304688 536.601562 1447.371094 536.417969 1447.296875 536.261719 C 1447.222656 536.109375 1447.035156 536.042969 1446.882812 536.113281 C 1329.585938 592.21875 1139.625 599.050781 1037.265625 512.265625 C 999.96875 480.53125 969.675781 432.238281 965.851562 385.398438 C 976.171875 390.277344 986.539062 392.636719 995.347656 393.703125 C 1018.65625 396.515625 1044.847656 391.914062 1067.203125 381.082031 C 1099.519531 365.421875 1115.601562 341.195312 1108.171875 319.363281 C 1101.058594 298.464844 1081.425781 285.253906 1055.652344 284.019531 C 1039.738281 283.253906 1023.050781 287.238281 1008.683594 295.230469 C 992.9375 303.992188 980.847656 316.96875 973.730469 332.753906 C 966.636719 348.484375 963.75 365.914062 965.058594 384.386719 C 952.53125 378.195312 941.496094 368.855469 933.097656 355.878906 C 933.003906 355.734375 932.8125 355.691406 932.664062 355.785156 C 932.519531 355.878906 932.480469 356.074219 932.574219 356.21875 C 941.714844 370.339844 953.351562 379.34375 965.105469 385.042969 C 966.152344 398.773438 969.507812 413.074219 975.171875 427.675781 C 987.335938 459.03125 1009.242188 489.242188 1036.863281 512.742188 C 1061.347656 533.5 1091.859375 549.695312 1127.554688 560.878906 C 1160.601562 571.234375 1197.195312 577.058594 1236.316406 578.191406 C 1240.976562 578.324219 1245.652344 578.394531 1250.328125 578.394531 Z M 1052.042969 284.554688 C 1053.25 284.554688 1054.445312 284.585938 1055.621094 284.640625 C 1081.132812 285.863281 1100.554688 298.917969 1107.582031 319.5625 C 1114.902344 341.078125 1098.945312 365.007812 1066.929688 380.523438 C 1035.535156 395.738281 996.347656 399.484375 965.800781 384.75 C 964.441406 366.953125 966.917969 349.378906 974.296875 333.011719 C 989.484375 299.335938 1024.464844 284.554688 1052.042969 284.554688 Z M 1052.042969 284.554688" stroke-linecap="round" />
</g>
<g transform="matrix(1.33 0 0 1.33 1167.19 563.72)"  >
<path style="stroke: none; stroke-width: 1; stroke-dasharray: none; stroke-linecap: butt; stroke-dashoffset: 0; stroke-linejoin: miter; stroke-miterlimit: 4; fill: rgb(58,42,121); fill-rule: nonzero; opacity: 1;" vector-effect="non-scaling-stroke"  transform=" translate(-1190.39, -422.79)" d="M 1243.65625 571.933594 C 1316.371094 571.933594 1390.351562 555.804688 1448.082031 527.191406 C 1448.238281 527.113281 1448.300781 526.925781 1448.222656 526.773438 C 1448.148438 526.617188 1447.960938 526.554688 1447.804688 526.632812 C 1387.539062 556.5 1309.511719 572.757812 1233.757812 571.210938 C 1150.691406 569.523438 1078.851562 546.339844 1031.46875 505.9375 C 995.089844 474.820312 965.6875 428.28125 960.59375 382.441406 C 971.011719 388.292969 982.992188 392.035156 996.261719 393.511719 C 1019.929688 396.144531 1046.574219 391.175781 1069.367188 379.878906 C 1103.992188 362.71875 1120.929688 336.15625 1112.515625 312.210938 C 1104.597656 289.679688 1083.238281 275.3125 1055.378906 273.777344 C 1038.703125 272.859375 1021.242188 276.746094 1006.199219 284.726562 C 989.773438 293.441406 977.042969 306.472656 969.382812 322.417969 C 960.855469 340.164062 957.648438 360.082031 959.777344 381.257812 C 949.457031 375.234375 940.335938 366.878906 933.097656 355.890625 C 933.003906 355.746094 932.808594 355.707031 932.667969 355.800781 C 932.523438 355.894531 932.480469 356.089844 932.578125 356.234375 C 939.710938 367.066406 948.90625 375.722656 959.855469 382.019531 C 961.144531 394.152344 964.179688 406.695312 968.957031 419.46875 C 980.953125 451.539062 1003.007812 482.414062 1031.0625 506.410156 C 1055.796875 527.5 1086.746094 543.859375 1123.054688 555.03125 C 1156.660156 565.371094 1193.902344 571.023438 1233.746094 571.832031 C 1237.042969 571.898438 1240.351562 571.933594 1243.65625 571.933594 Z M 1050.613281 274.269531 C 1052.207031 274.269531 1053.785156 274.3125 1055.34375 274.398438 C 1082.945312 275.917969 1104.097656 290.132812 1111.929688 312.417969 C 1120.230469 336.046875 1103.414062 362.308594 1069.09375 379.320312 C 1035.226562 396.105469 992.332031 399.816406 960.507812 381.679688 C 958.371094 361.394531 961.015625 341.265625 969.945312 322.6875 C 986.195312 288.867188 1021.304688 274.269531 1050.613281 274.269531 Z M 1050.613281 274.269531" stroke-linecap="round" />
</g>
<g transform="matrix(1.33 0 0 1.33 1167.81 552.56)"  >
<path style="stroke: none; stroke-width: 1; stroke-dasharray: none; stroke-linecap: butt; stroke-dashoffset: 0; stroke-linejoin: miter; stroke-miterlimit: 4; fill: rgb(58,42,121); fill-rule: nonzero; opacity: 1;" vector-effect="non-scaling-stroke"  transform=" translate(-1190.86, -414.42)" d="M 1237.070312 565.511719 C 1312.59375 565.511719 1389.519531 548.199219 1449.015625 517.703125 C 1449.167969 517.625 1449.230469 517.4375 1449.152344 517.285156 C 1449.070312 517.132812 1448.886719 517.070312 1448.730469 517.148438 C 1387.777344 548.390625 1308.476562 565.792969 1231.183594 564.851562 C 1146.539062 563.835938 1073.554688 540.667969 1025.671875 499.605469 C 990.074219 469.007812 961.429688 423.929688 955.328125 378.976562 C 988.351562 400.839844 1035.132812 397.164062 1071.570312 378.742188 C 1088.464844 370.199219 1102.285156 358.683594 1110.488281 346.320312 C 1119.5 332.742188 1121.703125 318.472656 1116.859375 305.0625 C 1108.136719 280.902344 1085.0625 265.367188 1055.128906 263.503906 C 1023.570312 261.539062 983.496094 275.800781 965.035156 312.082031 C 954.554688 332.671875 951.707031 355.152344 954.539062 377.691406 C 946.382812 372.089844 939.113281 364.882812 933.097656 355.902344 C 933 355.757812 932.808594 355.71875 932.667969 355.816406 C 932.523438 355.910156 932.484375 356.105469 932.582031 356.246094 C 938.753906 365.46875 946.242188 372.832031 954.644531 378.519531 C 960.613281 423.8125 989.425781 469.273438 1025.265625 500.078125 C 1050.25 521.503906 1081.636719 538.023438 1118.554688 549.179688 C 1152.71875 559.507812 1190.609375 564.988281 1231.175781 565.476562 C 1233.136719 565.5 1235.109375 565.511719 1237.070312 565.511719 Z M 1049.375 263.953125 C 1051.308594 263.953125 1053.210938 264.011719 1055.089844 264.128906 C 1084.765625 265.972656 1107.640625 281.355469 1116.273438 305.273438 C 1125.578125 331.042969 1107.921875 359.660156 1071.289062 378.183594 C 1034.867188 396.601562 988.066406 400.222656 955.21875 378.152344 C 952.289062 355.550781 955.085938 333.003906 965.589844 312.363281 C 982.824219 278.496094 1019.058594 263.953125 1049.375 263.953125 Z M 1049.375 263.953125" stroke-linecap="round" />
</g>
<g transform="matrix(1.33 0 0 1.33 1168.43 541.39)"  >
<path style="stroke: none; stroke-width: 1; stroke-dasharray: none; stroke-linecap: butt; stroke-dashoffset: 0; stroke-linejoin: miter; stroke-miterlimit: 4; fill: rgb(58,42,121); fill-rule: nonzero; opacity: 1;" vector-effect="non-scaling-stroke"  transform=" translate(-1191.32, -406.04)" d="M 1230.558594 559.121094 C 1308.875 559.121094 1388.726562 540.609375 1449.949219 508.214844 C 1450.101562 508.136719 1450.160156 507.945312 1450.078125 507.796875 C 1449.996094 507.644531 1449.808594 507.585938 1449.65625 507.667969 C 1388.015625 540.277344 1307.464844 558.820312 1228.605469 558.496094 C 1142.390625 558.15625 1068.261719 534.992188 1019.875 493.277344 C 984.867188 463.039062 956.820312 419.117188 949.964844 374.90625 C 983.742188 401.300781 1034.703125 397.796875 1073.808594 377.660156 C 1091.691406 368.453125 1106.285156 356.011719 1114.90625 342.628906 C 1124.394531 327.898438 1126.574219 312.433594 1121.203125 297.910156 C 1111.664062 272.097656 1086.832031 255.378906 1054.773438 253.1875 C 1022.058594 250.953125 980.265625 265.09375 960.6875 301.746094 C 948.621094 324.160156 945.578125 348.820312 949.117188 373.433594 C 943.15625 368.585938 937.761719 362.773438 933.097656 355.914062 C 933.003906 355.769531 932.808594 355.730469 932.667969 355.828125 C 932.523438 355.925781 932.488281 356.121094 932.585938 356.261719 C 937.417969 363.375 943.039062 369.375 949.253906 374.34375 C 955.960938 418.933594 984.183594 463.273438 1019.46875 493.75 C 1067.964844 535.5625 1142.238281 558.777344 1228.605469 559.117188 C 1229.253906 559.121094 1229.910156 559.121094 1230.558594 559.121094 Z M 1048.03125 253.582031 C 1050.300781 253.582031 1052.535156 253.65625 1054.730469 253.808594 C 1086.535156 255.984375 1111.167969 272.550781 1120.621094 298.125 C 1125.917969 312.460938 1123.761719 327.734375 1114.382812 342.292969 C 1105.820312 355.582031 1091.3125 367.945312 1073.523438 377.105469 C 1034.414062 397.246094 983.394531 400.679688 949.828125 374.003906 C 946.15625 349.296875 949.132812 324.527344 961.234375 302.039062 C 979.371094 268.09375 1016.703125 253.582031 1048.03125 253.582031 Z M 1048.03125 253.582031" stroke-linecap="round" />
</g>
<g transform="matrix(1.33 0 0 1.33 1169.05 530.24)"  >
<path style="stroke: none; stroke-width: 1; stroke-dasharray: none; stroke-linecap: butt; stroke-dashoffset: 0; stroke-linejoin: miter; stroke-miterlimit: 4; fill: rgb(58,42,121); fill-rule: nonzero; opacity: 1;" vector-effect="non-scaling-stroke"  transform=" translate(-1191.79, -397.68)" d="M 1224.148438 552.765625 C 1224.777344 552.765625 1225.402344 552.761719 1226.035156 552.761719 C 1265.4375 552.609375 1306.792969 547.574219 1345.632812 538.203125 C 1384.191406 528.898438 1420.585938 515.246094 1450.878906 498.730469 C 1451.03125 498.648438 1451.085938 498.457031 1451.003906 498.308594 C 1450.921875 498.15625 1450.734375 498.101562 1450.582031 498.183594 C 1388.257812 532.164062 1306.414062 551.828125 1226.03125 552.136719 C 1225.40625 552.140625 1224.773438 552.140625 1224.148438 552.140625 C 1137.160156 552.140625 1062.617188 529.019531 1014.078125 486.949219 C 979.527344 456.964844 951.964844 413.878906 944.566406 370.183594 C 958.757812 383.390625 977.292969 391.25 999.0625 393.144531 C 1023.789062 395.292969 1051.796875 389.304688 1075.902344 376.714844 C 1094.792969 366.847656 1110.1875 353.46875 1119.253906 339.042969 C 1129.253906 323.132812 1131.429688 306.4375 1125.550781 290.757812 C 1115.144531 263.324219 1088.5625 245.429688 1054.449219 242.886719 C 1035.546875 241.476562 1015.746094 245.085938 998.691406 253.054688 C 980.226562 261.671875 965.582031 274.9375 956.339844 291.410156 C 943.535156 314.117188 939.304688 340.402344 943.753906 368.519531 C 939.894531 364.792969 936.328125 360.601562 933.101562 355.921875 C 933 355.78125 932.808594 355.746094 932.667969 355.84375 C 932.523438 355.941406 932.488281 356.136719 932.585938 356.277344 C 935.960938 361.171875 939.75 365.609375 943.921875 369.578125 C 945.296875 377.855469 947.414062 386.285156 950.289062 394.832031 C 961.789062 429.050781 984.296875 461.929688 1013.667969 487.417969 C 1062.320312 529.585938 1137.019531 552.765625 1224.148438 552.765625 Z M 1046.65625 243.222656 C 1049.285156 243.222656 1051.867188 243.320312 1054.402344 243.507812 C 1088.269531 246.03125 1114.648438 263.777344 1124.964844 290.980469 C 1130.777344 306.464844 1128.617188 322.972656 1118.726562 338.714844 C 1109.71875 353.042969 1094.410156 366.34375 1075.613281 376.164062 C 1033.726562 398.042969 978.257812 401.140625 944.390625 369.128906 C 940.097656 342.582031 943.273438 315.84375 956.882812 291.714844 C 975.972656 257.699219 1014.363281 243.222656 1046.65625 243.222656 Z M 1046.65625 243.222656" stroke-linecap="round" />
</g>
<g transform="matrix(1.33 0 0 1.33 1169.67 519.07)"  >
<path style="stroke: none; stroke-width: 1; stroke-dasharray: none; stroke-linecap: butt; stroke-dashoffset: 0; stroke-linejoin: miter; stroke-miterlimit: 4; fill: rgb(58,42,121); fill-rule: nonzero; opacity: 1;" vector-effect="non-scaling-stroke"  transform=" translate(-1192.25, -389.3)" d="M 1217.839844 546.433594 C 1219.710938 546.433594 1221.578125 546.425781 1223.464844 546.402344 C 1263.5625 545.949219 1305.613281 540.46875 1345.0625 530.558594 C 1384.273438 520.710938 1421.1875 506.421875 1451.8125 489.242188 C 1451.960938 489.160156 1452.015625 488.96875 1451.933594 488.820312 C 1451.847656 488.667969 1451.65625 488.617188 1451.507812 488.699219 C 1388.503906 524.046875 1305.382812 544.851562 1223.457031 545.78125 C 1134.121094 546.78125 1057.675781 523.652344 1008.28125 480.617188 C 973.890625 450.640625 946.617188 407.910156 938.96875 364.355469 C 954.019531 381.210938 974.957031 391.085938 1000.121094 393.074219 C 1025.253906 395.058594 1053.746094 388.722656 1078.300781 375.683594 C 1098.15625 365.140625 1114.296875 350.828125 1123.75 335.382812 C 1134.203125 318.304688 1136.328125 300.402344 1129.894531 283.609375 C 1118.722656 254.597656 1090.5 235.511719 1054.398438 232.554688 C 1034.738281 230.941406 1014.105469 234.445312 996.320312 242.414062 C 977.117188 251.019531 961.789062 264.386719 951.992188 281.074219 C 937.953125 304.929688 933.296875 332.710938 938.167969 362.480469 C 936.402344 360.414062 934.710938 358.234375 933.101562 355.933594 C 933.003906 355.792969 932.808594 355.757812 932.667969 355.859375 C 932.527344 355.957031 932.492188 356.152344 932.589844 356.292969 C 934.402344 358.882812 936.332031 361.34375 938.371094 363.675781 C 939.664062 371.214844 941.570312 378.875 944.085938 386.628906 C 955.253906 421.054688 978.503906 455.484375 1007.871094 481.089844 C 1056.335938 523.3125 1130.746094 546.433594 1217.839844 546.433594 Z M 1044.738281 232.785156 C 1047.929688 232.785156 1051.132812 232.914062 1054.347656 233.175781 C 1090.207031 236.113281 1118.230469 255.050781 1129.3125 283.832031 C 1135.675781 300.4375 1133.566406 318.152344 1123.21875 335.054688 C 1113.824219 350.40625 1097.765625 364.640625 1078.007812 375.132812 C 1033.019531 399.019531 972.480469 401.710938 938.765625 363.171875 C 934.078125 335.148438 937.554688 306.832031 952.527344 281.390625 C 970.027344 251.585938 1006.261719 232.785156 1044.738281 232.785156 Z M 1044.738281 232.785156" stroke-linecap="round" />
</g>
<g transform="matrix(1.33 0 0 1.33 1163.03 522.7)"  >
<path style="stroke: none; stroke-width: 1; stroke-dasharray: none; stroke-linecap: butt; stroke-dashoffset: 0; stroke-linejoin: miter; stroke-miterlimit: 4; fill: rgb(58,42,121); fill-rule: nonzero; opacity: 1;" vector-effect="non-scaling-stroke"  transform=" translate(-1191.71, -380.93)" d="M 1211.605469 540.132812 C 1214.6875 540.132812 1217.777344 540.101562 1220.890625 540.046875 C 1261.691406 539.285156 1304.429688 533.363281 1344.492188 522.917969 C 1384.359375 512.523438 1421.792969 497.597656 1452.746094 479.757812 C 1452.894531 479.671875 1452.945312 479.480469 1452.859375 479.332031 C 1452.773438 479.179688 1452.582031 479.128906 1452.433594 479.214844 C 1325.703125 552.265625 1109.746094 568.210938 1002.484375 474.289062 C 967.847656 443.960938 940.605469 400.925781 933.078125 356.984375 C 948.628906 378.492188 972.164062 390.949219 1001.191406 393.027344 C 1003.960938 393.222656 1006.777344 393.320312 1009.617188 393.320312 C 1032.972656 393.324219 1058.425781 386.707031 1080.722656 374.6875 C 1101.535156 363.46875 1118.417969 348.21875 1128.261719 331.742188 C 1139.164062 313.492188 1141.230469 294.375 1134.238281 276.457031 C 1122.304688 245.875 1092.449219 225.597656 1054.371094 222.210938 C 1033.9375 220.394531 1012.480469 223.785156 993.957031 231.761719 C 974.011719 240.351562 957.996094 253.832031 947.644531 270.738281 C 928.824219 301.476562 925.445312 338.714844 937.882812 378.425781 C 948.882812 413.558594 972.28125 448.671875 1002.074219 474.757812 C 1050.378906 517.058594 1124.527344 540.132812 1211.605469 540.132812 Z M 1043.3125 222.34375 C 1046.96875 222.34375 1050.636719 222.503906 1054.316406 222.832031 C 1092.152344 226.195312 1121.8125 246.328125 1133.660156 276.683594 C 1148.972656 315.929688 1117.957031 353.910156 1080.425781 374.140625 C 1032.097656 400.191406 965.972656 402.308594 933.101562 355.945312 C 933.046875 355.871094 932.96875 355.828125 932.882812 355.816406 C 928.144531 326.777344 932.054688 297.390625 948.175781 271.0625 C 966.507812 241.121094 1003.800781 222.34375 1043.3125 222.34375 Z M 1043.3125 222.34375" stroke-linecap="round" />
</g>
</svg>