<svg xmlns="http://www.w3.org/2000/svg" xmlns:xlink="http://www.w3.org/1999/xlink" width="2000" zoomAndPan="magnify" viewBox="0 0 1500 1499.999933" height="2000" preserveAspectRatio="xMidYMid meet" version="1.0"><defs><clipPath id="19d60d6d90"><path d="M 108 396 L 1337 396 L 1337 1441.242188 L 108 1441.242188 Z M 108 396 " clip-rule="nonzero"/></clipPath><clipPath id="633bb07033"><path d="M 103 62 L 1408.699219 62 L 1408.699219 858 L 103 858 Z M 103 62 " clip-rule="nonzero"/></clipPath></defs><g clip-path="url(#19d60d6d90)"><path fill="#3a2a79" d="M 1335.738281 1441.042969 C 1336.117188 1441.042969 1336.449219 1440.765625 1336.507812 1440.382812 C 1336.570312 1439.957031 1336.277344 1439.5625 1335.855469 1439.496094 C 1077.128906 1400.183594 783.449219 1249.34375 530.128906 1025.652344 C 415.144531 924.121094 315.660156 813.09375 242.425781 704.574219 C 167.171875 593.070312 121.480469 486.640625 110.289062 396.792969 C 110.234375 396.363281 109.8125 396.066406 109.421875 396.117188 C 108.992188 396.171875 108.691406 396.5625 108.742188 396.984375 C 119.96875 487.074219 165.746094 593.738281 241.132812 705.445312 C 314.445312 814.070312 414.019531 925.203125 529.097656 1026.816406 C 782.636719 1250.707031 1076.605469 1401.679688 1335.621094 1441.035156 C 1335.660156 1441.039062 1335.699219 1441.042969 1335.738281 1441.042969 Z M 1335.738281 1441.042969 " fill-opacity="1" fill-rule="nonzero"/></g><path fill="#3a2a79" d="M 1338.058594 1417.359375 C 1338.449219 1417.359375 1338.785156 1417.066406 1338.832031 1416.667969 C 1338.878906 1416.242188 1338.574219 1415.855469 1338.148438 1415.808594 C 1136.226562 1392.3125 915.941406 1304.007812 717.871094 1167.164062 C 629.257812 1105.839844 544.867188 1033.679688 473.820312 958.484375 C 400.9375 881.839844 341.542969 805.71875 286.953125 734.320312 C 214.867188 640.042969 129.644531 516.476562 110.289062 396.796875 C 110.21875 396.375 109.804688 396.085938 109.398438 396.152344 C 108.972656 396.222656 108.683594 396.621094 108.75 397.046875 C 128.160156 517.066406 213.523438 640.84375 285.714844 735.265625 C 340.332031 806.695312 399.757812 882.855469 472.6875 959.554688 C 543.808594 1034.824219 628.285156 1107.058594 716.984375 1168.445312 C 915.261719 1305.433594 1135.796875 1393.828125 1337.964844 1417.351562 C 1337.996094 1417.355469 1338.027344 1417.359375 1338.058594 1417.359375 Z M 1338.058594 1417.359375 " fill-opacity="1" fill-rule="nonzero"/><path fill="#3a2a79" d="M 1340.378906 1393.671875 C 1340.777344 1393.671875 1341.117188 1393.363281 1341.152344 1392.953125 C 1341.1875 1392.527344 1340.867188 1392.152344 1340.441406 1392.113281 C 1129.628906 1374.835938 897.433594 1287.085938 703.394531 1151.359375 C 614.109375 1088.707031 528.730469 1011.058594 462.980469 932.71875 C 422.386719 884.347656 389.671875 839.707031 358.039062 796.539062 C 337.273438 768.203125 317.660156 741.4375 297.796875 716.457031 L 293.253906 710.746094 C 214.074219 611.214844 132.199219 508.300781 110.289062 396.804688 C 110.207031 396.382812 109.808594 396.109375 109.375 396.191406 C 108.953125 396.273438 108.679688 396.683594 108.761719 397.105469 C 130.746094 508.96875 212.738281 612.039062 292.03125 711.714844 L 296.578125 717.429688 C 316.425781 742.382812 336.027344 769.132812 356.78125 797.457031 C 386.957031 838.632812 421.160156 885.308594 461.789062 933.71875 C 527.621094 1012.160156 613.109375 1089.90625 702.5 1152.632812 C 896.761719 1288.511719 1129.234375 1376.367188 1340.3125 1393.664062 C 1340.335938 1393.667969 1340.355469 1393.671875 1340.378906 1393.671875 Z M 1340.378906 1393.671875 " fill-opacity="1" fill-rule="nonzero"/><path fill="#3a2a79" d="M 1342.699219 1369.980469 C 1343.109375 1369.980469 1343.453125 1369.65625 1343.472656 1369.242188 C 1343.496094 1368.8125 1343.164062 1368.449219 1342.734375 1368.425781 C 1124.316406 1357.789062 879.898438 1270.730469 688.917969 1135.550781 C 596.660156 1069.960938 512.574219 988.777344 452.148438 906.957031 C 423.25 867.828125 399.535156 831.058594 378.613281 798.617188 C 353.976562 760.414062 332.695312 727.421875 308.636719 698.589844 C 296.125 683.597656 282.855469 668.261719 270.019531 653.433594 C 202.535156 575.453125 132.753906 494.820312 110.289062 396.8125 C 110.195312 396.394531 109.785156 396.125 109.355469 396.226562 C 108.9375 396.324219 108.675781 396.742188 108.769531 397.160156 C 131.324219 495.546875 201.234375 576.328125 268.84375 654.449219 C 281.671875 669.277344 294.941406 684.605469 307.441406 699.585938 C 331.441406 728.34375 352.695312 761.300781 377.304688 799.460938 C 398.238281 831.921875 421.96875 868.710938 450.894531 907.882812 C 511.417969 989.832031 595.628906 1071.140625 688.019531 1136.820312 C 783.488281 1204.398438 894.367188 1261.417969 1008.675781 1301.714844 C 1120.625 1341.183594 1236.117188 1364.789062 1342.660156 1369.980469 C 1342.671875 1369.980469 1342.683594 1369.980469 1342.699219 1369.980469 Z M 1342.699219 1369.980469 " fill-opacity="1" fill-rule="nonzero"/><path fill="#3a2a79" d="M 1345.015625 1346.296875 C 1345.441406 1346.296875 1345.789062 1345.957031 1345.792969 1345.53125 C 1345.800781 1345.101562 1345.457031 1344.746094 1345.027344 1344.738281 C 1116.628906 1340.960938 865.941406 1256.851562 674.445312 1119.75 C 580.375 1052.03125 495.398438 965.082031 441.308594 881.199219 C 417.414062 844.136719 399.070312 810.421875 382.886719 780.679688 C 361.402344 741.191406 342.847656 707.089844 319.472656 680.71875 C 303.246094 662.414062 285.492188 644.28125 266.695312 625.082031 C 204.75 561.816406 134.539062 490.109375 110.289062 396.824219 C 110.183594 396.410156 109.769531 396.15625 109.339844 396.265625 C 108.925781 396.375 108.675781 396.800781 108.785156 397.214844 C 133.136719 490.898438 203.503906 562.765625 265.585938 626.171875 C 284.367188 645.355469 302.109375 663.472656 318.308594 681.753906 C 341.566406 707.988281 360.082031 742.019531 381.515625 781.421875 C 397.714844 811.191406 416.070312 844.933594 440.003906 882.042969 C 494.191406 966.082031 579.3125 1053.183594 673.535156 1121.011719 C 865.28125 1258.292969 1116.296875 1342.511719 1345.003906 1346.296875 Z M 1345.015625 1346.296875 " fill-opacity="1" fill-rule="nonzero"/><path fill="#3a2a79" d="M 1333.402344 1322.707031 C 1338.066406 1322.707031 1342.714844 1322.671875 1347.347656 1322.609375 C 1347.777344 1322.601562 1348.121094 1322.25 1348.113281 1321.820312 C 1348.109375 1321.394531 1347.761719 1321.050781 1347.335938 1321.050781 L 1347.324219 1321.050781 C 1113.121094 1324.523438 849.6875 1241.273438 659.96875 1103.941406 C 562.625 1033.035156 478.976562 942.460938 430.46875 855.445312 C 409.222656 817.328125 394.691406 784.074219 381.867188 754.730469 C 364.78125 715.625 351.28125 684.734375 330.304688 662.84375 C 313.449219 645.257812 293.335938 627.5 272.039062 608.695312 C 208.78125 552.847656 137.082031 489.550781 110.289062 396.835938 C 110.167969 396.421875 109.746094 396.1875 109.324219 396.304688 C 108.910156 396.421875 108.675781 396.855469 108.792969 397.265625 C 135.710938 490.417969 207.589844 553.875 271.007812 609.863281 C 292.28125 628.644531 312.371094 646.382812 329.179688 663.921875 C 349.964844 685.609375 363.414062 716.390625 380.441406 755.355469 C 393.28125 784.726562 407.828125 818.019531 429.113281 856.199219 C 477.726562 943.410156 561.535156 1034.164062 659.054688 1105.203125 C 755.605469 1175.089844 872.066406 1232.066406 995.855469 1269.972656 C 1108.78125 1304.550781 1225.160156 1322.707031 1333.402344 1322.707031 Z M 1333.402344 1322.707031 " fill-opacity="1" fill-rule="nonzero"/><path fill="#3a2a79" d="M 1306.207031 1299.882812 C 1320.839844 1299.882812 1335.335938 1299.5625 1349.691406 1298.917969 C 1350.121094 1298.902344 1350.453125 1298.535156 1350.433594 1298.109375 C 1350.414062 1297.679688 1350.042969 1297.304688 1349.621094 1297.367188 C 1106.566406 1308.230469 836.761719 1228.0625 645.492188 1088.136719 C 546.289062 1015.054688 461.851562 918.441406 419.628906 829.691406 C 400.117188 788.679688 388.660156 753.28125 379.457031 724.835938 C 367.613281 688.242188 359.058594 661.800781 341.128906 644.964844 C 325.273438 630.074219 304.652344 614.644531 282.816406 598.3125 C 219.316406 550.804688 140.292969 491.683594 110.289062 396.847656 C 110.160156 396.441406 109.71875 396.207031 109.3125 396.339844 C 108.902344 396.46875 108.675781 396.90625 108.804688 397.316406 C 138.957031 492.632812 218.207031 551.917969 281.886719 599.558594 C 303.683594 615.863281 324.269531 631.265625 340.066406 646.097656 C 357.699219 662.660156 366.203125 688.941406 377.976562 725.316406 C 387.195312 753.800781 398.667969 789.257812 418.222656 830.359375 C 460.550781 919.328125 545.171875 1016.164062 644.570312 1089.390625 C 741.878906 1160.578125 861.132812 1217.535156 989.441406 1254.097656 C 1095.230469 1284.246094 1203.832031 1299.882812 1306.207031 1299.882812 Z M 1306.207031 1299.882812 " fill-opacity="1" fill-rule="nonzero"/><path fill="#3a2a79" d="M 1279.34375 1277.871094 C 1303.921875 1277.871094 1328.191406 1276.992188 1352.03125 1275.230469 C 1352.460938 1275.199219 1352.78125 1274.824219 1352.753906 1274.398438 C 1352.71875 1273.96875 1352.320312 1273.6875 1351.917969 1273.679688 C 1104.253906 1292.007812 821.285156 1212.960938 631.019531 1072.332031 C 528.476562 995.972656 445.394531 895.640625 408.78125 803.933594 C 390.691406 758.628906 383.355469 722.125 377.460938 692.792969 C 370.941406 660.355469 366.632812 638.929688 351.9375 627.074219 C 338.117188 615.925781 319.652344 604.519531 298.273438 591.308594 C 233.285156 551.167969 144.285156 496.191406 110.289062 396.863281 C 110.148438 396.457031 109.710938 396.238281 109.300781 396.378906 C 108.890625 396.519531 108.675781 396.960938 108.816406 397.367188 C 142.992188 497.222656 232.265625 552.371094 297.453125 592.636719 C 318.789062 605.8125 337.214844 617.199219 350.957031 628.28125 C 365.21875 639.785156 369.484375 660.996094 375.933594 693.097656 C 381.84375 722.492188 389.195312 759.074219 407.335938 804.515625 C 444.054688 896.472656 527.328125 997.058594 630.09375 1073.578125 C 728.25 1146.132812 850.292969 1203.0625 983.03125 1238.226562 C 1081.921875 1264.421875 1183.019531 1277.871094 1279.34375 1277.871094 Z M 1279.34375 1277.871094 " fill-opacity="1" fill-rule="nonzero"/><path fill="#3a2a79" d="M 1253.117188 1256.59375 C 1287.503906 1256.59375 1321.355469 1254.917969 1354.375 1251.542969 C 1354.800781 1251.496094 1355.113281 1251.117188 1355.070312 1250.6875 C 1355.027344 1250.261719 1354.644531 1249.949219 1354.21875 1249.992188 C 1098.582031 1276.132812 809.015625 1200.191406 616.542969 1056.527344 C 512.222656 978.042969 428.457031 871.390625 397.933594 778.183594 C 381.265625 727.277344 378.8125 688.207031 377.015625 659.675781 C 375.386719 633.679688 374.304688 616.507812 362.714844 609.167969 C 351.898438 602.316406 336.789062 594.957031 319.292969 586.433594 C 251.667969 553.488281 149.472656 503.707031 110.289062 396.878906 C 110.140625 396.476562 109.695312 396.269531 109.289062 396.414062 C 108.886719 396.5625 108.679688 397.011719 108.828125 397.414062 C 148.226562 504.832031 250.761719 554.78125 318.609375 587.832031 C 336.066406 596.335938 351.140625 603.679688 361.882812 610.480469 C 372.800781 617.398438 373.804688 633.347656 375.464844 659.773438 C 377.261719 688.386719 379.722656 727.574219 396.453125 778.667969 C 427.070312 872.160156 511.046875 979.105469 615.609375 1057.769531 C 714.695312 1131.734375 839.53125 1188.644531 976.621094 1222.351562 C 1068.898438 1245.042969 1162.855469 1256.59375 1253.117188 1256.59375 Z M 1253.117188 1256.59375 " fill-opacity="1" fill-rule="nonzero"/><path fill="#3a2a79" d="M 1229.199219 1235.777344 C 1273.007812 1235.777344 1315.839844 1233.15625 1356.714844 1227.851562 C 1357.140625 1227.796875 1357.441406 1227.40625 1357.386719 1226.980469 C 1357.332031 1226.554688 1356.949219 1226.242188 1356.515625 1226.308594 C 1093.140625 1260.46875 797.007812 1187.625 602.066406 1040.722656 C 494.421875 958.941406 412.042969 848.472656 387.082031 752.429688 C 372.148438 694.96875 376.78125 651.3125 379.550781 625.230469 C 381.753906 604.472656 382.976562 592.984375 373.449219 591.234375 C 363.234375 584.414062 346.144531 577.757812 324.527344 569.339844 C 255.519531 542.464844 151.226562 501.851562 110.289062 396.898438 C 110.128906 396.496094 109.683594 396.296875 109.28125 396.457031 C 108.878906 396.609375 108.683594 397.0625 108.835938 397.460938 C 150.027344 503.054688 254.699219 543.816406 323.964844 570.789062 C 345.585938 579.210938 362.664062 585.859375 372.71875 592.617188 C 372.8125 592.679688 372.914062 592.722656 373.023438 592.738281 C 381.289062 594.140625 380.121094 605.125 378.003906 625.0625 C 375.222656 651.253906 370.566406 695.085938 385.574219 752.824219 C 410.621094 849.1875 493.214844 959.976562 601.128906 1041.960938 C 701.199219 1117.375 828.824219 1174.261719 970.207031 1206.476562 C 1055.34375 1225.875 1144.101562 1235.777344 1229.199219 1235.777344 Z M 1229.199219 1235.777344 " fill-opacity="1" fill-rule="nonzero"/><path fill="#3a2a79" d="M 1204.113281 1215.699219 C 1257.535156 1215.699219 1309.738281 1211.871094 1359.054688 1204.160156 C 1359.480469 1204.09375 1359.769531 1203.695312 1359.703125 1203.269531 C 1359.636719 1202.847656 1359.226562 1202.558594 1358.816406 1202.625 C 1136.871094 1237.320312 812.324219 1195.835938 587.589844 1024.914062 C 478.300781 941.101562 395.335938 824.035156 376.226562 726.679688 C 362.9375 658.953125 377.820312 612.453125 384.976562 590.105469 C 388.050781 580.503906 389.59375 575.683594 387.75 573.78125 C 386.78125 572.78125 385.25 572.984375 384.078125 573.292969 C 376.769531 569.847656 364 566.40625 347.886719 562.066406 C 281.242188 544.117188 157.191406 510.703125 110.289062 396.914062 C 110.125 396.515625 109.664062 396.328125 109.273438 396.492188 C 108.875 396.65625 108.6875 397.109375 108.851562 397.507812 C 156.046875 512.007812 280.578125 545.550781 347.484375 563.570312 C 363.714844 567.941406 376.535156 571.394531 383.667969 574.820312 C 383.839844 574.90625 384.039062 574.917969 384.21875 574.867188 C 385.082031 574.621094 386.199219 574.421875 386.632812 574.867188 C 387.824219 576.097656 385.914062 582.070312 383.492188 589.628906 C 376.300781 612.101562 361.332031 658.859375 374.699219 726.976562 C 393.878906 824.6875 477.070312 942.121094 586.644531 1026.148438 C 687.753906 1103.046875 818.167969 1159.914062 963.792969 1190.601562 C 1042.878906 1207.269531 1124.835938 1215.699219 1204.113281 1215.699219 Z M 1204.113281 1215.699219 " fill-opacity="1" fill-rule="nonzero"/><path fill="#3a2a79" d="M 1179.222656 1196.199219 C 1242.203125 1196.199219 1303.78125 1190.972656 1361.394531 1180.472656 C 1361.816406 1180.394531 1362.097656 1179.988281 1362.019531 1179.566406 C 1361.941406 1179.144531 1361.527344 1178.863281 1361.117188 1178.941406 C 1132.621094 1220.578125 800.351562 1184.210938 573.117188 1009.109375 C 460.601562 922.410156 379.058594 801.441406 365.367188 700.921875 C 353.464844 613.503906 389.539062 564.167969 396.148438 556.039062 C 397.582031 554.523438 397.65625 554.320312 397.324219 553.816406 C 397.125 553.511719 396.738281 553.390625 396.398438 553.515625 C 396.375 553.523438 396.257812 553.640625 396.058594 553.855469 L 396.019531 553.832031 C 395.96875 553.902344 395.566406 554.390625 394.59375 555.414062 C 390.777344 554.617188 384.707031 553.808594 377.097656 552.792969 C 319.253906 545.085938 165.601562 524.613281 110.289062 396.933594 C 110.117188 396.539062 109.652344 396.359375 109.265625 396.53125 C 108.867188 396.699219 108.6875 397.160156 108.859375 397.554688 C 164.523438 526.039062 318.8125 546.597656 376.894531 554.335938 C 384.058594 555.292969 389.851562 556.0625 393.636719 556.808594 C 383.921875 569.460938 352.5625 618.414062 363.828125 701.132812 C 377.566406 802.035156 459.347656 923.40625 572.167969 1010.34375 C 674.109375 1088.894531 807.269531 1145.792969 957.253906 1174.890625 C 1030.367188 1189.078125 1105.746094 1196.199219 1179.222656 1196.199219 Z M 1179.222656 1196.199219 " fill-opacity="1" fill-rule="nonzero"/><path fill="#3a2a79" d="M 1155.714844 1177.113281 C 1227.820312 1177.113281 1298.386719 1170.328125 1363.734375 1156.78125 C 1364.152344 1156.691406 1364.425781 1156.28125 1364.335938 1155.859375 C 1364.25 1155.441406 1363.84375 1155.171875 1363.417969 1155.257812 C 1136.65625 1202.269531 788.097656 1171.644531 558.640625 993.300781 C 442.832031 903.289062 362.707031 778.414062 354.511719 675.167969 C 348.679688 601.730469 377.613281 555.808594 394.941406 540.136719 C 400.082031 539.875 403.796875 539.503906 405.828125 539.183594 C 406.101562 539.140625 406.332031 538.957031 406.429688 538.699219 C 407.464844 536.078125 407.460938 534.261719 406.425781 533.300781 C 405.734375 532.664062 404.300781 532.195312 401.410156 533.59375 C 399.457031 534.539062 397.054688 536.21875 394.363281 538.613281 C 372.503906 539.695312 325.648438 538.832031 273.789062 524.617188 C 218.761719 509.53125 145.726562 475.136719 110.289062 396.953125 C 110.113281 396.5625 109.648438 396.390625 109.257812 396.566406 C 108.867188 396.746094 108.695312 397.207031 108.871094 397.597656 C 144.558594 476.328125 218.027344 510.945312 273.378906 526.117188 C 323.960938 539.984375 369.867188 541.1875 392.605469 540.246094 C 374.867188 557.367188 347.242188 603.273438 352.957031 675.292969 C 357.0625 726.984375 379.203125 784.941406 416.988281 842.890625 C 453.558594 898.976562 502.210938 951.414062 557.6875 994.53125 C 660.730469 1074.621094 796.679688 1131.5 950.835938 1159.019531 C 1018.4375 1171.085938 1087.761719 1177.113281 1155.714844 1177.113281 Z M 405.140625 537.710938 C 403.371094 537.96875 400.570312 538.246094 396.878906 538.476562 C 398.832031 536.878906 400.597656 535.71875 402.089844 534.996094 C 403.960938 534.085938 405.015625 534.113281 405.363281 534.445312 C 405.71875 534.769531 405.828125 535.796875 405.140625 537.710938 Z M 405.140625 537.710938 " fill-opacity="1" fill-rule="nonzero"/><path fill="#3a2a79" d="M 1133.027344 1158.425781 C 1214.019531 1158.425781 1293.339844 1149.941406 1366.070312 1133.089844 C 1366.488281 1132.992188 1366.75 1132.574219 1366.652344 1132.152344 C 1366.554688 1131.734375 1366.125 1131.472656 1365.71875 1131.574219 C 1133.40625 1185.40625 777.230469 1160.15625 544.164062 977.496094 C 426.898438 885.597656 346.316406 753.746094 343.644531 649.410156 C 342.152344 591.089844 363.085938 550.121094 383.726562 528.835938 C 400.9375 527.21875 412.992188 524.21875 417.027344 521.183594 C 417.191406 521.058594 417.300781 520.875 417.332031 520.671875 C 418.0625 515.628906 416.355469 513.269531 414.796875 512.175781 C 411.679688 509.992188 406.363281 510.71875 399.839844 514.21875 C 394.566406 517.050781 388.765625 521.476562 382.941406 527.4375 C 354.988281 529.972656 313.351562 528.820312 270.414062 518.203125 C 217.285156 505.066406 146.375 473.371094 110.289062 396.976562 C 110.101562 396.585938 109.636719 396.421875 109.25 396.605469 C 108.863281 396.789062 108.695312 397.253906 108.878906 397.640625 C 145.226562 474.589844 216.582031 506.496094 270.039062 519.714844 C 312.199219 530.140625 353.207031 531.429688 381.40625 529.042969 C 360.917969 550.953125 340.617188 591.84375 342.089844 649.449219 C 343.445312 702.480469 363.988281 762.296875 401.492188 822.425781 C 437.601562 880.320312 486.605469 934.367188 543.203125 978.722656 C 647.382812 1060.367188 786.121094 1117.222656 944.417969 1143.144531 C 1006.75 1153.351562 1070.390625 1158.425781 1133.027344 1158.425781 Z M 415.835938 520.125 C 411.808594 522.917969 400.875 525.636719 385.34375 527.207031 C 390.605469 522.035156 395.808594 518.152344 400.574219 515.589844 C 406.46875 512.425781 411.332031 511.644531 413.902344 513.449219 C 415.984375 514.90625 416.121094 517.820312 415.835938 520.125 Z M 415.835938 520.125 " fill-opacity="1" fill-rule="nonzero"/><path fill="#3a2a79" d="M 1111.738281 1140.007812 C 1201.203125 1140.007812 1288.863281 1129.71875 1368.40625 1109.398438 C 1368.824219 1109.292969 1369.074219 1108.867188 1368.96875 1108.449219 C 1368.863281 1108.035156 1368.441406 1107.785156 1368.023438 1107.890625 C 1130.773438 1168.492188 767.234375 1148.59375 529.6875 961.691406 C 409.203125 866.117188 330.070312 730.269531 332.78125 623.652344 C 334.027344 574.566406 351.136719 542.15625 365.269531 523.613281 C 365.785156 522.933594 366.304688 522.269531 366.824219 521.613281 C 400.535156 518.875 423.765625 510.957031 428.09375 503.082031 C 428.15625 502.96875 428.1875 502.84375 428.191406 502.710938 C 428.234375 493.800781 423.320312 488.617188 414.714844 488.488281 C 414.613281 488.484375 414.503906 488.484375 414.402344 488.484375 C 402.699219 488.484375 383.558594 498.238281 366.054688 520.082031 C 355.898438 520.894531 344.871094 521.234375 333.257812 520.96875 C 283.9375 519.820312 163.496094 505.441406 110.289062 396.996094 C 110.101562 396.609375 109.636719 396.449219 109.246094 396.640625 C 108.863281 396.832031 108.703125 397.296875 108.890625 397.683594 C 162.472656 506.894531 283.621094 521.371094 333.21875 522.523438 C 344.421875 522.785156 354.992188 522.492188 364.71875 521.777344 C 364.488281 522.070312 364.257812 522.371094 364.03125 522.667969 C 349.757812 541.394531 332.480469 574.109375 331.222656 623.613281 C 329.84375 677.921875 348.808594 739.566406 386.0625 801.875 C 421.167969 860.597656 471.835938 917.785156 528.722656 962.910156 C 634.289062 1045.972656 775.859375 1102.75 938.136719 1127.101562 C 995.617188 1135.726562 1054.054688 1140.007812 1111.738281 1140.007812 Z M 426.632812 502.503906 C 422.308594 509.859375 399.691406 517.144531 368.203125 519.902344 C 385.265625 499.085938 403.648438 489.8125 414.691406 490.042969 C 422.367188 490.160156 426.601562 494.582031 426.632812 502.503906 Z M 426.632812 502.503906 " fill-opacity="1" fill-rule="nonzero"/><path fill="#3a2a79" d="M 1090.523438 1121.980469 C 1188.433594 1121.980469 1284.464844 1109.734375 1370.742188 1085.707031 C 1371.15625 1085.589844 1371.398438 1085.160156 1371.285156 1084.746094 C 1371.167969 1084.332031 1370.734375 1084.078125 1370.328125 1084.207031 C 1119.988281 1153.929688 745.878906 1128.804688 515.210938 945.882812 C 391.527344 847.027344 313.84375 707.175781 321.914062 597.890625 C 324.332031 565.117188 335.03125 537.855469 349.089844 516.851562 C 363.480469 516.109375 376.976562 514.402344 389.128906 511.949219 C 419.15625 505.886719 438.277344 495.523438 439.039062 484.910156 C 439.867188 473.394531 433.8125 466.316406 422.429688 465.488281 C 408.363281 464.445312 384.214844 473.96875 362.1875 497.527344 C 357.601562 502.4375 352.722656 508.351562 347.964844 515.351562 C 267.054688 519.265625 158.828125 492.566406 110.289062 397.019531 C 110.09375 396.636719 109.621094 396.484375 109.242188 396.679688 C 108.859375 396.875 108.703125 397.339844 108.902344 397.722656 C 154.773438 488.023438 253.511719 517.265625 332.773438 517.269531 C 337.554688 517.269531 342.265625 517.160156 346.890625 516.957031 C 334.386719 535.875 322.976562 562.378906 320.359375 597.777344 C 312.253906 707.550781 390.171875 847.933594 514.242188 947.101562 C 620.980469 1031.746094 765.339844 1088.496094 931.71875 1111.226562 C 984.375 1118.417969 1037.726562 1121.980469 1090.523438 1121.980469 Z M 420.0625 466.957031 C 420.828125 466.957031 421.582031 466.984375 422.316406 467.039062 C 432.867188 467.808594 438.253906 474.113281 437.488281 484.800781 C 436.789062 494.535156 417.6875 504.59375 388.820312 510.425781 C 377.078125 512.796875 364.042969 514.464844 350.1875 515.234375 C 371.746094 483.902344 400.734375 466.957031 420.0625 466.957031 Z M 420.0625 466.957031 " fill-opacity="1" fill-rule="nonzero"/><path fill="#3a2a79" d="M 1069.945312 1104.226562 C 1176.132812 1104.226562 1280.34375 1089.921875 1373.078125 1062.011719 C 1373.492188 1061.890625 1373.722656 1061.457031 1373.597656 1061.042969 C 1373.476562 1060.632812 1373.046875 1060.394531 1372.628906 1060.523438 C 1116.824219 1137.503906 735.191406 1117.421875 500.734375 930.074219 C 373.851562 827.917969 297.621094 684.070312 311.042969 572.125 C 313.824219 548.957031 320.476562 528.976562 329.398438 512.132812 C 354.828125 511.765625 378.394531 508.402344 397.796875 503.171875 C 430.519531 494.351562 450.484375 480.476562 449.894531 466.96875 C 449.222656 451.527344 439.363281 442.308594 422.847656 441.683594 C 402.554688 440.882812 376.851562 453.222656 355.882812 473.820312 C 347.007812 482.539062 336.984375 494.628906 328.414062 510.597656 C 250.761719 511.496094 156.109375 484.367188 110.289062 397.042969 C 110.085938 396.660156 109.613281 396.515625 109.238281 396.714844 C 108.859375 396.914062 108.710938 397.386719 108.910156 397.765625 C 154.882812 485.378906 249.679688 512.855469 327.59375 512.152344 C 319.242188 528.132812 312.382812 547.898438 309.5 571.941406 C 302.667969 628.925781 318.417969 694.277344 355.046875 760.933594 C 389.273438 823.207031 440.667969 883.710938 499.761719 931.292969 C 607.683594 1017.527344 754.835938 1074.257812 925.300781 1095.347656 C 973.316406 1101.289062 1021.84375 1104.226562 1069.945312 1104.226562 Z M 421.210938 443.210938 C 421.746094 443.210938 422.269531 443.21875 422.785156 443.238281 C 438.394531 443.832031 447.707031 452.503906 448.339844 467.035156 C 448.894531 479.777344 429.371094 493.046875 397.390625 501.667969 C 378.320312 506.8125 355.191406 510.136719 330.238281 510.574219 C 354.882812 465.300781 395.957031 443.210938 421.210938 443.210938 Z M 421.210938 443.210938 " fill-opacity="1" fill-rule="nonzero"/><path fill="#3a2a79" d="M 1047.472656 1086.507812 C 1162.628906 1086.507812 1277.417969 1069.953125 1375.414062 1038.324219 C 1375.824219 1038.191406 1376.046875 1037.753906 1375.914062 1037.34375 C 1375.785156 1036.933594 1375.34375 1036.707031 1374.933594 1036.839844 C 1120.121094 1119.085938 722.0625 1104.082031 486.257812 914.269531 C 356.191406 808.804688 281.410156 660.953125 300.175781 546.359375 C 302.4375 532.546875 306.097656 519.832031 310.828125 508.21875 C 343.261719 508.988281 375.769531 504.800781 404.132812 495.785156 C 441.105469 484.035156 462.796875 466.128906 460.742188 449.058594 C 458.390625 429.558594 444.503906 418.113281 422.628906 417.648438 C 386.800781 416.914062 334.386719 447.335938 309.765625 506.726562 C 236.238281 504.964844 153.609375 477.191406 110.289062 397.066406 C 110.085938 396.6875 109.613281 396.546875 109.234375 396.753906 C 108.855469 396.957031 108.714844 397.425781 108.921875 397.804688 C 144.574219 463.753906 205.066406 490.082031 249.535156 500.554688 C 268.660156 505.058594 288.886719 507.589844 309.175781 508.175781 C 304.5 519.746094 300.882812 532.394531 298.636719 546.109375 C 289.089844 604.425781 303.230469 671.632812 339.535156 740.460938 C 373.324219 804.511719 425.082031 866.667969 485.28125 915.480469 C 594.40625 1003.324219 744.34375 1060.03125 918.886719 1079.472656 C 961.222656 1084.1875 1004.375 1086.507812 1047.472656 1086.507812 Z M 421.304688 419.191406 C 421.738281 419.191406 422.164062 419.195312 422.597656 419.203125 C 443.609375 419.648438 456.949219 430.597656 459.195312 449.242188 C 461.160156 465.527344 439.875 482.792969 403.660156 494.304688 C 378.375 502.339844 345.949219 507.402344 311.433594 506.761719 C 335.566406 449.097656 386.136719 419.191406 421.304688 419.191406 Z M 421.304688 419.191406 " fill-opacity="1" fill-rule="nonzero"/><path fill="#3a2a79" d="M 1027.808594 1069.25 C 1150.828125 1069.25 1273.851562 1050.371094 1377.746094 1014.628906 C 1378.152344 1014.488281 1378.371094 1014.046875 1378.230469 1013.640625 C 1378.089844 1013.230469 1377.648438 1013.023438 1377.242188 1013.15625 C 1117.210938 1102.613281 711.503906 1092.816406 471.78125 898.464844 C 410.648438 848.558594 358.664062 784.917969 325.410156 719.277344 C 289.597656 648.597656 277.117188 579.894531 289.304688 520.589844 C 290.441406 515.070312 291.8125 509.707031 293.410156 504.496094 C 333.253906 507.023438 374.519531 501.863281 409.558594 489.453125 C 451.519531 474.585938 475.285156 452.25 471.585938 431.164062 C 467.503906 407.878906 448.996094 393.746094 422.070312 393.351562 C 396.664062 392.996094 367.242188 404.855469 343.183594 425.109375 C 325.871094 439.679688 304.042969 464.503906 292.191406 503.015625 C 223.578125 498.566406 150.980469 470.277344 110.292969 397.089844 C 110.082031 396.714844 109.613281 396.582031 109.234375 396.789062 C 108.859375 396.996094 108.722656 397.472656 108.929688 397.847656 C 145.65625 463.90625 206.816406 489.214844 251.65625 498.8125 C 264.636719 501.589844 278.117188 503.441406 291.773438 504.386719 C 290.257812 509.449219 288.914062 514.742188 287.78125 520.277344 C 275.519531 579.929688 288.050781 648.984375 324.023438 719.984375 C 357.371094 785.8125 409.5 849.628906 470.800781 899.671875 C 610.199219 1012.691406 787.925781 1051.195312 912.46875 1063.597656 C 950.511719 1067.386719 989.167969 1069.25 1027.808594 1069.25 Z M 420.863281 394.902344 C 421.257812 394.902344 421.648438 394.902344 422.046875 394.910156 C 448.554688 395.296875 466.050781 408.609375 470.054688 431.433594 C 473.613281 451.71875 450.234375 473.390625 409.039062 487.984375 C 378.265625 498.886719 336.886719 505.671875 293.839844 503.117188 C 315.179688 435.542969 373.714844 394.902344 420.863281 394.902344 Z M 420.863281 394.902344 " fill-opacity="1" fill-rule="nonzero"/><path fill="#3a2a79" d="M 1008.691406 1052.1875 C 1139.410156 1052.1875 1270.527344 1030.894531 1380.082031 990.941406 C 1380.484375 990.792969 1380.691406 990.34375 1380.542969 989.941406 C 1380.398438 989.539062 1379.949219 989.328125 1379.546875 989.476562 C 1114.359375 1086.195312 701.015625 1081.625 457.304688 882.660156 C 325.28125 774.167969 251.953125 618.175781 277.058594 500.804688 C 323.28125 505.761719 373.1875 499.789062 414.628906 483.914062 C 461.957031 465.78125 487.941406 438.714844 482.4375 413.28125 C 476.5 385.878906 453.65625 369.253906 421.320312 368.8125 C 420.871094 368.804688 420.417969 368.800781 419.96875 368.800781 C 392.523438 368.800781 362.300781 380.191406 336.824219 400.1875 C 316.050781 416.488281 288.789062 446.078125 276.917969 494.453125 C 276.53125 496.035156 276.15625 497.632812 275.804688 499.230469 C 212.417969 492.300781 148.335938 463.789062 110.292969 397.113281 C 110.074219 396.742188 109.601562 396.609375 109.230469 396.824219 C 108.855469 397.039062 108.726562 397.515625 108.9375 397.886719 C 146.660156 463.996094 208.410156 488.421875 253.570312 497.273438 C 260.746094 498.679688 268.074219 499.796875 275.5 500.632812 C 262.71875 560.199219 274.074219 628.796875 308.503906 699.503906 C 341.425781 767.109375 393.917969 832.585938 456.320312 883.863281 C 597.261719 998.925781 778.679688 1036.480469 906.054688 1047.722656 C 939.964844 1050.710938 974.324219 1052.1875 1008.691406 1052.1875 Z M 419.96875 370.359375 C 420.414062 370.359375 420.855469 370.359375 421.300781 370.367188 C 452.859375 370.800781 475.144531 386.964844 480.914062 413.609375 C 486.246094 438.238281 460.632812 464.621094 414.070312 482.460938 C 378.25 496.183594 328.09375 504.664062 277.363281 499.398438 C 277.703125 497.863281 278.058594 496.34375 278.429688 494.820312 C 290.195312 446.878906 317.203125 417.5625 337.785156 401.410156 C 362.992188 381.628906 392.863281 370.359375 419.96875 370.359375 Z M 419.96875 370.359375 " fill-opacity="1" fill-rule="nonzero"/><path fill="#3a2a79" d="M 990.0625 1035.300781 C 1128.332031 1035.300781 1267.414062 1011.507812 1382.414062 967.246094 C 1382.8125 967.09375 1383.015625 966.640625 1382.859375 966.242188 C 1382.707031 965.835938 1382.253906 965.636719 1381.851562 965.792969 C 1107.777344 1071.277344 681.605469 1063.105469 442.828125 866.851562 C 337.796875 779.996094 241.152344 630.96875 261.519531 496.957031 C 313.222656 505.019531 371.835938 498.421875 419.589844 478.996094 C 472.507812 457.46875 500.746094 425.4375 493.28125 395.40625 C 485.441406 363.859375 458.226562 344.660156 420.480469 344.042969 C 419.875 344.035156 419.257812 344.03125 418.644531 344.03125 C 361.453125 344.03125 289.113281 387.316406 266.0625 468.625 C 263.605469 477.296875 261.667969 486.171875 260.25 495.226562 C 202.265625 486.066406 145.667969 457.644531 110.292969 397.140625 C 110.078125 396.765625 109.597656 396.644531 109.226562 396.859375 C 108.859375 397.078125 108.734375 397.554688 108.949219 397.925781 C 147.628906 464.082031 209.96875 487.742188 255.449219 495.9375 C 256.96875 496.210938 258.492188 496.472656 260.023438 496.71875 C 251.691406 552.347656 262.890625 614.746094 292.988281 679.023438 C 325.476562 748.410156 378.339844 815.542969 441.839844 868.054688 C 499.882812 915.761719 570.628906 954.183594 652.125 982.257812 C 727.726562 1008.300781 811 1024.984375 899.632812 1031.84375 C 929.558594 1034.160156 959.796875 1035.300781 990.0625 1035.300781 Z M 418.640625 345.585938 C 419.25 345.585938 419.851562 345.589844 420.453125 345.601562 C 457.453125 346.203125 484.109375 364.964844 491.769531 395.78125 C 499.035156 425.007812 471.152344 456.339844 419 477.554688 C 378.410156 494.066406 319.464844 504.242188 261.753906 495.460938 C 263.160156 486.585938 265.085938 477.769531 267.558594 469.050781 C 290.398438 388.488281 362.023438 345.585938 418.640625 345.585938 Z M 418.640625 345.585938 " fill-opacity="1" fill-rule="nonzero"/><path fill="#3a2a79" d="M 972.644531 1018.464844 C 1120.261719 1018.464844 1266.382812 991.429688 1384.746094 943.554688 C 1385.144531 943.390625 1385.335938 942.9375 1385.175781 942.539062 C 1385.011719 942.140625 1384.558594 941.949219 1384.160156 942.109375 C 1104.949219 1055.050781 671.09375 1051.871094 428.351562 851.046875 C 326.410156 766.226562 234.046875 624.136719 246.597656 492.773438 C 250.277344 493.542969 253.871094 494.214844 257.371094 494.796875 C 312.167969 503.898438 373.101562 496.527344 424.558594 474.570312 C 483.1875 449.546875 513.675781 412.367188 504.128906 377.535156 C 494.34375 341.839844 462.746094 319.992188 419.605469 319.085938 C 358 317.722656 281.738281 359.867188 255.203125 442.800781 C 250.265625 458.238281 246.976562 474.324219 245.328125 490.9375 C 190.84375 478.890625 141.382812 449.136719 110.292969 397.164062 C 110.070312 396.796875 109.59375 396.679688 109.226562 396.898438 C 108.859375 397.117188 108.738281 397.597656 108.957031 397.964844 C 145.171875 458.5 200.871094 482.90625 245.183594 492.46875 C 240.398438 543.921875 251.277344 600.410156 277.464844 658.535156 C 309.53125 729.703125 362.761719 798.5 427.359375 852.242188 C 567.609375 968.277344 771.515625 1018.464844 972.644531 1018.464844 Z M 416.832031 320.609375 C 417.75 320.609375 418.660156 320.621094 419.574219 320.640625 C 461.984375 321.53125 493.03125 342.953125 502.625 377.945312 C 511.957031 411.972656 481.804688 448.445312 423.945312 473.136719 C 370.375 496 305.699219 503.929688 246.75 491.246094 C 248.398438 475.042969 251.648438 459.019531 256.683594 443.277344 C 282.59375 362.296875 356.292969 320.609375 416.832031 320.609375 Z M 416.832031 320.609375 " fill-opacity="1" fill-rule="nonzero"/><path fill="#3a2a79" d="M 954.054688 1001.988281 C 1107.085938 1001.988281 1261.75 972.957031 1387.078125 919.863281 C 1387.472656 919.695312 1387.65625 919.238281 1387.492188 918.839844 C 1387.324219 918.445312 1386.863281 918.257812 1386.46875 918.429688 C 1102.15625 1038.878906 660.628906 1040.6875 413.875 835.242188 C 314.863281 752.371094 226.339844 616.648438 232.1875 488.140625 C 241.664062 490.679688 250.808594 492.511719 259.351562 493.820312 C 314.988281 502.351562 377.039062 493.871094 429.582031 470.542969 C 459.671875 457.183594 483.6875 440.140625 499.035156 421.25 C 515.410156 401.105469 520.921875 379.808594 514.976562 359.667969 C 503.21875 319.828125 467.242188 295.265625 418.738281 293.957031 C 384.605469 293.019531 348.796875 303.636719 317.835938 323.800781 C 283.4375 346.207031 258.027344 378.429688 244.347656 416.980469 C 236.609375 438.789062 232.15625 461.894531 230.960938 485.984375 C 182.367188 472.445312 138.910156 444.003906 110.296875 397.191406 C 110.074219 396.824219 109.597656 396.707031 109.226562 396.933594 C 108.859375 397.15625 108.746094 397.636719 108.96875 398.003906 C 141.679688 451.527344 189.390625 476.433594 230.878906 487.785156 C 228.863281 534.929688 239.28125 585.796875 261.945312 638.050781 C 293.582031 710.996094 347.1875 781.453125 412.878906 836.433594 C 472.160156 885.792969 545.089844 925.027344 629.644531 953.046875 C 708.011719 979.015625 794.53125 994.84375 886.800781 1000.089844 C 909.117188 1001.359375 931.570312 1001.988281 954.058594 1001.988281 Z M 414.851562 295.460938 C 416.140625 295.460938 417.421875 295.476562 418.699219 295.511719 C 466.492188 296.800781 501.925781 320.949219 513.480469 360.105469 C 524.8125 398.5 491.632812 441.289062 428.949219 469.121094 C 369.585938 495.472656 296.542969 503.867188 232.277344 486.347656 C 233.5 463.035156 237.84375 439.960938 245.8125 417.5 C 274.449219 336.789062 351.730469 295.460938 414.851562 295.460938 Z M 414.851562 295.460938 " fill-opacity="1" fill-rule="nonzero"/><path fill="#3a2a79" d="M 936.589844 985.53125 C 1096.863281 985.53125 1259.160156 953.78125 1389.40625 896.167969 C 1389.800781 895.996094 1389.976562 895.535156 1389.804688 895.144531 C 1389.628906 894.75 1389.167969 894.574219 1388.777344 894.746094 C 1105.664062 1019.972656 646.898438 1026.785156 399.398438 819.433594 C 303.140625 738.414062 218.046875 608.527344 218.195312 482.964844 C 233.40625 487.996094 248.128906 491.113281 261.410156 492.996094 C 317.898438 501 381.058594 491.464844 434.691406 466.84375 C 503.871094 435.082031 539.648438 386.003906 525.824219 341.800781 C 512.074219 297.832031 471.730469 270.5 417.898438 268.6875 C 352.761719 266.527344 267.367188 303.894531 233.488281 391.160156 C 222.671875 419.027344 217.191406 449.023438 217.019531 480.511719 C 174.234375 465.914062 136.359375 439.003906 110.296875 397.21875 C 110.070312 396.855469 109.59375 396.742188 109.222656 396.96875 C 108.859375 397.195312 108.75 397.675781 108.976562 398.042969 C 138.339844 445.121094 179.140625 469.816406 217.015625 482.574219 C 217.09375 525.367188 226.925781 570.882812 246.421875 617.558594 C 277.640625 692.292969 331.609375 764.410156 398.398438 820.625 C 458.300781 870.8125 532.320312 910.449219 618.40625 938.4375 C 698.160156 964.367188 786.300781 979.773438 880.378906 984.214844 C 899.046875 985.09375 917.816406 985.53125 936.589844 985.53125 Z M 412.46875 270.152344 C 414.277344 270.152344 416.066406 270.183594 417.847656 270.242188 C 470.988281 272.03125 510.796875 298.953125 524.339844 342.265625 C 537.914062 385.671875 502.46875 434.015625 434.042969 465.425781 C 368.886719 495.335938 287.269531 504.066406 218.203125 480.914062 C 218.460938 450.664062 223.695312 420.6875 234.941406 391.722656 C 267.613281 307.550781 348.679688 270.152344 412.46875 270.152344 Z M 412.46875 270.152344 " fill-opacity="1" fill-rule="nonzero"/><path fill="#3a2a79" d="M 919.429688 969.191406 C 1086.863281 969.191406 1256.726562 934.65625 1391.738281 872.476562 C 1392.128906 872.300781 1392.300781 871.835938 1392.121094 871.445312 C 1391.941406 871.054688 1391.476562 870.882812 1391.085938 871.066406 C 1103.050781 1003.710938 636.46875 1015.648438 384.925781 803.625 C 289.214844 722.625 211.027344 597.066406 205.355469 477.464844 C 225.851562 485.582031 245.949219 490.003906 263.550781 492.304688 C 320.894531 499.800781 385.175781 489.273438 439.902344 463.410156 C 514.839844 428.003906 552.824219 373.257812 536.675781 323.9375 C 520.921875 275.851562 476.222656 245.703125 417.105469 243.296875 C 349.378906 240.539062 259.523438 277.554688 222.632812 365.339844 C 208.394531 399.222656 202.011719 436.261719 203.445312 475.359375 C 166.566406 460.03125 134.050781 434.601562 110.300781 397.246094 C 110.070312 396.878906 109.59375 396.769531 109.226562 397.003906 C 108.863281 397.234375 108.757812 397.714844 108.984375 398.078125 C 135.078125 439.117188 169.730469 462.988281 203.5 476.71875 C 205.089844 515.203125 214.238281 555.660156 230.902344 597.066406 C 261.695312 673.585938 316.039062 747.363281 383.917969 804.816406 C 444.441406 855.832031 519.554688 895.871094 607.167969 923.832031 C 688.308594 949.726562 778.074219 964.699219 873.960938 968.335938 C 889.074219 968.910156 904.246094 969.191406 919.429688 969.191406 Z M 410 244.710938 C 412.375 244.710938 414.714844 244.757812 417.042969 244.855469 C 475.484375 247.230469 519.65625 276.976562 535.191406 324.425781 C 551.085938 372.949219 513.421875 426.953125 439.238281 462.003906 C 366.84375 496.210938 277.832031 505.488281 205.296875 476.117188 C 203.667969 438.238281 209.34375 400.980469 224.066406 365.945312 C 259.40625 281.851562 343.671875 244.710938 410 244.710938 Z M 410 244.710938 " fill-opacity="1" fill-rule="nonzero"/><path fill="#3a2a79" d="M 902.535156 952.964844 C 1077.074219 952.964844 1254.414062 915.582031 1394.070312 848.785156 C 1394.457031 848.601562 1394.621094 848.136719 1394.433594 847.746094 C 1394.25 847.363281 1393.785156 847.199219 1393.394531 847.382812 C 1100.46875 987.488281 626.074219 1004.554688 370.445312 787.820312 C 277.304688 708.566406 201.65625 587.96875 192.101562 470.996094 C 217.871094 483.175781 243.765625 489.070312 265.765625 491.726562 C 323.976562 498.75 389.386719 487.265625 445.210938 460.210938 C 525.917969 421.101562 566.074219 360.601562 547.519531 306.078125 C 529.761719 253.886719 480.730469 220.890625 416.363281 217.808594 C 376.621094 215.898438 334.953125 225.847656 299.066406 245.8125 C 259.742188 267.6875 229.554688 300.09375 211.773438 339.523438 C 194.058594 378.804688 186.847656 422.328125 190.117188 468.464844 C 158.835938 453 131.277344 429.671875 110.300781 397.269531 C 110.066406 396.910156 109.589844 396.804688 109.222656 397.039062 C 108.863281 397.273438 108.761719 397.753906 108.996094 398.117188 C 131.824219 433.382812 160.886719 455.871094 190.238281 470.101562 C 192.847656 504.390625 201.230469 540.105469 215.378906 576.574219 C 245.753906 654.875 300.464844 730.320312 369.4375 789.007812 C 430.585938 840.847656 506.785156 881.296875 595.925781 909.222656 C 678.460938 935.082031 769.84375 949.628906 867.542969 952.457031 C 879.179688 952.796875 890.859375 952.964844 902.535156 952.964844 Z M 407.351562 219.152344 C 410.371094 219.152344 413.347656 219.222656 416.289062 219.363281 C 479.996094 222.414062 528.503906 255.015625 546.050781 306.578125 C 564.332031 360.308594 524.484375 420.066406 444.53125 458.8125 C 366.121094 496.808594 268.261719 506.164062 191.972656 469.371094 C 188.574219 424.925781 194.761719 381.035156 213.191406 340.164062 C 251.117188 256.066406 338.476562 219.152344 407.351562 219.152344 Z M 407.351562 219.152344 " fill-opacity="1" fill-rule="nonzero"/><path fill="#3a2a79" d="M 885.875 936.832031 C 1067.472656 936.832031 1252.226562 896.550781 1396.398438 825.09375 C 1396.785156 824.902344 1396.941406 824.4375 1396.75 824.050781 C 1396.558594 823.664062 1396.097656 823.507812 1395.707031 823.699219 C 1245.199219 898.292969 1050.339844 938.886719 861.15625 935.023438 C 653.714844 930.808594 474.300781 872.917969 355.96875 772.015625 C 265.121094 694.3125 191.691406 578.082031 178.96875 463.601562 C 204.992188 478.21875 234.902344 487.5625 268.046875 491.25 C 327.15625 497.828125 393.695312 485.414062 450.621094 457.203125 C 537.089844 414.351562 579.382812 348.019531 558.371094 288.21875 C 538.601562 231.945312 485.257812 196.0625 415.679688 192.230469 C 374.035156 189.941406 330.433594 199.652344 292.867188 219.582031 C 251.84375 241.34375 220.050781 273.890625 200.917969 313.707031 C 179.621094 358.027344 171.621094 407.769531 176.929688 460.648438 C 151.15625 445.601562 128.378906 424.742188 110.304688 397.296875 C 110.070312 396.9375 109.585938 396.839844 109.226562 397.074219 C 108.867188 397.3125 108.765625 397.792969 109.003906 398.152344 C 126.820312 425.207031 149.789062 446.828125 177.125 462.554688 C 180.347656 492.851562 187.921875 524.171875 199.855469 556.078125 C 229.8125 636.167969 284.894531 713.273438 354.957031 773.199219 C 416.726562 825.871094 494.019531 866.71875 584.6875 894.621094 C 668.613281 920.441406 761.621094 934.558594 861.125 936.582031 C 869.359375 936.75 877.625 936.832031 885.875 936.832031 Z M 403.777344 193.460938 C 407.761719 193.460938 411.703125 193.570312 415.589844 193.785156 C 484.519531 197.582031 537.347656 233.078125 556.90625 288.734375 C 577.636719 347.746094 535.644531 413.328125 449.929688 455.808594 C 365.355469 497.726562 258.234375 507 178.761719 461.707031 C 173.425781 411.042969 180.027344 360.773438 202.320312 314.382812 C 242.90625 229.914062 330.585938 193.460938 403.777344 193.460938 Z M 403.777344 193.460938 " fill-opacity="1" fill-rule="nonzero"/><path fill="#3a2a79" d="M 869.429688 920.792969 C 1058.039062 920.792969 1250.144531 877.558594 1398.726562 801.402344 C 1399.109375 801.207031 1399.261719 800.738281 1399.066406 800.355469 C 1398.867188 799.972656 1398.402344 799.824219 1398.015625 800.015625 C 1245.789062 878.039062 1047.753906 921.5 854.722656 919.148438 C 643.34375 916.613281 461.074219 858.746094 341.492188 756.207031 C 252.59375 679.796875 181.058594 567.21875 165.820312 454.953125 C 248.285156 509.554688 365.125 500.375 456.121094 454.363281 C 498.304688 433.03125 532.824219 404.277344 553.3125 373.398438 C 575.8125 339.484375 581.316406 303.855469 569.222656 270.359375 C 547.441406 210.027344 489.808594 171.234375 415.058594 166.582031 C 336.242188 161.675781 236.167969 197.289062 190.058594 287.890625 C 163.890625 339.3125 156.777344 395.453125 163.847656 451.742188 C 143.484375 437.757812 125.324219 419.761719 110.304688 397.324219 C 110.0625 396.96875 109.578125 396.875 109.226562 397.113281 C 108.867188 397.351562 108.773438 397.835938 109.011719 398.191406 C 124.425781 421.21875 143.132812 439.609375 164.113281 453.808594 C 179.023438 566.925781 250.972656 680.453125 340.480469 757.390625 C 402.875 810.890625 481.253906 852.148438 573.449219 880.011719 C 658.769531 905.796875 753.398438 919.492188 854.707031 920.707031 C 859.601562 920.761719 864.527344 920.792969 869.429688 920.792969 Z M 400.691406 167.695312 C 405.515625 167.695312 410.273438 167.84375 414.960938 168.136719 C 489.074219 172.746094 546.195312 211.15625 567.757812 270.886719 C 590.992188 335.242188 546.894531 406.714844 455.417969 452.972656 C 364.460938 498.96875 247.582031 508.015625 165.550781 452.898438 C 158.234375 396.449219 165.214844 340.140625 191.445312 288.597656 C 234.492188 204.015625 324.980469 167.695312 400.691406 167.695312 Z M 400.691406 167.695312 " fill-opacity="1" fill-rule="nonzero"/><path fill="#3a2a79" d="M 853.167969 904.835938 C 1048.75 904.835938 1248.167969 858.601562 1401.054688 777.707031 C 1401.4375 777.507812 1401.582031 777.035156 1401.378906 776.65625 C 1401.179688 776.277344 1400.710938 776.128906 1400.328125 776.335938 C 1246.390625 857.78125 1045.230469 904.085938 848.292969 903.269531 C 632.976562 902.421875 447.851562 844.578125 327.015625 740.402344 C 239.589844 664.886719 169.550781 555.199219 152.425781 444.789062 C 236.785156 510.707031 364.046875 501.953125 461.710938 451.664062 C 506.367188 428.667969 542.816406 397.601562 564.339844 364.183594 C 588.039062 327.394531 593.476562 288.777344 580.070312 252.5 C 556.246094 188.042969 494.230469 146.289062 414.171875 140.8125 C 332.46875 135.230469 228.101562 170.546875 179.203125 262.078125 C 149.074219 318.054688 141.46875 379.644531 150.3125 441.113281 C 135.421875 429.003906 121.953125 414.484375 110.308594 397.351562 C 110.066406 396.996094 109.582031 396.902344 109.226562 397.148438 C 108.871094 397.386719 108.78125 397.871094 109.023438 398.226562 C 121.09375 415.988281 135.132812 430.976562 150.648438 443.382812 C 167.398438 554.738281 237.882812 665.472656 326 741.578125 C 447.117188 846 632.601562 903.976562 848.285156 904.828125 C 849.910156 904.835938 851.546875 904.835938 853.171875 904.835938 Z M 397.332031 141.796875 C 403 141.796875 408.578125 141.988281 414.066406 142.363281 C 493.492188 147.796875 555.007812 189.171875 578.613281 253.039062 C 591.84375 288.839844 586.457031 326.980469 563.03125 363.339844 C 541.652344 396.53125 505.414062 427.40625 461 450.28125 C 363.320312 500.574219 235.910156 509.15625 152.082031 442.535156 C 142.914062 380.835938 150.34375 318.980469 180.574219 262.816406 C 225.863281 178.039062 319.097656 141.796875 397.332031 141.796875 Z M 397.332031 141.796875 " fill-opacity="1" fill-rule="nonzero"/><path fill="#3a2a79" d="M 837.15625 888.960938 C 838.730469 888.960938 840.285156 888.957031 841.867188 888.953125 C 940.265625 888.574219 1043.550781 876 1140.550781 852.59375 C 1236.839844 829.355469 1327.726562 795.265625 1403.382812 754.015625 C 1403.761719 753.808594 1403.902344 753.335938 1403.695312 752.960938 C 1403.488281 752.585938 1403.015625 752.449219 1402.640625 752.648438 C 1246.996094 837.511719 1042.601562 886.625 841.859375 887.394531 C 840.292969 887.398438 838.714844 887.402344 837.152344 887.402344 C 619.917969 887.402344 433.757812 829.660156 312.539062 724.597656 C 226.253906 649.714844 157.425781 542.117188 138.945312 432.992188 C 174.386719 465.980469 220.671875 485.601562 275.042969 490.332031 C 336.789062 495.699219 406.738281 480.746094 466.933594 449.304688 C 514.113281 424.660156 552.5625 391.25 575.199219 355.230469 C 600.171875 315.492188 605.609375 273.796875 590.921875 234.644531 C 564.933594 166.132812 498.554688 121.441406 413.355469 115.089844 C 366.15625 111.566406 316.707031 120.585938 274.109375 140.476562 C 228.003906 162.007812 191.429688 195.128906 168.34375 236.265625 C 136.367188 292.980469 125.804688 358.617188 136.914062 428.835938 C 127.28125 419.527344 118.371094 409.066406 110.308594 397.378906 C 110.066406 397.027344 109.582031 396.9375 109.226562 397.183594 C 108.875 397.425781 108.785156 397.910156 109.027344 398.265625 C 117.457031 410.484375 126.921875 421.570312 137.339844 431.480469 C 140.765625 452.148438 146.058594 473.207031 153.230469 494.546875 C 181.957031 580.003906 238.167969 662.117188 311.515625 725.769531 C 433.015625 831.078125 619.566406 888.960938 837.15625 888.960938 Z M 393.898438 115.929688 C 400.460938 115.929688 406.914062 116.167969 413.242188 116.640625 C 497.820312 122.945312 563.699219 167.265625 589.464844 235.195312 C 603.972656 273.871094 598.585938 315.09375 573.882812 354.402344 C 551.390625 390.191406 513.152344 423.402344 466.210938 447.925781 C 361.605469 502.566406 223.082031 510.304688 138.511719 430.363281 C 127.78125 364.066406 135.722656 297.292969 169.699219 237.027344 C 217.375 152.078125 313.25 115.929688 393.898438 115.929688 Z M 393.898438 115.929688 " fill-opacity="1" fill-rule="nonzero"/><path fill="#3a2a79" d="M 821.398438 873.152344 C 826.078125 873.152344 830.738281 873.128906 835.445312 873.070312 C 935.589844 871.9375 1040.597656 858.257812 1139.121094 833.507812 C 1237.046875 808.910156 1329.234375 773.230469 1405.710938 730.324219 C 1406.085938 730.117188 1406.222656 729.640625 1406.011719 729.265625 C 1405.800781 728.890625 1405.324219 728.757812 1404.949219 728.96875 C 1247.609375 817.238281 1040.027344 869.195312 835.429688 871.515625 C 612.328125 874.015625 421.417969 816.253906 298.0625 708.785156 C 212.179688 633.921875 144.066406 527.210938 124.96875 418.441406 C 162.554688 460.53125 214.839844 485.191406 277.683594 490.15625 C 340.449219 495.121094 411.605469 479.285156 472.921875 446.726562 C 522.511719 420.394531 562.820312 384.652344 586.429688 346.078125 C 612.535156 303.4375 617.839844 258.726562 601.773438 216.785156 C 573.875 144.332031 503.394531 96.667969 413.234375 89.285156 C 364.136719 85.257812 312.609375 94.011719 268.191406 113.914062 C 220.234375 135.402344 181.953125 168.785156 157.484375 210.453125 C 122.425781 270.03125 110.796875 339.414062 122.96875 413.757812 C 118.550781 408.597656 114.332031 403.152344 110.3125 397.410156 C 110.066406 397.050781 109.578125 396.96875 109.226562 397.21875 C 108.878906 397.460938 108.792969 397.949219 109.035156 398.300781 C 113.566406 404.773438 118.378906 410.917969 123.46875 416.746094 C 126.707031 435.566406 131.460938 454.695312 137.742188 474.0625 C 165.632812 560.039062 223.695312 646.023438 297.039062 709.960938 C 418.074219 815.414062 603.898438 873.152344 821.398438 873.152344 Z M 389.109375 89.859375 C 397.078125 89.859375 405.082031 90.179688 413.109375 90.835938 C 502.65625 98.171875 572.644531 145.464844 600.320312 217.34375 C 616.207031 258.816406 610.945312 303.050781 585.105469 345.269531 C 561.636719 383.605469 521.539062 419.148438 472.191406 445.351562 C 359.847656 505.007812 208.652344 511.726562 124.460938 415.484375 C 112.75 345.503906 121.433594 274.78125 158.824219 211.242188 C 202.527344 136.820312 293.015625 89.859375 389.109375 89.859375 Z M 389.109375 89.859375 " fill-opacity="1" fill-rule="nonzero"/><g clip-path="url(#633bb07033)"><path fill="#3a2a79" d="M 805.828125 857.410156 C 813.527344 857.410156 821.25 857.339844 829.027344 857.195312 C 930.914062 855.300781 1037.648438 840.511719 1137.691406 814.425781 C 1237.253906 788.464844 1330.738281 751.191406 1408.039062 706.632812 C 1408.414062 706.417969 1408.539062 705.941406 1408.328125 705.570312 C 1408.113281 705.199219 1407.636719 705.066406 1407.265625 705.285156 C 1090.773438 887.71875 551.457031 927.535156 283.582031 692.980469 C 197.085938 617.242188 129.050781 509.769531 110.257812 400.03125 C 149.09375 453.742188 207.863281 484.851562 280.359375 490.039062 C 287.277344 490.535156 294.304688 490.777344 301.402344 490.777344 C 359.726562 490.78125 423.292969 474.257812 478.972656 444.246094 C 530.953125 416.222656 573.117188 378.136719 597.695312 336.996094 C 624.921875 291.417969 630.085938 243.675781 612.625 198.929688 C 582.820312 122.554688 508.257812 71.90625 413.167969 63.453125 C 362.132812 58.921875 308.550781 67.386719 262.292969 87.308594 C 212.476562 108.761719 172.480469 142.421875 146.628906 184.644531 C 99.628906 261.40625 91.199219 354.402344 122.253906 453.578125 C 149.726562 541.316406 208.15625 629.003906 282.558594 694.152344 C 403.195312 799.789062 588.367188 857.410156 805.828125 857.410156 Z M 385.550781 63.785156 C 394.675781 63.785156 403.84375 64.1875 413.03125 65.003906 C 507.519531 73.40625 581.589844 123.683594 611.171875 199.496094 C 649.417969 297.5 571.960938 392.351562 478.230469 442.875 C 357.539062 507.9375 192.40625 513.21875 110.3125 397.4375 C 110.183594 397.25 109.980469 397.136719 109.769531 397.113281 C 97.933594 324.597656 107.703125 251.199219 147.957031 185.457031 C 193.742188 110.675781 286.875 63.785156 385.550781 63.785156 Z M 385.550781 63.785156 " fill-opacity="1" fill-rule="nonzero"/></g></svg>