<svg xmlns="http://www.w3.org/2000/svg" xmlns:xlink="http://www.w3.org/1999/xlink" width="2000" zoomAndPan="magnify" viewBox="0 0 1500 1499.999933" height="2000" preserveAspectRatio="xMidYMid meet" version="1.0"><defs><clipPath id="e76b93510a"><path d="M 372 244.28125 L 1394.273438 244.28125 L 1394.273438 1104 L 372 1104 Z M 372 244.28125 " clip-rule="nonzero"/></clipPath><clipPath id="5f44c96c4c"><path d="M 105.773438 980 L 579 980 L 579 1256 L 105.773438 1256 Z M 105.773438 980 " clip-rule="nonzero"/></clipPath></defs><path fill="#2e2d2c" d="M 915.191406 898.101562 C 915.191406 880.472656 900.953125 866.230469 883.320312 866.230469 L 588.0625 866.230469 C 570.429688 866.230469 556.1875 880.472656 556.1875 898.101562 C 556.1875 915.734375 570.429688 929.972656 588.0625 929.972656 L 883.320312 929.972656 C 900.953125 929.972656 915.191406 915.734375 915.191406 898.101562 Z M 915.191406 898.101562 " fill-opacity="1" fill-rule="nonzero"/><path fill="#2e2d2c" d="M 588.0625 632.679688 L 883.320312 632.679688 C 900.953125 632.679688 915.191406 618.441406 915.191406 600.808594 C 915.191406 583.175781 900.953125 568.9375 883.320312 568.9375 L 588.0625 568.9375 C 570.429688 568.9375 556.1875 583.175781 556.1875 600.808594 C 556.1875 618.441406 570.429688 632.679688 588.0625 632.679688 Z M 588.0625 632.679688 " fill-opacity="1" fill-rule="nonzero"/><path fill="#2e2d2c" d="M 588.0625 781.328125 L 883.320312 781.328125 C 900.953125 781.328125 915.191406 767.085938 915.191406 749.457031 C 915.191406 731.824219 900.953125 717.582031 883.320312 717.582031 L 588.0625 717.582031 C 570.429688 717.582031 556.1875 731.824219 556.1875 749.457031 C 556.1875 767.085938 570.429688 781.328125 588.0625 781.328125 Z M 588.0625 781.328125 " fill-opacity="1" fill-rule="nonzero"/><g clip-path="url(#e76b93510a)"><path fill="#2e2d2c" d="M 1318.546875 244.382812 L 447.957031 244.382812 C 406.183594 244.382812 372.277344 278.015625 372.277344 319.65625 L 372.277344 603.65625 C 397.234375 607.183594 420.96875 614.914062 442.398438 626.578125 L 442.398438 465.589844 L 1323.96875 465.589844 L 1323.96875 1007.28125 C 1323.96875 1021.792969 1312.308594 1033.320312 1297.929688 1033.320312 L 629.425781 1033.320312 C 639.328125 1055.023438 645.703125 1078.484375 648.550781 1103.441406 L 1297.929688 1103.441406 C 1350.960938 1103.441406 1394.089844 1060.3125 1394.089844 1007.28125 L 1394.089844 319.789062 C 1394.226562 278.015625 1360.320312 244.382812 1318.546875 244.382812 Z M 502.75 394.925781 C 480.371094 394.925781 462.199219 376.890625 462.199219 354.644531 C 462.199219 332.402344 480.507812 314.363281 502.75 314.363281 C 524.996094 314.363281 543.03125 332.402344 543.03125 354.644531 C 543.03125 376.890625 525.128906 394.925781 502.75 394.925781 Z M 625.359375 394.925781 C 603.113281 394.925781 584.804688 376.890625 584.804688 354.644531 C 584.804688 332.402344 603.113281 314.363281 625.359375 314.363281 C 647.734375 314.363281 665.640625 332.402344 665.640625 354.644531 C 665.640625 376.890625 647.734375 394.925781 625.359375 394.925781 Z M 747.964844 394.925781 C 725.585938 394.925781 707.683594 376.890625 707.683594 354.644531 C 707.683594 332.402344 725.585938 314.363281 747.964844 314.363281 C 770.207031 314.363281 788.515625 332.402344 788.515625 354.644531 C 788.515625 376.890625 770.34375 394.925781 747.964844 394.925781 Z M 747.964844 394.925781 " fill-opacity="1" fill-rule="nonzero"/></g><g clip-path="url(#5f44c96c4c)"><path fill="#2e2d2c" d="M 481.050781 980.019531 C 443.617188 1012.433594 394.929688 1031.558594 341.898438 1031.558594 C 288.867188 1031.558594 240.179688 1012.433594 202.746094 980.019531 C 147.816406 1007.824219 105.773438 1056.785156 105.773438 1135.855469 L 105.773438 1225.777344 C 105.773438 1242.324219 119.0625 1255.613281 135.339844 1255.613281 L 548.320312 1255.613281 C 564.867188 1255.613281 578.160156 1242.324219 578.160156 1225.777344 L 578.160156 1135.855469 C 578.160156 1056.785156 536.117188 1007.824219 481.050781 980.019531 Z M 481.050781 980.019531 " fill-opacity="1" fill-rule="nonzero"/></g><path fill="#2e2d2c" d="M 484.578125 816.453125 C 484.578125 818.789062 484.519531 821.125 484.40625 823.457031 C 484.289062 825.789062 484.121094 828.117188 483.890625 830.441406 C 483.660156 832.765625 483.375 835.082031 483.03125 837.390625 C 482.691406 839.699219 482.292969 842 481.835938 844.289062 C 481.378906 846.582031 480.867188 848.859375 480.300781 851.121094 C 479.734375 853.386719 479.113281 855.636719 478.433594 857.871094 C 477.753906 860.105469 477.023438 862.324219 476.238281 864.523438 C 475.449219 866.71875 474.609375 868.898438 473.714844 871.054688 C 472.824219 873.214844 471.878906 875.347656 470.878906 877.457031 C 469.878906 879.570312 468.832031 881.652344 467.730469 883.714844 C 466.628906 885.773438 465.480469 887.804688 464.277344 889.808594 C 463.078125 891.808594 461.828125 893.78125 460.53125 895.722656 C 459.234375 897.664062 457.890625 899.574219 456.5 901.449219 C 455.109375 903.324219 453.671875 905.164062 452.191406 906.96875 C 450.710938 908.773438 449.183594 910.542969 447.617188 912.273438 C 446.046875 914.003906 444.4375 915.691406 442.789062 917.34375 C 441.136719 918.996094 439.445312 920.605469 437.714844 922.171875 C 435.984375 923.742188 434.21875 925.265625 432.414062 926.746094 C 430.609375 928.230469 428.769531 929.664062 426.890625 931.054688 C 425.015625 932.445312 423.109375 933.792969 421.167969 935.089844 C 419.226562 936.386719 417.253906 937.632812 415.25 938.835938 C 413.246094 940.035156 411.214844 941.1875 409.15625 942.285156 C 407.097656 943.386719 405.011719 944.4375 402.902344 945.433594 C 400.789062 946.433594 398.65625 947.378906 396.5 948.273438 C 394.34375 949.167969 392.164062 950.007812 389.964844 950.792969 C 387.765625 951.582031 385.550781 952.3125 383.316406 952.992188 C 381.082031 953.667969 378.832031 954.289062 376.566406 954.859375 C 374.300781 955.425781 372.023438 955.9375 369.734375 956.390625 C 367.441406 956.847656 365.144531 957.246094 362.832031 957.589844 C 360.523438 957.933594 358.207031 958.21875 355.882812 958.445312 C 353.558594 958.675781 351.230469 958.847656 348.898438 958.960938 C 346.566406 959.078125 344.234375 959.132812 341.898438 959.132812 C 339.5625 959.132812 337.230469 959.078125 334.898438 958.960938 C 332.566406 958.847656 330.238281 958.675781 327.914062 958.445312 C 325.589844 958.21875 323.273438 957.933594 320.960938 957.589844 C 318.652344 957.246094 316.351562 956.847656 314.0625 956.390625 C 311.773438 955.9375 309.496094 955.425781 307.230469 954.859375 C 304.964844 954.289062 302.714844 953.667969 300.480469 952.992188 C 298.246094 952.3125 296.03125 951.582031 293.832031 950.792969 C 291.632812 950.007812 289.453125 949.167969 287.296875 948.273438 C 285.140625 947.378906 283.003906 946.433594 280.894531 945.433594 C 278.785156 944.4375 276.699219 943.386719 274.640625 942.285156 C 272.582031 941.1875 270.550781 940.035156 268.546875 938.835938 C 266.542969 937.632812 264.570312 936.386719 262.628906 935.089844 C 260.6875 933.792969 258.78125 932.445312 256.90625 931.054688 C 255.027344 929.664062 253.1875 928.230469 251.382812 926.746094 C 249.578125 925.265625 247.8125 923.742188 246.082031 922.171875 C 244.351562 920.605469 242.660156 918.996094 241.007812 917.34375 C 239.359375 915.691406 237.746094 914.003906 236.179688 912.273438 C 234.613281 910.542969 233.085938 908.773438 231.605469 906.96875 C 230.125 905.164062 228.6875 903.324219 227.296875 901.449219 C 225.90625 899.574219 224.5625 897.664062 223.265625 895.722656 C 221.96875 893.78125 220.71875 891.808594 219.519531 889.808594 C 218.316406 887.804688 217.167969 885.773438 216.066406 883.714844 C 214.964844 881.652344 213.917969 879.570312 212.917969 877.457031 C 211.917969 875.347656 210.972656 873.214844 210.078125 871.054688 C 209.1875 868.898438 208.347656 866.71875 207.558594 864.523438 C 206.773438 862.324219 206.039062 860.105469 205.363281 857.871094 C 204.683594 855.636719 204.0625 853.386719 203.496094 851.121094 C 202.925781 848.859375 202.417969 846.582031 201.960938 844.289062 C 201.503906 842 201.105469 839.699219 200.761719 837.390625 C 200.421875 835.082031 200.136719 832.765625 199.90625 830.441406 C 199.675781 828.117188 199.503906 825.789062 199.390625 823.457031 C 199.277344 821.125 199.21875 818.789062 199.21875 816.453125 C 199.21875 814.121094 199.277344 811.785156 199.390625 809.453125 C 199.503906 807.121094 199.675781 804.792969 199.90625 802.46875 C 200.136719 800.144531 200.421875 797.828125 200.761719 795.519531 C 201.105469 793.210938 201.503906 790.910156 201.960938 788.621094 C 202.417969 786.328125 202.925781 784.050781 203.496094 781.785156 C 204.0625 779.523438 204.683594 777.273438 205.363281 775.039062 C 206.039062 772.804688 206.773438 770.585938 207.558594 768.386719 C 208.347656 766.1875 209.1875 764.011719 210.078125 761.855469 C 210.972656 759.695312 211.917969 757.5625 212.917969 755.453125 C 213.917969 753.339844 214.964844 751.253906 216.066406 749.195312 C 217.167969 747.136719 218.316406 745.105469 219.519531 743.101562 C 220.71875 741.101562 221.96875 739.128906 223.265625 737.1875 C 224.5625 735.246094 225.90625 733.335938 227.296875 731.460938 C 228.6875 729.585938 230.125 727.746094 231.605469 725.941406 C 233.085938 724.136719 234.613281 722.367188 236.179688 720.636719 C 237.746094 718.90625 239.359375 717.214844 241.007812 715.566406 C 242.660156 713.914062 244.351562 712.304688 246.082031 710.738281 C 247.8125 709.167969 249.578125 707.644531 251.382812 706.164062 C 253.1875 704.679688 255.027344 703.246094 256.90625 701.855469 C 258.78125 700.464844 260.6875 699.117188 262.628906 697.820312 C 264.570312 696.523438 266.542969 695.273438 268.546875 694.074219 C 270.550781 692.875 272.582031 691.722656 274.640625 690.625 C 276.699219 689.523438 278.785156 688.472656 280.894531 687.472656 C 283.003906 686.476562 285.140625 685.53125 287.296875 684.636719 C 289.453125 683.742188 291.632812 682.902344 293.832031 682.117188 C 296.03125 681.328125 298.246094 680.597656 300.480469 679.917969 C 302.714844 679.242188 304.964844 678.617188 307.230469 678.050781 C 309.496094 677.484375 311.773438 676.972656 314.0625 676.515625 C 316.351562 676.0625 318.652344 675.664062 320.960938 675.320312 C 323.273438 674.976562 325.589844 674.691406 327.914062 674.460938 C 330.238281 674.234375 332.566406 674.0625 334.898438 673.949219 C 337.230469 673.832031 339.5625 673.777344 341.898438 673.777344 C 344.234375 673.777344 346.566406 673.832031 348.898438 673.949219 C 351.230469 674.0625 353.558594 674.234375 355.882812 674.460938 C 358.207031 674.691406 360.523438 674.976562 362.832031 675.320312 C 365.144531 675.664062 367.441406 676.0625 369.734375 676.515625 C 372.023438 676.972656 374.300781 677.484375 376.566406 678.050781 C 378.832031 678.617188 381.082031 679.242188 383.316406 679.917969 C 385.550781 680.597656 387.765625 681.328125 389.964844 682.117188 C 392.164062 682.902344 394.34375 683.742188 396.5 684.636719 C 398.65625 685.53125 400.789062 686.476562 402.902344 687.472656 C 405.011719 688.472656 407.097656 689.523438 409.15625 690.625 C 411.214844 691.722656 413.246094 692.875 415.25 694.074219 C 417.253906 695.273438 419.226562 696.523438 421.167969 697.820312 C 423.109375 699.117188 425.015625 700.464844 426.890625 701.855469 C 428.769531 703.246094 430.609375 704.679688 432.414062 706.164062 C 434.21875 707.644531 435.984375 709.167969 437.714844 710.738281 C 439.445312 712.304688 441.136719 713.914062 442.789062 715.566406 C 444.4375 717.214844 446.046875 718.90625 447.617188 720.636719 C 449.183594 722.367188 450.710938 724.136719 452.191406 725.941406 C 453.671875 727.746094 455.109375 729.585938 456.5 731.460938 C 457.890625 733.335938 459.234375 735.246094 460.53125 737.1875 C 461.828125 739.128906 463.078125 741.101562 464.277344 743.101562 C 465.480469 745.105469 466.628906 747.136719 467.730469 749.195312 C 468.832031 751.253906 469.878906 753.339844 470.878906 755.453125 C 471.878906 757.5625 472.824219 759.695312 473.714844 761.855469 C 474.609375 764.011719 475.449219 766.1875 476.238281 768.386719 C 477.023438 770.585938 477.753906 772.804688 478.433594 775.039062 C 479.113281 777.273438 479.734375 779.523438 480.300781 781.785156 C 480.867188 784.050781 481.378906 786.328125 481.835938 788.621094 C 482.292969 790.910156 482.691406 793.210938 483.03125 795.519531 C 483.375 797.828125 483.660156 800.144531 483.890625 802.46875 C 484.121094 804.792969 484.289062 807.121094 484.40625 809.453125 C 484.519531 811.785156 484.578125 814.121094 484.578125 816.453125 Z M 484.578125 816.453125 " fill-opacity="1" fill-rule="nonzero"/><path fill="#2e2d2c" d="M 1100.1875 856.464844 C 1079.164062 856.464844 1062.074219 873.554688 1062.074219 894.574219 C 1062.074219 915.597656 1079.164062 932.6875 1100.1875 932.6875 C 1121.207031 932.6875 1138.296875 915.597656 1138.296875 894.574219 C 1138.296875 873.554688 1121.207031 856.464844 1100.1875 856.464844 Z M 1100.1875 856.464844 " fill-opacity="1" fill-rule="nonzero"/><path fill="#2e2d2c" d="M 1151.453125 774.003906 C 1162.4375 766.136719 1177.765625 755.558594 1192.683594 735.484375 C 1215.46875 703.886719 1218.589844 662.789062 1200.550781 626.847656 C 1181.292969 589.144531 1142.636719 566.765625 1096.253906 566.765625 C 1023.421875 566.765625 985.851562 616.675781 977.851562 668.894531 C 976.496094 679.335938 984.902344 689.101562 995.890625 689.101562 L 1023.421875 689.101562 C 1031.832031 689.101562 1039.15625 683 1040.511719 674.183594 C 1044.039062 654.515625 1056.242188 629.5625 1096.117188 629.5625 C 1126.769531 629.5625 1139.519531 645.835938 1144.402344 655.464844 C 1151.859375 669.976562 1150.503906 686.117188 1141.824219 698.460938 C 1133.007812 710.257812 1124.734375 715.957031 1115.105469 723.007812 C 1091.914062 739.285156 1073.0625 756.371094 1069.535156 804.113281 C 1068.722656 814.554688 1076.996094 823.371094 1087.03125 823.371094 L 1114.15625 823.371094 C 1123.378906 823.371094 1131.246094 816.320312 1132.058594 807.097656 C 1133.414062 786.753906 1138.703125 782.820312 1151.453125 774.003906 Z M 1151.453125 774.003906 " fill-opacity="1" fill-rule="nonzero"/></svg>