<svg xmlns="http://www.w3.org/2000/svg" xmlns:xlink="http://www.w3.org/1999/xlink" width="2000" zoomAndPan="magnify" viewBox="0 0 1500 1499.999933" height="2000" preserveAspectRatio="xMidYMid meet" version="1.0"><defs><clipPath id="5200aee95d"><path d="M 166.25 417 L 292 417 L 292 448 L 166.25 448 Z M 166.25 417 " clip-rule="nonzero"/></clipPath></defs><path fill="#2e2d2c" d="M 1117.65625 432.089844 C 1117.65625 440.296875 1124.375 447.015625 1132.582031 447.015625 L 1227.609375 447.015625 C 1235.816406 447.015625 1242.535156 440.296875 1242.535156 432.089844 C 1242.535156 423.878906 1235.816406 417.164062 1227.609375 417.164062 L 1132.832031 417.164062 C 1124.375 417.164062 1117.65625 423.878906 1117.65625 432.089844 Z M 1117.65625 432.089844 " fill-opacity="1" fill-rule="nonzero"/><path fill="#2e2d2c" d="M 1097.011719 333.085938 C 1100.246094 333.085938 1103.480469 332.089844 1105.964844 330.097656 L 1200.742188 258.957031 C 1207.210938 253.980469 1208.453125 244.527344 1203.230469 238.058594 C 1198.253906 231.839844 1189.300781 230.597656 1182.832031 235.074219 L 1088.054688 306.21875 C 1081.339844 311.195312 1080.09375 320.398438 1085.070312 327.113281 C 1088.054688 331.09375 1092.285156 333.085938 1097.011719 333.085938 Z M 1097.011719 333.085938 " fill-opacity="1" fill-rule="nonzero"/><path fill="#2e2d2c" d="M 1087.558594 557.214844 C 1087.808594 557.460938 1087.808594 557.460938 1088.054688 557.710938 L 1182.832031 628.855469 C 1189.546875 633.582031 1198.753906 632.089844 1203.726562 625.375 C 1208.453125 618.90625 1206.960938 609.949219 1200.742188 604.976562 L 1105.964844 533.832031 C 1099.5 528.855469 1090.046875 529.851562 1085.070312 536.320312 C 1080.09375 542.785156 1081.089844 552.238281 1087.558594 557.214844 Z M 1087.558594 557.214844 " fill-opacity="1" fill-rule="nonzero"/><g clip-path="url(#5200aee95d)"><path fill="#2e2d2c" d="M 291.539062 432.089844 C 291.539062 423.878906 284.820312 417.164062 276.613281 417.164062 L 181.589844 417.164062 C 173.378906 417.164062 166.664062 423.878906 166.664062 432.089844 C 166.664062 440.296875 173.378906 447.015625 181.589844 447.015625 L 276.363281 447.015625 C 284.820312 447.015625 291.539062 440.296875 291.539062 432.089844 Z M 291.539062 432.089844 " fill-opacity="1" fill-rule="nonzero"/></g><path fill="#2e2d2c" d="M 303.230469 533.832031 L 208.453125 604.976562 C 201.738281 609.949219 200.492188 619.152344 205.46875 625.871094 C 210.445312 632.585938 219.648438 633.832031 226.363281 628.855469 L 321.140625 557.710938 C 327.855469 552.734375 329.101562 543.53125 324.125 536.816406 C 319.148438 530.097656 309.699219 528.855469 303.230469 533.832031 Z M 303.230469 533.832031 " fill-opacity="1" fill-rule="nonzero"/><path fill="#2e2d2c" d="M 321.140625 306.21875 L 226.117188 235.324219 C 219.398438 230.597656 210.195312 232.089844 205.21875 238.804688 C 200.492188 245.273438 201.984375 254.230469 208.203125 259.203125 L 303.230469 330.097656 C 309.699219 335.074219 319.148438 333.832031 324.125 327.113281 C 328.851562 320.648438 327.609375 311.195312 321.140625 306.21875 Z M 321.140625 306.21875 " fill-opacity="1" fill-rule="nonzero"/><path fill="#2e2d2c" d="M 803.480469 721.640625 C 813.429688 721.640625 823.128906 718.90625 831.589844 713.433594 C 818.402344 698.257812 811.191406 678.855469 811.191406 658.957031 C 810.941406 650.746094 817.410156 643.78125 825.617188 643.53125 C 833.828125 643.285156 840.792969 649.75 841.039062 657.960938 C 841.039062 658.207031 841.039062 658.707031 841.039062 658.957031 C 841.039062 688.804688 865.171875 712.933594 895.019531 712.933594 C 924.871094 712.933594 949 688.804688 949 658.957031 L 949 643.78125 C 944.027344 644.03125 941.789062 644.277344 938.304688 644.277344 C 930.09375 644.277344 923.378906 637.5625 923.128906 629.351562 C 923.128906 621.144531 929.597656 614.429688 937.808594 614.429688 C 980.09375 614.429688 1014.175781 580.097656 1014.175781 538.058594 C 1014.175781 496.019531 979.847656 461.691406 937.808594 461.691406 C 929.597656 461.691406 922.882812 454.976562 922.882812 446.765625 C 922.882812 438.558594 929.597656 431.839844 937.808594 431.839844 C 953.976562 431.839844 969.898438 435.570312 984.324219 442.539062 C 1005.71875 424.875 1008.703125 393.285156 991.039062 371.890625 C 987.808594 368.160156 984.074219 364.675781 980.09375 361.941406 C 979.347656 361.441406 978.355469 360.945312 977.609375 360.449219 C 977.609375 360.449219 977.609375 360.695312 977.609375 360.695312 C 973.378906 367.910156 964.425781 370.148438 957.210938 366.167969 C 949.996094 362.1875 947.757812 352.984375 951.738281 345.769531 C 972.882812 309.203125 960.195312 262.4375 923.628906 241.542969 C 897.257812 226.367188 864.671875 228.109375 840.292969 246.269531 C 833.578125 251.242188 824.375 249.75 819.398438 243.035156 C 814.425781 236.316406 815.917969 227.113281 822.632812 222.140625 C 824.871094 220.398438 827.109375 218.90625 829.597656 217.414062 C 840.292969 196.765625 832.335938 171.394531 811.9375 160.695312 C 791.289062 150 765.917969 157.960938 755.21875 178.359375 C 751.984375 184.328125 750.492188 191.042969 750.492188 198.011719 L 750.492188 668.160156 C 749.996094 697.761719 773.875 721.640625 803.480469 721.640625 Z M 818.15625 348.757812 C 824.125 343.035156 833.578125 343.035156 839.300781 349.003906 C 843.527344 353.484375 849.746094 355.472656 855.964844 354.726562 C 867.65625 337.8125 888.800781 329.851562 908.703125 335.074219 C 916.664062 337.066406 921.390625 345.273438 919.398438 353.234375 C 917.410156 361.195312 909.199219 365.921875 901.238281 363.929688 C 890.792969 361.195312 880.34375 367.660156 877.609375 378.109375 C 876.363281 382.835938 877.109375 387.8125 879.347656 392.289062 C 883.328125 399.503906 880.59375 408.707031 873.378906 412.6875 C 866.164062 416.667969 856.960938 413.929688 852.980469 406.714844 C 849.25 400 847.261719 392.289062 847.011719 384.578125 C 835.816406 383.332031 825.617188 378.109375 817.65625 370.148438 C 812.183594 363.929688 812.183594 354.476562 818.15625 348.757812 Z M 807.707031 524.128906 C 816.414062 517.910156 826.363281 514.179688 836.8125 513.183594 C 835.816406 498.507812 840.542969 484.078125 849.746094 472.636719 C 854.722656 466.167969 864.175781 464.925781 870.644531 470.148438 C 877.109375 475.125 878.355469 484.578125 873.128906 491.042969 C 873.128906 491.042969 872.882812 491.292969 872.882812 491.292969 C 866.664062 499.003906 864.921875 509.453125 868.15625 518.90625 C 868.402344 518.90625 868.402344 519.152344 868.652344 519.152344 C 891.039062 530.347656 903.976562 554.726562 900.742188 579.601562 C 899.746094 587.8125 892.285156 593.53125 884.074219 592.539062 C 875.867188 591.542969 870.144531 584.078125 871.140625 575.871094 C 873.128906 559.949219 861.9375 545.273438 846.015625 543.035156 C 841.785156 542.539062 837.308594 542.785156 833.082031 544.277344 C 830.34375 545.273438 827.609375 546.515625 825.121094 548.257812 C 818.402344 552.984375 808.953125 551.242188 804.226562 544.527344 C 799.746094 538.058594 801.238281 528.855469 807.707031 524.128906 Z M 807.707031 524.128906 " fill-opacity="1" fill-rule="nonzero"/><path fill="#2e2d2c" d="M 1113.179688 903.484375 L 1113.179688 919.402344 C 1113.179688 952.488281 1139.796875 979.105469 1172.882812 979.351562 L 1247.507812 979.351562 L 1247.507812 845.023438 L 1172.882812 845.023438 C 1139.796875 845.023438 1113.179688 870.648438 1113.179688 903.484375 Z M 1113.179688 903.484375 " fill-opacity="1" fill-rule="nonzero"/><path fill="#2e2d2c" d="M 564.175781 658.957031 C 564.175781 650.746094 570.890625 644.03125 579.101562 644.03125 C 587.308594 644.03125 594.027344 650.746094 594.027344 658.957031 C 594.027344 679.105469 586.8125 698.257812 573.628906 713.433594 C 598.753906 729.105469 631.589844 721.394531 647.261719 696.269531 C 652.484375 687.8125 655.46875 677.859375 655.46875 667.910156 L 655.46875 197.761719 C 655.46875 174.625 636.5625 155.722656 613.429688 155.722656 C 590.292969 155.722656 571.390625 174.625 571.390625 197.761719 C 571.390625 204.476562 573.128906 211.195312 576.117188 217.164062 C 578.355469 218.65625 580.84375 220.148438 583.082031 221.890625 C 589.796875 226.617188 591.289062 236.070312 586.5625 242.785156 C 581.835938 249.503906 572.382812 250.996094 565.667969 246.269531 C 565.667969 246.269531 565.417969 246.019531 565.417969 246.019531 C 531.339844 220.894531 483.578125 228.359375 458.703125 262.1875 C 440.792969 286.566406 438.800781 319.402344 453.976562 345.523438 C 458.207031 352.734375 455.71875 361.691406 448.503906 365.921875 C 441.289062 370.148438 432.335938 367.660156 428.105469 360.449219 C 428.105469 360.449219 428.105469 360.199219 428.105469 360.199219 C 427.359375 360.695312 426.363281 361.195312 425.617188 361.691406 C 402.484375 376.867188 396.015625 407.960938 411.4375 431.09375 C 414.175781 435.324219 417.410156 439.054688 421.390625 442.039062 C 435.816406 435.074219 451.738281 431.34375 467.90625 431.34375 C 476.117188 431.34375 482.832031 438.058594 482.832031 446.269531 C 482.832031 454.476562 476.117188 461.195312 467.90625 461.195312 C 425.617188 461.195312 391.539062 495.273438 391.539062 537.5625 C 391.539062 579.851562 425.617188 613.929688 467.90625 613.929688 C 476.117188 613.929688 482.832031 620.648438 482.832031 628.855469 C 482.582031 637.066406 475.867188 643.78125 467.65625 643.78125 C 464.175781 643.78125 462.183594 643.53125 457.210938 643.285156 L 457.210938 658.457031 C 457.210938 688.058594 481.339844 712.1875 510.941406 712.1875 C 540.046875 712.933594 564.175781 688.804688 564.175781 658.957031 Z M 499.996094 317.660156 C 497.757812 309.703125 502.484375 301.492188 510.445312 299.503906 C 510.445312 299.503906 510.691406 299.503906 510.691406 299.503906 C 530.59375 294.277344 551.738281 302.238281 563.429688 319.152344 C 569.648438 320.148438 575.867188 317.910156 580.09375 313.433594 C 585.816406 307.460938 595.269531 307.460938 601.238281 313.183594 C 607.210938 318.90625 607.210938 328.359375 601.488281 334.328125 C 593.777344 342.289062 583.328125 347.511719 572.136719 348.757812 C 571.886719 356.46875 569.898438 364.179688 566.164062 370.894531 C 562.183594 378.109375 552.980469 380.597656 545.765625 376.617188 C 538.554688 372.636719 536.066406 363.679688 540.046875 356.46875 C 545.269531 347.015625 541.789062 335.324219 532.335938 330.097656 C 530.59375 329.105469 528.851562 328.359375 526.863281 328.109375 C 524.125 327.613281 521.140625 327.613281 518.15625 328.359375 C 510.195312 330.347656 501.984375 325.621094 499.996094 317.660156 Z M 539.300781 554.976562 C 537.558594 557.460938 536.316406 559.949219 535.320312 562.933594 C 533.828125 567.164062 533.578125 571.640625 534.074219 575.871094 C 535.070312 584.078125 529.347656 591.542969 521.140625 592.539062 C 512.929688 593.53125 505.46875 587.8125 504.472656 579.601562 C 501.238281 554.726562 514.175781 530.597656 536.5625 519.152344 C 536.8125 519.152344 536.8125 518.90625 537.0625 518.90625 C 540.292969 509.453125 538.554688 499.003906 532.335938 491.292969 C 527.109375 484.824219 528.105469 475.621094 534.324219 470.398438 C 540.542969 465.175781 549.996094 466.167969 555.21875 472.386719 C 555.21875 472.386719 555.46875 472.636719 555.46875 472.636719 C 564.671875 484.078125 569.148438 498.507812 568.402344 513.183594 C 578.851562 514.179688 589.050781 517.910156 597.507812 524.128906 C 604.226562 528.855469 605.71875 538.308594 600.992188 545.023438 C 596.265625 551.742188 586.8125 553.234375 580.09375 548.507812 C 567.160156 539.054688 548.753906 541.789062 539.300781 554.976562 Z M 539.300781 554.976562 " fill-opacity="1" fill-rule="nonzero"/><path fill="#2e2d2c" d="M 1333.328125 869.902344 C 1333.328125 861.691406 1326.613281 854.976562 1318.402344 854.976562 L 1262.433594 854.976562 L 1262.433594 884.824219 L 1318.402344 884.824219 C 1326.613281 884.824219 1333.328125 878.109375 1333.328125 869.902344 Z M 1333.328125 869.902344 " fill-opacity="1" fill-rule="nonzero"/><path fill="#2e2d2c" d="M 1318.402344 937.066406 L 1262.433594 937.066406 L 1262.433594 966.914062 L 1318.402344 966.914062 C 1326.613281 966.914062 1333.328125 960.199219 1333.328125 951.988281 C 1333.328125 943.78125 1326.613281 937.066406 1318.402344 937.066406 Z M 1318.402344 937.066406 " fill-opacity="1" fill-rule="nonzero"/><path fill="#2e2d2c" d="M 956.464844 1038.058594 L 956.464844 1201.988281 C 956.464844 1267.164062 903.480469 1320.148438 838.304688 1320.148438 C 773.128906 1320.148438 720.144531 1267.164062 720.144531 1201.988281 L 720.144531 1101.242188 L 690.292969 1101.242188 L 690.292969 1201.988281 C 690.292969 1283.832031 756.464844 1350 838.304688 1350 C 920.144531 1350 986.3125 1283.582031 986.3125 1201.988281 L 986.3125 1038.058594 C 986.3125 976.367188 1036.316406 926.367188 1098.007812 926.367188 C 1098.007812 926.367188 1098.253906 926.367188 1098.253906 926.367188 L 1098.253906 896.515625 C 1021.140625 896.515625 956.464844 959.949219 956.464844 1038.058594 Z M 956.464844 1038.058594 " fill-opacity="1" fill-rule="nonzero"/><path fill="#2e2d2c" d="M 844.523438 1047.511719 C 844.523438 1047.261719 844.523438 1047.015625 844.523438 1047.015625 L 844.523438 1039.054688 L 802.980469 1039.054688 C 794.773438 1039.054688 788.054688 1032.339844 788.054688 1024.128906 C 788.054688 1015.921875 794.773438 1009.203125 802.980469 1009.203125 L 844.523438 1009.203125 L 844.523438 964.429688 L 665.417969 964.429688 C 657.210938 964.429688 650.492188 957.710938 650.492188 949.503906 C 650.492188 941.292969 657.210938 934.578125 665.417969 934.578125 L 844.523438 934.578125 L 844.523438 889.800781 L 565.917969 889.800781 L 565.917969 934.578125 L 610.691406 934.578125 C 618.902344 934.578125 625.617188 941.292969 625.617188 949.503906 C 625.617188 957.710938 618.902344 964.429688 610.691406 964.429688 L 565.917969 964.429688 L 565.917969 1009.203125 L 748.253906 1009.203125 C 756.464844 1009.203125 763.179688 1015.921875 763.179688 1024.128906 C 763.179688 1032.339844 756.464844 1039.054688 748.253906 1039.054688 L 565.917969 1039.054688 L 565.917969 1046.765625 C 565.417969 1066.667969 581.339844 1083.332031 601.238281 1083.832031 C 601.738281 1083.832031 602.234375 1083.832031 602.730469 1083.832031 L 806.464844 1083.832031 C 827.109375 1084.328125 844.027344 1067.910156 844.523438 1047.511719 Z M 844.523438 1047.511719 " fill-opacity="1" fill-rule="nonzero"/><path fill="#2e2d2c" d="M 882.335938 740.546875 L 527.855469 741.292969 C 549.25 777.363281 561.9375 818.160156 564.175781 859.949219 L 844.773438 859.949219 C 847.507812 817.660156 860.445312 776.617188 882.335938 740.546875 Z M 882.335938 740.546875 " fill-opacity="1" fill-rule="nonzero"/></svg>