<svg xmlns="http://www.w3.org/2000/svg" xmlns:xlink="http://www.w3.org/1999/xlink" width="2000" zoomAndPan="magnify" viewBox="0 0 1500 1499.999933" height="2000" preserveAspectRatio="xMidYMid meet" version="1.0"><defs><clipPath id="ed170cf854"><path d="M 114.722656 96 L 1219 96 L 1219 1403 L 114.722656 1403 Z M 114.722656 96 " clip-rule="nonzero"/></clipPath></defs><path fill="#2e2d2c" d="M 1199.59375 617.289062 C 1199.519531 627.707031 1199.445312 637.5 1199.375 648.359375 C 1258.796875 652.796875 1304.175781 679.539062 1328.566406 734.046875 C 1352.816406 788.1875 1343.203125 839.617188 1306.523438 887.378906 C 1314.480469 894.273438 1322.074219 900.914062 1329.558594 907.40625 C 1370.972656 875.050781 1385.609375 790.316406 1361.289062 727.222656 C 1336.125 661.964844 1264.191406 612.554688 1199.59375 617.289062 " fill-opacity="1" fill-rule="nonzero"/><path fill="#2e2d2c" d="M 1155.097656 693.511719 C 1155.90625 696.558594 1156.234375 698.796875 1157.078125 700.8125 C 1160.234375 708.148438 1163.535156 715.375 1167.203125 723.480469 C 1191.230469 714.933594 1214.15625 715.558594 1235.835938 728.214844 C 1250.800781 736.945312 1261.660156 749.5625 1267.894531 765.738281 C 1281.613281 801.542969 1267.894531 836.242188 1229.894531 861.515625 C 1234 870.648438 1238.148438 879.894531 1242.914062 890.53125 C 1274.828125 874.832031 1295.515625 850.476562 1302.671875 816.105469 C 1312.0625 771.207031 1297.863281 733.644531 1261.441406 706.167969 C 1229.195312 681.847656 1193.175781 679.058594 1155.097656 693.511719 " fill-opacity="1" fill-rule="nonzero"/><path fill="#2e2d2c" d="M 1126.265625 630.675781 C 1131.21875 641.71875 1135.363281 650.960938 1139.617188 660.425781 C 1147.359375 658.113281 1154.660156 656.28125 1161.628906 653.566406 C 1163.683594 652.757812 1166.214844 649.3125 1165.992188 647.367188 C 1165.1875 640.25 1163.828125 633.097656 1161.554688 626.3125 C 1160.859375 624.148438 1156.382812 621.324219 1154.363281 621.800781 C 1145.269531 624.039062 1136.390625 627.339844 1126.265625 630.675781 " fill-opacity="1" fill-rule="nonzero"/><path fill="#2e2d2c" d="M 1257.808594 923.875 C 1262.136719 933.523438 1266.28125 942.730469 1271.269531 953.882812 C 1280.367188 948.488281 1289.171875 943.683594 1297.351562 938 C 1298.78125 937.007812 1298.820312 931.578125 1297.496094 929.453125 C 1293.316406 922.777344 1288.144531 916.6875 1282.789062 909.644531 C 1274.460938 914.375 1266.429688 918.960938 1257.808594 923.875 " fill-opacity="1" fill-rule="nonzero"/><g clip-path="url(#ed170cf854)"><path fill="#2e2d2c" d="M 238.195312 1334.421875 C 234.308594 1350.121094 218.570312 1361.894531 199.753906 1361.894531 C 178.074219 1361.894531 160.429688 1346.195312 160.429688 1326.902344 L 160.429688 652.757812 C 160.429688 633.464844 178.074219 617.765625 199.753906 617.765625 C 218.570312 617.765625 234.308594 629.539062 238.195312 645.238281 Z M 1171.496094 1062.972656 L 1171.496094 1359.546875 L 285.660156 1359.546875 L 285.660156 138.734375 L 1171.496094 138.734375 L 1171.496094 572.09375 C 1181.289062 565.859375 1195.339844 543.007812 1218.960938 560.320312 L 1218.960938 136.386719 C 1218.960938 114.414062 1198.859375 96.550781 1174.136719 96.550781 L 283.019531 96.550781 C 258.296875 96.550781 238.195312 114.414062 238.195312 136.386719 L 238.195312 585.300781 C 226.640625 580.09375 213.582031 577.121094 199.753906 577.121094 C 152.875 577.121094 114.722656 611.050781 114.722656 652.757812 L 114.722656 1326.902344 C 114.722656 1367.65625 151.1875 1400.960938 196.636719 1402.464844 L 196.453125 1402.503906 L 199.09375 1402.503906 C 199.347656 1402.503906 199.53125 1402.503906 199.753906 1402.503906 C 200.15625 1402.503906 200.523438 1402.503906 200.851562 1402.503906 L 332.359375 1401.769531 L 1174.136719 1401.769531 C 1198.859375 1401.769531 1218.960938 1383.867188 1218.960938 1361.894531 L 1218.960938 1058.277344 C 1204.914062 1068.035156 1187.121094 1069.539062 1171.496094 1062.972656 " fill-opacity="1" fill-rule="nonzero"/></g><path fill="#2e2d2c" d="M 1197.578125 1002.59375 C 1189.066406 1006.261719 1181.875 1003.84375 1176.925781 995.957031 C 1174.871094 992.65625 1173.144531 989.058594 1171.496094 985.464844 C 1171.273438 984.914062 1170.980469 984.328125 1170.726562 983.777344 C 1126.15625 884.40625 1081.585938 785.035156 1037.054688 685.625 C 1035.039062 681.152344 1033.019531 676.527344 1031.808594 671.796875 C 1029.792969 663.800781 1032.875 657.492188 1040.0625 653.640625 C 1047.363281 649.789062 1054.371094 651.070312 1059.726562 657.160156 C 1062.660156 660.5 1064.714844 664.789062 1066.546875 668.863281 C 1089.402344 719.59375 1112.105469 770.324219 1134.851562 821.054688 C 1147.101562 848.3125 1159.28125 875.527344 1171.496094 902.785156 C 1181.875 925.929688 1192.257812 949.078125 1202.636719 972.1875 C 1204.179688 975.671875 1206.125 979.117188 1206.855469 982.789062 C 1208.691406 991.515625 1206.234375 998.890625 1197.578125 1002.59375 Z M 1123.441406 982.566406 C 1051.433594 980.917969 980.675781 988.070312 912.300781 1012.390625 C 909.84375 1013.304688 903.972656 1010.921875 902.910156 1008.574219 C 881.78125 962.503906 861.019531 916.28125 840.695312 869.84375 C 839.597656 867.3125 841.90625 861.332031 844.4375 859.535156 C 852.472656 853.851562 861.570312 849.667969 869.933594 844.347656 C 921.324219 811.554688 965.195312 770.25 1004.8125 724.179688 C 1007.378906 721.171875 1010.242188 718.421875 1013.578125 714.863281 C 1053.820312 804.550781 1093.324219 892.585938 1133.273438 981.722656 C 1129.199219 982.089844 1126.339844 982.605469 1123.441406 982.566406 Z M 961.675781 1169.242188 C 973.851562 1187.621094 986.542969 1205.777344 997.511719 1224.886719 C 1005.144531 1238.167969 999.566406 1253.316406 986.582031 1261.496094 C 975.171875 1268.648438 959.914062 1266.191406 950.304688 1255.519531 C 948.285156 1253.28125 946.453125 1250.785156 944.765625 1248.292969 C 923.339844 1216.855469 901.917969 1185.382812 880.570312 1153.910156 C 865.015625 1130.980469 849.574219 1108.019531 832.847656 1083.1875 C 848.105469 1076.363281 862.523438 1070.675781 876.207031 1063.488281 C 885.523438 1058.570312 890.144531 1061.359375 895.390625 1069.394531 C 917.179688 1102.882812 939.628906 1135.933594 961.675781 1169.242188 Z M 785.527344 1069.027344 C 770.523438 1075.628906 762.050781 1072.476562 755.082031 1057.582031 C 746.535156 1039.3125 738.5 1020.789062 730.246094 1002.375 C 730.285156 1002.375 730.285156 1002.375 730.285156 1002.375 C 721.882812 983.632812 713.191406 964.996094 705.15625 946.070312 C 699.214844 932.09375 702.515625 923.691406 716.308594 917.417969 C 743.636719 904.875 771.222656 892.878906 798.550781 880.335938 C 805.226562 877.253906 808.746094 878.464844 811.753906 885.25 C 831.671875 930.113281 851.773438 974.9375 872.058594 1019.652344 C 875.105469 1026.402344 873.636719 1029.8125 866.886719 1032.785156 C 839.671875 1044.632812 812.707031 1057.105469 785.527344 1069.027344 Z M 664.441406 1027.355469 C 658.167969 1008.792969 667.777344 988.546875 685.496094 983.703125 C 695.179688 1005.273438 704.863281 1026.914062 714.878906 1049.21875 C 692.464844 1058.316406 671.703125 1048.816406 664.441406 1027.355469 Z M 1234.734375 964.628906 C 1229.488281 952.890625 1224.207031 941.152344 1218.960938 929.414062 C 1203.152344 894.089844 1187.34375 858.765625 1171.496094 823.441406 C 1145.632812 765.777344 1119.773438 708.113281 1093.875 650.410156 C 1093.105469 648.6875 1092.226562 647 1091.308594 645.3125 C 1079.496094 623.707031 1057.121094 614.242188 1033.167969 620.699219 C 1012.625 626.203125 998.027344 647.441406 997.84375 670.183594 C 997.804688 676.015625 995.640625 682.910156 992.046875 687.421875 C 960.867188 726.527344 926.203125 762.328125 886.257812 792.554688 C 874.296875 801.578125 861.753906 809.832031 848.765625 818.269531 C 847.152344 819.40625 844.546875 821.167969 840.585938 823.585938 C 835.011719 827.183594 829.398438 830.8125 823.75 834.628906 C 823.53125 834.152344 823.347656 833.75 823.164062 833.308594 C 806.289062 842.183594 779.988281 854.765625 739.859375 871.3125 C 727.019531 877.070312 714.253906 882.9375 701.414062 888.734375 C 677.535156 899.59375 667.191406 917.53125 670.234375 943.609375 C 670.96875 949.773438 669.613281 952.964844 663.964844 956.230469 C 633.1875 973.875 621.265625 1011.914062 635.792969 1044.449219 C 650.390625 1077.132812 686.816406 1093.96875 720.125 1082.820312 C 726.652344 1080.65625 730.210938 1081.644531 734.648438 1086.742188 C 750.496094 1104.792969 770.414062 1109.925781 792.277344 1100.941406 C 800.421875 1097.566406 804.457031 1099.546875 809.003906 1106.296875 C 845.796875 1160.839844 882.84375 1215.277344 919.855469 1269.714844 C 929.613281 1284.054688 941.828125 1293.042969 956.171875 1296.566406 C 994.320312 1301.332031 1014.753906 1283.910156 1025.464844 1266.890625 C 1025.648438 1266.558594 1025.792969 1266.191406 1025.976562 1265.824219 C 1037.09375 1245.613281 1036.945312 1224.375 1024.621094 1204.933594 C 1004.226562 1172.800781 982.511719 1141.546875 961.382812 1109.890625 C 947.515625 1089.054688 933.722656 1068.21875 919.671875 1047.015625 C 921.65625 1045.585938 922.753906 1044.484375 924.039062 1043.9375 C 928.992188 1041.882812 933.871094 1039.679688 938.96875 1038.140625 C 1004.960938 1018.074219 1072.5625 1012.792969 1141.085938 1016.535156 C 1146.40625 1016.828125 1152.492188 1020.019531 1156.601562 1023.6875 C 1161.1875 1027.757812 1166.214844 1030.878906 1171.496094 1033.113281 C 1187.121094 1039.644531 1204.914062 1038.140625 1218.960938 1028.382812 C 1221.382812 1026.695312 1223.730469 1024.789062 1225.894531 1022.625 C 1241.226562 1007.363281 1244.710938 986.96875 1234.734375 964.628906 " fill-opacity="1" fill-rule="nonzero"/><path fill="#2e2d2c" d="M 1015.15625 365.464844 L 447.429688 365.464844 C 440.167969 365.464844 434.222656 359.523438 434.222656 352.296875 C 434.222656 345.035156 440.167969 339.089844 447.429688 339.089844 L 1015.15625 339.089844 C 1022.417969 339.089844 1028.363281 345.035156 1028.363281 352.296875 C 1028.363281 359.523438 1022.417969 365.464844 1015.15625 365.464844 " fill-opacity="1" fill-rule="nonzero"/><path fill="#2e2d2c" d="M 897.40625 535.964844 L 447.429688 535.964844 C 440.167969 535.964844 434.222656 530.058594 434.222656 522.796875 C 434.222656 515.53125 440.167969 509.589844 447.429688 509.589844 L 897.40625 509.589844 C 904.632812 509.589844 910.578125 515.53125 910.578125 522.796875 C 910.578125 530.058594 904.632812 535.964844 897.40625 535.964844 " fill-opacity="1" fill-rule="nonzero"/><path fill="#2e2d2c" d="M 442.183594 680.085938 C 437.820312 680.085938 434.222656 684.855469 434.222656 690.652344 L 434.222656 695.933594 C 434.222656 701.730469 437.820312 706.460938 442.183594 706.460938 L 752.21875 706.460938 C 763.445312 696.851562 774.339844 688.046875 784.574219 680.085938 L 442.183594 680.085938 " fill-opacity="1" fill-rule="nonzero"/><path fill="#2e2d2c" d="M 434.222656 861.148438 L 434.222656 866.433594 C 434.222656 872.226562 437.820312 876.960938 442.183594 876.960938 L 611.839844 876.960938 C 616.238281 868.007812 621.007812 859.242188 626.109375 850.621094 L 442.183594 850.621094 C 437.820312 850.621094 434.222656 855.355469 434.222656 861.148438 " fill-opacity="1" fill-rule="nonzero"/><path fill="#2e2d2c" d="M 434.222656 1031.648438 L 434.222656 1036.929688 C 434.222656 1042.726562 437.527344 1047.496094 441.523438 1047.496094 L 574.3125 1047.496094 C 575.121094 1047.496094 575.890625 1047.273438 576.625 1046.90625 C 574.679688 1038.25 573.25 1029.667969 572.296875 1021.121094 L 441.523438 1021.121094 C 437.527344 1021.121094 434.222656 1025.851562 434.222656 1031.648438 " fill-opacity="1" fill-rule="nonzero"/><path fill="#2e2d2c" d="M 434.222656 1202.183594 L 434.222656 1207.425781 C 434.222656 1213.222656 438.441406 1217.992188 443.578125 1217.992188 L 755.886719 1217.992188 C 743.5625 1209.1875 732.117188 1200.382812 721.515625 1191.617188 L 443.578125 1191.617188 C 438.441406 1191.617188 434.222656 1196.351562 434.222656 1202.183594 " fill-opacity="1" fill-rule="nonzero"/></svg>