<svg xmlns="http://www.w3.org/2000/svg" xmlns:xlink="http://www.w3.org/1999/xlink" width="2000" zoomAndPan="magnify" viewBox="0 0 1500 1499.999933" height="2000" preserveAspectRatio="xMidYMid meet" version="1.0"><defs><clipPath id="d7eb70d320"><path d="M 124.21875 218.085938 L 1049 218.085938 L 1049 1281.585938 L 124.21875 1281.585938 Z M 124.21875 218.085938 " clip-rule="nonzero"/></clipPath><clipPath id="021096eb56"><path d="M 124.21875 218.085938 L 440 218.085938 L 440 534 L 124.21875 534 Z M 124.21875 218.085938 " clip-rule="nonzero"/></clipPath><clipPath id="3f4ea8dc23"><path d="M 1035 218.085938 L 1375.96875 218.085938 L 1375.96875 706 L 1035 706 Z M 1035 218.085938 " clip-rule="nonzero"/></clipPath><clipPath id="9d1973d4d5"><path d="M 1020 677 L 1231 677 L 1231 1281.585938 L 1020 1281.585938 Z M 1020 677 " clip-rule="nonzero"/></clipPath><clipPath id="7f9f1e4341"><path d="M 1191 218.085938 L 1220 218.085938 L 1220 336 L 1191 336 Z M 1191 218.085938 " clip-rule="nonzero"/></clipPath><clipPath id="5cf924674c"><path d="M 507 1254 L 536 1254 L 536 1281.585938 L 507 1281.585938 Z M 507 1254 " clip-rule="nonzero"/></clipPath><clipPath id="c2f5c92566"><path d="M 586 1254 L 772 1254 L 772 1281.585938 L 586 1281.585938 Z M 586 1254 " clip-rule="nonzero"/></clipPath><clipPath id="a826284884"><path d="M 821 1254 L 850 1254 L 850 1281.585938 L 821 1281.585938 Z M 821 1254 " clip-rule="nonzero"/></clipPath></defs><g clip-path="url(#d7eb70d320)"><path fill="#2e2d2c" d="M 1034.191406 1282.585938 C 954.15625 1282.585938 889.066406 1217.496094 889.066406 1137.460938 L 889.066406 246.683594 L 152.984375 246.683594 L 152.984375 1137.460938 C 152.984375 1202.015625 205.527344 1254.558594 270.132812 1254.558594 L 521.5625 1254.558594 C 529.277344 1254.558594 535.578125 1260.808594 535.578125 1268.574219 C 535.578125 1276.335938 529.277344 1282.585938 521.5625 1282.585938 L 270.132812 1282.585938 C 190.097656 1282.585938 124.957031 1217.496094 124.957031 1137.460938 L 124.957031 218.652344 L 917.09375 218.652344 L 917.09375 1137.460938 C 917.09375 1202.015625 969.636719 1254.558594 1034.191406 1254.558594 C 1041.957031 1254.558594 1048.207031 1260.808594 1048.207031 1268.574219 C 1048.207031 1276.335938 1041.957031 1282.585938 1034.191406 1282.585938 " fill-opacity="1" fill-rule="nonzero"/></g><g clip-path="url(#021096eb56)"><path fill="#2e2d2c" d="M 152.984375 505.144531 L 411.449219 505.144531 L 411.449219 246.683594 L 152.984375 246.683594 Z M 439.476562 533.175781 L 124.957031 533.175781 L 124.957031 218.652344 L 439.476562 218.652344 L 439.476562 533.175781 " fill-opacity="1" fill-rule="nonzero"/></g><path fill="#2e2d2c" d="M 381.074219 330.136719 L 381.074219 277.054688 L 183.359375 277.054688 L 183.359375 474.773438 L 236.4375 474.773438 C 236.4375 394.886719 301.1875 330.136719 381.074219 330.136719 " fill-opacity="1" fill-rule="nonzero"/><path fill="#2e2d2c" d="M 764.691406 533.175781 L 570.148438 533.175781 C 562.386719 533.175781 556.136719 526.875 556.136719 519.160156 C 556.136719 511.394531 562.386719 505.144531 570.148438 505.144531 L 764.691406 505.144531 C 772.457031 505.144531 778.707031 511.394531 778.707031 519.160156 C 778.707031 526.875 772.457031 533.175781 764.691406 533.175781 " fill-opacity="1" fill-rule="nonzero"/><path fill="#2e2d2c" d="M 764.691406 448.792969 L 570.148438 448.792969 C 562.386719 448.792969 556.136719 442.542969 556.136719 434.78125 C 556.136719 427.015625 562.386719 420.765625 570.148438 420.765625 L 764.691406 420.765625 C 772.457031 420.765625 778.707031 427.015625 778.707031 434.78125 C 778.707031 442.542969 772.457031 448.792969 764.691406 448.792969 " fill-opacity="1" fill-rule="nonzero"/><path fill="#2e2d2c" d="M 764.691406 364.414062 L 570.148438 364.414062 C 562.386719 364.414062 556.136719 358.164062 556.136719 350.398438 C 556.136719 342.683594 562.386719 336.386719 570.148438 336.386719 L 764.691406 336.386719 C 772.457031 336.386719 778.707031 342.683594 778.707031 350.398438 C 778.707031 358.164062 772.457031 364.414062 764.691406 364.414062 " fill-opacity="1" fill-rule="nonzero"/><g clip-path="url(#3f4ea8dc23)"><path fill="#2e2d2c" d="M 1186.9375 246.683594 C 1118.964844 246.683594 1063.6875 301.960938 1063.6875 369.933594 L 1063.6875 554.125 C 1063.6875 622.097656 1118.964844 677.421875 1186.9375 677.421875 L 1223.707031 677.421875 C 1291.679688 677.421875 1347.003906 622.097656 1347.003906 554.125 L 1347.003906 369.933594 C 1347.003906 301.960938 1291.679688 246.683594 1223.707031 246.683594 Z M 1223.707031 705.453125 L 1186.9375 705.453125 C 1103.53125 705.453125 1035.65625 637.574219 1035.65625 554.125 L 1035.65625 369.933594 C 1035.65625 286.527344 1103.53125 218.652344 1186.9375 218.652344 L 1223.707031 218.652344 C 1307.160156 218.652344 1375.035156 286.527344 1375.035156 369.933594 L 1375.035156 554.125 C 1375.035156 637.574219 1307.160156 705.453125 1223.707031 705.453125 " fill-opacity="1" fill-rule="nonzero"/></g><g clip-path="url(#9d1973d4d5)"><path fill="#2e2d2c" d="M 1050.84375 1282.585938 L 1034.191406 1282.585938 C 1026.476562 1282.585938 1020.179688 1276.335938 1020.179688 1268.574219 C 1020.179688 1260.808594 1026.476562 1254.558594 1034.191406 1254.558594 L 1050.84375 1254.558594 C 1134.394531 1254.558594 1202.414062 1186.585938 1202.414062 1102.984375 L 1202.414062 691.4375 C 1202.414062 683.671875 1208.667969 677.421875 1216.429688 677.421875 C 1224.144531 677.421875 1230.445312 683.671875 1230.445312 691.4375 L 1230.445312 1102.984375 C 1230.445312 1202.015625 1149.875 1282.585938 1050.84375 1282.585938 " fill-opacity="1" fill-rule="nonzero"/></g><g clip-path="url(#7f9f1e4341)"><path fill="#2e2d2c" d="M 1205.34375 335.3125 C 1197.582031 335.3125 1191.332031 329.0625 1191.332031 321.296875 L 1191.332031 232.667969 C 1191.332031 224.902344 1197.582031 218.652344 1205.34375 218.652344 C 1213.0625 218.652344 1219.359375 224.902344 1219.359375 232.667969 L 1219.359375 321.296875 C 1219.359375 329.0625 1213.0625 335.3125 1205.34375 335.3125 " fill-opacity="1" fill-rule="nonzero"/></g><path fill="#2e2d2c" d="M 1205.34375 335.3125 C 1192.015625 335.3125 1181.175781 346.152344 1181.175781 359.480469 C 1181.175781 372.765625 1192.015625 383.605469 1205.34375 383.605469 C 1218.628906 383.605469 1229.46875 372.765625 1229.46875 359.480469 C 1229.46875 346.152344 1218.628906 335.3125 1205.34375 335.3125 Z M 1205.34375 411.683594 C 1176.535156 411.683594 1153.144531 388.242188 1153.144531 359.480469 C 1153.144531 330.671875 1176.535156 307.28125 1205.34375 307.28125 C 1234.105469 307.28125 1257.496094 330.671875 1257.496094 359.480469 C 1257.496094 388.242188 1234.105469 411.683594 1205.34375 411.683594 " fill-opacity="1" fill-rule="nonzero"/><g clip-path="url(#5cf924674c)"><path fill="#2e2d2c" d="M 521.5625 1282.585938 C 517.804688 1282.585938 514.238281 1281.121094 511.648438 1278.484375 C 509.011719 1275.898438 507.546875 1272.234375 507.546875 1268.574219 C 507.546875 1264.957031 509.011719 1261.296875 511.648438 1258.660156 C 516.875 1253.433594 526.300781 1253.433594 531.476562 1258.660156 C 534.0625 1261.296875 535.578125 1264.957031 535.578125 1268.574219 C 535.578125 1272.234375 534.0625 1275.898438 531.476562 1278.484375 C 528.839844 1281.121094 525.273438 1282.585938 521.5625 1282.585938 " fill-opacity="1" fill-rule="nonzero"/></g><g clip-path="url(#c2f5c92566)"><path fill="#2e2d2c" d="M 586.117188 1268.574219 C 586.117188 1260.808594 592.417969 1254.558594 600.179688 1254.558594 C 607.894531 1254.558594 614.195312 1260.808594 614.195312 1268.574219 C 614.195312 1276.335938 607.894531 1282.585938 600.179688 1282.585938 C 592.417969 1282.585938 586.117188 1276.335938 586.117188 1268.574219 Z M 664.734375 1268.574219 C 664.734375 1260.808594 670.984375 1254.558594 678.75 1254.558594 C 686.515625 1254.558594 692.765625 1260.808594 692.765625 1268.574219 C 692.765625 1276.335938 686.515625 1282.585938 678.75 1282.585938 C 670.984375 1282.585938 664.734375 1276.335938 664.734375 1268.574219 Z M 743.355469 1268.574219 C 743.355469 1260.808594 749.605469 1254.558594 757.367188 1254.558594 C 765.132812 1254.558594 771.382812 1260.808594 771.382812 1268.574219 C 771.382812 1276.335938 765.132812 1282.585938 757.367188 1282.585938 C 749.605469 1282.585938 743.355469 1276.335938 743.355469 1268.574219 " fill-opacity="1" fill-rule="nonzero"/></g><g clip-path="url(#a826284884)"><path fill="#2e2d2c" d="M 835.988281 1282.585938 C 832.324219 1282.585938 828.710938 1281.121094 826.074219 1278.484375 C 823.484375 1275.898438 821.972656 1272.234375 821.972656 1268.574219 C 821.972656 1264.957031 823.484375 1261.296875 826.074219 1258.660156 C 831.300781 1253.433594 840.675781 1253.433594 845.898438 1258.660156 C 848.535156 1261.296875 850 1264.957031 850 1268.574219 C 850 1272.234375 848.535156 1275.898438 845.898438 1278.484375 C 843.261719 1281.121094 839.648438 1282.585938 835.988281 1282.585938 " fill-opacity="1" fill-rule="nonzero"/></g><path fill="#2e2d2c" d="M 279.214844 918.84375 L 298.648438 918.84375 C 311.246094 918.84375 321.550781 908.539062 321.550781 895.894531 C 321.550781 883.246094 311.246094 872.941406 298.648438 872.941406 L 279.214844 872.941406 Z M 298.648438 946.871094 L 265.199219 946.871094 C 257.433594 946.871094 251.136719 940.574219 251.136719 932.859375 L 251.136719 858.925781 C 251.136719 851.210938 257.433594 844.914062 265.199219 844.914062 L 298.648438 844.914062 C 326.726562 844.914062 349.578125 867.765625 349.578125 895.894531 C 349.578125 923.972656 326.726562 946.871094 298.648438 946.871094 " fill-opacity="1" fill-rule="nonzero"/><path fill="#2e2d2c" d="M 279.214844 992.726562 L 298.648438 992.726562 C 311.246094 992.726562 321.550781 982.421875 321.550781 969.773438 C 321.550781 957.128906 311.246094 946.871094 298.648438 946.871094 L 279.214844 946.871094 Z M 298.648438 1020.753906 L 265.199219 1020.753906 C 257.433594 1020.753906 251.136719 1014.503906 251.136719 1006.738281 L 251.136719 932.859375 C 251.136719 925.09375 257.433594 918.84375 265.199219 918.84375 L 298.648438 918.84375 C 326.726562 918.84375 349.578125 941.695312 349.578125 969.773438 C 349.578125 997.902344 326.726562 1020.753906 298.648438 1020.753906 " fill-opacity="1" fill-rule="nonzero"/><path fill="#2e2d2c" d="M 483.667969 1020.753906 L 413.253906 1020.753906 C 405.539062 1020.753906 399.242188 1014.503906 399.242188 1006.738281 L 399.242188 858.925781 C 399.242188 851.210938 405.539062 844.914062 413.253906 844.914062 C 421.019531 844.914062 427.269531 851.210938 427.269531 858.925781 L 427.269531 992.726562 L 483.667969 992.726562 C 491.433594 992.726562 497.683594 998.976562 497.683594 1006.738281 C 497.683594 1014.503906 491.433594 1020.753906 483.667969 1020.753906 " fill-opacity="1" fill-rule="nonzero"/><path fill="#2e2d2c" d="M 571.078125 872.941406 C 557.113281 872.941406 545.683594 884.367188 545.683594 898.382812 L 545.683594 967.332031 C 545.683594 981.347656 557.113281 992.726562 571.078125 992.726562 L 580.550781 992.726562 C 594.566406 992.726562 605.941406 981.347656 605.941406 967.332031 L 605.941406 898.382812 C 605.941406 884.367188 594.566406 872.941406 580.550781 872.941406 Z M 580.550781 1020.753906 L 571.078125 1020.753906 C 541.632812 1020.753906 517.65625 996.777344 517.65625 967.332031 L 517.65625 898.382812 C 517.65625 868.890625 541.632812 844.914062 571.078125 844.914062 L 580.550781 844.914062 C 610.042969 844.914062 634.019531 868.890625 634.019531 898.382812 L 634.019531 967.332031 C 634.019531 996.777344 610.042969 1020.753906 580.550781 1020.753906 " fill-opacity="1" fill-rule="nonzero"/><path fill="#2e2d2c" d="M 737.445312 1020.753906 L 727.972656 1020.753906 C 698.527344 1020.753906 674.550781 996.777344 674.550781 967.332031 L 674.550781 898.382812 C 674.550781 868.890625 698.527344 844.914062 727.972656 844.914062 L 737.445312 844.914062 C 761.664062 844.914062 782.957031 861.273438 789.109375 884.710938 C 791.109375 892.179688 786.617188 899.847656 779.148438 901.800781 C 771.628906 903.851562 763.960938 899.3125 762.007812 891.839844 C 759.078125 880.707031 748.96875 872.941406 737.445312 872.941406 L 727.972656 872.941406 C 713.957031 872.941406 702.578125 884.367188 702.578125 898.382812 L 702.578125 967.332031 C 702.578125 981.347656 713.957031 992.726562 727.972656 992.726562 L 737.445312 992.726562 C 751.460938 992.726562 762.835938 981.347656 762.835938 967.332031 L 762.835938 957.46875 L 751.410156 957.46875 C 743.648438 957.46875 737.398438 951.21875 737.398438 943.453125 C 737.398438 935.691406 743.648438 929.441406 751.410156 929.441406 L 776.851562 929.441406 C 784.617188 929.441406 790.867188 935.691406 790.867188 943.453125 L 790.867188 967.332031 C 790.867188 996.777344 766.890625 1020.753906 737.445312 1020.753906 " fill-opacity="1" fill-rule="nonzero"/></svg>