<svg xmlns="http://www.w3.org/2000/svg" xmlns:xlink="http://www.w3.org/1999/xlink" width="2000" zoomAndPan="magnify" viewBox="0 0 1500 1499.999933" height="2000" preserveAspectRatio="xMidYMid meet" version="1.0"><defs><clipPath id="94194f3e28"><path d="M 120 125.917969 L 1369 125.917969 L 1369 1373.917969 L 120 1373.917969 Z M 120 125.917969 " clip-rule="nonzero"/></clipPath></defs><g clip-path="url(#94194f3e28)"><path fill="#2e2d2c" d="M 1124.035156 355.613281 C 1170.339844 355.613281 1208.011719 317.945312 1208.011719 271.640625 C 1208.011719 225.34375 1170.339844 187.679688 1124.035156 187.679688 C 1077.734375 187.679688 1040.0625 225.34375 1040.0625 271.640625 C 1040.058594 317.945312 1077.730469 355.613281 1124.035156 355.613281 Z M 1124.035156 223.046875 C 1150.835938 223.046875 1172.636719 244.847656 1172.636719 271.636719 C 1172.636719 298.4375 1150.835938 320.238281 1124.035156 320.238281 C 1097.238281 320.238281 1075.433594 298.4375 1075.433594 271.636719 C 1075.429688 244.847656 1097.234375 223.046875 1124.035156 223.046875 Z M 203.371094 519.550781 C 203.371094 430.714844 275.648438 358.445312 364.488281 358.445312 C 453.324219 358.445312 525.59375 430.714844 525.59375 519.550781 C 525.59375 537.28125 516.488281 562.019531 473.089844 579.210938 C 470.953125 580.058594 468.746094 580.460938 466.582031 580.460938 C 459.539062 580.460938 452.882812 576.226562 450.132812 569.28125 C 446.535156 560.203125 450.976562 549.921875 460.0625 546.324219 C 471.324219 541.859375 490.226562 532.449219 490.226562 519.546875 C 490.226562 450.21875 433.824219 393.816406 364.492188 393.816406 C 295.15625 393.816406 238.746094 450.21875 238.746094 519.546875 C 238.746094 532.445312 257.644531 541.859375 268.910156 546.324219 C 277.992188 549.921875 282.4375 560.203125 278.839844 569.28125 C 275.242188 578.367188 264.957031 582.808594 255.882812 579.210938 C 212.480469 562.019531 203.371094 537.28125 203.371094 519.550781 Z M 962.921875 519.550781 C 962.921875 430.714844 1035.195312 358.445312 1124.035156 358.445312 C 1212.871094 358.445312 1285.144531 430.714844 1285.144531 519.550781 C 1285.144531 537.28125 1276.035156 562.019531 1232.636719 579.210938 C 1230.5 580.058594 1228.292969 580.460938 1226.128906 580.460938 C 1219.085938 580.460938 1212.429688 576.226562 1209.679688 569.28125 C 1206.082031 560.203125 1210.527344 549.921875 1219.609375 546.324219 C 1230.875 541.859375 1249.773438 532.449219 1249.773438 519.546875 C 1249.773438 450.21875 1193.371094 393.816406 1124.039062 393.816406 C 1054.707031 393.816406 998.296875 450.21875 998.296875 519.546875 C 998.296875 532.445312 1017.191406 541.859375 1028.457031 546.324219 C 1037.542969 549.921875 1041.984375 560.203125 1038.386719 569.28125 C 1034.789062 578.367188 1024.5 582.808594 1015.429688 579.210938 C 972.027344 562.019531 962.921875 537.28125 962.921875 519.550781 Z M 559.4375 509.730469 C 559.4375 407.820312 642.347656 324.914062 744.265625 324.914062 C 846.171875 324.914062 929.078125 407.820312 929.078125 509.730469 C 929.078125 531.125 917.132812 560.683594 860.25 580.019531 C 858.363281 580.660156 856.441406 580.964844 854.554688 580.964844 C 847.191406 580.964844 840.3125 576.324219 837.808594 568.964844 C 834.667969 559.714844 839.617188 549.667969 848.863281 546.523438 C 862.347656 541.945312 893.703125 529.1875 893.703125 509.730469 C 893.703125 427.328125 826.664062 360.289062 744.265625 360.289062 C 661.855469 360.289062 594.808594 427.328125 594.808594 509.730469 C 594.808594 529.1875 626.164062 541.945312 639.648438 546.523438 C 648.894531 549.667969 653.84375 559.714844 650.703125 568.964844 C 647.5625 578.210938 637.511719 583.160156 628.261719 580.019531 C 571.375 560.683594 559.4375 531.125 559.4375 509.730469 Z M 1363.710938 932.023438 C 1354.882812 906.035156 1333.847656 887.175781 1304.472656 878.914062 C 1272.914062 870.042969 1231.894531 872.902344 1182.5625 887.414062 L 958.507812 953.328125 C 946.9375 929.894531 925.726562 911.371094 898.554688 904.113281 L 739.160156 861.527344 C 622.652344 780.027344 560.261719 803.519531 468.535156 848.460938 C 417.789062 873.320312 366.410156 897.714844 314.058594 922.449219 L 309.941406 913.082031 C 297.867188 885.636719 265.703125 873.109375 238.238281 885.148438 L 152.855469 922.605469 C 139.46875 928.476562 129.195312 939.152344 123.929688 952.667969 C 118.664062 966.183594 119.007812 980.996094 124.894531 994.375 L 277.613281 1341.5625 C 286.570312 1361.925781 306.582031 1374.082031 327.527344 1374.082031 C 334.816406 1374.082031 342.222656 1372.609375 349.3125 1369.496094 L 434.699219 1332.042969 C 448.082031 1326.171875 458.351562 1315.496094 463.621094 1301.980469 C 468.886719 1288.460938 468.546875 1273.648438 462.660156 1260.269531 L 447.757812 1226.390625 L 523.953125 1189.273438 C 544.378906 1179.324219 564.921875 1177.558594 586.734375 1183.878906 L 765.882812 1235.75 C 779.0625 1239.566406 792.675781 1241.199219 806.488281 1241.199219 C 854.183594 1241.199219 904.164062 1221.707031 946.175781 1205.324219 C 949.875 1203.878906 953.503906 1202.464844 957.054688 1201.09375 L 1293.113281 1071.308594 C 1347.65625 1050.238281 1381.308594 983.851562 1363.710938 932.023438 Z M 430.660156 1289.136719 C 428.828125 1293.84375 425.214844 1297.578125 420.488281 1299.648438 C 420.488281 1299.652344 420.488281 1299.652344 420.488281 1299.652344 L 335.101562 1337.105469 C 325.484375 1341.332031 314.21875 1336.9375 309.992188 1327.324219 L 157.269531 980.132812 C 155.195312 975.410156 155.058594 970.214844 156.890625 965.511719 C 158.726562 960.808594 162.335938 957.074219 167.0625 955 L 252.449219 917.542969 C 254.933594 916.453125 257.527344 915.9375 260.078125 915.9375 C 267.414062 915.9375 274.425781 920.195312 277.5625 927.324219 L 430.28125 1274.515625 C 432.359375 1279.238281 432.492188 1284.433594 430.660156 1289.136719 Z M 1280.371094 1038.308594 L 944.3125 1168.09375 C 940.726562 1169.480469 937.058594 1170.90625 933.324219 1172.363281 C 884.125 1191.554688 822.894531 1215.429688 775.71875 1201.769531 L 596.570312 1149.898438 C 566.371094 1141.152344 536.726562 1143.699219 508.460938 1157.472656 L 433.503906 1193.984375 L 328.308594 954.835938 C 381.078125 929.910156 432.871094 905.320312 484.097656 880.222656 C 569.640625 838.308594 619.050781 819.816406 721.339844 892.234375 C 723.050781 893.445312 724.96875 894.347656 726.996094 894.886719 L 889.429688 938.285156 C 920.613281 946.613281 939.203125 978.761719 930.871094 1009.941406 C 922.539062 1041.121094 890.378906 1059.710938 859.214844 1051.378906 L 643.34375 993.707031 C 633.914062 991.183594 624.210938 996.792969 621.695312 1006.230469 C 619.171875 1015.667969 624.777344 1025.359375 634.214844 1027.882812 L 850.085938 1085.550781 C 874.238281 1092.003906 899.527344 1088.628906 921.292969 1076.039062 C 943.054688 1063.453125 958.597656 1043.21875 965.046875 1019.066406 C 967.878906 1008.460938 968.773438 997.785156 967.941406 987.421875 L 1192.546875 921.351562 C 1266.65625 899.539062 1318.125 907.789062 1330.214844 943.394531 C 1341.675781 977.152344 1316.988281 1024.167969 1280.371094 1038.308594 Z M 744.265625 315.769531 C 796.609375 315.769531 839.195312 273.183594 839.195312 220.835938 C 839.195312 168.5 796.609375 125.917969 744.265625 125.917969 C 691.917969 125.917969 649.332031 168.5 649.332031 220.835938 C 649.332031 273.183594 691.917969 315.769531 744.265625 315.769531 Z M 744.265625 161.285156 C 777.105469 161.285156 803.820312 188 803.820312 220.835938 C 803.820312 253.675781 777.105469 280.394531 744.265625 280.394531 C 711.421875 280.394531 684.703125 253.675781 684.703125 220.835938 C 684.703125 188 711.421875 161.285156 744.265625 161.285156 Z M 364.484375 355.613281 C 410.789062 355.613281 448.460938 317.945312 448.460938 271.640625 C 448.460938 225.34375 410.789062 187.679688 364.484375 187.679688 C 318.183594 187.679688 280.511719 225.34375 280.511719 271.640625 C 280.511719 317.945312 318.183594 355.613281 364.484375 355.613281 Z M 364.484375 223.046875 C 391.285156 223.046875 413.089844 244.847656 413.089844 271.636719 C 413.089844 298.4375 391.285156 320.238281 364.484375 320.238281 C 337.6875 320.238281 315.882812 298.4375 315.882812 271.636719 C 315.882812 244.847656 337.6875 223.046875 364.484375 223.046875 Z M 1281.96875 611.789062 C 1279.722656 604.878906 1273.484375 600.042969 1266.230469 599.601562 L 1174.253906 593.984375 L 1140.488281 508.242188 C 1137.824219 501.480469 1131.296875 497.035156 1124.03125 497.035156 C 1116.765625 497.035156 1110.238281 501.480469 1107.574219 508.242188 L 1073.808594 593.984375 L 981.835938 599.601562 C 974.582031 600.042969 968.335938 604.878906 966.09375 611.789062 C 963.851562 618.699219 966.054688 626.277344 971.664062 630.898438 L 1042.773438 689.507812 L 1019.695312 778.722656 C 1017.875 785.753906 1020.542969 793.1875 1026.421875 797.457031 C 1032.300781 801.730469 1040.199219 801.964844 1046.320312 798.066406 L 1124.035156 748.546875 L 1201.746094 798.066406 C 1204.652344 799.914062 1207.953125 800.835938 1211.25 800.835938 C 1214.90625 800.835938 1218.554688 799.707031 1221.644531 797.457031 C 1227.527344 793.1875 1230.195312 785.753906 1228.375 778.722656 L 1205.292969 689.507812 L 1276.402344 630.898438 C 1282.007812 626.277344 1284.214844 618.699219 1281.96875 611.789062 Z M 1174.09375 669.378906 C 1168.789062 673.75 1166.5 680.804688 1168.21875 687.457031 L 1182.875 744.097656 L 1133.535156 712.660156 C 1127.738281 708.964844 1120.324219 708.964844 1114.527344 712.660156 L 1065.191406 744.097656 L 1079.84375 687.457031 C 1081.566406 680.800781 1079.273438 673.75 1073.972656 669.378906 L 1028.824219 632.167969 L 1087.21875 628.601562 C 1094.082031 628.183594 1100.078125 623.824219 1102.59375 617.429688 L 1124.035156 562.992188 L 1145.472656 617.429688 C 1147.988281 623.824219 1153.988281 628.183594 1160.851562 628.601562 L 1219.246094 632.167969 Z M 522.425781 611.789062 C 520.179688 604.878906 513.9375 600.042969 506.683594 599.601562 L 414.707031 593.984375 L 380.941406 508.242188 C 378.277344 501.480469 371.75 497.035156 364.484375 497.035156 C 357.21875 497.035156 350.691406 501.480469 348.023438 508.242188 L 314.265625 593.984375 L 222.285156 599.601562 C 215.035156 600.042969 208.789062 604.878906 206.546875 611.789062 C 204.300781 618.699219 206.507812 626.277344 212.117188 630.898438 L 283.226562 689.507812 L 260.144531 778.722656 C 258.328125 785.753906 260.996094 793.1875 266.875 797.460938 C 272.753906 801.730469 280.648438 801.964844 286.773438 798.066406 L 364.484375 748.546875 L 442.199219 798.066406 C 445.101562 799.914062 448.40625 800.835938 451.703125 800.835938 C 455.355469 800.835938 459.007812 799.707031 462.097656 797.457031 C 467.976562 793.1875 470.644531 785.753906 468.828125 778.722656 L 445.746094 689.507812 L 516.859375 630.902344 C 522.460938 626.28125 524.671875 618.699219 522.425781 611.789062 Z M 414.546875 669.378906 C 409.242188 673.75 406.953125 680.804688 408.671875 687.457031 L 423.328125 744.097656 L 373.988281 712.660156 C 371.089844 710.8125 367.789062 709.886719 364.484375 709.886719 C 361.179688 709.886719 357.878906 710.808594 354.976562 712.660156 L 305.640625 744.097656 L 320.296875 687.457031 C 322.015625 680.800781 319.722656 673.75 314.421875 669.378906 L 269.273438 632.167969 L 327.671875 628.601562 C 334.53125 628.183594 340.53125 623.824219 343.050781 617.429688 L 364.484375 562.992188 L 385.921875 617.429688 C 388.4375 623.824219 394.4375 628.183594 401.300781 628.601562 L 459.695312 632.167969 Z M 902.195312 611.789062 C 899.949219 604.878906 893.707031 600.042969 886.457031 599.601562 L 794.480469 593.984375 L 760.714844 508.242188 C 758.050781 501.480469 751.527344 497.035156 744.257812 497.035156 C 736.992188 497.035156 730.464844 501.480469 727.800781 508.242188 L 694.035156 593.984375 L 602.0625 599.601562 C 594.808594 600.042969 588.5625 604.878906 586.320312 611.789062 C 584.078125 618.699219 586.28125 626.277344 591.890625 630.898438 L 663 689.507812 L 639.921875 778.722656 C 638.101562 785.753906 640.769531 793.1875 646.648438 797.457031 C 652.527344 801.730469 660.421875 801.964844 666.550781 798.066406 L 744.261719 748.546875 L 821.972656 798.066406 C 824.878906 799.914062 828.179688 800.835938 831.480469 800.835938 C 835.132812 800.835938 838.785156 799.707031 841.875 797.457031 C 847.753906 793.1875 850.421875 785.753906 848.601562 778.722656 L 825.519531 689.507812 L 896.632812 630.898438 C 902.234375 626.277344 904.441406 618.699219 902.195312 611.789062 Z M 794.320312 669.378906 C 789.011719 673.75 786.722656 680.804688 788.445312 687.457031 L 803.097656 744.097656 L 753.761719 712.660156 C 750.863281 710.8125 747.5625 709.886719 744.257812 709.886719 C 740.953125 709.886719 737.652344 710.808594 734.75 712.660156 L 685.414062 744.097656 L 700.066406 687.457031 C 701.789062 680.800781 699.496094 673.75 694.191406 669.378906 L 649.042969 632.167969 L 707.441406 628.601562 C 714.304688 628.183594 720.300781 623.824219 722.816406 617.429688 L 744.257812 562.992188 L 765.695312 617.429688 C 768.210938 623.824219 774.210938 628.183594 781.070312 628.601562 L 839.46875 632.167969 Z M 794.320312 669.378906 " fill-opacity="1" fill-rule="nonzero"/></g></svg>