<svg xmlns="http://www.w3.org/2000/svg" xmlns:xlink="http://www.w3.org/1999/xlink" width="2000" zoomAndPan="magnify" viewBox="0 0 1500 1499.999933" height="2000" preserveAspectRatio="xMidYMid meet" version="1.0"><defs><filter x="0%" y="0%" width="100%" height="100%" id="45113ce164"><feColorMatrix values="0 0 0 0 1 0 0 0 0 1 0 0 0 0 1 0 0 0 1 0" color-interpolation-filters="sRGB"/></filter><mask id="9bda9b403a"><g filter="url(#45113ce164)"><rect x="-150" width="1800" fill="#000000" y="-149.999993" height="1799.99992" fill-opacity="0.37"/></g></mask><clipPath id="e7d2447186"><path d="M 0.300781 0.242188 L 785.550781 0.242188 L 785.550781 725.492188 L 0.300781 725.492188 Z M 0.300781 0.242188 " clip-rule="nonzero"/></clipPath><clipPath id="c1922d1ef8"><rect x="0" width="786" y="0" height="726"/></clipPath></defs><g mask="url(#9bda9b403a)"><g transform="matrix(1, 0, 0, 1, 357, 387)"><g clip-path="url(#c1922d1ef8)"><g clip-path="url(#e7d2447186)"><path fill="#9e9c9c" d="M 766.425781 583.222656 C 766.753906 582.699219 766.695312 582.972656 739.082031 544.6875 C 739.078125 544.683594 738.988281 544.558594 738.988281 544.558594 L 731.945312 537.519531 L 742.195312 530.832031 L 785.285156 501.453125 C 785.289062 501.453125 785.289062 501.453125 785.289062 501.453125 C 785.707031 501.101562 785.570312 501.4375 784.035156 474.929688 C 784.050781 474.832031 784.039062 474.738281 784.007812 474.652344 C 778.753906 447.234375 778.875 447.46875 778.617188 447.261719 L 749.3125 423.652344 L 721.449219 408.097656 L 715.046875 384.410156 L 746.035156 358.78125 C 746.585938 358.324219 746.4375 358.570312 732.3125 332.089844 C 731.1875 330.410156 716.398438 306.414062 715.996094 306.234375 L 691.027344 295.292969 L 671.242188 292.597656 C 648.058594 259.824219 655.769531 270.082031 637.082031 246.796875 C 654.515625 226.921875 654.925781 227.402344 654.265625 226.703125 C 628.625 199.644531 638.453125 209.574219 611.480469 183.238281 C 611.226562 183.003906 611.488281 183.097656 592.773438 181.917969 C 592.535156 181.902344 592.734375 181.847656 581.523438 188 C 550.027344 160.785156 562.257812 170.753906 528.347656 144.375 C 534.585938 133.988281 534.519531 134.242188 534.46875 133.917969 C 531.933594 117.675781 532.082031 117.972656 531.753906 117.703125 C 502.285156 97.316406 513.707031 104.800781 482.035156 84.914062 C 481.449219 84.546875 471.074219 92.925781 471.007812 93.019531 L 463.96875 102.914062 C 433.574219 86.480469 445.820312 92.601562 409.902344 76.1875 L 405.773438 59.648438 L 393.324219 39.878906 C 393.15625 39.621094 393.355469 39.769531 365.910156 29.28125 C 365.90625 29.28125 365.902344 29.28125 365.902344 29.277344 L 338.335938 20.046875 C 337.667969 19.882812 337.957031 19.851562 321.355469 48.871094 C 315.367188 47.519531 321.402344 48.441406 287.476562 44.261719 L 271.523438 22.804688 L 247.347656 1.824219 C 247.0625 1.59375 220.300781 0.304688 220.160156 0.296875 C 192.089844 1.921875 193.933594 1.953125 194.035156 1.882812 C 193.738281 2.082031 174.015625 46.320312 169.9375 55.621094 L 151.730469 42.480469 L 114.492188 24.195312 C 114.023438 23.960938 114.328125 23.953125 94.390625 37.261719 L 75.996094 53.671875 L 46.398438 133.519531 C 38.769531 132.632812 38.746094 132.464844 38.492188 133.003906 L 2.90625 231.824219 L 0.300781 260.722656 C 1.289062 302.726562 1.515625 298.769531 1.421875 298.699219 C 1.539062 298.785156 1.425781 298.730469 47.53125 314.238281 L 88.308594 317.210938 L 92.742188 331.015625 C 91.347656 331.800781 89.511719 332.84375 89.636719 332.765625 C 89.203125 333.035156 42.792969 426.894531 43.308594 427.753906 L 67.230469 467.859375 L 97.203125 508.820312 C 97.527344 509.054688 97.253906 509 144.5625 499.472656 L 176.683594 479.285156 L 213.515625 517.214844 L 254.585938 551.105469 L 233.988281 583.203125 L 226.1875 628.433594 C 226.046875 629.238281 226.359375 628.804688 271.257812 657.773438 C 317.429688 682.039062 317.132812 682.128906 317.609375 681.699219 C 361.925781 641.652344 346.195312 655.683594 386.71875 619.949219 C 387.234375 620.152344 393.574219 622.640625 394.046875 622.828125 L 438.679688 633.90625 L 445.699219 676.488281 C 467.691406 724.273438 467.410156 724.121094 467.976562 724.164062 L 508.808594 725.734375 C 545.117188 722.007812 544.929688 722.066406 545.113281 721.949219 C 597.5625 689.082031 578.554688 701.074219 628.476562 669.398438 L 640.519531 681.066406 C 640.988281 681.410156 640.824219 681.542969 733.984375 623.726562 L 752.746094 604.800781 Z M 685.34375 652.542969 L 651.59375 621.425781 L 696.984375 590.683594 L 732.664062 623.1875 Z M 588.328125 693.492188 L 554.722656 695.332031 L 600.175781 665.214844 L 636.019531 663.234375 Z M 468.257812 722.710938 L 446.972656 676.496094 L 486.523438 646.304688 L 509.996094 693.804688 Z M 439.824219 633.667969 L 477.761719 602.277344 L 486.09375 645.167969 L 446.664062 675.261719 Z M 395.40625 621.96875 L 432.167969 589.644531 L 476.898438 601.476562 L 439.046875 632.796875 Z M 354.074219 647.183594 L 307.328125 622.199219 L 345.882812 584.300781 L 395.476562 610.667969 Z M 271.445312 656.511719 L 227.660156 628.414062 L 259.988281 592.769531 L 305.4375 622.429688 Z M 255.28125 550.167969 L 214.679688 516.667969 L 243.304688 477.9375 L 286.417969 513.277344 Z M 123.640625 466.242188 L 169.21875 458.527344 L 143.894531 498.457031 L 98.730469 507.515625 Z M 92.21875 424.519531 L 117.683594 377.136719 L 150.578125 419.03125 L 123.21875 464.679688 Z M 128.109375 312.480469 L 158.945312 361.6875 L 117.835938 375.378906 L 90.765625 333.464844 Z M 48.433594 313.136719 L 67.738281 268.476562 L 109.5625 272.757812 L 88.390625 316.046875 Z M 2.527344 297.871094 L 20.292969 251.601562 L 66.589844 268.195312 L 47.25 312.933594 Z M 18.679688 214.773438 L 36.777344 166.535156 L 39.210938 198.886719 L 20.394531 248.078125 Z M 84.476562 139.125 L 82.453125 174.4375 L 37.773438 163.40625 L 39.558594 133.898438 Z M 77.304688 54.058594 L 94.792969 38.453125 L 127.074219 59.316406 L 108.519531 79.269531 Z M 151.464844 43.714844 C 173.632812 59.726562 166.976562 54.867188 180.628906 64.972656 L 161.488281 79.921875 L 129.027344 59.183594 Z M 219.9375 1.476562 L 237.726562 22.136719 L 208.671875 24.992188 L 195.351562 2.894531 Z M 270.757812 23.730469 L 285.984375 44.210938 L 258.492188 43.917969 L 240.214844 23.214844 Z M 316.679688 49.03125 L 329.34375 69.277344 L 303.929688 66.175781 L 288.445312 45.550781 Z M 347.480469 55.976562 L 356.636719 74.601562 L 330.847656 69.484375 L 318.265625 49.367188 Z M 371.589844 47.441406 L 377.601562 63.855469 L 348.289062 54.984375 L 339.414062 37.460938 Z M 404.714844 60.222656 L 408.566406 75.65625 L 379.007812 64.304688 L 373.027344 47.980469 Z M 439.035156 90.78125 L 440.355469 106.101562 L 414.148438 93.890625 L 410.25 77.628906 Z M 533.113281 134.175781 L 527.402344 143.679688 L 499.496094 124.222656 L 503.328125 113.453125 Z M 592.640625 183.21875 L 618.746094 208.425781 L 606.511719 212.402344 L 582.417969 188.839844 Z M 650.238281 265.050781 L 632.625 264.75 L 614.425781 241.609375 L 629.460938 239.164062 Z M 669.667969 292.390625 L 650.234375 289.835938 L 633.46875 265.929688 L 651.164062 266.230469 Z M 690.574219 296.40625 L 708.8125 325.886719 L 688.378906 321.019531 L 672.035156 293.878906 Z M 724.921875 357.484375 L 702.558594 349.910156 L 689.070312 322.382812 L 709.652344 327.285156 Z M 720.046875 407.347656 L 693.011719 393.070312 L 687.378906 368.707031 L 712.519531 379.523438 Z M 748.496094 424.519531 L 753.160156 454.363281 L 725.347656 436.972656 L 721.679688 409.558594 Z M 783.769531 501.078125 L 741.808594 529.683594 L 713.667969 517.316406 L 754.269531 487.804688 Z M 737.820312 545.027344 L 721.238281 568.492188 L 692.167969 535.371094 L 707.859375 515.101562 Z M 625.238281 584.691406 L 668.789062 552.921875 L 696.21875 589.800781 L 650.800781 620.554688 Z M 487.46875 645.582031 L 531.441406 611.929688 L 557.160156 661.167969 L 510.964844 693.132812 Z M 260.78125 591.898438 L 296.492188 552.601562 L 344.851562 583.679688 L 306.28125 621.59375 Z M 243.136719 476.210938 L 205.023438 437.835938 L 234.589844 393 L 275.457031 433.378906 Z M 124.429688 464.925781 L 151.640625 419.523438 L 198.867188 412.957031 L 170.0625 457.199219 Z M 20.710938 250.511719 L 40.136719 199.722656 L 88.117188 217.929688 L 67.050781 267.121094 Z M 131.894531 129.402344 L 126.949219 152.324219 L 122.238281 150.710938 C 124.800781 145.6875 122.53125 150.605469 131.894531 129.402344 Z M 109.507812 79.917969 L 128.070312 59.957031 L 160.652344 80.773438 L 145.285156 99.277344 Z M 191.679688 61.070312 C 191.679688 61.070312 191.683594 61.070312 191.6875 61.066406 L 205.039062 55.066406 L 230.457031 76.839844 L 212.140625 86.839844 L 182.722656 65.097656 Z M 257.984375 45.101562 L 277.109375 66.488281 L 254.324219 69.746094 L 232.035156 47.945312 Z M 303.320312 67.308594 L 319.109375 88.660156 L 298.214844 89.542969 L 279.523438 67.484375 Z M 330.136719 70.546875 L 342.289062 90.234375 L 320.542969 88.640625 L 304.890625 67.464844 Z M 378.105469 65.222656 L 384.9375 83.414062 L 358.09375 74.925781 L 348.996094 56.414062 Z M 526.796875 144.679688 L 520.597656 154.683594 L 495.542969 137.296875 L 499.125 125.382812 Z M 606.179688 213.738281 L 628.546875 238.128906 L 613.582031 240.5625 L 593.367188 217.96875 Z M 648.691406 289.660156 L 628.558594 287.472656 L 614.222656 265.988281 L 632.035156 265.910156 Z M 663.476562 315.011719 L 641.367188 310.023438 L 629.292969 288.726562 L 649.546875 290.925781 Z M 687.601562 322.035156 L 701.003906 349.378906 L 677.304688 341.285156 L 665.691406 316.726562 Z M 691.660156 392.378906 L 664.675781 378.652344 L 659.953125 356.773438 L 686.054688 368.136719 Z M 724.214844 437.640625 L 723.757812 463.550781 L 694.144531 442.019531 L 695.800781 419.578125 Z M 624.152344 584.039062 L 614.449219 587.585938 L 613.132812 584.875 L 640.539062 565.210938 L 664.230469 554.804688 Z M 532.121094 610.515625 L 522.292969 566.179688 L 565.628906 572.46875 L 581.851562 616.515625 Z M 473.585938 551.71875 L 470.878906 512.175781 L 510.859375 524.058594 L 520.742188 564.65625 Z M 323.304688 471.613281 L 341.679688 442.636719 L 383.179688 470.113281 L 371.382812 503.890625 Z M 235.445312 392.203125 L 265.21875 374.714844 L 300.667969 409.027344 L 276.238281 432.515625 Z M 200.195312 411.445312 L 160.800781 362.292969 L 197.886719 349.65625 L 233.601562 391.929688 Z M 177.21875 229.273438 L 216.113281 234 L 227.679688 262.453125 L 189.472656 262.820312 Z M 89.410156 217.078125 L 83.667969 175.9375 L 126.574219 186.535156 L 133.398438 222.882812 Z M 146.335938 99.84375 L 161.644531 81.402344 L 194.003906 101.78125 L 181.570312 118.820312 Z M 253.902344 71.019531 L 276.296875 92.871094 L 258.210938 99.164062 L 232.675781 77.207031 Z M 519.976562 155.671875 L 513.421875 165.921875 L 491.191406 150.46875 L 495.167969 138.457031 Z M 535.328125 184.121094 L 507.355469 217.820312 L 486.492188 201.527344 L 513.679688 167.554688 Z M 612.207031 240.773438 L 596.34375 243.167969 L 578.390625 223.167969 L 592.164062 218.371094 Z M 627.472656 287.949219 L 595.433594 319.667969 L 581.867188 298.617188 L 613.050781 266.335938 Z M 640.257812 310.429688 L 607.492188 342.019531 L 596.054688 320.695312 L 628.09375 288.976562 Z M 650.71875 332.8125 L 617.058594 364.746094 L 608.03125 343.117188 L 640.804688 311.523438 Z M 658.476562 355.613281 L 623.773438 387.597656 L 617.5 365.929688 L 651.160156 334 Z M 663.527344 378.832031 L 627.457031 410.417969 L 624.09375 388.886719 L 658.792969 356.90625 Z M 665.265625 400.023438 L 628.480469 431.558594 L 627.636719 411.808594 L 663.675781 380.25 Z M 694.691406 418.878906 L 693.042969 441.242188 L 663.976562 420.972656 L 666.320312 401.253906 Z M 723.660156 464.921875 L 718.265625 489.59375 L 688.511719 464.347656 L 693.886719 443.273438 Z M 678.210938 484.941406 L 688.042969 465.480469 L 717.914062 490.828125 L 707.617188 513.230469 Z M 640.476562 563.964844 L 616.578125 525.898438 L 641.203125 516.546875 L 668 551.871094 Z M 522.015625 564.964844 L 512.121094 524.3125 L 549.792969 530.257812 L 565.164062 571.230469 Z M 470.789062 510.9375 L 467.742188 473.96875 L 502.082031 484.710938 L 510.5625 522.757812 Z M 342.296875 441.652344 L 359.132812 414.792969 L 393.96875 438.117188 L 383.570312 468.976562 Z M 384.589844 469.601562 L 394.996094 438.730469 L 430.167969 458.109375 L 426.917969 492.464844 Z M 431.035156 457.253906 C 362.625 419.5625 329.703125 397.109375 268.042969 325.722656 C 241.6875 287.550781 250.492188 301.984375 229.078125 262.808594 L 217.089844 233.320312 L 210.289062 206.035156 L 208.578125 187.679688 L 214.84375 183.582031 L 233.027344 176.097656 L 253.222656 171.179688 L 274.996094 169.058594 C 303.460938 169.644531 292.886719 168.96875 321.164062 172.261719 C 369.023438 183.429688 378.828125 188.140625 415.382812 206.625 C 504.792969 259.828125 543.082031 309.992188 575.453125 373.945312 L 583.941406 396.488281 L 589.75 419.289062 L 592.675781 441.078125 L 592.429688 463.035156 L 588.976562 482.949219 L 586.511719 488.632812 L 565.953125 491.128906 L 535.78125 489.847656 L 502.753906 483.703125 C 460.226562 470.398438 476.726562 476.601562 431.035156 457.253906 Z M 266.261719 374.109375 L 294.359375 357.910156 L 323.933594 386.503906 L 301.503906 408.21875 Z M 199.070312 349.257812 L 233.996094 337.582031 L 264.417969 373.832031 L 234.621094 391.332031 Z M 245.3125 294.851562 L 266.660156 325.769531 L 234.425781 336.214844 L 210.269531 300.121094 Z M 267.398438 326.757812 L 293.546875 357.035156 L 265.4375 373.238281 L 235.1875 337.191406 Z M 170.207031 195.769531 L 169.011719 167.875 L 206.761719 180.769531 L 209.058594 205.328125 Z M 226.996094 122.300781 L 216.972656 137.582031 L 182.609375 119.375 L 194.996094 102.402344 Z M 239.847656 112.058594 L 218.84375 153.03125 L 210.148438 160.847656 L 210.4375 158.347656 L 211.976562 154.152344 L 228.28125 122.480469 Z M 256.644531 101.359375 L 235.441406 142.84375 L 220.769531 151.828125 L 242.238281 109.949219 Z M 253.367188 136.953125 L 232.480469 175.070312 L 215.894531 181.898438 L 236.296875 143.71875 Z M 512.738281 166.867188 L 485.554688 200.835938 L 464.34375 186.152344 L 490.628906 151.496094 Z M 595.332031 243.785156 L 565.414062 276.191406 L 548.226562 256.726562 L 577.375 223.785156 Z M 627.367188 432.515625 L 593.601562 461.84375 L 593.832031 441.359375 L 626.515625 412.789062 Z M 624.492188 452.84375 L 590.386719 481.640625 L 593.535156 463.449219 L 627.152344 434.246094 Z M 662.25 422.925781 L 657.398438 439.332031 L 619.804688 469.769531 L 625.503906 453.515625 Z M 692.875 442.546875 L 687.519531 463.519531 L 658.574219 439.464844 L 663.675781 422.183594 Z M 648.523438 456.179688 L 658.054688 440.550781 L 687.125 464.710938 L 677.335938 484.09375 Z M 633.453125 470.015625 L 627.5 473.632812 L 639.800781 463.5625 Z M 615.628906 480.832031 L 613.089844 481.605469 L 619.019531 471.90625 L 655.65625 442.242188 L 647.339844 455.886719 L 620.367188 477.957031 Z M 616.074219 474.484375 L 611.414062 482.113281 L 605.261719 483.980469 Z M 618.074219 471.179688 L 602.558594 484.800781 L 592.179688 487.949219 L 587.851562 488.472656 L 590.019531 483.476562 L 623.765625 454.984375 Z M 593.691406 439.933594 L 590.941406 419.4375 L 623.066406 389.832031 L 626.425781 411.324219 Z M 590.648438 418.121094 L 585.152344 396.53125 L 616.550781 366.828125 L 622.820312 388.476562 Z M 584.742188 395.316406 L 576.675781 373.882812 L 607.136719 343.992188 L 616.15625 365.601562 Z M 576.15625 372.757812 L 565.554688 351.804688 L 595.195312 321.5625 L 606.625 342.859375 Z M 564.957031 350.75 L 552.128906 329.457031 L 581.039062 299.480469 L 594.59375 320.511719 Z M 551.46875 328.460938 L 537.277344 308.289062 L 565.351562 277.976562 L 580.371094 298.492188 Z M 564.621094 277.046875 L 536.550781 307.359375 L 520.386719 288.390625 L 547.449219 257.609375 Z M 519.59375 287.527344 L 501.65625 269.113281 L 528.1875 237.949219 L 546.652344 256.75 Z M 500.8125 268.300781 L 481.808594 250.976562 L 507.507812 219.46875 L 527.34375 237.140625 Z M 480.921875 250.222656 L 460.960938 234.585938 L 485.769531 202.445312 L 506.613281 218.722656 Z M 416.523438 205.949219 L 440.277344 173.039062 L 462.65625 186.449219 L 438.199219 218.847656 Z M 463.640625 187.082031 L 484.832031 201.753906 L 460.019531 233.894531 L 439.179688 219.480469 Z M 463.363281 185.515625 L 440.957031 172.089844 L 466.183594 136.804688 L 489.648438 150.863281 Z M 439.246094 172.472656 L 415.5 205.378906 L 392.992188 194 L 416.210938 160.710938 Z M 415.136719 160.210938 L 391.917969 193.5 L 369.671875 184.414062 L 392.308594 150.441406 Z M 391.1875 150.023438 L 368.550781 183.996094 L 345.710938 176.855469 L 368.074219 142.152344 Z M 366.902344 141.816406 L 344.539062 176.519531 L 322.21875 171.3125 L 343.996094 135.929688 Z M 342.773438 135.6875 L 320.996094 171.070312 L 298.683594 168.472656 L 319.953125 131.941406 Z M 318.671875 131.828125 L 297.402344 168.355469 L 276 167.917969 L 297.289062 130.628906 Z M 295.917969 130.675781 L 274.652344 167.925781 L 254.21875 169.917969 L 275.378906 132.082031 Z M 273.890625 132.351562 L 252.78125 170.09375 L 234.03125 174.660156 L 255.03125 136.339844 Z M 214.179688 182.636719 L 208.457031 186.371094 L 207.894531 180.347656 L 208.671875 173.628906 L 219.746094 153.8125 L 234.367188 144.855469 Z M 217.101562 156.15625 L 209.019531 170.613281 L 209.945312 162.597656 Z M 222.222656 131.699219 L 215.253906 145.238281 L 217.691406 138.609375 Z M 209.238281 158.566406 L 207.527344 173.363281 L 206.8125 179.554688 L 169.050781 166.65625 L 172.75 141.972656 Z M 503.339844 484.996094 L 535.238281 490.925781 L 549.332031 529.007812 L 511.832031 523.089844 Z M 550.632812 529.171875 L 536.527344 491.039062 L 565.558594 492.269531 L 584.539062 530.054688 Z M 566.820312 492.1875 L 591.949219 489.140625 L 614.746094 525.175781 L 585.828125 530.027344 Z M 593.152344 488.863281 L 615.644531 482.046875 L 640.476562 515.578125 L 615.953125 524.902344 Z M 641.542969 515.054688 L 616.71875 481.539062 L 633.707031 471.226562 L 661.128906 502.019531 Z M 662.011719 501.261719 L 634.617188 470.496094 L 647.796875 457.097656 L 676.6875 485.089844 Z M 662.8125 420.941406 L 625.816406 451.738281 L 628.484375 433.089844 L 665.105469 401.699219 Z M 581.191406 297.640625 L 566.15625 277.105469 L 596.085938 244.691406 L 612.363281 265.371094 Z M 547.425781 255.871094 L 528.949219 237.058594 L 557.628906 203.734375 L 576.574219 222.929688 Z M 528.101562 236.253906 L 508.25 218.570312 L 536.226562 184.859375 L 556.785156 202.933594 Z M 494.164062 137.785156 L 490.179688 149.824219 L 466.652344 135.726562 L 468.664062 121.855469 Z M 465.164062 136.222656 L 439.933594 171.515625 L 416.886719 159.746094 L 442.1875 123.660156 Z M 441.125 123.144531 L 415.820312 159.238281 L 392.960938 149.457031 L 417.140625 112.519531 Z M 416.035156 112.078125 L 391.851562 149.019531 L 368.71875 141.144531 L 392.621094 103.382812 Z M 391.472656 103.019531 L 367.5625 140.785156 L 344.628906 134.886719 L 367.753906 96.375 Z M 366.558594 96.101562 L 343.429688 134.617188 L 320.582031 130.867188 L 343.675781 91.554688 Z M 342.410156 91.410156 L 319.328125 130.699219 L 297.929688 129.5 L 320.554688 89.808594 Z M 319.203125 89.820312 L 296.609375 129.464844 L 276.046875 130.875 L 298.304688 90.703125 Z M 296.875 90.875 L 274.640625 131.007812 L 255.746094 135.007812 L 277.757812 93.648438 Z M 254.234375 135.363281 L 237.101562 142.152344 L 258.496094 100.296875 L 276.171875 94.140625 Z M 231.40625 77.652344 L 257.089844 99.738281 L 241.84375 108.839844 L 213.164062 87.601562 Z M 212.09375 88.257812 L 240.878906 109.578125 L 227.746094 121.394531 L 195.84375 101.558594 Z M 216.445312 138.621094 L 209.535156 157.421875 L 173.050781 140.832031 L 182.023438 120.382812 Z M 171.644531 141.476562 L 167.941406 166.277344 L 128.058594 152.703125 L 134.089844 124.761719 Z M 167.839844 167.476562 L 169.035156 195.484375 L 127.667969 185.597656 L 127.957031 153.890625 Z M 127.804688 186.832031 L 169.148438 196.710938 L 175.621094 227.90625 L 134.613281 223.039062 Z M 170.394531 197.015625 L 209.230469 206.574219 L 215.761719 232.78125 L 176.835938 228.050781 Z M 228.195312 263.613281 L 244.675781 293.769531 L 209.585938 299.046875 L 190.042969 263.984375 Z M 208.992188 300.3125 L 233.28125 336.59375 L 198.316406 348.28125 L 170.472656 305.925781 Z M 324.808594 387.28125 L 358.1875 414.101562 L 341.363281 440.949219 L 302.378906 408.996094 Z M 372.398438 504.519531 L 384.207031 470.71875 L 426.789062 493.71875 L 422.160156 531.019531 Z M 428.035156 493.027344 L 431.289062 458.628906 L 466.539062 473.550781 L 469.578125 510.46875 Z M 566.460938 571.367188 L 551.074219 530.347656 L 585.125 531.226562 L 604.949219 570.6875 Z M 586.371094 531.105469 L 615.414062 526.234375 L 639.300781 564.289062 L 606.210938 570.605469 Z M 637.761719 565.769531 L 612.617188 583.808594 L 606.742188 571.683594 Z M 669.027344 551.296875 L 642.242188 515.988281 L 661.90625 502.902344 L 690.554688 535.304688 Z M 691.382812 534.476562 L 662.789062 502.140625 L 677.527344 485.898438 L 707.027344 514.269531 Z M 712.503906 516.722656 L 708.535156 514.023438 L 719.179688 490.855469 L 724.675781 465.679688 L 753.21875 487.128906 Z M 666.417969 399.941406 L 664.824219 380.035156 L 691.960938 393.839844 L 694.597656 417.445312 Z M 659.617188 355.355469 L 652.351562 333.890625 L 676.433594 342.21875 L 685.539062 366.640625 Z M 675.765625 340.753906 L 651.84375 332.480469 L 642.015625 311.367188 L 664.242188 316.378906 Z M 613.417969 264.824219 L 597.199219 244.21875 L 613.109375 241.816406 L 631.140625 264.75 Z M 577.527344 222.234375 L 558.535156 202.996094 L 569.785156 196.28125 L 591.265625 217.453125 Z M 557.667969 202.15625 L 537.03125 184.019531 L 545.710938 175.949219 L 568.871094 195.46875 Z M 536.132812 183.269531 L 514.363281 166.609375 L 520.914062 156.367188 L 544.796875 175.207031 Z M 498.113281 124.707031 L 494.523438 136.636719 L 468.832031 120.589844 L 470.113281 107.683594 Z M 467.578125 121.21875 L 465.5625 135.113281 L 442.570312 122.542969 L 441.667969 108.035156 Z M 440.464844 107.4375 L 441.367188 121.976562 L 417.441406 111.378906 L 414.429688 95.304688 Z M 413.136719 94.730469 L 416.160156 110.882812 L 392.839844 102.222656 L 386.863281 85.292969 Z M 391.457031 101.808594 L 367.894531 95.207031 L 358.792969 76.363281 L 385.449219 84.796875 Z M 357.277344 75.910156 L 366.449219 94.894531 L 343.75 90.382812 L 331.6875 70.835938 Z M 296.828125 89.707031 L 277.589844 92.503906 L 255.371094 70.769531 L 278.03125 67.527344 Z M 252.949219 70.085938 L 231.617188 76.296875 L 206.359375 54.664062 L 230.546875 48.148438 Z M 205.117188 53.796875 C 204.949219 53.808594 205.105469 53.765625 192.710938 59.332031 L 208.535156 26.59375 L 229.585938 47.207031 Z M 211.132812 87.546875 L 194.800781 100.90625 L 162.535156 80.585938 L 181.601562 65.691406 Z M 180.992188 119.832031 L 171.988281 140.351562 L 134.460938 123.652344 L 145.6875 100.816406 Z M 126.792969 153.492188 L 126.511719 185.316406 L 83.59375 174.71875 L 85.628906 139.410156 Z M 82.460938 175.640625 L 88.179688 216.703125 L 40.355469 198.558594 L 37.796875 164.613281 Z M 68.21875 267.355469 L 89.257812 218.234375 L 133.242188 224.039062 L 110.109375 271.640625 Z M 175.925781 229.117188 L 188.242188 262.828125 L 148.582031 262.96875 L 134.976562 224.253906 Z M 188.722656 263.992188 L 208.355469 299.226562 L 169.8125 304.839844 L 149.113281 264.132812 Z M 169.203125 306.113281 L 197.179688 348.667969 L 160.078125 361.304688 L 129.273438 312.140625 Z M 159.628906 362.6875 L 198.957031 411.765625 L 151.535156 418.363281 L 118.5625 376.367188 Z M 172.246094 455.984375 L 200.46875 412.636719 L 232.632812 393.847656 L 203.863281 437.480469 Z M 301.535156 409.8125 L 340.738281 441.941406 L 322.375 470.90625 L 277.101562 433.292969 Z M 370.992188 505.03125 L 358.972656 541.53125 L 303.070312 504.246094 L 322.6875 472.597656 Z M 301.457031 506.285156 L 295.835938 551.589844 L 260.746094 590.199219 L 267.21875 546.5625 Z M 297.015625 551.554688 L 302.738281 505.429688 L 358.597656 542.679688 L 345.460938 582.6875 Z M 359.996094 542.160156 L 372.019531 505.636719 L 422.011719 532.257812 L 417.636719 572.621094 Z M 423.269531 531.5625 L 427.898438 494.234375 L 469.683594 511.773438 L 472.390625 551.277344 Z M 473.1875 552.8125 L 520.304688 565.742188 L 478.003906 600.5625 L 433.203125 588.71875 Z M 521.179688 566.535156 L 530.988281 610.808594 L 487.125 644.375 L 478.785156 601.433594 Z M 558.285156 660.800781 L 532.667969 611.757812 L 582.300781 617.734375 L 599.128906 663.988281 Z M 583.132812 616.613281 L 566.886719 572.519531 L 605.519531 571.835938 L 626.273438 614.65625 Z M 614.960938 588.640625 L 620.222656 586.71875 L 615.5625 589.886719 Z M 697.140625 589.101562 L 669.726562 552.230469 L 691.328125 536.179688 L 720.457031 569.367188 Z M 724.898438 464.386719 L 725.363281 438.359375 L 753.347656 455.851562 L 753.609375 485.960938 Z M 724.066406 436.164062 L 695.847656 418.226562 L 693.203125 394.488281 L 720.414062 408.863281 Z M 687.015625 367.28125 L 677.855469 342.707031 L 701.695312 350.847656 L 711.980469 378.023438 Z M 703.121094 351.332031 L 724.925781 358.71875 L 710.554688 370.96875 Z M 686.789062 320.636719 L 665.027344 315.363281 L 650.996094 291.109375 L 670.554688 293.679688 Z M 629.933594 237.917969 L 607.398438 213.339844 L 619.667969 209.351562 L 644.023438 236.203125 Z M 605.265625 212.8125 L 592.496094 217.027344 L 570.820312 195.667969 L 581.359375 189.433594 Z M 569.933594 194.835938 L 546.550781 175.132812 L 554.960938 166.585938 L 580.457031 188.617188 Z M 545.644531 174.390625 L 521.539062 155.378906 L 527.734375 145.375 L 554.054688 165.847656 Z M 502.328125 112.789062 L 498.492188 123.574219 L 470.253906 106.40625 L 471.9375 94.316406 Z M 469.164062 105.78125 L 465 103.480469 L 470.578125 95.640625 Z M 469.003906 107.027344 L 467.71875 119.984375 L 441.578125 106.683594 L 440.261719 91.421875 C 467.722656 106.269531 462.148438 103.234375 469.003906 107.027344 Z M 412.828125 93.382812 L 386.355469 83.875 L 379.554688 65.761719 L 408.910156 77.035156 Z M 346.800781 54.628906 L 330.28125 50.890625 L 338.226562 37.699219 Z M 302.453125 66.148438 L 278.535156 66.328125 L 259.539062 45.09375 L 286.859375 45.382812 Z M 257.042969 44.039062 L 230.960938 46.894531 L 209.664062 26.066406 L 238.660156 23.214844 Z M 207.699219 25.640625 L 191.058594 60.074219 L 185.046875 62.773438 L 175.3125 46.269531 L 194.429688 3.625 Z M 183.976562 63.253906 L 181.644531 64.300781 L 170.902344 56.324219 L 174.734375 47.585938 Z M 144.660156 100.261719 C 130.15625 129.769531 135.113281 119.226562 123.285156 146.019531 L 89.476562 128.675781 L 108.871094 80.886719 Z M 122.785156 147.074219 L 121.125 150.328125 L 85.847656 138.25 L 89.050781 129.769531 Z M 111.082031 272.304688 L 134.03125 225.078125 L 147.539062 263.5 L 123.398438 309.746094 Z M 148.164062 264.824219 L 168.601562 305.023438 L 128.21875 311.121094 C 128.054688 311.148438 127.972656 311.21875 124.519531 313.15625 L 123.90625 311.289062 Z M 123.488281 313.738281 L 122.027344 314.558594 L 123.136719 312.640625 Z M 170.828125 458.164062 L 202.351562 439.714844 L 176.359375 478.109375 L 146.128906 497.113281 Z M 204.359375 438.824219 L 242.433594 477.152344 L 213.824219 515.863281 L 177.523438 478.472656 Z M 244 477.003906 L 276.320312 434.15625 L 321.6875 471.847656 L 287.171875 512.386719 Z M 317.933594 478.054688 L 301.804688 504.074219 L 271.300781 539.960938 L 287.714844 513.546875 Z M 265.796875 548.210938 L 259.339844 591.75 L 227.675781 626.65625 L 235.027344 583.777344 Z M 346.484375 583.304688 L 359.625 543.28125 L 417.3125 573.769531 L 396.273438 609.773438 Z M 423.132812 532.757812 L 471.949219 552.355469 L 431.898438 588.324219 L 414.324219 581.195312 C 420.148438 571.226562 417.828125 581.6875 423.132812 532.757812 Z M 558.078125 661.953125 L 598.257812 665.085938 L 552.453125 695.4375 L 512.507812 693.5 Z M 600.386719 664.039062 L 583.546875 617.753906 L 626.726562 615.800781 L 637.492188 661.988281 Z M 627.753906 615.0625 L 616.078125 590.949219 L 624.285156 585.363281 L 649.828125 621.199219 L 631.910156 632.902344 Z M 733.609375 622.46875 L 697.917969 589.96875 L 721.230469 570.242188 L 751.535156 604.367188 Z M 752.253906 603.421875 L 722.03125 569.390625 L 738.578125 545.972656 L 765.226562 582.933594 Z M 712.457031 518.046875 L 740.648438 530.449219 L 731.101562 536.675781 Z M 754.78125 486.757812 L 754.511719 456.609375 L 782.886719 475.183594 L 784.320312 500.046875 Z M 782.628906 473.621094 L 754.460938 455.183594 L 749.839844 425.5625 L 777.71875 448.035156 Z M 710.992188 372.128906 L 726.304688 359.078125 L 744.027344 358.929688 L 714.710938 383.175781 C 713.257812 377.789062 714.066406 380.246094 710.992188 372.128906 Z M 726.445312 357.910156 L 711.148438 327.664062 L 731.417969 332.878906 L 744.695312 357.757812 Z M 715.363281 307.230469 L 730.542969 331.449219 L 710.421875 326.273438 L 692.40625 297.152344 Z M 630.8125 238.984375 L 643.765625 237.410156 L 636.339844 245.875 Z M 645.210938 235.777344 L 620.882812 208.957031 L 632.324219 205.238281 L 653.046875 227.113281 Z M 610.820312 184.222656 L 631.394531 204.316406 L 620 208.019531 L 594.28125 183.183594 Z M 533.109375 132.75 L 503.730469 112.3125 L 507.191406 102.125 L 530.886719 118.519531 Z M 481.761719 86.121094 L 506.1875 101.457031 L 502.71875 111.664062 L 472.507812 93.300781 Z M 392.441406 40.667969 L 403.773438 58.609375 L 372.496094 46.523438 L 366.660156 30.816406 Z M 365.214844 30.273438 L 371.078125 46.0625 L 338.851562 36.066406 L 338.789062 21.414062 Z M 337.628906 22.78125 L 337.6875 36.335938 L 329.082031 50.621094 L 322.546875 49.140625 Z M 246.734375 2.839844 L 269.460938 22.539062 L 239.175781 22.03125 L 221.527344 1.53125 Z M 114.28125 25.386719 L 150.328125 43.082031 L 127.964844 58.503906 L 95.800781 37.714844 Z M 107.878906 80.238281 L 88.492188 128 L 58.65625 103.523438 L 76.667969 55.042969 Z M 58.230469 104.679688 L 88.042969 129.136719 L 84.707031 137.976562 L 47.589844 133.65625 Z M 36.589844 163.71875 L 18.902344 210.855469 L 20.300781 187.300781 L 38.1875 137.296875 Z M 18.90625 191.144531 L 17.519531 214.542969 L 1.851562 256.449219 L 4.0625 232.007812 Z M 1.464844 260.816406 L 17.65625 217.511719 L 19.363281 250.765625 L 2.277344 295.265625 Z M 89.367188 316.703125 L 110.351562 273.804688 L 122.65625 311.144531 L 120.03125 315.679688 L 93.777344 330.433594 Z M 116.917969 376.097656 L 91.492188 423.410156 L 66.117188 382.519531 L 90.003906 334.4375 Z M 65.515625 383.761719 L 90.855469 424.589844 L 67.695312 466.363281 L 44.46875 427.425781 Z M 68.402344 467.492188 L 91.609375 425.632812 L 122.574219 465.753906 L 97.5 507.296875 Z M 255.824219 551.332031 L 282.507812 519.714844 L 266.191406 545.96875 L 239.375 576.96875 Z M 317.128906 680.5625 L 272.496094 657.109375 L 306.464844 623.054688 L 353.148438 648.011719 Z M 397.011719 610.824219 L 413.730469 582.210938 L 430.925781 589.183594 L 394.070312 621.589844 L 387.699219 619.082031 C 397.03125 610.851562 396.917969 610.984375 397.011719 610.824219 Z M 510.929688 694.589844 L 550.820312 696.519531 L 508.585938 724.5625 L 469.785156 723.070312 Z M 544.609375 720.886719 L 511.03125 724.339844 L 552.808594 696.601562 L 586.289062 694.773438 Z M 640.945312 679.863281 L 629.492188 668.753906 L 638.527344 663.023438 C 639.066406 662.683594 638.90625 662.9375 632.191406 634.109375 L 650.59375 622.09375 L 684.3125 653.175781 Z M 640.945312 679.863281 " fill-opacity="1" fill-rule="nonzero"/></g></g></g></g></svg>