<svg xmlns="http://www.w3.org/2000/svg" xmlns:xlink="http://www.w3.org/1999/xlink" width="2000" zoomAndPan="magnify" viewBox="0 0 1500 1499.999933" height="2000" preserveAspectRatio="xMidYMid meet" version="1.0"><defs><clipPath id="aa15ee6445"><path d="M 176.6875 176.6875 L 1323.4375 176.6875 L 1323.4375 1323.4375 L 176.6875 1323.4375 Z M 176.6875 176.6875 " clip-rule="nonzero"/></clipPath></defs><g clip-path="url(#aa15ee6445)"><path fill="#d9d9d9" d="M 749.933594 197.304688 C 1055.140625 197.304688 1302.5625 444.738281 1302.5625 749.9375 C 1302.5625 1055.140625 1055.140625 1302.574219 749.933594 1302.574219 C 444.726562 1302.574219 197.304688 1055.140625 197.304688 749.9375 C 197.304688 444.738281 444.726562 197.304688 749.933594 197.304688 Z M 749.933594 176.652344 C 433.316406 176.652344 176.65625 433.316406 176.65625 749.9375 C 176.65625 1066.5625 433.316406 1323.226562 749.933594 1323.226562 C 1066.5625 1323.226562 1323.226562 1066.5625 1323.226562 749.9375 C 1323.226562 433.316406 1066.5625 176.652344 749.933594 176.652344 Z M 1024.714844 494.886719 L 1024.714844 734.644531 L 957.136719 691.003906 L 829.363281 770.34375 L 807.863281 783.710938 L 795.289062 791.503906 L 795.289062 423.867188 L 650.085938 513.851562 L 650.085938 672.023438 L 616.007812 648.960938 L 616.007812 494.886719 L 829.363281 362.660156 Z M 272.796875 749.9375 C 272.796875 486.414062 486.414062 272.800781 749.9375 272.800781 C 1013.460938 272.800781 1227.074219 486.414062 1227.074219 749.9375 C 1227.074219 871.703125 1181.394531 982.765625 1106.328125 1067.078125 L 1106.328125 812.972656 L 957.671875 712.347656 L 795.289062 812.972656 L 795.289062 1224.878906 C 780.355469 1226.285156 765.242188 1227.074219 749.9375 1227.074219 C 734.636719 1227.074219 719.515625 1226.285156 704.578125 1224.878906 L 704.578125 732.007812 L 555.917969 631.382812 L 393.554688 732.007812 L 393.554688 1067.078125 C 318.480469 982.765625 272.796875 871.703125 272.796875 749.9375 Z M 419.480469 746.449219 L 529.992188 677.96875 L 529.992188 1173.328125 C 489.375 1152.175781 452.203125 1125.378906 419.480469 1093.9375 Z M 821.226562 827.414062 L 931.738281 758.933594 L 931.738281 1191.132812 C 896.785156 1205.546875 859.765625 1215.980469 821.226562 1221.753906 Z M 224.96875 749.9375 C 224.96875 1039.867188 460.003906 1274.90625 749.9375 1274.90625 C 1039.867188 1274.90625 1274.90625 1039.867188 1274.90625 749.9375 C 1274.90625 460.007812 1039.867188 224.96875 749.9375 224.96875 C 460.003906 224.96875 224.96875 460.007812 224.96875 749.9375 " fill-opacity="1" fill-rule="nonzero"/></g></svg>