<?xml version="1.0" encoding="UTF-8" standalone="no" ?>
<!DOCTYPE svg PUBLIC "-//W3C//DTD SVG 1.1//EN" "http://www.w3.org/Graphics/SVG/1.1/DTD/svg11.dtd">
<svg xmlns="http://www.w3.org/2000/svg" xmlns:xlink="http://www.w3.org/1999/xlink" version="1.1" width="1080" height="1080" viewBox="0 0 1080 1080" xml:space="preserve">
<desc>Created with Fabric.js 5.2.4</desc>
<defs>
</defs>
<g transform="matrix(1 0 0 1 540 540)" id="a3b9f06a-9942-453a-9296-79d45bd28428"  >
<rect style="stroke: none; stroke-width: 1; stroke-dasharray: none; stroke-linecap: butt; stroke-dashoffset: 0; stroke-linejoin: miter; stroke-miterlimit: 4; fill: rgb(255,255,255); fill-rule: nonzero; opacity: 1; visibility: hidden;" vector-effect="non-scaling-stroke"  x="-540" y="-540" rx="0" ry="0" width="1080" height="1080" />
</g>
<g transform="matrix(1 0 0 1 540 540)" id="90ed2341-bcd3-4e93-a39c-f808fb90171c"  >
</g>
<g transform="matrix(1 0 0 1 540 540)" id="05dd19e1-4eb6-417c-9238-38bb63462da4"  >
<path style="stroke: rgb(0,0,0); stroke-width: 0; stroke-dasharray: none; stroke-linecap: butt; stroke-dashoffset: 0; stroke-linejoin: miter; stroke-miterlimit: 4; fill: rgb(255,255,255); fill-rule: nonzero; opacity: 1;" vector-effect="non-scaling-stroke"  transform=" translate(-716.19, -614.99)" d="M 716.183594 503.503906 C 777.75 503.503906 827.664062 553.417969 827.664062 614.988281 C 827.664062 676.554688 777.75 726.46875 716.183594 726.46875 C 654.613281 726.46875 604.703125 676.554688 604.703125 614.988281 C 604.703125 553.417969 654.613281 503.503906 716.183594 503.503906 Z M 716.183594 499.339844 C 652.3125 499.339844 600.539062 551.117188 600.539062 614.988281 C 600.539062 678.859375 652.3125 730.632812 716.183594 730.632812 C 780.054688 730.632812 831.832031 678.859375 831.832031 614.988281 C 831.832031 551.117188 780.054688 499.339844 716.183594 499.339844 Z M 771.613281 563.535156 L 771.613281 611.902344 L 757.980469 603.097656 L 732.207031 619.101562 L 727.871094 621.800781 L 725.332031 623.371094 L 725.332031 549.210938 L 696.042969 567.363281 L 696.042969 599.269531 L 689.167969 594.617188 L 689.167969 563.535156 L 732.207031 536.863281 Z M 619.933594 614.988281 C 619.933594 561.828125 663.023438 518.734375 716.183594 518.734375 C 769.34375 518.734375 812.4375 561.828125 812.4375 614.988281 C 812.4375 639.550781 803.222656 661.953125 788.078125 678.960938 L 788.078125 627.703125 L 758.089844 607.402344 L 725.332031 627.703125 L 725.332031 710.796875 C 722.320312 711.078125 719.273438 711.238281 716.183594 711.238281 C 713.097656 711.238281 710.046875 711.078125 707.035156 710.796875 L 707.035156 611.371094 L 677.046875 591.070312 L 644.292969 611.371094 L 644.292969 678.960938 C 629.148438 661.953125 619.933594 639.550781 619.933594 614.988281 Z M 649.523438 614.28125 L 671.816406 600.46875 L 671.816406 700.394531 C 663.621094 696.128906 656.125 690.722656 649.523438 684.378906 Z M 730.566406 630.617188 L 752.859375 616.800781 L 752.859375 703.988281 C 745.808594 706.894531 738.339844 709 730.566406 710.164062 Z M 610.285156 614.988281 C 610.285156 673.472656 657.695312 720.886719 716.183594 720.886719 C 774.671875 720.886719 822.085938 673.472656 822.085938 614.988281 C 822.085938 556.5 774.671875 509.085938 716.183594 509.085938 C 657.695312 509.085938 610.285156 556.5 610.285156 614.988281" stroke-linecap="round" />
</g>
</svg>