<svg xmlns="http://www.w3.org/2000/svg" xmlns:xlink="http://www.w3.org/1999/xlink" width="2000" zoomAndPan="magnify" viewBox="0 0 1500 1499.999933" height="2000" preserveAspectRatio="xMidYMid meet" version="1.0"><defs><clipPath id="24e154eb89"><path d="M 150 162.371094 L 1325.25 162.371094 L 1325.25 1337.621094 L 150 1337.621094 Z M 150 162.371094 " clip-rule="nonzero"/></clipPath></defs><g clip-path="url(#24e154eb89)"><path fill="#d9d9d9" d="M 737.558594 183.5 C 1050.382812 183.5 1303.984375 437.113281 1303.984375 749.933594 C 1303.984375 1062.753906 1050.382812 1316.363281 737.558594 1316.363281 C 424.730469 1316.363281 171.128906 1062.753906 171.128906 749.933594 C 171.128906 437.113281 424.730469 183.5 737.558594 183.5 Z M 737.558594 162.332031 C 413.035156 162.332031 149.96875 425.402344 149.96875 749.933594 C 149.96875 1074.460938 413.035156 1337.53125 737.558594 1337.53125 C 1062.089844 1337.53125 1325.164062 1074.460938 1325.164062 749.933594 C 1325.164062 425.402344 1062.089844 162.332031 737.558594 162.332031 Z M 1019.199219 488.511719 L 1019.199219 734.257812 L 949.933594 689.527344 L 818.972656 770.847656 L 796.933594 784.546875 L 784.046875 792.539062 L 784.046875 415.71875 L 635.214844 507.949219 L 635.214844 670.074219 L 600.289062 646.433594 L 600.289062 488.511719 L 818.972656 352.988281 Z M 248.507812 749.933594 C 248.507812 479.828125 467.460938 260.882812 737.5625 260.882812 C 1007.664062 260.882812 1226.613281 479.828125 1226.613281 749.933594 C 1226.613281 874.738281 1179.792969 988.570312 1102.847656 1074.988281 L 1102.847656 814.542969 L 950.484375 711.402344 L 784.046875 814.542969 L 784.046875 1236.730469 C 768.738281 1238.171875 753.246094 1238.984375 737.5625 1238.984375 C 721.878906 1238.984375 706.382812 1238.171875 691.066406 1236.730469 L 691.066406 731.554688 L 538.699219 628.417969 L 372.28125 731.554688 L 372.28125 1074.988281 C 295.332031 988.570312 248.507812 874.738281 248.507812 749.933594 Z M 398.851562 746.355469 L 512.125 676.167969 L 512.125 1183.894531 C 470.492188 1162.210938 432.394531 1134.746094 398.851562 1102.519531 Z M 810.628906 829.34375 L 923.902344 759.152344 L 923.902344 1202.144531 C 888.074219 1216.914062 850.132812 1227.613281 810.628906 1233.53125 Z M 199.484375 749.933594 C 199.484375 1047.101562 440.386719 1288.007812 737.5625 1288.007812 C 1034.730469 1288.007812 1275.640625 1047.101562 1275.640625 749.933594 C 1275.640625 452.761719 1034.730469 211.855469 737.5625 211.855469 C 440.386719 211.855469 199.484375 452.761719 199.484375 749.933594 " fill-opacity="1" fill-rule="nonzero"/></g></svg>