<svg xmlns="http://www.w3.org/2000/svg" xmlns:xlink="http://www.w3.org/1999/xlink" width="2000" zoomAndPan="magnify" viewBox="0 0 1500 1499.999933" height="2000" preserveAspectRatio="xMidYMid meet" version="1.0"><path fill="#d9d9d9" d="M 699.921875 1195.066406 C 693.996094 1193.835938 688.015625 1192.964844 681.988281 1192.449219 C 655.855469 1191.195312 630.199219 1187.011719 605.019531 1179.894531 C 611.800781 1169.757812 617.703125 1159.136719 622.730469 1148.027344 C 627.757812 1136.917969 631.84375 1125.472656 634.988281 1113.6875 C 637.070312 1106.324219 638.738281 1098.863281 639.992188 1091.3125 C 641.246094 1083.761719 642.082031 1076.164062 642.496094 1068.519531 C 642.910156 1060.878906 642.898438 1053.234375 642.464844 1045.589844 C 642.03125 1037.949219 641.175781 1030.355469 639.898438 1022.804688 C 627.867188 959.433594 582.640625 917.507812 546.347656 887.164062 C 517.117188 862.742188 487.023438 839.390625 458.890625 814.105469 C 456.472656 812.121094 454.125 810.054688 451.847656 807.910156 C 449.570312 805.765625 447.367188 803.550781 445.238281 801.257812 C 443.109375 798.964844 441.058594 796.605469 439.085938 794.175781 C 437.117188 791.75 435.226562 789.257812 433.421875 786.699219 C 431.621094 784.144531 429.902344 781.53125 428.273438 778.863281 C 426.644531 776.191406 425.105469 773.46875 423.660156 770.695312 C 422.210938 767.921875 420.859375 765.105469 419.601562 762.242188 C 418.34375 759.378906 417.183594 756.472656 416.117188 753.53125 C 415.054688 750.589844 414.089844 747.617188 413.226562 744.609375 C 412.363281 741.605469 411.597656 738.574219 410.9375 735.515625 C 410.277344 732.457031 409.71875 729.382812 409.261719 726.289062 C 408.808594 723.191406 408.457031 720.085938 408.207031 716.96875 C 407.960938 713.851562 407.816406 710.726562 407.78125 707.597656 C 407.742188 704.472656 407.808594 701.34375 407.980469 698.222656 C 408.152344 695.097656 408.425781 691.984375 408.804688 688.878906 C 409.1875 685.773438 409.667969 682.6875 410.253906 679.613281 C 410.582031 678.289062 410.796875 676.945312 410.898438 675.585938 C 411 674.222656 410.988281 672.863281 410.859375 671.507812 C 410.730469 670.148438 410.488281 668.808594 410.132812 667.492188 C 409.777344 666.175781 409.316406 664.894531 408.746094 663.65625 C 408.171875 662.417969 407.503906 661.234375 406.730469 660.109375 C 405.960938 658.980469 405.101562 657.929688 404.152344 656.949219 C 403.203125 655.96875 402.175781 655.074219 401.074219 654.265625 C 399.976562 653.460938 398.816406 652.75 397.59375 652.140625 C 396.476562 651.476562 395.3125 650.914062 394.097656 650.449219 C 392.882812 649.984375 391.640625 649.621094 390.367188 649.363281 C 389.09375 649.109375 387.804688 648.960938 386.507812 648.917969 C 385.207031 648.878906 383.914062 648.945312 382.628906 649.125 C 381.339844 649.300781 380.074219 649.582031 378.835938 649.972656 C 377.597656 650.363281 376.398438 650.851562 375.238281 651.445312 C 374.082031 652.035156 372.980469 652.71875 371.941406 653.496094 C 370.898438 654.269531 369.925781 655.128906 369.027344 656.066406 C 298.429688 717.71875 240.632812 788.984375 214.863281 881.015625 C 183.28125 994.867188 202.6875 1099.109375 284.242188 1186.78125 C 356.441406 1264.195312 480.75 1286.003906 569.371094 1223.203125 C 572.132812 1221.894531 575.03125 1221.109375 578.074219 1220.847656 C 581.117188 1220.585938 584.109375 1220.863281 587.050781 1221.679688 C 622.164062 1228.4375 656.988281 1236.277344 692.15625 1242.605469 C 692.949219 1242.824219 693.753906 1242.996094 694.566406 1243.125 C 695.378906 1243.253906 696.199219 1243.335938 697.019531 1243.375 C 697.84375 1243.414062 698.664062 1243.40625 699.488281 1243.355469 C 700.308594 1243.304688 701.125 1243.207031 701.9375 1243.066406 C 702.746094 1242.925781 703.546875 1242.738281 704.339844 1242.511719 C 705.128906 1242.28125 705.90625 1242.011719 706.667969 1241.695312 C 707.429688 1241.382812 708.171875 1241.027344 708.890625 1240.632812 C 709.613281 1240.234375 710.3125 1239.800781 710.988281 1239.328125 C 711.660156 1238.855469 712.308594 1238.351562 712.925781 1237.804688 C 713.546875 1237.261719 714.132812 1236.6875 714.6875 1236.078125 C 715.242188 1235.472656 715.765625 1234.835938 716.25 1234.171875 C 716.734375 1233.507812 717.183594 1232.816406 717.59375 1232.101562 C 718.003906 1231.390625 718.375 1230.65625 718.703125 1229.898438 C 719.03125 1229.144531 719.320312 1228.375 719.566406 1227.589844 C 719.808594 1226.804688 720.011719 1226.007812 720.167969 1225.199219 C 720.324219 1224.390625 720.4375 1223.574219 720.507812 1222.753906 C 720.667969 1221.960938 720.789062 1221.15625 720.867188 1220.351562 C 720.945312 1219.542969 720.980469 1218.730469 720.972656 1217.921875 C 720.96875 1217.109375 720.917969 1216.300781 720.824219 1215.492188 C 720.734375 1214.6875 720.597656 1213.886719 720.421875 1213.09375 C 720.246094 1212.300781 720.027344 1211.519531 719.769531 1210.75 C 719.511719 1209.980469 719.214844 1209.226562 718.875 1208.488281 C 718.539062 1207.75 718.164062 1207.03125 717.75 1206.335938 C 717.335938 1205.636719 716.886719 1204.960938 716.402344 1204.308594 C 715.917969 1203.65625 715.402344 1203.035156 714.851562 1202.4375 C 714.300781 1201.839844 713.722656 1201.273438 713.113281 1200.738281 C 712.5 1200.199219 711.867188 1199.699219 711.203125 1199.230469 C 710.539062 1198.761719 709.855469 1198.328125 709.148438 1197.929688 C 708.4375 1197.53125 707.710938 1197.175781 706.964844 1196.851562 C 706.21875 1196.53125 705.460938 1196.253906 704.683594 1196.011719 C 703.910156 1195.769531 703.125 1195.570312 702.328125 1195.414062 C 701.53125 1195.257812 700.730469 1195.140625 699.921875 1195.066406 Z M 582.15625 1190.925781 C 581.75 1192.402344 581.203125 1193.824219 580.519531 1195.199219 C 579.835938 1196.570312 579.027344 1197.863281 578.09375 1199.074219 C 577.160156 1200.289062 576.117188 1201.402344 574.964844 1202.414062 C 573.816406 1203.425781 572.578125 1204.320312 571.253906 1205.089844 C 569.886719 1205.847656 568.464844 1206.472656 566.980469 1206.960938 C 565.5 1207.453125 563.984375 1207.800781 562.433594 1208.003906 C 560.886719 1208.210938 559.332031 1208.269531 557.773438 1208.183594 C 556.214844 1208.097656 554.675781 1207.867188 553.160156 1207.496094 C 541.707031 1204.042969 530.726562 1199.464844 520.21875 1193.757812 C 512.597656 1189.183594 506.480469 1185.6875 500.367188 1181.976562 C 491.738281 1177.101562 483.347656 1171.847656 475.191406 1166.210938 C 467.039062 1160.578125 459.15625 1154.585938 451.542969 1148.238281 C 443.929688 1141.894531 436.621094 1135.214844 429.613281 1128.207031 C 422.601562 1121.199219 415.925781 1113.890625 409.578125 1106.277344 C 403.230469 1098.667969 397.238281 1090.785156 391.601562 1082.628906 C 385.96875 1074.476562 380.710938 1066.085938 375.835938 1057.457031 C 370.960938 1048.828125 366.484375 1039.996094 362.40625 1030.964844 C 358.328125 1021.929688 354.664062 1012.730469 351.417969 1003.367188 C 345.753906 986.132812 350.773438 972.882812 364.078125 968.039062 C 378.890625 962.660156 391.765625 969.566406 397.648438 987.226562 C 400.121094 994.566406 402.90625 1001.789062 406 1008.886719 C 409.097656 1015.988281 412.488281 1022.941406 416.183594 1029.75 C 419.875 1036.558594 423.855469 1043.195312 428.121094 1049.660156 C 432.386719 1056.125 436.917969 1062.394531 441.722656 1068.46875 C 446.527344 1074.546875 451.585938 1080.402344 456.894531 1086.042969 C 462.203125 1091.683594 467.742188 1097.082031 473.515625 1102.246094 C 479.292969 1107.410156 485.277344 1112.3125 491.472656 1116.960938 C 497.667969 1121.609375 504.050781 1125.980469 510.625 1130.078125 C 528.074219 1141.414062 546.828125 1151.007812 566.214844 1162.144531 C 569.015625 1163.027344 571.582031 1164.371094 573.90625 1166.167969 C 576.230469 1167.964844 578.175781 1170.109375 579.734375 1172.597656 C 580.546875 1173.964844 581.214844 1175.394531 581.738281 1176.898438 C 582.257812 1178.398438 582.621094 1179.9375 582.828125 1181.511719 C 583.039062 1183.085938 583.085938 1184.667969 582.972656 1186.253906 C 582.859375 1187.835938 582.585938 1189.394531 582.15625 1190.925781 Z M 1106.109375 671.203125 C 1108.273438 676.835938 1110.757812 682.324219 1113.570312 687.664062 C 1126.636719 710.328125 1136.984375 734.171875 1144.613281 759.199219 C 1132.421875 758.988281 1120.292969 759.777344 1108.230469 761.558594 C 1096.167969 763.339844 1084.332031 766.089844 1072.71875 769.8125 C 1065.398438 772.046875 1058.222656 774.675781 1051.191406 777.703125 C 1044.164062 780.730469 1037.320312 784.140625 1030.667969 787.925781 C 1024.015625 791.710938 1017.59375 795.851562 1011.398438 800.347656 C 1005.207031 804.84375 999.277344 809.671875 993.621094 814.824219 C 946.816406 859.207031 936.003906 919.945312 930.101562 966.875 C 925.367188 1004.675781 922.015625 1042.605469 915.953125 1079.957031 C 915.589844 1083.066406 915.121094 1086.160156 914.550781 1089.234375 C 913.976562 1092.3125 913.304688 1095.367188 912.527344 1098.398438 C 911.75 1101.433594 910.875 1104.433594 909.894531 1107.40625 C 908.917969 1110.378906 907.84375 1113.316406 906.667969 1116.21875 C 905.492188 1119.121094 904.222656 1121.980469 902.855469 1124.792969 C 901.492188 1127.609375 900.03125 1130.378906 898.480469 1133.09375 C 896.929688 1135.8125 895.289062 1138.476562 893.558594 1141.085938 C 891.828125 1143.691406 890.011719 1146.242188 888.109375 1148.726562 C 886.210938 1151.214844 884.226562 1153.632812 882.164062 1155.988281 C 880.101562 1158.339844 877.960938 1160.621094 875.746094 1162.832031 C 873.53125 1165.042969 871.242188 1167.175781 868.882812 1169.234375 C 866.523438 1171.289062 864.101562 1173.265625 861.609375 1175.160156 C 859.117188 1177.054688 856.566406 1178.863281 853.953125 1180.585938 C 851.339844 1182.308594 848.671875 1183.945312 845.949219 1185.488281 C 843.226562 1187.03125 840.457031 1188.484375 837.636719 1189.84375 C 834.820312 1191.203125 831.957031 1192.464844 829.050781 1193.632812 C 827.761719 1194.070312 826.515625 1194.617188 825.316406 1195.269531 C 824.117188 1195.917969 822.980469 1196.664062 821.90625 1197.507812 C 820.835938 1198.351562 819.839844 1199.277344 818.921875 1200.289062 C 818.007812 1201.296875 817.179688 1202.378906 816.449219 1203.53125 C 815.714844 1204.679688 815.082031 1205.882812 814.550781 1207.140625 C 814.023438 1208.398438 813.601562 1209.691406 813.289062 1211.019531 C 812.976562 1212.347656 812.78125 1213.691406 812.695312 1215.054688 C 812.613281 1216.417969 812.640625 1217.777344 812.789062 1219.132812 C 812.839844 1220.429688 813 1221.714844 813.269531 1222.984375 C 813.535156 1224.257812 813.910156 1225.496094 814.382812 1226.707031 C 814.859375 1227.914062 815.429688 1229.074219 816.101562 1230.1875 C 816.769531 1231.300781 817.527344 1232.351562 818.371094 1233.339844 C 819.214844 1234.324219 820.136719 1235.234375 821.132812 1236.066406 C 822.128906 1236.902344 823.1875 1237.644531 824.308594 1238.300781 C 825.429688 1238.957031 826.597656 1239.515625 827.8125 1239.976562 C 829.027344 1240.4375 830.269531 1240.792969 831.546875 1241.046875 C 921.675781 1267.101562 1012.914062 1277.144531 1104.246094 1249.027344 C 1217.09375 1214.058594 1294.332031 1141.429688 1323.917969 1025.335938 C 1350.011719 922.742188 1301.128906 806.394531 1200.417969 765.886719 C 1197.84375 764.261719 1195.632812 762.242188 1193.78125 759.828125 C 1191.933594 757.414062 1190.558594 754.753906 1189.660156 751.84375 C 1176.371094 718.652344 1164.105469 685.046875 1150.441406 652.105469 C 1150.191406 651.320312 1149.902344 650.550781 1149.570312 649.796875 C 1149.238281 649.042969 1148.867188 648.3125 1148.453125 647.597656 C 1148.042969 646.886719 1147.59375 646.199219 1147.105469 645.535156 C 1146.617188 644.871094 1146.09375 644.238281 1145.535156 643.632812 C 1144.980469 643.023438 1144.390625 642.453125 1143.769531 641.910156 C 1143.152344 641.367188 1142.503906 640.863281 1141.828125 640.394531 C 1141.152344 639.921875 1140.453125 639.492188 1139.730469 639.097656 C 1139.003906 638.703125 1138.261719 638.351562 1137.5 638.039062 C 1136.738281 637.726562 1135.964844 637.457031 1135.171875 637.230469 C 1134.378906 637.003906 1133.578125 636.820312 1132.769531 636.679688 C 1131.957031 636.539062 1131.140625 636.445312 1130.316406 636.398438 C 1129.496094 636.347656 1128.675781 636.34375 1127.851562 636.382812 C 1127.03125 636.421875 1126.210938 636.507812 1125.398438 636.640625 C 1124.585938 636.769531 1123.785156 636.941406 1122.988281 637.160156 C 1122.195312 637.378906 1121.417969 637.640625 1120.652344 637.945312 C 1119.886719 638.246094 1119.140625 638.59375 1118.414062 638.976562 C 1117.65625 639.269531 1116.914062 639.597656 1116.191406 639.96875 C 1115.46875 640.335938 1114.769531 640.742188 1114.089844 641.183594 C 1113.40625 641.625 1112.753906 642.101562 1112.121094 642.613281 C 1111.492188 643.125 1110.890625 643.667969 1110.316406 644.242188 C 1109.746094 644.8125 1109.203125 645.417969 1108.691406 646.046875 C 1108.183594 646.679688 1107.707031 647.335938 1107.265625 648.015625 C 1106.824219 648.699219 1106.421875 649.398438 1106.054688 650.121094 C 1105.6875 650.847656 1105.359375 651.585938 1105.070312 652.34375 C 1104.78125 653.101562 1104.53125 653.875 1104.324219 654.65625 C 1104.113281 655.441406 1103.949219 656.234375 1103.824219 657.035156 C 1103.699219 657.839844 1103.617188 658.644531 1103.574219 659.453125 C 1103.535156 660.265625 1103.535156 661.074219 1103.582031 661.882812 C 1103.625 662.695312 1103.714844 663.5 1103.84375 664.300781 C 1103.972656 665.101562 1104.144531 665.894531 1104.355469 666.675781 C 1104.566406 667.460938 1104.820312 668.230469 1105.113281 668.984375 C 1105.40625 669.742188 1105.738281 670.480469 1106.109375 671.203125 Z M 1166.308594 772.503906 C 1167.773438 772.050781 1169.269531 771.738281 1170.792969 771.574219 C 1172.316406 771.40625 1173.84375 771.386719 1175.371094 771.515625 C 1176.898438 771.644531 1178.398438 771.921875 1179.875 772.339844 C 1181.347656 772.757812 1182.769531 773.316406 1184.136719 774.011719 C 1185.507812 774.753906 1186.800781 775.617188 1188.015625 776.601562 C 1189.226562 777.585938 1190.335938 778.675781 1191.347656 779.867188 C 1192.355469 781.058594 1193.246094 782.332031 1194.019531 783.691406 C 1194.789062 785.050781 1195.429688 786.464844 1195.933594 787.945312 C 1199.222656 799.441406 1201.308594 811.148438 1202.195312 823.074219 C 1202.460938 832.039062 1202.820312 838.996094 1203.019531 846.136719 C 1203.585938 856.03125 1203.703125 865.933594 1203.371094 875.839844 C 1203.042969 885.746094 1202.265625 895.617188 1201.046875 905.453125 C 1199.824219 915.289062 1198.160156 925.050781 1196.054688 934.738281 C 1193.949219 944.425781 1191.410156 953.996094 1188.441406 963.453125 C 1185.46875 972.910156 1182.078125 982.210938 1178.265625 991.363281 C 1174.453125 1000.511719 1170.238281 1009.472656 1165.617188 1018.238281 C 1160.992188 1027.007812 1155.984375 1035.550781 1150.589844 1043.867188 C 1145.195312 1052.183594 1139.4375 1060.238281 1133.316406 1068.03125 C 1121.890625 1082.109375 1107.992188 1085.085938 1096.769531 1076.496094 C 1096.019531 1075.953125 1095.304688 1075.371094 1094.621094 1074.746094 C 1093.9375 1074.125 1093.292969 1073.464844 1092.683594 1072.769531 C 1092.070312 1072.078125 1091.503906 1071.351562 1090.972656 1070.589844 C 1090.445312 1069.832031 1089.960938 1069.046875 1089.519531 1068.234375 C 1089.078125 1067.421875 1088.683594 1066.589844 1088.335938 1065.734375 C 1087.984375 1064.875 1087.6875 1064.003906 1087.433594 1063.113281 C 1087.183594 1062.222656 1086.984375 1061.324219 1086.832031 1060.410156 C 1086.683594 1059.5 1086.582031 1058.582031 1086.535156 1057.65625 C 1086.484375 1056.734375 1086.488281 1055.8125 1086.542969 1054.890625 C 1086.597656 1053.964844 1086.703125 1053.050781 1086.859375 1052.136719 C 1087.015625 1051.226562 1087.222656 1050.328125 1087.480469 1049.4375 C 1087.738281 1048.550781 1088.042969 1047.679688 1088.394531 1046.824219 C 1088.75 1045.972656 1089.148438 1045.140625 1089.597656 1044.332031 C 1090.042969 1043.519531 1090.535156 1042.738281 1091.066406 1041.984375 C 1091.601562 1041.230469 1092.175781 1040.507812 1092.789062 1039.816406 C 1093.402344 1039.125 1094.054688 1038.46875 1094.742188 1037.851562 C 1099.578125 1031.804688 1104.144531 1025.558594 1108.445312 1019.117188 C 1112.742188 1012.675781 1116.757812 1006.058594 1120.488281 999.273438 C 1124.214844 992.484375 1127.648438 985.550781 1130.78125 978.46875 C 1133.914062 971.386719 1136.734375 964.179688 1139.246094 956.855469 C 1141.757812 949.53125 1143.953125 942.109375 1145.824219 934.59375 C 1147.699219 927.082031 1149.246094 919.5 1150.464844 911.851562 C 1151.6875 904.203125 1152.574219 896.519531 1153.132812 888.792969 C 1153.691406 881.070312 1153.917969 873.335938 1153.8125 865.59375 C 1153.917969 844.773438 1151.839844 823.808594 1150.710938 801.464844 C 1149.933594 798.628906 1149.675781 795.742188 1149.929688 792.8125 C 1150.1875 789.882812 1150.941406 787.089844 1152.199219 784.429688 C 1152.90625 783.011719 1153.746094 781.679688 1154.726562 780.433594 C 1155.703125 779.1875 1156.796875 778.050781 1158.003906 777.023438 C 1159.210938 776 1160.511719 775.105469 1161.902344 774.347656 C 1163.289062 773.585938 1164.742188 772.96875 1166.257812 772.503906 Z M 449.007812 601.714844 C 452.941406 597.144531 456.59375 592.363281 459.964844 587.367188 C 473.71875 565.117188 489.800781 544.703125 508.222656 526.128906 C 513.816406 536.960938 520.257812 547.261719 527.546875 557.035156 C 534.832031 566.808594 542.871094 575.921875 551.652344 584.375 C 557.089844 589.757812 562.808594 594.828125 568.804688 599.578125 C 574.800781 604.332031 581.042969 608.738281 587.527344 612.796875 C 594.015625 616.859375 600.703125 620.550781 607.597656 623.871094 C 614.492188 627.195312 621.546875 630.125 628.765625 632.664062 C 690.039062 652.804688 748.644531 633.527344 792.757812 616.4375 C 828.28125 602.683594 863.269531 587.65625 899.007812 575.191406 C 901.917969 574.039062 904.863281 572.984375 907.839844 572.027344 C 910.820312 571.070312 913.832031 570.214844 916.867188 569.460938 C 919.90625 568.707031 922.964844 568.054688 926.046875 567.503906 C 929.125 566.957031 932.222656 566.511719 935.332031 566.167969 C 938.445312 565.828125 941.5625 565.589844 944.691406 565.457031 C 947.816406 565.324219 950.945312 565.292969 954.074219 565.371094 C 957.203125 565.449219 960.324219 565.628906 963.441406 565.914062 C 966.558594 566.199219 969.660156 566.589844 972.753906 567.085938 C 975.84375 567.578125 978.914062 568.175781 981.964844 568.875 C 985.015625 569.574219 988.039062 570.375 991.035156 571.277344 C 994.03125 572.179688 996.996094 573.179688 999.925781 574.28125 C 1002.855469 575.382812 1005.742188 576.582031 1008.59375 577.875 C 1011.441406 579.167969 1014.246094 580.558594 1017.003906 582.039062 C 1019.757812 583.523438 1022.460938 585.09375 1025.113281 586.757812 C 1027.765625 588.421875 1030.355469 590.171875 1032.890625 592.007812 C 1035.425781 593.847656 1037.894531 595.765625 1040.296875 597.769531 C 1041.300781 598.699219 1042.371094 599.535156 1043.511719 600.28125 C 1044.65625 601.03125 1045.851562 601.675781 1047.101562 602.222656 C 1048.355469 602.765625 1049.644531 603.203125 1050.96875 603.53125 C 1052.292969 603.859375 1053.636719 604.074219 1055 604.171875 C 1056.359375 604.273438 1057.71875 604.257812 1059.078125 604.128906 C 1060.4375 604 1061.777344 603.757812 1063.09375 603.402344 C 1064.414062 603.042969 1065.691406 602.582031 1066.929688 602.007812 C 1068.171875 601.4375 1069.351562 600.765625 1070.480469 599.992188 C 1071.59375 599.328125 1072.648438 598.578125 1073.640625 597.742188 C 1074.628906 596.902344 1075.546875 595.988281 1076.382812 594.996094 C 1077.222656 594.003906 1077.972656 592.949219 1078.632812 591.832031 C 1079.296875 590.714844 1079.859375 589.550781 1080.328125 588.339844 C 1080.796875 587.128906 1081.160156 585.886719 1081.417969 584.617188 C 1081.679688 583.34375 1081.832031 582.058594 1081.878906 580.761719 C 1081.921875 579.464844 1081.859375 578.171875 1081.691406 576.886719 C 1081.519531 575.597656 1081.242188 574.335938 1080.863281 573.09375 C 1061.046875 481.386719 1026.617188 396.296875 958.542969 329.210938 C 874.1875 246.503906 773.570312 213.042969 657.367188 241.988281 C 554.683594 267.613281 475.441406 365.902344 487.546875 473.835938 C 487.347656 476.867188 486.632812 479.769531 485.398438 482.546875 C 484.164062 485.320312 482.488281 487.796875 480.371094 489.976562 C 457.453125 517.429688 433.746094 544.152344 411.171875 571.820312 C 410.597656 572.410156 410.054688 573.027344 409.550781 573.679688 C 409.042969 574.328125 408.574219 575 408.144531 575.699219 C 407.710938 576.402344 407.316406 577.121094 406.964844 577.867188 C 406.613281 578.609375 406.300781 579.371094 406.03125 580.148438 C 405.761719 580.925781 405.535156 581.714844 405.351562 582.515625 C 405.167969 583.316406 405.027344 584.128906 404.933594 584.945312 C 404.839844 585.761719 404.789062 586.582031 404.785156 587.40625 C 404.78125 588.226562 404.820312 589.046875 404.90625 589.867188 C 404.992188 590.683594 405.121094 591.496094 405.296875 592.300781 C 405.46875 593.105469 405.6875 593.894531 405.949219 594.675781 C 406.210938 595.457031 406.511719 596.21875 406.855469 596.96875 C 407.203125 597.714844 407.585938 598.441406 408.011719 599.144531 C 408.433594 599.851562 408.898438 600.53125 409.394531 601.183594 C 409.894531 601.839844 410.425781 602.464844 410.996094 603.058594 C 411.5625 603.65625 412.160156 604.21875 412.789062 604.75 C 413.417969 605.28125 414.074219 605.773438 414.757812 606.234375 C 415.371094 606.761719 416.015625 607.253906 416.683594 607.714844 C 417.351562 608.175781 418.039062 608.597656 418.753906 608.988281 C 419.464844 609.375 420.195312 609.722656 420.945312 610.035156 C 421.691406 610.347656 422.457031 610.617188 423.234375 610.847656 C 424.011719 611.078125 424.796875 611.269531 425.597656 611.414062 C 426.394531 611.5625 427.195312 611.667969 428.003906 611.734375 C 428.8125 611.796875 429.621094 611.816406 430.433594 611.796875 C 431.242188 611.773438 432.050781 611.710938 432.855469 611.605469 C 433.660156 611.5 434.457031 611.351562 435.242188 611.160156 C 436.03125 610.96875 436.808594 610.738281 437.574219 610.46875 C 438.335938 610.195312 439.085938 609.886719 439.816406 609.535156 C 440.546875 609.1875 441.257812 608.796875 441.949219 608.375 C 442.640625 607.949219 443.308594 607.488281 443.949219 606.992188 C 444.59375 606.5 445.207031 605.972656 445.792969 605.410156 C 446.378906 604.851562 446.9375 604.261719 447.460938 603.644531 C 447.988281 603.027344 448.480469 602.382812 448.9375 601.714844 Z M 509.566406 500.734375 C 508.464844 499.667969 507.476562 498.503906 506.601562 497.246094 C 505.726562 495.984375 504.984375 494.652344 504.367188 493.246094 C 503.753906 491.839844 503.277344 490.390625 502.945312 488.890625 C 502.613281 487.394531 502.429688 485.878906 502.394531 484.34375 C 502.390625 482.785156 502.535156 481.234375 502.820312 479.699219 C 503.109375 478.164062 503.539062 476.667969 504.109375 475.214844 C 504.679688 473.761719 505.378906 472.371094 506.207031 471.046875 C 507.039062 469.726562 507.984375 468.492188 509.046875 467.34375 C 517.625 458.988281 526.960938 451.585938 537.058594 445.144531 C 544.769531 440.699219 550.773438 437.039062 556.980469 433.488281 C 565.421875 428.296875 574.082031 423.492188 582.957031 419.082031 C 591.832031 414.671875 600.890625 410.671875 610.128906 407.078125 C 619.367188 403.488281 628.75 400.320312 638.273438 397.578125 C 647.796875 394.835938 657.425781 392.527344 667.160156 390.652344 C 676.894531 388.78125 686.691406 387.351562 696.554688 386.367188 C 706.417969 385.378906 716.304688 384.839844 726.214844 384.746094 C 736.125 384.65625 746.019531 385.011719 755.902344 385.8125 C 765.78125 386.617188 775.601562 387.863281 785.367188 389.554688 C 803.175781 392.925781 812.394531 403.757812 810.152344 417.726562 C 807.75 433.328125 795.410156 441.21875 777.101562 437.828125 C 769.484375 436.4375 761.820312 435.378906 754.109375 434.652344 C 746.398438 433.921875 738.671875 433.523438 730.925781 433.460938 C 723.183594 433.398438 715.449219 433.667969 707.730469 434.269531 C 700.007812 434.871094 692.328125 435.804688 684.6875 437.066406 C 677.046875 438.332031 669.472656 439.921875 661.96875 441.835938 C 654.464844 443.753906 647.058594 445.988281 639.746094 448.539062 C 632.433594 451.09375 625.246094 453.957031 618.183594 457.128906 C 611.117188 460.304688 604.203125 463.773438 597.4375 467.542969 C 579.054688 477.316406 561.570312 489.0625 542.453125 500.699219 C 540.324219 502.722656 537.90625 504.3125 535.210938 505.476562 C 532.511719 506.636719 529.695312 507.300781 526.761719 507.460938 C 525.175781 507.511719 523.601562 507.40625 522.039062 507.136719 C 520.472656 506.867188 518.953125 506.445312 517.472656 505.867188 C 515.996094 505.289062 514.589844 504.566406 513.257812 503.703125 C 511.925781 502.839844 510.695312 501.851562 509.566406 500.734375 Z M 509.566406 500.734375 " fill-opacity="1" fill-rule="nonzero"/></svg>