<svg xmlns="http://www.w3.org/2000/svg" xmlns:xlink="http://www.w3.org/1999/xlink" version="1.1" x="0px" y="0px" viewBox="0 0 100 125" style="enable-background:new 0 0 100 100;" xml:space="preserve"><path d="M50,10c-22.08,0-40,17.92-40,40c0,22.08,17.92,40,40,40s40-17.92,40-40C90,27.92,72.08,10,50,10z M66.06,53.88H53.88v12.18  c0,2.15-1.73,3.88-3.88,3.88s-3.88-1.73-3.88-3.88V53.88H33.94c-2.15,0-3.88-1.73-3.88-3.88c0-2.15,1.73-3.88,3.88-3.88h12.18V33.94  c0-2.15,1.73-3.88,3.88-3.88s3.88,1.73,3.88,3.88v12.18h12.18c2.15,0,3.88,1.73,3.88,3.88C69.94,52.15,68.2,53.88,66.06,53.88z"/><text x="0" y="115" fill="#000000" font-size="5px" font-weight="bold" font-family="'Helvetica Neue', Helvetica, Arial-Unicode, Arial, Sans-serif">Created by ainul muttaqin</text><text x="0" y="120" fill="#000000" font-size="5px" font-weight="bold" font-family="'Helvetica Neue', Helvetica, Arial-Unicode, Arial, Sans-serif">from the Noun Project</text></svg>