<?xml version="1.0" encoding="UTF-8" standalone="no" ?>
<!DOCTYPE svg PUBLIC "-//W3C//DTD SVG 1.1//EN" "http://www.w3.org/Graphics/SVG/1.1/DTD/svg11.dtd">
<svg xmlns="http://www.w3.org/2000/svg" xmlns:xlink="http://www.w3.org/1999/xlink" version="1.1" width="1080" height="1080" viewBox="0 0 1080 1080" xml:space="preserve">
<desc>Created with Fabric.js 5.2.4</desc>
<defs>
</defs>
<g transform="matrix(1 0 0 1 540 540)" id="8c97cca3-e23a-4612-b898-334cf3a54e8c"  >
<rect style="stroke: none; stroke-width: 1; stroke-dasharray: none; stroke-linecap: butt; stroke-dashoffset: 0; stroke-linejoin: miter; stroke-miterlimit: 4; fill: rgb(255,255,255); fill-rule: nonzero; opacity: 1; visibility: hidden;" vector-effect="non-scaling-stroke"  x="-540" y="-540" rx="0" ry="0" width="1080" height="1080" />
</g>
<g transform="matrix(1 0 0 1 540 540)" id="5d0db99f-b441-45ef-b110-d28ed9a99bff"  >
</g>
<g transform="matrix(1.46 0 0 1.46 560.81 570.21)" clip-path="url(#CLIPPATH_3)"  >
<clipPath id="CLIPPATH_3" >
	<path transform="matrix(1 0 0 1 0.11 0.14) translate(-263.47, -299)" id="124" d="M 89 107 L 437.933594 107 L 437.933594 491 L 89 491 Z M 89 107" stroke-linecap="round" />
</clipPath>  
<path style="stroke: none; stroke-width: 1; stroke-dasharray: none; stroke-linecap: butt; stroke-dashoffset: 0; stroke-linejoin: miter; stroke-miterlimit: 4; fill: rgb(58,42,121); fill-rule: nonzero; opacity: 1;" vector-effect="non-scaling-stroke"  transform=" translate(-263.36, -298.86)" d="M 252.855469 288.167969 C 251.105469 288.167969 249.40625 287.519531 248.101562 286.347656 L 225.046875 265.671875 C 223.167969 263.976562 220.453125 263.566406 218.140625 264.621094 C 215.820312 265.679688 214.367188 268.007812 214.417969 270.546875 L 215.414062 320.230469 C 215.488281 323.695312 218.3125 326.472656 221.78125 326.472656 L 246.148438 326.472656 C 249.820312 326.472656 252.871094 329.222656 253.242188 332.867188 L 261.191406 409.410156 C 261.394531 411.304688 260.832031 413.15625 259.640625 414.632812 C 258.429688 416.113281 256.726562 417.039062 254.074219 417.277344 C 250.417969 417.277344 247.378906 414.523438 246.996094 410.878906 L 240.300781 346.441406 C 239.964844 343.195312 237.226562 340.730469 233.964844 340.730469 L 182.113281 340.730469 C 178.589844 340.730469 175.742188 343.582031 175.742188 347.105469 L 175.742188 450.191406 C 175.742188 454.121094 172.539062 457.324219 168.609375 457.324219 C 164.675781 457.324219 161.476562 454.121094 161.476562 450.191406 L 161.355469 325.617188 C 161.476562 325.207031 161.675781 324.214844 161.714844 323.78125 C 161.730469 323.605469 161.664062 322.609375 161.664062 322.429688 L 160.769531 278.347656 C 160.71875 275.660156 158.976562 273.292969 156.425781 272.4375 C 155.753906 272.214844 155.070312 272.109375 154.398438 272.109375 C 152.484375 272.109375 150.625 272.972656 149.394531 274.542969 L 136.292969 291.195312 C 135.878906 291.71875 135.542969 292.304688 135.324219 292.925781 L 116.082031 345.042969 C 114.753906 348.640625 110.421875 350.554688 106.925781 349.269531 C 103.226562 347.898438 101.335938 343.789062 102.691406 340.101562 L 122.652344 286.039062 C 122.941406 285.292969 123.300781 284.625 123.75 284.054688 L 154.796875 244.605469 C 156.167969 242.875 158.207031 241.886719 160.40625 241.886719 L 217.140625 241.886719 C 218.910156 241.886719 220.601562 242.535156 221.910156 243.703125 L 253.765625 272.277344 C 254.933594 273.328125 256.453125 273.90625 258.023438 273.90625 L 296.175781 273.90625 C 300.109375 273.90625 303.304688 277.105469 303.304688 281.035156 C 303.304688 284.972656 300.109375 288.167969 296.175781 288.167969 Z M 278.941406 397.984375 C 276.902344 398.050781 274.851562 398.054688 272.832031 398.171875 L 265.910156 331.554688 C 264.863281 321.394531 256.367188 313.726562 246.148438 313.726562 L 228.027344 313.726562 L 227.445312 284.949219 L 239.605469 295.839844 C 243.25 299.113281 247.96875 300.910156 252.855469 300.910156 L 278.941406 300.910156 Z M 188.484375 422.652344 L 188.484375 353.476562 L 228.214844 353.476562 L 233.511719 404.394531 C 217.207031 408.640625 202.015625 414.847656 188.484375 422.652344 Z M 162.746094 199.320312 C 162.550781 192.96875 164.839844 186.921875 169.195312 182.292969 C 173.550781 177.660156 179.445312 175.007812 185.796875 174.820312 C 186.042969 174.808594 186.292969 174.808594 186.53125 174.808594 C 199.308594 174.808594 209.910156 185.007812 210.296875 197.871094 C 210.496094 204.226562 208.207031 210.273438 203.851562 214.902344 C 199.496094 219.523438 193.609375 222.183594 187.261719 222.371094 C 187.25 222.371094 187.25 222.371094 187.25 222.371094 C 180.816406 222.566406 174.84375 220.273438 170.226562 215.921875 C 165.597656 211.566406 162.933594 205.671875 162.746094 199.320312 Z M 291.683594 134.589844 C 314.566406 145.484375 333.046875 136.921875 349.558594 129.246094 C 366.84375 121.21875 381.878906 114.246094 402.136719 126.902344 L 402.136719 214.648438 C 379.203125 203.671875 360.734375 212.28125 344.210938 219.984375 C 326.9375 228.027344 311.90625 235.007812 291.683594 222.335938 Z M 436.757812 481.824219 C 417.828125 433.863281 358.714844 400.023438 291.683594 397.984375 L 291.683594 300.910156 L 296.175781 300.910156 C 307.140625 300.910156 316.046875 291.992188 316.046875 281.035156 C 316.046875 270.078125 307.140625 261.164062 296.175781 261.164062 L 291.683594 261.164062 L 291.683594 236.769531 C 299.480469 240.492188 306.796875 242.066406 313.65625 242.066406 C 326.949219 242.066406 338.683594 236.605469 349.585938 231.539062 C 367.628906 223.132812 383.199219 215.878906 404.863281 230.988281 C 406.816406 232.347656 409.34375 232.519531 411.457031 231.410156 C 413.5625 230.3125 414.878906 228.136719 414.878906 225.761719 L 414.878906 123.480469 C 414.878906 121.398438 413.859375 119.445312 412.152344 118.257812 C 384.453125 98.972656 363.085938 108.921875 344.195312 117.6875 C 326.152344 126.070312 310.582031 133.304688 288.945312 118.257812 C 287.015625 116.90625 284.453125 116.746094 282.363281 117.84375 C 280.257812 118.9375 278.941406 121.117188 278.941406 123.488281 L 278.941406 261.164062 L 260.457031 261.164062 L 230.40625 234.21875 C 226.761719 230.941406 222.042969 229.144531 217.140625 229.144531 L 206.375 229.144531 C 208.800781 227.566406 211.105469 225.789062 213.132812 223.632812 C 219.816406 216.527344 223.339844 207.234375 223.039062 197.488281 C 222.417969 177.359375 205.890625 161.714844 185.421875 162.078125 C 175.664062 162.378906 166.605469 166.449219 159.910156 173.5625 C 153.226562 180.667969 149.707031 189.957031 150.003906 199.707031 C 150.304688 209.464844 154.382812 218.515625 161.488281 225.207031 C 163.070312 226.6875 164.78125 227.976562 166.554688 229.144531 L 160.40625 229.144531 C 154.273438 229.144531 148.574219 231.90625 144.789062 236.730469 L 113.742188 276.179688 C 112.488281 277.769531 111.464844 279.578125 110.71875 281.578125 L 90.746094 335.691406 C 86.949219 345.964844 92.226562 357.417969 102.492188 361.214844 C 112.359375 364.867188 124.320312 359.453125 128.027344 349.464844 L 146.921875 298.28125 L 148.386719 296.417969 L 148.921875 322.554688 C 148.921875 322.644531 148.921875 322.757812 148.933594 322.882812 C 148.820312 323.472656 148.734375 324.140625 148.734375 324.527344 L 148.734375 450.191406 C 148.734375 451.964844 149.046875 453.65625 149.484375 455.296875 C 142.898438 463.507812 137.597656 472.390625 133.878906 481.824219 C 132.582031 485.09375 134.1875 488.796875 137.460938 490.085938 C 140.746094 491.378906 144.441406 489.785156 145.726562 486.503906 C 148.527344 479.402344 152.433594 472.691406 157.109375 466.339844 L 157.105469 466.335938 C 160.359375 468.660156 164.3125 470.066406 168.609375 470.066406 C 179.574219 470.066406 188.484375 461.148438 188.484375 450.191406 L 188.484375 437.382812 C 202.171875 428.542969 218.15625 421.632812 235.523438 417.015625 C 238.605469 425.304688 246.945312 430.941406 256.140625 429.90625 C 261.417969 429.359375 266.171875 426.789062 269.519531 422.675781 C 272.273438 419.28125 273.726562 415.167969 273.878906 410.875 C 277.664062 410.65625 281.476562 410.53125 285.324219 410.53125 C 349.847656 410.53125 407.25 441.773438 424.90625 486.503906 C 425.894531 489.011719 428.296875 490.535156 430.832031 490.535156 C 431.617188 490.535156 432.402344 490.390625 433.171875 490.085938 C 436.445312 488.796875 438.050781 485.09375 436.757812 481.824219" stroke-linecap="round" />
</g>
<g transform="matrix(1.33 0 0 1.33 552.6 1639.51)" clip-path="url(#CLIPPATH_4)"  >
<clipPath id="CLIPPATH_4" >
	<path transform="matrix(1 0 0 1 -0.45 -0.03) translate(-262, -1095.43)" id="a5e2f8f56d" d="M 35 882 L 489 882 L 489 1308.867188 L 35 1308.867188 Z M 35 882" stroke-linecap="round" />
</clipPath>
<path style="stroke: none; stroke-width: 1; stroke-dasharray: none; stroke-linecap: butt; stroke-dashoffset: 0; stroke-linejoin: miter; stroke-miterlimit: 4; fill: rgb(58,42,121); fill-rule: nonzero; opacity: 1;" vector-effect="non-scaling-stroke"  transform=" translate(-262.45, -1095.46)" d="M 320.398438 1146.546875 C 328.058594 1146.316406 334.339844 1148.515625 340.230469 1154.4375 L 475.390625 1290.300781 C 477.175781 1292.125 477.46875 1294.234375 477.125 1295.699219 C 476.804688 1297.191406 476.535156 1297.113281 476.421875 1297.113281 L 49.988281 1297.113281 C 49.222656 1297.113281 49.160156 1297.023438 48.839844 1296.757812 C 48.546875 1296.464844 48.144531 1295.851562 47.902344 1294.910156 C 47.433594 1293.0625 48.253906 1290.683594 48.515625 1290.421875 L 121.351562 1221.054688 C 130.230469 1212.582031 135.835938 1207.5625 141.355469 1204.808594 C 146.867188 1202.019531 152.882812 1200.960938 163.964844 1200.960938 L 193.15625 1200.960938 C 210.753906 1200.960938 221.285156 1197.53125 235.601562 1189.253906 L 278.476562 1164.503906 C 283.027344 1164.292969 287.601562 1162.738281 291.183594 1159.457031 C 292.414062 1158.308594 293.441406 1156.871094 294.351562 1155.351562 C 303.859375 1149.859375 312.808594 1146.777344 320.398438 1146.546875 Z M 214.363281 1071.042969 C 216.886719 1071.015625 220.496094 1071.835938 224.457031 1073.921875 C 242.4375 1083.335938 249.507812 1089.261719 252.765625 1095.632812 C 256.550781 1102.929688 257.835938 1117.542969 257.835938 1143.996094 C 257.542969 1150.304688 259.953125 1155.910156 263.789062 1159.457031 L 263.816406 1159.457031 L 229.761719 1179.105469 C 217.355469 1186.261719 210.523438 1188.785156 197 1189.167969 C 198.03125 1187.050781 198.785156 1184.738281 199.050781 1182.1875 C 203.957031 1145.285156 206.125 1117.039062 207.910156 1080.875 C 208.265625 1073.753906 210.050781 1072.164062 212.28125 1071.398438 C 212.839844 1071.195312 213.542969 1071.078125 214.363281 1071.042969 Z M 269.273438 928.050781 C 269.15625 932.28125 268.277344 938.589844 267.488281 942.78125 C 263.90625 944.304688 260.210938 945.421875 257.105469 946.445312 C 259.917969 940.289062 261.855469 933.015625 263.257812 925.128906 C 263.933594 921.277344 269.421875 922.476562 269.273438 928.050781 Z M 279.660156 919.519531 L 293.472656 919.953125 C 289.570312 926.707031 285.199219 931.664062 280.335938 935.445312 C 280.566406 933.125 280.832031 930.722656 280.949219 928.785156 C 281.183594 925.355469 280.710938 922.246094 279.660156 919.519531 Z M 314.796875 923.890625 C 304.527344 952.867188 286.992188 964.75 265.230469 971.316406 C 255.167969 974.363281 245.609375 975.039062 234.023438 976.273438 C 231 976.59375 228.714844 979.207031 228.796875 982.257812 L 230.644531 1043.417969 C 230.734375 1045.585938 231.996094 1047.519531 233.933594 1048.488281 C 255.875 1059.074219 270.21875 1069.195312 277.28125 1082.984375 C 285.554688 1099 284.914062 1117.269531 285.410156 1144.316406 C 285.472656 1147.105469 284.417969 1149.183594 283.242188 1150.765625 C 282.160156 1152.296875 279.699219 1152.855469 277.46875 1152.855469 C 275.238281 1152.855469 273.125 1152.0625 271.746094 1150.765625 C 269.605469 1148.222656 269.578125 1146.636719 269.515625 1144.316406 C 269.082031 1117.359375 269.050781 1101.636719 263.179688 1090.257812 C 258.140625 1080.488281 248.515625 1073.335938 229.925781 1063.5625 C 222.96875 1059.929688 215.492188 1057.871094 208.417969 1060.367188 C 201.382812 1062.859375 196.71875 1070.429688 196.246094 1080.285156 C 194.460938 1116.328125 192.320312 1144.109375 187.476562 1180.75 C 187.449219 1180.835938 187.449219 1180.890625 187.425781 1180.953125 C 187.105469 1184.214844 185.984375 1185.679688 184.429688 1186.757812 C 182.90625 1187.816406 180.675781 1188.3125 178.480469 1188.046875 C 176.3125 1187.757812 174.289062 1186.675781 173.078125 1185.261719 C 171.292969 1182.5625 171.382812 1181.15625 171.703125 1178.6875 C 183.027344 1094.273438 184.371094 1026.722656 177.15625 972.402344 C 176.507812 967.53125 180.125 963.363281 185.015625 963.363281 C 211.035156 963.363281 241.566406 963.363281 260.640625 957.589844 C 278.617188 952.160156 296.1875 942.605469 307.480469 918.308594 C 310.488281 911.859375 316.914062 917.875 314.796875 923.890625 Z M 380.359375 897.871094 L 380.359375 910.773438 L 323.136719 909.21875 C 321.722656 907.492188 320 906.058594 318.027344 905.089844 C 312.488281 902.386719 305.273438 903.679688 300.394531 908.492188 L 256.84375 907.078125 C 252.121094 906.9375 252.878906 900.925781 256.574219 900.835938 Z M 386.105469 882.085938 C 383.585938 882.148438 381.390625 883.792969 380.625 886.164062 L 256.953125 889.101562 C 247.652344 889.335938 240.46875 896.785156 240.589844 904.179688 C 240.703125 910.691406 245.867188 916.816406 253.320312 918.371094 C 252.503906 919.953125 251.90625 921.6875 251.648438 923.597656 C 250.273438 934.125 245.988281 943.511719 241.964844 949.347656 C 225.65625 951.375 204.035156 951.695312 185 951.695312 C 173.269531 951.695312 164.792969 963.976562 165.554688 973.929688 C 171.1875 1048.632812 169.457031 1117.769531 160.101562 1176.992188 C 159.363281 1181.476562 160.128906 1185.761719 161.886719 1189.308594 C 151.148438 1189.460938 143.234375 1190.753906 136.109375 1194.328125 C 128.515625 1198.140625 122.261719 1204.039062 113.285156 1212.574219 L 40.457031 1281.945312 C 35.910156 1286.289062 35.207031 1292.304688 36.558594 1297.699219 C 37.234375 1300.425781 38.519531 1303.121094 40.808594 1305.269531 C 43.070312 1307.4375 46.441406 1308.84375 49.996094 1308.84375 L 476.425781 1308.84375 C 482.785156 1308.84375 487.308594 1303.625 488.542969 1298.347656 C 489.742188 1293.035156 488.367188 1286.761719 483.726562 1282.066406 L 348.5625 1146.164062 C 340.5625 1138.128906 330.433594 1134.519531 320.0625 1134.875 C 312.519531 1135.105469 304.832031 1137.285156 297.125 1140.769531 C 297.152344 1115.636719 297.152344 1095.957031 287.707031 1077.621094 C 279.257812 1061.199219 263.152344 1050.289062 242.269531 1039.84375 L 240.652344 987.046875 C 249.957031 986.105469 258.992188 985.429688 268.671875 982.496094 C 292.691406 975.222656 314.375 959.941406 325.839844 927.851562 C 326.667969 925.53125 327.011719 923.277344 327.039062 921.097656 L 380.511719 922.511719 C 382.277344 929.433594 392.515625 927.789062 392.046875 920.691406 L 392.046875 888.011719 C 392.085938 884.734375 389.394531 882.03125 386.105469 882.085938 Z M 386.105469 882.085938" stroke-linecap="round" />
</g>
<g transform="matrix(1.33 0 0 1.33 471.54 1390.67)"  >
<path style="stroke: none; stroke-width: 1; stroke-dasharray: none; stroke-linecap: butt; stroke-dashoffset: 0; stroke-linejoin: miter; stroke-miterlimit: 4; fill: rgb(58,42,121); fill-rule: evenodd; opacity: 1;" vector-effect="non-scaling-stroke"  transform=" translate(-201.65, -908.84)" d="M 209.882812 888.011719 C 221.703125 892.5 227.390625 905.289062 222.875 916.84375 C 218.328125 928.402344 205.191406 934.152344 193.371094 929.664062 C 181.605469 925.175781 175.910156 912.355469 180.433594 900.855469 C 184.972656 889.273438 198.082031 883.527344 209.882812 888.011719 Z M 214.015625 877.074219 C 196.382812 870.359375 176.378906 879.074219 169.484375 896.582031 L 169.546875 896.582031 C 162.683594 914.035156 171.535156 933.894531 189.195312 940.605469 C 206.878906 947.296875 226.882812 938.617188 233.777344 921.097656 C 240.613281 903.617188 231.734375 883.792969 214.015625 877.074219 Z M 214.015625 877.074219" stroke-linecap="round" />
</g>
<g transform="matrix(1.33 0 0 1.33 1612.07 510.69)"  >
<path style="stroke: none; stroke-width: 1; stroke-dasharray: none; stroke-linecap: butt; stroke-dashoffset: 0; stroke-linejoin: miter; stroke-miterlimit: 4; fill: rgb(58,42,121); fill-rule: nonzero; opacity: 1;" vector-effect="non-scaling-stroke"  transform=" translate(-1057.06, -248.85)" d="M 1110.515625 301.769531 L 1009.867188 301.769531 C 1006.550781 301.769531 1003.859375 299.082031 1003.859375 295.765625 C 1003.859375 292.449219 1006.550781 289.761719 1009.867188 289.761719 L 1104.507812 289.761719 L 1104.507812 255.394531 C 1104.507812 245.773438 1101.640625 236.503906 1096.21875 228.59375 C 1094.570312 226.191406 1092.679688 223.917969 1090.605469 221.84375 C 1081.640625 212.878906 1069.726562 207.941406 1057.054688 207.941406 C 1030.890625 207.941406 1009.601562 229.230469 1009.601562 255.394531 L 1009.601562 262.53125 C 1009.601562 265.847656 1006.914062 268.535156 1003.597656 268.535156 C 1000.28125 268.535156 997.59375 265.847656 997.59375 262.53125 L 997.59375 255.394531 C 997.59375 222.605469 1024.265625 195.929688 1057.054688 195.929688 C 1072.933594 195.929688 1087.863281 202.117188 1099.097656 213.351562 C 1101.695312 215.949219 1104.058594 218.789062 1106.121094 221.800781 C 1112.925781 231.71875 1116.519531 243.335938 1116.519531 255.394531 L 1116.519531 295.765625 C 1116.519531 299.082031 1113.832031 301.769531 1110.515625 301.769531 Z M 1110.515625 301.769531" stroke-linecap="round" />
</g>
<g transform="matrix(1.33 0 0 1.33 1612.07 408.64)"  >
<path style="stroke: none; stroke-width: 1; stroke-dasharray: none; stroke-linecap: butt; stroke-dashoffset: 0; stroke-linejoin: miter; stroke-miterlimit: 4; fill: rgb(58,42,121); fill-rule: nonzero; opacity: 1;" vector-effect="non-scaling-stroke"  transform=" translate(-1057.05, -172.31)" d="M 1057.054688 207.945312 C 1037.664062 207.945312 1021.890625 191.957031 1021.890625 172.308594 C 1021.890625 152.660156 1037.664062 136.675781 1057.054688 136.675781 C 1076.445312 136.675781 1092.21875 152.660156 1092.21875 172.308594 C 1092.21875 191.957031 1076.445312 207.945312 1057.054688 207.945312 Z M 1057.054688 148.6875 C 1044.289062 148.6875 1033.902344 159.285156 1033.902344 172.308594 C 1033.902344 185.335938 1044.285156 195.933594 1057.054688 195.933594 C 1069.820312 195.933594 1080.207031 185.335938 1080.207031 172.308594 C 1080.207031 159.285156 1069.820312 148.6875 1057.054688 148.6875 Z M 1057.054688 148.6875" stroke-linecap="round" />
</g>
<g transform="matrix(1.33 0 0 1.33 1744.91 540.32)"  >
<path style="stroke: none; stroke-width: 1; stroke-dasharray: none; stroke-linecap: butt; stroke-dashoffset: 0; stroke-linejoin: miter; stroke-miterlimit: 4; fill: rgb(58,42,121); fill-rule: nonzero; opacity: 1;" vector-effect="non-scaling-stroke"  transform=" translate(-1156.68, -271.07)" d="M 1202.851562 277.078125 L 1110.511719 277.078125 C 1107.195312 277.078125 1104.507812 274.390625 1104.507812 271.074219 C 1104.507812 267.757812 1107.195312 265.070312 1110.511719 265.070312 L 1202.851562 265.070312 C 1206.167969 265.070312 1208.855469 267.757812 1208.855469 271.074219 C 1208.855469 274.390625 1206.167969 277.078125 1202.851562 277.078125 Z M 1202.851562 277.078125" stroke-linecap="round" />
</g>
<g transform="matrix(1.33 0 0 1.33 1741.89 452.79)"  >
<path style="stroke: none; stroke-width: 1; stroke-dasharray: none; stroke-linecap: butt; stroke-dashoffset: 0; stroke-linejoin: miter; stroke-miterlimit: 4; fill: rgb(58,42,121); fill-rule: nonzero; opacity: 1;" vector-effect="non-scaling-stroke"  transform=" translate(-1154.42, -205.43)" d="M 1207.710938 239.609375 C 1204.394531 239.609375 1201.703125 236.921875 1201.703125 233.605469 L 1201.703125 231.566406 C 1201.703125 218.644531 1196.753906 206.5 1187.769531 197.375 C 1178.8125 188.269531 1166.910156 183.253906 1154.25 183.253906 C 1130.058594 183.253906 1109.800781 201.664062 1107.105469 226.09375 C 1106.8125 229.136719 1104.246094 231.519531 1101.128906 231.519531 C 1097.8125 231.519531 1095.121094 228.835938 1095.121094 225.519531 L 1095.121094 225.511719 C 1095.121094 225.292969 1095.132812 225.078125 1095.15625 224.863281 C 1098.488281 194.292969 1123.894531 171.242188 1154.25 171.242188 C 1170.15625 171.242188 1185.101562 177.53125 1196.332031 188.949219 C 1207.539062 200.332031 1213.714844 215.46875 1213.714844 231.566406 L 1213.714844 233.605469 C 1213.714844 236.921875 1211.027344 239.609375 1207.710938 239.609375 Z M 1207.710938 239.609375" stroke-linecap="round" />
</g>
<g transform="matrix(1.33 0 0 1.33 1741.67 375.72)" clip-path="url(#CLIPPATH_5)"  >
<clipPath id="CLIPPATH_5" >
	<path transform="matrix(1 0 0 1 0.25 0.38) translate(-1154.5, -148)" id="a7911455d0" d="M 1119 112 L 1190 112 L 1190 184 L 1119 184 Z M 1119 112" stroke-linecap="round" />
</clipPath>
<path style="stroke: none; stroke-width: 1; stroke-dasharray: none; stroke-linecap: butt; stroke-dashoffset: 0; stroke-linejoin: miter; stroke-miterlimit: 4; fill: rgb(58,42,121); fill-rule: nonzero; opacity: 1;" vector-effect="non-scaling-stroke"  transform=" translate(-1154.25, -147.62)" d="M 1154.25 183.253906 C 1134.863281 183.253906 1119.085938 167.269531 1119.085938 147.617188 C 1119.085938 127.96875 1134.863281 111.984375 1154.25 111.984375 C 1173.640625 111.984375 1189.414062 127.96875 1189.414062 147.617188 C 1189.414062 167.265625 1173.640625 183.253906 1154.25 183.253906 Z M 1154.25 123.996094 C 1141.484375 123.996094 1131.097656 134.59375 1131.097656 147.617188 C 1131.097656 160.644531 1141.484375 171.242188 1154.25 171.242188 C 1167.019531 171.242188 1177.40625 160.644531 1177.40625 147.617188 C 1177.40625 134.59375 1167.019531 123.996094 1154.25 123.996094 Z M 1154.25 123.996094" stroke-linecap="round" />
</g>
<g transform="matrix(1.33 0 0 1.33 1877.74 510.69)"  >
<path style="stroke: none; stroke-width: 1; stroke-dasharray: none; stroke-linecap: butt; stroke-dashoffset: 0; stroke-linejoin: miter; stroke-miterlimit: 4; fill: rgb(58,42,121); fill-rule: nonzero; opacity: 1;" vector-effect="non-scaling-stroke"  transform=" translate(-1256.31, -248.85)" d="M 1303.496094 301.769531 L 1202.847656 301.769531 C 1199.53125 301.769531 1196.84375 299.082031 1196.84375 295.765625 L 1196.84375 255.394531 C 1196.84375 246.742188 1198.664062 238.398438 1202.253906 230.59375 C 1211.925781 209.539062 1233.144531 195.929688 1256.308594 195.929688 C 1272.183594 195.929688 1287.117188 202.117188 1298.351562 213.351562 C 1309.585938 224.578125 1315.769531 239.507812 1315.769531 255.394531 L 1315.769531 262.53125 C 1315.769531 265.847656 1313.082031 268.535156 1309.765625 268.535156 C 1306.449219 268.535156 1303.761719 265.847656 1303.761719 262.53125 L 1303.761719 255.394531 C 1303.761719 242.71875 1298.824219 230.804688 1289.859375 221.847656 C 1280.890625 212.878906 1268.976562 207.941406 1256.308594 207.941406 C 1237.820312 207.941406 1220.886719 218.800781 1213.167969 235.609375 C 1210.304688 241.832031 1208.855469 248.488281 1208.855469 255.394531 L 1208.855469 289.757812 L 1303.496094 289.757812 C 1306.8125 289.757812 1309.5 292.449219 1309.5 295.765625 C 1309.5 299.082031 1306.8125 301.769531 1303.496094 301.769531 Z M 1303.496094 301.769531" stroke-linecap="round" />
</g>
<g transform="matrix(1.33 0 0 1.33 1877.74 408.64)"  >
<path style="stroke: none; stroke-width: 1; stroke-dasharray: none; stroke-linecap: butt; stroke-dashoffset: 0; stroke-linejoin: miter; stroke-miterlimit: 4; fill: rgb(58,42,121); fill-rule: nonzero; opacity: 1;" vector-effect="non-scaling-stroke"  transform=" translate(-1256.31, -172.31)" d="M 1256.308594 207.945312 C 1236.917969 207.945312 1221.144531 191.957031 1221.144531 172.308594 C 1221.144531 152.660156 1236.917969 136.675781 1256.308594 136.675781 C 1275.699219 136.675781 1291.472656 152.660156 1291.472656 172.308594 C 1291.472656 191.957031 1275.699219 207.945312 1256.308594 207.945312 Z M 1256.308594 148.6875 C 1243.542969 148.6875 1233.15625 159.285156 1233.15625 172.308594 C 1233.15625 185.335938 1243.542969 195.933594 1256.308594 195.933594 C 1269.074219 195.933594 1279.460938 185.335938 1279.460938 172.308594 C 1279.460938 159.285156 1269.074219 148.6875 1256.308594 148.6875 Z M 1256.308594 148.6875" stroke-linecap="round" />
</g>
<g transform="matrix(1.33 0 0 1.33 1931.75 644.71)"  >
<path style="stroke: none; stroke-width: 1; stroke-dasharray: none; stroke-linecap: butt; stroke-dashoffset: 0; stroke-linejoin: miter; stroke-miterlimit: 4; fill: rgb(58,42,121); fill-rule: nonzero; opacity: 1;" vector-effect="non-scaling-stroke"  transform=" translate(-1296.81, -349.36)" d="M 1250.78125 451.453125 C 1249.941406 451.453125 1249.085938 451.277344 1248.273438 450.902344 C 1245.261719 449.515625 1243.941406 445.949219 1245.328125 442.9375 L 1249.527344 433.8125 C 1250.992188 430.613281 1253.097656 427.8125 1255.78125 425.484375 C 1311.113281 377.703125 1319.753906 359.050781 1320.511719 357.191406 L 1336.632812 273.070312 C 1337.359375 269.289062 1336.164062 265.40625 1333.4375 262.679688 C 1331.855469 261.097656 1329.855469 260.015625 1327.65625 259.550781 C 1324.515625 258.886719 1321.332031 259.519531 1318.683594 261.335938 C 1316.039062 263.15625 1314.304688 265.902344 1313.800781 269.074219 L 1304.328125 328.898438 C 1304.316406 328.996094 1304.296875 329.089844 1304.277344 329.183594 C 1303.601562 332.429688 1300.417969 334.523438 1297.171875 333.847656 C 1293.984375 333.183594 1291.917969 330.117188 1292.480469 326.933594 L 1301.941406 267.195312 C 1302.964844 260.738281 1306.492188 255.144531 1311.878906 251.441406 C 1317.265625 247.738281 1323.757812 246.445312 1330.144531 247.800781 C 1334.625 248.746094 1338.699219 250.957031 1341.929688 254.1875 C 1347.472656 259.730469 1349.902344 267.632812 1348.429688 275.328125 L 1332.226562 359.871094 C 1332.191406 360.066406 1332.144531 360.257812 1332.085938 360.449219 C 1331.476562 362.511719 1324.355469 382.132812 1263.636719 434.570312 C 1262.265625 435.757812 1261.1875 437.191406 1260.441406 438.820312 L 1256.238281 447.957031 C 1255.226562 450.15625 1253.054688 451.453125 1250.78125 451.453125 Z M 1250.78125 451.453125" stroke-linecap="round" />
</g>
<g transform="matrix(1.33 0 0 1.33 1861.71 675.23)"  >
<path style="stroke: none; stroke-width: 1; stroke-dasharray: none; stroke-linecap: butt; stroke-dashoffset: 0; stroke-linejoin: miter; stroke-miterlimit: 4; fill: rgb(58,42,121); fill-rule: nonzero; opacity: 1;" vector-effect="non-scaling-stroke"  transform=" translate(-1244.29, -372.25)" d="M 1189.839844 431.554688 C 1186.898438 431.554688 1184.328125 429.390625 1183.902344 426.394531 C 1177.894531 384.261719 1207.238281 368.125 1220.132812 363.140625 C 1224.671875 361.386719 1228.773438 358.695312 1232.320312 355.144531 L 1266.933594 320.535156 C 1272.558594 314.910156 1280.511719 312.152344 1288.195312 313.15625 C 1295.960938 314.167969 1301.601562 318.738281 1304.082031 326.027344 C 1304.601562 327.519531 1304.992188 329.191406 1305.238281 330.953125 C 1306.324219 338.777344 1303.582031 346.84375 1297.894531 352.527344 L 1268.695312 381.730469 C 1266.347656 384.074219 1262.546875 384.074219 1260.203125 381.730469 C 1257.855469 379.382812 1257.855469 375.582031 1260.203125 373.238281 L 1289.402344 344.035156 C 1292.441406 340.996094 1293.914062 336.722656 1293.339844 332.609375 C 1293.203125 331.613281 1292.996094 330.714844 1292.722656 329.925781 C 1291.703125 326.933594 1289.886719 325.488281 1286.640625 325.0625 C 1282.625 324.539062 1278.433594 326.019531 1275.425781 329.027344 L 1240.816406 363.640625 C 1236.074219 368.378906 1230.574219 371.980469 1224.464844 374.34375 C 1211.773438 379.246094 1191.175781 392.3125 1195.792969 424.699219 C 1196.261719 427.984375 1193.980469 431.027344 1190.695312 431.492188 C 1190.40625 431.535156 1190.121094 431.554688 1189.839844 431.554688 Z M 1189.839844 431.554688" stroke-linecap="round" />
</g>
<g transform="matrix(1.33 0 0 1.33 1828.25 776.96)" clip-path="url(#CLIPPATH_6)"  >
<clipPath id="CLIPPATH_6" >
	<path transform="matrix(1 0 0 1 -0.19 -0.55) translate(-1219, -448)" id="daf67d7c0d" d="M 1170 418 L 1268 418 L 1268 478 L 1170 478 Z M 1170 418" stroke-linecap="round" />
</clipPath>
<path style="stroke: none; stroke-width: 1; stroke-dasharray: none; stroke-linecap: butt; stroke-dashoffset: 0; stroke-linejoin: miter; stroke-miterlimit: 4; fill: rgb(58,42,121); fill-rule: nonzero; opacity: 1;" vector-effect="non-scaling-stroke"  transform=" translate(-1219.19, -448.55)" d="M 1249.222656 478.34375 C 1247.441406 478.34375 1245.625 478.054688 1243.847656 477.441406 L 1181.960938 456.082031 C 1173.34375 453.109375 1168.753906 443.683594 1171.726562 435.070312 L 1173.507812 429.90625 C 1174.949219 425.734375 1177.929688 422.371094 1181.898438 420.441406 C 1185.867188 418.507812 1190.351562 418.234375 1194.523438 419.675781 L 1256.410156 441.03125 C 1265.027344 444.007812 1269.617188 453.433594 1266.644531 462.046875 L 1264.863281 467.207031 C 1262.503906 474.042969 1256.082031 478.34375 1249.222656 478.34375 Z M 1189.128906 430.78125 C 1188.453125 430.78125 1187.78125 430.933594 1187.15625 431.238281 C 1186.070312 431.765625 1185.257812 432.683594 1184.863281 433.824219 L 1183.082031 438.988281 C 1182.6875 440.125 1182.761719 441.351562 1183.289062 442.4375 C 1183.816406 443.523438 1184.738281 444.335938 1185.878906 444.730469 L 1247.765625 466.085938 C 1250.121094 466.898438 1252.695312 465.644531 1253.507812 463.289062 L 1255.289062 458.128906 C 1255.683594 456.988281 1255.609375 455.761719 1255.082031 454.679688 C 1254.550781 453.59375 1253.632812 452.78125 1252.492188 452.386719 L 1190.605469 431.027344 C 1190.125 430.863281 1189.625 430.78125 1189.128906 430.78125 Z M 1189.128906 430.78125" stroke-linecap="round" />
</g>
<g transform="matrix(1.33 0 0 1.33 1558.06 644.71)"  >
<path style="stroke: none; stroke-width: 1; stroke-dasharray: none; stroke-linecap: butt; stroke-dashoffset: 0; stroke-linejoin: miter; stroke-miterlimit: 4; fill: rgb(58,42,121); fill-rule: nonzero; opacity: 1;" vector-effect="non-scaling-stroke"  transform=" translate(-1016.55, -349.36)" d="M 1062.582031 451.453125 C 1060.308594 451.453125 1058.132812 450.15625 1057.121094 447.957031 L 1052.925781 438.828125 C 1052.1875 437.214844 1051.078125 435.742188 1049.71875 434.566406 C 989.007812 382.132812 981.886719 362.511719 981.277344 360.449219 C 981.21875 360.257812 981.171875 360.066406 981.136719 359.871094 L 964.933594 275.332031 C 963.460938 267.632812 965.890625 259.730469 971.433594 254.1875 C 974.664062 250.957031 978.738281 248.75 983.21875 247.800781 C 989.609375 246.445312 996.097656 247.738281 1001.484375 251.441406 C 1006.871094 255.144531 1010.398438 260.738281 1011.421875 267.195312 L 1020.890625 326.988281 C 1021.410156 330.148438 1019.355469 333.191406 1016.191406 333.847656 C 1012.945312 334.527344 1009.765625 332.449219 1009.089844 329.203125 C 1009.070312 329.109375 1009.050781 328.996094 1009.035156 328.898438 L 999.558594 269.074219 C 999.058594 265.90625 997.324219 263.15625 994.679688 261.339844 C 992.035156 259.519531 988.847656 258.882812 985.707031 259.550781 C 983.507812 260.015625 981.507812 261.097656 979.925781 262.679688 C 977.199219 265.40625 976.007812 269.292969 976.730469 273.074219 L 992.832031 357.09375 C 993.828125 359.367188 1003.375 378.675781 1057.574219 425.480469 C 1060.265625 427.8125 1062.375 430.617188 1063.839844 433.820312 L 1068.035156 442.9375 C 1069.421875 445.949219 1068.101562 449.515625 1065.089844 450.902344 C 1064.273438 451.277344 1063.421875 451.453125 1062.582031 451.453125 Z M 1062.582031 451.453125" stroke-linecap="round" />
</g>
<g transform="matrix(1.33 0 0 1.33 1628.1 675.23)"  >
<path style="stroke: none; stroke-width: 1; stroke-dasharray: none; stroke-linecap: butt; stroke-dashoffset: 0; stroke-linejoin: miter; stroke-miterlimit: 4; fill: rgb(58,42,121); fill-rule: nonzero; opacity: 1;" vector-effect="non-scaling-stroke"  transform=" translate(-1069.08, -372.25)" d="M 1123.523438 431.554688 C 1123.242188 431.554688 1122.957031 431.535156 1122.667969 431.492188 C 1119.386719 431.027344 1117.101562 427.984375 1117.570312 424.699219 C 1122.1875 392.3125 1101.589844 379.246094 1088.902344 374.34375 C 1082.789062 371.980469 1077.289062 368.378906 1072.546875 363.640625 L 1037.9375 329.027344 C 1034.929688 326.019531 1030.734375 324.539062 1026.722656 325.0625 C 1023.476562 325.488281 1021.660156 326.933594 1020.652344 329.894531 C 1020.367188 330.714844 1020.160156 331.613281 1020.023438 332.601562 C 1019.449219 336.722656 1020.921875 340.996094 1023.960938 344.035156 L 1053.164062 373.238281 C 1055.507812 375.582031 1055.507812 379.382812 1053.164062 381.730469 C 1050.816406 384.074219 1047.015625 384.074219 1044.667969 381.730469 L 1015.46875 352.527344 C 1009.78125 346.839844 1007.039062 338.773438 1008.128906 330.949219 C 1008.371094 329.191406 1008.761719 327.523438 1009.292969 325.992188 C 1011.761719 318.738281 1017.402344 314.167969 1025.167969 313.152344 C 1032.855469 312.148438 1040.804688 314.910156 1046.429688 320.535156 L 1081.039062 355.144531 C 1084.589844 358.695312 1088.691406 361.386719 1093.230469 363.140625 C 1106.125 368.121094 1135.46875 384.261719 1129.460938 426.394531 C 1129.035156 429.394531 1126.464844 431.554688 1123.523438 431.554688 Z M 1123.523438 431.554688" stroke-linecap="round" />
</g>
<g transform="matrix(1.33 0 0 1.33 1661.56 776.96)" clip-path="url(#CLIPPATH_7)"  >
<clipPath id="CLIPPATH_7" >
	<path transform="matrix(1 0 0 1 -0.17 -0.55) translate(-1094, -448)" id="75" d="M 1045 418 L 1143 418 L 1143 478 L 1045 478 Z M 1045 418" stroke-linecap="round" />
</clipPath>
<path style="stroke: none; stroke-width: 1; stroke-dasharray: none; stroke-linecap: butt; stroke-dashoffset: 0; stroke-linejoin: miter; stroke-miterlimit: 4; fill: rgb(58,42,121); fill-rule: nonzero; opacity: 1;" vector-effect="non-scaling-stroke"  transform=" translate(-1094.17, -448.55)" d="M 1064.136719 478.34375 C 1057.28125 478.347656 1050.859375 474.046875 1048.5 467.210938 L 1046.71875 462.046875 C 1045.28125 457.875 1045.550781 453.390625 1047.484375 449.421875 C 1049.414062 445.453125 1052.777344 442.472656 1056.953125 441.03125 L 1118.839844 419.675781 C 1123.011719 418.234375 1127.496094 418.503906 1131.464844 420.441406 C 1135.433594 422.371094 1138.414062 425.734375 1139.855469 429.90625 L 1141.636719 435.066406 C 1144.609375 443.683594 1140.019531 453.109375 1131.402344 456.082031 L 1069.515625 477.441406 C 1067.738281 478.054688 1065.921875 478.34375 1064.136719 478.34375 Z M 1124.234375 430.78125 C 1123.738281 430.78125 1123.238281 430.863281 1122.757812 431.027344 L 1060.871094 452.386719 C 1059.726562 452.78125 1058.808594 453.59375 1058.28125 454.679688 C 1057.753906 455.765625 1057.679688 456.988281 1058.074219 458.128906 L 1059.855469 463.289062 C 1060.664062 465.644531 1063.242188 466.898438 1065.597656 466.085938 L 1127.484375 444.730469 C 1129.839844 443.917969 1131.09375 441.339844 1130.28125 438.988281 L 1128.5 433.828125 C 1128.105469 432.683594 1127.292969 431.765625 1126.207031 431.238281 C 1125.582031 430.933594 1124.910156 430.78125 1124.234375 430.78125 Z M 1124.234375 430.78125" stroke-linecap="round" />
</g>
</svg>