<svg xmlns="http://www.w3.org/2000/svg" xmlns:xlink="http://www.w3.org/1999/xlink" width="2000" zoomAndPan="magnify" viewBox="0 0 1500 1499.999933" height="2000" preserveAspectRatio="xMidYMid meet" version="1.0"><defs><clipPath id="56866bf113"><path d="M 18 372 L 1328 372 L 1328 1486.453125 L 18 1486.453125 Z M 18 372 " clip-rule="nonzero"/></clipPath><clipPath id="7fa5be59ef"><path d="M 13 16 L 1404.75 16 L 1404.75 865 L 13 865 Z M 13 16 " clip-rule="nonzero"/></clipPath></defs><g clip-path="url(#56866bf113)"><path fill="#3a2a79" d="M 1326.8125 1486.574219 C 1327.214844 1486.574219 1327.570312 1486.28125 1327.632812 1485.871094 C 1327.703125 1485.417969 1327.390625 1484.996094 1326.9375 1484.925781 C 1051.160156 1443.023438 738.132812 1282.246094 468.117188 1043.8125 C 345.5625 935.589844 239.519531 817.246094 161.457031 701.578125 C 81.246094 582.726562 32.546875 469.285156 20.613281 373.515625 C 20.558594 373.058594 20.109375 372.742188 19.6875 372.796875 C 19.234375 372.851562 18.910156 373.265625 18.96875 373.71875 C 30.929688 469.746094 79.726562 583.4375 160.082031 702.503906 C 238.222656 818.289062 344.359375 936.742188 467.019531 1045.054688 C 737.269531 1283.695312 1050.605469 1444.617188 1326.6875 1486.566406 C 1326.730469 1486.570312 1326.773438 1486.574219 1326.8125 1486.574219 Z M 1326.8125 1486.574219 " fill-opacity="1" fill-rule="nonzero"/></g><path fill="#3a2a79" d="M 1329.285156 1461.328125 C 1329.703125 1461.328125 1330.058594 1461.019531 1330.109375 1460.59375 C 1330.164062 1460.140625 1329.835938 1459.726562 1329.382812 1459.675781 C 1114.15625 1434.632812 879.355469 1340.511719 668.230469 1194.648438 C 573.78125 1129.28125 483.828125 1052.367188 408.097656 972.21875 C 330.417969 890.523438 267.109375 809.386719 208.921875 733.285156 C 132.085938 632.792969 41.246094 501.082031 20.613281 373.519531 C 20.542969 373.070312 20.097656 372.761719 19.664062 372.832031 C 19.210938 372.90625 18.902344 373.332031 18.976562 373.785156 C 39.664062 501.714844 130.648438 633.644531 207.601562 734.292969 C 265.816406 810.429688 329.15625 891.605469 406.894531 973.359375 C 482.699219 1053.585938 572.742188 1130.582031 667.289062 1196.011719 C 878.632812 1342.027344 1113.699219 1436.25 1329.1875 1461.320312 C 1329.222656 1461.328125 1329.253906 1461.328125 1329.285156 1461.328125 Z M 1329.285156 1461.328125 " fill-opacity="1" fill-rule="nonzero"/><path fill="#3a2a79" d="M 1331.757812 1436.078125 C 1332.1875 1436.078125 1332.550781 1435.75 1332.585938 1435.316406 C 1332.621094 1434.863281 1332.28125 1434.460938 1331.824219 1434.421875 C 1107.125 1416.007812 859.628906 1322.472656 652.800781 1177.800781 C 557.636719 1111.023438 466.628906 1028.257812 396.546875 944.753906 C 353.277344 893.195312 318.410156 845.613281 284.6875 799.601562 C 262.558594 769.398438 241.652344 740.867188 220.476562 714.242188 L 215.632812 708.152344 C 131.238281 602.066406 43.96875 492.367188 20.617188 373.527344 C 20.527344 373.078125 20.101562 372.789062 19.640625 372.871094 C 19.191406 372.960938 18.898438 373.398438 18.988281 373.847656 C 42.421875 493.082031 129.816406 602.945312 214.335938 709.1875 L 219.179688 715.277344 C 240.335938 741.875 261.230469 770.390625 283.351562 800.578125 C 315.515625 844.472656 351.96875 894.21875 395.277344 945.820312 C 465.449219 1029.429688 556.566406 1112.300781 651.851562 1179.160156 C 858.914062 1323.992188 1106.703125 1417.636719 1331.691406 1436.074219 C 1331.714844 1436.078125 1331.734375 1436.078125 1331.757812 1436.078125 Z M 1331.757812 1436.078125 " fill-opacity="1" fill-rule="nonzero"/><path fill="#3a2a79" d="M 1334.230469 1410.832031 C 1334.671875 1410.832031 1335.039062 1410.484375 1335.058594 1410.042969 C 1335.082031 1409.582031 1334.730469 1409.195312 1334.273438 1409.171875 C 1101.460938 1397.832031 840.9375 1305.039062 637.375 1160.953125 C 539.035156 1091.042969 449.40625 1004.507812 385 917.296875 C 354.195312 875.585938 328.921875 836.398438 306.621094 801.816406 C 280.359375 761.097656 257.679688 725.929688 232.035156 695.199219 C 218.699219 679.21875 204.550781 662.871094 190.871094 647.066406 C 118.941406 563.949219 44.558594 478 20.613281 373.535156 C 20.515625 373.089844 20.078125 372.804688 19.621094 372.914062 C 19.175781 373.015625 18.894531 373.460938 18.996094 373.90625 C 43.035156 478.773438 117.554688 564.878906 189.617188 648.148438 C 203.292969 663.953125 217.433594 680.292969 230.757812 696.261719 C 256.339844 726.914062 278.996094 762.042969 305.226562 802.71875 C 327.539062 837.316406 352.832031 876.53125 383.667969 918.28125 C 448.175781 1005.632812 537.933594 1092.296875 636.414062 1162.308594 C 738.171875 1234.335938 856.359375 1295.113281 978.199219 1338.066406 C 1097.527344 1380.136719 1220.628906 1405.296875 1334.191406 1410.828125 C 1334.203125 1410.832031 1334.21875 1410.832031 1334.230469 1410.832031 Z M 1334.230469 1410.832031 " fill-opacity="1" fill-rule="nonzero"/><path fill="#3a2a79" d="M 1336.703125 1385.585938 C 1337.15625 1385.585938 1337.523438 1385.222656 1337.53125 1384.769531 C 1337.539062 1384.308594 1337.175781 1383.933594 1336.714844 1383.925781 C 1093.265625 1379.894531 826.0625 1290.246094 621.945312 1144.109375 C 521.675781 1071.925781 431.101562 979.25 373.445312 889.839844 C 347.976562 850.335938 328.425781 814.398438 311.175781 782.695312 C 288.273438 740.609375 268.5 704.257812 243.585938 676.152344 C 226.289062 656.636719 207.363281 637.308594 187.328125 616.847656 C 121.300781 549.410156 46.464844 472.976562 20.617188 373.546875 C 20.5 373.105469 20.0625 372.835938 19.605469 372.953125 C 19.164062 373.070312 18.894531 373.519531 19.011719 373.964844 C 44.96875 473.824219 119.96875 550.425781 186.144531 618.007812 C 206.164062 638.457031 225.074219 657.769531 242.34375 677.25 C 267.128906 705.21875 286.867188 741.492188 309.714844 783.488281 C 326.980469 815.21875 346.546875 851.183594 372.054688 890.738281 C 429.816406 980.316406 520.542969 1073.15625 620.976562 1145.457031 C 825.359375 1291.78125 1092.914062 1381.550781 1336.6875 1385.585938 Z M 1336.703125 1385.585938 " fill-opacity="1" fill-rule="nonzero"/><path fill="#3a2a79" d="M 1324.324219 1360.441406 C 1329.296875 1360.441406 1334.25 1360.40625 1339.1875 1360.335938 C 1339.648438 1360.328125 1340.011719 1359.953125 1340.003906 1359.492188 C 1340 1359.039062 1339.628906 1358.675781 1339.175781 1358.675781 L 1339.164062 1358.675781 C 1089.527344 1362.375 808.738281 1273.644531 606.515625 1127.261719 C 502.757812 1051.679688 413.597656 955.136719 361.894531 862.386719 C 339.246094 821.757812 323.757812 786.3125 310.089844 755.039062 C 291.875 713.355469 277.488281 680.429688 255.128906 657.097656 C 237.164062 638.351562 215.726562 619.421875 193.027344 599.382812 C 125.597656 539.855469 49.171875 472.382812 20.613281 373.558594 C 20.488281 373.121094 20.035156 372.867188 19.585938 372.992188 C 19.148438 373.121094 18.894531 373.578125 19.023438 374.019531 C 47.710938 473.308594 124.328125 540.949219 191.925781 600.625 C 214.601562 620.644531 236.015625 639.550781 253.929688 658.246094 C 276.085938 681.363281 290.421875 714.171875 308.570312 755.703125 C 322.253906 787.011719 337.757812 822.5 360.449219 863.195312 C 412.261719 956.148438 501.59375 1052.886719 605.539062 1128.601562 C 708.453125 1203.097656 832.589844 1263.828125 964.535156 1304.230469 C 1084.902344 1341.089844 1208.949219 1360.441406 1324.324219 1360.441406 Z M 1324.324219 1360.441406 " fill-opacity="1" fill-rule="nonzero"/><path fill="#3a2a79" d="M 1295.339844 1336.109375 C 1310.933594 1336.109375 1326.386719 1335.769531 1341.6875 1335.085938 C 1342.144531 1335.066406 1342.496094 1334.679688 1342.476562 1334.222656 C 1342.457031 1333.765625 1342.0625 1333.363281 1341.609375 1333.429688 C 1082.539062 1345.007812 794.957031 1259.5625 591.085938 1110.414062 C 485.34375 1032.515625 395.34375 929.535156 350.335938 834.9375 C 329.539062 791.222656 317.328125 753.492188 307.519531 723.175781 C 294.894531 684.167969 285.773438 655.984375 266.664062 638.039062 C 249.765625 622.164062 227.785156 605.722656 204.511719 588.3125 C 136.828125 537.675781 52.59375 474.660156 20.617188 373.574219 C 20.476562 373.140625 20.007812 372.886719 19.574219 373.035156 C 19.136719 373.171875 18.894531 373.636719 19.035156 374.074219 C 51.171875 475.667969 135.644531 538.863281 203.519531 589.640625 C 226.753906 607.023438 248.695312 623.4375 265.53125 639.246094 C 284.328125 656.898438 293.394531 684.914062 305.941406 723.683594 C 315.765625 754.046875 327.996094 791.839844 348.839844 835.648438 C 393.957031 930.484375 484.152344 1033.699219 590.105469 1111.75 C 693.824219 1187.628906 820.933594 1248.335938 957.699219 1287.3125 C 1070.457031 1319.445312 1186.214844 1336.109375 1295.339844 1336.109375 Z M 1295.339844 1336.109375 " fill-opacity="1" fill-rule="nonzero"/><path fill="#3a2a79" d="M 1266.703125 1312.648438 C 1292.902344 1312.648438 1318.769531 1311.714844 1344.183594 1309.835938 C 1344.640625 1309.804688 1344.980469 1309.402344 1344.949219 1308.949219 C 1344.914062 1308.492188 1344.488281 1308.191406 1344.058594 1308.179688 C 1080.074219 1327.71875 778.460938 1243.460938 575.65625 1093.566406 C 466.359375 1012.179688 377.804688 905.234375 338.777344 807.484375 C 319.496094 759.195312 311.675781 720.28125 305.390625 689.019531 C 298.441406 654.445312 293.851562 631.605469 278.1875 618.96875 C 263.457031 607.085938 243.773438 594.929688 220.984375 580.851562 C 151.71875 538.0625 56.851562 479.464844 20.613281 373.589844 C 20.464844 373.15625 19.996094 372.921875 19.5625 373.074219 C 19.125 373.222656 18.898438 373.695312 19.042969 374.125 C 55.476562 480.5625 150.628906 539.34375 220.113281 582.261719 C 242.855469 596.308594 262.496094 608.441406 277.144531 620.257812 C 292.34375 632.519531 296.886719 655.128906 303.765625 689.347656 C 310.0625 720.675781 317.898438 759.667969 337.234375 808.101562 C 376.371094 906.121094 465.132812 1013.335938 574.671875 1094.898438 C 679.296875 1172.230469 809.382812 1232.914062 950.867188 1270.394531 C 1056.273438 1298.3125 1164.03125 1312.648438 1266.703125 1312.648438 Z M 1266.703125 1312.648438 " fill-opacity="1" fill-rule="nonzero"/><path fill="#3a2a79" d="M 1238.746094 1289.972656 C 1275.402344 1289.972656 1311.480469 1288.183594 1346.679688 1284.585938 C 1347.132812 1284.539062 1347.464844 1284.132812 1347.421875 1283.675781 C 1347.375 1283.21875 1346.964844 1282.886719 1346.511719 1282.933594 C 1074.03125 1310.796875 765.382812 1229.855469 560.226562 1076.71875 C 449.035156 993.066406 359.746094 879.382812 327.214844 780.035156 C 309.445312 725.777344 306.832031 684.128906 304.917969 653.71875 C 303.179688 626.011719 302.027344 607.707031 289.675781 599.882812 C 278.144531 592.582031 262.042969 584.734375 243.390625 575.652344 C 171.308594 540.535156 62.378906 487.472656 20.613281 373.605469 C 20.457031 373.175781 19.980469 372.957031 19.550781 373.113281 C 19.121094 373.269531 18.898438 373.746094 19.058594 374.175781 C 61.054688 488.671875 170.34375 541.914062 242.664062 577.144531 C 261.269531 586.207031 277.335938 594.035156 288.789062 601.285156 C 300.425781 608.65625 301.496094 625.65625 303.261719 653.824219 C 305.179688 684.324219 307.804688 726.09375 325.636719 780.554688 C 358.269531 880.207031 447.777344 994.199219 559.234375 1078.046875 C 664.851562 1156.882812 797.910156 1217.542969 944.03125 1253.472656 C 1042.390625 1277.65625 1142.539062 1289.972656 1238.746094 1289.972656 Z M 1238.746094 1289.972656 " fill-opacity="1" fill-rule="nonzero"/><path fill="#3a2a79" d="M 1213.253906 1267.78125 C 1259.949219 1267.78125 1305.605469 1264.988281 1349.171875 1259.335938 C 1349.628906 1259.277344 1349.949219 1258.859375 1349.890625 1258.40625 C 1349.832031 1257.953125 1349.421875 1257.621094 1348.960938 1257.691406 C 1068.230469 1294.101562 752.582031 1216.457031 544.796875 1059.875 C 430.058594 972.703125 342.253906 854.957031 315.644531 752.585938 C 299.726562 691.339844 304.667969 644.804688 307.621094 617.003906 C 309.96875 594.878906 311.269531 582.632812 301.117188 580.769531 C 290.230469 573.5 272.011719 566.402344 248.972656 557.433594 C 175.414062 528.785156 64.25 485.496094 20.613281 373.625 C 20.445312 373.199219 19.96875 372.984375 19.539062 373.15625 C 19.113281 373.320312 18.902344 373.800781 19.066406 374.230469 C 62.972656 486.777344 174.542969 530.226562 248.371094 558.976562 C 271.417969 567.953125 289.621094 575.042969 300.335938 582.242188 C 300.433594 582.308594 300.546875 582.351562 300.660156 582.371094 C 309.472656 583.867188 308.226562 595.574219 305.972656 616.828125 C 303.007812 644.742188 298.042969 691.464844 314.039062 753.003906 C 340.738281 855.71875 428.773438 973.808594 543.796875 1061.195312 C 650.464844 1141.578125 786.5 1202.214844 937.195312 1236.554688 C 1027.941406 1257.230469 1122.550781 1267.78125 1213.253906 1267.78125 Z M 1213.253906 1267.78125 " fill-opacity="1" fill-rule="nonzero"/><path fill="#3a2a79" d="M 1186.515625 1246.378906 C 1243.460938 1246.378906 1299.097656 1242.300781 1351.667969 1234.082031 C 1352.121094 1234.011719 1352.429688 1233.589844 1352.359375 1233.136719 C 1352.289062 1232.683594 1351.847656 1232.375 1351.410156 1232.445312 C 1114.84375 1269.429688 768.910156 1225.207031 529.367188 1043.023438 C 412.878906 953.6875 324.445312 828.910156 304.078125 725.136719 C 289.910156 652.949219 305.777344 603.382812 313.402344 579.5625 C 316.679688 569.328125 318.324219 564.191406 316.359375 562.167969 C 315.328125 561.101562 313.695312 561.316406 312.445312 561.644531 C 304.652344 557.972656 291.046875 554.304688 273.871094 549.679688 C 202.835938 530.546875 70.609375 494.933594 20.613281 373.644531 C 20.441406 373.21875 19.949219 373.019531 19.53125 373.195312 C 19.109375 373.371094 18.90625 373.851562 19.082031 374.277344 C 69.386719 496.320312 202.125 532.074219 273.441406 551.28125 C 290.738281 555.941406 304.402344 559.621094 312.007812 563.273438 C 312.191406 563.363281 312.402344 563.378906 312.597656 563.324219 C 313.515625 563.058594 314.707031 562.847656 315.167969 563.320312 C 316.441406 564.632812 314.402344 571 311.824219 579.058594 C 304.15625 603.011719 288.199219 652.851562 302.449219 725.457031 C 322.890625 829.605469 411.566406 954.773438 528.363281 1044.34375 C 636.132812 1126.308594 775.140625 1186.921875 930.359375 1219.632812 C 1014.660156 1237.398438 1102.015625 1246.378906 1186.515625 1246.378906 Z M 1186.515625 1246.378906 " fill-opacity="1" fill-rule="nonzero"/><path fill="#3a2a79" d="M 1159.984375 1225.597656 C 1227.117188 1225.597656 1292.75 1220.023438 1354.160156 1208.835938 C 1354.613281 1208.753906 1354.910156 1208.320312 1354.828125 1207.867188 C 1354.746094 1207.417969 1354.300781 1207.121094 1353.863281 1207.203125 C 1110.3125 1251.582031 756.148438 1212.816406 513.941406 1026.179688 C 394.011719 933.765625 307.09375 804.824219 292.503906 697.683594 C 279.816406 604.503906 318.265625 551.917969 325.3125 543.253906 C 326.839844 541.640625 326.917969 541.421875 326.5625 540.886719 C 326.351562 540.5625 325.941406 540.429688 325.578125 540.566406 C 325.554688 540.574219 325.429688 540.695312 325.21875 540.929688 L 325.175781 540.902344 C 325.121094 540.976562 324.6875 541.496094 323.65625 542.589844 C 319.585938 541.738281 313.117188 540.875 305.003906 539.796875 C 243.351562 531.578125 79.574219 509.757812 20.613281 373.664062 C 20.429688 373.242188 19.9375 373.054688 19.523438 373.234375 C 19.101562 373.414062 18.910156 373.90625 19.089844 374.324219 C 78.425781 511.277344 242.878906 533.191406 304.789062 541.441406 C 312.421875 542.457031 318.597656 543.28125 322.632812 544.074219 C 312.28125 557.558594 278.855469 609.742188 290.859375 697.910156 C 305.507812 805.460938 392.671875 934.828125 512.929688 1027.492188 C 621.585938 1111.222656 763.519531 1171.871094 923.390625 1202.886719 C 1001.320312 1218.003906 1081.667969 1225.597656 1159.984375 1225.597656 Z M 1159.984375 1225.597656 " fill-opacity="1" fill-rule="nonzero"/><path fill="#3a2a79" d="M 1134.925781 1205.253906 C 1211.785156 1205.253906 1287.003906 1198.023438 1356.652344 1183.582031 C 1357.101562 1183.488281 1357.390625 1183.050781 1357.296875 1182.601562 C 1357.203125 1182.152344 1356.769531 1181.867188 1356.316406 1181.957031 C 1114.617188 1232.066406 743.085938 1199.425781 498.507812 1009.328125 C 375.070312 913.386719 289.664062 780.285156 280.929688 670.234375 C 274.714844 591.957031 305.554688 543.007812 324.027344 526.304688 C 329.503906 526.023438 333.464844 525.632812 335.628906 525.289062 C 335.917969 525.242188 336.164062 525.042969 336.269531 524.769531 C 337.375 521.980469 337.367188 520.042969 336.265625 519.019531 C 335.53125 518.335938 334 517.839844 330.921875 519.328125 C 328.839844 520.339844 326.277344 522.125 323.410156 524.679688 C 300.109375 525.832031 250.164062 524.914062 194.890625 509.761719 C 136.234375 493.679688 58.390625 457.019531 20.613281 373.6875 C 20.425781 373.265625 19.929688 373.085938 19.515625 373.273438 C 19.097656 373.464844 18.914062 373.953125 19.105469 374.371094 C 57.140625 458.292969 135.453125 495.1875 194.449219 511.359375 C 248.367188 526.140625 297.296875 527.421875 321.535156 526.421875 C 302.625 544.671875 273.179688 593.601562 279.273438 670.363281 C 283.648438 725.464844 307.25 787.238281 347.523438 849.007812 C 386.503906 908.789062 438.359375 964.679688 497.492188 1010.640625 C 607.328125 1096.007812 752.234375 1156.636719 916.546875 1185.964844 C 988.601562 1198.832031 1062.496094 1205.253906 1134.925781 1205.253906 Z M 334.894531 523.71875 C 333.007812 523.992188 330.023438 524.289062 326.089844 524.535156 C 328.171875 522.832031 330.050781 521.59375 331.644531 520.824219 C 333.640625 519.855469 334.761719 519.882812 335.136719 520.234375 C 335.511719 520.585938 335.628906 521.679688 334.894531 523.71875 Z M 334.894531 523.71875 " fill-opacity="1" fill-rule="nonzero"/><path fill="#3a2a79" d="M 1110.746094 1185.335938 C 1197.074219 1185.335938 1281.621094 1176.292969 1359.144531 1158.328125 C 1359.589844 1158.226562 1359.867188 1157.777344 1359.765625 1157.332031 C 1359.660156 1156.882812 1359.203125 1156.605469 1358.769531 1156.710938 C 1111.148438 1214.09375 731.503906 1187.175781 483.082031 992.484375 C 358.085938 894.527344 272.195312 753.988281 269.347656 642.777344 C 267.757812 580.617188 290.070312 536.949219 312.070312 514.257812 C 330.414062 512.535156 343.261719 509.335938 347.566406 506.101562 C 347.742188 505.96875 347.859375 505.773438 347.890625 505.558594 C 348.667969 500.183594 346.851562 497.664062 345.1875 496.5 C 341.863281 494.171875 336.199219 494.945312 329.246094 498.679688 C 323.625 501.699219 317.441406 506.414062 311.234375 512.769531 C 281.4375 515.46875 237.058594 514.242188 191.289062 502.925781 C 134.660156 488.921875 59.078125 455.136719 20.613281 373.710938 C 20.417969 373.292969 19.917969 373.121094 19.507812 373.316406 C 19.09375 373.507812 18.917969 374.003906 19.113281 374.417969 C 57.855469 456.4375 133.910156 490.445312 190.890625 504.539062 C 235.828125 515.648438 279.539062 517.023438 309.597656 514.480469 C 287.757812 537.835938 266.117188 581.417969 267.6875 642.820312 C 269.136719 699.347656 291.03125 763.101562 331.007812 827.195312 C 369.496094 888.902344 421.730469 946.511719 482.058594 993.789062 C 593.101562 1080.8125 740.980469 1141.417969 909.710938 1169.046875 C 976.148438 1179.925781 1043.984375 1185.335938 1110.746094 1185.335938 Z M 346.296875 504.972656 C 342.003906 507.949219 330.347656 510.847656 313.792969 512.523438 C 319.402344 507.011719 324.949219 502.871094 330.03125 500.140625 C 336.3125 496.769531 341.492188 495.9375 344.234375 497.859375 C 346.453125 499.410156 346.601562 502.515625 346.296875 504.972656 Z M 346.296875 504.972656 " fill-opacity="1" fill-rule="nonzero"/><path fill="#3a2a79" d="M 1088.054688 1165.703125 C 1183.414062 1165.703125 1276.851562 1154.734375 1361.636719 1133.074219 C 1362.078125 1132.960938 1362.347656 1132.511719 1362.234375 1132.066406 C 1362.121094 1131.625 1361.671875 1131.355469 1361.226562 1131.46875 C 1108.339844 1196.0625 720.847656 1174.855469 467.648438 975.636719 C 339.226562 873.765625 254.878906 728.964844 257.769531 615.324219 C 259.097656 563 277.332031 528.457031 292.398438 508.691406 C 292.949219 507.96875 293.5 507.257812 294.054688 506.558594 C 329.988281 503.640625 354.746094 495.199219 359.363281 486.808594 C 359.429688 486.6875 359.464844 486.550781 359.464844 486.414062 C 359.511719 476.914062 354.273438 471.390625 345.101562 471.25 C 344.992188 471.25 344.878906 471.25 344.765625 471.25 C 332.292969 471.25 311.890625 481.644531 293.230469 504.925781 C 282.410156 505.792969 270.65625 506.15625 258.273438 505.871094 C 205.707031 504.648438 77.328125 489.324219 20.613281 373.734375 C 20.414062 373.320312 19.921875 373.148438 19.503906 373.351562 C 19.09375 373.554688 18.925781 374.054688 19.125 374.464844 C 76.234375 490.871094 205.367188 506.300781 258.234375 507.53125 C 270.175781 507.808594 281.445312 507.5 291.808594 506.734375 C 291.566406 507.046875 291.320312 507.367188 291.078125 507.6875 C 275.863281 527.644531 257.449219 562.515625 256.109375 615.277344 C 254.640625 673.167969 274.851562 738.875 314.558594 805.289062 C 351.980469 867.878906 405.984375 928.839844 466.621094 976.9375 C 579.144531 1065.46875 730.042969 1125.988281 903.011719 1151.949219 C 964.28125 1161.140625 1026.570312 1165.703125 1088.054688 1165.703125 Z M 357.804688 486.191406 C 353.195312 494.03125 329.085938 501.792969 295.523438 504.734375 C 313.710938 482.546875 333.308594 472.664062 345.074219 472.910156 C 353.253906 473.035156 357.769531 477.746094 357.804688 486.191406 Z M 357.804688 486.191406 " fill-opacity="1" fill-rule="nonzero"/><path fill="#3a2a79" d="M 1065.441406 1146.484375 C 1169.804688 1146.484375 1272.164062 1133.4375 1364.125 1107.820312 C 1364.566406 1107.699219 1364.824219 1107.242188 1364.703125 1106.800781 C 1364.578125 1106.359375 1364.117188 1106.089844 1363.679688 1106.226562 C 1096.847656 1180.542969 698.085938 1153.761719 452.21875 958.785156 C 320.382812 853.414062 237.582031 704.351562 246.183594 587.863281 C 248.761719 552.929688 260.167969 523.875 275.152344 501.484375 C 290.492188 500.691406 304.875 498.875 317.828125 496.261719 C 349.832031 489.796875 370.21875 478.753906 371.03125 467.4375 C 371.910156 455.164062 365.453125 447.617188 353.324219 446.734375 C 338.332031 445.625 312.589844 455.777344 289.113281 480.886719 C 284.222656 486.117188 279.023438 492.425781 273.953125 499.886719 C 187.710938 504.058594 72.351562 475.597656 20.613281 373.757812 C 20.40625 373.347656 19.902344 373.183594 19.5 373.394531 C 19.089844 373.601562 18.925781 374.097656 19.136719 374.507812 C 68.03125 470.757812 173.277344 501.925781 257.761719 501.929688 C 262.859375 501.929688 267.878906 501.816406 272.808594 501.597656 C 259.476562 521.761719 247.316406 550.011719 244.527344 587.742188 C 235.890625 704.75 318.9375 854.382812 451.183594 960.085938 C 564.957031 1050.308594 718.828125 1110.796875 896.171875 1135.023438 C 952.300781 1142.691406 1009.164062 1146.484375 1065.441406 1146.484375 Z M 350.800781 448.304688 C 351.617188 448.304688 352.417969 448.332031 353.203125 448.390625 C 364.449219 449.207031 370.191406 455.929688 369.375 467.320312 C 368.628906 477.699219 348.269531 488.417969 317.5 494.632812 C 304.984375 497.160156 291.089844 498.941406 276.320312 499.761719 C 299.300781 466.363281 330.199219 448.304688 350.800781 448.304688 Z M 350.800781 448.304688 " fill-opacity="1" fill-rule="nonzero"/><path fill="#3a2a79" d="M 1043.507812 1127.566406 C 1156.691406 1127.566406 1267.769531 1112.316406 1366.613281 1082.570312 C 1367.054688 1082.4375 1367.300781 1081.972656 1367.167969 1081.535156 C 1367.039062 1081.097656 1366.582031 1080.84375 1366.136719 1080.980469 C 1093.476562 1163.035156 686.695312 1141.628906 436.789062 941.9375 C 301.546875 833.050781 220.292969 679.71875 234.597656 560.402344 C 237.5625 535.707031 244.652344 514.40625 254.164062 496.453125 C 281.269531 496.0625 306.386719 492.480469 327.066406 486.902344 C 361.945312 477.5 383.226562 462.714844 382.597656 448.3125 C 381.882812 431.855469 371.375 422.03125 353.769531 421.363281 C 332.140625 420.511719 304.742188 433.664062 282.394531 455.621094 C 272.933594 464.914062 262.25 477.796875 253.113281 494.820312 C 170.347656 495.773438 69.453125 466.859375 20.617188 373.78125 C 20.398438 373.375 19.894531 373.21875 19.496094 373.429688 C 19.089844 373.644531 18.933594 374.144531 19.148438 374.550781 C 68.148438 467.9375 169.1875 497.226562 252.238281 496.476562 C 243.335938 513.511719 236.027344 534.578125 232.953125 560.203125 C 225.671875 620.945312 242.457031 690.601562 281.503906 761.648438 C 317.980469 828.027344 372.761719 892.515625 435.753906 943.234375 C 550.785156 1035.152344 707.632812 1095.621094 889.332031 1118.101562 C 940.511719 1124.433594 992.238281 1127.566406 1043.507812 1127.566406 Z M 352.023438 422.988281 C 352.59375 422.988281 353.152344 423 353.703125 423.019531 C 370.339844 423.652344 380.265625 432.898438 380.941406 448.386719 C 381.53125 461.964844 360.722656 476.113281 326.632812 485.300781 C 306.308594 490.78125 281.65625 494.328125 255.054688 494.792969 C 281.324219 446.535156 325.109375 422.988281 352.023438 422.988281 Z M 352.023438 422.988281 " fill-opacity="1" fill-rule="nonzero"/><path fill="#3a2a79" d="M 1019.554688 1108.675781 C 1142.296875 1108.675781 1264.648438 1091.03125 1369.105469 1057.316406 C 1369.539062 1057.175781 1369.777344 1056.710938 1369.636719 1056.273438 C 1369.5 1055.839844 1369.03125 1055.597656 1368.59375 1055.738281 C 1096.988281 1143.402344 672.699219 1127.40625 421.359375 925.089844 C 282.722656 812.675781 203.011719 655.082031 223.011719 532.9375 C 225.421875 518.214844 229.328125 504.664062 234.371094 492.285156 C 268.941406 493.101562 303.585938 488.640625 333.820312 479.03125 C 373.230469 466.503906 396.351562 447.417969 394.160156 429.222656 C 391.65625 408.441406 376.851562 396.238281 353.535156 395.742188 C 315.347656 394.960938 259.476562 427.386719 233.234375 490.691406 C 154.863281 488.816406 66.792969 459.214844 20.617188 373.804688 C 20.398438 373.402344 19.894531 373.253906 19.492188 373.472656 C 19.085938 373.6875 18.9375 374.191406 19.15625 374.59375 C 57.160156 444.886719 121.640625 472.949219 169.039062 484.113281 C 189.421875 488.914062 210.980469 491.613281 232.605469 492.238281 C 227.625 504.570312 223.765625 518.050781 221.375 532.667969 C 211.195312 594.832031 226.269531 666.464844 264.96875 739.828125 C 300.980469 808.101562 356.152344 874.351562 420.316406 926.382812 C 536.632812 1020.011719 696.449219 1080.453125 882.492188 1101.179688 C 927.621094 1106.207031 973.617188 1108.675781 1019.554688 1108.675781 Z M 352.125 397.386719 C 352.585938 397.386719 353.042969 397.390625 353.503906 397.402344 C 375.902344 397.878906 390.117188 409.546875 392.515625 429.421875 C 394.605469 446.777344 371.921875 465.179688 333.316406 477.449219 C 306.367188 486.015625 271.804688 491.410156 235.011719 490.730469 C 260.738281 429.265625 314.640625 397.386719 352.125 397.386719 Z M 352.125 397.386719 " fill-opacity="1" fill-rule="nonzero"/><path fill="#3a2a79" d="M 998.59375 1090.28125 C 1129.722656 1090.28125 1260.851562 1070.160156 1371.589844 1032.0625 C 1372.023438 1031.914062 1372.253906 1031.441406 1372.105469 1031.007812 C 1371.957031 1030.574219 1371.488281 1030.351562 1371.050781 1030.496094 C 1093.886719 1125.84375 661.445312 1115.402344 405.929688 908.246094 C 340.765625 855.046875 285.359375 787.214844 249.910156 717.25 C 211.742188 641.914062 198.433594 568.679688 211.425781 505.472656 C 212.636719 499.585938 214.101562 493.867188 215.804688 488.3125 C 258.273438 491.011719 302.257812 485.511719 339.605469 472.277344 C 384.328125 456.433594 409.660156 432.628906 405.71875 410.152344 C 401.371094 385.332031 381.640625 370.265625 352.941406 369.847656 C 325.859375 369.46875 294.5 382.109375 268.855469 403.695312 C 250.402344 419.226562 227.136719 445.6875 214.503906 486.738281 C 141.367188 481.996094 63.984375 451.839844 20.617188 373.832031 C 20.394531 373.433594 19.894531 373.289062 19.488281 373.511719 C 19.089844 373.734375 18.945312 374.238281 19.167969 374.636719 C 58.3125 445.050781 123.5 472.027344 171.296875 482.253906 C 185.132812 485.21875 199.503906 487.191406 214.058594 488.199219 C 212.445312 493.59375 211.011719 499.238281 209.800781 505.136719 C 196.734375 568.71875 210.089844 642.324219 248.429688 718 C 283.980469 788.167969 339.542969 856.1875 404.882812 909.53125 C 553.464844 1029.996094 742.902344 1071.039062 875.65625 1084.257812 C 916.203125 1088.296875 957.40625 1090.28125 998.59375 1090.28125 Z M 351.652344 371.5 C 352.078125 371.5 352.492188 371.5 352.914062 371.507812 C 381.167969 371.917969 399.820312 386.109375 404.085938 410.4375 C 407.878906 432.0625 382.957031 455.15625 339.050781 470.714844 C 306.25 482.335938 262.144531 489.566406 216.261719 486.84375 C 239.003906 414.816406 301.398438 371.5 351.652344 371.5 Z M 351.652344 371.5 " fill-opacity="1" fill-rule="nonzero"/><path fill="#3a2a79" d="M 978.21875 1072.09375 C 1117.550781 1072.09375 1257.304688 1049.398438 1374.078125 1006.8125 C 1374.507812 1006.652344 1374.730469 1006.175781 1374.574219 1005.75 C 1374.414062 1005.316406 1373.9375 1005.097656 1373.507812 1005.253906 C 1090.847656 1108.34375 650.269531 1103.472656 390.496094 891.398438 C 249.773438 775.753906 171.617188 609.484375 198.375 484.378906 C 247.640625 489.664062 300.835938 483.300781 345.007812 466.375 C 395.457031 447.046875 423.152344 418.199219 417.285156 391.089844 C 410.960938 361.878906 386.609375 344.160156 352.140625 343.6875 C 351.664062 343.683594 351.179688 343.679688 350.703125 343.679688 C 321.445312 343.679688 289.234375 355.820312 262.078125 377.132812 C 239.933594 394.507812 210.878906 426.046875 198.226562 477.609375 C 197.8125 479.296875 197.414062 481 197.035156 482.703125 C 129.472656 475.316406 61.167969 444.925781 20.617188 373.859375 C 20.386719 373.457031 19.882812 373.320312 19.488281 373.550781 C 19.085938 373.777344 18.949219 374.28125 19.175781 374.679688 C 59.382812 445.144531 125.203125 471.179688 173.335938 480.613281 C 180.988281 482.113281 188.796875 483.304688 196.710938 484.199219 C 183.085938 547.6875 195.195312 620.804688 231.890625 696.171875 C 266.980469 768.234375 322.9375 838.023438 389.449219 892.679688 C 539.679688 1015.328125 733.050781 1055.351562 868.816406 1067.335938 C 904.960938 1070.523438 941.582031 1072.09375 978.21875 1072.09375 Z M 350.699219 345.335938 C 351.175781 345.335938 351.644531 345.339844 352.121094 345.347656 C 385.757812 345.808594 409.511719 363.039062 415.664062 391.441406 C 421.347656 417.691406 394.042969 445.8125 344.414062 464.828125 C 306.230469 479.457031 252.773438 488.492188 198.699219 482.882812 C 199.058594 481.246094 199.4375 479.625 199.835938 478.003906 C 212.378906 426.902344 241.164062 395.652344 263.101562 378.4375 C 289.96875 357.351562 321.8125 345.335938 350.699219 345.335938 Z M 350.699219 345.335938 " fill-opacity="1" fill-rule="nonzero"/><path fill="#3a2a79" d="M 958.359375 1054.09375 C 1105.742188 1054.09375 1253.988281 1028.734375 1376.5625 981.558594 C 1376.992188 981.394531 1377.203125 980.914062 1377.039062 980.484375 C 1376.875 980.054688 1376.394531 979.84375 1375.96875 980.011719 C 1083.832031 1092.441406 629.578125 1083.734375 375.066406 874.546875 C 263.117188 781.96875 160.097656 623.121094 181.8125 480.28125 C 236.917969 488.871094 299.394531 481.839844 350.296875 461.132812 C 406.703125 438.1875 436.800781 404.046875 428.84375 372.035156 C 420.488281 338.414062 391.480469 317.949219 351.246094 317.289062 C 350.601562 317.28125 349.941406 317.273438 349.292969 317.273438 C 288.328125 317.273438 211.222656 363.414062 186.652344 450.078125 C 184.03125 459.320312 181.96875 468.785156 180.457031 478.433594 C 118.652344 468.671875 58.324219 438.375 20.621094 373.886719 C 20.390625 373.488281 19.878906 373.359375 19.484375 373.585938 C 19.089844 373.816406 18.957031 374.324219 19.1875 374.722656 C 60.417969 445.238281 126.863281 470.457031 175.34375 479.195312 C 176.960938 479.484375 178.582031 479.761719 180.214844 480.027344 C 171.335938 539.320312 183.269531 605.832031 215.351562 674.339844 C 249.984375 748.300781 306.328125 819.855469 374.011719 875.828125 C 435.878906 926.679688 511.289062 967.636719 598.152344 997.558594 C 678.734375 1025.320312 767.5 1043.101562 861.972656 1050.410156 C 893.867188 1052.878906 926.101562 1054.09375 958.359375 1054.09375 Z M 349.285156 318.933594 C 349.933594 318.933594 350.574219 318.9375 351.21875 318.949219 C 390.652344 319.59375 419.070312 339.589844 427.234375 372.433594 C 434.976562 403.589844 405.253906 436.988281 349.671875 459.597656 C 306.40625 477.195312 243.574219 488.042969 182.0625 478.683594 C 183.5625 469.222656 185.613281 459.828125 188.25 450.535156 C 212.59375 364.660156 288.9375 318.933594 349.285156 318.933594 Z M 349.285156 318.933594 " fill-opacity="1" fill-rule="nonzero"/><path fill="#3a2a79" d="M 939.792969 1036.152344 C 1097.136719 1036.152344 1252.886719 1007.335938 1379.050781 956.304688 C 1379.476562 956.128906 1379.679688 955.648438 1379.507812 955.222656 C 1379.335938 954.796875 1378.851562 954.59375 1378.429688 954.765625 C 1080.816406 1075.148438 618.371094 1071.757812 359.636719 857.699219 C 250.976562 767.292969 152.527344 615.835938 165.90625 475.816406 C 169.828125 476.640625 173.660156 477.355469 177.386719 477.972656 C 235.796875 487.679688 300.746094 479.820312 355.589844 456.414062 C 418.085938 429.746094 450.585938 390.113281 440.40625 352.988281 C 429.976562 314.941406 396.296875 291.652344 350.3125 290.683594 C 284.648438 289.234375 203.359375 334.15625 175.078125 422.554688 C 169.816406 439.007812 166.308594 456.15625 164.554688 473.863281 C 106.476562 461.023438 53.757812 429.308594 20.621094 373.914062 C 20.382812 373.519531 19.875 373.394531 19.480469 373.625 C 19.089844 373.859375 18.960938 374.371094 19.195312 374.765625 C 57.792969 439.289062 117.167969 465.300781 164.398438 475.496094 C 159.300781 530.339844 170.894531 590.550781 198.804688 652.503906 C 232.984375 728.363281 289.722656 801.691406 358.578125 858.976562 C 508.070312 982.65625 725.414062 1036.152344 939.792969 1036.152344 Z M 347.355469 292.3125 C 348.335938 292.3125 349.308594 292.324219 350.28125 292.34375 C 395.488281 293.292969 428.578125 316.128906 438.804688 353.425781 C 448.75 389.691406 416.613281 428.570312 354.941406 454.890625 C 297.839844 479.257812 228.898438 487.710938 166.066406 474.191406 C 167.824219 456.921875 171.289062 439.839844 176.65625 423.0625 C 204.273438 336.746094 282.828125 292.3125 347.355469 292.3125 Z M 347.355469 292.3125 " fill-opacity="1" fill-rule="nonzero"/><path fill="#3a2a79" d="M 919.980469 1018.585938 C 1083.09375 1018.585938 1247.953125 987.644531 1381.535156 931.050781 C 1381.957031 930.871094 1382.15625 930.386719 1381.976562 929.964844 C 1381.796875 929.542969 1381.308594 929.34375 1380.890625 929.523438 C 1077.84375 1057.910156 607.21875 1059.839844 344.207031 840.851562 C 238.671875 752.523438 144.3125 607.859375 150.546875 470.882812 C 160.648438 473.585938 170.394531 475.539062 179.5 476.9375 C 238.800781 486.027344 304.941406 476.988281 360.945312 452.125 C 393.019531 437.886719 418.617188 419.71875 434.980469 399.585938 C 452.429688 378.113281 458.304688 355.414062 451.96875 333.941406 C 439.433594 291.480469 401.089844 265.296875 349.390625 263.902344 C 313.007812 262.902344 274.839844 274.21875 241.839844 295.714844 C 205.171875 319.597656 178.085938 353.941406 163.507812 395.03125 C 155.257812 418.28125 150.511719 442.90625 149.238281 468.585938 C 97.441406 454.152344 51.121094 423.835938 20.625 373.941406 C 20.386719 373.546875 19.878906 373.421875 19.480469 373.664062 C 19.09375 373.902344 18.96875 374.414062 19.207031 374.804688 C 54.074219 431.855469 104.929688 458.40625 149.148438 470.503906 C 147.003906 520.753906 158.109375 574.972656 182.265625 630.667969 C 215.984375 708.421875 273.121094 783.523438 343.144531 842.125 C 406.332031 894.738281 484.066406 936.554688 574.195312 966.421875 C 657.726562 994.101562 749.945312 1010.972656 848.292969 1016.566406 C 872.078125 1017.917969 896.015625 1018.585938 919.980469 1018.585938 Z M 345.246094 265.503906 C 346.621094 265.503906 347.984375 265.523438 349.347656 265.558594 C 400.289062 266.933594 438.054688 292.671875 450.375 334.410156 C 462.453125 375.335938 427.089844 420.945312 360.273438 450.605469 C 296.996094 478.699219 219.140625 487.644531 150.640625 468.972656 C 151.945312 444.121094 156.574219 419.527344 165.070312 395.585938 C 195.59375 309.558594 277.964844 265.503906 345.246094 265.503906 Z M 345.246094 265.503906 " fill-opacity="1" fill-rule="nonzero"/><path fill="#3a2a79" d="M 901.367188 1001.046875 C 1072.199219 1001.046875 1245.191406 967.207031 1384.019531 905.796875 C 1384.4375 905.613281 1384.628906 905.121094 1384.441406 904.703125 C 1384.257812 904.285156 1383.765625 904.097656 1383.347656 904.277344 C 1081.582031 1037.757812 592.582031 1045.019531 328.777344 824.003906 C 226.175781 737.644531 135.472656 599.199219 135.628906 465.367188 C 151.847656 470.726562 167.535156 474.050781 181.695312 476.058594 C 241.90625 484.589844 309.226562 474.425781 366.394531 448.179688 C 440.132812 414.328125 478.265625 362.011719 463.53125 314.898438 C 448.875 268.03125 405.871094 238.898438 348.496094 236.96875 C 279.066406 234.664062 188.042969 274.492188 151.933594 367.511719 C 140.402344 397.214844 134.5625 429.1875 134.378906 462.753906 C 88.773438 447.191406 48.402344 418.507812 20.625 373.96875 C 20.382812 373.578125 19.871094 373.460938 19.480469 373.703125 C 19.09375 373.945312 18.972656 374.457031 19.21875 374.84375 C 50.515625 425.027344 94.003906 451.351562 134.375 464.945312 C 134.457031 510.558594 144.9375 559.074219 165.71875 608.828125 C 198.992188 688.484375 256.519531 765.355469 327.707031 825.273438 C 391.558594 878.769531 470.457031 921.019531 562.214844 950.851562 C 647.222656 978.492188 741.171875 994.90625 841.449219 999.644531 C 861.34375 1000.582031 881.351562 1001.046875 901.367188 1001.046875 Z M 342.707031 238.53125 C 344.636719 238.53125 346.542969 238.5625 348.4375 238.625 C 405.082031 240.53125 447.515625 269.230469 461.949219 315.394531 C 476.417969 361.660156 438.636719 413.191406 365.703125 446.671875 C 296.253906 478.550781 209.257812 487.859375 135.640625 463.179688 C 135.917969 430.9375 141.492188 398.984375 153.480469 368.109375 C 188.308594 278.390625 274.714844 238.53125 342.707031 238.53125 Z M 342.707031 238.53125 " fill-opacity="1" fill-rule="nonzero"/><path fill="#3a2a79" d="M 883.070312 983.632812 C 1061.539062 983.632812 1242.59375 946.820312 1386.503906 880.542969 C 1386.921875 880.355469 1387.101562 879.859375 1386.910156 879.445312 C 1386.71875 879.027344 1386.226562 878.847656 1385.8125 879.039062 C 1078.792969 1020.425781 581.464844 1033.148438 313.347656 807.15625 C 211.332031 720.816406 127.992188 586.984375 121.945312 459.503906 C 143.789062 468.15625 165.214844 472.867188 183.976562 475.320312 C 245.097656 483.3125 313.613281 472.089844 371.949219 444.523438 C 451.824219 406.78125 492.3125 348.425781 475.097656 295.859375 C 458.308594 244.601562 410.660156 212.46875 347.648438 209.90625 C 275.460938 206.964844 179.683594 246.417969 140.363281 339.992188 C 125.183594 376.105469 118.378906 415.585938 119.910156 457.257812 C 80.597656 440.917969 45.941406 413.816406 20.628906 373.996094 C 20.378906 373.605469 19.871094 373.492188 19.480469 373.742188 C 19.09375 373.984375 18.980469 374.5 19.226562 374.886719 C 47.039062 418.628906 83.972656 444.074219 119.96875 458.707031 C 121.664062 499.726562 131.414062 542.851562 149.175781 586.988281 C 181.996094 668.546875 239.921875 747.1875 312.277344 808.425781 C 376.789062 862.800781 456.847656 905.480469 550.234375 935.28125 C 636.722656 962.882812 732.402344 978.84375 834.609375 982.71875 C 850.71875 983.332031 866.890625 983.632812 883.074219 983.632812 Z M 340.078125 211.414062 C 342.605469 211.414062 345.101562 211.460938 347.582031 211.5625 C 409.875 214.097656 456.957031 245.804688 473.519531 296.375 C 490.460938 348.097656 450.3125 405.660156 371.242188 443.023438 C 294.074219 479.484375 199.199219 489.371094 121.882812 458.066406 C 120.148438 417.691406 126.195312 377.976562 141.890625 340.632812 C 179.558594 251 269.378906 211.414062 340.078125 211.414062 Z M 340.078125 211.414062 " fill-opacity="1" fill-rule="nonzero"/><path fill="#3a2a79" d="M 865.0625 966.335938 C 1051.109375 966.335938 1240.132812 926.488281 1388.988281 855.292969 C 1389.402344 855.09375 1389.574219 854.597656 1389.378906 854.183594 C 1389.179688 853.773438 1388.683594 853.601562 1388.269531 853.792969 C 1076.042969 1003.132812 570.386719 1021.324219 297.914062 790.308594 C 198.632812 705.832031 118 577.285156 107.820312 452.605469 C 135.285156 465.589844 162.890625 471.875 186.335938 474.703125 C 248.382812 482.191406 318.101562 469.949219 377.605469 441.113281 C 463.628906 399.425781 506.433594 334.9375 486.660156 276.820312 C 467.730469 221.195312 415.46875 186.019531 346.859375 182.734375 C 304.496094 180.699219 260.082031 191.304688 221.832031 212.585938 C 179.914062 235.902344 147.742188 270.441406 128.789062 312.46875 C 109.90625 354.339844 102.21875 400.734375 105.707031 449.910156 C 72.363281 433.425781 42.988281 408.5625 20.628906 374.023438 C 20.378906 373.640625 19.867188 373.527344 19.480469 373.777344 C 19.097656 374.027344 18.984375 374.539062 19.234375 374.925781 C 43.566406 412.515625 74.546875 436.488281 105.832031 451.652344 C 108.613281 488.203125 117.550781 526.269531 132.628906 565.140625 C 165.003906 648.601562 223.324219 729.019531 296.839844 791.574219 C 362.015625 846.832031 443.238281 889.941406 538.253906 919.710938 C 626.226562 947.273438 723.632812 962.777344 827.769531 965.792969 C 840.167969 966.15625 852.621094 966.335938 865.0625 966.335938 Z M 337.25 184.167969 C 340.46875 184.167969 343.640625 184.242188 346.777344 184.394531 C 414.683594 187.644531 466.386719 222.398438 485.089844 277.355469 C 504.578125 334.628906 462.101562 398.320312 376.882812 439.617188 C 293.304688 480.121094 188.996094 490.09375 107.683594 450.875 C 104.0625 403.503906 110.652344 356.714844 130.296875 313.152344 C 170.726562 223.511719 263.835938 184.167969 337.25 184.167969 Z M 337.25 184.167969 " fill-opacity="1" fill-rule="nonzero"/><path fill="#3a2a79" d="M 847.308594 949.140625 C 1040.871094 949.140625 1237.796875 906.203125 1391.472656 830.039062 C 1391.882812 829.832031 1392.050781 829.335938 1391.847656 828.925781 C 1391.644531 828.511719 1391.152344 828.347656 1390.734375 828.550781 C 1230.308594 908.0625 1022.609375 951.328125 820.960938 947.214844 C 599.847656 942.71875 408.613281 881.015625 282.480469 773.460938 C 185.648438 690.636719 107.382812 566.75 93.820312 444.726562 C 121.558594 460.308594 153.441406 470.265625 188.769531 474.195312 C 251.773438 481.207031 322.699219 467.976562 383.371094 437.90625 C 475.539062 392.230469 520.621094 321.527344 498.226562 257.785156 C 477.152344 197.804688 420.292969 159.558594 346.128906 155.472656 C 301.738281 153.035156 255.265625 163.382812 215.222656 184.625 C 171.5 207.820312 137.609375 242.511719 117.214844 284.953125 C 94.515625 332.195312 85.988281 385.214844 91.644531 441.578125 C 64.175781 425.539062 39.894531 403.304688 20.628906 374.054688 C 20.378906 373.667969 19.867188 373.5625 19.480469 373.816406 C 19.097656 374.066406 18.992188 374.582031 19.246094 374.964844 C 38.234375 403.800781 62.714844 426.84375 91.855469 443.609375 C 95.289062 475.902344 103.363281 509.285156 116.085938 543.296875 C 148.011719 628.660156 206.726562 710.851562 281.40625 774.722656 C 347.246094 830.867188 429.632812 874.40625 526.273438 904.144531 C 615.730469 931.667969 714.867188 946.714844 820.925781 948.875 C 829.703125 949.050781 838.515625 949.140625 847.308594 949.140625 Z M 333.441406 156.785156 C 337.691406 156.785156 341.890625 156.902344 346.035156 157.128906 C 419.507812 161.175781 475.816406 199.011719 496.660156 258.335938 C 518.757812 321.234375 474 391.136719 382.632812 436.421875 C 292.488281 481.097656 178.3125 490.984375 93.597656 442.703125 C 87.910156 388.703125 94.949219 335.125 118.710938 285.671875 C 161.96875 195.640625 255.429688 156.785156 333.441406 156.785156 Z M 333.441406 156.785156 " fill-opacity="1" fill-rule="nonzero"/><path fill="#3a2a79" d="M 829.777344 932.042969 C 1030.816406 932.042969 1235.578125 885.960938 1393.953125 804.785156 C 1394.359375 804.574219 1394.523438 804.078125 1394.3125 803.667969 C 1394.101562 803.261719 1393.605469 803.101562 1393.195312 803.308594 C 1230.941406 886.472656 1019.855469 932.796875 814.105469 930.289062 C 588.796875 927.589844 394.515625 865.910156 267.054688 756.613281 C 172.296875 675.164062 96.046875 555.171875 79.808594 435.507812 C 167.707031 493.707031 292.242188 483.921875 389.234375 434.878906 C 434.199219 412.140625 470.992188 381.492188 492.832031 348.578125 C 516.816406 312.433594 522.679688 274.453125 509.789062 238.75 C 486.570312 174.441406 425.144531 133.089844 345.46875 128.132812 C 261.457031 122.902344 154.789062 160.867188 105.640625 257.4375 C 77.75 312.246094 70.167969 372.085938 77.703125 432.085938 C 55.996094 417.179688 36.640625 397.996094 20.632812 374.082031 C 20.375 373.703125 19.859375 373.601562 19.480469 373.855469 C 19.101562 374.109375 19 374.625 19.253906 375.003906 C 35.683594 399.550781 55.621094 419.152344 77.984375 434.289062 C 93.878906 554.855469 170.566406 675.863281 265.972656 757.871094 C 332.480469 814.898438 416.027344 858.875 514.296875 888.574219 C 605.238281 916.0625 706.101562 930.65625 814.082031 931.949219 C 819.300781 932.011719 824.554688 932.042969 829.777344 932.042969 Z M 330.152344 129.320312 C 335.296875 129.320312 340.363281 129.480469 345.363281 129.789062 C 424.359375 134.707031 485.242188 175.648438 508.230469 239.3125 C 532.996094 307.910156 485.992188 384.09375 388.484375 433.398438 C 291.535156 482.421875 166.953125 492.066406 79.515625 433.316406 C 71.71875 373.148438 79.160156 313.128906 107.121094 258.191406 C 153 168.035156 249.453125 129.320312 330.152344 129.320312 Z M 330.152344 129.320312 " fill-opacity="1" fill-rule="nonzero"/><path fill="#3a2a79" d="M 812.449219 915.035156 C 1020.914062 915.035156 1233.476562 865.753906 1396.4375 779.53125 C 1396.839844 779.316406 1396.996094 778.8125 1396.78125 778.410156 C 1396.566406 778.007812 1396.070312 777.847656 1395.660156 778.066406 C 1231.578125 864.878906 1017.164062 914.234375 807.246094 913.367188 C 577.746094 912.460938 380.421875 850.808594 251.621094 739.765625 C 158.433594 659.273438 83.78125 542.355469 65.527344 424.675781 C 155.445312 494.933594 291.097656 485.605469 395.195312 432 C 442.792969 407.492188 481.640625 374.375 504.585938 338.753906 C 529.847656 299.542969 535.644531 258.382812 521.351562 219.714844 C 495.960938 151.007812 429.855469 106.503906 344.523438 100.664062 C 257.433594 94.71875 146.191406 132.359375 94.066406 229.925781 C 61.957031 289.589844 53.851562 355.234375 63.277344 420.757812 C 47.40625 407.847656 33.050781 392.375 20.632812 374.113281 C 20.378906 373.730469 19.859375 373.632812 19.480469 373.890625 C 19.105469 374.148438 19.007812 374.664062 19.265625 375.042969 C 32.132812 393.976562 47.09375 409.949219 63.632812 423.175781 C 81.488281 541.871094 156.617188 659.898438 250.539062 741.019531 C 379.636719 852.324219 577.34375 914.121094 807.238281 915.027344 C 808.972656 915.035156 810.714844 915.035156 812.449219 915.035156 Z M 326.570312 101.71875 C 332.613281 101.71875 338.558594 101.921875 344.410156 102.320312 C 429.070312 108.113281 494.636719 152.214844 519.796875 220.289062 C 533.902344 258.449219 528.160156 299.101562 503.191406 337.859375 C 480.402344 373.238281 441.777344 406.148438 394.433594 430.527344 C 290.320312 484.136719 154.515625 493.285156 65.164062 422.273438 C 55.390625 356.503906 63.308594 290.574219 95.53125 230.707031 C 143.804688 140.34375 243.179688 101.71875 326.570312 101.71875 Z M 326.570312 101.71875 " fill-opacity="1" fill-rule="nonzero"/><path fill="#3a2a79" d="M 795.375 898.113281 C 797.058594 898.113281 798.710938 898.109375 800.398438 898.101562 C 905.285156 897.703125 1015.371094 884.300781 1118.765625 859.347656 C 1221.402344 834.582031 1318.277344 798.246094 1398.917969 754.277344 C 1399.320312 754.058594 1399.46875 753.554688 1399.25 753.152344 C 1399.027344 752.75 1398.527344 752.605469 1398.125 752.820312 C 1232.226562 843.277344 1014.359375 895.625 800.390625 896.441406 C 798.722656 896.449219 797.042969 896.453125 795.375 896.453125 C 563.828125 896.453125 365.402344 834.90625 236.191406 722.917969 C 144.21875 643.105469 70.859375 528.414062 51.160156 412.097656 C 88.9375 447.261719 138.269531 468.175781 196.226562 473.214844 C 262.042969 478.941406 336.601562 463 400.761719 429.484375 C 451.050781 403.214844 492.03125 367.605469 516.160156 329.210938 C 542.777344 286.859375 548.574219 242.414062 532.917969 200.679688 C 505.21875 127.65625 434.464844 80.015625 343.652344 73.246094 C 293.339844 69.492188 240.636719 79.109375 195.230469 100.308594 C 146.085938 123.257812 107.101562 158.5625 82.496094 202.410156 C 48.410156 262.859375 37.152344 332.824219 48.992188 407.667969 C 38.726562 397.75 29.230469 386.597656 20.636719 374.140625 C 20.375 373.765625 19.863281 373.667969 19.480469 373.929688 C 19.105469 374.1875 19.011719 374.707031 19.273438 375.082031 C 28.257812 388.109375 38.34375 399.925781 49.449219 410.488281 C 53.101562 432.519531 58.742188 454.964844 66.386719 477.710938 C 97.003906 568.796875 156.921875 656.324219 235.101562 724.171875 C 364.605469 836.414062 563.449219 898.113281 795.375 898.113281 Z M 322.914062 74.144531 C 329.90625 74.144531 336.785156 74.398438 343.53125 74.902344 C 433.679688 81.625 503.902344 128.863281 531.367188 201.265625 C 546.832031 242.492188 541.085938 286.429688 514.757812 328.328125 C 490.78125 366.476562 450.023438 401.878906 399.992188 428.015625 C 288.492188 486.257812 140.84375 494.507812 50.695312 409.296875 C 39.257812 338.632812 47.722656 267.457031 83.941406 203.222656 C 134.757812 112.675781 236.949219 74.144531 322.914062 74.144531 Z M 322.914062 74.144531 " fill-opacity="1" fill-rule="nonzero"/><path fill="#3a2a79" d="M 778.582031 881.265625 C 783.570312 881.265625 788.539062 881.238281 793.554688 881.175781 C 900.296875 879.96875 1012.226562 865.386719 1117.242188 839.007812 C 1221.621094 812.789062 1319.878906 774.757812 1401.398438 729.027344 C 1401.796875 728.800781 1401.941406 728.296875 1401.71875 727.894531 C 1401.492188 727.496094 1400.984375 727.355469 1400.585938 727.578125 C 1232.878906 821.667969 1011.617188 877.046875 793.535156 879.519531 C 555.734375 882.183594 352.246094 820.617188 220.761719 706.066406 C 129.222656 626.265625 56.621094 512.527344 36.261719 396.589844 C 76.324219 441.453125 132.054688 467.738281 199.039062 473.03125 C 265.941406 478.320312 341.785156 461.445312 407.144531 426.738281 C 460 398.671875 502.964844 360.574219 528.132812 319.460938 C 555.957031 274.007812 561.609375 226.351562 544.488281 181.644531 C 514.75 104.417969 439.625 53.613281 343.523438 45.746094 C 291.1875 41.453125 236.269531 50.78125 188.921875 71.996094 C 137.804688 94.898438 97 130.484375 70.921875 174.898438 C 33.550781 238.398438 21.15625 312.351562 34.128906 391.597656 C 29.421875 386.097656 24.925781 380.292969 20.640625 374.171875 C 20.378906 373.789062 19.859375 373.703125 19.484375 373.964844 C 19.109375 374.230469 19.019531 374.746094 19.28125 375.121094 C 24.105469 382.019531 29.238281 388.570312 34.664062 394.78125 C 38.113281 414.84375 43.183594 435.234375 49.878906 455.875 C 79.605469 547.519531 141.492188 639.167969 219.671875 707.320312 C 348.683594 819.71875 546.753906 881.265625 778.582031 881.265625 Z M 317.808594 46.355469 C 326.304688 46.355469 334.832031 46.699219 343.386719 47.398438 C 438.839844 55.214844 513.4375 105.625 542.9375 182.242188 C 559.871094 226.445312 554.261719 273.59375 526.71875 318.59375 C 501.703125 359.457031 458.960938 397.34375 406.367188 425.273438 C 286.617188 488.859375 125.460938 496.023438 35.722656 393.4375 C 23.238281 318.84375 32.492188 243.464844 72.351562 175.738281 C 118.933594 96.410156 215.382812 46.355469 317.808594 46.355469 Z M 317.808594 46.355469 " fill-opacity="1" fill-rule="nonzero"/><g clip-path="url(#7fa5be59ef)"><path fill="#3a2a79" d="M 761.988281 864.484375 C 770.191406 864.484375 778.421875 864.410156 786.710938 864.257812 C 895.3125 862.234375 1009.082031 846.472656 1115.71875 818.667969 C 1221.839844 790.996094 1321.484375 751.265625 1403.878906 703.773438 C 1404.277344 703.542969 1404.414062 703.035156 1404.1875 702.636719 C 1403.957031 702.242188 1403.449219 702.101562 1403.054688 702.335938 C 1065.707031 896.789062 490.851562 939.230469 205.328125 689.222656 C 113.132812 608.492188 40.613281 493.933594 20.582031 376.964844 C 61.976562 434.214844 124.621094 467.375 201.894531 472.90625 C 209.265625 473.433594 216.757812 473.691406 224.320312 473.691406 C 286.488281 473.695312 354.246094 456.085938 413.59375 424.09375 C 468.996094 394.226562 513.941406 353.628906 540.136719 309.777344 C 569.160156 261.199219 574.660156 210.308594 556.050781 162.613281 C 524.285156 81.203125 444.808594 27.222656 343.453125 18.210938 C 289.050781 13.378906 231.941406 22.402344 182.636719 43.636719 C 129.535156 66.503906 86.902344 102.378906 59.347656 147.386719 C 9.25 229.207031 0.265625 328.332031 33.367188 434.042969 C 62.652344 527.5625 124.929688 621.027344 204.234375 690.46875 C 332.824219 803.066406 530.195312 864.484375 761.988281 864.484375 Z M 314.011719 18.5625 C 323.742188 18.5625 333.511719 18.992188 343.304688 19.863281 C 444.019531 28.816406 522.972656 82.40625 554.503906 163.214844 C 595.269531 267.679688 512.707031 368.78125 412.804688 422.632812 C 284.15625 491.984375 108.144531 497.613281 20.640625 374.199219 C 20.5 374 20.289062 373.882812 20.0625 373.855469 C 7.445312 296.5625 17.859375 218.328125 60.761719 148.25 C 109.566406 68.542969 208.835938 18.5625 314.011719 18.5625 Z M 314.011719 18.5625 " fill-opacity="1" fill-rule="nonzero"/></g></svg>