<svg xmlns="http://www.w3.org/2000/svg" xmlns:xlink="http://www.w3.org/1999/xlink" width="2000" zoomAndPan="magnify" viewBox="0 0 1500 1499.999933" height="2000" preserveAspectRatio="xMidYMid meet" version="1.0"><defs><clipPath id="d718a6067e"><path d="M 2 290.535156 L 312 290.535156 L 312 1209.464844 L 2 1209.464844 Z M 2 290.535156 " clip-rule="nonzero"/></clipPath><clipPath id="b0a865f233"><path d="M 397 290.535156 L 708 290.535156 L 708 1209.464844 L 397 1209.464844 Z M 397 290.535156 " clip-rule="nonzero"/></clipPath><clipPath id="8e2274abf8"><path d="M 792 290.535156 L 1103 290.535156 L 1103 1209.464844 L 792 1209.464844 Z M 792 290.535156 " clip-rule="nonzero"/></clipPath><clipPath id="542ba3d56d"><path d="M 1188 290.535156 L 1498 290.535156 L 1498 1209.464844 L 1188 1209.464844 Z M 1188 290.535156 " clip-rule="nonzero"/></clipPath></defs><g clip-path="url(#d718a6067e)"><path fill="#3a2a79" d="M 284.921875 339.683594 C 285.117188 339.285156 285.117188 339.089844 285.117188 338.691406 L 281.546875 290.675781 L 32.144531 290.675781 L 28.570312 338.691406 C 28.570312 339.089844 28.570312 339.285156 28.769531 339.683594 C 21.824219 342.261719 15.675781 346.429688 10.914062 352.183594 C 2.578125 362.5 0 376.191406 4.167969 389.882812 C 8.136719 402.976562 17.460938 413.097656 28.769531 416.667969 C 39.085938 419.84375 52.378906 420.4375 62.898438 417.261719 C 66.46875 419.246094 81.945312 428.375 75.199219 444.246094 C 67.0625 463.492188 61.507812 476.390625 76.390625 489.882812 L 65.871094 1062.101562 C 63.492188 1062.5 61.308594 1063.292969 59.921875 1064.878906 C 56.945312 1067.65625 56.546875 1072.023438 56.546875 1075.199219 C 49.007812 1077.378906 43.847656 1083.929688 43.453125 1092.65625 C 43.054688 1099.402344 45.832031 1107.140625 52.777344 1110.910156 C 50.398438 1113.492188 47.222656 1117.65625 47.421875 1122.417969 C 47.617188 1125.992188 49.601562 1129.363281 53.570312 1132.140625 C 51.390625 1134.523438 49.800781 1138.292969 51.390625 1143.054688 C 49.207031 1143.648438 46.429688 1144.640625 44.246094 1147.222656 C 41.46875 1150.394531 40.277344 1154.960938 40.675781 1160.714844 L 15.871094 1160.714844 C 14.683594 1160.714844 13.691406 1161.707031 13.691406 1162.894531 L 13.691406 1207.140625 C 13.691406 1208.332031 14.683594 1209.324219 15.871094 1209.324219 L 297.617188 1209.324219 C 298.808594 1209.324219 299.800781 1208.332031 299.800781 1207.140625 L 299.800781 1162.894531 C 299.800781 1161.707031 298.808594 1160.714844 297.617188 1160.714844 L 273.410156 1160.714844 C 273.808594 1154.960938 272.617188 1150.394531 269.839844 1147.222656 C 267.65625 1144.640625 264.878906 1143.648438 262.699219 1143.054688 C 264.285156 1138.292969 262.5 1134.523438 260.515625 1132.140625 C 264.285156 1129.363281 266.46875 1125.992188 266.667969 1122.417969 C 266.863281 1117.65625 263.691406 1113.492188 261.308594 1110.910156 C 268.253906 1107.140625 271.03125 1099.402344 270.632812 1092.65625 C 270.238281 1084.125 265.078125 1077.378906 257.539062 1075.199219 C 257.539062 1072.023438 256.945312 1067.65625 254.167969 1064.683594 C 252.578125 1063.09375 250.59375 1062.300781 248.214844 1061.902344 L 237.699219 489.683594 C 252.578125 475.992188 247.023438 463.292969 238.886719 444.046875 C 232.140625 428.175781 247.421875 418.851562 251.191406 417.0625 C 261.507812 420.238281 275 419.644531 285.316406 416.46875 C 296.429688 412.898438 305.953125 402.777344 309.921875 389.683594 C 314.085938 375.992188 311.507812 362.300781 303.175781 351.984375 C 298.015625 346.628906 291.863281 342.460938 284.921875 339.683594 Z M 36.308594 295.238281 L 277.183594 295.238281 L 277.777344 302.976562 L 35.714844 302.976562 Z M 35.316406 307.34375 L 278.175781 307.34375 L 278.769531 315.675781 L 34.722656 315.675781 Z M 34.324219 320.039062 L 278.96875 320.039062 L 279.761719 331.546875 C 279.5625 331.546875 279.363281 331.351562 278.96875 331.351562 L 34.125 331.351562 C 33.929688 331.351562 33.730469 331.351562 33.332031 331.546875 Z M 33.136719 335.714844 C 33.53125 335.914062 33.730469 335.914062 34.125 335.914062 L 279.167969 335.914062 C 279.5625 335.914062 279.960938 335.714844 280.15625 335.714844 L 280.355469 338.292969 C 261.902344 333.136719 238.292969 337.898438 219.246094 352.183594 L 94.046875 352.183594 C 74.800781 337.898438 51.390625 333.136719 32.9375 338.292969 Z M 156.152344 425.992188 C 156.347656 425.992188 156.546875 425.992188 156.746094 425.992188 C 156.945312 425.992188 157.140625 425.992188 157.339844 425.992188 C 171.429688 422.222656 178.175781 400.992188 180.160156 393.054688 C 184.125 395.636719 186.902344 398.214844 188.691406 399.800781 C 180.355469 422.421875 176.191406 445.039062 175 451.589844 L 138.492188 451.589844 C 137.300781 444.84375 133.132812 422.421875 124.800781 399.800781 C 126.585938 398.015625 129.363281 395.4375 133.332031 393.054688 C 135.316406 401.191406 142.0625 422.222656 156.152344 425.992188 Z M 137.300781 390.675781 C 142.660156 387.898438 149.207031 385.515625 156.746094 385.515625 C 164.285156 385.515625 170.832031 387.699219 176.191406 390.675781 C 174.800781 396.628906 168.847656 417.660156 156.746094 421.628906 C 144.640625 417.660156 138.691406 396.628906 137.300781 390.675781 Z M 179.960938 387.699219 C 173.808594 384.128906 165.871094 381.152344 156.746094 381.152344 C 147.617188 381.152344 139.683594 384.128906 133.53125 387.699219 C 128.96875 390.277344 125.398438 393.253906 123.015625 395.4375 C 117.0625 380.554688 109.324219 366.074219 99.40625 356.746094 L 213.886719 356.746094 C 203.96875 366.269531 196.230469 380.554688 190.277344 395.4375 C 188.09375 393.253906 184.523438 390.277344 179.960938 387.699219 Z M 62.300781 412.898438 C 62.101562 412.898438 62.101562 412.898438 62.300781 412.898438 C 52.777344 415.875 39.683594 415.476562 29.960938 412.5 C 20.238281 409.523438 11.90625 400.398438 8.332031 388.691406 C 4.5625 376.589844 6.746094 364.285156 14.285156 355.160156 C 18.453125 350.199219 23.808594 346.429688 29.960938 344.046875 C 15.078125 357.34375 10.515625 374.207031 17.855469 391.269531 C 23.214844 403.96875 33.332031 412.5 44.644531 414.285156 C 46.03125 414.484375 47.222656 414.683594 48.609375 414.683594 C 55.355469 414.683594 61.308594 411.90625 65.675781 406.945312 C 73.214844 398.214844 76.785156 386.90625 74.601562 377.976562 C 73.214844 372.421875 69.644531 368.253906 64.484375 366.269531 C 56.152344 363.097656 48.015625 363.492188 42.855469 367.660156 C 39.484375 370.238281 35.714844 375.398438 36.90625 385.121094 C 38.09375 395.636719 44.445312 399.40625 49.40625 399.40625 C 54.960938 399.40625 59.324219 395.238281 59.921875 390.082031 C 60.515625 384.523438 58.332031 382.144531 56.746094 380.953125 C 53.769531 379.167969 50.199219 380.359375 48.414062 381.351562 C 47.421875 381.945312 47.023438 383.335938 47.816406 384.523438 C 48.414062 385.515625 49.800781 385.914062 50.992188 385.121094 C 51.785156 384.523438 53.570312 384.128906 54.761719 384.722656 C 55.753906 385.320312 56.152344 386.90625 55.953125 389.484375 C 55.554688 392.859375 52.578125 394.84375 50 394.84375 C 46.625 394.84375 42.855469 392.066406 42.0625 384.523438 C 41.46875 378.375 42.855469 373.8125 46.230469 371.03125 C 50.199219 367.859375 56.746094 367.660156 63.691406 370.238281 C 67.460938 371.828125 70.039062 374.800781 71.230469 378.769531 C 73.015625 386.113281 69.839844 396.230469 63.292969 403.769531 C 59.125 408.53125 52.976562 410.714844 46.429688 409.722656 C 36.707031 408.136719 27.976562 400.597656 23.214844 389.285156 C 12.898438 365.082031 30.160156 349.007812 41.46875 341.46875 C 41.667969 341.269531 41.863281 341.074219 41.863281 341.074219 C 58.53125 338.691406 78.371094 344.046875 94.644531 356.945312 C 120.832031 377.777344 132.9375 438.492188 135.316406 451.589844 L 123.609375 451.589844 C 117.261719 411.90625 103.769531 383.730469 82.339844 365.875 C 81.546875 365.277344 80.355469 365.277344 79.5625 365.875 C 78.769531 366.46875 78.570312 367.660156 78.96875 368.652344 C 85.714844 380.753906 80.554688 400.199219 71.824219 408.136719 C 68.253906 410.320312 65.476562 411.90625 62.300781 412.898438 Z M 84.722656 375.597656 C 101.386719 392.660156 112.300781 417.859375 117.660156 451.785156 L 101.785156 451.785156 C 100.59375 422.621094 83.53125 412.300781 75.992188 409.128906 C 82.9375 400.792969 86.90625 387.300781 84.722656 375.597656 Z M 68.054688 415.277344 C 69.644531 414.484375 71.230469 413.492188 72.421875 412.5 C 76.984375 413.890625 96.03125 421.628906 97.222656 451.785156 L 76.585938 451.785156 C 77.378906 450 78.175781 448.214844 78.96875 446.230469 C 85.316406 431.546875 76.191406 420.636719 68.054688 415.277344 Z M 271.03125 1165.476562 L 295.4375 1165.476562 L 295.4375 1205.355469 L 18.054688 1205.355469 L 18.054688 1165.476562 Z M 266.46875 1150.394531 C 268.453125 1152.777344 269.445312 1156.347656 269.046875 1160.910156 L 44.445312 1160.910156 C 44.046875 1156.148438 44.839844 1152.777344 46.824219 1150.394531 C 49.601562 1147.222656 53.769531 1147.222656 53.96875 1147.222656 L 259.324219 1147.222656 C 259.722656 1147.222656 263.691406 1147.222656 266.46875 1150.394531 Z M 57.339844 1134.324219 L 256.148438 1134.324219 C 257.539062 1135.316406 260.316406 1138.09375 258.132812 1142.855469 L 55.355469 1142.855469 C 53.371094 1138.09375 56.152344 1135.316406 57.339844 1134.324219 Z M 262.101562 1122.417969 C 261.902344 1125 259.921875 1127.578125 256.148438 1129.960938 L 57.339844 1129.960938 C 53.570312 1127.578125 51.585938 1125.199219 51.390625 1122.417969 C 51.191406 1118.453125 55.160156 1114.484375 57.144531 1112.699219 L 256.148438 1112.699219 C 257.738281 1113.886719 262.300781 1118.054688 262.101562 1122.417969 Z M 254.960938 1079.363281 C 262.699219 1080.753906 265.871094 1087.300781 266.070312 1093.054688 C 266.46875 1099.007812 263.691406 1105.953125 256.746094 1108.132812 L 56.746094 1108.132812 C 49.800781 1105.953125 47.023438 1099.007812 47.421875 1093.054688 C 47.816406 1087.5 50.792969 1080.953125 58.53125 1079.363281 Z M 245.632812 1066.667969 C 247.816406 1066.667969 249.601562 1067.261719 250.792969 1068.253906 C 252.378906 1069.839844 252.777344 1072.617188 252.976562 1075 L 60.714844 1075 C 60.714844 1072.617188 61.109375 1069.839844 62.898438 1068.253906 C 63.890625 1067.261719 65.675781 1066.667969 67.855469 1066.667969 C 67.855469 1066.667969 68.054688 1066.667969 68.054688 1066.667969 Z M 243.453125 1062.101562 L 70.039062 1062.101562 L 80.554688 491.46875 L 232.9375 491.46875 Z M 234.324219 486.90625 L 79.363281 486.90625 C 76.191406 483.929688 74.007812 481.152344 72.816406 478.175781 L 241.070312 478.175781 C 239.683594 481.152344 237.5 483.929688 234.324219 486.90625 Z M 242.0625 473.613281 L 71.429688 473.613281 C 71.230469 471.429688 71.230469 469.046875 71.824219 466.46875 L 241.667969 466.46875 C 242.0625 469.046875 242.261719 471.429688 242.0625 473.613281 Z M 238.492188 456.152344 C 239.285156 458.136719 239.878906 460.121094 240.476562 461.90625 L 72.816406 461.90625 C 73.414062 460.121094 74.007812 458.136719 74.800781 456.152344 Z M 237.5 409.128906 C 229.960938 412.300781 212.894531 422.621094 211.707031 451.785156 L 195.832031 451.785156 C 201.191406 417.859375 212.101562 392.660156 228.769531 375.597656 C 226.585938 387.300781 230.554688 400.792969 237.5 409.128906 Z M 234.523438 446.230469 C 235.316406 448.214844 236.109375 450 236.902344 451.785156 L 216.269531 451.785156 C 217.460938 421.628906 236.507812 413.890625 241.070312 412.5 C 242.460938 413.492188 243.847656 414.484375 245.4375 415.277344 C 237.300781 420.636719 228.175781 431.546875 234.523438 446.230469 Z M 305.15625 388.691406 C 301.585938 400.398438 293.453125 409.523438 283.53125 412.5 C 273.808594 415.476562 260.910156 416.074219 251.386719 412.898438 C 248.214844 411.90625 245.238281 410.320312 243.054688 408.335938 C 234.324219 400.199219 229.167969 380.753906 235.910156 368.851562 C 236.507812 367.859375 236.308594 366.667969 235.316406 366.074219 C 234.523438 365.476562 233.332031 365.476562 232.539062 366.074219 C 211.109375 383.929688 197.617188 412.105469 191.269531 451.785156 L 179.5625 451.785156 C 181.945312 438.691406 193.847656 377.976562 220.238281 357.144531 C 236.507812 344.246094 256.347656 338.890625 273.015625 341.269531 C 273.214844 341.46875 273.214844 341.667969 273.410156 341.667969 C 284.722656 349.207031 301.984375 365.277344 291.667969 389.484375 C 286.902344 400.792969 278.175781 408.335938 268.453125 409.921875 C 261.902344 410.914062 255.554688 408.730469 251.585938 403.96875 C 245.039062 396.429688 241.863281 386.308594 243.648438 378.96875 C 244.640625 374.800781 247.222656 371.828125 251.191406 370.4375 C 257.9375 367.859375 264.484375 368.054688 268.648438 371.230469 C 272.023438 373.808594 273.609375 378.574219 272.816406 384.722656 C 272.023438 392.261719 268.253906 395.039062 264.878906 395.039062 C 262.101562 395.039062 259.125 393.054688 258.929688 389.683594 C 258.730469 387.105469 259.125 385.515625 260.117188 384.921875 C 261.109375 384.328125 262.894531 384.722656 263.886719 385.320312 C 264.878906 385.914062 266.269531 385.714844 267.0625 384.722656 C 267.65625 383.730469 267.460938 382.34375 266.46875 381.546875 C 264.683594 380.359375 260.914062 379.367188 258.132812 381.152344 C 256.347656 382.144531 254.363281 384.722656 254.761719 390.277344 C 255.15625 395.636719 259.722656 399.605469 265.277344 399.605469 C 265.277344 399.605469 265.277344 399.605469 265.476562 399.605469 C 270.4375 399.605469 276.585938 395.835938 277.777344 385.320312 C 278.96875 375.398438 275.199219 370.4375 271.824219 367.859375 C 266.46875 363.691406 258.332031 363.292969 250.199219 366.46875 C 245.039062 368.453125 241.46875 372.621094 240.078125 378.175781 C 237.894531 386.90625 241.269531 398.414062 249.007812 407.144531 C 253.371094 412.105469 259.324219 414.882812 266.070312 414.882812 C 267.460938 414.882812 268.648438 414.683594 270.039062 414.484375 C 281.347656 412.699219 291.269531 404.167969 296.824219 391.46875 C 304.164062 374.40625 299.800781 357.539062 284.722656 344.246094 C 290.871094 346.628906 296.230469 350.398438 300.394531 355.359375 C 306.746094 364.285156 308.730469 376.390625 305.15625 388.691406 Z M 305.15625 388.691406 " fill-opacity="1" fill-rule="nonzero"/></g><path fill="#3a2a79" d="M 101.390625 500.597656 C 95.632812 500.597656 90.675781 505.359375 90.675781 511.113281 L 83.929688 1044.445312 C 83.929688 1047.222656 84.921875 1050 86.90625 1051.984375 C 88.890625 1053.96875 91.46875 1055.15625 94.445312 1055.15625 C 100.199219 1055.15625 105.160156 1050.394531 105.160156 1044.640625 L 111.90625 511.308594 C 111.90625 508.53125 110.914062 505.753906 108.929688 503.769531 C 106.945312 501.785156 104.167969 500.597656 101.390625 500.597656 Z M 100.792969 1044.445312 C 100.792969 1047.816406 98.015625 1050.59375 94.445312 1050.59375 C 92.855469 1050.59375 91.269531 1050 90.078125 1048.808594 C 88.890625 1047.617188 88.292969 1046.03125 88.292969 1044.445312 L 95.039062 511.113281 C 95.039062 507.738281 97.816406 504.960938 101.390625 504.960938 C 102.976562 504.960938 104.5625 505.554688 105.753906 506.746094 C 106.945312 507.9375 107.539062 509.523438 107.539062 511.113281 Z M 100.792969 1044.445312 " fill-opacity="1" fill-rule="nonzero"/><path fill="#3a2a79" d="M 212.101562 500.597656 C 209.324219 500.597656 206.546875 501.785156 204.5625 503.769531 C 202.578125 505.753906 201.585938 508.53125 201.585938 511.308594 L 208.332031 1044.640625 C 208.332031 1050.59375 213.292969 1055.15625 219.046875 1055.15625 C 221.824219 1055.15625 224.601562 1053.96875 226.585938 1051.984375 C 228.570312 1050 229.5625 1047.222656 229.5625 1044.445312 L 222.816406 511.113281 C 222.816406 505.359375 217.855469 500.597656 212.101562 500.597656 Z M 223.414062 1049.007812 C 222.222656 1050.199219 220.832031 1050.792969 219.046875 1050.792969 C 215.675781 1050.792969 212.894531 1048.015625 212.699219 1044.640625 L 205.953125 511.308594 C 205.953125 509.722656 206.546875 508.136719 207.738281 506.945312 C 208.929688 505.753906 210.316406 505.160156 212.101562 505.160156 C 215.476562 505.160156 218.253906 507.9375 218.453125 511.308594 L 225.199219 1044.640625 C 225.199219 1046.230469 224.601562 1047.816406 223.414062 1049.007812 Z M 223.414062 1049.007812 " fill-opacity="1" fill-rule="nonzero"/><path fill="#3a2a79" d="M 135.714844 500.597656 C 129.761719 500.597656 125 505.359375 125 511.308594 L 124.007812 1044.640625 C 124.007812 1047.421875 125.199219 1050.199219 127.183594 1052.183594 C 129.167969 1054.164062 131.945312 1055.355469 134.722656 1055.355469 C 140.675781 1055.355469 145.4375 1050.59375 145.4375 1044.640625 L 146.429688 511.308594 C 146.429688 508.53125 145.238281 505.753906 143.253906 503.769531 C 141.269531 501.785156 138.492188 500.597656 135.714844 500.597656 Z M 140.871094 1044.640625 C 140.871094 1048.015625 138.09375 1050.792969 134.722656 1050.792969 C 133.132812 1050.792969 131.546875 1050.199219 130.355469 1049.007812 C 129.167969 1047.816406 128.570312 1046.230469 128.570312 1044.640625 L 129.5625 511.308594 C 129.5625 507.9375 132.339844 505.160156 135.714844 505.160156 C 137.300781 505.160156 138.886719 505.753906 140.078125 506.945312 C 141.269531 508.136719 141.863281 509.722656 141.863281 511.308594 Z M 140.871094 1044.640625 " fill-opacity="1" fill-rule="nonzero"/><path fill="#3a2a79" d="M 177.777344 500.597656 C 175 500.597656 172.222656 501.785156 170.238281 503.769531 C 168.253906 505.753906 167.0625 508.53125 167.0625 511.308594 L 168.054688 1044.640625 C 168.054688 1050.59375 172.816406 1055.355469 178.769531 1055.355469 C 181.546875 1055.355469 184.324219 1054.164062 186.308594 1052.183594 C 188.292969 1050.199219 189.484375 1047.421875 189.484375 1044.640625 L 188.492188 511.308594 C 188.492188 505.359375 183.730469 500.597656 177.777344 500.597656 Z M 183.132812 1049.007812 C 181.945312 1050.199219 180.355469 1050.792969 178.769531 1050.792969 C 175.394531 1050.792969 172.617188 1048.015625 172.617188 1044.640625 L 171.625 511.308594 C 171.625 509.722656 172.222656 508.136719 173.414062 506.945312 C 174.601562 505.753906 176.191406 505.160156 177.777344 505.160156 C 181.148438 505.160156 183.929688 507.9375 183.929688 511.308594 L 184.921875 1044.640625 C 184.921875 1046.230469 184.324219 1047.816406 183.132812 1049.007812 Z M 183.132812 1049.007812 " fill-opacity="1" fill-rule="nonzero"/><g clip-path="url(#b0a865f233)"><path fill="#3a2a79" d="M 680.21875 339.683594 C 680.417969 339.285156 680.417969 339.089844 680.417969 338.691406 L 676.84375 290.675781 L 427.441406 290.675781 L 423.871094 338.691406 C 423.871094 339.089844 423.871094 339.285156 424.066406 339.683594 C 417.125 342.261719 410.972656 346.429688 406.210938 352.183594 C 397.878906 362.5 395.296875 376.191406 399.464844 389.882812 C 403.433594 402.976562 412.757812 413.097656 424.066406 416.667969 C 434.386719 419.84375 447.679688 420.4375 458.195312 417.261719 C 461.765625 419.246094 477.242188 428.375 470.496094 444.246094 C 462.359375 463.492188 456.804688 476.390625 471.6875 489.882812 L 461.171875 1062.101562 C 458.789062 1062.5 456.605469 1063.292969 455.21875 1064.878906 C 452.242188 1067.65625 451.84375 1072.023438 451.84375 1075.199219 C 444.304688 1077.378906 439.148438 1083.929688 438.75 1092.65625 C 438.351562 1099.402344 441.132812 1107.140625 448.074219 1110.910156 C 445.695312 1113.492188 442.519531 1117.65625 442.71875 1122.417969 C 442.917969 1125.992188 444.902344 1129.363281 448.871094 1132.140625 C 446.6875 1134.523438 445.097656 1138.292969 446.6875 1143.054688 C 444.503906 1143.648438 441.726562 1144.640625 439.542969 1147.222656 C 436.765625 1150.394531 435.574219 1154.960938 435.972656 1160.714844 L 411.171875 1160.714844 C 409.980469 1160.714844 408.988281 1161.707031 408.988281 1162.894531 L 408.988281 1207.140625 C 408.988281 1208.332031 409.980469 1209.324219 411.171875 1209.324219 L 692.917969 1209.324219 C 694.105469 1209.324219 695.097656 1208.332031 695.097656 1207.140625 L 695.097656 1162.894531 C 695.097656 1161.707031 694.105469 1160.714844 692.917969 1160.714844 L 668.710938 1160.714844 C 669.105469 1154.960938 667.917969 1150.394531 665.136719 1147.222656 C 662.957031 1144.640625 660.179688 1143.648438 657.996094 1143.054688 C 659.582031 1138.292969 657.796875 1134.523438 655.8125 1132.140625 C 659.582031 1129.363281 661.765625 1125.992188 661.964844 1122.417969 C 662.164062 1117.65625 658.988281 1113.492188 656.605469 1110.910156 C 663.550781 1107.140625 666.328125 1099.402344 665.933594 1092.65625 C 665.535156 1084.125 660.375 1077.378906 652.835938 1075.199219 C 652.835938 1072.023438 652.242188 1067.65625 649.464844 1064.683594 C 647.875 1063.09375 645.890625 1062.300781 643.511719 1061.902344 L 632.996094 489.683594 C 647.875 475.992188 642.320312 463.292969 634.1875 444.046875 C 627.441406 428.175781 642.71875 418.851562 646.488281 417.0625 C 656.804688 420.238281 670.296875 419.644531 680.613281 416.46875 C 691.726562 412.898438 701.25 402.777344 705.21875 389.683594 C 709.382812 375.992188 706.804688 362.300781 698.472656 351.984375 C 693.3125 346.628906 687.164062 342.460938 680.21875 339.683594 Z M 431.605469 295.238281 L 672.480469 295.238281 L 673.074219 302.976562 L 431.011719 302.976562 Z M 430.617188 307.34375 L 673.472656 307.34375 L 674.066406 315.675781 L 430.019531 315.675781 Z M 429.625 320.039062 L 674.265625 320.039062 L 675.058594 331.546875 C 674.859375 331.546875 674.664062 331.351562 674.265625 331.351562 L 429.425781 331.351562 C 429.226562 331.351562 429.027344 331.351562 428.632812 331.546875 Z M 428.433594 335.714844 C 428.828125 335.914062 429.027344 335.914062 429.425781 335.914062 L 674.464844 335.914062 C 674.859375 335.914062 675.257812 335.714844 675.457031 335.714844 L 675.65625 338.292969 C 657.203125 333.136719 633.589844 337.898438 614.542969 352.183594 L 489.34375 352.183594 C 470.097656 337.898438 446.6875 333.136719 428.234375 338.292969 Z M 551.449219 425.992188 C 551.648438 425.992188 551.84375 425.992188 552.042969 425.992188 C 552.242188 425.992188 552.441406 425.992188 552.640625 425.992188 C 566.726562 422.222656 573.472656 400.992188 575.457031 393.054688 C 579.425781 395.636719 582.203125 398.214844 583.988281 399.800781 C 575.65625 422.421875 571.488281 445.039062 570.296875 451.589844 L 533.789062 451.589844 C 532.597656 444.84375 528.433594 422.421875 520.097656 399.800781 C 521.886719 398.015625 524.664062 395.4375 528.632812 393.054688 C 530.613281 401.191406 537.359375 422.222656 551.449219 425.992188 Z M 532.597656 390.675781 C 537.957031 387.898438 544.503906 385.515625 552.042969 385.515625 C 559.582031 385.515625 566.128906 387.699219 571.488281 390.675781 C 570.097656 396.628906 564.148438 417.660156 552.042969 421.628906 C 539.941406 417.660156 533.988281 396.628906 532.597656 390.675781 Z M 575.257812 387.699219 C 569.105469 384.128906 561.171875 381.152344 552.042969 381.152344 C 542.917969 381.152344 534.980469 384.128906 528.828125 387.699219 C 524.265625 390.277344 520.695312 393.253906 518.3125 395.4375 C 512.359375 380.554688 504.625 366.074219 494.703125 356.746094 L 609.1875 356.746094 C 599.265625 366.269531 591.527344 380.554688 585.574219 395.4375 C 583.394531 393.253906 579.820312 390.277344 575.257812 387.699219 Z M 457.597656 412.898438 C 457.402344 412.898438 457.402344 412.898438 457.597656 412.898438 C 448.074219 415.875 434.980469 415.476562 425.257812 412.5 C 415.535156 409.523438 407.203125 400.398438 403.632812 388.691406 C 399.863281 376.589844 402.042969 364.285156 409.582031 355.160156 C 413.75 350.199219 419.105469 346.429688 425.257812 344.046875 C 410.378906 357.34375 405.8125 374.207031 413.15625 391.269531 C 418.511719 403.96875 428.632812 412.5 439.941406 414.285156 C 441.328125 414.484375 442.519531 414.683594 443.910156 414.683594 C 450.65625 414.683594 456.605469 411.90625 460.972656 406.945312 C 468.511719 398.214844 472.082031 386.90625 469.902344 377.976562 C 468.511719 372.421875 464.941406 368.253906 459.78125 366.269531 C 451.449219 363.097656 443.3125 363.492188 438.15625 367.660156 C 434.78125 370.238281 431.011719 375.398438 432.203125 385.121094 C 433.394531 395.636719 439.742188 399.40625 444.703125 399.40625 C 450.257812 399.40625 454.625 395.238281 455.21875 390.082031 C 455.8125 384.523438 453.632812 382.144531 452.042969 380.953125 C 449.066406 379.167969 445.496094 380.359375 443.710938 381.351562 C 442.71875 381.945312 442.320312 383.335938 443.117188 384.523438 C 443.710938 385.515625 445.097656 385.914062 446.289062 385.121094 C 447.082031 384.523438 448.871094 384.128906 450.058594 384.722656 C 451.050781 385.320312 451.449219 386.90625 451.25 389.484375 C 450.851562 392.859375 447.878906 394.84375 445.296875 394.84375 C 441.925781 394.84375 438.15625 392.066406 437.359375 384.523438 C 436.765625 378.375 438.15625 373.8125 441.527344 371.03125 C 445.496094 367.859375 452.042969 367.660156 458.988281 370.238281 C 462.757812 371.828125 465.335938 374.800781 466.527344 378.769531 C 468.3125 386.113281 465.140625 396.230469 458.589844 403.769531 C 454.425781 408.53125 448.273438 410.714844 441.726562 409.722656 C 432.003906 408.136719 423.273438 400.597656 418.511719 389.285156 C 408.195312 365.082031 425.457031 349.007812 436.765625 341.46875 C 436.964844 341.269531 437.164062 341.074219 437.164062 341.074219 C 453.828125 338.691406 473.671875 344.046875 489.941406 356.945312 C 516.132812 377.777344 528.234375 438.492188 530.613281 451.589844 L 518.910156 451.589844 C 512.558594 411.90625 499.066406 383.730469 477.640625 365.875 C 476.84375 365.277344 475.65625 365.277344 474.859375 365.875 C 474.066406 366.46875 473.871094 367.660156 474.265625 368.652344 C 481.011719 380.753906 475.851562 400.199219 467.125 408.136719 C 463.550781 410.320312 460.773438 411.90625 457.597656 412.898438 Z M 480.019531 375.597656 C 496.6875 392.660156 507.597656 417.859375 512.957031 451.785156 L 497.082031 451.785156 C 495.894531 422.621094 478.828125 412.300781 471.289062 409.128906 C 478.234375 400.792969 482.203125 387.300781 480.019531 375.597656 Z M 463.351562 415.277344 C 464.941406 414.484375 466.527344 413.492188 467.71875 412.5 C 472.28125 413.890625 491.328125 421.628906 492.519531 451.785156 L 471.886719 451.785156 C 472.679688 450 473.472656 448.214844 474.265625 446.230469 C 480.613281 431.546875 471.488281 420.636719 463.351562 415.277344 Z M 666.328125 1165.476562 L 690.734375 1165.476562 L 690.734375 1205.355469 L 413.351562 1205.355469 L 413.351562 1165.476562 Z M 661.765625 1150.394531 C 663.75 1152.777344 664.742188 1156.347656 664.34375 1160.910156 L 439.742188 1160.910156 C 439.34375 1156.148438 440.140625 1152.777344 442.125 1150.394531 C 444.902344 1147.222656 449.066406 1147.222656 449.265625 1147.222656 L 654.621094 1147.222656 C 655.019531 1147.222656 658.988281 1147.222656 661.765625 1150.394531 Z M 452.640625 1134.324219 L 651.449219 1134.324219 C 652.835938 1135.316406 655.613281 1138.09375 653.433594 1142.855469 L 450.65625 1142.855469 C 448.671875 1138.09375 451.449219 1135.316406 452.640625 1134.324219 Z M 657.402344 1122.417969 C 657.203125 1125 655.21875 1127.578125 651.449219 1129.960938 L 452.640625 1129.960938 C 448.871094 1127.578125 446.886719 1125.199219 446.6875 1122.417969 C 446.488281 1118.453125 450.457031 1114.484375 452.441406 1112.699219 L 651.449219 1112.699219 C 653.035156 1113.886719 657.597656 1118.054688 657.402344 1122.417969 Z M 650.257812 1079.363281 C 657.996094 1080.753906 661.171875 1087.300781 661.367188 1093.054688 C 661.765625 1099.007812 658.988281 1105.953125 652.042969 1108.132812 L 452.042969 1108.132812 C 445.097656 1105.953125 442.320312 1099.007812 442.71875 1093.054688 C 443.117188 1087.5 446.089844 1080.953125 453.828125 1079.363281 Z M 640.933594 1066.667969 C 643.113281 1066.667969 644.902344 1067.261719 646.089844 1068.253906 C 647.679688 1069.839844 648.074219 1072.617188 648.273438 1075 L 456.011719 1075 C 456.011719 1072.617188 456.410156 1069.839844 458.195312 1068.253906 C 459.1875 1067.261719 460.972656 1066.667969 463.15625 1066.667969 C 463.15625 1066.667969 463.351562 1066.667969 463.351562 1066.667969 Z M 638.75 1062.101562 L 465.335938 1062.101562 L 475.851562 491.46875 L 628.234375 491.46875 Z M 629.621094 486.90625 L 474.664062 486.90625 C 471.488281 483.929688 469.304688 481.152344 468.113281 478.175781 L 636.367188 478.175781 C 634.980469 481.152344 632.796875 483.929688 629.621094 486.90625 Z M 637.359375 473.613281 L 466.726562 473.613281 C 466.527344 471.429688 466.527344 469.046875 467.125 466.46875 L 636.964844 466.46875 C 637.359375 469.046875 637.558594 471.429688 637.359375 473.613281 Z M 633.789062 456.152344 C 634.582031 458.136719 635.179688 460.121094 635.773438 461.90625 L 468.113281 461.90625 C 468.710938 460.121094 469.304688 458.136719 470.097656 456.152344 Z M 632.796875 409.128906 C 625.257812 412.300781 608.195312 422.621094 607.003906 451.785156 L 591.128906 451.785156 C 596.488281 417.859375 607.402344 392.660156 624.066406 375.597656 C 621.882812 387.300781 625.851562 400.792969 632.796875 409.128906 Z M 629.820312 446.230469 C 630.613281 448.214844 631.410156 450 632.203125 451.785156 L 611.566406 451.785156 C 612.757812 421.628906 631.804688 413.890625 636.367188 412.5 C 637.757812 413.492188 639.148438 414.484375 640.734375 415.277344 C 632.597656 420.636719 623.472656 431.546875 629.820312 446.230469 Z M 700.457031 388.691406 C 696.882812 400.398438 688.75 409.523438 678.828125 412.5 C 669.105469 415.476562 656.210938 416.074219 646.6875 412.898438 C 643.511719 411.90625 640.535156 410.320312 638.351562 408.335938 C 629.621094 400.199219 624.464844 380.753906 631.210938 368.851562 C 631.804688 367.859375 631.605469 366.667969 630.613281 366.074219 C 629.820312 365.476562 628.628906 365.476562 627.835938 366.074219 C 606.410156 383.929688 592.917969 412.105469 586.566406 451.785156 L 574.859375 451.785156 C 577.242188 438.691406 589.148438 377.976562 615.535156 357.144531 C 631.804688 344.246094 651.648438 338.890625 668.3125 341.269531 C 668.511719 341.46875 668.511719 341.667969 668.710938 341.667969 C 680.019531 349.207031 697.28125 365.277344 686.964844 389.484375 C 682.203125 400.792969 673.472656 408.335938 663.75 409.921875 C 657.203125 410.914062 650.851562 408.730469 646.882812 403.96875 C 640.335938 396.429688 637.164062 386.308594 638.949219 378.96875 C 639.941406 374.800781 642.519531 371.828125 646.488281 370.4375 C 653.234375 367.859375 659.78125 368.054688 663.949219 371.230469 C 667.320312 373.808594 668.910156 378.574219 668.113281 384.722656 C 667.320312 392.261719 663.550781 395.039062 660.179688 395.039062 C 657.402344 395.039062 654.425781 393.054688 654.226562 389.683594 C 654.027344 387.105469 654.425781 385.515625 655.417969 384.921875 C 656.410156 384.328125 658.195312 384.722656 659.1875 385.320312 C 660.179688 385.914062 661.566406 385.714844 662.359375 384.722656 C 662.957031 383.730469 662.757812 382.34375 661.765625 381.546875 C 659.980469 380.359375 656.210938 379.367188 653.433594 381.152344 C 651.648438 382.144531 649.664062 384.722656 650.058594 390.277344 C 650.457031 395.636719 655.019531 399.605469 660.574219 399.605469 C 660.574219 399.605469 660.574219 399.605469 660.773438 399.605469 C 665.734375 399.605469 671.882812 395.835938 673.074219 385.320312 C 674.265625 375.398438 670.496094 370.4375 667.121094 367.859375 C 661.765625 363.691406 653.628906 363.292969 645.496094 366.46875 C 640.335938 368.453125 636.765625 372.621094 635.375 378.175781 C 633.195312 386.90625 636.566406 398.414062 644.304688 407.144531 C 648.671875 412.105469 654.621094 414.882812 661.367188 414.882812 C 662.757812 414.882812 663.949219 414.683594 665.335938 414.484375 C 676.648438 412.699219 686.566406 404.167969 692.121094 391.46875 C 699.464844 374.40625 695.097656 357.539062 680.019531 344.246094 C 686.171875 346.628906 691.527344 350.398438 695.695312 355.359375 C 702.042969 364.285156 704.027344 376.390625 700.457031 388.691406 Z M 700.457031 388.691406 " fill-opacity="1" fill-rule="nonzero"/></g><path fill="#3a2a79" d="M 496.6875 500.597656 C 490.933594 500.597656 485.972656 505.359375 485.972656 511.113281 L 479.226562 1044.445312 C 479.226562 1047.222656 480.21875 1050 482.203125 1051.984375 C 484.1875 1053.96875 486.765625 1055.15625 489.742188 1055.15625 C 495.496094 1055.15625 500.457031 1050.394531 500.457031 1044.640625 L 507.203125 511.308594 C 507.203125 508.53125 506.210938 505.753906 504.226562 503.769531 C 502.242188 501.785156 499.464844 500.597656 496.6875 500.597656 Z M 496.089844 1044.445312 C 496.089844 1047.816406 493.3125 1050.59375 489.742188 1050.59375 C 488.15625 1050.59375 486.566406 1050 485.378906 1048.808594 C 484.1875 1047.617188 483.589844 1046.03125 483.589844 1044.445312 L 490.335938 511.113281 C 490.335938 507.738281 493.113281 504.960938 496.6875 504.960938 C 498.273438 504.960938 499.859375 505.554688 501.050781 506.746094 C 502.242188 507.9375 502.835938 509.523438 502.835938 511.113281 Z M 496.089844 1044.445312 " fill-opacity="1" fill-rule="nonzero"/><path fill="#3a2a79" d="M 607.402344 500.597656 C 604.621094 500.597656 601.84375 501.785156 599.859375 503.769531 C 597.875 505.753906 596.882812 508.53125 596.882812 511.308594 L 603.628906 1044.640625 C 603.628906 1050.59375 608.589844 1055.15625 614.34375 1055.15625 C 617.121094 1055.15625 619.902344 1053.96875 621.882812 1051.984375 C 623.867188 1050 624.859375 1047.222656 624.859375 1044.445312 L 618.113281 511.113281 C 618.113281 505.359375 613.15625 500.597656 607.402344 500.597656 Z M 618.710938 1049.007812 C 617.519531 1050.199219 616.128906 1050.792969 614.34375 1050.792969 C 610.972656 1050.792969 608.195312 1048.015625 607.996094 1044.640625 L 601.25 511.308594 C 601.25 509.722656 601.84375 508.136719 603.035156 506.945312 C 604.226562 505.753906 605.613281 505.160156 607.402344 505.160156 C 610.773438 505.160156 613.550781 507.9375 613.75 511.308594 L 620.496094 1044.640625 C 620.496094 1046.230469 619.902344 1047.816406 618.710938 1049.007812 Z M 618.710938 1049.007812 " fill-opacity="1" fill-rule="nonzero"/><path fill="#3a2a79" d="M 531.011719 500.597656 C 525.058594 500.597656 520.296875 505.359375 520.296875 511.308594 L 519.304688 1044.640625 C 519.304688 1047.421875 520.496094 1050.199219 522.480469 1052.183594 C 524.464844 1054.164062 527.242188 1055.355469 530.019531 1055.355469 C 535.972656 1055.355469 540.734375 1050.59375 540.734375 1044.640625 L 541.726562 511.308594 C 541.726562 508.53125 540.535156 505.753906 538.550781 503.769531 C 536.566406 501.785156 533.789062 500.597656 531.011719 500.597656 Z M 536.171875 1044.640625 C 536.171875 1048.015625 533.394531 1050.792969 530.019531 1050.792969 C 528.433594 1050.792969 526.84375 1050.199219 525.65625 1049.007812 C 524.464844 1047.816406 523.867188 1046.230469 523.867188 1044.640625 L 524.859375 511.308594 C 524.859375 507.9375 527.640625 505.160156 531.011719 505.160156 C 532.597656 505.160156 534.1875 505.753906 535.378906 506.945312 C 536.566406 508.136719 537.164062 509.722656 537.164062 511.308594 Z M 536.171875 1044.640625 " fill-opacity="1" fill-rule="nonzero"/><path fill="#3a2a79" d="M 573.074219 500.597656 C 570.296875 500.597656 567.519531 501.785156 565.535156 503.769531 C 563.550781 505.753906 562.359375 508.53125 562.359375 511.308594 L 563.351562 1044.640625 C 563.351562 1050.59375 568.113281 1055.355469 574.066406 1055.355469 C 576.84375 1055.355469 579.621094 1054.164062 581.605469 1052.183594 C 583.589844 1050.199219 584.78125 1047.421875 584.78125 1044.640625 L 583.789062 511.308594 C 583.789062 505.359375 579.027344 500.597656 573.074219 500.597656 Z M 578.433594 1049.007812 C 577.242188 1050.199219 575.65625 1050.792969 574.066406 1050.792969 C 570.695312 1050.792969 567.917969 1048.015625 567.917969 1044.640625 L 566.925781 511.308594 C 566.925781 509.722656 567.519531 508.136719 568.710938 506.945312 C 569.902344 505.753906 571.488281 505.160156 573.074219 505.160156 C 576.449219 505.160156 579.226562 507.9375 579.226562 511.308594 L 580.21875 1044.640625 C 580.21875 1046.230469 579.621094 1047.816406 578.433594 1049.007812 Z M 578.433594 1049.007812 " fill-opacity="1" fill-rule="nonzero"/><g clip-path="url(#8e2274abf8)"><path fill="#3a2a79" d="M 1075.515625 339.683594 C 1075.714844 339.285156 1075.714844 339.089844 1075.714844 338.691406 L 1072.144531 290.675781 L 822.738281 290.675781 L 819.167969 338.691406 C 819.167969 339.089844 819.167969 339.285156 819.367188 339.683594 C 812.421875 342.261719 806.269531 346.429688 801.507812 352.183594 C 793.175781 362.5 790.597656 376.191406 794.761719 389.882812 C 798.730469 402.976562 808.054688 413.097656 819.367188 416.667969 C 829.683594 419.84375 842.976562 420.4375 853.492188 417.261719 C 857.0625 419.246094 872.539062 428.375 865.792969 444.246094 C 857.660156 463.492188 852.105469 476.390625 866.984375 489.882812 L 856.46875 1062.101562 C 854.085938 1062.5 851.90625 1063.292969 850.515625 1064.878906 C 847.539062 1067.65625 847.144531 1072.023438 847.144531 1075.199219 C 839.605469 1077.378906 834.445312 1083.929688 834.046875 1092.65625 C 833.652344 1099.402344 836.429688 1107.140625 843.375 1110.910156 C 840.992188 1113.492188 837.816406 1117.65625 838.015625 1122.417969 C 838.214844 1125.992188 840.199219 1129.363281 844.167969 1132.140625 C 841.984375 1134.523438 840.398438 1138.292969 841.984375 1143.054688 C 839.800781 1143.648438 837.023438 1144.640625 834.839844 1147.222656 C 832.0625 1150.394531 830.875 1154.960938 831.269531 1160.714844 L 806.46875 1160.714844 C 805.277344 1160.714844 804.285156 1161.707031 804.285156 1162.894531 L 804.285156 1207.140625 C 804.285156 1208.332031 805.277344 1209.324219 806.46875 1209.324219 L 1088.214844 1209.324219 C 1089.40625 1209.324219 1090.398438 1208.332031 1090.398438 1207.140625 L 1090.398438 1162.894531 C 1090.398438 1161.707031 1089.40625 1160.714844 1088.214844 1160.714844 L 1064.007812 1160.714844 C 1064.40625 1154.960938 1063.214844 1150.394531 1060.4375 1147.222656 C 1058.253906 1144.640625 1055.476562 1143.648438 1053.292969 1143.054688 C 1054.882812 1138.292969 1053.09375 1134.523438 1051.109375 1132.140625 C 1054.882812 1129.363281 1057.0625 1125.992188 1057.261719 1122.417969 C 1057.460938 1117.65625 1054.285156 1113.492188 1051.90625 1110.910156 C 1058.847656 1107.140625 1061.625 1099.402344 1061.230469 1092.65625 C 1060.832031 1084.125 1055.675781 1077.378906 1048.136719 1075.199219 C 1048.136719 1072.023438 1047.539062 1067.65625 1044.761719 1064.683594 C 1043.175781 1063.09375 1041.191406 1062.300781 1038.808594 1061.902344 L 1028.292969 489.683594 C 1043.175781 475.992188 1037.617188 463.292969 1029.484375 444.046875 C 1022.738281 428.175781 1038.015625 418.851562 1041.785156 417.0625 C 1052.101562 420.238281 1065.59375 419.644531 1075.914062 416.46875 C 1087.023438 412.898438 1096.546875 402.777344 1100.515625 389.683594 C 1104.683594 375.992188 1102.101562 362.300781 1093.769531 351.984375 C 1088.609375 346.628906 1082.460938 342.460938 1075.515625 339.683594 Z M 826.90625 295.238281 L 1067.777344 295.238281 L 1068.371094 302.976562 L 826.308594 302.976562 Z M 825.914062 307.34375 L 1068.769531 307.34375 L 1069.363281 315.675781 L 825.316406 315.675781 Z M 824.921875 320.039062 L 1069.5625 320.039062 L 1070.355469 331.546875 C 1070.160156 331.546875 1069.960938 331.351562 1069.5625 331.351562 L 824.722656 331.351562 C 824.523438 331.351562 824.324219 331.351562 823.929688 331.546875 Z M 823.730469 335.714844 C 824.128906 335.914062 824.324219 335.914062 824.722656 335.914062 L 1069.761719 335.914062 C 1070.160156 335.914062 1070.554688 335.714844 1070.753906 335.714844 L 1070.953125 338.292969 C 1052.5 333.136719 1028.890625 337.898438 1009.839844 352.183594 L 884.644531 352.183594 C 865.398438 337.898438 841.984375 333.136719 823.53125 338.292969 Z M 946.746094 425.992188 C 946.945312 425.992188 947.144531 425.992188 947.339844 425.992188 C 947.539062 425.992188 947.738281 425.992188 947.9375 425.992188 C 962.023438 422.222656 968.769531 400.992188 970.753906 393.054688 C 974.722656 395.636719 977.5 398.214844 979.285156 399.800781 C 970.953125 422.421875 966.785156 445.039062 965.59375 451.589844 L 929.085938 451.589844 C 927.898438 444.84375 923.730469 422.421875 915.398438 399.800781 C 917.183594 398.015625 919.960938 395.4375 923.929688 393.054688 C 925.914062 401.191406 932.660156 422.222656 946.746094 425.992188 Z M 927.898438 390.675781 C 933.253906 387.898438 939.800781 385.515625 947.339844 385.515625 C 954.882812 385.515625 961.429688 387.699219 966.785156 390.675781 C 965.398438 396.628906 959.445312 417.660156 947.339844 421.628906 C 935.238281 417.660156 929.285156 396.628906 927.898438 390.675781 Z M 970.554688 387.699219 C 964.40625 384.128906 956.46875 381.152344 947.339844 381.152344 C 938.214844 381.152344 930.277344 384.128906 924.128906 387.699219 C 919.5625 390.277344 915.992188 393.253906 913.613281 395.4375 C 907.660156 380.554688 899.921875 366.074219 890 356.746094 L 1004.484375 356.746094 C 994.5625 366.269531 986.824219 380.554688 980.875 395.4375 C 978.691406 393.253906 975.121094 390.277344 970.554688 387.699219 Z M 852.898438 412.898438 C 852.699219 412.898438 852.699219 412.898438 852.898438 412.898438 C 843.375 415.875 830.277344 415.476562 820.554688 412.5 C 810.832031 409.523438 802.5 400.398438 798.929688 388.691406 C 795.160156 376.589844 797.34375 364.285156 804.882812 355.160156 C 809.046875 350.199219 814.40625 346.429688 820.554688 344.046875 C 805.675781 357.34375 801.113281 374.207031 808.453125 391.269531 C 813.808594 403.96875 823.929688 412.5 835.238281 414.285156 C 836.628906 414.484375 837.816406 414.683594 839.207031 414.683594 C 845.953125 414.683594 851.90625 411.90625 856.269531 406.945312 C 863.808594 398.214844 867.382812 386.90625 865.199219 377.976562 C 863.808594 372.421875 860.238281 368.253906 855.078125 366.269531 C 846.746094 363.097656 838.613281 363.492188 833.453125 367.660156 C 830.078125 370.238281 826.308594 375.398438 827.5 385.121094 C 828.691406 395.636719 835.039062 399.40625 840 399.40625 C 845.554688 399.40625 849.921875 395.238281 850.515625 390.082031 C 851.113281 384.523438 848.929688 382.144531 847.339844 380.953125 C 844.367188 379.167969 840.792969 380.359375 839.007812 381.351562 C 838.015625 381.945312 837.621094 383.335938 838.414062 384.523438 C 839.007812 385.515625 840.398438 385.914062 841.585938 385.121094 C 842.382812 384.523438 844.167969 384.128906 845.359375 384.722656 C 846.351562 385.320312 846.746094 386.90625 846.546875 389.484375 C 846.152344 392.859375 843.175781 394.84375 840.59375 394.84375 C 837.222656 394.84375 833.453125 392.066406 832.660156 384.523438 C 832.0625 378.375 833.453125 373.8125 836.824219 371.03125 C 840.792969 367.859375 847.339844 367.660156 854.285156 370.238281 C 858.054688 371.828125 860.636719 374.800781 861.824219 378.769531 C 863.613281 386.113281 860.4375 396.230469 853.890625 403.769531 C 849.722656 408.53125 843.570312 410.714844 837.023438 409.722656 C 827.300781 408.136719 818.570312 400.597656 813.808594 389.285156 C 803.492188 365.082031 820.753906 349.007812 832.0625 341.46875 C 832.261719 341.269531 832.460938 341.074219 832.460938 341.074219 C 849.128906 338.691406 868.96875 344.046875 885.238281 356.945312 C 911.429688 377.777344 923.53125 438.492188 925.914062 451.589844 L 914.207031 451.589844 C 907.859375 411.90625 894.367188 383.730469 872.9375 365.875 C 872.144531 365.277344 870.953125 365.277344 870.160156 365.875 C 869.367188 366.46875 869.167969 367.660156 869.5625 368.652344 C 876.308594 380.753906 871.152344 400.199219 862.421875 408.136719 C 858.847656 410.320312 856.070312 411.90625 852.898438 412.898438 Z M 875.316406 375.597656 C 891.984375 392.660156 902.898438 417.859375 908.253906 451.785156 L 892.382812 451.785156 C 891.191406 422.621094 874.128906 412.300781 866.585938 409.128906 C 873.53125 400.792969 877.5 387.300781 875.316406 375.597656 Z M 858.652344 415.277344 C 860.238281 414.484375 861.824219 413.492188 863.015625 412.5 C 867.578125 413.890625 886.628906 421.628906 887.816406 451.785156 L 867.183594 451.785156 C 867.976562 450 868.769531 448.214844 869.5625 446.230469 C 875.914062 431.546875 866.785156 420.636719 858.652344 415.277344 Z M 1061.625 1165.476562 L 1086.03125 1165.476562 L 1086.03125 1205.355469 L 808.652344 1205.355469 L 808.652344 1165.476562 Z M 1057.0625 1150.394531 C 1059.046875 1152.777344 1060.039062 1156.347656 1059.644531 1160.910156 L 835.039062 1160.910156 C 834.644531 1156.148438 835.4375 1152.777344 837.421875 1150.394531 C 840.199219 1147.222656 844.367188 1147.222656 844.5625 1147.222656 L 1049.921875 1147.222656 C 1050.316406 1147.222656 1054.285156 1147.222656 1057.0625 1150.394531 Z M 847.9375 1134.324219 L 1046.746094 1134.324219 C 1048.136719 1135.316406 1050.914062 1138.09375 1048.730469 1142.855469 L 845.953125 1142.855469 C 843.96875 1138.09375 846.746094 1135.316406 847.9375 1134.324219 Z M 1052.699219 1122.417969 C 1052.5 1125 1050.515625 1127.578125 1046.746094 1129.960938 L 847.9375 1129.960938 C 844.167969 1127.578125 842.183594 1125.199219 841.984375 1122.417969 C 841.785156 1118.453125 845.753906 1114.484375 847.738281 1112.699219 L 1046.746094 1112.699219 C 1048.332031 1113.886719 1052.898438 1118.054688 1052.699219 1122.417969 Z M 1045.554688 1079.363281 C 1053.292969 1080.753906 1056.46875 1087.300781 1056.667969 1093.054688 C 1057.0625 1099.007812 1054.285156 1105.953125 1047.339844 1108.132812 L 847.339844 1108.132812 C 840.398438 1105.953125 837.621094 1099.007812 838.015625 1093.054688 C 838.414062 1087.5 841.390625 1080.953125 849.128906 1079.363281 Z M 1036.230469 1066.667969 C 1038.414062 1066.667969 1040.199219 1067.261719 1041.390625 1068.253906 C 1042.976562 1069.839844 1043.371094 1072.617188 1043.570312 1075 L 851.308594 1075 C 851.308594 1072.617188 851.707031 1069.839844 853.492188 1068.253906 C 854.484375 1067.261719 856.269531 1066.667969 858.453125 1066.667969 C 858.453125 1066.667969 858.652344 1066.667969 858.652344 1066.667969 Z M 1034.046875 1062.101562 L 860.636719 1062.101562 L 871.152344 491.46875 L 1023.53125 491.46875 Z M 1024.921875 486.90625 L 869.960938 486.90625 C 866.785156 483.929688 864.605469 481.152344 863.414062 478.175781 L 1031.667969 478.175781 C 1030.277344 481.152344 1028.09375 483.929688 1024.921875 486.90625 Z M 1032.660156 473.613281 L 862.023438 473.613281 C 861.824219 471.429688 861.824219 469.046875 862.421875 466.46875 L 1032.261719 466.46875 C 1032.660156 469.046875 1032.855469 471.429688 1032.660156 473.613281 Z M 1029.085938 456.152344 C 1029.882812 458.136719 1030.476562 460.121094 1031.070312 461.90625 L 863.414062 461.90625 C 864.007812 460.121094 864.605469 458.136719 865.398438 456.152344 Z M 1028.09375 409.128906 C 1020.554688 412.300781 1003.492188 422.621094 1002.300781 451.785156 L 986.429688 451.785156 C 991.785156 417.859375 1002.699219 392.660156 1019.363281 375.597656 C 1017.183594 387.300781 1021.152344 400.792969 1028.09375 409.128906 Z M 1025.117188 446.230469 C 1025.914062 448.214844 1026.707031 450 1027.5 451.785156 L 1006.863281 451.785156 C 1008.054688 421.628906 1027.101562 413.890625 1031.667969 412.5 C 1033.054688 413.492188 1034.445312 414.484375 1036.03125 415.277344 C 1027.898438 420.636719 1018.769531 431.546875 1025.117188 446.230469 Z M 1095.753906 388.691406 C 1092.183594 400.398438 1084.046875 409.523438 1074.125 412.5 C 1064.40625 415.476562 1051.507812 416.074219 1041.984375 412.898438 C 1038.808594 411.90625 1035.832031 410.320312 1033.652344 408.335938 C 1024.921875 400.199219 1019.761719 380.753906 1026.507812 368.851562 C 1027.101562 367.859375 1026.90625 366.667969 1025.914062 366.074219 C 1025.117188 365.476562 1023.929688 365.476562 1023.136719 366.074219 C 1001.707031 383.929688 988.214844 412.105469 981.863281 451.785156 L 970.160156 451.785156 C 972.539062 438.691406 984.445312 377.976562 1010.832031 357.144531 C 1027.101562 344.246094 1046.945312 338.890625 1063.609375 341.269531 C 1063.808594 341.46875 1063.808594 341.667969 1064.007812 341.667969 C 1075.316406 349.207031 1092.578125 365.277344 1082.261719 389.484375 C 1077.5 400.792969 1068.769531 408.335938 1059.046875 409.921875 C 1052.5 410.914062 1046.152344 408.730469 1042.183594 403.96875 C 1035.636719 396.429688 1032.460938 386.308594 1034.246094 378.96875 C 1035.238281 374.800781 1037.816406 371.828125 1041.785156 370.4375 C 1048.53125 367.859375 1055.078125 368.054688 1059.246094 371.230469 C 1062.617188 373.808594 1064.207031 378.574219 1063.414062 384.722656 C 1062.617188 392.261719 1058.847656 395.039062 1055.476562 395.039062 C 1052.699219 395.039062 1049.722656 393.054688 1049.523438 389.683594 C 1049.324219 387.105469 1049.722656 385.515625 1050.714844 384.921875 C 1051.707031 384.328125 1053.492188 384.722656 1054.484375 385.320312 C 1055.476562 385.914062 1056.863281 385.714844 1057.660156 384.722656 C 1058.253906 383.730469 1058.054688 382.34375 1057.0625 381.546875 C 1055.277344 380.359375 1051.507812 379.367188 1048.730469 381.152344 C 1046.945312 382.144531 1044.960938 384.722656 1045.355469 390.277344 C 1045.753906 395.636719 1050.316406 399.605469 1055.871094 399.605469 C 1055.871094 399.605469 1055.871094 399.605469 1056.070312 399.605469 C 1061.03125 399.605469 1067.183594 395.835938 1068.371094 385.320312 C 1069.5625 375.398438 1065.792969 370.4375 1062.421875 367.859375 C 1057.0625 363.691406 1048.929688 363.292969 1040.792969 366.46875 C 1035.636719 368.453125 1032.0625 372.621094 1030.675781 378.175781 C 1028.492188 386.90625 1031.863281 398.414062 1039.601562 407.144531 C 1043.96875 412.105469 1049.921875 414.882812 1056.667969 414.882812 C 1058.054688 414.882812 1059.246094 414.683594 1060.636719 414.484375 C 1071.945312 412.699219 1081.863281 404.167969 1087.421875 391.46875 C 1094.761719 374.40625 1090.398438 357.539062 1075.316406 344.246094 C 1081.46875 346.628906 1086.824219 350.398438 1090.992188 355.359375 C 1097.339844 364.285156 1099.324219 376.390625 1095.753906 388.691406 Z M 1095.753906 388.691406 " fill-opacity="1" fill-rule="nonzero"/></g><path fill="#3a2a79" d="M 891.984375 500.597656 C 886.230469 500.597656 881.269531 505.359375 881.269531 511.113281 L 874.523438 1044.445312 C 874.523438 1047.222656 875.515625 1050 877.5 1051.984375 C 879.484375 1053.96875 882.0625 1055.15625 885.039062 1055.15625 C 890.792969 1055.15625 895.753906 1050.394531 895.753906 1044.640625 L 902.5 511.308594 C 902.5 508.53125 901.507812 505.753906 899.523438 503.769531 C 897.539062 501.785156 894.761719 500.597656 891.984375 500.597656 Z M 891.390625 1044.445312 C 891.390625 1047.816406 888.613281 1050.59375 885.039062 1050.59375 C 883.453125 1050.59375 881.867188 1050 880.675781 1048.808594 C 879.484375 1047.617188 878.890625 1046.03125 878.890625 1044.445312 L 885.636719 511.113281 C 885.636719 507.738281 888.414062 504.960938 891.984375 504.960938 C 893.570312 504.960938 895.160156 505.554688 896.347656 506.746094 C 897.539062 507.9375 898.136719 509.523438 898.136719 511.113281 Z M 891.390625 1044.445312 " fill-opacity="1" fill-rule="nonzero"/><path fill="#3a2a79" d="M 1002.699219 500.597656 C 999.921875 500.597656 997.144531 501.785156 995.160156 503.769531 C 993.175781 505.753906 992.183594 508.53125 992.183594 511.308594 L 998.929688 1044.640625 C 998.929688 1050.59375 1003.890625 1055.15625 1009.644531 1055.15625 C 1012.421875 1055.15625 1015.199219 1053.96875 1017.183594 1051.984375 C 1019.167969 1050 1020.160156 1047.222656 1020.160156 1044.445312 L 1013.414062 511.113281 C 1013.414062 505.359375 1008.453125 500.597656 1002.699219 500.597656 Z M 1014.007812 1049.007812 C 1012.816406 1050.199219 1011.429688 1050.792969 1009.644531 1050.792969 C 1006.269531 1050.792969 1003.492188 1048.015625 1003.292969 1044.640625 L 996.546875 511.308594 C 996.546875 509.722656 997.144531 508.136719 998.332031 506.945312 C 999.523438 505.753906 1000.914062 505.160156 1002.699219 505.160156 C 1006.070312 505.160156 1008.847656 507.9375 1009.046875 511.308594 L 1015.792969 1044.640625 C 1015.792969 1046.230469 1015.199219 1047.816406 1014.007812 1049.007812 Z M 1014.007812 1049.007812 " fill-opacity="1" fill-rule="nonzero"/><path fill="#3a2a79" d="M 926.308594 500.597656 C 920.355469 500.597656 915.59375 505.359375 915.59375 511.308594 L 914.601562 1044.640625 C 914.601562 1047.421875 915.792969 1050.199219 917.777344 1052.183594 C 919.761719 1054.164062 922.539062 1055.355469 925.316406 1055.355469 C 931.269531 1055.355469 936.03125 1050.59375 936.03125 1044.640625 L 937.023438 511.308594 C 937.023438 508.53125 935.832031 505.753906 933.847656 503.769531 C 931.867188 501.785156 929.085938 500.597656 926.308594 500.597656 Z M 931.46875 1044.640625 C 931.46875 1048.015625 928.691406 1050.792969 925.316406 1050.792969 C 923.730469 1050.792969 922.144531 1050.199219 920.953125 1049.007812 C 919.761719 1047.816406 919.167969 1046.230469 919.167969 1044.640625 L 920.160156 511.308594 C 920.160156 507.9375 922.9375 505.160156 926.308594 505.160156 C 927.898438 505.160156 929.484375 505.753906 930.675781 506.945312 C 931.867188 508.136719 932.460938 509.722656 932.460938 511.308594 Z M 931.46875 1044.640625 " fill-opacity="1" fill-rule="nonzero"/><path fill="#3a2a79" d="M 968.375 500.597656 C 965.59375 500.597656 962.816406 501.785156 960.832031 503.769531 C 958.847656 505.753906 957.660156 508.53125 957.660156 511.308594 L 958.652344 1044.640625 C 958.652344 1050.59375 963.414062 1055.355469 969.367188 1055.355469 C 972.144531 1055.355469 974.921875 1054.164062 976.90625 1052.183594 C 978.890625 1050.199219 980.078125 1047.421875 980.078125 1044.640625 L 979.085938 511.308594 C 979.085938 505.359375 974.324219 500.597656 968.375 500.597656 Z M 973.730469 1049.007812 C 972.539062 1050.199219 970.953125 1050.792969 969.363281 1050.792969 C 965.992188 1050.792969 963.214844 1048.015625 963.214844 1044.640625 L 962.222656 511.308594 C 962.222656 509.722656 962.816406 508.136719 964.007812 506.945312 C 965.199219 505.753906 966.785156 505.160156 968.375 505.160156 C 971.746094 505.160156 974.523438 507.9375 974.523438 511.308594 L 975.515625 1044.640625 C 975.515625 1046.230469 974.921875 1047.816406 973.730469 1049.007812 Z M 973.730469 1049.007812 " fill-opacity="1" fill-rule="nonzero"/><g clip-path="url(#542ba3d56d)"><path fill="#3a2a79" d="M 1470.8125 339.683594 C 1471.011719 339.285156 1471.011719 339.089844 1471.011719 338.691406 L 1467.441406 290.675781 L 1218.035156 290.675781 L 1214.464844 338.691406 C 1214.464844 339.089844 1214.464844 339.285156 1214.664062 339.683594 C 1207.71875 342.261719 1201.570312 346.429688 1196.804688 352.183594 C 1188.472656 362.5 1185.894531 376.191406 1190.0625 389.882812 C 1194.027344 402.976562 1203.355469 413.097656 1214.664062 416.667969 C 1224.980469 419.84375 1238.273438 420.4375 1248.789062 417.261719 C 1252.363281 419.246094 1267.839844 428.375 1261.09375 444.246094 C 1252.957031 463.492188 1247.402344 476.390625 1262.28125 489.882812 L 1251.765625 1062.101562 C 1249.386719 1062.5 1247.203125 1063.292969 1245.8125 1064.878906 C 1242.839844 1067.65625 1242.441406 1072.023438 1242.441406 1075.199219 C 1234.902344 1077.378906 1229.742188 1083.929688 1229.347656 1092.65625 C 1228.949219 1099.402344 1231.726562 1107.140625 1238.671875 1110.910156 C 1236.289062 1113.492188 1233.117188 1117.65625 1233.3125 1122.417969 C 1233.511719 1125.992188 1235.496094 1129.363281 1239.464844 1132.140625 C 1237.28125 1134.523438 1235.695312 1138.292969 1237.28125 1143.054688 C 1235.101562 1143.648438 1232.324219 1144.640625 1230.140625 1147.222656 C 1227.363281 1150.394531 1226.171875 1154.960938 1226.566406 1160.714844 L 1201.765625 1160.714844 C 1200.578125 1160.714844 1199.585938 1161.707031 1199.585938 1162.894531 L 1199.585938 1207.140625 C 1199.585938 1208.332031 1200.578125 1209.324219 1201.765625 1209.324219 L 1483.511719 1209.324219 C 1484.703125 1209.324219 1485.695312 1208.332031 1485.695312 1207.140625 L 1485.695312 1162.894531 C 1485.695312 1161.707031 1484.703125 1160.714844 1483.511719 1160.714844 L 1459.304688 1160.714844 C 1459.703125 1154.960938 1458.511719 1150.394531 1455.734375 1147.222656 C 1453.550781 1144.640625 1450.773438 1143.648438 1448.589844 1143.054688 C 1450.179688 1138.292969 1448.394531 1134.523438 1446.410156 1132.140625 C 1450.179688 1129.363281 1452.363281 1125.992188 1452.558594 1122.417969 C 1452.757812 1117.65625 1449.582031 1113.492188 1447.203125 1110.910156 C 1454.148438 1107.140625 1456.925781 1099.402344 1456.527344 1092.65625 C 1456.132812 1084.125 1450.972656 1077.378906 1443.433594 1075.199219 C 1443.433594 1072.023438 1442.835938 1067.65625 1440.058594 1064.683594 C 1438.472656 1063.09375 1436.488281 1062.300781 1434.109375 1061.902344 L 1423.589844 489.683594 C 1438.472656 475.992188 1432.917969 463.292969 1424.78125 444.046875 C 1418.035156 428.175781 1433.3125 418.851562 1437.082031 417.0625 C 1447.402344 420.238281 1460.894531 419.644531 1471.210938 416.46875 C 1482.320312 412.898438 1491.84375 402.777344 1495.8125 389.683594 C 1499.980469 375.992188 1497.402344 362.300781 1489.066406 351.984375 C 1483.910156 346.628906 1477.757812 342.460938 1470.8125 339.683594 Z M 1222.203125 295.238281 L 1463.074219 295.238281 L 1463.671875 302.976562 L 1221.609375 302.976562 Z M 1221.210938 307.34375 L 1464.066406 307.34375 L 1464.664062 315.675781 L 1220.617188 315.675781 Z M 1220.21875 320.039062 L 1464.863281 320.039062 L 1465.65625 331.546875 C 1465.457031 331.546875 1465.257812 331.351562 1464.863281 331.351562 L 1220.019531 331.351562 C 1219.824219 331.351562 1219.625 331.351562 1219.226562 331.546875 Z M 1219.027344 335.714844 C 1219.425781 335.914062 1219.625 335.914062 1220.019531 335.914062 L 1465.058594 335.914062 C 1465.457031 335.914062 1465.855469 335.714844 1466.050781 335.714844 L 1466.25 338.292969 C 1447.796875 333.136719 1424.1875 337.898438 1405.140625 352.183594 L 1279.941406 352.183594 C 1260.695312 337.898438 1237.28125 333.136719 1218.832031 338.292969 Z M 1342.042969 425.992188 C 1342.242188 425.992188 1342.441406 425.992188 1342.640625 425.992188 C 1342.839844 425.992188 1343.035156 425.992188 1343.234375 425.992188 C 1357.320312 422.222656 1364.066406 400.992188 1366.050781 393.054688 C 1370.019531 395.636719 1372.796875 398.214844 1374.582031 399.800781 C 1366.25 422.421875 1362.082031 445.039062 1360.894531 451.589844 L 1324.386719 451.589844 C 1323.195312 444.84375 1319.027344 422.421875 1310.695312 399.800781 C 1312.480469 398.015625 1315.257812 395.4375 1319.226562 393.054688 C 1321.210938 401.191406 1327.957031 422.222656 1342.042969 425.992188 Z M 1323.195312 390.675781 C 1328.550781 387.898438 1335.101562 385.515625 1342.640625 385.515625 C 1350.179688 385.515625 1356.726562 387.699219 1362.082031 390.675781 C 1360.695312 396.628906 1354.742188 417.660156 1342.640625 421.628906 C 1330.535156 417.660156 1324.585938 396.628906 1323.195312 390.675781 Z M 1365.855469 387.699219 C 1359.703125 384.128906 1351.765625 381.152344 1342.640625 381.152344 C 1333.511719 381.152344 1325.574219 384.128906 1319.425781 387.699219 C 1314.863281 390.277344 1311.289062 393.253906 1308.910156 395.4375 C 1302.957031 380.554688 1295.21875 366.074219 1285.296875 356.746094 L 1399.78125 356.746094 C 1389.863281 366.269531 1382.125 380.554688 1376.171875 395.4375 C 1373.988281 393.253906 1370.417969 390.277344 1365.855469 387.699219 Z M 1248.195312 412.898438 C 1247.996094 412.898438 1247.996094 412.898438 1248.195312 412.898438 C 1238.671875 415.875 1225.578125 415.476562 1215.855469 412.5 C 1206.132812 409.523438 1197.796875 400.398438 1194.226562 388.691406 C 1190.457031 376.589844 1192.640625 364.285156 1200.179688 355.160156 C 1204.347656 350.199219 1209.703125 346.429688 1215.855469 344.046875 C 1200.972656 357.34375 1196.410156 374.207031 1203.75 391.269531 C 1209.109375 403.96875 1219.226562 412.5 1230.535156 414.285156 C 1231.925781 414.484375 1233.117188 414.683594 1234.503906 414.683594 C 1241.25 414.683594 1247.203125 411.90625 1251.566406 406.945312 C 1259.109375 398.214844 1262.679688 386.90625 1260.496094 377.976562 C 1259.109375 372.421875 1255.535156 368.253906 1250.378906 366.269531 C 1242.042969 363.097656 1233.910156 363.492188 1228.75 367.660156 C 1225.378906 370.238281 1221.609375 375.398438 1222.796875 385.121094 C 1223.988281 395.636719 1230.339844 399.40625 1235.296875 399.40625 C 1240.855469 399.40625 1245.21875 395.238281 1245.8125 390.082031 C 1246.410156 384.523438 1244.226562 382.144531 1242.640625 380.953125 C 1239.664062 379.167969 1236.09375 380.359375 1234.304688 381.351562 C 1233.3125 381.945312 1232.917969 383.335938 1233.710938 384.523438 C 1234.304688 385.515625 1235.695312 385.914062 1236.886719 385.121094 C 1237.679688 384.523438 1239.464844 384.128906 1240.65625 384.722656 C 1241.648438 385.320312 1242.042969 386.90625 1241.847656 389.484375 C 1241.449219 392.859375 1238.472656 394.84375 1235.894531 394.84375 C 1232.519531 394.84375 1228.75 392.066406 1227.957031 384.523438 C 1227.363281 378.375 1228.75 373.8125 1232.125 371.03125 C 1236.09375 367.859375 1242.640625 367.660156 1249.585938 370.238281 C 1253.355469 371.828125 1255.933594 374.800781 1257.125 378.769531 C 1258.910156 386.113281 1255.734375 396.230469 1249.1875 403.769531 C 1245.019531 408.53125 1238.871094 410.714844 1232.324219 409.722656 C 1222.601562 408.136719 1213.871094 400.597656 1209.109375 389.285156 C 1198.789062 365.082031 1216.050781 349.007812 1227.363281 341.46875 C 1227.558594 341.269531 1227.757812 341.074219 1227.757812 341.074219 C 1244.425781 338.691406 1264.265625 344.046875 1280.535156 356.945312 C 1306.726562 377.777344 1318.832031 438.492188 1321.210938 451.589844 L 1309.503906 451.589844 C 1303.15625 411.90625 1289.664062 383.730469 1268.234375 365.875 C 1267.441406 365.277344 1266.25 365.277344 1265.457031 365.875 C 1264.664062 366.46875 1264.464844 367.660156 1264.863281 368.652344 C 1271.609375 380.753906 1266.449219 400.199219 1257.71875 408.136719 C 1254.148438 410.320312 1251.371094 411.90625 1248.195312 412.898438 Z M 1270.617188 375.597656 C 1287.28125 392.660156 1298.195312 417.859375 1303.550781 451.785156 L 1287.679688 451.785156 C 1286.488281 422.621094 1269.425781 412.300781 1261.886719 409.128906 C 1268.832031 400.792969 1272.796875 387.300781 1270.617188 375.597656 Z M 1253.949219 415.277344 C 1255.535156 414.484375 1257.125 413.492188 1258.3125 412.5 C 1262.878906 413.890625 1281.925781 421.628906 1283.117188 451.785156 L 1262.480469 451.785156 C 1263.273438 450 1264.066406 448.214844 1264.863281 446.230469 C 1271.210938 431.546875 1262.085938 420.636719 1253.949219 415.277344 Z M 1456.925781 1165.476562 L 1481.328125 1165.476562 L 1481.328125 1205.355469 L 1203.949219 1205.355469 L 1203.949219 1165.476562 Z M 1452.363281 1150.394531 C 1454.34375 1152.777344 1455.335938 1156.347656 1454.941406 1160.910156 L 1230.339844 1160.910156 C 1229.941406 1156.148438 1230.734375 1152.777344 1232.71875 1150.394531 C 1235.496094 1147.222656 1239.664062 1147.222656 1239.863281 1147.222656 L 1445.21875 1147.222656 C 1445.617188 1147.222656 1449.582031 1147.222656 1452.363281 1150.394531 Z M 1243.234375 1134.324219 L 1442.042969 1134.324219 C 1443.433594 1135.316406 1446.210938 1138.09375 1444.027344 1142.855469 L 1241.25 1142.855469 C 1239.265625 1138.09375 1242.042969 1135.316406 1243.234375 1134.324219 Z M 1447.996094 1122.417969 C 1447.796875 1125 1445.8125 1127.578125 1442.042969 1129.960938 L 1243.234375 1129.960938 C 1239.464844 1127.578125 1237.480469 1125.199219 1237.28125 1122.417969 C 1237.085938 1118.453125 1241.050781 1114.484375 1243.035156 1112.699219 L 1442.042969 1112.699219 C 1443.632812 1113.886719 1448.195312 1118.054688 1447.996094 1122.417969 Z M 1440.855469 1079.363281 C 1448.589844 1080.753906 1451.765625 1087.300781 1451.964844 1093.054688 C 1452.363281 1099.007812 1449.582031 1105.953125 1442.640625 1108.132812 L 1242.640625 1108.132812 C 1235.695312 1105.953125 1232.917969 1099.007812 1233.3125 1093.054688 C 1233.710938 1087.5 1236.6875 1080.953125 1244.425781 1079.363281 Z M 1431.527344 1066.667969 C 1433.710938 1066.667969 1435.496094 1067.261719 1436.6875 1068.253906 C 1438.273438 1069.839844 1438.671875 1072.617188 1438.871094 1075 L 1246.609375 1075 C 1246.609375 1072.617188 1247.003906 1069.839844 1248.789062 1068.253906 C 1249.78125 1067.261719 1251.566406 1066.667969 1253.75 1066.667969 C 1253.75 1066.667969 1253.949219 1066.667969 1253.949219 1066.667969 Z M 1429.34375 1062.101562 L 1255.933594 1062.101562 L 1266.449219 491.46875 L 1418.828125 491.46875 Z M 1420.21875 486.90625 L 1265.257812 486.90625 C 1262.085938 483.929688 1259.902344 481.152344 1258.710938 478.175781 L 1426.964844 478.175781 C 1425.574219 481.152344 1423.394531 483.929688 1420.21875 486.90625 Z M 1427.957031 473.613281 L 1257.324219 473.613281 C 1257.125 471.429688 1257.125 469.046875 1257.71875 466.46875 L 1427.558594 466.46875 C 1427.957031 469.046875 1428.15625 471.429688 1427.957031 473.613281 Z M 1424.386719 456.152344 C 1425.179688 458.136719 1425.773438 460.121094 1426.371094 461.90625 L 1258.710938 461.90625 C 1259.304688 460.121094 1259.902344 458.136719 1260.695312 456.152344 Z M 1423.394531 409.128906 C 1415.855469 412.300781 1398.789062 422.621094 1397.601562 451.785156 L 1381.726562 451.785156 C 1387.082031 417.859375 1397.996094 392.660156 1414.664062 375.597656 C 1412.480469 387.300781 1416.449219 400.792969 1423.394531 409.128906 Z M 1420.417969 446.230469 C 1421.210938 448.214844 1422.003906 450 1422.796875 451.785156 L 1402.164062 451.785156 C 1403.355469 421.628906 1422.402344 413.890625 1426.964844 412.5 C 1428.355469 413.492188 1429.742188 414.484375 1431.328125 415.277344 C 1423.195312 420.636719 1414.066406 431.546875 1420.417969 446.230469 Z M 1491.050781 388.691406 C 1487.480469 400.398438 1479.34375 409.523438 1469.425781 412.5 C 1459.703125 415.476562 1446.804688 416.074219 1437.28125 412.898438 C 1434.109375 411.90625 1431.132812 410.320312 1428.949219 408.335938 C 1420.21875 400.199219 1415.058594 380.753906 1421.804688 368.851562 C 1422.402344 367.859375 1422.203125 366.667969 1421.210938 366.074219 C 1420.417969 365.476562 1419.226562 365.476562 1418.433594 366.074219 C 1397.003906 383.929688 1383.511719 412.105469 1377.164062 451.785156 L 1365.457031 451.785156 C 1367.839844 438.691406 1379.742188 377.976562 1406.132812 357.144531 C 1422.402344 344.246094 1442.242188 338.890625 1458.910156 341.269531 C 1459.109375 341.46875 1459.109375 341.667969 1459.304688 341.667969 C 1470.617188 349.207031 1487.878906 365.277344 1477.558594 389.484375 C 1472.796875 400.792969 1464.066406 408.335938 1454.34375 409.921875 C 1447.796875 410.914062 1441.449219 408.730469 1437.480469 403.96875 C 1430.933594 396.429688 1427.757812 386.308594 1429.542969 378.96875 C 1430.535156 374.800781 1433.117188 371.828125 1437.082031 370.4375 C 1443.828125 367.859375 1450.378906 368.054688 1454.542969 371.230469 C 1457.917969 373.808594 1459.503906 378.574219 1458.710938 384.722656 C 1457.917969 392.261719 1454.148438 395.039062 1450.773438 395.039062 C 1447.996094 395.039062 1445.019531 393.054688 1444.820312 389.683594 C 1444.625 387.105469 1445.019531 385.515625 1446.011719 384.921875 C 1447.003906 384.328125 1448.789062 384.722656 1449.78125 385.320312 C 1450.773438 385.914062 1452.164062 385.714844 1452.957031 384.722656 C 1453.550781 383.730469 1453.355469 382.34375 1452.363281 381.546875 C 1450.574219 380.359375 1446.804688 379.367188 1444.027344 381.152344 C 1442.242188 382.144531 1440.257812 384.722656 1440.65625 390.277344 C 1441.050781 395.636719 1445.617188 399.605469 1451.171875 399.605469 C 1451.171875 399.605469 1451.171875 399.605469 1451.371094 399.605469 C 1456.328125 399.605469 1462.480469 395.835938 1463.671875 385.320312 C 1464.863281 375.398438 1461.089844 370.4375 1457.71875 367.859375 C 1452.363281 363.691406 1444.226562 363.292969 1436.089844 366.46875 C 1430.933594 368.453125 1427.363281 372.621094 1425.972656 378.175781 C 1423.789062 386.90625 1427.164062 398.414062 1434.902344 407.144531 C 1439.265625 412.105469 1445.21875 414.882812 1451.964844 414.882812 C 1453.355469 414.882812 1454.542969 414.683594 1455.933594 414.484375 C 1467.242188 412.699219 1477.164062 404.167969 1482.71875 391.46875 C 1490.058594 374.40625 1485.695312 357.539062 1470.617188 344.246094 C 1476.765625 346.628906 1482.125 350.398438 1486.289062 355.359375 C 1492.640625 364.285156 1494.625 376.390625 1491.050781 388.691406 Z M 1491.050781 388.691406 " fill-opacity="1" fill-rule="nonzero"/></g><path fill="#3a2a79" d="M 1287.28125 500.597656 C 1281.527344 500.597656 1276.566406 505.359375 1276.566406 511.113281 L 1269.824219 1044.445312 C 1269.824219 1047.222656 1270.8125 1050 1272.796875 1051.984375 C 1274.78125 1053.96875 1277.363281 1055.15625 1280.339844 1055.15625 C 1286.09375 1055.15625 1291.050781 1050.394531 1291.050781 1044.640625 L 1297.796875 511.308594 C 1297.796875 508.53125 1296.804688 505.753906 1294.820312 503.769531 C 1292.839844 501.785156 1290.058594 500.597656 1287.28125 500.597656 Z M 1286.6875 1044.445312 C 1286.6875 1047.816406 1283.910156 1050.59375 1280.339844 1050.59375 C 1278.75 1050.59375 1277.164062 1050 1275.972656 1048.808594 C 1274.78125 1047.617188 1274.1875 1046.03125 1274.1875 1044.445312 L 1280.933594 511.113281 C 1280.933594 507.738281 1283.710938 504.960938 1287.28125 504.960938 C 1288.871094 504.960938 1290.457031 505.554688 1291.648438 506.746094 C 1292.839844 507.9375 1293.433594 509.523438 1293.433594 511.113281 Z M 1286.6875 1044.445312 " fill-opacity="1" fill-rule="nonzero"/><path fill="#3a2a79" d="M 1397.996094 500.597656 C 1395.21875 500.597656 1392.441406 501.785156 1390.457031 503.769531 C 1388.472656 505.753906 1387.480469 508.53125 1387.480469 511.308594 L 1394.226562 1044.640625 C 1394.226562 1050.59375 1399.1875 1055.15625 1404.941406 1055.15625 C 1407.71875 1055.15625 1410.496094 1053.96875 1412.480469 1051.984375 C 1414.464844 1050 1415.457031 1047.222656 1415.457031 1044.445312 L 1408.710938 511.113281 C 1408.710938 505.359375 1403.75 500.597656 1397.996094 500.597656 Z M 1409.304688 1049.007812 C 1408.117188 1050.199219 1406.726562 1050.792969 1404.941406 1050.792969 C 1401.566406 1050.792969 1398.789062 1048.015625 1398.589844 1044.640625 L 1391.847656 511.308594 C 1391.847656 509.722656 1392.441406 508.136719 1393.632812 506.945312 C 1394.820312 505.753906 1396.210938 505.160156 1397.996094 505.160156 C 1401.371094 505.160156 1404.148438 507.9375 1404.347656 511.308594 L 1411.089844 1044.640625 C 1411.089844 1046.230469 1410.496094 1047.816406 1409.304688 1049.007812 Z M 1409.304688 1049.007812 " fill-opacity="1" fill-rule="nonzero"/><path fill="#3a2a79" d="M 1321.609375 500.597656 C 1315.65625 500.597656 1310.894531 505.359375 1310.894531 511.308594 L 1309.902344 1044.640625 C 1309.902344 1047.421875 1311.09375 1050.199219 1313.074219 1052.183594 C 1315.058594 1054.164062 1317.839844 1055.355469 1320.617188 1055.355469 C 1326.566406 1055.355469 1331.328125 1050.59375 1331.328125 1044.640625 L 1332.320312 511.308594 C 1332.320312 508.53125 1331.132812 505.753906 1329.148438 503.769531 C 1327.164062 501.785156 1324.386719 500.597656 1321.609375 500.597656 Z M 1326.765625 1044.640625 C 1326.765625 1048.015625 1323.988281 1050.792969 1320.617188 1050.792969 C 1319.027344 1050.792969 1317.441406 1050.199219 1316.25 1049.007812 C 1315.058594 1047.816406 1314.464844 1046.230469 1314.464844 1044.640625 L 1315.457031 511.308594 C 1315.457031 507.9375 1318.234375 505.160156 1321.609375 505.160156 C 1323.195312 505.160156 1324.78125 505.753906 1325.972656 506.945312 C 1327.164062 508.136719 1327.757812 509.722656 1327.757812 511.308594 Z M 1326.765625 1044.640625 " fill-opacity="1" fill-rule="nonzero"/><path fill="#3a2a79" d="M 1363.671875 500.597656 C 1360.894531 500.597656 1358.117188 501.785156 1356.132812 503.769531 C 1354.148438 505.753906 1352.957031 508.53125 1352.957031 511.308594 L 1353.949219 1044.640625 C 1353.949219 1050.59375 1358.710938 1055.355469 1364.664062 1055.355469 C 1367.441406 1055.355469 1370.21875 1054.164062 1372.203125 1052.183594 C 1374.1875 1050.199219 1375.378906 1047.421875 1375.378906 1044.640625 L 1374.386719 511.308594 C 1374.386719 505.359375 1369.625 500.597656 1363.671875 500.597656 Z M 1369.027344 1049.007812 C 1367.835938 1050.199219 1366.25 1050.792969 1364.664062 1050.792969 C 1361.289062 1050.792969 1358.511719 1048.015625 1358.511719 1044.640625 L 1357.519531 511.308594 C 1357.519531 509.722656 1358.117188 508.136719 1359.304688 506.945312 C 1360.496094 505.753906 1362.082031 505.160156 1363.671875 505.160156 C 1367.042969 505.160156 1369.820312 507.9375 1369.820312 511.308594 L 1370.8125 1044.640625 C 1370.8125 1046.230469 1370.21875 1047.816406 1369.027344 1049.007812 Z M 1369.027344 1049.007812 " fill-opacity="1" fill-rule="nonzero"/></svg>