<svg xmlns="http://www.w3.org/2000/svg" xmlns:xlink="http://www.w3.org/1999/xlink" width="2000" zoomAndPan="magnify" viewBox="0 0 1500 1499.999933" height="2000" preserveAspectRatio="xMidYMid meet" version="1.0"><defs><clipPath id="918304901d"><path d="M 0 441.175781 L 1500 441.175781 L 1500 1500 L 0 1500 Z M 0 441.175781 " clip-rule="nonzero"/></clipPath></defs><g clip-path="url(#918304901d)"><path fill="#000000" d="M 1418.695312 1455.128906 C 1416.992188 1455.128906 1415.894531 1455.863281 1415.285156 1457.570312 L 1412.480469 1465.371094 L 1403.949219 1465.371094 L 1398.339844 1448.421875 C 1397.851562 1446.59375 1396.632812 1445.621094 1395.046875 1445.621094 L 1317.398438 1445.621094 C 1315.695312 1445.621094 1314.597656 1446.59375 1314.109375 1448.421875 L 1307.894531 1467.199219 L 1307.894531 1455.375 L 1293.386719 1455.375 L 1293.386719 1459.03125 L 1288.390625 1458.542969 L 1288.390625 1453.421875 L 1285.464844 1453.421875 L 1285.464844 1422.332031 L 1256.085938 1418.675781 L 1256.085938 1067.1875 L 1256.207031 1067.1875 C 1256.085938 1067.066406 1256.085938 1067.066406 1256.085938 1066.824219 C 1254.621094 1062.554688 1256.085938 1059.507812 1260.597656 1057.800781 C 1259.257812 1053.410156 1260.71875 1050.363281 1264.621094 1048.902344 L 1264.621094 1026.585938 L 1247.066406 1021.347656 L 1247.066406 871.507812 C 1244.628906 866.996094 1245.730469 863.464844 1250.359375 861.390625 C 1249.503906 856.882812 1251.214844 854.199219 1255.234375 853.101562 L 1255.234375 828.109375 C 1248.894531 827.742188 1243.65625 825.667969 1239.390625 822.132812 L 1239.390625 692.65625 C 1239.023438 688.023438 1240.242188 685.339844 1243.042969 684.488281 C 1242.558594 680.953125 1243.65625 678.269531 1246.335938 676.683594 L 1246.335938 660.46875 C 1245.972656 659.492188 1245.238281 659.128906 1244.019531 659.25 C 1239.632812 657.910156 1236.703125 656.566406 1235.363281 655.226562 L 1235.363281 641.445312 C 1234.878906 639.621094 1233.78125 638.402344 1232.074219 637.671875 C 1231.585938 634.742188 1230.246094 633.28125 1227.929688 633.402344 C 1228.417969 630.597656 1227.320312 628.769531 1224.273438 627.914062 L 1224.273438 541.351562 C 1224.273438 533.675781 1221.59375 527.089844 1216.226562 521.726562 C 1213.789062 519.285156 1211.230469 517.09375 1208.425781 515.019531 L 1209.160156 515.019531 C 1209.765625 514.898438 1210.253906 514.652344 1210.742188 514.164062 C 1211.351562 513.679688 1211.59375 513.066406 1211.59375 512.214844 C 1211.59375 511.480469 1211.351562 510.871094 1210.742188 510.261719 C 1210.253906 509.777344 1209.765625 509.652344 1209.160156 509.53125 L 1208.792969 509.53125 C 1208.0625 509.53125 1207.328125 509.777344 1206.84375 510.261719 C 1206.351562 510.871094 1205.992188 511.480469 1205.992188 512.214844 C 1205.992188 512.824219 1206.113281 513.1875 1206.351562 513.554688 C 1204.523438 512.214844 1202.574219 510.996094 1200.503906 509.898438 C 1200.382812 506.117188 1200.015625 502.703125 1199.652344 499.65625 C 1199.164062 495.144531 1198.429688 492.097656 1197.699219 490.757812 L 1197.699219 489.414062 C 1198.308594 489.171875 1198.675781 488.925781 1199.039062 488.4375 C 1199.769531 487.828125 1200.015625 487.097656 1200.015625 486.125 C 1200.015625 485.148438 1199.769531 484.292969 1199.039062 483.5625 C 1198.675781 483.195312 1198.308594 482.953125 1197.699219 482.832031 C 1197.578125 481.976562 1197.578125 481.125 1197.578125 480.273438 C 1197.941406 480.027344 1198.1875 479.90625 1198.429688 479.660156 C 1199.039062 479.175781 1199.164062 478.5625 1199.164062 477.832031 C 1199.164062 477.101562 1199.042969 476.492188 1198.429688 475.878906 C 1198.1875 475.636719 1197.941406 475.515625 1197.578125 475.394531 C 1197.578125 471.246094 1197.457031 467.226562 1197.457031 463.445312 C 1197.335938 450.765625 1197.09375 443.449219 1196.726562 441.496094 L 1196.605469 441.496094 C 1196.242188 441.496094 1195.996094 448.8125 1195.75 463.445312 C 1195.628906 467.222656 1195.628906 471.246094 1195.628906 475.394531 C 1195.386719 475.515625 1195.023438 475.636719 1194.777344 475.878906 C 1194.292969 476.492188 1193.925781 477.097656 1193.925781 477.832031 C 1193.925781 478.5625 1194.292969 479.175781 1194.777344 479.660156 C 1194.898438 479.90625 1195.265625 480.027344 1195.507812 480.273438 L 1195.507812 482.953125 C 1195.023438 482.953125 1194.65625 483.195312 1194.171875 483.5625 C 1193.558594 484.292969 1193.195312 485.148438 1193.195312 486.125 C 1193.195312 487.097656 1193.558594 487.828125 1194.171875 488.4375 C 1194.65625 488.925781 1195.023438 489.171875 1195.507812 489.414062 L 1195.507812 491 C 1194.777344 492.460938 1194.171875 495.269531 1193.558594 499.65625 C 1193.195312 502.703125 1192.949219 506.117188 1192.707031 509.898438 C 1190.632812 510.996094 1188.804688 512.214844 1186.976562 513.433594 C 1187.097656 513.191406 1187.222656 512.703125 1187.222656 512.214844 C 1187.222656 511.484375 1186.976562 510.875 1186.367188 510.265625 C 1185.878906 509.777344 1185.394531 509.65625 1184.78125 509.535156 L 1184.417969 509.535156 C 1183.6875 509.535156 1182.957031 509.777344 1182.46875 510.265625 C 1181.980469 510.875 1181.617188 511.484375 1181.617188 512.214844 C 1181.617188 513.070312 1181.980469 513.679688 1182.46875 514.167969 C 1182.957031 514.65625 1183.6875 515.019531 1184.417969 515.019531 L 1184.78125 515.019531 C 1182.105469 517.09375 1179.417969 519.289062 1177.105469 521.726562 C 1171.621094 527.089844 1168.9375 533.675781 1168.9375 541.355469 L 1168.9375 627.917969 C 1165.890625 628.773438 1164.671875 630.601562 1165.28125 633.40625 C 1163.085938 633.285156 1161.625 634.746094 1161.136719 637.675781 C 1159.554688 638.40625 1158.457031 639.625 1157.84375 641.449219 L 1157.84375 655.230469 C 1156.503906 656.570312 1153.578125 657.910156 1149.191406 659.253906 C 1147.96875 659.132812 1147.238281 659.496094 1146.875 660.472656 L 1146.875 676.6875 C 1149.675781 678.273438 1150.773438 680.957031 1150.289062 684.492188 C 1152.96875 685.34375 1154.1875 688.027344 1153.820312 692.660156 L 1153.820312 822.136719 C 1149.554688 825.671875 1144.316406 827.746094 1138.097656 828.113281 L 1138.097656 853.105469 C 1141.996094 854.203125 1143.707031 856.886719 1142.972656 861.394531 C 1147.484375 863.46875 1148.582031 867.003906 1146.265625 871.511719 L 1146.265625 1021.351562 L 1128.589844 1026.589844 L 1128.589844 1048.90625 C 1132.613281 1050.367188 1133.953125 1053.414062 1132.734375 1057.804688 C 1137 1059.511719 1138.585938 1062.558594 1137.246094 1066.828125 L 1137.125 1066.828125 L 1137.125 1367.109375 L 989.386719 1347.96875 L 989.386719 1338.089844 L 970.855469 1335.773438 L 970.855469 1324.925781 L 914.785156 1317.730469 L 914.785156 1305.539062 L 887.722656 1302.003906 L 887.722656 1282.617188 C 888.457031 1282.617188 888.941406 1282.375 889.429688 1281.886719 C 889.917969 1281.519531 890.164062 1281.035156 890.164062 1280.300781 L 890.164062 1280.179688 C 890.164062 1279.570312 889.917969 1278.960938 889.429688 1278.597656 C 888.941406 1278.105469 888.457031 1277.984375 887.847656 1277.984375 C 889.429688 1205.933594 850.546875 1155.824219 771.191406 1127.78125 C 770.09375 1127.292969 768.996094 1126.929688 767.898438 1126.5625 C 764.605469 1123.148438 760.339844 1121.078125 755.46875 1120.710938 C 752.664062 1120.46875 750.589844 1119.613281 749.25 1118.03125 C 749.007812 1113.761719 748.761719 1109.742188 748.519531 1106.082031 C 748.273438 1104.617188 748.152344 1103.398438 748.03125 1102.179688 C 747.542969 1097.667969 746.8125 1094.742188 746.203125 1093.277344 L 746.203125 1091.816406 C 746.566406 1091.691406 747.054688 1091.449219 747.421875 1090.960938 C 748.152344 1090.355469 748.519531 1089.621094 748.519531 1088.644531 C 748.519531 1087.546875 748.152344 1086.695312 747.421875 1086.082031 C 747.054688 1085.722656 746.570312 1085.476562 746.082031 1085.355469 L 746.082031 1082.671875 C 746.324219 1082.550781 746.570312 1082.308594 746.8125 1082.0625 C 747.300781 1081.695312 747.542969 1081.089844 747.542969 1080.480469 L 747.542969 1080.234375 C 747.542969 1079.625 747.421875 1079.015625 746.8125 1078.40625 C 746.570312 1078.160156 746.324219 1078.042969 746.082031 1077.796875 C 745.960938 1073.773438 745.835938 1069.75 745.835938 1065.847656 C 745.71875 1063.410156 745.71875 1060.96875 745.71875 1058.898438 C 746.449219 1058.535156 747.300781 1058.046875 748.03125 1057.3125 C 749.25 1056.09375 749.859375 1054.632812 749.859375 1053.046875 C 749.859375 1051.21875 749.25 1049.757812 748.03125 1048.535156 C 747.054688 1047.5625 746.082031 1047.070312 744.863281 1046.949219 C 745.226562 1047.070312 745.71875 1047.316406 746.082031 1047.683594 C 747.179688 1048.902344 747.667969 1050.242188 747.667969 1051.828125 C 747.667969 1053.289062 747.179688 1054.632812 746.082031 1055.726562 C 744.984375 1056.945312 743.644531 1057.433594 742.058594 1057.433594 C 740.472656 1057.433594 739.132812 1056.945312 738.035156 1055.726562 C 737.976562 1055.667969 737.917969 1055.609375 737.875 1055.550781 C 738.136719 1056.199219 738.578125 1056.757812 739.132812 1057.3125 C 740.355469 1058.53125 741.816406 1059.140625 743.644531 1059.140625 L 744.253906 1059.140625 C 744.132812 1061.214844 744.132812 1063.410156 744.132812 1065.84375 C 744.011719 1069.625 744.011719 1073.648438 744.011719 1077.796875 C 743.765625 1078.039062 743.402344 1078.160156 743.160156 1078.402344 C 742.671875 1079.011719 742.429688 1079.625 742.429688 1080.230469 L 742.429688 1080.476562 C 742.429688 1081.085938 742.671875 1081.695312 743.160156 1082.0625 C 743.28125 1082.304688 743.648438 1082.546875 743.890625 1082.667969 L 743.890625 1085.351562 C 743.402344 1085.472656 742.914062 1085.71875 742.550781 1086.082031 C 741.941406 1086.691406 741.574219 1087.546875 741.574219 1088.640625 C 741.574219 1089.617188 741.941406 1090.351562 742.550781 1090.960938 C 742.914062 1091.449219 743.402344 1091.691406 743.890625 1091.8125 L 743.890625 1093.519531 C 743.160156 1094.859375 742.550781 1097.789062 741.941406 1102.175781 C 741.695312 1103.398438 741.574219 1104.617188 741.453125 1106.082031 C 741.210938 1109.617188 740.964844 1113.636719 740.84375 1118.027344 C 739.5 1119.613281 737.308594 1120.46875 734.625 1120.707031 C 729.507812 1121.074219 725.484375 1123.148438 722.074219 1126.558594 C 720.730469 1126.925781 719.390625 1127.414062 718.171875 1128.023438 C 639.183594 1156.1875 600.542969 1206.175781 602.003906 1277.984375 C 601.394531 1277.984375 601.027344 1278.105469 600.542969 1278.59375 C 600.175781 1278.960938 599.929688 1279.570312 599.929688 1280.179688 L 599.929688 1280.300781 C 599.929688 1281.03125 600.175781 1281.519531 600.542969 1281.882812 C 601.027344 1282.371094 601.515625 1282.617188 602.246094 1282.617188 L 602.246094 1298.832031 L 576.160156 1302.976562 L 576.160156 1308.460938 L 542.394531 1308.460938 L 542.394531 1302.121094 C 542.152344 1299.679688 542.757812 1298.339844 544.222656 1297.851562 C 543.980469 1296.023438 544.464844 1294.683594 545.929688 1293.828125 L 545.929688 1285.417969 C 545.6875 1284.929688 545.320312 1284.683594 544.710938 1284.808594 C 542.515625 1284.074219 540.933594 1283.34375 540.199219 1282.613281 L 540.199219 1275.539062 C 539.957031 1274.5625 539.347656 1273.953125 538.613281 1273.464844 C 538.371094 1272.003906 537.640625 1271.273438 536.421875 1271.273438 C 536.664062 1269.808594 536.054688 1268.957031 534.46875 1268.46875 L 534.46875 1240.433594 C 534.46875 1236.53125 533.128906 1233.117188 530.324219 1230.3125 C 527.886719 1227.996094 525.207031 1225.925781 522.160156 1224.21875 C 522.160156 1222.265625 521.914062 1220.5625 521.792969 1218.976562 C 521.429688 1216.292969 521.0625 1214.710938 520.695312 1214.101562 L 520.695312 1213.492188 C 520.941406 1213.492188 521.179688 1213.371094 521.304688 1213 C 521.792969 1212.761719 521.914062 1212.273438 521.914062 1211.785156 C 521.914062 1211.296875 521.792969 1210.929688 521.304688 1210.5625 C 521.183594 1210.320312 520.941406 1210.199219 520.695312 1210.074219 C 520.574219 1209.710938 520.574219 1209.222656 520.695312 1208.734375 C 520.695312 1208.734375 520.941406 1208.613281 521.0625 1208.492188 C 521.304688 1208.128906 521.425781 1207.882812 521.425781 1207.515625 C 521.425781 1207.027344 521.304688 1206.785156 521.0625 1206.539062 C 520.941406 1206.417969 520.695312 1206.296875 520.574219 1206.175781 L 520.574219 1199.957031 C 520.328125 1193.496094 520.328125 1189.597656 520.085938 1188.617188 C 519.84375 1188.617188 519.722656 1192.398438 519.597656 1199.957031 C 519.476562 1202.03125 519.476562 1204.101562 519.476562 1206.300781 C 519.355469 1206.417969 519.234375 1206.417969 519.113281 1206.539062 C 518.871094 1206.785156 518.746094 1207.03125 518.746094 1207.519531 C 518.746094 1207.882812 518.867188 1208.128906 519.113281 1208.492188 C 519.234375 1208.613281 519.355469 1208.613281 519.476562 1208.738281 L 519.476562 1210.203125 C 519.234375 1210.324219 518.988281 1210.324219 518.867188 1210.566406 C 518.503906 1210.929688 518.257812 1211.296875 518.257812 1211.785156 C 518.257812 1212.273438 518.503906 1212.761719 518.867188 1213.003906 C 518.988281 1213.246094 519.234375 1213.496094 519.476562 1213.496094 L 519.476562 1214.714844 C 519.113281 1215.445312 518.867188 1216.910156 518.503906 1218.980469 C 518.382812 1220.445312 518.257812 1222.273438 518.136719 1224.101562 C 514.96875 1225.929688 512.285156 1228 509.972656 1230.316406 C 507.167969 1233.121094 505.707031 1236.535156 505.707031 1240.4375 L 505.707031 1268.476562 C 504.242188 1268.964844 503.511719 1269.816406 503.875 1271.28125 C 502.65625 1271.28125 501.925781 1272.011719 501.683594 1273.476562 C 500.828125 1273.964844 500.21875 1274.570312 499.972656 1275.546875 L 499.972656 1282.621094 C 499.363281 1283.351562 497.777344 1284.085938 495.460938 1284.816406 C 494.730469 1284.695312 494.488281 1284.9375 494.242188 1285.425781 L 494.242188 1293.839844 C 495.707031 1294.691406 496.316406 1296.035156 495.949219 1297.863281 C 497.414062 1298.347656 498.023438 1299.691406 497.777344 1302.128906 L 497.777344 1330.902344 C 496.804688 1331.878906 496.316406 1333.21875 496.316406 1334.804688 L 496.316406 1342.972656 L 470.960938 1342.972656 C 469.863281 1342.121094 468.644531 1341.507812 467.304688 1341.507812 L 457.554688 1341.507812 L 457.554688 1209.957031 C 454.503906 1203.984375 455.964844 1199.59375 461.941406 1196.667969 C 460.964844 1190.9375 463.039062 1187.402344 468.28125 1186.0625 L 468.28125 1153.625 C 460.113281 1153.015625 453.285156 1150.457031 447.800781 1145.824219 L 447.800781 1001.835938 C 447.191406 995.863281 448.777344 992.328125 452.433594 991.234375 C 451.824219 986.597656 453.285156 983.308594 456.699219 981.113281 L 456.699219 960.144531 C 456.335938 958.679688 455.238281 958.191406 453.894531 958.4375 C 448.042969 956.726562 444.265625 954.898438 442.558594 953.195312 L 442.558594 935.273438 C 441.828125 932.957031 440.484375 931.371094 438.289062 930.273438 C 437.679688 926.492188 435.855469 924.542969 432.808594 924.789062 C 433.539062 921.128906 431.953125 918.816406 428.175781 917.71875 L 428.175781 860.902344 L 428.054688 860.902344 L 428.054688 847.734375 C 428.054688 837.738281 424.640625 829.328125 417.570312 822.132812 C 411.597656 816.402344 404.890625 811.40625 397.214844 807.015625 C 396.972656 802.136719 396.605469 797.628906 395.996094 793.605469 C 395.382812 787.753906 394.53125 783.972656 393.554688 782.144531 L 393.554688 780.316406 C 394.164062 780.074219 394.773438 779.707031 395.261719 779.097656 C 396.238281 778.246094 396.601562 777.390625 396.601562 776.046875 C 396.601562 774.832031 396.238281 773.730469 395.261719 772.757812 C 394.773438 772.269531 394.164062 771.90625 393.554688 771.78125 L 393.554688 768.367188 C 393.921875 768.246094 394.164062 768.003906 394.53125 767.636719 C 395.140625 767.027344 395.503906 766.171875 395.503906 765.199219 C 395.503906 764.34375 395.140625 763.367188 394.53125 762.757812 C 394.164062 762.394531 393.800781 762.148438 393.433594 762.148438 C 393.3125 756.664062 393.3125 751.421875 393.1875 746.542969 C 392.945312 730.082031 392.703125 720.574219 392.335938 718.015625 L 392.09375 718.015625 C 391.730469 718.015625 391.363281 727.527344 390.996094 746.542969 C 390.875 751.421875 390.875 756.664062 390.875 762.148438 C 390.386719 762.148438 390.023438 762.390625 389.65625 762.757812 C 389.046875 763.367188 388.683594 764.34375 388.683594 765.199219 C 388.683594 766.171875 389.046875 767.027344 389.65625 767.636719 C 389.898438 768 390.265625 768.246094 390.753906 768.367188 C 390.632812 769.464844 390.632812 770.683594 390.632812 771.78125 C 390.023438 771.90625 389.414062 772.390625 388.925781 772.757812 C 388.074219 773.730469 387.703125 774.832031 387.703125 776.046875 C 387.703125 777.390625 388.070312 778.246094 388.925781 779.097656 C 389.414062 779.707031 390.023438 780.074219 390.632812 780.316406 L 390.632812 782.386719 C 389.65625 784.339844 388.925781 787.996094 388.074219 793.605469 C 387.707031 797.628906 387.21875 802.136719 386.976562 807.015625 C 379.296875 811.28125 372.589844 816.402344 366.742188 822.132812 C 359.671875 829.328125 356.136719 837.738281 356.136719 847.734375 L 356.136719 917.71875 C 352.355469 918.8125 350.648438 921.128906 351.382812 924.789062 C 348.457031 924.542969 346.628906 926.496094 346.019531 930.273438 C 343.945312 931.371094 342.484375 932.957031 341.75 935.273438 L 341.75 953.195312 C 340.046875 954.902344 336.265625 956.730469 330.539062 958.4375 C 328.953125 958.191406 327.976562 958.679688 327.488281 960.144531 L 327.488281 981.113281 C 331.023438 983.308594 332.488281 986.597656 331.753906 991.234375 C 335.410156 992.328125 337 995.863281 336.507812 1001.835938 L 336.507812 1145.824219 C 330.902344 1150.457031 324.078125 1153.015625 316.03125 1153.625 L 316.03125 1186.054688 C 321.148438 1187.398438 323.34375 1190.933594 322.367188 1196.660156 C 328.34375 1199.585938 329.683594 1203.976562 326.636719 1209.953125 L 326.636719 1348.207031 L 306.035156 1348.207031 C 306.035156 1348.085938 306.035156 1348.085938 305.914062 1348.085938 C 304.9375 1347.109375 303.964844 1346.621094 302.746094 1346.621094 C 301.40625 1346.621094 300.308594 1347.109375 299.332031 1348.085938 L 299.210938 1348.207031 L 298.722656 1348.207031 C 298.722656 1348.085938 298.722656 1348.085938 298.601562 1348.085938 C 297.628906 1347.109375 296.652344 1346.621094 295.433594 1346.621094 C 294.09375 1346.621094 292.996094 1347.109375 292.019531 1348.085938 L 291.898438 1348.207031 L 290.316406 1348.207031 L 290.191406 1348.085938 C 289.339844 1347.109375 288.242188 1346.621094 287.023438 1346.621094 C 285.683594 1346.621094 284.585938 1347.109375 283.609375 1348.085938 L 283.488281 1348.207031 L 276.175781 1348.207031 C 274.46875 1348.207031 273.738281 1348.9375 273.738281 1350.648438 L 273.738281 1372.105469 C 273.25 1371.984375 272.761719 1371.984375 272.273438 1371.984375 C 270.933594 1371.984375 269.960938 1372.347656 268.984375 1373.203125 L 268.859375 1373.324219 L 268.25 1373.324219 L 268.25 1373.203125 C 267.277344 1372.351562 266.179688 1371.984375 264.960938 1371.984375 C 263.621094 1371.984375 262.644531 1372.347656 261.671875 1373.203125 L 261.550781 1373.324219 L 253.261719 1373.324219 C 253.019531 1371.738281 252.894531 1370.398438 252.652344 1369.300781 C 253.503906 1369.054688 254.234375 1368.691406 254.84375 1367.957031 C 256.0625 1366.863281 256.550781 1365.519531 256.550781 1363.933594 C 256.550781 1362.351562 256.066406 1361.007812 254.84375 1359.910156 C 253.75 1358.816406 252.40625 1358.203125 250.945312 1358.203125 C 249.238281 1358.203125 248.019531 1358.8125 246.800781 1359.910156 C 245.703125 1361.007812 245.214844 1362.351562 245.214844 1363.933594 C 245.214844 1365.519531 245.699219 1366.859375 246.800781 1367.957031 C 247.53125 1368.691406 248.261719 1369.054688 249.238281 1369.425781 C 249.117188 1370.273438 248.871094 1371.128906 248.753906 1372.347656 C 248.019531 1371.984375 247.410156 1371.984375 246.800781 1371.984375 C 245.460938 1371.984375 244.363281 1372.347656 243.390625 1373.203125 C 243.390625 1373.324219 243.390625 1373.324219 243.269531 1373.324219 L 242.78125 1373.324219 C 242.660156 1373.324219 242.660156 1373.324219 242.660156 1373.203125 C 241.804688 1372.351562 240.707031 1371.984375 239.488281 1371.984375 C 238.148438 1371.984375 237.050781 1372.347656 236.074219 1373.203125 C 236.074219 1373.324219 236.074219 1373.324219 235.953125 1373.324219 L 234.371094 1373.324219 C 234.246094 1373.324219 234.246094 1373.324219 234.246094 1373.203125 C 233.394531 1372.351562 232.296875 1371.984375 230.957031 1371.984375 C 229.738281 1371.984375 228.640625 1372.347656 227.789062 1373.203125 C 227.667969 1373.324219 227.667969 1373.324219 227.542969 1373.324219 L 220.230469 1373.324219 C 218.644531 1373.324219 217.789062 1374.175781 217.789062 1375.761719 L 217.789062 1400.390625 C 217.058594 1400.636719 216.328125 1401 215.597656 1401.613281 C 215.597656 1401.734375 215.597656 1401.734375 215.472656 1401.855469 L 214.988281 1401.855469 C 214.863281 1401.734375 214.863281 1401.734375 214.742188 1401.613281 C 213.890625 1400.757812 212.792969 1400.390625 211.574219 1400.390625 C 210.234375 1400.390625 209.136719 1400.757812 208.28125 1401.613281 C 208.28125 1401.734375 208.28125 1401.734375 208.160156 1401.855469 L 206.578125 1401.855469 C 206.457031 1401.734375 206.457031 1401.734375 206.457031 1401.613281 C 205.480469 1400.757812 204.382812 1400.390625 203.164062 1400.390625 C 201.824219 1400.390625 200.726562 1400.757812 199.875 1401.613281 C 199.875 1401.734375 199.875 1401.734375 199.753906 1401.855469 L 197.800781 1401.855469 C 194.023438 1395.023438 188.539062 1390.757812 181.222656 1389.050781 L 181.222656 1373.445312 L 164.277344 1373.445312 C 156.722656 1360.398438 143.3125 1350.28125 124.171875 1343.453125 C 123.6875 1343.335938 123.199219 1343.210938 122.832031 1342.964844 C 121.492188 1341.625 119.785156 1340.894531 117.835938 1340.773438 C 116.738281 1340.527344 115.886719 1340.285156 115.277344 1339.550781 L 115.277344 1338.578125 C 115.15625 1337.238281 115.15625 1335.894531 115.035156 1334.796875 C 114.914062 1334.1875 114.914062 1333.699219 114.789062 1333.085938 C 114.667969 1331.257812 114.304688 1330.164062 114.058594 1329.550781 L 114.058594 1328.945312 C 114.304688 1328.945312 114.421875 1328.824219 114.546875 1328.699219 C 114.910156 1328.335938 114.910156 1328.089844 114.910156 1327.601562 C 114.910156 1327.238281 114.910156 1326.871094 114.546875 1326.628906 C 114.421875 1326.507812 114.304688 1326.382812 114.058594 1326.382812 L 113.085938 1326.382812 C 112.964844 1326.382812 112.71875 1326.382812 112.597656 1326.628906 C 112.355469 1326.871094 112.230469 1327.234375 112.230469 1327.601562 C 112.230469 1328.089844 112.355469 1328.335938 112.597656 1328.699219 C 112.71875 1328.820312 112.964844 1328.945312 113.085938 1328.945312 L 113.085938 1329.550781 C 112.839844 1330.164062 112.597656 1331.378906 112.351562 1333.085938 C 112.230469 1333.695312 112.230469 1334.183594 112.230469 1334.796875 C 112.109375 1335.890625 112.109375 1337.234375 111.988281 1338.578125 C 111.867188 1338.820312 111.867188 1339.183594 111.867188 1339.550781 C 111.378906 1340.285156 110.523438 1340.527344 109.429688 1340.773438 C 107.355469 1340.890625 105.648438 1341.625 104.308594 1342.964844 C 103.820312 1343.210938 103.335938 1343.453125 102.722656 1343.574219 C 83.585938 1350.523438 70.421875 1360.398438 62.984375 1373.445312 L 42.113281 1373.445312 L 42.113281 1386.246094 L 0.0585938 1386.246094 L 0.0585938 1499.875 L 1500 1499.875 L 1500 1455.128906 Z M 843.699219 1186.417969 C 843.335938 1186.417969 843.089844 1186.296875 842.847656 1186.054688 C 842.484375 1185.566406 841.992188 1185.074219 841.507812 1184.589844 C 841.261719 1184.222656 841.140625 1183.976562 841.140625 1183.738281 L 841.140625 1183.617188 C 840.777344 1183.617188 840.410156 1183.492188 840.167969 1183.25 C 840.042969 1183.003906 839.800781 1182.886719 839.558594 1182.640625 C 839.4375 1182.398438 839.195312 1182.035156 839.195312 1181.789062 C 839.195312 1181.421875 839.4375 1181.179688 839.558594 1180.9375 C 839.921875 1180.691406 840.167969 1180.570312 840.410156 1180.570312 C 840.773438 1180.570312 841.140625 1180.691406 841.386719 1180.9375 C 841.507812 1181.058594 841.75 1181.421875 841.992188 1181.542969 C 842.113281 1181.789062 842.359375 1182.035156 842.359375 1182.398438 L 842.359375 1182.519531 C 842.359375 1182.519531 842.359375 1182.519531 842.480469 1182.519531 C 842.726562 1182.519531 843.089844 1182.640625 843.210938 1182.882812 C 843.699219 1183.492188 844.1875 1183.855469 844.554688 1184.46875 C 844.796875 1184.710938 844.917969 1184.957031 844.917969 1185.320312 C 844.917969 1185.566406 844.796875 1185.929688 844.554688 1186.175781 C 844.308594 1186.296875 843.941406 1186.417969 843.699219 1186.417969 Z M 848.941406 1193.25 C 848.578125 1193.125 848.210938 1193.003906 847.96875 1192.636719 C 847.476562 1192.148438 847.234375 1191.660156 846.871094 1191.171875 C 846.625 1190.808594 846.503906 1190.566406 846.625 1190.078125 C 846.75 1189.589844 846.871094 1189.34375 847.234375 1189.101562 C 847.476562 1188.855469 847.96875 1188.734375 848.332031 1188.855469 C 848.695312 1188.976562 849.0625 1189.101562 849.308594 1189.464844 C 849.671875 1189.953125 849.917969 1190.199219 850.402344 1190.6875 C 850.523438 1191.050781 850.648438 1191.417969 850.648438 1191.785156 C 850.527344 1192.269531 850.402344 1192.636719 850.039062 1192.878906 C 849.796875 1193.125 849.429688 1193.246094 848.941406 1193.246094 Z M 854.550781 1201.78125 C 854.0625 1201.78125 853.699219 1201.535156 853.453125 1201.046875 C 852.964844 1200.316406 852.359375 1199.582031 851.867188 1198.851562 C 851.625 1198.488281 851.625 1197.878906 851.75 1197.511719 C 851.75 1196.902344 852.113281 1196.660156 852.480469 1196.292969 C 852.96875 1196.046875 853.332031 1195.925781 853.820312 1196.046875 C 854.308594 1196.046875 854.671875 1196.414062 854.917969 1196.902344 C 855.40625 1197.511719 856.015625 1198.363281 856.5 1199.097656 C 856.746094 1199.460938 856.746094 1199.949219 856.746094 1200.316406 C 856.625 1200.925781 856.378906 1201.167969 856.015625 1201.535156 C 855.527344 1201.78125 855.039062 1201.902344 854.550781 1201.78125 Z M 859.304688 1210.558594 C 858.816406 1210.4375 858.449219 1210.070312 858.207031 1209.707031 C 857.84375 1208.730469 857.230469 1207.875 856.867188 1207.023438 C 856.625 1206.535156 856.625 1206.046875 856.625 1205.683594 C 856.867188 1205.195312 857.230469 1204.832031 857.597656 1204.585938 C 857.960938 1204.222656 858.449219 1204.222656 859.0625 1204.34375 C 859.425781 1204.585938 859.792969 1204.832031 860.15625 1205.195312 C 860.644531 1206.171875 861.011719 1207.023438 861.496094 1208 C 861.617188 1208.488281 861.742188 1208.851562 861.617188 1209.339844 C 861.496094 1209.828125 861.128906 1210.195312 860.765625 1210.4375 C 860.277344 1210.679688 859.667969 1210.679688 859.304688 1210.558594 Z M 862.839844 1219.824219 C 862.59375 1219.214844 862.347656 1218.601562 862.109375 1217.996094 C 861.984375 1217.628906 861.984375 1217.140625 862.109375 1216.652344 C 862.347656 1216.164062 862.714844 1215.921875 863.203125 1215.679688 C 863.566406 1215.433594 864.054688 1215.433594 864.542969 1215.800781 C 865.03125 1215.921875 865.277344 1216.164062 865.519531 1216.652344 C 865.761719 1217.261719 866.007812 1217.871094 866.25 1218.480469 C 866.371094 1218.96875 866.371094 1219.457031 866.25 1219.945312 C 866.007812 1220.308594 865.761719 1220.796875 865.15625 1220.917969 C 864.789062 1221.039062 864.300781 1221.039062 863.933594 1220.917969 C 863.324219 1220.796875 863.082031 1220.3125 862.839844 1219.824219 Z M 865.886719 1228.601562 C 865.640625 1227.871094 865.398438 1227.136719 865.15625 1226.53125 C 865.035156 1226.042969 865.15625 1225.554688 865.277344 1225.1875 C 865.519531 1224.699219 865.882812 1224.457031 866.371094 1224.335938 C 866.523438 1224.257812 866.675781 1224.21875 866.824219 1224.191406 C 867.152344 1224.136719 867.460938 1224.207031 867.710938 1224.457031 C 868.199219 1224.578125 868.445312 1224.945312 868.6875 1225.433594 C 868.808594 1226.167969 869.175781 1226.773438 869.421875 1227.386719 C 869.542969 1227.871094 869.421875 1228.359375 869.296875 1228.847656 C 869.28125 1228.871094 869.257812 1228.890625 869.242188 1228.914062 C 869 1229.257812 868.65625 1229.59375 868.203125 1229.824219 C 867.714844 1229.945312 867.226562 1229.945312 866.859375 1229.578125 C 866.375 1229.453125 866.007812 1229.085938 865.886719 1228.601562 Z M 868.078125 1234.210938 C 867.59375 1233.84375 867.226562 1233.601562 867.101562 1233.113281 C 866.984375 1232.867188 866.984375 1232.503906 866.984375 1232.261719 C 866.859375 1231.773438 866.859375 1231.285156 867.101562 1230.796875 C 867.46875 1230.429688 867.835938 1230.066406 868.324219 1230.066406 C 868.808594 1229.945312 869.296875 1230.066406 869.664062 1230.308594 C 869.890625 1230.421875 870.058594 1230.589844 870.191406 1230.769531 C 870.34375 1230.976562 870.449219 1231.210938 870.515625 1231.40625 C 870.515625 1231.648438 870.636719 1231.769531 870.636719 1231.890625 C 870.714844 1232.203125 870.734375 1232.515625 870.679688 1232.824219 C 870.648438 1233.003906 870.601562 1233.179688 870.515625 1233.355469 C 870.269531 1233.71875 869.902344 1234.085938 869.417969 1234.207031 C 868.933594 1234.453125 868.445312 1234.332031 868.078125 1234.210938 Z M 869.90625 1244.085938 C 869.785156 1243.71875 869.90625 1243.355469 870.03125 1242.992188 C 870.273438 1242.625 870.640625 1242.378906 871.125 1242.257812 C 871.492188 1242.257812 871.859375 1242.257812 872.222656 1242.5 C 872.390625 1242.667969 872.605469 1242.839844 872.769531 1243.082031 C 872.847656 1243.199219 872.917969 1243.320312 872.957031 1243.472656 C 872.957031 1243.515625 872.964844 1243.5625 872.96875 1243.605469 C 872.992188 1243.929688 873.078125 1244.261719 873.078125 1244.691406 C 873.199219 1245.058594 873.078125 1245.425781 872.957031 1245.789062 C 872.59375 1246.15625 872.347656 1246.402344 871.859375 1246.402344 C 871.496094 1246.519531 871.128906 1246.402344 870.765625 1246.277344 C 870.398438 1245.914062 870.15625 1245.671875 870.15625 1245.183594 C 870.03125 1244.816406 870.03125 1244.453125 869.90625 1244.085938 Z M 870.882812 1249.9375 C 870.761719 1249.691406 870.761719 1249.449219 870.761719 1248.960938 C 870.761719 1248.597656 870.882812 1248.351562 871.25 1247.988281 C 871.617188 1247.621094 871.859375 1247.5 872.34375 1247.5 C 872.714844 1247.5 873.078125 1247.621094 873.320312 1247.988281 C 873.6875 1248.351562 873.808594 1248.59375 873.808594 1248.960938 C 873.933594 1249.449219 873.933594 1249.691406 873.6875 1250.058594 C 873.566406 1250.546875 873.199219 1250.789062 872.835938 1250.910156 C 872.46875 1251.03125 871.984375 1251.03125 871.738281 1250.789062 C 871.25 1250.667969 871.125 1250.304688 870.882812 1249.9375 Z M 872.34375 1260.542969 L 872.34375 1260.054688 C 872.34375 1260.054688 872.464844 1259.449219 872.714844 1259.203125 C 872.957031 1258.960938 873.199219 1258.839844 873.5625 1258.839844 C 873.808594 1258.839844 874.171875 1258.960938 874.414062 1259.203125 C 874.660156 1259.449219 874.78125 1259.8125 874.78125 1260.054688 C 874.78125 1260.300781 874.78125 1260.421875 874.78125 1260.542969 C 874.78125 1260.910156 874.660156 1261.152344 874.414062 1261.398438 C 874.171875 1261.640625 873.808594 1261.761719 873.5625 1261.761719 C 873.199219 1261.761719 872.957031 1261.640625 872.714844 1261.398438 C 872.46875 1261.152344 872.34375 1260.910156 872.34375 1260.542969 Z M 874.90625 1270.785156 C 874.785156 1271.027344 874.417969 1271.152344 874.171875 1271.152344 C 873.808594 1271.152344 873.566406 1271.027344 873.199219 1270.785156 C 873.078125 1270.542969 872.957031 1270.296875 872.957031 1269.933594 C 872.957031 1269.445312 872.957031 1268.957031 872.835938 1268.46875 C 872.835938 1268.226562 872.957031 1267.859375 873.078125 1267.617188 C 873.320312 1267.371094 873.6875 1267.25 874.054688 1267.128906 C 874.296875 1267.128906 874.542969 1267.25 874.90625 1267.492188 C 875.027344 1267.738281 875.269531 1267.980469 875.269531 1268.347656 C 875.390625 1268.835938 875.390625 1269.445312 875.390625 1269.929688 C 875.390625 1270.296875 875.269531 1270.542969 874.90625 1270.785156 Z M 1181.851562 972.9375 C 1182.21875 972.574219 1182.707031 972.332031 1183.316406 972.332031 C 1183.925781 972.332031 1184.535156 972.574219 1185.019531 972.9375 C 1185.386719 973.425781 1185.628906 974.035156 1185.628906 974.523438 L 1185.628906 975.988281 C 1185.628906 976.59375 1185.386719 977.085938 1185.019531 977.453125 C 1184.535156 977.9375 1183.925781 978.058594 1183.316406 978.058594 C 1182.707031 978.058594 1182.21875 977.9375 1181.851562 977.453125 C 1181.488281 977.085938 1181.242188 976.597656 1181.242188 975.988281 L 1181.242188 974.523438 C 1181.242188 974.035156 1181.488281 973.425781 1181.851562 972.9375 Z M 1181.242188 942.09375 L 1181.242188 939.53125 C 1181.242188 938.921875 1181.488281 938.433594 1181.851562 937.949219 C 1182.21875 937.582031 1182.707031 937.339844 1183.316406 937.339844 C 1183.925781 937.339844 1184.535156 937.582031 1185.019531 937.949219 C 1185.386719 938.433594 1185.628906 938.921875 1185.628906 939.53125 L 1185.628906 942.09375 C 1185.511719 942.582031 1185.265625 943.066406 1185.019531 943.3125 C 1184.535156 943.800781 1183.925781 943.921875 1183.316406 943.921875 C 1182.707031 943.921875 1182.21875 943.800781 1181.851562 943.3125 C 1181.488281 943.066406 1181.363281 942.582031 1181.242188 942.09375 Z M 1185.628906 932.707031 C 1185.628906 933.316406 1185.386719 933.800781 1185.019531 934.171875 C 1184.535156 934.65625 1183.925781 934.777344 1183.316406 934.777344 C 1182.707031 934.777344 1182.21875 934.65625 1181.851562 934.171875 C 1181.488281 933.804688 1181.242188 933.316406 1181.242188 932.707031 L 1181.242188 931 C 1181.242188 930.390625 1181.488281 929.902344 1181.851562 929.414062 C 1182.21875 929.050781 1182.707031 928.804688 1183.316406 928.804688 C 1183.925781 928.804688 1184.535156 929.050781 1185.019531 929.414062 C 1185.386719 929.902344 1185.628906 930.390625 1185.628906 931 Z M 1181.242188 923.804688 L 1181.242188 922.464844 C 1181.242188 921.855469 1181.488281 921.367188 1181.851562 920.878906 C 1182.21875 920.511719 1182.707031 920.269531 1183.316406 920.269531 C 1183.925781 920.269531 1184.535156 920.511719 1185.019531 920.878906 C 1185.386719 921.367188 1185.628906 921.855469 1185.628906 922.464844 L 1185.628906 923.804688 C 1185.628906 924.414062 1185.386719 925.027344 1185.019531 925.390625 C 1184.535156 925.753906 1183.925781 926 1183.316406 926 C 1182.707031 926 1182.21875 925.753906 1181.851562 925.390625 C 1181.488281 925.027344 1181.242188 924.414062 1181.242188 923.804688 Z M 1207.085938 785.304688 L 1207.085938 783.351562 C 1207.085938 782.867188 1207.207031 782.253906 1207.574219 781.890625 C 1208.0625 781.523438 1208.425781 781.402344 1209.039062 781.402344 C 1209.644531 781.402344 1210.136719 781.523438 1210.5 781.890625 C 1210.863281 782.253906 1211.234375 782.867188 1211.234375 783.351562 L 1211.234375 785.304688 C 1211.234375 785.914062 1210.867188 786.402344 1210.5 786.644531 C 1210.136719 787.132812 1209.648438 787.375 1209.039062 787.375 C 1208.425781 787.375 1208.0625 787.132812 1207.574219 786.644531 C 1207.207031 786.402344 1207.085938 785.914062 1207.085938 785.304688 Z M 1185.996094 751.167969 C 1185.996094 751.777344 1185.75 752.265625 1185.386719 752.507812 C 1185.140625 752.996094 1184.65625 753.117188 1184.046875 753.117188 C 1183.558594 753.117188 1183.195312 752.996094 1182.828125 752.507812 C 1182.460938 752.265625 1182.21875 751.777344 1182.21875 751.167969 L 1182.21875 743.242188 C 1182.21875 742.636719 1182.460938 742.148438 1182.828125 741.902344 C 1183.191406 741.417969 1183.558594 741.292969 1184.046875 741.292969 C 1184.65625 741.292969 1185.140625 741.417969 1185.386719 741.902344 C 1185.75 742.148438 1185.996094 742.636719 1185.996094 743.242188 Z M 1190.507812 611.449219 L 1190.507812 607.304688 C 1190.507812 607.0625 1190.628906 606.695312 1190.75 606.332031 C 1191.117188 606.085938 1191.359375 606.085938 1191.847656 606.085938 C 1192.214844 606.085938 1192.457031 606.085938 1192.699219 606.332031 C 1193.066406 606.695312 1193.066406 607.0625 1193.066406 607.304688 L 1193.066406 611.449219 C 1193.066406 611.691406 1193.066406 612.058594 1192.699219 612.179688 C 1192.457031 612.546875 1192.214844 612.667969 1191.847656 612.667969 C 1191.359375 612.667969 1191.117188 612.546875 1190.75 612.179688 C 1190.628906 612.058594 1190.507812 611.691406 1190.507812 611.449219 Z M 1207.207031 743.242188 C 1207.207031 742.636719 1207.449219 742.148438 1207.816406 741.902344 C 1208.179688 741.417969 1208.546875 741.292969 1209.035156 741.292969 C 1209.644531 741.292969 1210.132812 741.417969 1210.5 741.902344 C 1210.742188 742.148438 1210.988281 742.636719 1210.988281 743.242188 L 1210.988281 751.167969 C 1210.988281 751.777344 1210.742188 752.265625 1210.5 752.507812 C 1210.136719 752.996094 1209.644531 753.117188 1209.035156 753.117188 C 1208.546875 753.117188 1208.183594 752.996094 1207.816406 752.507812 C 1207.449219 752.265625 1207.207031 751.777344 1207.207031 751.167969 Z M 1200.136719 578.289062 C 1200.136719 577.925781 1200.257812 577.558594 1200.503906 577.3125 C 1200.867188 577.070312 1201.113281 576.949219 1201.476562 576.949219 C 1201.84375 576.949219 1202.210938 577.066406 1202.332031 577.3125 C 1202.695312 577.558594 1202.820312 577.925781 1202.820312 578.289062 L 1202.820312 589.75 C 1202.820312 590.234375 1202.699219 590.480469 1202.332031 590.722656 C 1202.210938 590.96875 1201.84375 591.210938 1201.476562 591.210938 C 1201.113281 591.210938 1200.871094 590.96875 1200.503906 590.722656 C 1200.257812 590.480469 1200.136719 590.234375 1200.136719 589.75 Z M 1200.136719 595.601562 C 1200.136719 595.234375 1200.257812 594.992188 1200.503906 594.625 C 1200.867188 594.382812 1201.113281 594.261719 1201.476562 594.261719 C 1201.84375 594.261719 1202.210938 594.382812 1202.332031 594.625 C 1202.695312 594.992188 1202.820312 595.234375 1202.820312 595.601562 L 1202.820312 599.621094 C 1202.820312 599.988281 1202.699219 600.230469 1202.332031 600.476562 C 1202.210938 600.71875 1201.84375 600.839844 1201.476562 600.839844 C 1201.113281 600.839844 1200.871094 600.722656 1200.503906 600.476562 C 1200.382812 600.230469 1200.257812 599.988281 1200.136719 599.621094 Z M 1190.507812 573.042969 C 1190.507812 572.679688 1190.628906 572.433594 1190.75 572.070312 L 1190.75 571.949219 C 1191.117188 571.828125 1191.359375 571.703125 1191.847656 571.703125 C 1192.214844 571.703125 1192.457031 571.824219 1192.699219 571.949219 L 1192.699219 572.070312 C 1193.066406 572.433594 1193.066406 572.679688 1193.066406 573.042969 L 1193.066406 576.703125 C 1193.066406 577.066406 1193.066406 577.433594 1192.699219 577.554688 C 1192.457031 577.921875 1192.214844 578.042969 1191.847656 578.042969 C 1191.359375 578.042969 1191.117188 577.921875 1190.75 577.554688 C 1190.628906 577.433594 1190.507812 577.066406 1190.507812 576.703125 Z M 1190.507812 585.359375 L 1190.507812 581.578125 C 1190.507812 581.089844 1190.628906 580.847656 1190.75 580.480469 C 1191.117188 580.359375 1191.359375 580.238281 1191.847656 580.238281 C 1192.214844 580.238281 1192.457031 580.359375 1192.699219 580.480469 C 1193.066406 580.84375 1193.066406 581.089844 1193.066406 581.578125 L 1193.066406 585.480469 C 1193.066406 585.84375 1193.066406 586.089844 1192.699219 586.335938 C 1192.457031 586.578125 1192.214844 586.820312 1191.847656 586.820312 C 1191.359375 586.820312 1191.117188 586.578125 1190.75 586.335938 C 1190.628906 586.089844 1190.507812 585.847656 1190.507812 585.480469 Z M 1190.507812 590.722656 C 1190.507812 590.359375 1190.628906 589.996094 1190.75 589.625 C 1191.117188 589.503906 1191.359375 589.261719 1191.847656 589.261719 C 1192.214844 589.261719 1192.457031 589.503906 1192.699219 589.625 C 1193.066406 589.992188 1193.066406 590.359375 1193.066406 590.722656 L 1193.066406 592.675781 C 1193.066406 593.042969 1193.066406 593.285156 1192.699219 593.648438 C 1192.457031 593.894531 1192.214844 594.015625 1191.847656 594.015625 C 1191.359375 594.015625 1191.117188 593.894531 1190.75 593.648438 C 1190.628906 593.285156 1190.507812 593.042969 1190.507812 592.675781 Z M 1190.507812 602.425781 L 1190.507812 598.769531 C 1190.507812 598.523438 1190.628906 598.160156 1190.75 597.792969 C 1191.117188 597.550781 1191.359375 597.429688 1191.847656 597.429688 C 1192.214844 597.429688 1192.457031 597.550781 1192.699219 597.792969 C 1193.066406 598.160156 1193.066406 598.523438 1193.066406 598.769531 L 1193.066406 602.425781 C 1193.066406 602.914062 1193.066406 603.160156 1192.699219 603.402344 C 1192.457031 603.644531 1192.214844 603.890625 1191.847656 603.890625 C 1191.359375 603.890625 1191.117188 603.644531 1190.75 603.402344 C 1190.628906 603.160156 1190.507812 602.917969 1190.507812 602.425781 Z M 1182.097656 785.304688 L 1182.097656 783.351562 C 1182.097656 782.867188 1182.21875 782.253906 1182.582031 781.890625 C 1182.949219 781.523438 1183.4375 781.402344 1184.046875 781.402344 C 1184.65625 781.402344 1185.140625 781.523438 1185.511719 781.890625 C 1185.875 782.253906 1186.242188 782.867188 1186.242188 783.351562 L 1186.242188 785.304688 C 1186.242188 785.914062 1185.875 786.402344 1185.511719 786.644531 C 1185.144531 787.132812 1184.65625 787.375 1184.046875 787.375 C 1183.4375 787.375 1182.949219 787.132812 1182.582031 786.644531 C 1182.21875 786.402344 1182.097656 785.914062 1182.097656 785.304688 Z M 1185.75 1015.613281 C 1185.75 1016.222656 1185.628906 1016.832031 1185.140625 1017.199219 C 1184.65625 1017.6875 1184.167969 1017.929688 1183.558594 1017.929688 L 1183.4375 1017.929688 C 1182.828125 1017.929688 1182.34375 1017.6875 1181.972656 1017.199219 C 1181.488281 1016.832031 1181.242188 1016.222656 1181.242188 1015.613281 L 1181.242188 1010.617188 C 1181.242188 1010.007812 1181.488281 1009.519531 1181.972656 1009.03125 C 1182.339844 1008.542969 1182.828125 1008.296875 1183.4375 1008.296875 L 1183.558594 1008.296875 C 1184.167969 1008.296875 1184.65625 1008.542969 1185.140625 1009.03125 C 1185.628906 1009.519531 1185.75 1010.007812 1185.75 1010.617188 Z M 1212.082031 975.988281 C 1212.082031 976.597656 1211.960938 977.085938 1211.476562 977.453125 C 1210.988281 977.941406 1210.5 978.0625 1209.890625 978.0625 C 1209.28125 978.0625 1208.792969 977.941406 1208.304688 977.453125 C 1207.941406 977.089844 1207.695312 976.597656 1207.695312 975.988281 L 1207.695312 974.523438 C 1207.695312 974.035156 1207.941406 973.429688 1208.304688 972.941406 C 1208.792969 972.574219 1209.28125 972.332031 1209.890625 972.332031 C 1210.5 972.332031 1210.988281 972.574219 1211.476562 972.941406 C 1211.960938 973.429688 1212.082031 974.035156 1212.082031 974.523438 Z M 1212.082031 941.851562 L 1212.082031 942.097656 C 1211.960938 942.585938 1211.839844 943.070312 1211.476562 943.316406 C 1210.988281 943.804688 1210.5 943.925781 1209.890625 943.925781 C 1209.28125 943.925781 1208.792969 943.804688 1208.304688 943.316406 C 1208.0625 943.070312 1207.816406 942.585938 1207.695312 942.097656 L 1207.695312 939.535156 C 1207.695312 938.925781 1207.941406 938.4375 1208.304688 937.953125 C 1208.792969 937.585938 1209.28125 937.34375 1209.890625 937.34375 C 1210.5 937.34375 1210.988281 937.585938 1211.476562 937.953125 C 1211.960938 938.4375 1212.082031 938.925781 1212.082031 939.535156 Z M 1212.082031 932.710938 C 1212.082031 933.320312 1211.960938 933.804688 1211.476562 934.175781 C 1210.988281 934.660156 1210.5 934.78125 1209.890625 934.78125 C 1209.28125 934.78125 1208.792969 934.660156 1208.304688 934.175781 C 1207.941406 933.808594 1207.695312 933.320312 1207.695312 932.710938 L 1207.695312 931.003906 C 1207.695312 930.394531 1207.941406 929.90625 1208.304688 929.417969 C 1208.792969 929.054688 1209.28125 928.808594 1209.890625 928.808594 C 1210.5 928.808594 1210.988281 929.054688 1211.476562 929.417969 C 1211.960938 929.90625 1212.082031 930.394531 1212.082031 931.003906 Z M 1212.082031 923.808594 C 1212.082031 924.417969 1211.960938 925.027344 1211.476562 925.394531 C 1210.988281 925.757812 1210.5 926.003906 1209.890625 926.003906 C 1209.28125 926.003906 1208.792969 925.757812 1208.304688 925.394531 C 1207.941406 925.027344 1207.695312 924.417969 1207.695312 923.808594 L 1207.695312 922.46875 C 1207.695312 921.859375 1207.941406 921.371094 1208.304688 920.882812 C 1208.792969 920.515625 1209.28125 920.273438 1209.890625 920.273438 C 1210.5 920.273438 1210.988281 920.515625 1211.476562 920.882812 C 1211.960938 921.371094 1212.082031 921.859375 1212.082031 922.46875 Z M 1212.082031 923.808594 " fill-opacity="1" fill-rule="nonzero"/></g><path fill="#000000" d="M 737.851562 1055.546875 C 737.828125 1055.480469 737.792969 1055.421875 737.773438 1055.355469 C 737.769531 1055.417969 737.804688 1055.480469 737.851562 1055.546875 Z M 737.851562 1055.546875 " fill-opacity="1" fill-rule="nonzero"/></svg>