<svg xmlns="http://www.w3.org/2000/svg" xmlns:xlink="http://www.w3.org/1999/xlink" width="2000" zoomAndPan="magnify" viewBox="0 0 1500 1499.999933" height="2000" preserveAspectRatio="xMidYMid meet" version="1.0"><path fill="#ffffff" d="M 749.832031 710.089844 C 746.332031 710.089844 742.832031 710.003906 739.335938 709.832031 C 735.839844 709.660156 732.351562 709.402344 728.867188 709.058594 C 725.382812 708.714844 721.910156 708.289062 718.445312 707.773438 C 714.980469 707.261719 711.535156 706.664062 708.101562 705.980469 C 704.667969 705.296875 701.25 704.53125 697.855469 703.679688 C 694.460938 702.832031 691.085938 701.898438 687.734375 700.882812 C 684.386719 699.867188 681.0625 698.769531 677.765625 697.589844 C 674.46875 696.410156 671.203125 695.152344 667.96875 693.8125 C 664.734375 692.472656 661.535156 691.054688 658.367188 689.558594 C 655.203125 688.0625 652.078125 686.492188 648.988281 684.839844 C 645.902344 683.191406 642.855469 681.46875 639.851562 679.667969 C 636.847656 677.871094 633.890625 675.996094 630.980469 674.054688 C 628.070312 672.109375 625.207031 670.09375 622.394531 668.011719 C 619.582031 665.925781 616.820312 663.773438 614.113281 661.554688 C 611.40625 659.332031 608.757812 657.046875 606.160156 654.699219 C 603.566406 652.347656 601.03125 649.933594 598.554688 647.460938 C 596.078125 644.984375 593.664062 642.453125 591.3125 639.859375 C 588.960938 637.265625 586.671875 634.617188 584.449219 631.910156 C 582.226562 629.207031 580.074219 626.449219 577.988281 623.636719 C 575.898438 620.828125 573.882812 617.964844 571.9375 615.054688 C 569.992188 612.144531 568.117188 609.191406 566.316406 606.1875 C 564.515625 603.1875 562.789062 600.140625 561.136719 597.054688 C 559.484375 593.96875 557.90625 590.84375 556.410156 587.679688 C 554.910156 584.515625 553.492188 581.316406 552.148438 578.082031 C 550.808594 574.847656 549.546875 571.585938 548.363281 568.289062 C 547.183594 564.992188 546.082031 561.671875 545.066406 558.320312 C 544.046875 554.972656 543.109375 551.597656 542.257812 548.203125 C 541.40625 544.808594 540.636719 541.394531 539.949219 537.960938 C 539.265625 534.527344 538.664062 531.078125 538.148438 527.617188 C 537.632812 524.152344 537.203125 520.679688 536.855469 517.195312 C 536.511719 513.714844 536.25 510.222656 536.074219 506.726562 C 535.902344 503.230469 535.8125 499.730469 535.808594 496.230469 C 535.808594 492.730469 535.890625 489.230469 536.058594 485.734375 C 536.226562 482.238281 536.484375 478.746094 536.824219 475.261719 C 537.164062 471.777344 537.589844 468.304688 538.101562 464.839844 C 538.609375 461.375 539.207031 457.925781 539.886719 454.492188 C 540.566406 451.058594 541.328125 447.644531 542.175781 444.246094 C 543.023438 440.851562 543.957031 437.476562 544.96875 434.125 C 545.980469 430.773438 547.078125 427.449219 548.253906 424.152344 C 549.429688 420.855469 550.683594 417.589844 552.023438 414.351562 C 553.359375 411.117188 554.773438 407.914062 556.265625 404.75 C 557.761719 401.582031 559.332031 398.457031 560.980469 395.367188 C 562.625 392.277344 564.347656 389.230469 566.144531 386.226562 C 567.941406 383.21875 569.8125 380.261719 571.753906 377.347656 C 573.695312 374.4375 575.707031 371.570312 577.789062 368.757812 C 579.871094 365.945312 582.023438 363.183594 584.238281 360.472656 C 586.457031 357.765625 588.742188 355.113281 591.089844 352.515625 C 593.4375 349.917969 595.847656 347.382812 598.320312 344.902344 C 600.792969 342.425781 603.324219 340.007812 605.914062 337.652344 C 608.507812 335.300781 611.15625 333.011719 613.859375 330.785156 C 616.5625 328.5625 619.316406 326.40625 622.128906 324.316406 C 624.9375 322.226562 627.796875 320.207031 630.703125 318.257812 C 633.613281 316.3125 636.566406 314.433594 639.566406 312.632812 C 642.566406 310.828125 645.609375 309.097656 648.695312 307.445312 C 651.78125 305.789062 654.90625 304.210938 658.070312 302.710938 C 661.230469 301.210938 664.429688 299.789062 667.660156 298.441406 C 670.894531 297.097656 674.15625 295.835938 677.453125 294.652344 C 680.746094 293.46875 684.070312 292.363281 687.417969 291.34375 C 690.765625 290.324219 694.136719 289.382812 697.535156 288.527344 C 700.929688 287.671875 704.339844 286.902344 707.773438 286.214844 C 711.207031 285.523438 714.65625 284.921875 718.117188 284.402344 C 721.578125 283.882812 725.050781 283.449219 728.535156 283.101562 C 732.019531 282.753906 735.507812 282.492188 739.003906 282.3125 C 742.503906 282.136719 746 282.046875 749.5 282.039062 C 753.003906 282.035156 756.5 282.113281 760 282.28125 C 763.496094 282.449219 766.984375 282.699219 770.472656 283.039062 C 773.957031 283.375 777.429688 283.796875 780.894531 284.304688 C 784.359375 284.8125 787.808594 285.40625 791.242188 286.082031 C 794.675781 286.761719 798.09375 287.523438 801.488281 288.367188 C 804.886719 289.210938 808.261719 290.140625 811.613281 291.152344 C 814.964844 292.160156 818.292969 293.253906 821.589844 294.425781 C 824.886719 295.601562 828.15625 296.855469 831.390625 298.1875 C 834.628906 299.523438 837.832031 300.933594 841 302.425781 C 844.164062 303.917969 847.292969 305.484375 850.386719 307.128906 C 853.476562 308.777344 856.523438 310.496094 859.53125 312.289062 C 862.535156 314.082031 865.496094 315.949219 868.410156 317.890625 C 871.324219 319.832031 874.191406 321.839844 877.007812 323.921875 C 879.824219 326 882.585938 328.148438 885.296875 330.363281 C 888.007812 332.582031 890.660156 334.859375 893.257812 337.207031 C 895.859375 339.554688 898.398438 341.960938 900.878906 344.433594 C 903.359375 346.902344 905.777344 349.433594 908.132812 352.023438 C 910.488281 354.613281 912.78125 357.257812 915.007812 359.960938 C 917.234375 362.660156 919.390625 365.417969 921.484375 368.222656 C 923.574219 371.03125 925.59375 373.890625 927.546875 376.796875 C 929.496094 379.703125 931.375 382.65625 933.179688 385.65625 C 934.988281 388.65625 936.71875 391.695312 938.375 394.78125 C 940.03125 397.863281 941.613281 400.988281 943.117188 404.148438 C 944.621094 407.308594 946.042969 410.507812 947.390625 413.738281 C 948.738281 416.96875 950.003906 420.234375 951.191406 423.527344 C 952.378906 426.820312 953.484375 430.140625 954.507812 433.488281 C 955.53125 436.835938 956.472656 440.207031 957.328125 443.601562 C 958.1875 446.996094 958.960938 450.410156 959.652344 453.839844 C 960.34375 457.273438 960.949219 460.71875 961.46875 464.183594 C 961.992188 467.644531 962.429688 471.117188 962.78125 474.601562 C 963.128906 478.082031 963.394531 481.574219 963.574219 485.070312 C 963.753906 488.566406 963.851562 492.0625 963.859375 495.566406 C 963.859375 499.070312 963.777344 502.574219 963.609375 506.078125 C 963.4375 509.582031 963.183594 513.078125 962.84375 516.566406 C 962.503906 520.054688 962.078125 523.535156 961.566406 527.003906 C 961.054688 530.472656 960.457031 533.925781 959.777344 537.367188 C 959.09375 540.808594 958.328125 544.226562 957.480469 547.628906 C 956.632812 551.03125 955.699219 554.410156 954.683594 557.765625 C 953.671875 561.125 952.574219 564.453125 951.394531 567.753906 C 950.21875 571.058594 948.960938 574.328125 947.621094 577.570312 C 946.28125 580.8125 944.863281 584.015625 943.367188 587.1875 C 941.871094 590.359375 940.300781 593.492188 938.648438 596.585938 C 937 599.679688 935.277344 602.730469 933.476562 605.742188 C 931.675781 608.75 929.804688 611.714844 927.859375 614.632812 C 925.914062 617.550781 923.898438 620.417969 921.8125 623.234375 C 919.726562 626.054688 917.574219 628.820312 915.351562 631.535156 C 913.132812 634.246094 910.84375 636.902344 908.492188 639.503906 C 906.140625 642.105469 903.726562 644.644531 901.25 647.128906 C 898.773438 649.609375 896.238281 652.03125 893.644531 654.390625 C 891.046875 656.746094 888.394531 659.039062 885.6875 661.265625 C 882.980469 663.496094 880.21875 665.65625 877.40625 667.746094 C 874.59375 669.839844 871.730469 671.859375 868.816406 673.8125 C 865.902344 675.765625 862.945312 677.644531 859.9375 679.449219 C 856.933594 681.257812 853.886719 682.988281 850.796875 684.644531 C 847.707031 686.300781 844.578125 687.882812 841.410156 689.386719 C 838.242188 690.890625 835.039062 692.3125 831.800781 693.660156 C 828.5625 695.007812 825.292969 696.273438 821.996094 697.457031 C 818.695312 698.644531 815.367188 699.75 812.015625 700.769531 C 808.660156 701.792969 805.28125 702.734375 801.882812 703.589844 C 798.484375 704.445312 795.0625 705.21875 791.625 705.910156 C 788.1875 706.597656 784.734375 707.203125 781.265625 707.722656 C 777.800781 708.242188 774.320312 708.675781 770.832031 709.023438 C 767.34375 709.375 763.847656 709.636719 760.347656 709.8125 C 756.84375 709.992188 753.339844 710.082031 749.832031 710.089844 Z M 749.832031 331.929688 C 747.148438 331.929688 744.464844 331.996094 741.78125 332.125 C 739.097656 332.257812 736.417969 332.457031 733.746094 332.71875 C 731.074219 332.984375 728.40625 333.3125 725.75 333.707031 C 723.09375 334.101562 720.445312 334.558594 717.8125 335.082031 C 715.179688 335.605469 712.558594 336.195312 709.953125 336.847656 C 707.347656 337.5 704.757812 338.21875 702.1875 338.996094 C 699.617188 339.777344 697.066406 340.617188 694.539062 341.523438 C 692.007812 342.429688 689.503906 343.394531 687.023438 344.421875 C 684.539062 345.449219 682.085938 346.539062 679.65625 347.6875 C 677.226562 348.835938 674.828125 350.042969 672.460938 351.308594 C 670.089844 352.574219 667.753906 353.898438 665.453125 355.28125 C 663.148438 356.660156 660.878906 358.097656 658.644531 359.589844 C 656.410156 361.082031 654.214844 362.628906 652.058594 364.230469 C 649.902344 365.828125 647.785156 367.480469 645.707031 369.1875 C 643.628906 370.890625 641.597656 372.644531 639.605469 374.449219 C 637.617188 376.25 635.671875 378.105469 633.773438 380.003906 C 631.871094 381.902344 630.019531 383.847656 628.21875 385.835938 C 626.414062 387.828125 624.660156 389.863281 622.957031 391.9375 C 621.25 394.015625 619.597656 396.132812 618 398.289062 C 616.398438 400.445312 614.851562 402.640625 613.359375 404.875 C 611.867188 407.109375 610.429688 409.378906 609.050781 411.683594 C 607.667969 413.984375 606.34375 416.324219 605.078125 418.691406 C 603.8125 421.058594 602.605469 423.460938 601.457031 425.886719 C 600.308594 428.316406 599.21875 430.769531 598.191406 433.253906 C 597.164062 435.734375 596.199219 438.238281 595.292969 440.769531 C 594.386719 443.296875 593.546875 445.847656 592.765625 448.417969 C 591.984375 450.988281 591.269531 453.578125 590.617188 456.183594 C 589.964844 458.789062 589.375 461.410156 588.851562 464.042969 C 588.328125 466.675781 587.867188 469.324219 587.476562 471.980469 C 587.082031 474.636719 586.753906 477.304688 586.488281 479.976562 C 586.226562 482.648438 586.027344 485.328125 585.894531 488.011719 C 585.765625 490.695312 585.699219 493.378906 585.699219 496.0625 C 585.699219 498.75 585.765625 501.433594 585.894531 504.117188 C 586.027344 506.800781 586.226562 509.480469 586.488281 512.152344 C 586.753906 514.824219 587.082031 517.492188 587.476562 520.148438 C 587.867188 522.804688 588.328125 525.449219 588.851562 528.085938 C 589.375 530.71875 589.964844 533.339844 590.617188 535.945312 C 591.269531 538.550781 591.984375 541.140625 592.765625 543.710938 C 593.546875 546.28125 594.386719 548.832031 595.292969 551.359375 C 596.199219 553.890625 597.164062 556.394531 598.191406 558.875 C 599.21875 561.359375 600.308594 563.8125 601.457031 566.242188 C 602.605469 568.667969 603.8125 571.066406 605.078125 573.4375 C 606.34375 575.804688 607.667969 578.144531 609.050781 580.445312 C 610.429688 582.75 611.867188 585.019531 613.359375 587.253906 C 614.851562 589.484375 616.398438 591.683594 618 593.839844 C 619.597656 595.996094 621.25 598.113281 622.957031 600.191406 C 624.660156 602.265625 626.414062 604.300781 628.21875 606.289062 C 630.019531 608.28125 631.871094 610.226562 633.773438 612.125 C 635.671875 614.023438 637.617188 615.875 639.605469 617.679688 C 641.597656 619.484375 643.628906 621.238281 645.707031 622.941406 C 647.785156 624.648438 649.902344 626.296875 652.058594 627.898438 C 654.214844 629.5 656.410156 631.046875 658.644531 632.539062 C 660.878906 634.03125 663.148438 635.464844 665.453125 636.847656 C 667.753906 638.230469 670.089844 639.550781 672.460938 640.820312 C 674.828125 642.085938 677.226562 643.292969 679.65625 644.441406 C 682.085938 645.589844 684.539062 646.675781 687.023438 647.707031 C 689.503906 648.734375 692.007812 649.699219 694.539062 650.605469 C 697.066406 651.507812 699.617188 652.351562 702.1875 653.132812 C 704.757812 653.910156 707.347656 654.628906 709.953125 655.28125 C 712.558594 655.933594 715.179688 656.523438 717.8125 657.046875 C 720.445312 657.570312 723.09375 658.027344 725.75 658.421875 C 728.40625 658.816406 731.070312 659.144531 733.746094 659.410156 C 736.417969 659.671875 739.097656 659.871094 741.78125 660 C 744.460938 660.132812 747.148438 660.199219 749.832031 660.199219 C 752.519531 660.199219 755.203125 660.132812 757.886719 660 C 760.570312 659.871094 763.25 659.671875 765.921875 659.410156 C 768.59375 659.144531 771.261719 658.816406 773.917969 658.421875 C 776.574219 658.027344 779.21875 657.570312 781.855469 657.046875 C 784.488281 656.523438 787.109375 655.933594 789.714844 655.28125 C 792.320312 654.628906 794.910156 653.910156 797.480469 653.132812 C 800.050781 652.351562 802.601562 651.511719 805.128906 650.605469 C 807.660156 649.699219 810.164062 648.734375 812.644531 647.707031 C 815.128906 646.675781 817.582031 645.589844 820.011719 644.441406 C 822.4375 643.292969 824.835938 642.085938 827.207031 640.820312 C 829.574219 639.550781 831.910156 638.230469 834.214844 636.847656 C 836.519531 635.464844 838.789062 634.03125 841.023438 632.539062 C 843.253906 631.046875 845.453125 629.5 847.609375 627.898438 C 849.765625 626.296875 851.882812 624.648438 853.960938 622.941406 C 856.035156 621.238281 858.070312 619.484375 860.058594 617.679688 C 862.050781 615.875 863.996094 614.023438 865.894531 612.125 C 867.792969 610.226562 869.644531 608.28125 871.449219 606.289062 C 873.253906 604.300781 875.007812 602.265625 876.710938 600.191406 C 878.414062 598.113281 880.066406 595.996094 881.667969 593.839844 C 883.269531 591.683594 884.816406 589.488281 886.308594 587.253906 C 887.800781 585.019531 889.234375 582.75 890.617188 580.445312 C 891.996094 578.144531 893.320312 575.804688 894.585938 573.4375 C 895.855469 571.066406 897.0625 568.667969 898.210938 566.242188 C 899.359375 563.8125 900.445312 561.359375 901.476562 558.875 C 902.503906 556.394531 903.46875 553.890625 904.375 551.359375 C 905.277344 548.832031 906.121094 546.28125 906.902344 543.710938 C 907.679688 541.140625 908.398438 538.550781 909.050781 535.945312 C 909.703125 533.339844 910.289062 530.71875 910.816406 528.085938 C 911.339844 525.449219 911.796875 522.804688 912.191406 520.148438 C 912.585938 517.492188 912.914062 514.824219 913.179688 512.152344 C 913.441406 509.480469 913.640625 506.800781 913.769531 504.117188 C 913.902344 501.433594 913.96875 498.75 913.96875 496.0625 C 913.972656 493.375 913.910156 490.6875 913.777344 488 C 913.648438 485.3125 913.457031 482.628906 913.195312 479.953125 C 912.933594 477.277344 912.605469 474.605469 912.214844 471.945312 C 911.824219 469.285156 911.367188 466.632812 910.84375 463.996094 C 910.324219 461.355469 909.738281 458.730469 909.085938 456.121094 C 908.4375 453.511719 907.722656 450.917969 906.945312 448.34375 C 906.167969 445.769531 905.328125 443.214844 904.421875 440.679688 C 903.519531 438.148438 902.554688 435.636719 901.527344 433.152344 C 900.503906 430.664062 899.417969 428.203125 898.269531 425.769531 C 897.121094 423.339844 895.917969 420.933594 894.652344 418.5625 C 893.386719 416.1875 892.066406 413.84375 890.683594 411.535156 C 889.304688 409.226562 887.871094 406.953125 886.378906 404.714844 C 884.886719 402.476562 883.339844 400.273438 881.742188 398.113281 C 880.144531 395.949219 878.492188 393.828125 876.789062 391.746094 C 875.085938 389.664062 873.332031 387.625 871.527344 385.628906 C 869.722656 383.632812 867.871094 381.683594 865.972656 379.777344 C 864.074219 377.871094 862.128906 376.015625 860.140625 374.207031 C 858.148438 372.398438 856.117188 370.636719 854.039062 368.925781 C 851.960938 367.21875 849.84375 365.558594 847.6875 363.953125 C 845.53125 362.347656 843.332031 360.796875 841.097656 359.296875 C 838.863281 357.800781 836.59375 356.355469 834.289062 354.96875 C 831.984375 353.582031 829.648438 352.253906 827.277344 350.984375 C 824.90625 349.710938 822.507812 348.496094 820.078125 347.34375 C 817.648438 346.1875 815.191406 345.09375 812.710938 344.0625 C 810.226562 343.027344 807.71875 342.054688 805.1875 341.144531 C 802.65625 340.234375 800.105469 339.386719 797.53125 338.597656 C 794.960938 337.8125 792.367188 337.09375 789.761719 336.433594 C 787.152344 335.773438 784.53125 335.179688 781.894531 334.652344 C 779.253906 334.121094 776.605469 333.65625 773.945312 333.257812 C 771.289062 332.855469 768.617188 332.523438 765.941406 332.253906 C 763.265625 331.984375 760.585938 331.78125 757.898438 331.644531 C 755.210938 331.507812 752.523438 331.4375 749.832031 331.429688 Z M 749.832031 331.929688 " fill-opacity="1" fill-rule="nonzero"/><path fill="#ffffff" d="M 749.667969 1248.726562 C 747.992188 1248.722656 746.332031 1248.554688 744.6875 1248.21875 C 743.042969 1247.882812 741.449219 1247.386719 739.90625 1246.730469 C 738.363281 1246.074219 736.902344 1245.269531 735.523438 1244.316406 C 734.140625 1243.363281 732.871094 1242.285156 731.707031 1241.074219 C 713.082031 1221.785156 273.558594 762.636719 273.558594 506.375 C 273.410156 498.492188 273.460938 490.609375 273.703125 482.726562 C 273.949219 474.847656 274.386719 466.976562 275.023438 459.117188 C 275.660156 451.261719 276.488281 443.421875 277.511719 435.605469 C 278.539062 427.785156 279.753906 420 281.167969 412.242188 C 282.578125 404.484375 284.183594 396.765625 285.976562 389.089844 C 287.773438 381.410156 289.757812 373.78125 291.929688 366.203125 C 294.105469 358.625 296.464844 351.105469 299.011719 343.644531 C 301.558594 336.179688 304.292969 328.789062 307.207031 321.460938 C 310.121094 314.136719 313.214844 306.886719 316.492188 299.714844 C 319.765625 292.542969 323.21875 285.457031 326.84375 278.453125 C 330.472656 271.453125 334.269531 264.546875 338.242188 257.734375 C 342.210938 250.921875 346.347656 244.214844 350.652344 237.605469 C 354.957031 231 359.421875 224.503906 364.046875 218.121094 C 368.671875 211.734375 373.453125 205.46875 378.390625 199.324219 C 383.328125 193.175781 388.417969 187.15625 393.652344 181.261719 C 398.890625 175.367188 404.269531 169.605469 409.792969 163.976562 C 415.316406 158.351562 420.976562 152.863281 426.769531 147.519531 C 432.566406 142.171875 438.492188 136.972656 444.542969 131.921875 C 450.597656 126.871094 456.773438 121.972656 463.070312 117.226562 C 469.367188 112.480469 475.78125 107.898438 482.304688 103.46875 C 488.828125 99.042969 495.460938 94.78125 502.195312 90.6875 C 508.933594 86.589844 515.769531 82.660156 522.699219 78.90625 C 529.632812 75.148438 536.652344 71.5625 543.761719 68.15625 C 550.871094 64.746094 558.0625 61.515625 565.332031 58.464844 C 572.601562 55.414062 579.945312 52.546875 587.355469 49.859375 C 594.769531 47.171875 602.246094 44.671875 609.78125 42.355469 C 617.316406 40.042969 624.90625 37.914062 632.550781 35.976562 C 640.195312 34.039062 647.878906 32.289062 655.609375 30.734375 C 663.339844 29.179688 671.101562 27.816406 678.898438 26.644531 C 686.695312 25.472656 694.519531 24.496094 702.363281 23.714844 C 710.210938 22.933594 718.070312 22.347656 725.945312 21.957031 C 733.820312 21.5625 741.699219 21.367188 749.585938 21.367188 C 757.46875 21.367188 765.347656 21.5625 773.222656 21.957031 C 781.097656 22.347656 788.957031 22.933594 796.804688 23.714844 C 804.648438 24.496094 812.472656 25.472656 820.269531 26.644531 C 828.066406 27.816406 835.828125 29.179688 843.558594 30.734375 C 851.289062 32.289062 858.972656 34.039062 866.617188 35.976562 C 874.261719 37.914062 881.851562 40.042969 889.386719 42.355469 C 896.925781 44.671875 904.398438 47.171875 911.8125 49.859375 C 919.222656 52.546875 926.566406 55.414062 933.835938 58.464844 C 941.105469 61.515625 948.296875 64.746094 955.40625 68.15625 C 962.515625 71.5625 969.535156 75.148438 976.46875 78.90625 C 983.402344 82.660156 990.234375 86.589844 996.972656 90.6875 C 1003.707031 94.78125 1010.339844 99.042969 1016.863281 103.46875 C 1023.390625 107.898438 1029.800781 112.480469 1036.097656 117.226562 C 1042.394531 121.972656 1048.570312 126.871094 1054.625 131.921875 C 1060.675781 136.972656 1066.601562 142.171875 1072.398438 147.519531 C 1078.191406 152.863281 1083.851562 158.351562 1089.375 163.976562 C 1094.898438 169.605469 1100.277344 175.367188 1105.515625 181.261719 C 1110.75 187.15625 1115.839844 193.175781 1120.777344 199.324219 C 1125.714844 205.46875 1130.496094 211.734375 1135.121094 218.121094 C 1139.75 224.503906 1144.214844 231 1148.515625 237.605469 C 1152.820312 244.214844 1156.957031 250.921875 1160.925781 257.734375 C 1164.898438 264.546875 1168.695312 271.453125 1172.324219 278.453125 C 1175.949219 285.457031 1179.402344 292.542969 1182.675781 299.714844 C 1185.953125 306.886719 1189.046875 314.136719 1191.960938 321.460938 C 1194.875 328.789062 1197.609375 336.179688 1200.15625 343.644531 C 1202.703125 351.105469 1205.0625 358.625 1207.238281 366.203125 C 1209.410156 373.78125 1211.394531 381.410156 1213.191406 389.089844 C 1214.984375 396.765625 1216.589844 404.484375 1218 412.242188 C 1219.414062 420 1220.628906 427.785156 1221.65625 435.605469 C 1222.679688 443.421875 1223.507812 451.257812 1224.144531 459.117188 C 1224.78125 466.976562 1225.21875 474.847656 1225.464844 482.726562 C 1225.707031 490.609375 1225.757812 498.492188 1225.609375 506.375 C 1225.609375 762.636719 786.253906 1221.453125 767.460938 1241.074219 C 766.316406 1242.285156 765.0625 1243.367188 763.695312 1244.320312 C 762.332031 1245.273438 760.882812 1246.078125 759.355469 1246.738281 C 757.824219 1247.394531 756.242188 1247.890625 754.613281 1248.226562 C 752.980469 1248.5625 751.332031 1248.726562 749.667969 1248.726562 Z M 749.667969 80.15625 C 742.695312 80.160156 735.722656 80.335938 728.757812 80.683594 C 721.792969 81.03125 714.839844 81.550781 707.902344 82.238281 C 700.960938 82.925781 694.042969 83.785156 687.144531 84.8125 C 680.246094 85.839844 673.378906 87.035156 666.539062 88.398438 C 659.699219 89.765625 652.898438 91.296875 646.132812 92.992188 C 639.371094 94.691406 632.652344 96.554688 625.980469 98.582031 C 619.308594 100.609375 612.6875 102.800781 606.121094 105.152344 C 599.558594 107.503906 593.054688 110.015625 586.613281 112.6875 C 580.167969 115.359375 573.796875 118.1875 567.492188 121.171875 C 561.191406 124.15625 554.964844 127.292969 548.816406 130.582031 C 542.664062 133.871094 536.601562 137.308594 530.621094 140.894531 C 524.636719 144.480469 518.75 148.210938 512.949219 152.089844 C 507.152344 155.964844 501.453125 159.980469 495.851562 164.132812 C 490.253906 168.289062 484.757812 172.578125 479.367188 177.003906 C 473.976562 181.429688 468.695312 185.984375 463.53125 190.667969 C 458.363281 195.351562 453.3125 200.15625 448.382812 205.089844 C 443.449219 210.019531 438.644531 215.070312 433.960938 220.238281 C 429.277344 225.402344 424.722656 230.683594 420.296875 236.074219 C 415.871094 241.464844 411.582031 246.960938 407.425781 252.558594 C 403.273438 258.160156 399.257812 263.859375 395.382812 269.660156 C 391.503906 275.457031 387.773438 281.34375 384.1875 287.328125 C 380.601562 293.308594 377.164062 299.371094 373.875 305.523438 C 370.585938 311.671875 367.449219 317.898438 364.464844 324.199219 C 361.480469 330.503906 358.652344 336.878906 355.980469 343.320312 C 353.308594 349.761719 350.796875 356.265625 348.445312 362.828125 C 346.09375 369.394531 343.902344 376.015625 341.875 382.6875 C 339.847656 389.359375 337.984375 396.078125 336.285156 402.839844 C 334.589844 409.605469 333.058594 416.40625 331.691406 423.246094 C 330.328125 430.085938 329.132812 436.953125 328.105469 443.851562 C 327.078125 450.75 326.21875 457.667969 325.53125 464.609375 C 324.84375 471.546875 324.324219 478.5 323.976562 485.464844 C 323.628906 492.429688 323.453125 499.402344 323.449219 506.375 C 323.449219 715.078125 666.351562 1097.726562 749.5 1188.191406 C 832.648438 1098.558594 1175.71875 715.910156 1175.71875 507.207031 C 1175.726562 500.226562 1175.558594 493.25 1175.222656 486.277344 C 1174.886719 479.304688 1174.378906 472.347656 1173.699219 465.398438 C 1173.023438 458.453125 1172.171875 451.527344 1171.15625 444.621094 C 1170.136719 437.714844 1168.949219 430.839844 1167.59375 423.992188 C 1166.238281 417.144531 1164.714844 410.335938 1163.027344 403.5625 C 1161.335938 396.789062 1159.480469 390.0625 1157.460938 383.382812 C 1155.441406 376.699219 1153.257812 370.074219 1150.914062 363.496094 C 1148.566406 356.921875 1146.0625 350.410156 1143.398438 343.960938 C 1140.734375 337.507812 1137.910156 331.125 1134.933594 324.8125 C 1131.957031 318.5 1128.824219 312.265625 1125.539062 306.105469 C 1122.257812 299.945312 1118.824219 293.871094 1115.242188 287.878906 C 1111.660156 281.890625 1107.929688 275.988281 1104.058594 270.179688 C 1100.1875 264.375 1096.175781 258.664062 1092.023438 253.054688 C 1087.871094 247.441406 1083.585938 241.9375 1079.164062 236.535156 C 1074.742188 231.136719 1070.191406 225.847656 1065.507812 220.667969 C 1060.828125 215.492188 1056.019531 210.433594 1051.089844 205.492188 C 1046.160156 200.550781 1041.113281 195.730469 1035.945312 191.039062 C 1030.78125 186.34375 1025.5 181.78125 1020.113281 177.34375 C 1014.722656 172.910156 1009.226562 168.609375 1003.625 164.445312 C 998.023438 160.28125 992.324219 156.253906 986.523438 152.371094 C 980.726562 148.484375 974.835938 144.746094 968.851562 141.148438 C 962.871094 137.550781 956.800781 134.105469 950.652344 130.804688 C 944.5 127.507812 938.269531 124.363281 931.964844 121.367188 C 925.660156 118.375 919.28125 115.539062 912.839844 112.859375 C 906.394531 110.179688 899.886719 107.660156 893.316406 105.296875 C 886.75 102.9375 880.125 100.738281 873.449219 98.703125 C 866.773438 96.667969 860.050781 94.796875 853.28125 93.09375 C 846.511719 91.386719 839.707031 89.847656 832.863281 88.476562 C 826.019531 87.105469 819.144531 85.902344 812.242188 84.867188 C 805.339844 83.832031 798.414062 82.96875 791.46875 82.273438 C 784.523438 81.578125 777.566406 81.054688 770.59375 80.703125 C 763.625 80.347656 756.648438 80.167969 749.667969 80.15625 Z M 749.667969 80.15625 " fill-opacity="1" fill-rule="nonzero"/><path fill="#ffffff" d="M 749.667969 1500.167969 C 463.136719 1500.167969 238.636719 1391.90625 238.636719 1255.042969 C 238.636719 1174.390625 314.800781 1101.71875 447.503906 1055.488281 C 448.277344 1055.214844 449.0625 1054.984375 449.859375 1054.789062 C 450.65625 1054.59375 451.460938 1054.4375 452.269531 1054.320312 C 453.082031 1054.207031 453.898438 1054.128906 454.71875 1054.09375 C 455.535156 1054.058594 456.355469 1054.0625 457.171875 1054.109375 C 457.992188 1054.152344 458.804688 1054.238281 459.617188 1054.363281 C 460.425781 1054.488281 461.226562 1054.652344 462.023438 1054.855469 C 462.816406 1055.058594 463.597656 1055.300781 464.367188 1055.578125 C 465.140625 1055.859375 465.894531 1056.175781 466.632812 1056.53125 C 467.371094 1056.886719 468.089844 1057.277344 468.792969 1057.699219 C 469.492188 1058.125 470.171875 1058.585938 470.828125 1059.074219 C 471.484375 1059.566406 472.113281 1060.089844 472.71875 1060.644531 C 473.324219 1061.199219 473.898438 1061.78125 474.445312 1062.390625 C 474.992188 1063 475.507812 1063.636719 475.992188 1064.296875 C 476.480469 1064.957031 476.929688 1065.640625 477.347656 1066.34375 C 477.765625 1067.050781 478.148438 1067.773438 478.496094 1068.515625 C 478.839844 1069.261719 479.152344 1070.019531 479.421875 1070.792969 C 479.695312 1071.5625 479.929688 1072.347656 480.125 1073.144531 C 480.320312 1073.941406 480.476562 1074.746094 480.589844 1075.554688 C 480.707031 1076.367188 480.785156 1077.183594 480.820312 1078 C 480.855469 1078.820312 480.851562 1079.640625 480.808594 1080.457031 C 480.761719 1081.277344 480.679688 1082.089844 480.554688 1082.902344 C 480.429688 1083.710938 480.265625 1084.511719 480.0625 1085.308594 C 479.859375 1086.101562 479.621094 1086.882812 479.339844 1087.652344 C 479.058594 1088.425781 478.742188 1089.179688 478.390625 1089.917969 C 478.035156 1090.65625 477.644531 1091.378906 477.21875 1092.078125 C 476.796875 1092.78125 476.335938 1093.457031 475.847656 1094.113281 C 475.355469 1094.769531 474.832031 1095.402344 474.277344 1096.007812 C 473.726562 1096.609375 473.144531 1097.1875 472.535156 1097.734375 C 471.925781 1098.28125 471.289062 1098.796875 470.628906 1099.285156 C 469.96875 1099.769531 469.285156 1100.21875 468.578125 1100.640625 C 467.875 1101.058594 467.152344 1101.441406 466.410156 1101.785156 C 465.667969 1102.132812 464.910156 1102.445312 464.136719 1102.714844 C 354.378906 1140.464844 288.859375 1197.339844 288.859375 1254.546875 C 288.859375 1348.835938 474.113281 1449.777344 750 1449.777344 C 1025.886719 1449.777344 1211.308594 1348.835938 1211.308594 1254.546875 C 1211.308594 1197.671875 1146.453125 1141.128906 1037.859375 1103.382812 C 1037.085938 1103.109375 1036.328125 1102.800781 1035.585938 1102.453125 C 1034.84375 1102.105469 1034.117188 1101.722656 1033.414062 1101.304688 C 1032.707031 1100.886719 1032.023438 1100.4375 1031.363281 1099.949219 C 1030.703125 1099.464844 1030.066406 1098.949219 1029.457031 1098.402344 C 1028.847656 1097.855469 1028.265625 1097.277344 1027.710938 1096.671875 C 1027.15625 1096.070312 1026.632812 1095.4375 1026.140625 1094.78125 C 1025.652344 1094.125 1025.191406 1093.445312 1024.765625 1092.746094 C 1024.34375 1092.042969 1023.953125 1091.324219 1023.597656 1090.585938 C 1023.242188 1089.84375 1022.925781 1089.089844 1022.644531 1088.320312 C 1022.367188 1087.550781 1022.125 1086.765625 1021.921875 1085.972656 C 1021.71875 1085.179688 1021.554688 1084.375 1021.429688 1083.566406 C 1021.304688 1082.753906 1021.222656 1081.941406 1021.175781 1081.121094 C 1021.132812 1080.304688 1021.128906 1079.484375 1021.164062 1078.664062 C 1021.199219 1077.847656 1021.277344 1077.03125 1021.390625 1076.21875 C 1021.507812 1075.40625 1021.664062 1074.601562 1021.859375 1073.804688 C 1022.054688 1073.011719 1022.289062 1072.226562 1022.5625 1071.453125 C 1022.832031 1070.679688 1023.144531 1069.921875 1023.488281 1069.175781 C 1023.835938 1068.433594 1024.21875 1067.710938 1024.636719 1067.003906 C 1025.054688 1066.300781 1025.507812 1065.617188 1025.992188 1064.957031 C 1026.476562 1064.292969 1026.992188 1063.660156 1027.539062 1063.046875 C 1028.089844 1062.4375 1028.664062 1061.855469 1029.269531 1061.300781 C 1029.875 1060.75 1030.503906 1060.226562 1031.160156 1059.734375 C 1031.816406 1059.242188 1032.496094 1058.785156 1033.195312 1058.359375 C 1033.898438 1057.933594 1034.617188 1057.542969 1035.355469 1057.191406 C 1036.097656 1056.835938 1036.851562 1056.519531 1037.621094 1056.238281 C 1038.390625 1055.957031 1039.175781 1055.714844 1039.96875 1055.511719 C 1040.765625 1055.308594 1041.566406 1055.144531 1042.375 1055.023438 C 1043.1875 1054.898438 1044 1054.8125 1044.820312 1054.769531 C 1045.640625 1054.722656 1046.457031 1054.71875 1047.277344 1054.757812 C 1048.097656 1054.792969 1048.910156 1054.867188 1049.722656 1054.984375 C 1050.535156 1055.101562 1051.339844 1055.257812 1052.136719 1055.453125 C 1052.933594 1055.648438 1053.714844 1055.878906 1054.488281 1056.152344 C 1186.03125 1101.882812 1261.53125 1174.222656 1261.53125 1254.546875 C 1260.863281 1391.90625 1036.363281 1500.167969 749.667969 1500.167969 Z M 749.667969 1500.167969 " fill-opacity="1" fill-rule="nonzero"/></svg>