<svg xmlns="http://www.w3.org/2000/svg" xmlns:xlink="http://www.w3.org/1999/xlink" width="2000" zoomAndPan="magnify" viewBox="0 0 1500 1499.999933" height="2000" preserveAspectRatio="xMidYMid meet" version="1.0"><path fill="#ffffff" d="M 572.792969 822.726562 C 596.03125 843.058594 623.628906 859.039062 658.492188 870.65625 C 691.898438 882.277344 729.664062 886.636719 771.789062 886.636719 C 799.386719 886.636719 825.53125 883.730469 848.769531 879.371094 C 872.011719 875.015625 893.800781 866.300781 912.683594 857.585938 C 931.566406 847.417969 948.996094 835.796875 962.066406 821.273438 C 976.59375 806.746094 988.214844 790.769531 996.929688 771.886719 L 941.734375 771.886719 C 927.207031 790.769531 908.324219 805.292969 886.535156 816.914062 C 864.75 827.082031 837.152344 834.34375 806.648438 838.703125 C 767.429688 843.058594 731.117188 841.605469 699.160156 834.34375 C 667.207031 827.082031 641.0625 815.460938 617.820312 799.484375 C 596.03125 783.507812 578.601562 763.171875 566.984375 738.476562 C 555.363281 713.785156 549.550781 687.640625 549.550781 658.589844 C 549.550781 636.800781 552.457031 615.015625 558.265625 593.226562 C 564.078125 571.4375 571.339844 552.554688 581.507812 535.125 C 593.128906 514.789062 607.652344 498.8125 625.082031 484.289062 C 642.511719 471.214844 662.847656 461.046875 686.089844 453.785156 C 709.328125 446.523438 735.476562 443.617188 763.074219 443.617188 C 790.671875 443.617188 815.363281 447.972656 837.152344 455.238281 C 858.9375 462.5 876.371094 472.667969 890.894531 485.738281 C 905.417969 498.8125 917.039062 514.789062 924.300781 532.222656 C 931.566406 549.652344 935.921875 569.984375 935.921875 590.320312 C 935.921875 615.015625 930.113281 638.253906 919.945312 658.589844 C 909.777344 678.925781 896.703125 696.355469 882.179688 707.976562 C 867.652344 719.597656 856.035156 725.40625 845.867188 725.40625 C 842.960938 725.40625 841.507812 723.953125 838.605469 722.5 C 837.152344 719.597656 835.699219 716.691406 835.699219 713.785156 C 835.699219 709.429688 837.152344 702.164062 838.605469 690.546875 L 877.820312 506.074219 L 809.554688 506.074219 L 803.742188 535.125 C 789.21875 511.886719 767.429688 500.265625 735.476562 500.265625 C 709.328125 500.265625 684.636719 508.980469 662.847656 524.957031 C 641.0625 540.9375 625.082031 562.722656 613.464844 588.867188 C 601.84375 615.015625 596.03125 641.160156 596.03125 668.757812 C 596.03125 694.902344 601.84375 716.691406 613.464844 734.121094 C 625.082031 751.550781 639.609375 764.625 657.039062 771.886719 C 674.46875 779.148438 693.351562 780.601562 713.6875 777.695312 C 732.570312 773.339844 750 764.625 764.523438 750.097656 C 767.429688 760.265625 771.789062 767.527344 780.503906 771.886719 C 787.765625 776.246094 799.386719 779.148438 812.457031 779.148438 C 835.699219 779.148438 858.9375 774.792969 879.273438 764.625 C 899.609375 754.457031 918.492188 739.929688 933.015625 722.5 C 948.996094 705.070312 960.617188 684.734375 967.878906 662.949219 C 976.59375 641.160156 979.496094 617.917969 979.496094 596.132812 C 979.496094 567.082031 975.140625 539.484375 964.972656 516.242188 C 954.804688 491.550781 940.28125 471.214844 921.398438 453.785156 C 902.515625 436.355469 879.273438 421.828125 851.675781 413.113281 C 824.078125 402.945312 795.027344 398.589844 763.074219 398.589844 C 723.855469 398.589844 687.542969 405.851562 654.132812 418.925781 C 620.726562 431.996094 593.128906 450.878906 569.886719 474.121094 C 546.648438 497.359375 529.21875 524.957031 517.597656 556.914062 C 505.976562 588.871094 498.714844 622.277344 498.714844 658.589844 C 498.714844 693.449219 504.523438 725.40625 516.144531 754.457031 C 532.121094 777.695312 549.550781 802.390625 572.792969 822.726562 Z M 781.957031 661.496094 C 776.144531 680.378906 765.976562 697.808594 754.359375 709.429688 C 742.738281 722.5 728.210938 728.3125 712.234375 728.3125 C 697.710938 728.3125 687.542969 722.5 678.828125 712.332031 C 670.113281 700.714844 665.753906 686.1875 665.753906 665.851562 C 665.753906 645.515625 668.660156 626.632812 675.921875 607.75 C 683.183594 588.867188 691.898438 574.34375 703.519531 562.722656 C 715.140625 551.105469 729.664062 545.292969 744.191406 545.292969 C 751.453125 545.292969 758.714844 546.746094 764.523438 549.652344 C 770.335938 552.554688 776.144531 556.914062 779.050781 562.722656 C 783.40625 568.535156 786.3125 574.34375 789.21875 581.605469 C 790.671875 588.867188 792.121094 597.585938 792.121094 606.300781 C 792.125 623.730469 789.21875 642.613281 781.957031 661.496094 Z M 781.957031 661.496094 " fill-opacity="1" fill-rule="nonzero"/><path fill="#ffffff" d="M 1361.511719 507.527344 C 1349.890625 501.71875 1339.722656 495.90625 1329.554688 490.097656 L 761.621094 173.449219 C 755.808594 169.089844 747.09375 169.089844 739.832031 173.449219 L 170.445312 490.097656 C 160.277344 495.90625 150.109375 501.71875 138.488281 507.527344 C 67.316406 545.292969 1.953125 578.703125 1.953125 665.851562 L 1.953125 1171.328125 C 1.953125 1220.714844 22.289062 1265.742188 54.242188 1297.699219 C 86.199219 1329.652344 131.226562 1349.988281 180.613281 1349.988281 L 1319.386719 1349.988281 C 1368.773438 1349.988281 1413.800781 1329.652344 1445.757812 1297.699219 C 1477.710938 1265.742188 1498.046875 1220.714844 1498.046875 1171.328125 L 1498.046875 665.851562 C 1498.046875 578.703125 1432.683594 543.839844 1361.511719 507.527344 Z M 158.824219 545.292969 C 168.992188 539.484375 179.160156 535.125 190.78125 527.863281 L 750 218.476562 L 1307.765625 527.863281 C 1319.386719 533.671875 1329.554688 539.484375 1339.722656 545.292969 C 1394.917969 574.34375 1445.757812 600.488281 1451.566406 652.78125 L 1036.144531 899.707031 L 750 1068.199219 L 463.855469 899.707031 L 46.980469 654.234375 C 54.242188 601.941406 105.082031 574.34375 158.824219 545.292969 Z M 46.980469 705.070312 L 410.109375 918.589844 L 46.980469 1132.109375 Z M 1413.800781 1265.742188 C 1389.109375 1290.4375 1355.699219 1304.960938 1319.386719 1304.960938 L 180.613281 1304.960938 C 144.300781 1304.960938 109.4375 1290.4375 86.199219 1265.742188 C 64.410156 1243.957031 49.886719 1214.90625 46.980469 1182.949219 L 453.6875 943.285156 L 739.832031 1111.777344 C 747.09375 1116.132812 755.808594 1116.132812 763.074219 1111.777344 L 1049.21875 943.285156 L 1455.925781 1182.949219 C 1450.113281 1214.90625 1435.589844 1243.957031 1413.800781 1265.742188 Z M 1453.019531 1132.109375 L 1089.890625 918.589844 L 1453.019531 705.070312 Z M 1453.019531 1132.109375 " fill-opacity="1" fill-rule="nonzero"/></svg>