<svg xmlns="http://www.w3.org/2000/svg" xmlns:xlink="http://www.w3.org/1999/xlink" width="2000" zoomAndPan="magnify" viewBox="0 0 1500 1499.999933" height="2000" preserveAspectRatio="xMidYMid meet" version="1.0"><path fill="#ffffff" d="M 1441.597656 1202.460938 L 1222.882812 983.746094 C 1189.992188 950.855469 1136.578125 950.855469 1103.6875 983.746094 L 999.390625 1088.042969 C 841.117188 994.148438 516.703125 670.015625 422.808594 511.460938 L 527.105469 407.164062 C 559.996094 374.273438 559.996094 320.859375 527.105469 287.96875 L 308.671875 69.539062 C 275.78125 36.644531 222.085938 36.644531 189.195312 69.539062 C 19.960938 239.054688 0 507.527344 143.652344 699.8125 C 143.933594 700.09375 393.570312 1055.714844 735.699219 1310.976562 C 781.519531 1337.679688 891.441406 1463.34375 1100.03125 1463.34375 C 1228.226562 1463.34375 1351.074219 1412.460938 1441.597656 1321.9375 C 1474.488281 1288.765625 1474.488281 1235.632812 1441.597656 1202.460938 Z M 1441.597656 1202.460938 " fill-opacity="1" fill-rule="nonzero"/><path fill="#ffffff" d="M 1105.65625 773.46875 C 1121.117188 773.46875 1133.769531 760.816406 1133.769531 745.355469 C 1133.769531 543.792969 969.875 379.898438 768.308594 379.898438 C 752.847656 379.898438 740.195312 392.546875 740.195312 408.007812 C 740.195312 423.46875 752.847656 436.121094 768.308594 436.121094 C 938.949219 436.121094 1077.542969 574.714844 1077.542969 745.355469 C 1077.542969 760.816406 1089.914062 773.46875 1105.65625 773.46875 Z M 1105.65625 773.46875 " fill-opacity="1" fill-rule="nonzero"/><path fill="#ffffff" d="M 731.199219 518.488281 C 715.738281 518.488281 703.085938 531.140625 703.085938 546.601562 C 703.085938 562.0625 715.738281 574.714844 731.199219 574.714844 C 845.617188 574.714844 938.667969 667.765625 938.667969 782.183594 C 938.667969 797.644531 951.320312 810.296875 966.78125 810.296875 C 982.242188 810.296875 994.894531 797.644531 994.894531 782.183594 C 994.894531 636.84375 876.539062 518.488281 731.199219 518.488281 Z M 731.199219 518.488281 " fill-opacity="1" fill-rule="nonzero"/><path fill="#ffffff" d="M 720.796875 264.355469 C 1012.324219 264.355469 1249.308594 501.339844 1249.308594 792.867188 C 1249.308594 808.328125 1261.960938 820.976562 1277.421875 820.976562 C 1292.882812 820.976562 1305.535156 808.328125 1305.535156 792.867188 C 1305.535156 470.417969 1043.246094 208.128906 720.796875 208.128906 C 705.335938 208.128906 692.6875 220.78125 692.6875 236.242188 C 692.6875 251.703125 705.335938 264.355469 720.796875 264.355469 Z M 720.796875 264.355469 " fill-opacity="1" fill-rule="nonzero"/></svg>