<svg xmlns="http://www.w3.org/2000/svg" xmlns:xlink="http://www.w3.org/1999/xlink" width="2000" zoomAndPan="magnify" viewBox="0 0 1500 1499.999933" height="2000" preserveAspectRatio="xMidYMid meet" version="1.0"><defs><clipPath id="299212132e"><path d="M 259.058594 120 L 1180.058594 120 L 1180.058594 1421 L 259.058594 1421 Z M 259.058594 120 " clip-rule="nonzero"/></clipPath></defs><g clip-path="url(#299212132e)"><path fill="#a6a6a6" d="M 794.53125 1420.671875 C 789.417969 1420.488281 752.984375 1420.433594 713.5625 1420.558594 C 638.765625 1420.796875 630.21875 1420.648438 604.949219 1418.679688 C 553.222656 1414.648438 531.277344 1411.152344 511.011719 1403.707031 C 505.828125 1401.800781 487.214844 1392.742188 480.464844 1388.839844 C 469.746094 1382.640625 449.890625 1368.617188 448.96875 1366.59375 C 448.636719 1365.871094 447.378906 1358.75 446.167969 1350.769531 C 444.960938 1342.789062 442.769531 1328.335938 441.300781 1318.648438 C 439.832031 1308.960938 436.089844 1284.304688 432.980469 1263.851562 C 429.871094 1243.402344 425.355469 1213.679688 422.945312 1197.804688 C 412.234375 1127.261719 407.898438 1098.726562 401.917969 1059.347656 C 398.402344 1036.207031 394.875 1012.976562 394.082031 1007.730469 C 392.527344 997.457031 381.886719 927.382812 374.285156 877.347656 C 371.707031 860.394531 368.398438 838.597656 366.933594 828.910156 C 365.464844 819.222656 361.722656 794.566406 358.613281 774.113281 C 355.507812 753.664062 350.992188 723.941406 348.582031 708.066406 C 337.867188 637.523438 333.535156 608.988281 327.550781 569.609375 C 324.035156 546.46875 320.511719 523.242188 319.714844 517.992188 C 318.921875 512.746094 316.507812 496.816406 314.347656 482.589844 C 312.1875 468.363281 310.421875 455.90625 310.421875 454.90625 L 310.421875 453.089844 L 301.828125 450.242188 C 285.964844 444.984375 269.878906 436.164062 261.617188 428.195312 L 259.050781 425.714844 L 259.050781 420.253906 C 259.050781 417.246094 260.375 393.042969 261.996094 366.460938 C 265.1875 314.109375 265.03125 315.53125 268.195312 310.859375 C 271.367188 306.175781 275.214844 302.96875 281.085938 300.109375 C 288.84375 296.332031 300.488281 292.726562 307.191406 292.019531 L 310.078125 291.714844 L 315.800781 274.59375 C 326.628906 242.195312 338.835938 210.972656 345.742188 198.023438 C 354.699219 181.222656 358.996094 177.359375 375.492188 171.265625 C 448.90625 144.140625 544.042969 126.808594 647.511719 121.707031 C 687.664062 119.726562 742.105469 119.730469 782.546875 121.714844 C 879.636719 126.472656 970.9375 142.042969 1041.789062 165.921875 C 1063.160156 173.125 1068.527344 175.148438 1076.09375 178.851562 C 1084.464844 182.949219 1088.066406 185.25 1091.539062 188.71875 C 1096.308594 193.480469 1098.109375 198.414062 1098.109375 206.695312 C 1098.109375 209.742188 1098.777344 216.617188 1099.804688 224.082031 C 1102.148438 241.140625 1106.429688 273.097656 1106.429688 273.515625 C 1106.429688 273.703125 1106.941406 273.859375 1107.566406 273.859375 C 1110.027344 273.859375 1128.570312 280.488281 1134.476562 283.480469 C 1140.34375 286.449219 1150.050781 293.933594 1155.378906 299.59375 C 1160.402344 304.929688 1163.179688 310.011719 1163.179688 313.859375 C 1163.179688 314.867188 1167.035156 335.597656 1171.742188 359.925781 L 1180.304688 404.164062 L 1180.304688 418.804688 L 1178.265625 422.632812 C 1175.367188 428.074219 1173.175781 430.789062 1169.378906 433.648438 C 1165.742188 436.386719 1159.898438 438.707031 1138.011719 446.109375 C 1129.792969 448.890625 1126.695312 450.148438 1126.453125 450.804688 C 1126.273438 451.296875 1125.960938 453.132812 1125.765625 454.882812 C 1125.570312 456.628906 1123.117188 473.140625 1120.308594 491.574219 C 1108.882812 566.601562 1104.773438 593.542969 1100.316406 622.691406 C 1097.742188 639.511719 1094.988281 657.566406 1094.195312 662.8125 C 1093.40625 668.058594 1091.203125 682.480469 1089.304688 694.859375 C 1087.40625 707.234375 1085.203125 721.65625 1084.410156 726.902344 C 1082.484375 739.625 1079.730469 757.6875 1076.09375 781.453125 C 1074.449219 792.21875 1072.246094 806.636719 1071.203125 813.5 C 1070.160156 820.363281 1067.1875 839.847656 1064.597656 856.796875 C 1062.011719 873.75 1059.039062 893.234375 1057.992188 900.097656 C 1056.949219 906.957031 1054.746094 921.378906 1053.101562 932.144531 C 1051.453125 942.90625 1049.25 957.328125 1048.207031 964.1875 C 1047.164062 971.050781 1044.210938 990.425781 1041.644531 1007.242188 C 1029.742188 1085.207031 1023.851562 1123.800781 1019.582031 1151.816406 C 1017.039062 1168.5 1009.683594 1216.714844 1003.234375 1258.960938 C 996.789062 1301.207031 989.507812 1348.980469 987.0625 1365.128906 C 984.617188 1381.273438 982.429688 1394.929688 982.203125 1395.472656 C 981.699219 1396.6875 966.003906 1404.617188 958.921875 1407.234375 C 948.351562 1411.140625 929.273438 1415.113281 910.972656 1417.214844 C 902.507812 1418.183594 890.132812 1419.261719 876.480469 1420.214844 C 867.59375 1420.832031 808.039062 1421.167969 794.53125 1420.675781 Z M 849.328125 1404.996094 C 895.179688 1403.1875 929.109375 1398.492188 947.117188 1391.472656 C 951.621094 1389.714844 966.386719 1382.59375 966.753906 1382 C 966.859375 1381.820312 969.386719 1365.734375 972.359375 1346.25 C 981.277344 1287.859375 986.855469 1251.339844 990.203125 1229.359375 C 991.949219 1217.925781 994.382812 1201.964844 995.617188 1193.890625 C 996.847656 1185.816406 999.28125 1169.855469 1001.027344 1158.417969 C 1002.769531 1146.984375 1005.511719 1129.039062 1007.117188 1118.546875 C 1008.71875 1108.050781 1011.457031 1090.109375 1013.203125 1078.671875 C 1016.675781 1055.882812 1019.425781 1037.839844 1023.539062 1010.910156 C 1025.019531 1001.222656 1026.980469 988.34375 1027.902344 982.289062 C 1028.824219 976.234375 1030.585938 964.675781 1031.820312 956.605469 C 1033.050781 948.53125 1035.488281 932.570312 1037.230469 921.132812 C 1038.976562 909.699219 1041.496094 893.1875 1042.832031 884.441406 C 1044.167969 875.695312 1047.140625 856.210938 1049.4375 841.140625 C 1051.734375 826.074219 1054.707031 806.589844 1056.042969 797.84375 C 1057.378906 789.097656 1060.789062 766.753906 1063.621094 748.183594 C 1066.457031 729.617188 1070.859375 700.777344 1073.40625 684.09375 C 1075.953125 667.410156 1080.355469 638.570312 1083.1875 620.003906 C 1086.019531 601.433594 1089.429688 579.089844 1090.765625 570.34375 C 1093.773438 550.640625 1100.957031 503.570312 1103.308594 488.148438 C 1104.269531 481.828125 1105.785156 471.917969 1106.675781 466.132812 C 1107.5625 460.347656 1108.253906 455.578125 1108.210938 455.53125 C 1108.144531 455.484375 1105.054688 456.320312 1101.289062 457.390625 C 1022.316406 479.828125 914.140625 495.429688 803.339844 500.359375 C 751.75 502.65625 681.574219 502.660156 630.390625 500.367188 C 535.863281 496.136719 447.691406 485.085938 370.675781 467.816406 C 359.171875 465.234375 339.214844 460.347656 331.898438 458.320312 C 329.945312 457.78125 328.285156 457.398438 328.210938 457.472656 C 328.136719 457.546875 330.050781 470.585938 332.464844 486.453125 C 334.878906 502.320312 339.390625 532.03125 342.488281 552.480469 C 349.035156 595.640625 351.089844 609.1875 352.75 620 C 353.40625 624.304688 358.6875 659.089844 364.484375 697.300781 C 370.277344 735.511719 375.558594 770.296875 376.21875 774.601562 C 376.878906 778.90625 382.496094 815.894531 388.703125 856.792969 C 394.90625 897.695312 400.523438 934.683594 401.183594 938.988281 C 401.84375 943.292969 407.125 978.078125 412.917969 1016.289062 C 418.714844 1054.5 424 1089.339844 424.667969 1093.714844 C 425.335938 1098.085938 426.429688 1105.242188 427.097656 1109.613281 C 427.765625 1113.984375 433.054688 1148.828125 438.847656 1187.035156 C 444.644531 1225.246094 449.925781 1260.03125 450.585938 1264.339844 C 453.871094 1285.761719 464.046875 1352.972656 464.046875 1353.253906 C 464.046875 1353.746094 475.679688 1362.070312 484.105469 1367.605469 C 496.207031 1375.554688 512.472656 1383.964844 524.691406 1388.589844 C 541.792969 1395.066406 564.644531 1398.691406 612.53125 1402.527344 C 640.832031 1404.792969 652.570312 1404.960938 757.59375 1404.597656 C 782.214844 1404.511719 807.09375 1404.636719 812.878906 1404.882812 C 827.976562 1405.515625 835.488281 1405.539062 849.328125 1404.992188 Z M 773.984375 485.238281 C 913.5625 479.816406 1029.117188 462.074219 1122.085938 431.796875 C 1134.125 427.878906 1150.972656 421.644531 1153.640625 420.125 C 1156.542969 418.476562 1159.46875 415.496094 1161.6875 411.9375 L 1163.296875 409.359375 L 1161.476562 399.953125 C 1160.476562 394.777344 1159.140625 387.902344 1158.511719 384.675781 C 1157.875 381.445312 1156.351562 373.519531 1155.113281 367.0625 C 1153.875 360.601562 1152.515625 353.515625 1152.089844 351.3125 L 1151.316406 347.304688 L 1148.046875 350.121094 C 1137.089844 359.550781 1128.210938 363.582031 1101.046875 371.460938 C 1086.910156 375.5625 1055.933594 383.011719 1030.839844 388.34375 C 1024.382812 389.714844 1014.472656 392.027344 1008.824219 393.480469 C 977.640625 401.5 961.472656 404.660156 927.609375 409.347656 C 857.082031 419.109375 827.59375 421.441406 768.847656 421.898438 C 674.992188 422.628906 643.441406 422.6875 628.675781 422.152344 C 558.414062 419.613281 492.707031 411.414062 433.84375 397.835938 C 396.730469 389.277344 359.695312 378.519531 338.101562 370.023438 C 325.496094 365.066406 294.445312 350.8125 284.578125 345.453125 C 282.335938 344.238281 280.375 343.371094 280.214844 343.53125 C 280.054688 343.691406 278.960938 359.507812 277.785156 378.679688 L 275.644531 413.539062 L 277.988281 415.65625 C 283.824219 420.917969 297.109375 428.335938 308.710938 432.808594 C 314.328125 434.976562 325.941406 438.425781 330.195312 439.191406 C 331.789062 439.476562 337.980469 441.03125 343.953125 442.644531 C 434.800781 467.171875 549.648438 482.125 674.667969 485.703125 C 692.578125 486.214844 756.507812 485.914062 773.984375 485.238281 Z M 790.128906 405.445312 C 831.207031 404.089844 853.464844 402.039062 909.75 394.414062 C 949.699219 389 970.191406 385.035156 999.28125 377.09375 C 1003.183594 376.027344 1008.800781 374.695312 1011.757812 374.128906 C 1028.957031 370.847656 1073.527344 360.277344 1089.058594 355.796875 C 1117.640625 347.554688 1126.984375 342.917969 1138.015625 331.515625 C 1140.453125 328.996094 1143.261719 325.546875 1144.253906 323.855469 C 1146.027344 320.824219 1146.042969 320.75 1145.257812 319.210938 C 1144.09375 316.925781 1134.765625 307.828125 1129.667969 304.007812 C 1127.246094 302.191406 1123.0625 299.644531 1120.371094 298.34375 C 1115.371094 295.925781 1109.476562 293.625 1109.171875 293.972656 C 1109.078125 294.078125 1109.515625 298.125 1110.140625 302.96875 C 1110.824219 308.265625 1111.289062 314.429688 1111.300781 318.425781 C 1111.300781 324.355469 1111.21875 325.171875 1110.390625 325.917969 C 1108.371094 327.75 1085.351562 336.902344 1067.332031 343.042969 C 991.988281 368.71875 898.332031 384.652344 792.574219 389.792969 C 747.984375 391.960938 686.617188 391.664062 639.929688 389.058594 C 516.773438 382.179688 404.910156 359.03125 327.300781 324.363281 C 318.1875 320.292969 307.605469 315.054688 307.214844 314.421875 C 306.992188 314.0625 306.6875 313.0625 306.535156 312.203125 L 306.261719 310.636719 L 302.707031 311.769531 C 297.257812 313.5 289.363281 317.550781 287.039062 319.808594 C 285.90625 320.90625 284.980469 322.003906 284.980469 322.246094 C 284.980469 324.535156 325.324219 344.417969 349.78125 354.183594 C 377.941406 365.429688 436.636719 381.296875 478.722656 389.039062 C 527.480469 398.015625 575.046875 403.371094 628.675781 405.925781 C 640.195312 406.472656 770.726562 406.085938 790.128906 405.445312 Z M 776.675781 374.191406 C 817.957031 372.050781 847.140625 369.648438 878.269531 365.832031 C 960.710938 355.726562 1032.910156 338.179688 1088.917969 314.636719 C 1093.925781 312.53125 1094.148438 312.375 1093.929688 311.125 C 1093.800781 310.40625 1092.710938 301.894531 1091.496094 292.207031 C 1088.941406 271.820312 1083.398438 230.636719 1083.179688 230.398438 C 1083.097656 230.308594 1082.511719 230.574219 1081.886719 230.984375 C 1080.636719 231.796875 1071.550781 235.332031 1061.023438 239.097656 C 993.90625 263.109375 905.152344 279.550781 811.410156 285.332031 C 759.371094 288.542969 695.765625 288.636719 644.578125 285.582031 C 563.464844 280.738281 488.324219 268.699219 423.191406 250.117188 C 410.273438 246.433594 382.09375 237.152344 374.511719 234.089844 C 367.839844 231.394531 361.976562 227.863281 358.660156 224.542969 L 356.003906 221.890625 L 355.28125 223.289062 C 350.0625 233.417969 325.914062 300.035156 326.65625 302.261719 C 327.039062 303.410156 349.535156 313.34375 366.015625 319.644531 C 447.378906 350.738281 557.230469 369.882812 681.515625 374.632812 C 695.652344 375.171875 763.851562 374.855469 776.675781 374.191406 Z M 772.027344 270.945312 C 875.824219 266.347656 965.304688 251.597656 1038.421875 227.039062 C 1063.222656 218.710938 1077.164062 212.445312 1079.777344 208.457031 C 1080.484375 207.375 1080.445312 207.171875 1079.085938 205.203125 C 1075.460938 199.933594 1065.707031 194.496094 1048.207031 187.992188 C 959.964844 155.199219 838.273438 136.324219 715.03125 136.320312 C 625.765625 136.316406 537.371094 146.191406 461.109375 164.6875 C 424.617188 173.539062 382.644531 187.382812 374.339844 193.308594 C 370.777344 195.851562 367.902344 198.96875 367.445312 200.78125 C 366.691406 203.785156 372.644531 211.019531 378.828125 214.617188 C 384.410156 217.863281 393.300781 221.210938 415.367188 228.363281 C 470.273438 246.167969 538.894531 259.464844 610.820312 266.242188 C 640.6875 269.058594 662.226562 270.347656 700.597656 271.609375 C 709.882812 271.917969 760.804688 271.441406 772.027344 270.945312 Z M 772.027344 270.945312 " fill-opacity="1" fill-rule="nonzero"/></g></svg>