<svg xmlns="http://www.w3.org/2000/svg" xmlns:xlink="http://www.w3.org/1999/xlink" width="2000" zoomAndPan="magnify" viewBox="0 0 1500 1499.999933" height="2000" preserveAspectRatio="xMidYMid meet" version="1.0"><defs><clipPath id="fce094cde5"><path d="M 309 416 L 1177 416 L 1177 1224.875 L 309 1224.875 Z M 309 416 " clip-rule="nonzero"/></clipPath><clipPath id="dca0f492a3"><path d="M 254 327.875 L 1246 327.875 L 1246 433 L 254 433 Z M 254 327.875 " clip-rule="nonzero"/></clipPath></defs><g clip-path="url(#fce094cde5)"><path fill="#a6a6a6" d="M 931.070312 1225.09375 L 558.125 1225.09375 C 497.027344 1225.09375 444.847656 1181.421875 434.058594 1121.25 L 309.558594 425.835938 C 309.148438 423.566406 309.769531 421.230469 311.25 419.464844 C 312.730469 417.695312 314.917969 416.671875 317.222656 416.671875 L 1168.921875 416.671875 C 1171.222656 416.671875 1173.40625 417.691406 1174.886719 419.453125 C 1176.367188 421.214844 1176.992188 423.539062 1176.59375 425.804688 L 1162.050781 508.898438 L 1055.207031 1120.734375 C 1044.640625 1181.203125 992.429688 1225.09375 931.066406 1225.09375 Z M 326.535156 432.253906 L 449.394531 1118.5 C 458.851562 1171.234375 504.578125 1209.511719 558.125 1209.511719 L 931.066406 1209.511719 C 984.84375 1209.511719 1030.597656 1171.046875 1039.859375 1118.054688 L 1146.703125 506.214844 L 1159.648438 432.253906 Z M 326.535156 432.253906 " fill-opacity="1" fill-rule="nonzero"/></g><g clip-path="url(#dca0f492a3)"><path fill="#a6a6a6" d="M 1193.710938 432.253906 L 306.285156 432.253906 C 300.175781 432.253906 294.167969 431.183594 288.433594 429.078125 C 267.890625 421.761719 254.042969 402.03125 254.042969 380.007812 C 254.042969 366.09375 259.472656 352.996094 269.339844 343.132812 C 279.203125 333.265625 292.324219 327.832031 306.285156 327.832031 L 1193.710938 327.832031 C 1215.628906 327.832031 1235.351562 341.640625 1242.789062 362.191406 C 1244.882812 367.898438 1245.953125 373.90625 1245.953125 380.007812 C 1245.953125 393.96875 1240.523438 407.089844 1230.65625 416.953125 C 1220.789062 426.820312 1207.667969 432.253906 1193.710938 432.253906 Z M 306.285156 343.414062 C 296.488281 343.414062 287.277344 347.226562 280.355469 354.148438 C 273.433594 361.070312 269.621094 370.257812 269.621094 380.011719 C 269.621094 395.457031 279.3125 409.289062 293.734375 414.429688 C 297.816406 415.925781 302.015625 416.675781 306.285156 416.675781 L 1193.710938 416.675781 C 1203.507812 416.675781 1212.71875 412.863281 1219.640625 405.9375 C 1226.5625 399.019531 1230.375 389.808594 1230.375 380.011719 C 1230.375 375.746094 1229.625 371.546875 1228.152344 367.53125 C 1222.925781 353.09375 1209.09375 343.414062 1193.710938 343.414062 Z M 306.285156 343.414062 " fill-opacity="1" fill-rule="nonzero"/></g></svg>