<svg xmlns="http://www.w3.org/2000/svg" xmlns:xlink="http://www.w3.org/1999/xlink" width="2000" zoomAndPan="magnify" viewBox="0 0 1500 1499.999933" height="2000" preserveAspectRatio="xMidYMid meet" version="1.0"><defs><clipPath id="5e4d2e729f"><path d="M 129 427.535156 L 1372 427.535156 L 1372 1334.285156 L 129 1334.285156 Z M 129 427.535156 " clip-rule="nonzero"/></clipPath></defs><g clip-path="url(#5e4d2e729f)"><path fill="#a6a6a6" d="M 1360.0625 679.480469 C 1361.796875 683.15625 1363.335938 686.914062 1364.6875 690.75 C 1366.035156 694.585938 1367.1875 698.480469 1368.140625 702.433594 C 1369.09375 706.386719 1369.84375 710.375 1370.386719 714.40625 C 1370.933594 718.433594 1371.273438 722.480469 1371.40625 726.546875 C 1371.539062 730.609375 1371.464844 734.667969 1371.183594 738.726562 C 1370.902344 742.78125 1370.417969 746.8125 1369.726562 750.820312 C 1369.035156 754.828125 1368.140625 758.789062 1367.042969 762.703125 C 1365.949219 766.621094 1364.65625 770.46875 1363.167969 774.253906 C 1360.804688 781.484375 1357.90625 788.496094 1354.480469 795.289062 C 1351.050781 802.082031 1347.128906 808.574219 1342.714844 814.773438 C 1338.304688 820.96875 1333.449219 826.796875 1328.148438 832.257812 C 1322.851562 837.71875 1317.171875 842.75 1311.113281 847.347656 C 1309.882812 848.125 1308.730469 849.007812 1307.65625 849.988281 C 1305.605469 853.550781 1304.121094 857.339844 1303.203125 861.351562 C 1302.289062 865.359375 1301.984375 869.417969 1302.285156 873.519531 C 1302.273438 882.054688 1300.976562 890.390625 1298.394531 898.523438 C 1294.03125 911.449219 1290.695312 924.632812 1288.386719 938.078125 C 1286.109375 949.179688 1283.761719 960.730469 1280.378906 971.980469 L 1278.980469 976.53125 C 1276.101562 985.429688 1273.6875 994.449219 1271.734375 1003.59375 C 1270.265625 1011.316406 1269.457031 1019.179688 1268.632812 1027.492188 L 1268.042969 1033.523438 C 1264.796875 1059.382812 1259.847656 1084.910156 1253.191406 1110.105469 C 1250.496094 1121.5625 1246.75 1132.660156 1241.953125 1143.40625 C 1237.15625 1154.152344 1231.390625 1164.347656 1224.660156 1174 C 1204.882812 1200.472656 1174.984375 1221.285156 1148.554688 1239.738281 C 1133.824219 1250.21875 1118.457031 1259.664062 1102.457031 1268.070312 C 1086.453125 1276.480469 1069.957031 1283.777344 1052.96875 1289.960938 C 1020.164062 1300.550781 986.730469 1308.515625 952.667969 1313.855469 C 897.710938 1325.578125 842.148438 1332.292969 785.980469 1334.003906 C 782.667969 1334.003906 779.4375 1333.933594 776.128906 1333.859375 C 699.699219 1333.296875 623.808594 1326.628906 548.453125 1313.855469 C 514.417969 1308.515625 481.011719 1300.550781 448.234375 1289.960938 C 431.289062 1283.796875 414.835938 1276.523438 398.875 1268.148438 C 382.910156 1259.769531 367.578125 1250.363281 352.878906 1239.921875 C 326.117188 1221.292969 296.199219 1200.429688 276.535156 1173.957031 C 269.804688 1164.308594 264.039062 1154.109375 259.238281 1143.363281 C 254.441406 1132.621094 250.695312 1121.519531 248.003906 1110.066406 C 241.320312 1084.882812 236.339844 1059.371094 233.070312 1033.523438 L 232.40625 1027.492188 C 231.601562 1019.210938 230.792969 1011.316406 229.300781 1003.59375 C 227.359375 994.449219 224.941406 985.429688 222.058594 976.53125 L 220.660156 971.980469 C 217.277344 960.730469 214.929688 949.210938 212.652344 938.003906 C 210.300781 924.59375 206.964844 911.433594 202.644531 898.523438 C 200.0625 890.390625 198.765625 882.054688 198.753906 873.519531 C 199.050781 869.417969 198.746094 865.363281 197.828125 861.351562 C 196.914062 857.339844 195.433594 853.554688 193.382812 849.988281 C 192.480469 849.160156 191.523438 848.402344 190.515625 847.710938 C 184.382812 843.109375 178.636719 838.066406 173.273438 832.585938 C 167.910156 827.105469 163 821.25 158.53125 815.019531 C 154.066406 808.785156 150.101562 802.25 146.636719 795.410156 C 143.171875 788.570312 140.246094 781.507812 137.859375 774.222656 C 136.371094 770.4375 135.074219 766.589844 133.980469 762.671875 C 132.882812 758.757812 131.988281 754.796875 131.296875 750.789062 C 130.601562 746.78125 130.117188 742.746094 129.835938 738.691406 C 129.558594 734.632812 129.484375 730.574219 129.621094 726.507812 C 129.757812 722.445312 130.097656 718.398438 130.648438 714.367188 C 131.195312 710.335938 131.949219 706.347656 132.90625 702.394531 C 133.863281 698.441406 135.019531 694.546875 136.375 690.714844 C 137.730469 686.878906 139.277344 683.125 141.015625 679.449219 C 148.316406 662.136719 157.140625 645.640625 167.488281 629.960938 C 198.960938 583.636719 245.28125 552.675781 282.195312 530.835938 C 326.3125 504.738281 372.417969 490.03125 423.894531 474.882812 C 447.199219 467.96875 471.167969 463.113281 494.328125 458.488281 C 540.4375 448.382812 586.960938 440.792969 633.890625 435.722656 C 645.277344 434.625 656.660156 434.6875 667.785156 434.625 C 678.757812 434.839844 689.714844 434.496094 700.652344 433.589844 C 707.203125 433 713.746094 432.046875 720.210938 431.09375 C 730.210938 429.699219 740.507812 428.21875 750.949219 427.785156 C 760.746094 427.550781 770.476562 428.242188 780.144531 429.851562 C 787.207031 430.96875 794.3125 431.632812 801.460938 431.839844 C 821.394531 431.984375 843.15625 433.308594 871.980469 436.175781 C 917.203125 441.351562 962.046875 448.800781 1006.515625 458.53125 C 1029.832031 463.15625 1053.796875 468.007812 1077.105469 474.921875 C 1128.507812 490.074219 1174.683594 504.777344 1218.800781 530.878906 C 1255.644531 552.714844 1302.039062 583.660156 1333.4375 630 C 1343.863281 645.65625 1352.742188 662.148438 1360.0625 679.480469 Z M 1342.40625 766.90625 C 1343.664062 763.769531 1344.753906 760.578125 1345.675781 757.332031 C 1346.601562 754.082031 1347.355469 750.796875 1347.941406 747.46875 C 1348.523438 744.144531 1348.9375 740.796875 1349.175781 737.425781 C 1349.414062 734.058594 1349.476562 730.6875 1349.367188 727.3125 C 1349.257812 723.9375 1348.972656 720.574219 1348.515625 717.230469 C 1348.058594 713.882812 1347.429688 710.570312 1346.628906 707.289062 C 1345.828125 704.007812 1344.859375 700.777344 1343.726562 697.597656 C 1342.59375 694.414062 1341.296875 691.300781 1339.839844 688.253906 C 1333.066406 672.230469 1324.878906 656.960938 1315.285156 642.449219 C 1286.308594 599.730469 1242.5625 570.535156 1207.65625 549.871094 C 1165.742188 525.09375 1120.960938 510.824219 1070.957031 496.054688 C 1048.601562 489.515625 1025.082031 484.734375 1002.425781 480.179688 C 959.125 471.496094 914.460938 462.523438 869.960938 458.117188 C 841.800781 455.394531 820.617188 454.070312 801.359375 453.925781 C 793.292969 453.734375 785.28125 453 777.316406 451.71875 C 768.9375 450.363281 760.503906 449.726562 752.015625 449.804688 C 742.605469 450.25 733.386719 451.574219 723.492188 452.972656 C 716.652344 454.007812 709.8125 454.960938 702.898438 455.621094 C 691.058594 456.71875 679.292969 456.71875 667.898438 456.71875 C 656.792969 456.792969 646.425781 456.71875 635.992188 457.671875 C 589.898438 462.691406 544.210938 470.195312 498.933594 480.179688 C 476.0625 484.734375 452.601562 489.492188 430.246094 496.054688 C 380.25 510.832031 335.472656 525.105469 293.488281 549.871094 C 258.632812 570.566406 214.835938 599.730469 185.859375 642.449219 C 176.222656 656.9375 168.019531 672.195312 161.257812 688.222656 C 159.804688 691.269531 158.507812 694.382812 157.375 697.566406 C 156.238281 700.746094 155.273438 703.976562 154.472656 707.257812 C 153.671875 710.539062 153.042969 713.851562 152.585938 717.199219 C 152.128906 720.542969 151.84375 723.902344 151.730469 727.28125 C 151.621094 730.65625 151.683594 734.027344 151.921875 737.394531 C 152.160156 740.765625 152.570312 744.109375 153.15625 747.4375 C 153.738281 750.761719 154.492188 754.050781 155.417969 757.300781 C 156.339844 760.546875 157.429688 763.738281 158.683594 766.875 C 160.667969 773.046875 163.105469 779.03125 165.996094 784.832031 C 168.890625 790.636719 172.203125 796.183594 175.9375 801.484375 C 179.671875 806.78125 183.785156 811.769531 188.273438 816.445312 C 192.765625 821.117188 197.582031 825.429688 202.726562 829.371094 C 204.425781 830.539062 206.046875 831.8125 207.582031 833.191406 C 220.914062 841.230469 233.4375 850.375 245.15625 860.625 C 294.34375 903.9375 342.507812 919.074219 403.390625 938.191406 C 467.242188 956.871094 532.171875 970.363281 598.179688 978.664062 C 623.398438 982.347656 652.738281 986.386719 681.632812 988.15625 C 686.039062 988.445312 690.675781 988.960938 695.300781 989.480469 C 701.820312 990.449219 708.375 990.9375 714.964844 990.949219 L 722.976562 990.730469 C 783.179688 990.132812 843.15625 986.109375 902.902344 978.664062 C 968.886719 970.378906 1033.789062 956.898438 1097.617188 938.222656 C 1158.570312 919.105469 1206.652344 903.964844 1255.953125 860.65625 C 1267.644531 850.40625 1280.140625 841.261719 1293.449219 833.222656 C 1294.925781 831.90625 1296.46875 830.726562 1297.792969 829.765625 C 1303.003906 825.820312 1307.882812 821.5 1312.429688 816.804688 C 1316.976562 812.113281 1321.140625 807.101562 1324.921875 801.769531 C 1328.703125 796.4375 1332.054688 790.851562 1334.980469 785.003906 C 1337.902344 779.160156 1340.367188 773.128906 1342.367188 766.90625 Z M 1280.316406 872.464844 C 1280.460938 869.453125 1280.605469 866.371094 1280.894531 863.152344 C 1276.414062 866.605469 1271.933594 870.207031 1267.667969 873.964844 C 1215.601562 919.769531 1165.898438 935.355469 1102.957031 955.140625 C 1038.214844 974.089844 972.382812 987.785156 905.457031 996.238281 C 845.027344 1003.785156 784.367188 1007.859375 723.472656 1008.449219 L 715.523438 1008.667969 C 714.863281 1008.667969 714.128906 1008.738281 713.390625 1008.738281 C 706.671875 1008.597656 699.984375 1008.058594 693.324219 1007.125 C 688.980469 1006.605469 684.714844 1006.089844 680.667969 1005.800781 C 651.039062 1004.03125 621.339844 999.921875 595.746094 996.238281 C 528.800781 987.78125 462.941406 974.082031 398.175781 955.140625 C 335.304688 935.355469 285.601562 919.769531 233.535156 873.964844 C 229.273438 870.207031 224.789062 866.605469 220.226562 863.152344 C 220.597656 866.390625 220.742188 869.472656 220.890625 872.464844 C 220.839844 878.769531 221.695312 884.949219 223.464844 891 C 228.144531 904.972656 231.769531 919.210938 234.34375 933.71875 C 236.628906 944.898438 238.761719 955.453125 241.84375 965.636719 L 243.242188 970.117188 C 246.371094 979.753906 248.96875 989.535156 251.035156 999.457031 C 252.734375 1008.128906 253.613281 1016.882812 254.492188 1025.265625 L 255.082031 1031.214844 C 258.25 1056.09375 263.03125 1080.652344 269.425781 1104.902344 C 271.796875 1114.898438 275.0625 1124.59375 279.226562 1133.988281 C 283.390625 1143.382812 288.382812 1152.3125 294.199219 1160.785156 C 311.84375 1184.378906 340.230469 1204.167969 365.234375 1221.667969 C 379.160156 1231.5625 393.683594 1240.480469 408.808594 1248.421875 C 423.933594 1256.363281 439.519531 1263.257812 455.570312 1269.105469 C 487.246094 1279.296875 519.523438 1286.945312 552.40625 1292.050781 C 626.585938 1304.625 701.292969 1311.179688 776.53125 1311.714844 C 834.175781 1312.964844 892.4375 1302.398438 948.664062 1292.050781 C 981.566406 1286.945312 1013.871094 1279.296875 1045.570312 1269.105469 C 1061.570312 1263.285156 1077.105469 1256.414062 1092.179688 1248.5 C 1107.253906 1240.585938 1121.730469 1231.695312 1135.605469 1221.832031 C 1160.972656 1204.117188 1189.359375 1184.328125 1207.015625 1160.773438 C 1212.835938 1152.3125 1217.820312 1143.382812 1221.976562 1133.984375 C 1226.128906 1124.589844 1229.375 1114.890625 1231.714844 1104.890625 C 1238.183594 1080.65625 1242.964844 1056.09375 1246.058594 1031.207031 L 1246.722656 1025.253906 C 1247.53125 1016.875 1248.410156 1008.117188 1250.097656 999.445312 C 1252.226562 989.535156 1254.851562 979.753906 1257.972656 970.105469 L 1259.367188 965.625 C 1262.472656 955.402344 1264.542969 944.925781 1266.863281 933.710938 C 1269.402344 919.191406 1273.03125 904.953125 1277.75 890.988281 C 1279.492188 884.917969 1280.324219 878.726562 1280.242188 872.414062 Z M 1280.316406 872.464844 " fill-opacity="1" fill-rule="nonzero"/></g><path fill="#a6a6a6" d="M 1310.75 682.5625 C 1311.878906 685.996094 1312.855469 689.46875 1313.671875 692.988281 C 1314.488281 696.507812 1315.144531 700.058594 1315.640625 703.636719 C 1316.136719 707.214844 1316.46875 710.808594 1316.640625 714.417969 C 1316.8125 718.023438 1316.824219 721.632812 1316.667969 725.242188 C 1316.515625 728.851562 1316.199219 732.449219 1315.722656 736.03125 C 1315.246094 739.609375 1314.605469 743.164062 1313.808594 746.6875 C 1313.011719 750.210938 1312.054688 753.691406 1310.941406 757.128906 C 1309.832031 760.566406 1308.566406 763.945312 1307.148438 767.269531 C 1303.542969 775.832031 1299.3125 784.078125 1294.457031 792.003906 C 1289.601562 799.929688 1284.179688 807.445312 1278.191406 814.550781 C 1272.199219 821.660156 1265.710938 828.273438 1258.71875 834.398438 C 1251.730469 840.523438 1244.320312 846.089844 1236.488281 851.09375 C 1205.910156 870.632812 1173.53125 886.503906 1139.351562 898.699219 C 1085.679688 919.734375 1030.457031 935.257812 973.6875 945.269531 L 895.605469 959.550781 C 886.1875 961.238281 876.40625 963.078125 866.554688 964.03125 C 854.914062 965.082031 843.246094 965.546875 831.554688 965.429688 C 802.878906 965.65625 779.5 966.679688 757.882812 968.742188 L 753.472656 969.183594 C 748.390625 969.691406 743.320312 969.921875 738.105469 969.921875 C 725.964844 969.921875 713.621094 968.742188 701.480469 967.5625 C 690.230469 966.527344 679.570312 965.492188 669.398438 965.429688 C 658.015625 965.355469 646.167969 965.285156 634.398438 964.03125 C 624.546875 963.078125 614.839844 961.238281 605.421875 959.550781 L 527.328125 945.207031 C 470.558594 935.203125 415.339844 919.679688 361.675781 898.636719 C 327.472656 886.441406 295.070312 870.574219 264.46875 851.03125 C 256.640625 846.027344 249.234375 840.460938 242.25 834.335938 C 235.265625 828.210938 228.78125 821.59375 222.796875 814.488281 C 216.8125 807.382812 211.398438 799.867188 206.550781 791.941406 C 201.703125 784.015625 197.480469 775.769531 193.878906 767.207031 C 192.457031 763.882812 191.1875 760.503906 190.074219 757.066406 C 188.957031 753.632812 188 750.152344 187.199219 746.628906 C 186.398438 743.105469 185.757812 739.550781 185.28125 735.96875 C 184.800781 732.386719 184.484375 728.792969 184.332031 725.183594 C 184.175781 721.574219 184.1875 717.964844 184.359375 714.355469 C 184.535156 710.746094 184.871094 707.152344 185.367188 703.570312 C 185.867188 699.992188 186.527344 696.445312 187.34375 692.925781 C 188.164062 689.40625 189.140625 685.929688 190.277344 682.5 C 209.679688 634.78125 232.925781 604.40625 267.894531 580.957031 C 346.546875 528.3125 441.753906 505.730469 532.886719 489.195312 C 586.191406 478.347656 640.042969 472.511719 694.433594 471.695312 L 701.574219 471.765625 C 792.375 472.355469 878.117188 472.863281 968.035156 489.195312 C 1059.222656 505.753906 1154.441406 528.3125 1232.96875 580.957031 C 1268.101562 604.5 1291.347656 634.84375 1310.75 682.5625 Z M 1293.394531 761.980469 C 1295.925781 756.195312 1297.910156 750.226562 1299.355469 744.082031 C 1300.800781 737.933594 1301.683594 731.710938 1301.996094 725.402344 C 1302.3125 719.097656 1302.054688 712.8125 1301.230469 706.554688 C 1300.402344 700.292969 1299.019531 694.160156 1297.082031 688.152344 C 1278.917969 643.300781 1257.300781 614.910156 1224.867188 593.222656 C 1148.542969 542.046875 1055.144531 519.992188 965.460938 503.734375 C 876.851562 487.632812 791.703125 487.125 701.5625 486.535156 L 694.433594 486.460938 L 691.121094 486.460938 C 638.769531 487.589844 586.933594 493.347656 535.609375 503.734375 C 458.332031 517.703125 378.304688 536.167969 308.773438 573.660156 C 308.605469 586.429688 309.484375 599.125 311.410156 611.746094 C 313.332031 624.367188 316.277344 636.75 320.238281 648.886719 C 325.164062 665.914062 328.882812 683.199219 331.382812 700.746094 C 335.589844 730.269531 341.546875 759.4375 349.257812 788.246094 C 356.609375 816.113281 362.417969 844.300781 366.683594 872.804688 C 378.589844 865.183594 390.945312 858.371094 403.742188 852.367188 C 408.6875 849.839844 413.4375 846.996094 418.003906 843.839844 C 425.347656 838.484375 433.3125 834.316406 441.898438 831.339844 C 461.242188 825.59375 480.730469 818.390625 499.625 811.480469 C 529.855469 799.425781 560.863281 789.890625 592.640625 782.875 C 622.347656 777.457031 652.296875 774.738281 682.492188 774.71875 C 694.257812 774.574219 705.257812 773.539062 717.054688 772.515625 C 724.285156 771.972656 731.492188 772.195312 738.675781 773.175781 C 746.210938 774.320312 753.761719 774.394531 761.316406 773.394531 C 769.46875 772.242188 777.605469 772.3125 785.730469 773.613281 C 790.148438 774.21875 794.585938 774.585938 799.039062 774.71875 L 800.363281 774.71875 C 836.605469 774.273438 872.609375 776.992188 908.375 782.875 C 940.160156 789.898438 971.171875 799.433594 1001.414062 811.480469 C 1020.238281 818.390625 1039.796875 825.59375 1059.136719 831.339844 C 1067.71875 834.332031 1075.683594 838.5 1083.035156 843.839844 C 1087.589844 847.015625 1092.34375 849.855469 1097.292969 852.367188 C 1114.242188 860.160156 1130.273438 869.523438 1145.386719 880.453125 C 1174.53125 869.640625 1202.152344 855.792969 1228.25 838.902344 C 1235.433594 834.285156 1242.238281 829.160156 1248.660156 823.53125 C 1255.082031 817.902344 1261.054688 811.828125 1266.574219 805.3125 C 1272.09375 798.792969 1277.101562 791.90625 1281.59375 784.644531 C 1286.089844 777.382812 1290.023438 769.828125 1293.394531 761.980469 Z M 1133.175781 885.285156 C 1120.246094 876.511719 1106.691406 868.839844 1092.511719 862.269531 C 1087.128906 859.5625 1081.957031 856.496094 1076.992188 853.082031 C 1070.558594 848.269531 1063.546875 844.542969 1055.960938 841.90625 C 1036.296875 836.015625 1016.636719 828.8125 997.582031 821.828125 C 967.898438 809.980469 937.457031 800.59375 906.253906 793.667969 C 871.132812 787.886719 835.777344 785.234375 800.1875 785.71875 L 798.863281 785.71875 C 793.691406 785.574219 789.09375 785.070312 784.53125 784.550781 C 777.4375 783.417969 770.332031 783.320312 763.210938 784.25 C 754.648438 785.394531 746.09375 785.34375 737.546875 784.105469 C 731.273438 783.234375 724.972656 782.988281 718.648438 783.371094 C 706.148438 784.550781 694.847656 785.574219 682.6875 785.71875 C 653.164062 785.742188 623.875 788.394531 594.824219 793.667969 C 563.613281 800.59375 533.160156 809.980469 503.464844 821.828125 C 484.421875 828.8125 464.71875 836.015625 445.015625 841.90625 C 437.457031 844.558594 430.472656 848.285156 424.058594 853.082031 C 419.082031 856.480469 413.910156 859.546875 408.535156 862.269531 C 394.34375 868.824219 380.789062 876.496094 367.863281 885.285156 C 420.414062 905.769531 474.460938 920.917969 530 930.730469 L 608.09375 945.0625 C 617.210938 946.757812 626.71875 948.445312 635.960938 949.398438 C 646.984375 950.578125 658.460938 950.652344 669.566406 950.722656 C 680.296875 950.796875 691.761719 951.902344 702.867188 952.9375 C 719.164062 955.039062 735.511719 955.578125 751.910156 954.550781 L 756.476562 954.105469 C 778.527344 952.039062 802.363281 951.003906 831.472656 950.722656 C 842.578125 950.652344 854.042969 950.578125 865.078125 949.398438 C 874.339844 948.445312 883.757812 946.757812 892.875 945.0625 L 971.039062 930.730469 C 1026.578125 920.910156 1080.621094 905.761719 1133.175781 885.285156 Z M 356.625 879.78125 L 356.625 879.710938 C 352.394531 849.734375 346.363281 820.125 338.535156 790.882812 C 330.757812 761.632812 324.730469 732.023438 320.457031 702.058594 C 317.953125 685.027344 314.324219 668.238281 309.570312 651.691406 C 303.019531 630.425781 299 608.695312 297.511719 586.492188 L 296.550781 586.421875 C 296.550781 585.902344 296.777344 583.253906 297.066406 580.316406 C 290.007812 584.457031 282.953125 588.699219 276.183594 593.25 C 243.761719 614.984375 222.140625 643.332031 203.980469 688.183594 C 202.042969 694.191406 200.660156 700.324219 199.828125 706.582031 C 199 712.839844 198.742188 719.121094 199.046875 725.425781 C 199.355469 731.730469 200.226562 737.957031 201.660156 744.105469 C 203.09375 750.25 205.066406 756.21875 207.582031 762.011719 C 210.964844 769.851562 214.90625 777.402344 219.410156 784.660156 C 223.914062 791.917969 228.925781 798.804688 234.449219 805.320312 C 239.972656 811.835938 245.945312 817.90625 252.371094 823.535156 C 258.792969 829.167969 265.59375 834.292969 272.777344 838.914062 C 298.875 855.800781 326.496094 869.652344 355.640625 880.464844 C 355.960938 880.214844 356.335938 879.988281 356.625 879.78125 Z M 356.625 879.78125 " fill-opacity="1" fill-rule="nonzero"/></svg>