<svg xmlns="http://www.w3.org/2000/svg" xmlns:xlink="http://www.w3.org/1999/xlink" width="2000" zoomAndPan="magnify" viewBox="0 0 1500 1499.999933" height="2000" preserveAspectRatio="xMidYMid meet" version="1.0"><defs><clipPath id="ae7a67175c"><path d="M 198.582031 106.945312 L 1301.082031 106.945312 L 1301.082031 1393.195312 L 198.582031 1393.195312 Z M 198.582031 106.945312 " clip-rule="nonzero"/></clipPath></defs><g clip-path="url(#ae7a67175c)"><path fill="#a6a6a6" d="M 198.804688 260.230469 L 198.804688 403.308594 C 198.804688 428.460938 217.398438 449.5 244.753906 466.867188 L 320.292969 1273.738281 C 320.605469 1277.066406 322.527344 1280.035156 325.445312 1281.675781 C 415.574219 1332.488281 562.386719 1393.054688 749.996094 1393.054688 C 937.601562 1393.054688 1084.414062 1332.488281 1174.542969 1281.679688 C 1177.460938 1280.035156 1179.382812 1277.066406 1179.695312 1273.738281 L 1255.238281 466.871094 C 1282.589844 449.503906 1301.1875 428.46875 1301.1875 403.3125 L 1301.1875 260.230469 C 1301.1875 204.753906 1210.890625 169.226562 1135.140625 149.191406 C 1032.128906 121.945312 895.351562 106.945312 749.996094 106.945312 C 604.636719 106.945312 467.859375 121.945312 364.851562 149.191406 C 289.101562 169.222656 198.804688 204.753906 198.804688 260.230469 Z M 749.996094 1372.640625 C 570.003906 1372.640625 428.476562 1315.546875 340.121094 1266.496094 L 336.15625 1224.136719 C 428.660156 1273.09375 571.148438 1327.019531 749.996094 1327.019531 C 928.84375 1327.019531 1071.339844 1273.089844 1163.832031 1224.136719 L 1159.867188 1266.496094 C 1071.511719 1315.546875 929.984375 1372.640625 749.996094 1372.640625 Z M 1166.121094 1199.695312 C 1076.320312 1249.089844 932.558594 1306.605469 749.996094 1306.605469 C 567.4375 1306.605469 423.675781 1249.09375 333.867188 1199.695312 L 266.398438 479.050781 C 296.21875 493.988281 331.910156 505.636719 364.851562 514.351562 C 467.859375 541.59375 604.636719 556.59375 749.996094 556.59375 C 895.355469 556.59375 1032.132812 541.59375 1135.140625 514.351562 C 1168.085938 505.636719 1203.773438 493.988281 1233.597656 479.050781 Z M 1129.917969 494.613281 C 1028.566406 521.417969 893.640625 536.179688 749.996094 536.179688 C 606.347656 536.179688 471.425781 521.417969 370.070312 494.613281 C 275.613281 469.628906 219.21875 435.496094 219.21875 403.308594 L 219.21875 303.714844 C 250.191406 335.074219 311.15625 357.070312 364.851562 371.269531 C 467.855469 398.515625 604.636719 413.515625 749.996094 413.515625 C 895.351562 413.515625 1032.128906 398.515625 1135.136719 371.269531 C 1188.832031 357.070312 1249.796875 335.074219 1280.769531 303.714844 L 1280.769531 403.308594 C 1280.769531 435.496094 1224.375 469.628906 1129.917969 494.613281 Z M 749.996094 127.359375 C 893.640625 127.359375 1028.566406 142.121094 1129.917969 168.929688 C 1224.375 193.910156 1280.769531 228.039062 1280.769531 260.230469 C 1280.769531 292.417969 1224.375 326.550781 1129.917969 351.53125 C 1028.566406 378.335938 893.640625 393.101562 749.996094 393.101562 C 606.347656 393.101562 471.425781 378.339844 370.070312 351.53125 C 275.613281 326.554688 219.21875 292.421875 219.21875 260.230469 C 219.21875 228.039062 275.613281 193.90625 370.070312 168.925781 C 471.425781 142.121094 606.347656 127.359375 749.996094 127.359375 Z M 749.996094 127.359375 " fill-opacity="1" fill-rule="nonzero"/></g><path fill="#a6a6a6" d="M 419.976562 340.253906 C 508.238281 359.109375 625.441406 369.492188 749.996094 369.492188 C 874.546875 369.492188 991.75 359.109375 1080.011719 340.253906 C 1175.488281 319.855469 1223.898438 292.9375 1223.898438 260.230469 C 1223.898438 227.523438 1175.488281 200.601562 1080.011719 180.203125 C 991.75 161.351562 874.546875 150.96875 749.996094 150.96875 C 625.441406 150.96875 508.238281 161.351562 419.976562 180.207031 C 324.5 200.605469 276.089844 227.527344 276.089844 260.230469 C 276.089844 292.9375 324.5 319.859375 419.976562 340.253906 Z M 424.242188 200.167969 C 511.144531 181.605469 626.832031 171.382812 749.996094 171.382812 C 873.15625 171.382812 988.847656 181.605469 1075.746094 200.167969 C 1170.027344 220.3125 1203.484375 245.113281 1203.484375 260.230469 C 1203.484375 275.347656 1170.03125 300.148438 1075.746094 320.289062 C 988.847656 338.851562 873.160156 349.078125 749.996094 349.078125 C 626.828125 349.078125 511.140625 338.851562 424.242188 320.289062 C 329.960938 300.148438 296.503906 275.347656 296.503906 260.230469 C 296.503906 245.113281 329.957031 220.3125 424.242188 200.167969 Z M 424.242188 200.167969 " fill-opacity="1" fill-rule="nonzero"/></svg>