<svg xmlns="http://www.w3.org/2000/svg" xmlns:xlink="http://www.w3.org/1999/xlink" width="2000" zoomAndPan="magnify" viewBox="0 0 1500 1499.999933" height="2000" preserveAspectRatio="xMidYMid meet" version="1.0"><path fill="#a6a6a6" d="M 1383.199219 593.613281 C 1386.226562 617.910156 1387.367188 642.296875 1386.613281 666.769531 C 1385.859375 691.242188 1383.226562 715.511719 1378.707031 739.574219 C 1375.460938 755.019531 1371.132812 770.304688 1366.964844 785.035156 C 1365.15625 791.332031 1363.425781 797.730469 1361.703125 804.027344 C 1356.691406 822.839844 1352.039062 842.992188 1347.113281 867.375 C 1346.164062 872.042969 1345.652344 876.792969 1345.132812 881.878906 C 1344.894531 888.613281 1343.855469 895.21875 1342.015625 901.699219 C 1340.175781 908.183594 1337.589844 914.351562 1334.257812 920.203125 C 1332.738281 922.738281 1330.976562 925.082031 1328.964844 927.246094 C 1326.953125 929.40625 1324.738281 931.332031 1322.324219 933.027344 C 1319.90625 934.722656 1317.339844 936.148438 1314.625 937.304688 C 1311.90625 938.457031 1309.101562 939.316406 1306.203125 939.882812 C 1301.710938 940.574219 1297.230469 941.265625 1292.738281 941.875 C 1273.824219 943.820312 1255.378906 947.902344 1237.410156 954.125 C 1233.253906 955.316406 1229.242188 956.882812 1225.378906 958.828125 C 1221.515625 960.773438 1217.867188 963.058594 1214.433594 965.6875 C 1211 968.316406 1207.839844 971.242188 1204.957031 974.464844 C 1202.070312 977.6875 1199.511719 981.148438 1197.277344 984.851562 C 1194.875 990.1875 1193.03125 995.710938 1191.746094 1001.421875 C 1189.71875 1010.804688 1186.238281 1019.609375 1181.300781 1027.84375 C 1167.40625 1048.992188 1141.515625 1055.203125 1118.300781 1059.347656 L 1023.78125 1076.09375 C 1023.054688 1088.226562 1021.355469 1100.222656 1018.695312 1112.078125 C 1017.609375 1117.695312 1016.355469 1123.910156 1015.066406 1131.765625 L 997.285156 1240 C 993.4375 1268.046875 987.480469 1295.640625 979.414062 1322.777344 C 978.980469 1324.121094 978.339844 1325.363281 977.496094 1326.5 C 976.652344 1327.640625 975.652344 1328.613281 974.492188 1329.421875 C 957.378906 1341.28125 939.511719 1351.867188 920.890625 1361.175781 C 902.265625 1370.488281 883.078125 1378.433594 863.324219 1385.011719 C 842.796875 1391.84375 821.910156 1397.300781 800.660156 1401.378906 C 779.414062 1405.457031 757.988281 1408.121094 736.390625 1409.375 C 723.1875 1410.152344 709.796875 1409.546875 696.765625 1409.027344 C 691.160156 1408.765625 685.464844 1408.507812 679.847656 1408.421875 C 670.359375 1408.160156 660.867188 1408.59375 650.855469 1409.027344 C 642.738281 1409.375 634.445312 1409.804688 626.078125 1409.804688 C 621.414062 1409.804688 616.75 1409.632812 612.097656 1409.375 C 601.507812 1408.847656 590.949219 1407.957031 580.421875 1406.707031 C 569.894531 1405.457031 559.421875 1403.847656 549.003906 1401.878906 C 538.585938 1399.910156 528.25 1397.585938 517.992188 1394.90625 C 507.730469 1392.230469 497.578125 1389.203125 487.527344 1385.832031 C 477.476562 1382.457031 467.554688 1378.742188 457.757812 1374.6875 C 447.960938 1370.632812 438.316406 1366.25 428.820312 1361.535156 C 419.324219 1356.820312 410.003906 1351.785156 400.851562 1346.429688 C 391.703125 1341.074219 382.746094 1335.414062 373.984375 1329.445312 C 372.824219 1328.632812 371.824219 1327.65625 370.980469 1326.519531 C 370.140625 1325.382812 369.5 1324.144531 369.058594 1322.796875 C 361 1295.660156 355.046875 1268.070312 351.199219 1240.023438 L 333.417969 1131.789062 C 332.121094 1123.929688 330.917969 1117.71875 329.792969 1112.101562 C 326.8125 1098.941406 325.011719 1085.621094 324.382812 1072.140625 C 320.871094 1021.597656 313.894531 971.539062 303.460938 921.957031 C 293.296875 873.582031 286.273438 824.753906 282.398438 775.476562 C 282.136719 770.214844 281.878906 765.03125 281.617188 759.773438 C 281.183594 750.355469 280.753906 740.691406 279.886719 731.285156 C 278.683594 717.386719 276.347656 703.058594 274.105469 689.335938 C 272.042969 676.910156 269.945312 664.480469 267.808594 652.046875 C 261.3125 614.242188 254.601562 575.136719 251.0625 536.042969 C 246.398438 485.28125 241.660156 432.726562 232.070312 382.050781 C 229.90625 370.578125 225.683594 356.074219 221.539062 342.003906 C 219.902344 336.3125 218.292969 330.695312 216.882812 325.519531 C 210.222656 321.3125 204.136719 316.394531 198.625 310.765625 C 193.113281 305.140625 188.320312 298.953125 184.253906 292.207031 C 183.039062 290.15625 181.9375 288.046875 180.953125 285.878906 C 179.96875 283.710938 179.101562 281.496094 178.355469 279.230469 C 177.609375 276.96875 176.984375 274.675781 176.488281 272.34375 C 175.988281 270.015625 175.617188 267.664062 175.371094 265.296875 C 175.128906 262.925781 175.011719 260.550781 175.023438 258.167969 C 175.035156 255.785156 175.171875 253.410156 175.441406 251.042969 C 175.707031 248.675781 176.101562 246.332031 176.625 244.007812 C 177.144531 241.683594 177.789062 239.394531 178.558594 237.136719 C 187.21875 214.257812 208.941406 201.226562 229.050781 191.386719 C 253.226562 179.628906 278.085938 169.558594 303.628906 161.175781 C 329.171875 152.792969 355.164062 146.175781 381.601562 141.320312 C 433.914062 131.742188 493.203125 120.753906 552.070312 115.34375 C 579.410156 112.855469 606.800781 112.082031 634.238281 113.015625 C 646.242188 113.363281 658.234375 112.757812 670.84375 112.0625 C 684.742188 111.371094 699.15625 110.59375 713.652344 111.285156 C 722.546875 111.71875 731.519531 112.0625 740.417969 112.367188 C 758.882812 113.058594 777.875 113.65625 796.773438 115.472656 C 855.445312 120.863281 914.59375 131.742188 966.816406 141.320312 C 993.269531 146.171875 1019.269531 152.789062 1044.820312 161.171875 C 1070.371094 169.558594 1095.242188 179.628906 1119.425781 191.386719 C 1139.546875 201.226562 1161.203125 214.257812 1169.925781 237.136719 C 1170.695312 239.394531 1171.339844 241.683594 1171.859375 244.007812 C 1172.378906 246.332031 1172.773438 248.679688 1173.042969 251.046875 C 1173.308594 253.414062 1173.449219 255.789062 1173.460938 258.167969 C 1173.472656 260.550781 1173.355469 262.925781 1173.109375 265.296875 C 1172.863281 267.667969 1172.492188 270.015625 1171.992188 272.347656 C 1171.492188 274.675781 1170.871094 276.972656 1170.121094 279.234375 C 1169.375 281.496094 1168.507812 283.710938 1167.523438 285.878906 C 1166.535156 288.046875 1165.4375 290.15625 1164.222656 292.207031 C 1160.15625 298.953125 1155.367188 305.140625 1149.855469 310.765625 C 1144.34375 316.394531 1138.261719 321.3125 1131.601562 325.519531 C 1130.214844 330.695312 1128.582031 336.34375 1126.9375 342.003906 C 1122.792969 356.074219 1118.570312 370.578125 1116.40625 382.050781 C 1115.464844 387.234375 1114.683594 392.582031 1113.820312 397.9375 C 1184.679688 423.65625 1257.703125 450.507812 1323.042969 491.679688 C 1330.9375 496.152344 1338.300781 501.375 1345.132812 507.347656 C 1351.964844 513.320312 1358.121094 519.921875 1363.609375 527.148438 C 1366.609375 532.164062 1369.285156 537.347656 1371.628906 542.699219 C 1373.972656 548.050781 1375.972656 553.53125 1377.625 559.136719 C 1379.277344 564.742188 1380.570312 570.429688 1381.503906 576.199219 C 1382.433594 581.96875 1383 587.773438 1383.199219 593.613281 Z M 1356.691406 734.996094 C 1360.96875 712.058594 1363.460938 688.929688 1364.164062 665.609375 C 1364.867188 642.289062 1363.777344 619.050781 1360.890625 595.898438 C 1359.917969 580.601562 1356.726562 565.785156 1351.3125 551.445312 C 1344.894531 541.273438 1337.101562 532.296875 1327.925781 524.515625 C 1316.4375 515.128906 1304.140625 506.953125 1291.035156 499.996094 C 1277.933594 493.039062 1264.273438 487.429688 1250.0625 483.171875 C 1238.867188 479.230469 1227.414062 476.308594 1215.699219 474.410156 C 1203.984375 472.507812 1192.195312 471.660156 1180.328125 471.863281 L 1179.460938 471.863281 C 1166.816406 470.933594 1154.339844 468.929688 1142.035156 465.859375 C 1129.730469 462.789062 1117.777344 458.691406 1106.179688 453.570312 C 1106.003906 453.570312 1105.917969 453.484375 1105.746094 453.398438 C 1102.496094 481.105469 1099.878906 508.898438 1097.378906 536.085938 C 1095.558594 556.195312 1092.886719 576.308594 1089.867188 596.242188 C 1103.4375 596.492188 1116.910156 597.769531 1130.285156 600.070312 C 1143.660156 602.371094 1156.78125 605.667969 1169.65625 609.96875 C 1174.609375 611.257812 1179.410156 612.984375 1184.050781 615.136719 C 1188.695312 617.292969 1193.109375 619.84375 1197.296875 622.789062 C 1201.484375 625.738281 1205.371094 629.035156 1208.964844 632.679688 C 1212.558594 636.328125 1215.800781 640.265625 1218.6875 644.492188 C 1221.449219 649.914062 1223.582031 655.578125 1225.082031 661.476562 C 1226.582031 667.375 1227.410156 673.367188 1227.570312 679.453125 C 1228.570312 692.730469 1228.394531 705.992188 1227.050781 719.238281 C 1225.910156 732.171875 1223.0625 744.722656 1218.511719 756.882812 C 1217.992188 758.257812 1217.214844 759.640625 1216.609375 761.101562 C 1214.789062 769.933594 1212.140625 778.511719 1208.664062 786.828125 C 1198.46875 808.414062 1185.808594 828.433594 1170.683594 846.898438 C 1163 856.328125 1154.492188 864.945312 1145.160156 872.75 C 1135.832031 880.554688 1125.84375 887.402344 1115.203125 893.296875 C 1092.46875 905.660156 1068.902344 916.160156 1044.507812 924.804688 C 1035.824219 967.214844 1029.410156 1009.96875 1025.261719 1053.0625 L 1114.339844 1037.269531 C 1133.820312 1033.730469 1153.605469 1029.238281 1162.589844 1015.515625 C 1166.144531 1009.296875 1168.648438 1002.679688 1170.101562 995.664062 C 1171.742188 988.527344 1174.074219 981.621094 1177.09375 974.949219 C 1185.890625 957.078125 1202.980469 943.441406 1229.304688 933.257812 C 1248.855469 926.367188 1268.9375 921.851562 1289.554688 919.707031 C 1293.960938 919.015625 1298.355469 918.417969 1302.761719 917.726562 C 1304.082031 917.398438 1305.355469 916.941406 1306.582031 916.351562 C 1307.808594 915.765625 1308.964844 915.058594 1310.046875 914.234375 C 1311.128906 913.410156 1312.117188 912.488281 1313.011719 911.460938 C 1313.90625 910.4375 1314.691406 909.332031 1315.359375 908.148438 C 1317.71875 903.726562 1319.53125 899.09375 1320.796875 894.25 C 1322.0625 889.402344 1322.75 884.472656 1322.859375 879.464844 C 1323.328125 873.933594 1324.078125 868.4375 1325.109375 862.984375 C 1330.109375 838.089844 1334.851562 817.523438 1340.035156 798.238281 C 1341.769531 791.742188 1343.574219 785.378906 1345.449219 778.90625 C 1349.453125 764.511719 1353.671875 749.671875 1356.691406 734.996094 Z M 1204.703125 716.867188 C 1205.90625 704.945312 1206.078125 693.007812 1205.210938 681.054688 C 1205.125 676.625 1204.566406 672.253906 1203.535156 667.945312 C 1202.5 663.636719 1201.019531 659.488281 1199.085938 655.5 C 1193.390625 645.402344 1181.765625 637.71875 1162.492188 631.246094 C 1150.207031 627.140625 1137.667969 624.042969 1124.882812 621.960938 C 1112.097656 619.875 1099.226562 618.828125 1086.273438 618.820312 C 1084.464844 629.945312 1082.5625 641.082031 1080.667969 652.046875 C 1078.503906 664.472656 1076.4375 676.941406 1074.359375 689.335938 C 1072.117188 703.058594 1069.789062 717.386719 1068.578125 731.285156 C 1067.710938 740.691406 1067.289062 750.355469 1066.855469 759.773438 C 1066.597656 765.03125 1066.335938 770.214844 1066.078125 775.476562 C 1064.867188 796.453125 1062.453125 817.339844 1059.519531 838.054688 C 1065 837.660156 1070.449219 837.011719 1075.871094 836.101562 C 1081.292969 835.195312 1086.65625 834.035156 1091.96875 832.621094 C 1097.277344 831.210938 1102.511719 829.550781 1107.664062 827.644531 C 1112.820312 825.738281 1117.875 823.597656 1122.828125 821.214844 C 1127.78125 818.835938 1132.609375 816.226562 1137.320312 813.390625 C 1142.027344 810.554688 1146.589844 807.503906 1151.011719 804.242188 C 1155.429688 800.976562 1159.6875 797.511719 1163.78125 793.84375 C 1167.878906 790.179688 1171.789062 786.328125 1175.523438 782.296875 C 1180.195312 777.386719 1184.390625 772.09375 1188.101562 766.421875 C 1191.816406 760.753906 1194.992188 754.792969 1197.625 748.546875 C 1201.4375 738.3125 1203.796875 727.753906 1204.703125 716.867188 Z M 1180.144531 458.875 C 1191.855469 458.75 1203.511719 459.527344 1215.101562 461.203125 C 1180.46875 446.277344 1145.011719 433.15625 1109.964844 420.375 C 1109.011719 427.019531 1108.332031 433.582031 1107.464844 440.238281 C 1108.546875 440.660156 1109.53125 441.003906 1110.710938 441.4375 C 1121.726562 446.238281 1133.058594 450.097656 1144.707031 453.027344 C 1156.359375 455.953125 1168.171875 457.902344 1180.144531 458.875 Z M 1159.816406 838.335938 C 1166.550781 829.679688 1174.222656 819.429688 1181.390625 808.128906 C 1177.140625 812.0625 1172.730469 815.800781 1168.15625 819.34375 C 1163.582031 822.890625 1158.859375 826.230469 1153.992188 829.363281 C 1149.128906 832.496094 1144.132812 835.410156 1139.011719 838.109375 C 1133.890625 840.804688 1128.664062 843.273438 1123.328125 845.511719 C 1117.992188 847.753906 1112.566406 849.757812 1107.054688 851.523438 C 1101.542969 853.289062 1095.964844 854.8125 1090.320312 856.089844 C 1084.675781 857.371094 1078.988281 858.402344 1073.253906 859.183594 C 1067.519531 859.964844 1061.761719 860.496094 1055.980469 860.773438 C 1053.304688 876.921875 1050.449219 892.972656 1047.515625 908.851562 C 1068.492188 901.257812 1088.75 892.082031 1108.289062 881.316406 C 1118.183594 875.882812 1127.464844 869.550781 1136.132812 862.320312 C 1144.800781 855.089844 1152.695312 847.097656 1159.816406 838.335938 Z M 1141.6875 279.339844 C 1143.195312 276.898438 1144.421875 274.324219 1145.367188 271.621094 C 1146.316406 268.914062 1146.960938 266.136719 1147.300781 263.292969 C 1147.644531 260.445312 1147.679688 257.59375 1147.402344 254.742188 C 1147.125 251.886719 1146.542969 249.097656 1145.660156 246.371094 C 1140.25 231.953125 1124.425781 222.636719 1108.113281 214.691406 C 1084.992188 203.425781 1061.207031 193.78125 1036.769531 185.761719 C 1012.328125 177.738281 987.457031 171.414062 962.152344 166.785156 C 910.449219 157.292969 851.929688 146.503906 794.390625 141.144531 C 776.261719 139.511719 757.59375 138.820312 739.582031 138.214844 C 730.511719 137.953125 721.449219 137.609375 712.394531 137.183594 C 699.191406 136.578125 686.0625 137.273438 672.25 137.953125 C 659.652344 138.644531 646.621094 139.253906 633.417969 138.90625 C 607.074219 137.988281 580.777344 138.734375 554.527344 141.144531 C 496.773438 146.558594 438.078125 157.292969 386.289062 166.785156 C 360.988281 171.414062 336.117188 177.738281 311.679688 185.757812 C 287.242188 193.78125 263.460938 203.425781 240.339844 214.691406 C 224.027344 222.636719 208.226562 231.953125 202.707031 246.371094 C 201.839844 249.101562 201.273438 251.894531 201.007812 254.75 C 200.746094 257.601562 200.789062 260.453125 201.140625 263.296875 C 201.488281 266.140625 202.136719 268.917969 203.085938 271.621094 C 204.035156 274.324219 205.261719 276.898438 206.765625 279.339844 C 208.476562 282.273438 210.433594 285.039062 212.628906 287.628906 C 243.4375 306.074219 275.90625 320.863281 310.039062 332.003906 C 359.960938 349.835938 411.191406 362.265625 463.730469 369.289062 C 483.148438 371.050781 502.597656 371.511719 522.078125 370.675781 C 547.988281 369.121094 573.742188 370.503906 599.335938 374.820312 C 604.933594 376.039062 610.457031 377.53125 615.90625 379.300781 C 623.582031 382.105469 631.496094 383.832031 639.640625 384.484375 C 662.226562 385.28125 684.734375 384.320312 707.167969 381.597656 C 712.957031 380.902344 718.996094 379.691406 725.382812 378.480469 C 739.207031 375.085938 753.21875 373.851562 767.421875 374.777344 C 803.613281 377.46875 839.632812 375.972656 875.480469 370.285156 L 884.722656 369.203125 C 937.261719 362.175781 988.492188 349.746094 1038.414062 331.917969 C 1072.546875 320.777344 1105.015625 305.984375 1135.824219 287.542969 C 1138.011719 284.976562 1139.96875 282.242188 1141.6875 279.339844 Z M 1102.066406 334.753906 C 1103.148438 330.953125 1104.230469 327.242188 1105.257812 323.703125 C 1085.316406 333.1875 1064.863281 341.390625 1043.890625 348.304688 C 992.859375 366.609375 940.46875 379.300781 886.714844 386.371094 L 877.570312 387.453125 C 840.367188 393.34375 802.988281 394.8125 765.441406 391.855469 C 752.996094 391.265625 740.730469 392.476562 728.640625 395.480469 C 722.253906 396.683594 715.652344 397.984375 709.222656 398.730469 C 691.335938 400.933594 673.378906 402.054688 655.355469 402.09375 C 649.75 402.09375 644.21875 401.921875 638.785156 401.75 C 629.148438 400.976562 619.769531 398.988281 610.644531 395.785156 C 605.738281 394.183594 600.765625 392.832031 595.71875 391.738281 C 571.410156 387.652344 546.953125 386.386719 522.347656 387.9375 C 502.085938 388.839844 481.863281 388.320312 461.675781 386.378906 C 407.9375 379.304688 355.558594 366.613281 304.542969 348.304688 C 283.570312 341.386719 263.117188 333.183594 243.175781 323.703125 C 244.257812 327.242188 245.339844 330.953125 246.367188 334.753906 C 250.695312 349.429688 255.089844 364.539062 257.503906 377.222656 C 267.246094 429.097656 272.09375 482.261719 276.835938 533.707031 C 280.285156 571.683594 286.847656 610.355469 293.316406 647.644531 C 295.394531 660.164062 297.550781 672.675781 299.628906 685.101562 C 301.957031 699.34375 304.28125 714.109375 305.667969 728.957031 C 306.621094 738.96875 307.042969 748.980469 307.476562 758.644531 C 307.734375 763.742188 307.90625 768.832031 308.253906 774.015625 C 312.097656 822.183594 318.972656 869.914062 328.882812 917.207031 C 339.59375 967.9375 346.730469 1019.167969 350.292969 1070.898438 C 350.8125 1083.042969 352.425781 1095.042969 355.128906 1106.894531 C 356.332031 1112.847656 357.628906 1119.320312 358.917969 1127.523438 L 376.699219 1235.84375 C 380.277344 1261.132812 385.484375 1286.082031 392.328125 1310.6875 C 400.519531 1316.117188 408.882812 1321.269531 417.417969 1326.140625 C 425.953125 1331.015625 434.644531 1335.59375 443.484375 1339.886719 C 452.328125 1344.175781 461.304688 1348.167969 470.414062 1351.855469 C 479.519531 1355.546875 488.742188 1358.929688 498.078125 1362 C 507.414062 1365.074219 516.84375 1367.832031 526.363281 1370.273438 C 535.882812 1372.714844 545.472656 1374.835938 555.132812 1376.632812 C 564.796875 1378.433594 574.507812 1379.910156 584.269531 1381.058594 C 594.027344 1382.210938 603.816406 1383.03125 613.632812 1383.527344 C 625.667969 1384.015625 637.695312 1383.898438 649.71875 1383.179688 C 659.730469 1382.757812 670.085938 1382.238281 680.445312 1382.5 C 686.222656 1382.585938 692.015625 1382.84375 697.882812 1383.09375 C 710.1875 1383.886719 722.5 1384.03125 734.820312 1383.527344 C 744.636719 1383.03125 754.425781 1382.210938 764.1875 1381.058594 C 773.945312 1379.910156 783.660156 1378.433594 793.320312 1376.632812 C 802.984375 1374.832031 812.574219 1372.710938 822.09375 1370.269531 C 831.613281 1367.828125 841.042969 1365.070312 850.378906 1362 C 859.714844 1358.925781 868.9375 1355.546875 878.046875 1351.855469 C 887.15625 1348.164062 896.132812 1344.175781 904.976562 1339.886719 C 913.816406 1335.59375 922.507812 1331.011719 931.042969 1326.140625 C 939.578125 1321.269531 947.945312 1316.117188 956.136719 1310.6875 C 962.972656 1286.078125 968.179688 1261.132812 971.753906 1235.84375 L 989.535156 1127.523438 C 990.835938 1119.320312 992.121094 1112.847656 993.335938 1106.894531 C 996.03125 1095.042969 997.644531 1083.042969 998.171875 1070.898438 C 1001.363281 1022.320312 1007.90625 974.195312 1017.796875 926.527344 C 1002.144531 916.746094 987.039062 906.1875 972.476562 894.847656 C 967.605469 891.480469 963.609375 887.28125 960.484375 882.246094 C 958.472656 878.433594 957.058594 874.40625 956.253906 870.167969 C 950.957031 840.835938 949.054688 811.285156 950.550781 781.515625 C 950.203125 760.824219 951.789062 740.28125 955.300781 719.886719 C 962.289062 691.859375 972.789062 665.214844 986.808594 639.957031 C 989.546875 633.269531 993.050781 627.007812 997.3125 621.167969 C 1001.578125 615.332031 1006.476562 610.089844 1012.015625 605.441406 C 1015.851562 603.097656 1019.863281 601.105469 1024.054688 599.476562 C 1028.242188 597.847656 1032.542969 596.597656 1036.957031 595.734375 C 1041.371094 594.875 1045.824219 594.410156 1050.320312 594.339844 C 1054.816406 594.273438 1059.28125 594.605469 1063.71875 595.332031 C 1066.964844 574.878906 1069.757812 554.207031 1071.566406 533.707031 C 1076.316406 482.261719 1081.144531 429.097656 1090.90625 377.222656 C 1093.351562 364.539062 1097.757812 349.429688 1102.066406 334.753906 Z M 1055.113281 647.644531 C 1057.355469 634.957031 1059.519531 622.011719 1061.609375 609.058594 C 1058.058594 608.453125 1054.488281 608.164062 1050.886719 608.183594 C 1047.289062 608.207031 1043.71875 608.539062 1040.179688 609.183594 C 1036.640625 609.832031 1033.183594 610.78125 1029.808594 612.03125 C 1026.433594 613.28125 1023.195312 614.816406 1020.089844 616.632812 C 1015.511719 620.664062 1011.457031 625.164062 1007.929688 630.136719 C 1004.398438 635.109375 1001.492188 640.421875 999.199219 646.074219 C 985.804688 670.285156 975.703125 695.804688 968.894531 722.625 C 965.574219 742.167969 964.078125 761.847656 964.402344 781.667969 C 962.917969 810.375 964.722656 838.878906 969.816406 867.171875 C 970.273438 870.046875 971.164062 872.78125 972.488281 875.375 C 974.785156 878.746094 977.605469 881.59375 980.953125 883.925781 C 993.636719 893.851562 1006.929688 903.082031 1020.566406 911.796875 C 1029.996094 866.261719 1036.527344 820.316406 1040.15625 773.960938 C 1040.503906 768.777344 1040.675781 763.691406 1040.933594 758.59375 C 1041.367188 748.925781 1041.800781 738.914062 1042.753906 728.902344 C 1044.128906 714.054688 1046.464844 699.292969 1048.792969 685.046875 C 1050.882812 672.675781 1053.046875 660.164062 1055.113281 647.644531 Z M 1055.113281 647.644531 " fill-opacity="1" fill-rule="nonzero"/><path fill="#a6a6a6" d="M 1112.421875 233.859375 C 1113.683594 235.503906 1114.726562 237.28125 1115.550781 239.183594 C 1116.375 241.089844 1116.957031 243.066406 1117.292969 245.113281 C 1117.628906 247.160156 1117.714844 249.21875 1117.542969 251.285156 C 1117.371094 253.351562 1116.953125 255.371094 1116.285156 257.335938 C 1108.777344 278.050781 1072.527344 288.582031 1055.09375 293.582031 L 1053.371094 294.101562 C 1040.589844 297.8125 1027.472656 300.398438 1014.785156 302.757812 L 933.375 318.703125 C 913.882812 322.828125 894.234375 325.960938 874.429688 328.109375 C 805.972656 334.234375 739 334.234375 674.199219 334.234375 C 609.402344 334.234375 542.394531 334.234375 473.96875 328.109375 C 454.160156 325.960938 434.507812 322.828125 415.015625 318.703125 L 333.625 302.8125 C 320.929688 300.398438 307.808594 297.8125 295.039062 294.15625 L 293.308594 293.636719 C 275.882812 288.636719 239.625 278.105469 232.113281 257.386719 C 231.449219 255.421875 231.03125 253.40625 230.863281 251.335938 C 230.695312 249.269531 230.78125 247.210938 231.121094 245.164062 C 231.460938 243.117188 232.042969 241.140625 232.867188 239.238281 C 233.691406 237.335938 234.734375 235.558594 236 233.914062 C 239.261719 229.730469 243.042969 226.078125 247.332031 222.960938 C 251.625 219.839844 256.261719 217.371094 261.25 215.554688 C 305.523438 198.042969 351.183594 185.613281 398.226562 178.269531 C 409.710938 176.105469 421.355469 173.519531 433.015625 171.019531 C 464.5625 163.136719 496.554688 158.085938 528.996094 155.867188 C 532.023438 155.574219 535.015625 155.058594 537.96875 154.320312 C 542.167969 153.09375 546.460938 152.429688 550.835938 152.328125 C 576.121094 152.671875 601.847656 151.722656 626.707031 150.867188 C 650.007812 150 674.089844 149.046875 698 149.21875 C 713.097656 149.308594 728.382812 150.085938 743.230469 150.867188 C 761.101562 151.722656 779.5625 152.585938 797.519531 152.328125 C 801.894531 152.429688 806.179688 153.09375 810.378906 154.320312 C 813.304688 155.054688 816.269531 155.570312 819.273438 155.867188 C 851.746094 158.082031 883.765625 163.132812 915.34375 171.019531 C 926.988281 173.519531 938.644531 176.105469 950.128906 178.269531 C 997.171875 185.617188 1042.832031 198.046875 1087.105469 215.554688 C 1092.101562 217.359375 1096.75 219.816406 1101.054688 222.925781 C 1105.355469 226.035156 1109.144531 229.679688 1112.421875 233.859375 Z M 1104.144531 252.929688 C 1104.457031 251.917969 1104.640625 250.882812 1104.6875 249.828125 C 1104.738281 248.769531 1104.652344 247.722656 1104.433594 246.6875 C 1104.214844 245.652344 1103.867188 244.660156 1103.394531 243.714844 C 1102.921875 242.769531 1102.339844 241.894531 1101.644531 241.097656 C 1099.042969 237.972656 1096.074219 235.25 1092.730469 232.933594 C 1089.390625 230.617188 1085.796875 228.792969 1081.957031 227.460938 C 1038.554688 210.273438 993.785156 198.132812 947.648438 191.042969 C 936.089844 188.800781 924.433594 186.203125 912.605469 183.703125 C 881.792969 176.015625 850.550781 171.0625 818.875 168.855469 C 814.980469 168.574219 811.152344 167.914062 807.390625 166.875 C 804.21875 166.035156 801 165.515625 797.726562 165.316406 C 779.324219 165.574219 760.699219 164.71875 742.65625 163.765625 C 727.980469 163.074219 712.796875 162.296875 697.859375 162.207031 C 674.382812 162.035156 650.386719 162.988281 627.25 163.855469 C 602.226562 164.71875 576.324219 165.746094 550.695312 165.316406 C 547.417969 165.523438 544.195312 166.042969 541.019531 166.875 C 537.261719 167.914062 533.4375 168.574219 529.546875 168.855469 C 497.867188 171.0625 466.621094 176.015625 435.804688 183.703125 C 423.976562 186.203125 412.332031 188.800781 400.761719 191.042969 C 354.625 198.136719 309.855469 210.277344 266.453125 227.460938 C 262.613281 228.792969 259.023438 230.617188 255.683594 232.933594 C 252.34375 235.25 249.375 237.972656 246.777344 241.097656 C 246.082031 241.894531 245.496094 242.765625 245.019531 243.714844 C 244.546875 244.660156 244.203125 245.652344 243.984375 246.6875 C 243.765625 247.722656 243.679688 248.769531 243.730469 249.828125 C 243.78125 250.886719 243.960938 251.917969 244.277344 252.929688 C 249.539062 267.433594 283.976562 277.445312 296.921875 281.15625 L 298.652344 281.675781 C 310.90625 285.300781 323.6875 287.714844 336.113281 290.128906 L 417.417969 305.929688 C 436.507812 310.003906 455.761719 313.082031 475.171875 315.164062 C 542.925781 321.289062 609.648438 321.289062 674.210938 321.289062 C 738.769531 321.289062 805.496094 321.289062 873.25 315.164062 C 892.628906 313.085938 911.847656 310.007812 930.90625 305.929688 L 1012.308594 290.128906 C 1024.734375 287.714844 1037.503906 285.300781 1049.765625 281.675781 L 1051.488281 281.15625 C 1064.433594 277.445312 1098.871094 267.433594 1104.144531 252.929688 Z M 1104.144531 252.929688 " fill-opacity="1" fill-rule="nonzero"/></svg>