<svg xmlns="http://www.w3.org/2000/svg" xmlns:xlink="http://www.w3.org/1999/xlink" width="2000" zoomAndPan="magnify" viewBox="0 0 1500 1499.999933" height="2000" preserveAspectRatio="xMidYMid meet" version="1.0"><defs><clipPath id="c4375f3e16"><path d="M 570 253 L 1082 253 L 1082 1414.636719 L 570 1414.636719 Z M 570 253 " clip-rule="nonzero"/></clipPath><clipPath id="b43d5fd4e7"><path d="M 570 253 L 1082 253 L 1082 1414.636719 L 570 1414.636719 Z M 570 253 " clip-rule="nonzero"/></clipPath><clipPath id="bf9e490b36"><path d="M 1028 251.34375 L 1084.328125 251.34375 L 1084.328125 316 L 1028 316 Z M 1028 251.34375 " clip-rule="nonzero"/></clipPath></defs><path fill="#d1d1d1" d="M 487.34375 1315.503906 C 485.894531 1323.707031 469.96875 1327.707031 451.773438 1324.484375 C 433.585938 1321.246094 420.011719 1312 421.472656 1303.796875 C 421.496094 1303.660156 421.515625 1303.535156 421.546875 1303.421875 L 634.878906 101.039062 L 700.726562 112.734375 L 487.40625 1315.121094 C 487.386719 1315.242188 487.367188 1315.367188 487.34375 1315.503906 " fill-opacity="1" fill-rule="nonzero"/><path fill="#ffffff" d="M 638.265625 105.882812 L 425.660156 1304.148438 C 425.648438 1304.242188 425.628906 1304.335938 425.609375 1304.417969 L 425.585938 1304.523438 C 424.808594 1308.898438 434.914062 1317.234375 452.507812 1320.355469 C 460.734375 1321.816406 468.660156 1321.765625 474.816406 1320.222656 C 479.625 1319.007812 482.847656 1316.914062 483.230469 1314.777344 C 483.230469 1314.765625 483.230469 1314.765625 483.230469 1314.757812 L 483.25 1314.640625 C 483.261719 1314.550781 483.273438 1314.476562 483.28125 1314.394531 L 695.890625 116.125 Z M 464.0625 1329.78125 C 459.886719 1329.78125 455.492188 1329.386719 451.046875 1328.601562 C 429.917969 1324.847656 415.441406 1313.875 417.351562 1303.058594 C 417.378906 1302.902344 417.410156 1302.738281 417.453125 1302.582031 L 630.765625 100.304688 C 631.15625 98.03125 633.332031 96.507812 635.601562 96.914062 L 701.464844 108.621094 C 702.550781 108.816406 703.527344 109.429688 704.15625 110.339844 C 704.800781 111.253906 705.039062 112.375 704.851562 113.472656 L 491.542969 1315.75 C 491.519531 1315.90625 491.488281 1316.074219 491.457031 1316.238281 C 490.441406 1321.921875 485.261719 1326.214844 476.859375 1328.328125 C 473.035156 1329.292969 468.683594 1329.78125 464.0625 1329.78125 " fill-opacity="1" fill-rule="nonzero"/><path fill="#9c9c9c" d="M 674.148438 120.855469 C 640.441406 313.351562 515.207031 1018.234375 461.386719 1325.601562 C 463.285156 1335.019531 477.769531 1325.871094 485.074219 1319.652344 C 492.390625 1313.429688 488.929688 1304.78125 490.585938 1295.3125 C 559.390625 902.355469 628.203125 509.40625 697.007812 116.449219 C 689.339844 118.8125 681.660156 121.167969 674.148438 120.855469 " fill-opacity="1" fill-rule="nonzero"/><path fill="#f0f0f0" d="M 651.292969 119.539062 C 622.640625 293.640625 456.703125 1222.738281 437.152344 1320.222656 C 430.21875 1321.601562 427.609375 1315.96875 424.03125 1311.375 C 417.847656 1303.445312 422.707031 1291.851562 424.480469 1281.949219 C 511.113281 797.582031 547.132812 527.460938 636.203125 106.898438 C 637.363281 112.226562 649.851562 118.191406 651.292969 119.539062 " fill-opacity="1" fill-rule="nonzero"/><path fill="#1a1648" d="M 638.265625 105.882812 L 425.660156 1304.148438 C 425.648438 1304.242188 425.628906 1304.335938 425.609375 1304.417969 L 425.585938 1304.523438 C 424.808594 1308.898438 434.914062 1317.234375 452.507812 1320.355469 C 460.734375 1321.816406 468.660156 1321.765625 474.816406 1320.222656 C 479.625 1319.007812 482.847656 1316.914062 483.230469 1314.777344 C 483.230469 1314.765625 483.230469 1314.765625 483.230469 1314.757812 L 483.25 1314.640625 C 483.261719 1314.550781 483.273438 1314.476562 483.28125 1314.394531 L 695.890625 116.125 Z M 464.0625 1329.78125 C 459.886719 1329.78125 455.492188 1329.386719 451.046875 1328.601562 C 429.917969 1324.847656 415.441406 1313.875 417.351562 1303.058594 C 417.378906 1302.902344 417.410156 1302.738281 417.453125 1302.582031 L 630.765625 100.304688 C 631.15625 98.03125 633.332031 96.507812 635.601562 96.914062 L 701.464844 108.621094 C 702.550781 108.816406 703.527344 109.429688 704.15625 110.339844 C 704.800781 111.253906 705.039062 112.375 704.851562 113.472656 L 491.542969 1315.75 C 491.519531 1315.90625 491.488281 1316.074219 491.457031 1316.238281 C 490.441406 1321.921875 485.261719 1326.214844 476.859375 1328.328125 C 473.035156 1329.292969 468.683594 1329.78125 464.0625 1329.78125 " fill-opacity="1" fill-rule="nonzero"/><path fill="#7f8282" d="M 634.867188 101.039062 C 636.316406 92.847656 652.246094 88.835938 670.441406 92.058594 C 688.625 95.292969 702.199219 104.554688 700.738281 112.746094 C 699.289062 120.929688 683.371094 124.949219 665.175781 121.726562 C 646.980469 118.492188 633.417969 109.230469 634.867188 101.039062 " fill-opacity="1" fill-rule="nonzero"/><path fill="#1a1648" d="M 658.140625 95.117188 C 654.222656 95.117188 650.578125 95.523438 647.394531 96.320312 C 642.585938 97.535156 639.363281 99.628906 638.980469 101.765625 C 638.203125 106.140625 648.308594 114.476562 665.902344 117.597656 C 683.496094 120.730469 695.859375 116.375 696.636719 112.011719 C 697.402344 107.644531 687.300781 99.308594 669.703125 96.1875 C 665.726562 95.472656 661.808594 95.117188 658.140625 95.117188 Z M 677.496094 127.035156 C 673.402344 127.035156 669.011719 126.652344 664.441406 125.84375 C 643.3125 122.089844 628.835938 111.109375 630.753906 100.304688 C 631.757812 94.632812 636.941406 90.339844 645.355469 88.210938 C 652.628906 86.378906 661.796875 86.273438 671.164062 87.941406 C 692.292969 91.695312 706.78125 102.675781 704.863281 113.472656 C 703.359375 121.945312 692.355469 127.035156 677.496094 127.035156 " fill-opacity="1" fill-rule="nonzero"/><path fill="#d1d1d1" d="M 640.992188 1398.925781 L 640.96875 1398.914062 C 640.960938 1399.195312 640.917969 1399.484375 640.878906 1399.742188 C 639.425781 1407.9375 623.488281 1411.960938 605.292969 1408.722656 C 587.109375 1405.488281 573.546875 1396.238281 574.996094 1388.046875 C 575.039062 1387.777344 575.109375 1387.496094 575.191406 1387.226562 L 575.140625 1387.21875 L 728.113281 525.042969 C 730.507812 511.53125 737.6875 499.339844 748.339844 490.699219 L 1035.335938 257.898438 L 1077.445312 309.898438 L 809.859375 526.890625 C 799.199219 535.539062 792.015625 547.730469 789.613281 561.253906 L 640.992188 1398.925781 " fill-opacity="1" fill-rule="nonzero"/><g clip-path="url(#c4375f3e16)"><path fill="#ffffff" d="M 579.359375 1387.351562 C 579.359375 1387.714844 579.296875 1388.089844 579.191406 1388.453125 C 579.152344 1388.554688 579.128906 1388.667969 579.109375 1388.785156 C 578.332031 1393.140625 588.4375 1401.484375 606.03125 1404.605469 C 623.625 1407.726562 635.988281 1403.382812 636.765625 1399.019531 C 636.773438 1398.914062 636.792969 1398.800781 636.792969 1398.695312 C 636.816406 1398.363281 636.867188 1398.042969 636.960938 1397.742188 L 785.5 560.527344 C 788.078125 546.011719 795.789062 532.914062 807.226562 523.644531 L 1071.570312 309.289062 L 1034.722656 263.785156 L 750.972656 493.945312 C 741.109375 501.953125 734.445312 513.253906 732.226562 525.78125 Z M 617.625 1414.042969 C 613.53125 1414.042969 609.140625 1413.660156 604.570312 1412.839844 C 583.441406 1409.097656 568.964844 1398.117188 570.882812 1387.3125 C 570.914062 1387.144531 570.945312 1386.96875 570.976562 1386.804688 C 570.984375 1386.699219 571.007812 1386.59375 571.027344 1386.492188 L 723.992188 524.316406 C 726.570312 509.8125 734.28125 496.714844 745.710938 487.445312 L 1032.703125 254.652344 C 1033.5625 253.945312 1034.664062 253.625 1035.769531 253.738281 C 1036.871094 253.851562 1037.882812 254.402344 1038.589844 255.261719 L 1080.699219 307.265625 C 1081.394531 308.125 1081.726562 309.234375 1081.601562 310.335938 C 1081.5 311.445312 1080.9375 312.449219 1080.078125 313.15625 L 812.492188 530.144531 C 802.617188 538.152344 795.953125 549.453125 793.738281 561.988281 L 645.117188 1399.652344 C 645.105469 1399.683594 645.105469 1399.703125 645.09375 1399.722656 C 645.074219 1399.984375 645.03125 1400.230469 644.992188 1400.480469 C 643.488281 1408.953125 632.484375 1414.042969 617.625 1414.042969 " fill-opacity="1" fill-rule="nonzero"/></g><path fill="#f0f0f0" d="M 1047.894531 275.007812 C 883.285156 409.226562 765.882812 491.707031 754.910156 516.148438 C 738.394531 552.917969 590.496094 1404.390625 590.496094 1404.390625 C 575.492188 1397.132812 573.171875 1397.710938 576.1875 1381.308594 C 653.0625 963.367188 720.707031 526.816406 734.644531 506.886719 C 752.453125 481.429688 931.074219 341.359375 1036.351562 261.371094 C 1037.863281 266.367188 1039.386719 271.378906 1047.894531 275.007812 " fill-opacity="1" fill-rule="nonzero"/><path fill="#9c9c9c" d="M 1050.308594 302.058594 C 953.371094 380.847656 791.695312 507.117188 777.957031 524.773438 C 755.75 545.390625 635.964844 1316.777344 615.59375 1409.8125 C 618.527344 1411.730469 637.933594 1413.191406 640.878906 1399.742188 C 653.582031 1341.738281 691.609375 1109.609375 699.371094 1059.140625 C 706.46875 1012.957031 719.171875 953.457031 728.167969 907.613281 C 756.847656 761.488281 777.292969 579.046875 796.441406 542.597656 C 808.328125 519.964844 851.078125 493.914062 1072.007812 314.316406 C 1072.007812 314.316406 1060.496094 305.273438 1050.308594 302.058594 " fill-opacity="1" fill-rule="nonzero"/><g clip-path="url(#b43d5fd4e7)"><path fill="#181447" d="M 579.359375 1387.351562 C 579.359375 1387.714844 579.296875 1388.089844 579.191406 1388.453125 C 579.152344 1388.554688 579.128906 1388.667969 579.109375 1388.785156 C 578.332031 1393.140625 588.4375 1401.484375 606.03125 1404.605469 C 623.625 1407.726562 635.988281 1403.382812 636.765625 1399.019531 C 636.773438 1398.914062 636.792969 1398.800781 636.792969 1398.695312 C 636.816406 1398.363281 636.867188 1398.042969 636.960938 1397.742188 L 785.5 560.527344 C 788.078125 546.011719 795.789062 532.914062 807.226562 523.644531 L 1071.570312 309.289062 L 1034.722656 263.785156 L 750.972656 493.945312 C 741.109375 501.953125 734.445312 513.253906 732.226562 525.78125 Z M 617.625 1414.042969 C 613.53125 1414.042969 609.140625 1413.660156 604.570312 1412.839844 C 583.441406 1409.097656 568.964844 1398.117188 570.882812 1387.3125 C 570.914062 1387.144531 570.945312 1386.96875 570.976562 1386.804688 C 570.984375 1386.699219 571.007812 1386.59375 571.027344 1386.492188 L 723.992188 524.316406 C 726.570312 509.8125 734.28125 496.714844 745.710938 487.445312 L 1032.703125 254.652344 C 1033.5625 253.945312 1034.664062 253.625 1035.769531 253.738281 C 1036.871094 253.851562 1037.882812 254.402344 1038.589844 255.261719 L 1080.699219 307.265625 C 1081.394531 308.125 1081.726562 309.234375 1081.601562 310.335938 C 1081.5 311.445312 1080.9375 312.449219 1080.078125 313.15625 L 812.492188 530.144531 C 802.617188 538.152344 795.953125 549.453125 793.738281 561.988281 L 645.117188 1399.652344 C 645.105469 1399.683594 645.105469 1399.703125 645.09375 1399.722656 C 645.074219 1399.984375 645.03125 1400.230469 644.992188 1400.480469 C 643.488281 1408.953125 632.484375 1414.042969 617.625 1414.042969 " fill-opacity="1" fill-rule="nonzero"/></g><path fill="#7f8282" d="M 1035.6875 257.617188 C 1042.214844 252.464844 1056.773438 260.0625 1068.222656 274.582031 C 1079.652344 289.097656 1083.632812 305.046875 1077.105469 310.199219 C 1070.585938 315.34375 1056.019531 307.753906 1044.578125 293.226562 C 1033.140625 278.707031 1029.160156 262.761719 1035.6875 257.617188 " fill-opacity="1" fill-rule="nonzero"/><g clip-path="url(#bf9e490b36)"><path fill="#1a1648" d="M 1035.6875 257.617188 L 1035.699219 257.617188 Z M 1040.828125 260.179688 C 1039.761719 260.179688 1038.890625 260.417969 1038.277344 260.90625 C 1036.570312 262.253906 1036.246094 266.078125 1037.449219 270.890625 C 1038.992188 277.058594 1042.691406 284.070312 1047.863281 290.644531 C 1058.929688 304.683594 1071.042969 309.652344 1074.523438 306.914062 C 1078.007812 304.164062 1075.996094 291.214844 1064.929688 277.175781 C 1059.757812 270.601562 1053.8125 265.375 1048.175781 262.429688 C 1045.34375 260.957031 1042.765625 260.179688 1040.828125 260.179688 Z M 1072.039062 315.957031 C 1063.136719 315.964844 1051.304688 308.519531 1041.292969 295.816406 C 1035.410156 288.339844 1031.160156 280.210938 1029.335938 272.921875 C 1027.242188 264.503906 1028.570312 257.898438 1033.097656 254.332031 C 1037.625 250.761719 1044.359375 251 1052.039062 255.015625 C 1058.703125 258.488281 1065.613281 264.511719 1071.5 271.988281 C 1084.78125 288.851562 1088.304688 306.695312 1079.707031 313.476562 C 1077.570312 315.15625 1074.96875 315.957031 1072.039062 315.957031 " fill-opacity="1" fill-rule="nonzero"/></g></svg>