<svg xmlns="http://www.w3.org/2000/svg" xmlns:xlink="http://www.w3.org/1999/xlink" width="2000" zoomAndPan="magnify" viewBox="0 0 1500 1499.999933" height="2000" preserveAspectRatio="xMidYMid meet" version="1.0"><defs><clipPath id="ad3e2d1992"><path d="M 58 89 L 1442.191406 89 L 1442.191406 1411.09375 L 58 1411.09375 Z M 58 89 " clip-rule="nonzero"/></clipPath></defs><g clip-path="url(#ad3e2d1992)"><path fill="#a6a6a6" d="M 1442.28125 290.695312 C 1442.304688 298.738281 1441.371094 306.664062 1439.480469 314.480469 C 1438.984375 317.199219 1438.488281 319.839844 1438.074219 322.398438 L 1433.117188 353.285156 C 1426.511719 393.921875 1419.742188 435.042969 1412.800781 475.589844 C 1408.59375 500.535156 1404.214844 525.472656 1399.832031 550.40625 C 1380.925781 658.015625 1360.277344 767.015625 1338.558594 874.355469 C 1336.128906 888.101562 1332.578125 901.550781 1327.90625 914.707031 C 1323.179688 925.921875 1317.414062 936.578125 1310.613281 946.675781 L 1307.558594 951.539062 C 1305.097656 956.222656 1302.347656 960.730469 1299.308594 965.0625 C 1296.269531 969.394531 1292.964844 973.515625 1289.398438 977.425781 C 1285.828125 981.335938 1282.027344 985 1277.988281 988.421875 C 1273.953125 991.84375 1269.714844 994.992188 1265.273438 997.871094 C 1260.472656 1000.582031 1255.519531 1002.976562 1250.414062 1005.054688 C 1244.101562 1017.3125 1237 1029.09375 1229.109375 1040.398438 C 1230.355469 1043.351562 1231.324219 1046.390625 1232.019531 1049.519531 C 1232.71875 1052.644531 1233.128906 1055.808594 1233.257812 1059.011719 C 1233.382812 1062.210938 1233.222656 1065.398438 1232.777344 1068.570312 C 1232.328125 1071.742188 1231.601562 1074.847656 1230.597656 1077.890625 C 1228.425781 1082.914062 1225.511719 1087.457031 1221.847656 1091.515625 C 1217.246094 1096.589844 1212.25 1101.242188 1206.859375 1105.464844 C 1186.125 1122.753906 1164.132812 1138.25 1140.882812 1151.960938 L 1118.667969 1206.71875 C 1117.054688 1211.203125 1114.933594 1215.429688 1112.304688 1219.402344 C 1103.644531 1230.40625 1093.351562 1239.570312 1081.417969 1246.898438 C 1077.535156 1249.628906 1073.742188 1252.1875 1070.351562 1254.964844 C 1053.253906 1268.339844 1035.003906 1280.480469 1017.425781 1292.214844 L 957.625 1332.089844 C 941.773438 1342.582031 925.507812 1353.488281 908.410156 1362.894531 C 875.878906 1380.742188 826.558594 1404.191406 773.804688 1402.367188 C 769.253906 1402.375 764.75 1401.90625 760.296875 1400.960938 C 755.84375 1400.011719 751.539062 1398.613281 747.382812 1396.753906 C 741.96875 1401.421875 735.964844 1405.136719 729.375 1407.902344 C 724.417969 1409.71875 719.296875 1410.601562 714.019531 1410.554688 C 712.695312 1410.636719 711.378906 1410.636719 710.054688 1410.796875 C 703.449219 1411.371094 697.257812 1411.625 691.308594 1411.625 C 678.164062 1411.726562 665.253906 1410.046875 652.574219 1406.589844 C 645.308594 1404.6875 638.128906 1402.367188 631.027344 1399.808594 C 621.570312 1396.253906 612.402344 1392.070312 603.519531 1387.253906 C 596.175781 1383.542969 589.316406 1380.074219 582.054688 1377.191406 L 417.40625 1311.722656 C 416.089844 1311.144531 414.441406 1310.316406 412.621094 1309.414062 C 411.148438 1308.632812 409.632812 1307.941406 408.078125 1307.339844 C 406.792969 1307.246094 405.554688 1306.949219 404.367188 1306.441406 C 355.402344 1288.28125 308.027344 1266.644531 262.246094 1241.523438 C 251.492188 1235.992188 242.050781 1228.753906 233.917969 1219.804688 C 227.34375 1211.296875 222.140625 1202.019531 218.308594 1191.976562 C 214.261719 1182.753906 209.226562 1172.378906 204.269531 1162.164062 C 200.058594 1153.492188 195.679688 1144.664062 191.96875 1136.316406 C 163.96875 1127.179688 136.769531 1116.089844 110.367188 1103.046875 L 87 1094.203125 C 86.183594 1093.882812 85.4375 1093.441406 84.761719 1092.878906 C 84.089844 1092.320312 83.515625 1091.667969 83.050781 1090.925781 C 82.582031 1090.183594 82.242188 1089.386719 82.027344 1088.539062 C 81.816406 1087.6875 81.738281 1086.824219 81.800781 1085.949219 C 78.746094 1083.886719 75.691406 1081.902344 72.71875 1079.664062 C 71.054688 1078.601562 69.503906 1077.386719 68.070312 1076.027344 C 66.636719 1074.667969 65.34375 1073.1875 64.191406 1071.582031 C 63.039062 1069.976562 62.046875 1068.277344 61.214844 1066.484375 C 60.386719 1064.691406 59.730469 1062.835938 59.253906 1060.921875 C 59.0625 1059.664062 58.964844 1058.398438 58.957031 1057.125 C 58.953125 1055.851562 59.042969 1054.585938 59.222656 1053.324219 C 59.402344 1052.066406 59.675781 1050.824219 60.039062 1049.605469 C 60.402344 1048.386719 60.851562 1047.199219 61.386719 1046.046875 C 61.925781 1044.890625 62.542969 1043.78125 63.242188 1042.71875 C 63.941406 1041.65625 64.714844 1040.648438 65.5625 1039.699219 C 66.410156 1038.75 67.320312 1037.867188 68.296875 1037.050781 C 69.273438 1036.238281 70.304688 1035.496094 71.390625 1034.832031 C 72.222656 1034.253906 73.214844 1033.507812 74.367188 1032.769531 C 77.5 1030.53125 80.566406 1028.386719 83.589844 1026.65625 C 84.527344 1021.855469 86.511719 1017.53125 89.539062 1013.6875 C 93.472656 1008.839844 98.105469 1004.792969 103.441406 1001.550781 C 145.769531 975.6875 190.34375 954.574219 237.171875 938.210938 C 238.464844 937.730469 239.800781 937.457031 241.179688 937.402344 C 242.558594 937.34375 243.910156 937.503906 245.238281 937.878906 L 246.394531 938.210938 C 246.902344 938.308594 247.394531 938.445312 247.878906 938.628906 C 261.839844 931.769531 276.042969 924.910156 290.246094 918.058594 C 306.191406 910.382812 322.042969 902.703125 337.570312 895.1875 C 348.960938 889.574219 359.476562 884.445312 369.6875 878.425781 C 371.671875 877.179688 373.734375 875.945312 375.71875 874.703125 C 381.691406 870.847656 387.886719 867.390625 394.300781 864.328125 C 399.582031 861.847656 404.953125 859.945312 410.074219 858.125 C 416.183594 856.136719 422.085938 853.65625 427.78125 850.675781 C 428.933594 848.199219 430.257812 845.640625 431.574219 843.160156 C 433.234375 840.023438 434.964844 836.714844 436.035156 834.15625 C 436.476562 832.972656 437.089844 831.890625 437.878906 830.902344 C 438.664062 829.917969 439.589844 829.082031 440.648438 828.390625 C 458.269531 816.675781 477.039062 807.230469 496.953125 800.054688 C 503.078125 797.90625 509.328125 796.199219 515.695312 794.9375 C 536.144531 791.378906 556.734375 790.109375 577.464844 791.132812 L 583.078125 791.214844 C 591.011719 791.375 599.011719 791.546875 607.023438 791.46875 C 609.664062 791.375 612.234375 791.292969 614.125 791.050781 C 614.058594 790.273438 614.117188 789.503906 614.300781 788.746094 C 614.777344 786.984375 615.765625 785.582031 617.261719 784.539062 C 615.777344 779.441406 613.496094 774.734375 610.414062 770.417969 C 607.695312 766.050781 605.273438 761.527344 603.148438 756.84375 C 601.027344 752.160156 599.21875 747.355469 597.726562 742.433594 C 596.234375 737.511719 595.070312 732.515625 594.238281 727.4375 C 593.402344 722.363281 592.902344 717.257812 592.742188 712.117188 C 591.003906 682.789062 591.425781 653.492188 593.996094 624.226562 C 596.570312 594.957031 601.269531 566.039062 608.097656 537.460938 C 609.167969 532.421875 610.332031 527.386719 611.484375 522.347656 C 612.8125 516.8125 614.125 511.28125 615.289062 505.667969 C 615.945312 501.8125 616.246094 497.929688 616.191406 494.023438 C 616.203125 489.824219 616.453125 485.640625 616.9375 481.46875 C 619.003906 466.480469 621.976562 451.574219 624.777344 437.117188 C 626.105469 430.675781 627.335938 424.242188 628.582031 417.796875 C 635.539062 380.085938 639.804688 342.074219 641.378906 303.757812 C 641.539062 298.628906 641.714844 293.589844 641.875 288.472656 C 642.210938 276.746094 642.53125 264.6875 643.523438 252.734375 C 647.171875 217.679688 653.167969 183.03125 661.519531 148.792969 L 663.007812 142.269531 C 665.699219 129.472656 669.964844 117.226562 675.804688 105.527344 C 676.972656 102.878906 678.507812 100.464844 680.410156 98.28125 C 682.308594 96.097656 684.492188 94.242188 686.949219 92.71875 C 689.242188 91.585938 691.640625 90.753906 694.144531 90.222656 C 696.644531 89.691406 699.175781 89.476562 701.730469 89.582031 L 705.121094 89.582031 C 718.035156 88.882812 730.753906 90.152344 743.277344 93.386719 L 749.214844 95.359375 C 756.367188 97.828125 763.632812 99.898438 771.015625 101.5625 C 796.539062 106.679688 821.972656 111.9375 847.496094 117.25 L 898.691406 127.902344 C 961.695312 141.035156 1026.773438 154.660156 1091.023438 167.214844 L 1299.121094 207.761719 C 1325.960938 212.960938 1353.707031 218.414062 1380.800781 226.503906 L 1383.199219 227.242188 C 1396.636719 230.824219 1409.628906 235.617188 1422.175781 241.621094 C 1424.507812 243.136719 1426.632812 244.898438 1428.550781 246.914062 C 1430.46875 248.925781 1432.128906 251.136719 1433.53125 253.539062 C 1434.933594 255.941406 1436.035156 258.472656 1436.84375 261.132812 C 1437.652344 263.792969 1438.144531 266.511719 1438.316406 269.289062 C 1438.71875 271.445312 1439.214844 273.585938 1439.710938 275.730469 C 1441.082031 280.632812 1441.9375 285.621094 1442.28125 290.695312 Z M 1415.199219 309.683594 C 1416.632812 303.710938 1417.429688 297.65625 1417.585938 291.515625 C 1417.246094 288.074219 1416.613281 284.691406 1415.695312 281.359375 C 1415.121094 278.71875 1414.453125 275.996094 1414.035156 273.4375 C 1412.640625 265.367188 1411.316406 263.859375 1410.820312 263.523438 C 1399.648438 258.238281 1388.089844 254.011719 1376.140625 250.84375 L 1373.746094 250.105469 C 1347.816406 242.335938 1320.644531 237.054688 1294.382812 231.9375 L 1086.238281 191.449219 C 1021.898438 178.894531 956.65625 165.265625 893.574219 152.136719 L 842.367188 141.484375 C 817.003906 136.105469 791.570312 130.875 766.070312 125.792969 C 757.761719 123.957031 749.582031 121.648438 741.539062 118.875 L 735.773438 116.972656 C 725.738281 114.664062 715.578125 113.785156 705.292969 114.335938 L 701.660156 114.335938 C 700.589844 114.414062 699.769531 114.414062 699.183594 114.414062 C 698.726562 115.160156 698.316406 115.929688 697.949219 116.722656 C 692.992188 126.550781 689.398438 136.859375 687.171875 147.640625 L 685.683594 154.164062 C 677.5625 187.296875 671.722656 220.824219 668.171875 254.75 C 667.261719 266.140625 666.9375 277.808594 666.601562 289.265625 C 666.441406 294.464844 666.269531 299.585938 666.027344 304.785156 C 664.46875 344.292969 660.089844 383.492188 652.894531 422.375 C 651.664062 428.898438 650.335938 435.421875 649.011719 441.972656 C 646.289062 456.011719 643.398438 470.539062 641.414062 484.742188 C 641.089844 487.796875 641 491.023438 640.917969 494.496094 C 640.9375 499.964844 640.441406 505.386719 639.429688 510.761719 C 638.277344 516.457031 636.953125 522.289062 635.636719 527.9375 C 634.484375 532.804688 633.332031 537.761719 632.25 542.636719 C 625.699219 570.039062 621.179688 597.773438 618.695312 625.835938 C 616.210938 653.902344 615.789062 681.996094 617.421875 710.121094 C 617.625 718.308594 618.867188 726.335938 621.148438 734.199219 C 623.425781 742.066406 626.671875 749.511719 630.875 756.535156 C 632.617188 758.765625 634.179688 761.117188 635.554688 763.589844 C 636.929688 766.058594 638.109375 768.625 639.085938 771.277344 C 640.066406 773.933594 640.832031 776.648438 641.390625 779.421875 C 641.945312 782.195312 642.285156 784.996094 642.40625 787.824219 L 670.8125 795.59375 C 669.820312 794.347656 668.828125 793.117188 668.089844 791.960938 C 660.230469 781.601562 653.488281 770.5625 647.859375 758.839844 C 635.878906 732.003906 635.382812 702.351562 635.960938 671.800781 C 636.539062 641.667969 638.933594 613.339844 641.332031 585.914062 C 643.640625 559.492188 645.945312 532.238281 646.613281 503.417969 C 647.441406 488.546875 649.613281 473.875 653.136719 459.402344 L 654.128906 454.859375 C 660.988281 421.992188 666.351562 388.226562 671.558594 355.519531 L 675.109375 333.050781 C 678.570312 311.089844 682.132812 288.460938 684.023438 266.1875 C 684.609375 259.753906 685.347656 253.054688 686.085938 246.371094 C 688.324219 230.425781 689.261719 214.402344 688.898438 198.308594 C 688.320312 193.550781 688.171875 188.777344 688.445312 183.996094 C 688.722656 179.210938 689.421875 174.488281 690.542969 169.828125 C 691.660156 165.171875 693.1875 160.648438 695.117188 156.261719 C 697.046875 151.875 699.351562 147.695312 702.03125 143.71875 C 716.648438 124.316406 739.277344 129.195312 757.527344 133.148438 C 759.511719 133.5625 761.574219 133.980469 763.464844 134.394531 L 1162.347656 214.332031 C 1195.132812 220.855469 1227.585938 229.191406 1258.96875 237.285156 C 1288.121094 244.800781 1318.257812 252.558594 1348.484375 258.84375 C 1358.761719 260.484375 1368.5625 263.621094 1377.882812 268.25 C 1380.445312 269.542969 1382.847656 271.085938 1385.089844 272.878906 C 1387.328125 274.671875 1389.359375 276.679688 1391.179688 278.898438 C 1393 281.117188 1394.570312 283.5 1395.894531 286.046875 C 1397.214844 288.59375 1398.261719 291.25 1399.027344 294.015625 C 1400.207031 300.3125 1400.261719 306.617188 1399.1875 312.933594 C 1395.957031 341.472656 1390.394531 369.546875 1382.507812 397.160156 C 1363.597656 469.050781 1349.863281 541.914062 1341.304688 615.75 C 1335.019531 660.433594 1328.621094 706.59375 1319.582031 752.835938 L 1302.488281 841.039062 C 1297.714844 864.363281 1289.757812 886.550781 1278.625 907.59375 L 1274.496094 916.433594 C 1270.644531 925.589844 1265.265625 933.738281 1258.355469 940.875 C 1253.832031 944.894531 1248.875 948.28125 1243.484375 951.03125 C 1233.984375 956.105469 1224.097656 960.265625 1213.828125 963.511719 C 1203.554688 966.761719 1193.074219 969.039062 1182.382812 970.351562 C 1197.371094 975.484375 1212.4375 980.730469 1227.34375 985.546875 C 1227.984375 985.800781 1228.640625 985.996094 1229.316406 986.136719 C 1230.242188 986.386719 1231.152344 986.6875 1232.046875 987.035156 C 1232.910156 985.972656 1233.917969 985.082031 1235.078125 984.363281 C 1236.238281 983.640625 1237.484375 983.128906 1238.816406 982.828125 C 1243.902344 981.179688 1248.722656 978.949219 1253.273438 976.140625 C 1260.296875 971.339844 1266.617188 965.742188 1272.238281 959.351562 C 1277.855469 952.960938 1282.597656 945.976562 1286.460938 938.398438 L 1289.609375 933.4375 C 1295.507812 924.6875 1300.542969 915.464844 1304.710938 905.769531 C 1308.871094 893.917969 1312.035156 881.804688 1314.210938 869.433594 C 1335.929688 762.21875 1356.496094 653.484375 1375.402344 546.050781 C 1379.785156 521.101562 1384.074219 496.246094 1388.292969 471.3125 C 1395.210938 430.847656 1402 389.804688 1408.605469 349.339844 L 1413.472656 318.457031 C 1413.988281 315.632812 1414.613281 312.65625 1415.15625 309.683594 Z M 1386.875 311.585938 C 1387.730469 306.691406 1387.757812 301.789062 1386.957031 296.886719 C 1386.390625 294.972656 1385.636719 293.136719 1384.6875 291.382812 C 1383.742188 289.625 1382.621094 287.988281 1381.332031 286.464844 C 1380.039062 284.945312 1378.605469 283.574219 1377.027344 282.351562 C 1375.453125 281.128906 1373.765625 280.082031 1371.96875 279.214844 C 1363.726562 275.222656 1355.082031 272.5 1346.042969 271.039062 C 1315.492188 264.675781 1285.183594 256.917969 1255.945312 249.402344 C 1224.648438 241.332031 1192.355469 232.972656 1159.902344 226.527344 L 760.953125 146.589844 L 754.921875 145.347656 C 734.851562 140.976562 721.0625 139.074219 711.898438 151.214844 C 709.660156 154.613281 707.738281 158.1875 706.136719 161.929688 C 704.539062 165.671875 703.28125 169.53125 702.371094 173.5 C 701.460938 177.46875 700.910156 181.484375 700.71875 185.550781 C 700.527344 189.621094 700.699219 193.671875 701.234375 197.707031 C 701.621094 214.46875 700.660156 231.148438 698.351562 247.753906 C 697.601562 254.359375 696.867188 260.964844 696.289062 267.351562 C 694.386719 289.96875 690.753906 312.761719 687.285156 334.816406 L 683.710938 357.332031 C 678.511719 390.289062 673.140625 424.195312 666.199219 457.417969 L 665.207031 461.960938 C 661.855469 475.675781 659.765625 489.578125 658.9375 503.671875 C 658.28125 532.90625 655.882812 560.402344 653.644531 586.988281 C 651.257812 614.160156 648.78125 642.324219 648.285156 672.054688 C 647.074219 685.898438 647.382812 699.707031 649.207031 713.484375 C 651.03125 727.257812 654.328125 740.671875 659.097656 753.722656 C 664.378906 764.714844 670.714844 775.0625 678.097656 784.769531 C 680.300781 788.226562 682.914062 791.339844 685.9375 794.105469 C 689.972656 797.054688 694.351562 799.363281 699.066406 801.023438 L 715.75 807.871094 C 750.519531 817.53125 785.691406 827.527344 819.964844 839.332031 C 833.015625 843.875 845.984375 848.671875 858.941406 853.535156 L 912.125 873.132812 C 989.59375 901.875 1069.035156 931.351562 1148.882812 959.019531 C 1149.136719 959.019531 1149.46875 958.941406 1149.710938 958.941406 C 1157.292969 959.453125 1164.875 959.4375 1172.453125 958.894531 C 1180.03125 958.351562 1187.539062 957.28125 1194.96875 955.691406 C 1202.398438 954.097656 1209.679688 951.996094 1216.820312 949.390625 C 1223.957031 946.78125 1230.875 943.6875 1237.582031 940.113281 C 1242.003906 937.871094 1246.074219 935.117188 1249.800781 931.847656 C 1255.566406 925.773438 1260.027344 918.855469 1263.175781 911.097656 L 1267.394531 902.265625 C 1278.109375 882.152344 1285.734375 860.929688 1290.265625 838.59375 L 1307.363281 750.402344 C 1316.273438 704.484375 1322.71875 658.488281 1328.992188 613.976562 C 1337.671875 539.605469 1351.507812 466.210938 1370.492188 393.78125 C 1378.171875 366.828125 1383.617188 339.429688 1386.828125 311.585938 Z M 1223.980469 1001.894531 C 1223.484375 1001.722656 1222.90625 1001.5625 1222.238281 1001.308594 C 1115.878906 966.46875 1009.355469 926.902344 906.359375 888.753906 L 853.59375 869.15625 C 840.382812 864.199219 827.574219 859.496094 814.617188 854.953125 C 774.726562 841.121094 733.273438 829.855469 693.128906 818.871094 L 637.402344 803.605469 C 636.664062 804.597656 635.914062 805.589844 635.175781 806.488281 L 635.671875 806.742188 C 638.96875 808.390625 642.199219 809.957031 645.574219 811.355469 C 654.167969 814.441406 662.949219 816.808594 671.929688 818.453125 C 676.472656 819.367188 680.921875 820.105469 685.300781 820.851562 C 696.113281 822.304688 706.652344 824.863281 716.925781 828.53125 C 718.085938 828.863281 719.210938 829.296875 720.296875 829.824219 C 721.382812 830.355469 722.414062 830.972656 723.394531 831.683594 C 724.371094 832.390625 725.28125 833.179688 726.125 834.046875 C 726.964844 834.914062 727.726562 835.847656 728.40625 836.847656 C 729.085938 837.847656 729.671875 838.898438 730.167969 840 C 730.667969 841.101562 731.0625 842.238281 731.363281 843.410156 C 731.660156 844.578125 731.855469 845.769531 731.949219 846.972656 C 732.042969 848.179688 732.027344 849.382812 731.910156 850.585938 C 769.492188 868.046875 808.304688 882.113281 848.347656 892.777344 C 852.890625 893.851562 857.433594 894.761719 861.976562 895.753906 C 868.996094 897.242188 876.015625 898.808594 882.957031 900.617188 C 907.332031 907.671875 931.003906 916.59375 953.972656 927.375 L 966.769531 932.910156 C 979.324219 938.363281 992.949219 944.058594 1007.117188 948.773438 C 1012.980469 950.734375 1018.957031 952.25 1025.042969 953.3125 C 1028.011719 953.917969 1030.84375 954.910156 1033.539062 956.289062 C 1035.621094 957.480469 1037.851562 958.195312 1040.238281 958.433594 C 1041.425781 958.144531 1042.496094 957.617188 1043.449219 956.851562 C 1044.402344 956.082031 1045.144531 955.152344 1045.679688 954.050781 C 1045.984375 953.4375 1046.375 952.890625 1046.859375 952.40625 C 1047.339844 951.917969 1047.886719 951.523438 1048.5 951.21875 C 1049.113281 950.910156 1049.757812 950.710938 1050.433594 950.617188 C 1051.113281 950.523438 1051.785156 950.535156 1052.460938 950.664062 C 1074.972656 955.910156 1096.828125 963.152344 1118.019531 972.382812 L 1166.335938 991.796875 C 1168.53125 992.429688 1170.640625 993.265625 1172.675781 994.304688 C 1174.707031 995.34375 1176.621094 996.566406 1178.417969 997.972656 C 1180.214844 999.378906 1181.859375 1000.945312 1183.355469 1002.671875 C 1184.851562 1004.394531 1186.167969 1006.246094 1187.308594 1008.222656 C 1189.042969 1012.980469 1189.675781 1017.882812 1189.210938 1022.921875 C 1188.875 1032.582031 1188.136719 1042.417969 1187.066406 1052.078125 C 1186.664062 1057.644531 1185.230469 1062.925781 1182.765625 1067.929688 C 1180.539062 1071.324219 1177.890625 1074.347656 1174.820312 1077 C 1171.746094 1079.652344 1168.371094 1081.832031 1164.6875 1083.539062 C 1163.121094 1084.449219 1161.632812 1085.269531 1160.144531 1086.179688 C 1156.105469 1088.796875 1152.226562 1091.632812 1148.503906 1094.6875 L 1145.527344 1096.925781 C 1124.351562 1112.566406 1102.222656 1126.714844 1079.136719 1139.371094 L 1069.636719 1144.90625 C 1055.261719 1153.25 1043.292969 1160.433594 1031.476562 1168.367188 C 1025.945312 1172.078125 1020.167969 1175.132812 1014.632812 1178.105469 C 1009.273438 1180.832031 1004.070312 1183.832031 999.023438 1187.109375 C 942.789062 1224.84375 867.96875 1273.734375 788.6875 1317.175781 C 784.730469 1319.574219 780.503906 1321.335938 776.007812 1322.453125 C 774.015625 1322.847656 772.007812 1323.039062 769.980469 1323.03125 C 765.535156 1322.914062 761.15625 1322.3125 756.847656 1321.21875 C 713.269531 1310.433594 670.90625 1296.066406 629.757812 1278.117188 C 610.277344 1270.183594 590.042969 1262.089844 569.222656 1254.492188 C 542.0625 1244.132812 515.695312 1232.046875 490.113281 1218.238281 C 468.558594 1207.171875 446.308594 1195.78125 422.894531 1186.535156 L 167.722656 1085.199219 C 156.195312 1080.589844 144.261719 1075.871094 131.984375 1072.242188 L 130.175781 1071.664062 C 126.257812 1070.839844 122.492188 1069.566406 118.875 1067.847656 C 115.257812 1066.128906 111.894531 1064.011719 108.777344 1061.496094 C 106.613281 1059.46875 104.777344 1057.183594 103.261719 1054.632812 C 101.746094 1052.085938 100.613281 1049.378906 99.867188 1046.511719 C 99.289062 1046.671875 98.792969 1046.832031 98.300781 1046.925781 C 94.90625 1048.648438 91.710938 1050.683594 88.71875 1053.035156 C 87.3125 1053.933594 86.066406 1054.84375 84.996094 1055.515625 C 84.527344 1055.8125 84.140625 1056.199219 83.84375 1056.667969 C 85 1057.867188 86.269531 1058.9375 87.648438 1059.882812 C 122.082031 1085.808594 164.277344 1100.519531 205.15625 1114.722656 C 206.789062 1115.289062 208.238281 1116.160156 209.503906 1117.339844 C 210.769531 1118.515625 211.738281 1119.902344 212.417969 1121.492188 C 212.832031 1122.402344 213.328125 1123.472656 213.746094 1124.464844 L 417.554688 1201.507812 C 426.546875 1205.203125 435.105469 1209.71875 443.230469 1215.054688 C 450.097656 1219.527344 457.28125 1223.40625 464.785156 1226.699219 L 720.210938 1329.683594 C 731.613281 1334.222656 743.265625 1338.90625 754.980469 1342.363281 L 759.269531 1343.679688 C 762.296875 1345.019531 765.460938 1345.816406 768.761719 1346.070312 C 772.0625 1346.328125 775.3125 1346.023438 778.507812 1345.164062 C 786.59375 1342.128906 794.289062 1338.316406 801.605469 1333.730469 C 808.917969 1329.140625 815.699219 1323.867188 821.949219 1317.910156 C 824.589844 1315.6875 827.238281 1313.542969 829.878906 1311.386719 C 863.371094 1286.179688 898.90625 1264.296875 936.496094 1245.742188 C 954.746094 1235.992188 973.652344 1225.914062 991.566406 1215.183594 C 1017.585938 1199.652344 1042.9375 1181.980469 1067.457031 1164.976562 C 1075.644531 1159.28125 1083.816406 1153.574219 1091.988281 1147.960938 C 1100.417969 1142.195312 1108.832031 1136.488281 1117.351562 1130.957031 C 1121.792969 1128.179688 1126.476562 1125.894531 1131.394531 1124.097656 C 1133.621094 1123.183594 1135.9375 1122.273438 1138.3125 1121.121094 C 1151.773438 1113.820312 1164.214844 1105.070312 1175.628906 1094.859375 C 1179.179688 1091.976562 1182.730469 1089.097656 1186.121094 1086.351562 C 1192.5625 1081.3125 1198.800781 1076.195312 1205.117188 1070.996094 C 1205.632812 1070.554688 1206.207031 1070.226562 1206.847656 1070.003906 C 1207.101562 1069.613281 1207.320312 1069.203125 1207.503906 1068.769531 C 1207.921875 1066.589844 1208.148438 1064.390625 1208.191406 1062.167969 C 1208.230469 1059.949219 1208.082031 1057.742188 1207.746094 1055.546875 C 1207.40625 1053.351562 1206.886719 1051.203125 1206.183594 1049.097656 C 1205.480469 1046.992188 1204.601562 1044.960938 1203.550781 1043.003906 C 1203.144531 1041.988281 1202.882812 1040.933594 1202.757812 1039.847656 C 1202.636719 1038.757812 1202.65625 1037.675781 1202.824219 1036.59375 C 1202.988281 1035.511719 1203.296875 1034.46875 1203.738281 1033.46875 C 1204.183594 1032.46875 1204.75 1031.542969 1205.441406 1030.691406 C 1212.34375 1021.558594 1218.519531 1011.960938 1223.980469 1001.894531 Z M 1176.828125 1017.171875 C 1176.714844 1015.777344 1176.410156 1014.429688 1175.917969 1013.125 C 1173.933594 1008.511719 1167.847656 1005.769531 1161.714844 1003.289062 L 1113.398438 983.886719 C 1095.191406 976.128906 1076.53125 969.6875 1057.417969 964.566406 L 1053.613281 970.917969 C 1058.222656 972.660156 1062.835938 974.640625 1067.574219 976.453125 C 1067.734375 976.453125 1067.816406 976.289062 1068.070312 976.289062 L 1068.230469 976.289062 C 1069.027344 976.304688 1069.78125 976.492188 1070.492188 976.855469 C 1071.203125 977.21875 1071.796875 977.71875 1072.277344 978.355469 C 1092.75 986.425781 1113.316406 994.792969 1133.46875 1003.957031 C 1138.964844 1006.082031 1143.867188 1009.15625 1148.167969 1013.179688 C 1148.820312 1013.824219 1149.425781 1014.507812 1149.984375 1015.234375 C 1150.546875 1015.957031 1151.054688 1016.71875 1151.507812 1017.511719 C 1151.964844 1018.304688 1152.367188 1019.125 1152.714844 1019.972656 C 1153.058594 1020.824219 1153.34375 1021.691406 1153.574219 1022.578125 C 1153.800781 1023.464844 1153.96875 1024.363281 1154.074219 1025.273438 C 1154.179688 1026.179688 1154.226562 1027.09375 1154.207031 1028.007812 C 1154.191406 1028.925781 1154.109375 1029.835938 1153.96875 1030.738281 C 1153.828125 1031.644531 1153.628906 1032.535156 1153.367188 1033.414062 C 1152.214844 1036.019531 1150.675781 1038.375 1148.757812 1040.480469 C 1146.835938 1042.585938 1144.628906 1044.328125 1142.136719 1045.714844 C 1133.628906 1051.421875 1125.214844 1057.613281 1116.707031 1063.804688 C 1110.675781 1068.183594 1104.648438 1072.472656 1098.617188 1076.773438 C 1100.210938 1077.886719 1101.863281 1078.90625 1103.574219 1079.828125 L 1143.546875 1051.996094 C 1149.457031 1048.054688 1155.128906 1043.785156 1160.550781 1039.191406 C 1165.023438 1035.164062 1169.015625 1030.707031 1172.527344 1025.816406 C 1174.476562 1023.1875 1175.910156 1020.300781 1176.828125 1017.160156 Z M 1174.765625 1050.601562 C 1175.167969 1046.71875 1175.5 1042.75 1175.835938 1038.796875 C 1173.308594 1041.734375 1170.621094 1044.511719 1167.765625 1047.132812 C 1162.042969 1052.066406 1156.039062 1056.636719 1149.757812 1060.839844 L 1111.035156 1087.679688 C 1112.015625 1099.992188 1098.355469 1109.234375 1091.4375 1113.859375 C 1087.738281 1116.195312 1083.796875 1118.011719 1079.621094 1119.3125 C 1078.304688 1119.726562 1076.980469 1120.222656 1075.574219 1120.71875 C 1071.847656 1122.402344 1068.269531 1124.351562 1064.839844 1126.574219 C 1063.03125 1127.726562 1061.210938 1128.878906 1059.386719 1129.882812 C 1055.125 1132.445312 1051.050781 1135.277344 1047.167969 1138.378906 C 1042.621094 1142.035156 1037.832031 1145.339844 1032.804688 1148.292969 C 1027.292969 1151.34375 1021.976562 1154.699219 1016.859375 1158.371094 C 1009.382812 1163.816406 1001.457031 1168.496094 993.078125 1172.410156 C 975.433594 1180.617188 958.722656 1190.414062 942.949219 1201.808594 L 933.542969 1208.082031 C 927.867188 1212.246094 921.675781 1215.386719 914.960938 1217.5 C 912.414062 1218.144531 909.828125 1218.476562 907.203125 1218.492188 C 904.21875 1218.515625 901.324219 1218.019531 898.519531 1217.003906 C 879.734375 1231.671875 859.75 1244.472656 838.574219 1255.40625 L 781.183594 1287.199219 C 778.109375 1288.988281 774.886719 1290.445312 771.511719 1291.570312 C 768.675781 1292.363281 765.785156 1292.75 762.84375 1292.722656 C 757.898438 1292.589844 753.027344 1291.929688 748.226562 1290.738281 C 720.0625 1284.503906 692.371094 1276.621094 665.148438 1267.089844 C 637.929688 1257.558594 611.367188 1246.445312 585.464844 1233.753906 C 584.855469 1233.8125 584.25 1233.785156 583.644531 1233.675781 C 550.777344 1223.277344 519.421875 1209.441406 489.585938 1192.171875 C 469.273438 1181.347656 450.03125 1171.191406 430.789062 1163.269531 C 377.03125 1141.054688 318.722656 1117.515625 262.152344 1095.253906 C 261.617188 1095.046875 261.121094 1094.769531 260.664062 1094.421875 C 260.210938 1094.074219 259.808594 1093.671875 259.46875 1093.210938 C 259.125 1092.75 258.851562 1092.253906 258.652344 1091.714844 C 258.449219 1091.179688 258.324219 1090.625 258.277344 1090.054688 C 258.0625 1087.886719 257.730469 1085.738281 257.289062 1083.609375 C 256.296875 1084.277344 255.304688 1085.015625 254.3125 1085.753906 C 252.664062 1087.078125 251.003906 1088.324219 249.195312 1089.558594 C 249.855469 1094.269531 250.265625 1099.003906 250.429688 1103.761719 C 250.414062 1104.070312 250.359375 1104.375 250.265625 1104.671875 L 427.480469 1174.996094 C 451.4375 1184.574219 473.976562 1196.046875 495.777344 1207.273438 C 520.890625 1220.800781 546.765625 1232.664062 573.40625 1242.863281 C 594.457031 1250.460938 614.691406 1258.714844 634.347656 1266.644531 C 674.875 1284.351562 716.605469 1298.5 759.546875 1309.09375 C 764.109375 1310.496094 768.757812 1310.90625 773.496094 1310.328125 C 776.753906 1309.398438 779.828125 1308.050781 782.71875 1306.28125 C 861.582031 1263.09375 936.046875 1214.375 992.144531 1176.792969 C 997.675781 1173.160156 1003.289062 1170.105469 1008.824219 1167.210938 C 1014.253906 1164.4375 1019.511719 1161.363281 1024.59375 1157.988281 C 1037.277344 1149.492188 1050.777344 1141.480469 1063.320312 1134.125 L 1072.898438 1128.59375 C 1095.507812 1116.191406 1117.199219 1102.359375 1137.976562 1087.089844 L 1140.90625 1084.898438 C 1144.964844 1081.59375 1149.191406 1078.519531 1153.585938 1075.675781 C 1155.152344 1074.683594 1156.804688 1073.695312 1158.453125 1072.785156 C 1161.132812 1071.582031 1163.613281 1070.058594 1165.898438 1068.210938 C 1168.179688 1066.363281 1170.1875 1064.25 1171.917969 1061.878906 C 1173.605469 1058.304688 1174.574219 1054.546875 1174.820312 1050.601562 Z M 1141.722656 1029.21875 C 1141.851562 1028.539062 1141.890625 1027.859375 1141.839844 1027.167969 C 1141.789062 1026.480469 1141.652344 1025.8125 1141.429688 1025.160156 C 1141.203125 1024.507812 1140.898438 1023.898438 1140.515625 1023.324219 C 1140.132812 1022.75 1139.683594 1022.238281 1139.164062 1021.78125 C 1135.980469 1018.890625 1132.378906 1016.6875 1128.351562 1015.175781 C 1110.425781 1007.105469 1092.09375 999.566406 1073.84375 992.222656 C 1074.421875 1010.472656 1074.835938 1028.800781 1074.917969 1046.71875 C 1074.996094 1057.785156 1074.917969 1068.851562 1074.835938 1079.917969 C 1074.890625 1083.011719 1074.671875 1086.085938 1074.179688 1089.140625 L 1076.160156 1087.816406 C 1078.34375 1086.5625 1080.242188 1084.964844 1081.855469 1083.03125 C 1082.128906 1082.695312 1082.316406 1082.320312 1082.417969 1081.898438 C 1082.519531 1081.476562 1082.523438 1081.058594 1082.433594 1080.632812 C 1081.953125 1079.953125 1081.617188 1079.203125 1081.433594 1078.386719 C 1081.246094 1077.574219 1081.222656 1076.753906 1081.359375 1075.929688 C 1081.519531 1075.109375 1081.828125 1074.351562 1082.285156 1073.648438 C 1082.742188 1072.949219 1083.3125 1072.359375 1084 1071.882812 C 1092.507812 1066.1875 1100.9375 1059.988281 1109.433594 1053.796875 C 1117.929688 1047.605469 1126.609375 1041.324219 1135.199219 1035.546875 C 1138.347656 1033.34375 1140.984375 1031.441406 1141.722656 1029.21875 Z M 1095.726562 1197.53125 L 1113.652344 1153.273438 C 1109.605469 1155.996094 1105.476562 1158.726562 1101.339844 1161.527344 C 1093.164062 1167.0625 1085.074219 1172.757812 1076.980469 1178.464844 L 1071.527344 1182.175781 C 1071.78125 1193.082031 1071.863281 1203.894531 1071.78125 1214.710938 C 1071.78125 1217.523438 1071.699219 1220.578125 1071.527344 1223.632812 C 1079.371094 1218.746094 1086.171875 1212.691406 1091.933594 1205.464844 C 1093.53125 1202.972656 1094.792969 1200.320312 1095.726562 1197.507812 Z M 1100.335938 1090.261719 C 1098.023438 1089.160156 1095.820312 1087.867188 1093.730469 1086.386719 C 1093.328125 1087.570312 1092.804688 1088.695312 1092.164062 1089.765625 C 1089.667969 1093.183594 1086.59375 1095.96875 1082.941406 1098.109375 L 1066.800781 1108.84375 C 1043.269531 1124.535156 1019.40625 1140.386719 995.324219 1155.257812 C 991.273438 1157.914062 987.046875 1160.257812 982.644531 1162.277344 C 979.921875 1163.476562 977.144531 1164.523438 974.308594 1165.414062 C 970.800781 1166.535156 967.414062 1167.9375 964.140625 1169.621094 C 960.640625 1171.675781 957.367188 1174.042969 954.316406 1176.722656 L 952.335938 1178.292969 C 943.488281 1185.09375 934.101562 1191.042969 924.171875 1196.136719 C 919.304688 1198.777344 914.429688 1201.496094 909.644531 1204.472656 C 909.148438 1204.804688 907.824219 1206.292969 906.914062 1207.191406 C 906.804688 1207.382812 906.667969 1207.550781 906.5 1207.6875 C 908.402344 1207.785156 910.277344 1207.59375 912.125 1207.113281 C 917.667969 1205.296875 922.785156 1202.65625 927.480469 1199.191406 L 936.804688 1192.910156 C 953.164062 1181.183594 970.457031 1171.054688 988.683594 1162.519531 C 996.503906 1158.910156 1003.886719 1154.554688 1010.828125 1149.457031 C 1016.203125 1145.828125 1021.734375 1142.035156 1027.683594 1138.804688 C 1032.25 1136.195312 1036.570312 1133.222656 1040.640625 1129.894531 C 1044.90625 1126.460938 1049.394531 1123.347656 1054.109375 1120.558594 C 1055.757812 1119.566406 1057.496094 1118.492188 1059.226562 1117.5 C 1063.179688 1114.867188 1067.335938 1112.613281 1071.699219 1110.734375 C 1073.1875 1110.160156 1074.675781 1109.664062 1076.070312 1109.167969 C 1079.40625 1108.167969 1082.546875 1106.734375 1085.488281 1104.867188 C 1089.789062 1102.054688 1099.035156 1095.851562 1100.347656 1090.238281 Z M 1064.089844 1079.882812 C 1064.171875 1068.898438 1064.171875 1057.832031 1064.171875 1046.84375 C 1064.011719 1027.441406 1063.59375 1007.648438 1063.019531 987.96875 C 1056.910156 985.570312 1050.878906 983.183594 1044.851562 980.785156 L 1044.929688 1072.207031 C 1045.496094 1085.355469 1044.199219 1098.316406 1041.046875 1111.09375 C 1046.335938 1107.542969 1051.777344 1103.992188 1057.070312 1100.53125 C 1057.230469 1100.199219 1057.230469 1099.945312 1057.484375 1099.703125 C 1058.703125 1098.371094 1059.769531 1096.929688 1060.6875 1095.375 C 1061.601562 1093.820312 1062.347656 1092.1875 1062.921875 1090.476562 C 1063.492188 1088.765625 1063.882812 1087.015625 1064.089844 1085.222656 C 1064.296875 1083.429688 1064.316406 1081.636719 1064.148438 1079.839844 Z M 1061.035156 1214.765625 C 1061.035156 1206.351562 1060.957031 1198.003906 1060.863281 1189.667969 L 1047.03125 1199.078125 C 1047.03125 1199.15625 1047.109375 1199.25 1047.109375 1199.332031 C 1046.792969 1206.988281 1046.933594 1214.640625 1047.523438 1222.285156 C 1047.859375 1228.394531 1048.101562 1234.585938 1048.019531 1240.867188 C 1050.417969 1239.046875 1052.804688 1237.316406 1055.121094 1235.496094 L 1059.824219 1232.035156 C 1060.820312 1226.292969 1061.226562 1220.511719 1061.046875 1214.6875 Z M 1036.757812 1249.042969 C 1037.460938 1240.3125 1037.460938 1231.585938 1036.757812 1222.859375 C 1036.421875 1217.5 1036.261719 1211.964844 1036.261719 1206.351562 C 1028.824219 1211.390625 1021.273438 1216.171875 1013.632812 1220.96875 C 1016.878906 1234.785156 1017.925781 1248.765625 1016.765625 1262.910156 C 1023.558594 1258.296875 1030.164062 1253.664062 1036.769531 1248.960938 Z M 1023.304688 1122.78125 C 1033.300781 1109.894531 1034.289062 1091.484375 1034.210938 1072.160156 L 1034.175781 969.835938 C 1032.191406 969.175781 1030.289062 968.347656 1028.550781 967.609375 C 1026.765625 966.679688 1024.894531 965.992188 1022.933594 965.546875 C 1021.539062 965.292969 1020.132812 964.878906 1018.726562 964.636719 C 1018.855469 964.953125 1018.9375 965.285156 1018.96875 965.625 C 1019.382812 996.429688 1019.878906 1028.386719 1017.898438 1059.929688 C 1017.898438 1065.675781 1017.546875 1071.402344 1016.84375 1077.109375 C 1016.140625 1082.8125 1015.089844 1088.453125 1013.691406 1094.03125 C 1012.292969 1099.605469 1010.558594 1105.074219 1008.488281 1110.4375 C 1006.414062 1115.796875 1004.023438 1121.011719 1001.308594 1126.078125 C 996.039062 1134.109375 989.921875 1141.433594 982.964844 1148.050781 C 982.871094 1148.226562 982.738281 1148.363281 982.5625 1148.457031 C 984.707031 1147.304688 986.769531 1146.070312 988.996094 1144.664062 C 1000.429688 1137.5625 1011.914062 1130.207031 1023.304688 1122.78125 Z M 1007.164062 1059.273438 C 1009.066406 1028.144531 1008.570312 996.429688 1008.15625 965.789062 C 1008.140625 964.480469 1008.554688 963.328125 1009.402344 962.328125 C 1007.335938 961.753906 1005.273438 961.257812 1003.117188 960.519531 C 998 958.871094 992.960938 956.96875 987.921875 955.066406 C 988.097656 972 988.257812 989.007812 988.339844 1005.941406 C 988.746094 1023.589844 987.917969 1041.175781 985.859375 1058.707031 C 983.238281 1077.140625 978.089844 1094.839844 970.421875 1111.808594 C 967.402344 1118.96875 963.523438 1125.628906 958.78125 1131.785156 C 953.425781 1138.253906 947.3125 1143.902344 940.4375 1148.722656 C 946.640625 1150.128906 952.75 1151.441406 958.941406 1152.765625 C 965.191406 1149.769531 970.640625 1145.695312 975.289062 1140.546875 C 981.628906 1134.488281 987.21875 1127.796875 992.050781 1120.476562 C 997.046875 1111.050781 1000.828125 1101.160156 1003.390625 1090.804688 C 1005.953125 1080.449219 1007.222656 1069.941406 1007.199219 1059.273438 Z M 1005.019531 1270.679688 C 1006.132812 1263.402344 1006.589844 1256.085938 1006.394531 1248.726562 C 1006.203125 1241.363281 1005.359375 1234.082031 1003.867188 1226.871094 C 1002.621094 1227.703125 1001.308594 1228.53125 1000.0625 1229.269531 C 995.773438 1231.828125 991.394531 1234.144531 987.105469 1236.625 C 989.136719 1250.09375 990.347656 1263.636719 990.734375 1277.25 L 990.734375 1280.144531 L 1003.695312 1271.554688 C 1004.203125 1271.257812 1004.640625 1271.015625 1005.054688 1270.679688 Z M 979.65625 1287.605469 C 979.980469 1284.253906 980.089844 1280.902344 979.992188 1277.539062 C 979.65625 1265.78125 978.664062 1254.082031 977.015625 1242.433594 C 972.554688 1244.914062 968.175781 1247.3125 963.804688 1249.710938 C 965.644531 1266.164062 965.28125 1282.566406 962.722656 1298.925781 Z M 975.242188 1057.230469 C 977.214844 1040.191406 977.984375 1023.101562 977.546875 1005.953125 C 977.546875 987.613281 977.375 969.199219 977.214844 950.789062 C 971.839844 948.632812 966.640625 946.410156 961.855469 944.34375 L 954.664062 941.289062 L 954.085938 1045.253906 C 954.421875 1054.847656 953.488281 1064.316406 951.285156 1073.660156 C 949.359375 1079.90625 946.855469 1085.90625 943.769531 1091.667969 C 935.808594 1109.933594 925.484375 1126.753906 912.804688 1142.125 C 917.414062 1143.28125 922.027344 1144.351562 926.636719 1145.515625 C 935.546875 1139.859375 943.476562 1133.054688 950.421875 1125.109375 C 954.65625 1119.644531 958.113281 1113.726562 960.796875 1107.355469 C 967.984375 1091.332031 972.800781 1074.625 975.242188 1057.230469 Z M 950.304688 1307.203125 C 954.0625 1290.027344 955.160156 1272.683594 953.601562 1255.175781 C 950.546875 1256.914062 947.332031 1258.5625 944.277344 1260.210938 C 941.222656 1261.859375 938.246094 1263.441406 935.191406 1265.089844 L 935.605469 1317.035156 C 938.328125 1315.214844 941.140625 1313.3125 943.863281 1311.5 Z M 946.558594 1167.121094 C 947.964844 1165.96875 949.371094 1164.816406 950.859375 1163.660156 C 884.496094 1149.34375 819.65625 1129.933594 756.339844 1105.433594 C 747.671875 1102.132812 738.921875 1098.664062 730.25 1095.195312 C 681.832031 1075.871094 631.808594 1055.882812 579.957031 1053.691406 C 567.960938 1052.910156 556.09375 1053.820312 544.355469 1056.414062 C 533.0625 1059.539062 522.257812 1063.878906 511.9375 1069.429688 C 473.628906 1088.828125 437.765625 1112.007812 404.34375 1138.96875 C 414.824219 1143.257812 425.3125 1147.554688 435.46875 1151.765625 C 455.289062 1159.9375 475.691406 1170.75 495.347656 1181.160156 C 523.507812 1197.414062 553.015625 1210.65625 583.875 1220.890625 C 585.191406 1219.726562 586.429688 1218.484375 587.585938 1217.164062 C 589.980469 1214.515625 592.621094 1212.148438 595.519531 1210.0625 C 596.371094 1209.523438 597.296875 1209.203125 598.296875 1209.101562 C 599.300781 1209 600.273438 1209.128906 601.214844 1209.488281 C 612.027344 1213.789062 622.851562 1217.832031 633.667969 1221.789062 C 644.652344 1225.835938 655.628906 1229.859375 666.453125 1234.179688 C 673.472656 1236.980469 680.496094 1239.796875 687.503906 1241.941406 C 697.117188 1244.703125 706.863281 1246.878906 716.742188 1248.464844 L 741.929688 1253.261719 C 744.601562 1254.007812 747.320312 1254.46875 750.085938 1254.648438 C 752.855469 1254.828125 755.609375 1254.71875 758.355469 1254.320312 C 761.097656 1253.925781 763.773438 1253.246094 766.375 1252.292969 C 768.980469 1251.335938 771.457031 1250.121094 773.804688 1248.648438 L 812.785156 1231.066406 C 819.964844 1227.839844 827.320312 1224.542969 834.167969 1220.910156 C 848.472656 1213.035156 862.238281 1204.308594 875.464844 1194.730469 C 876.246094 1194.226562 877.097656 1193.902344 878.015625 1193.757812 C 878.933594 1193.613281 879.84375 1193.660156 880.742188 1193.902344 C 883.921875 1195.109375 886.867188 1196.734375 889.585938 1198.777344 C 891.230469 1200.015625 892.964844 1201.113281 894.785156 1202.074219 C 895.859375 1201.136719 896.851562 1200.121094 897.757812 1199.019531 C 899.335938 1197.058594 901.15625 1195.351562 903.210938 1193.902344 C 908.25 1190.84375 913.207031 1188.042969 918.199219 1185.3125 C 927.480469 1180.527344 936.292969 1174.992188 944.632812 1168.710938 Z M 944.023438 936.726562 L 944.023438 936.550781 C 939.480469 934.582031 934.9375 932.597656 930.316406 930.695312 C 930.394531 960.09375 930.394531 990.320312 929.992188 1020.214844 C 930.082031 1031.265625 929.257812 1042.25 927.515625 1053.160156 C 921.324219 1084.957031 899.765625 1111.875 881.402344 1133.859375 L 901 1139.070312 C 907.949219 1131.375 914.210938 1123.15625 919.785156 1114.410156 C 925.355469 1105.664062 930.160156 1096.515625 934.199219 1086.964844 C 936.980469 1081.792969 939.261719 1076.414062 941.046875 1070.824219 C 942.957031 1062.390625 943.726562 1053.855469 943.355469 1045.21875 Z M 924.875 1319.316406 L 924.539062 1270.898438 C 917.4375 1274.703125 910.335938 1278.667969 903.234375 1282.625 C 904.582031 1291.8125 905.164062 1301.050781 904.984375 1310.335938 C 904.804688 1319.621094 903.867188 1328.828125 902.164062 1337.960938 C 909.839844 1333.578125 917.359375 1328.957031 924.78125 1324.125 C 924.875 1322.453125 924.875 1320.96875 924.875 1319.316406 Z M 919.582031 926.960938 C 919.582031 926.707031 919.664062 926.464844 919.664062 926.292969 C 912.320312 923.316406 904.882812 920.433594 897.449219 917.875 L 897.449219 984.84375 C 897.9375 1011.042969 897.03125 1037.195312 894.726562 1063.296875 C 894.191406 1070.042969 892.84375 1076.621094 890.679688 1083.03125 C 886.417969 1092.832031 880.609375 1101.613281 873.261719 1109.375 C 868.191406 1115.671875 862.570312 1121.433594 856.40625 1126.667969 C 860.949219 1127.992188 865.570312 1129.320312 870.113281 1130.632812 C 870.195312 1130.550781 870.195312 1130.390625 870.289062 1130.296875 C 889.449219 1107.597656 910.996094 1081.878906 916.941406 1051.109375 C 918.65625 1040.832031 919.425781 1030.484375 919.25 1020.0625 C 919.664062 989.074219 919.664062 957.453125 919.582031 926.960938 Z M 889.769531 1344.644531 C 892.023438 1335.453125 893.433594 1326.128906 894.003906 1316.679688 C 894.574219 1307.234375 894.292969 1297.808594 893.160156 1288.410156 C 887.050781 1291.960938 881.019531 1295.671875 875.070312 1299.476562 L 875.070312 1299.558594 L 875.152344 1341.765625 C 875.246094 1345.300781 875.054688 1348.820312 874.574219 1352.324219 C 879.53125 1350.054688 884.570312 1347.402344 889.769531 1344.667969 Z M 884.007812 1062.199219 C 886.308594 1036.484375 887.21875 1010.71875 886.726562 984.902344 L 886.613281 914.671875 C 884.386719 914.015625 882.070312 913.183594 879.695312 912.609375 C 875.648438 911.535156 871.519531 910.707031 867.472656 909.804688 C 866.5625 928.25 866.980469 947.125 867.472656 965.464844 C 869.40625 997.082031 867.949219 1028.542969 863.105469 1059.847656 C 861.664062 1068.171875 859.265625 1076.210938 855.910156 1083.964844 C 852.535156 1090.46875 848.5625 1096.578125 843.992188 1102.304688 C 839.425781 1108.027344 834.34375 1113.253906 828.75 1117.984375 C 833.789062 1119.636719 838.734375 1121.214844 843.738281 1122.78125 C 844.0625 1122.339844 844.445312 1121.953125 844.890625 1121.628906 C 852.515625 1116.222656 859.199219 1109.835938 864.949219 1102.46875 C 871.457031 1095.667969 876.660156 1087.980469 880.558594 1079.414062 C 882.40625 1073.804688 883.550781 1068.054688 883.996094 1062.164062 Z M 887.382812 1212.070312 C 885.734375 1211.160156 884.167969 1210.085938 882.519531 1209.015625 C 881.609375 1208.359375 880.617188 1207.609375 879.625 1207.03125 C 866.898438 1216.089844 853.6875 1224.375 839.992188 1231.886719 C 832.714844 1235.691406 825.292969 1239.070312 818.015625 1242.261719 L 778.960938 1259.933594 C 771.632812 1263.730469 763.871094 1266.097656 755.671875 1267.035156 L 753.445312 1267.035156 C 748.824219 1266.917969 744.257812 1266.367188 739.738281 1265.386719 L 714.628906 1260.671875 C 704.253906 1258.964844 694.015625 1256.65625 683.90625 1253.757812 C 676.484375 1251.519531 669.207031 1248.625 662.1875 1245.824219 C 651.121094 1241.445312 640.285156 1237.398438 629.492188 1233.433594 C 619.578125 1229.800781 609.757812 1226.167969 600.003906 1222.363281 C 598.851562 1223.355469 597.777344 1224.519531 596.546875 1225.753906 C 596.269531 1226.105469 595.96875 1226.433594 595.644531 1226.746094 C 620.359375 1238.59375 645.671875 1248.992188 671.578125 1257.941406 C 697.484375 1266.890625 723.816406 1274.328125 750.578125 1280.261719 C 753.472656 1281.167969 756.441406 1281.707031 759.472656 1281.875 C 762.503906 1282.042969 765.511719 1281.832031 768.492188 1281.25 C 771.125 1280.378906 773.632812 1279.226562 776.007812 1277.792969 L 833.40625 1246.078125 C 852.296875 1236.160156 870.285156 1224.816406 887.371094 1212.046875 Z M 864.417969 1341.984375 L 864.339844 1306.554688 C 856.820312 1311.59375 849.558594 1316.933594 842.433594 1322.488281 C 842.996094 1335.566406 842.773438 1348.632812 841.765625 1361.683594 C 841.652344 1363.230469 841.460938 1364.769531 841.1875 1366.296875 C 847.875 1363.992188 854.734375 1361.421875 861.835938 1358.363281 C 862.804688 1356.078125 863.492188 1353.710938 863.902344 1351.261719 C 864.335938 1348.183594 864.507812 1345.089844 864.417969 1341.984375 Z M 852.613281 1057.867188 C 857.289062 1027.296875 858.691406 996.574219 856.820312 965.707031 C 856.328125 946.546875 855.832031 926.808594 856.902344 907.328125 L 845.375 904.847656 C 842.804688 904.179688 840.164062 903.441406 837.605469 902.785156 L 837.683594 960.832031 C 837.765625 991.3125 837.859375 1022.855469 834.882812 1053.820312 C 834.472656 1060.425781 833.476562 1066.945312 831.886719 1073.371094 C 830.867188 1078.035156 829.308594 1082.507812 827.214844 1086.796875 C 825.117188 1091.085938 822.546875 1095.0625 819.492188 1098.734375 C 814.652344 1103.125 809.273438 1106.703125 803.351562 1109.464844 C 807.894531 1111.035156 812.574219 1112.613281 817.1875 1114.183594 C 823.109375 1109.398438 828.519531 1104.089844 833.410156 1098.257812 C 838.300781 1092.421875 842.585938 1086.171875 846.261719 1079.503906 C 849.242188 1072.542969 851.359375 1065.332031 852.613281 1057.867188 Z M 831.136719 1360.613281 C 831.953125 1350.746094 832.230469 1340.859375 831.964844 1330.960938 C 824.953125 1337.585938 817.332031 1343.421875 809.109375 1348.472656 C 800.886719 1353.519531 792.238281 1357.675781 783.15625 1360.9375 C 779.417969 1362.074219 775.59375 1362.65625 771.683594 1362.675781 C 766.558594 1362.53125 761.5625 1361.648438 756.699219 1360.035156 C 756.699219 1364.40625 756.699219 1368.867188 756.617188 1373.328125 C 759.386719 1374.832031 762.308594 1375.949219 765.375 1376.675781 C 768.445312 1377.40625 771.554688 1377.71875 774.703125 1377.617188 C 793.183594 1378.03125 811.269531 1375.554688 828.957031 1370.191406 C 829.058594 1370.097656 829.140625 1369.984375 829.199219 1369.859375 C 830.332031 1366.878906 830.976562 1363.796875 831.136719 1360.613281 Z M 824.289062 1052.804688 C 827.089844 1022.335938 827.089844 991.117188 827.007812 960.808594 L 826.929688 900.109375 L 826.929688 899.949219 C 823.214844 898.878906 819.492188 897.722656 815.78125 896.558594 C 814.789062 945.867188 812.472656 995.832031 808.863281 1045.125 C 808.640625 1052.46875 807.378906 1059.628906 805.070312 1066.605469 C 803.445312 1070.109375 801.523438 1073.441406 799.300781 1076.601562 C 797.078125 1079.761719 794.589844 1082.695312 791.839844 1085.410156 C 789.09375 1088.125 786.121094 1090.570312 782.933594 1092.75 C 779.746094 1094.929688 776.386719 1096.808594 772.859375 1098.386719 C 778.476562 1100.542969 784.089844 1102.605469 789.703125 1104.671875 C 791.765625 1103.425781 794.003906 1102.273438 796.230469 1101.121094 C 801.910156 1098.5 807.140625 1095.167969 811.917969 1091.125 C 814.3125 1088.121094 816.324219 1084.882812 817.957031 1081.410156 C 819.589844 1077.933594 820.796875 1074.316406 821.578125 1070.558594 C 822.96875 1064.722656 823.871094 1058.8125 824.289062 1052.828125 Z M 805.128906 893.710938 C 805.128906 893.457031 805.210938 893.296875 805.210938 893.136719 C 798.1875 890.738281 791.085938 888.257812 784.148438 885.621094 L 783.742188 1006.933594 C 783.925781 1015.109375 783.347656 1023.226562 782.003906 1031.292969 C 780.664062 1037.46875 778.765625 1043.464844 776.308594 1049.289062 C 775.039062 1053.457031 773.128906 1057.308594 770.582031 1060.84375 C 768.035156 1064.378906 764.988281 1067.410156 761.4375 1069.9375 C 759.210938 1071.601562 757.171875 1073.472656 755.324219 1075.550781 C 752.027344 1079.355469 748.558594 1082.730469 745.167969 1086.039062 L 743.9375 1087.273438 C 749.136719 1089.339844 754.3125 1091.414062 759.464844 1093.382812 C 775.234375 1085.382812 789.679688 1076.957031 794.972656 1062.835938 C 796.90625 1056.835938 797.949219 1050.6875 798.109375 1044.390625 C 801.820312 994.367188 804.136719 943.664062 805.128906 893.699219 Z M 772.917969 1006.839844 L 773.414062 881.398438 C 766.3125 878.597656 759.210938 875.707031 752.191406 872.730469 L 752.363281 978.355469 C 752.820312 993.28125 752.054688 1008.144531 750.058594 1022.945312 C 748.828125 1030.273438 747.035156 1037.457031 744.683594 1044.503906 C 743.183594 1049.324219 741.039062 1053.839844 738.253906 1058.050781 C 735.378906 1061.746094 732.125 1065.074219 728.5 1068.035156 C 725.09375 1070.808594 722.175781 1074.03125 719.75 1077.695312 C 724.210938 1079.433594 728.589844 1081.152344 733.042969 1082.984375 C 734.609375 1081.417969 736.097656 1079.851562 737.652344 1078.375 C 741.042969 1075.066406 744.179688 1072.011719 747.152344 1068.539062 C 749.429688 1066.019531 751.90625 1063.714844 754.589844 1061.625 C 757.152344 1059.773438 759.433594 1057.625 761.4375 1055.179688 C 763.496094 1052.152344 765.121094 1048.902344 766.3125 1045.4375 C 768.535156 1040.167969 770.265625 1034.742188 771.511719 1029.160156 C 772.691406 1021.761719 773.160156 1014.316406 772.917969 1006.828125 Z M 739.394531 1021.207031 C 741.328125 1006.980469 742.070312 992.691406 741.617188 978.34375 L 741.457031 868.164062 C 736.085938 865.859375 730.722656 863.554688 725.433594 861.25 L 725.433594 968.84375 C 725.992188 988.976562 724.863281 1009.019531 722.054688 1028.964844 C 720.714844 1038.527344 717.851562 1047.613281 713.464844 1056.21875 C 710.429688 1061.800781 706.4375 1066.589844 701.488281 1070.582031 C 704.210938 1071.664062 706.941406 1072.738281 709.660156 1073.730469 C 712.675781 1068.394531 716.582031 1063.824219 721.386719 1060.019531 C 724.414062 1057.597656 727.105469 1054.839844 729.457031 1051.753906 C 731.640625 1048.453125 733.292969 1044.902344 734.414062 1041.101562 C 736.660156 1034.617188 738.320312 1027.984375 739.394531 1021.207031 Z M 740.050781 1370.769531 C 740.132812 1365.476562 740.222656 1360.199219 740.132812 1354.917969 C 731.21875 1351.851562 722.632812 1348.394531 714.203125 1345.003906 L 633.113281 1312.296875 C 632.617188 1319.894531 632.699219 1327.410156 632.699219 1335.261719 L 632.699219 1345.636719 C 632.351562 1350.917969 632.75 1356.140625 633.886719 1361.304688 C 635.023438 1366.472656 636.855469 1371.378906 639.382812 1376.027344 C 639.464844 1376.199219 639.558594 1376.441406 639.636719 1376.601562 C 645.992188 1378.839844 652.515625 1380.902344 659.039062 1382.632812 C 667.007812 1384.734375 675.101562 1386.078125 683.324219 1386.660156 C 691.542969 1387.242188 699.746094 1387.050781 707.933594 1386.089844 C 709.660156 1385.929688 711.390625 1385.847656 713.132812 1385.769531 C 715.515625 1385.847656 717.855469 1385.574219 720.152344 1384.9375 C 726.832031 1381.761719 732.722656 1377.496094 737.824219 1372.140625 C 738.503906 1371.589844 739.246094 1371.140625 740.050781 1370.804688 Z M 715.195312 842.410156 C 715.511719 842.21875 715.84375 842.054688 716.1875 841.914062 C 715.027344 841.148438 713.792969 840.546875 712.476562 840.105469 C 702.976562 836.734375 693.230469 834.394531 683.238281 833.085938 C 678.695312 832.335938 674.15625 831.515625 669.40625 830.523438 C 659.699219 828.847656 650.230469 826.289062 641 822.847656 C 637.367188 821.359375 633.816406 819.621094 630.265625 817.890625 C 627.707031 816.644531 625.308594 815.492188 622.828125 814.433594 C 618.011719 815.703125 613.113281 816.308594 608.132812 816.253906 C 599.140625 816.332031 590.839844 816.160156 582.617188 816 L 577.085938 815.917969 C 558.160156 814.953125 539.359375 816.054688 520.675781 819.226562 C 515.421875 820.234375 510.277344 821.636719 505.238281 823.433594 C 488.480469 829.503906 472.597656 837.34375 457.59375 846.964844 L 457.835938 847.21875 C 458.410156 847.714844 458.988281 848.210938 459.484375 848.707031 C 461.6875 851.007812 463.421875 853.621094 464.695312 856.542969 L 465.605469 858.285156 C 466.082031 859.324219 466.710938 860.257812 467.496094 861.085938 C 478.675781 853.070312 490.582031 846.339844 503.21875 840.894531 C 515.851562 835.453125 528.925781 831.421875 542.429688 828.808594 C 550.777344 827.210938 559.203125 826.445312 567.699219 826.5 C 578.714844 827.023438 589.589844 828.539062 600.328125 831.042969 C 630.796875 837.316406 666.71875 844.878906 702.398438 853.421875 C 702.886719 853.5625 703.351562 853.753906 703.792969 853.996094 C 707.015625 849.566406 710.816406 845.703125 715.195312 842.410156 Z M 714.699219 968.84375 L 714.699219 860.335938 C 713.992188 861.125 713.332031 861.953125 712.71875 862.816406 C 711.835938 864.261719 710.726562 865.503906 709.390625 866.542969 C 708.054688 867.582031 706.578125 868.347656 704.957031 868.847656 L 704.300781 950.097656 C 704.96875 970.757812 703.09375 991.179688 698.675781 1011.371094 C 697.585938 1016.015625 696.136719 1020.542969 694.320312 1024.953125 C 692.503906 1029.363281 690.347656 1033.597656 687.847656 1037.660156 C 685.351562 1041.726562 682.542969 1045.5625 679.429688 1049.171875 C 676.3125 1052.785156 672.929688 1056.125 669.277344 1059.191406 C 675.882812 1061.335938 682.488281 1063.652344 689.015625 1066.039062 C 692.226562 1064.375 695.109375 1062.261719 697.667969 1059.703125 C 700.226562 1057.148438 702.335938 1054.261719 704 1051.050781 C 707.847656 1043.546875 710.34375 1035.613281 711.484375 1027.257812 C 714.167969 1007.875 715.242188 988.402344 714.699219 968.84375 Z M 693.558594 950.015625 L 694.226562 864.210938 C 660.527344 856.210938 626.667969 849.109375 597.765625 843.160156 C 594.550781 842.503906 591.324219 841.914062 588.105469 841.257812 C 587.277344 887.671875 587.691406 934.582031 589.421875 980.902344 C 589.753906 989.984375 589.511719 999.40625 589.339844 1008.488281 C 589.257812 1013.929688 589.179688 1019.382812 589.179688 1024.757812 C 589.351562 1030.519531 588.96875 1036.246094 588.027344 1041.933594 C 611.40625 1043.882812 634.304688 1048.3125 656.722656 1055.226562 C 657.019531 1054.882812 657.347656 1054.578125 657.714844 1054.316406 C 661.578125 1051.625 665.160156 1048.597656 668.457031 1045.238281 C 671.753906 1041.878906 674.714844 1038.242188 677.332031 1034.328125 C 679.949219 1030.414062 682.183594 1026.292969 684.03125 1021.960938 C 685.878906 1017.632812 687.308594 1013.167969 688.324219 1008.570312 C 692.527344 989.273438 694.269531 969.753906 693.558594 950.015625 Z M 622.703125 1308.089844 L 601.398438 1299.582031 L 600.820312 1356.152344 L 600.820312 1358.457031 C 605.605469 1360.683594 610.242188 1362.90625 614.78125 1365.222656 C 618.242188 1367.035156 621.699219 1368.683594 625.160156 1370.34375 C 622.796875 1362.25 621.753906 1353.992188 622.023438 1345.570312 L 622.023438 1335.332031 C 621.964844 1326.417969 621.964844 1317.335938 622.703125 1308.089844 Z M 590.089844 1353.753906 L 590.664062 1295.199219 L 567.875 1285.976562 L 568.371094 1327.605469 C 568.207031 1332.265625 568.589844 1336.875 569.523438 1341.441406 C 569.925781 1343.085938 570.535156 1344.65625 571.34375 1346.144531 Z M 576.957031 1008.234375 C 577.121094 999.324219 577.375 990.066406 577.039062 981.398438 C 575.308594 934.328125 574.8125 886.519531 575.714844 839.449219 C 572.910156 839.113281 570.179688 838.953125 567.378906 838.859375 C 559.738281 838.832031 552.167969 839.550781 544.667969 841.015625 C 532.027344 843.441406 519.796875 847.191406 507.972656 852.273438 C 496.148438 857.355469 485.007812 863.648438 474.550781 871.152344 L 471.75 883.707031 C 471.53125 884.554688 471.15625 885.332031 470.625 886.035156 C 470.097656 886.734375 469.453125 887.308594 468.695312 887.753906 C 466.054688 889.160156 463.324219 890.472656 460.625 891.878906 C 464.105469 925.234375 470.109375 958.128906 478.632812 990.5625 C 480.339844 997.710938 482.605469 1004.675781 485.421875 1011.464844 C 493.273438 1027.050781 503.316406 1041.058594 515.558594 1053.496094 C 515.648438 1053.578125 515.730469 1053.738281 515.8125 1053.820312 C 524.027344 1049.820312 532.554688 1046.683594 541.40625 1044.410156 C 552.605469 1041.835938 563.949219 1040.761719 575.4375 1041.183594 C 576.578125 1035.765625 577.042969 1030.289062 576.832031 1024.757812 C 576.785156 1019.304688 576.878906 1013.769531 576.957031 1008.234375 Z M 538.800781 1333.335938 L 558.535156 1341.175781 C 557.832031 1336.71875 557.535156 1332.234375 557.636719 1327.722656 L 557.046875 1281.609375 L 535.421875 1272.941406 C 535.582031 1278.878906 535.582031 1284.742188 535.421875 1290.519531 C 535.339844 1295.894531 535.25 1301.265625 535.339844 1306.542969 C 535.347656 1315.632812 536.5 1324.570312 538.800781 1333.359375 Z M 510.070312 1321.808594 L 526.578125 1328.414062 C 525.308594 1321.257812 524.648438 1314.042969 524.597656 1306.777344 C 524.515625 1301.253906 524.597656 1295.800781 524.675781 1290.347656 C 524.851562 1283.085938 524.929688 1275.730469 524.597656 1268.546875 L 506.023438 1261.03125 C 506.183594 1266.644531 506.183594 1272.257812 506.105469 1277.792969 C 506.023438 1283.085938 505.933594 1288.285156 506.023438 1293.5625 C 506.042969 1303.191406 507.394531 1312.628906 510.070312 1321.878906 Z M 478.691406 1309.347656 L 497.757812 1316.945312 C 496.234375 1309.308594 495.410156 1301.601562 495.28125 1293.816406 C 495.199219 1288.445312 495.28125 1282.992188 495.371094 1277.675781 C 495.453125 1270.761719 495.53125 1263.636719 495.117188 1256.695312 L 478.691406 1250.089844 Z M 488.015625 1068.207031 C 493.964844 1064.988281 499.820312 1061.679688 505.851562 1058.625 C 493.472656 1045.933594 483.371094 1031.636719 475.542969 1015.730469 C 472.5625 1008.425781 470.140625 1000.9375 468.28125 993.273438 C 460.003906 961.636719 454.085938 929.5625 450.527344 897.054688 C 447.886719 898.460938 445.234375 899.867188 442.59375 901.195312 C 442.171875 920.636719 443.324219 939.984375 446.054688 959.238281 C 447.136719 967.253906 448.671875 975.183594 450.664062 983.023438 C 454.570312 996.757812 459.390625 1010.167969 465.121094 1023.246094 L 474.207031 1045.542969 C 475.492188 1049.511719 477.207031 1053.289062 479.347656 1056.871094 C 481.488281 1060.453125 484 1063.75 486.886719 1066.765625 C 487.316406 1067.230469 487.691406 1067.734375 488.015625 1068.277344 Z M 469.570312 1078.699219 C 472.535156 1076.957031 475.425781 1075.148438 478.402344 1073.40625 C 472.074219 1066.410156 467.367188 1058.453125 464.28125 1049.542969 L 455.195312 1027.40625 C 449.246094 1013.851562 444.25 999.953125 440.207031 985.710938 C 438.125 977.484375 436.5 969.167969 435.332031 960.761719 C 432.785156 942.660156 431.601562 924.46875 431.78125 906.1875 C 426.90625 908.492188 422.039062 910.796875 417.164062 912.953125 C 421.054688 944.328125 426.515625 975.429688 433.546875 1006.253906 C 439.828125 1033.585938 448.417969 1061.175781 468.566406 1077.601562 C 468.953125 1077.953125 469.300781 1078.34375 469.605469 1078.765625 Z M 467.945312 1305.09375 L 467.945312 1245.722656 L 458.621094 1241.996094 C 454.714844 1240.367188 450.914062 1238.523438 447.21875 1236.464844 C 446.722656 1244.535156 446.398438 1252.742188 446.398438 1260.914062 C 446.363281 1273.230469 447.269531 1285.480469 449.121094 1297.65625 Z M 460.269531 878.148438 L 461.675781 872.121094 C 458.546875 870.097656 456.179688 867.40625 454.574219 864.050781 L 453.582031 862.066406 C 452.992188 860.855469 452.304688 859.703125 451.519531 858.609375 C 450.628906 860.304688 449.828125 862.039062 449.121094 863.820312 C 448.1875 866.207031 446.652344 868.105469 444.507812 869.515625 C 436.351562 874.601562 427.683594 878.5625 418.5 881.398438 C 413.625 883.140625 409.082031 884.789062 404.78125 886.773438 C 399.269531 889.492188 393.933594 892.519531 388.769531 895.855469 C 386.703125 897.089844 384.550781 898.417969 382.40625 899.660156 C 371.335938 906.265625 359.867188 911.882812 348.71875 917.324219 C 333.027344 925.011719 317.085938 932.691406 301.152344 940.378906 C 285.21875 948.070312 269.277344 955.734375 253.828125 963.332031 C 253.046875 963.664062 252.25 963.941406 251.429688 964.164062 C 252.835938 967.054688 254.070312 969.925781 255.234375 972.914062 C 255.507812 973.71875 255.617188 974.542969 255.558594 975.390625 C 256.566406 975.890625 257.503906 976.496094 258.371094 977.210938 C 282.386719 968.863281 305.441406 958.402344 327.542969 945.832031 C 333.570312 942.375 339.601562 938.8125 345.539062 935.261719 C 355.695312 929.152344 366.183594 922.867188 377.171875 917.425781 C 385.242188 913.378906 393.597656 909.828125 401.691406 906.359375 L 409.957031 902.726562 C 426.984375 895.347656 443.921875 887.09375 460.269531 878.171875 Z M 447.585938 1092.195312 C 451.792969 1089.558594 456.09375 1087.078125 460.269531 1084.4375 C 438.800781 1065.855469 429.71875 1037.113281 423.191406 1008.628906 C 416.332031 978.652344 410.890625 948.011719 407.050781 917.460938 L 406.636719 917.703125 C 401.851562 919.6875 396.976562 921.832031 392.101562 924.066406 C 396.894531 958.652344 403.25 993.59375 411.019531 1027.824219 C 413.417969 1040.714844 417.324219 1053.128906 422.742188 1065.070312 C 424.015625 1067.890625 425.5 1070.589844 427.199219 1073.171875 C 428.894531 1075.757812 430.785156 1078.191406 432.867188 1080.476562 C 434.949219 1082.761719 437.195312 1084.871094 439.609375 1086.800781 C 442.027344 1088.730469 444.578125 1090.460938 447.265625 1091.988281 C 447.347656 1092.082031 447.445312 1092.160156 447.550781 1092.21875 Z M 430.664062 1103.921875 C 433.050781 1102.273438 435.445312 1100.542969 437.925781 1098.882812 C 432.550781 1095.25 427.75 1090.964844 423.53125 1086.03125 C 419.316406 1081.101562 415.828125 1075.695312 413.070312 1069.820312 C 407.277344 1057.085938 403.089844 1043.84375 400.515625 1030.09375 C 393 996.730469 386.808594 962.710938 382.070312 928.851562 C 377.125 931.328125 372.167969 933.96875 367.292969 936.78125 L 379.269531 999.796875 C 382.074219 1016.597656 386.035156 1033.121094 391.15625 1049.371094 C 394.835938 1060 399.488281 1070.1875 405.117188 1079.929688 C 406.789062 1082.890625 408.6875 1085.699219 410.8125 1088.359375 C 416.375 1094.40625 422.761719 1099.402344 429.972656 1103.34375 C 430.222656 1103.511719 430.441406 1103.710938 430.628906 1103.945312 Z M 426.628906 1288.6875 L 437.601562 1293.054688 C 436.304688 1282.417969 435.640625 1271.738281 435.621094 1261.019531 C 435.621094 1250.78125 436.035156 1240.53125 436.773438 1230.457031 C 436.023438 1229.972656 435.285156 1229.558594 434.628906 1229.0625 C 428.671875 1225.304688 422.523438 1221.886719 416.183594 1218.8125 C 415.847656 1238.066406 416.023438 1255.484375 416.679688 1271.753906 C 416.859375 1276.226562 417.519531 1280.632812 418.660156 1284.964844 C 420.484375 1285.714844 422.210938 1286.53125 423.78125 1287.363281 C 424.839844 1287.855469 425.832031 1288.351562 426.628906 1288.6875 Z M 406.71875 1121.527344 C 411.515625 1117.8125 416.21875 1114.007812 421.09375 1110.457031 C 414.042969 1106.382812 407.816406 1101.292969 402.417969 1095.195312 C 399.90625 1092.082031 397.675781 1088.777344 395.730469 1085.28125 C 389.746094 1074.933594 384.789062 1064.117188 380.859375 1052.828125 C 375.59375 1036.132812 371.523438 1019.152344 368.640625 1001.882812 L 357.332031 942.582031 L 351.878906 945.808594 C 349.15625 947.457031 346.34375 949.027344 343.625 950.675781 C 343.625 950.847656 343.703125 950.929688 343.703125 951.007812 C 346.84375 974.574219 351.417969 997.859375 357.421875 1020.863281 C 363.425781 1043.863281 370.816406 1066.414062 379.59375 1088.507812 C 381.746094 1094.398438 384.46875 1100.011719 387.765625 1105.351562 C 390.125 1108.820312 392.898438 1111.917969 396.09375 1114.636719 C 399.289062 1117.355469 402.789062 1119.601562 406.589844 1121.375 Z M 385.75 1272.316406 C 392.769531 1275.128906 399.871094 1278.082031 406.890625 1280.824219 C 406.386719 1277.984375 406.082031 1275.121094 405.980469 1272.234375 C 405.230469 1254.5625 405.152344 1235.65625 405.566406 1214.59375 L 385.332031 1206.917969 L 385.171875 1258.863281 C 385.109375 1263.363281 385.316406 1267.851562 385.78125 1272.328125 Z M 392.355469 1132.59375 C 394.003906 1131.1875 395.8125 1129.953125 397.472656 1128.625 C 393.738281 1126.5 390.296875 1123.976562 387.144531 1121.054688 C 383.992188 1118.136719 381.214844 1114.894531 378.808594 1111.335938 C 375.070312 1105.382812 371.996094 1099.109375 369.585938 1092.507812 C 360.914062 1070.652344 353.582031 1048.355469 347.585938 1025.617188 C 341.589844 1002.882812 336.976562 979.867188 333.742188 956.578125 L 333.59375 956.578125 C 329.132812 959.136719 324.671875 961.453125 320.210938 963.757812 C 320.210938 963.839844 320.289062 963.839844 320.289062 963.933594 C 328.222656 999.933594 335.65625 1036.769531 342.34375 1073.09375 C 346.054688 1093.40625 350.273438 1111.136719 362.574219 1122.066406 C 372.316406 1125.953125 381.976562 1129.824219 391.476562 1133.710938 C 391.8125 1133.320312 392.042969 1132.9375 392.386719 1132.605469 Z M 374.4375 1258.769531 L 374.601562 1202.871094 L 357.308594 1196.34375 C 357.121094 1216.886719 358.136719 1237.367188 360.363281 1257.792969 C 360.523438 1259.1875 360.777344 1260.671875 361.019531 1262.078125 C 365.480469 1263.980469 370.023438 1265.882812 374.484375 1267.695312 C 374.472656 1264.652344 374.472656 1261.59375 374.472656 1258.78125 Z M 349.570312 1257.121094 C 347.25 1235.574219 346.289062 1213.96875 346.691406 1192.296875 L 323.804688 1183.710938 L 323.804688 1231.609375 C 323.707031 1236.390625 323.957031 1241.152344 324.554688 1245.894531 C 332.84375 1249.757812 341.316406 1253.503906 349.605469 1257.132812 Z M 318.320312 1104.199219 C 326.734375 1107.585938 335.160156 1110.964844 343.496094 1114.273438 C 337.660156 1101.785156 333.75 1088.71875 331.773438 1075.078125 C 325.246094 1039.652344 317.9375 1003.902344 310.304688 968.796875 C 305.511719 971.195312 300.644531 973.59375 295.851562 975.714844 C 295.917969 993.558594 298.171875 1011.117188 302.617188 1028.398438 C 307.828125 1052.839844 313.109375 1077.371094 318.398438 1101.8125 C 318.578125 1102.613281 318.550781 1103.410156 318.320312 1104.199219 Z M 313.28125 1240.453125 C 313.109375 1237.316406 313.109375 1234.34375 313.109375 1231.542969 L 313.109375 1179.59375 L 295.929688 1173.148438 C 295.996094 1193.402344 297.265625 1213.582031 299.734375 1233.683594 C 304.195312 1235.992188 308.738281 1238.308594 313.28125 1240.453125 Z M 306.996094 1099.738281 C 301.964844 1076.679688 297.011719 1053.625 292.136719 1030.566406 C 288.015625 1014.023438 285.648438 997.234375 285.035156 980.199219 C 280.078125 982.179688 275.28125 984.082031 270.5 985.894531 C 275.550781 1022.585938 283.199219 1058.726562 293.453125 1094.320312 C 297.992188 1096.105469 302.457031 1097.914062 306.996094 1099.738281 Z M 288.285156 1227.738281 C 286.128906 1208.226562 285.082031 1188.652344 285.152344 1169.023438 L 223.84375 1145.894531 C 224.753906 1147.71875 225.652344 1149.539062 226.484375 1151.347656 C 231.601562 1161.726562 236.800781 1172.410156 241.019531 1182.074219 C 243.957031 1189.898438 247.917969 1197.164062 252.90625 1203.871094 C 259.207031 1210.519531 266.445312 1215.898438 274.625 1220.011719 C 279.0625 1222.699219 283.675781 1225.175781 288.285156 1227.738281 Z M 270.082031 1085.117188 C 273.714844 1086.523438 277.359375 1088.011719 280.988281 1089.417969 C 271.878906 1056.59375 264.964844 1023.308594 260.238281 989.570312 C 259.617188 989.757812 259.011719 989.980469 258.417969 990.238281 C 257.765625 990.457031 257.101562 990.5625 256.414062 990.554688 C 255.730469 990.550781 255.066406 990.429688 254.421875 990.195312 C 253.777344 989.964844 253.1875 989.632812 252.65625 989.203125 C 252.121094 988.769531 251.675781 988.261719 251.316406 987.679688 C 250.828125 986.902344 250.167969 986.324219 249.332031 985.941406 L 197.210938 1014.578125 C 192.925781 1016.882812 182.929688 1022.414062 182.226562 1026.878906 C 182.144531 1027.292969 181.984375 1028.445312 183.886719 1030.589844 C 185.875 1032.515625 188.132812 1034.050781 190.652344 1035.199219 C 214.660156 1047.738281 239.253906 1058.992188 264.433594 1068.96875 C 264.972656 1069.175781 265.476562 1069.453125 265.9375 1069.800781 C 266.398438 1070.148438 266.804688 1070.550781 267.15625 1071.011719 C 267.503906 1071.472656 267.785156 1071.96875 267.996094 1072.507812 C 268.210938 1073.046875 268.34375 1073.601562 268.402344 1074.179688 C 268.613281 1076.453125 268.945312 1078.707031 269.390625 1080.945312 C 269.703125 1082.324219 269.933594 1083.714844 270.082031 1085.117188 Z M 246.796875 1075.894531 L 247.546875 1075.398438 C 226.230469 1066.570312 205.257812 1056.734375 184.945312 1046.082031 C 181.027344 1044.316406 177.570312 1041.898438 174.570312 1038.820312 C 173.667969 1037.902344 172.878906 1036.890625 172.210938 1035.789062 C 171.539062 1034.691406 171.003906 1033.527344 170.605469 1032.300781 C 170.203125 1031.078125 169.949219 1029.820312 169.839844 1028.539062 C 169.730469 1027.253906 169.773438 1025.972656 169.960938 1024.699219 C 171.78125 1014.324219 183.921875 1007.683594 191.183594 1003.636719 L 242.75 975.378906 C 241.3125 971.691406 239.6875 968.085938 237.875 964.566406 C 196.304688 979.335938 156.667969 998.164062 118.957031 1021.054688 C 118.878906 1021.308594 118.714844 1021.46875 118.636719 1021.722656 C 116.328125 1025.851562 121.851562 1030.945312 128.296875 1036.34375 L 129.035156 1036.917969 C 136.234375 1041.917969 144.054688 1045.605469 152.492188 1047.984375 C 156.367188 1049.300781 160.089844 1050.625 163.386719 1052.03125 C 187.648438 1063.34375 212.863281 1071.796875 239.039062 1077.394531 C 240.363281 1077.625 241.488281 1078.226562 242.414062 1079.203125 C 243.902344 1078.179688 245.308594 1077.105469 246.785156 1075.953125 Z M 172.3125 1073.671875 L 237.792969 1099.597656 C 237.46875 1095.96875 237.136719 1092.335938 236.558594 1088.691406 C 236.152344 1088.351562 235.796875 1087.96875 235.488281 1087.539062 C 209.097656 1081.824219 183.660156 1073.28125 159.167969 1061.910156 C 156.03125 1060.597656 152.5625 1059.351562 148.929688 1058.117188 C 139.261719 1055.347656 130.339844 1051.023438 122.175781 1045.148438 L 121.425781 1044.574219 C 117.292969 1041.347656 113.660156 1037.628906 110.53125 1033.425781 C 110.414062 1035.152344 110.472656 1036.875 110.703125 1038.589844 C 110.9375 1040.304688 111.34375 1041.980469 111.917969 1043.613281 C 112.492188 1045.246094 113.226562 1046.804688 114.117188 1048.289062 C 115.011719 1049.773438 116.042969 1051.152344 117.21875 1052.425781 C 122.132812 1056.136719 127.609375 1058.609375 133.644531 1059.847656 L 135.546875 1060.34375 C 148.273438 1064.148438 160.507812 1069.011719 172.3125 1073.730469 Z M 172.3125 1073.671875 " fill-opacity="1" fill-rule="nonzero"/></g><path fill="#a6a6a6" d="M 1345.199219 361.296875 C 1348.660156 410.105469 1338.351562 458.132812 1328.277344 504.664062 L 1302.914062 621.839844 C 1301.828125 627.605469 1301.0625 633.417969 1300.609375 639.269531 C 1300.089844 648.023438 1298.605469 656.613281 1296.160156 665.035156 C 1290.65625 681.972656 1286.046875 699.152344 1282.324219 716.566406 L 1259.117188 821.855469 C 1257.628906 828.289062 1256.71875 834.90625 1255.660156 842.007812 C 1255.019531 850.820312 1253.453125 859.464844 1250.960938 867.941406 C 1248.46875 876.417969 1245.109375 884.535156 1240.878906 892.292969 C 1238.523438 896.597656 1235.574219 900.445312 1232.035156 903.839844 C 1228.492188 907.234375 1224.523438 910.019531 1220.128906 912.191406 C 1215.160156 914.101562 1210.011719 914.984375 1204.691406 914.84375 C 1202.132812 914.84375 1199.574219 914.671875 1197.003906 914.511719 C 1080.980469 906.914062 972.972656 861.90625 868.441406 818.304688 C 857.375 813.695312 846.46875 808.390625 835.992188 803.191406 C 828.058594 799.304688 820.128906 795.421875 812.125 791.871094 C 800.027344 786.707031 787.695312 782.199219 775.121094 778.335938 C 766.449219 775.523438 757.539062 772.570312 748.949219 769.25 C 744.839844 768.066406 740.824219 766.605469 736.910156 764.871094 C 732.996094 763.136719 729.21875 761.148438 725.574219 758.902344 C 721.933594 756.652344 718.457031 754.167969 715.152344 751.449219 C 711.847656 748.730469 708.742188 745.796875 705.835938 742.65625 C 686.929688 718.871094 692.542969 686.339844 697.5 657.679688 L 697.742188 656.273438 C 704.191406 614.65625 708.460938 572.816406 710.550781 530.753906 C 714.515625 470.804688 718.621094 408.863281 735.914062 350.066406 C 741.460938 329.695312 745.453125 309.027344 747.890625 288.054688 C 750.671875 261.640625 756.4375 235.894531 765.183594 210.816406 C 766.800781 205.558594 769.472656 200.90625 773.195312 196.855469 C 775.007812 195.339844 776.949219 194.011719 779.019531 192.875 C 781.089844 191.738281 783.253906 190.8125 785.503906 190.097656 C 787.757812 189.382812 790.054688 188.894531 792.402344 188.628906 C 794.75 188.363281 797.101562 188.324219 799.457031 188.519531 C 831.117188 189.257812 862.304688 193.484375 893.019531 201.199219 C 937.277344 210.609375 976.832031 221.261719 1018.785156 232.488281 C 1028.699219 235.140625 1038.773438 237.863281 1049.171875 240.558594 C 1078.984375 248.492188 1110.273438 254.105469 1140.433594 259.476562 C 1196.992188 269.632812 1255.460938 280.226562 1307.90625 306.132812 C 1313.304688 308.382812 1318.332031 311.277344 1322.992188 314.816406 C 1327.648438 318.355469 1331.785156 322.425781 1335.402344 327.023438 C 1338.519531 332.203125 1340.90625 337.699219 1342.570312 343.511719 C 1344.230469 349.324219 1345.109375 355.25 1345.199219 361.296875 Z M 1316.136719 502.011719 C 1326.050781 456.429688 1336.207031 409.277344 1332.820312 362.207031 C 1332.808594 357.261719 1332.160156 352.402344 1330.871094 347.625 C 1329.582031 342.851562 1327.699219 338.324219 1325.222656 334.042969 C 1322.195312 330.308594 1318.753906 327.007812 1314.894531 324.140625 C 1311.035156 321.273438 1306.878906 318.933594 1302.429688 317.117188 C 1251.472656 292.011719 1193.914062 281.613281 1138.253906 271.617188 C 1107.785156 266.164062 1076.324219 260.46875 1045.933594 252.457031 C 1035.558594 249.734375 1025.449219 247.003906 1015.546875 244.386719 C 973.753906 233.15625 934.363281 222.585938 890.347656 213.257812 C 861.605469 206.035156 832.425781 201.875 802.8125 200.785156 C 801.738281 200.785156 800.667969 200.785156 799.675781 200.867188 C 796.53125 200.5625 793.429688 200.816406 790.375 201.625 C 787.324219 202.433594 784.503906 203.75 781.921875 205.570312 C 779.515625 208.398438 777.78125 211.589844 776.722656 215.148438 C 768.292969 239.390625 762.757812 264.277344 760.121094 289.808594 C 757.542969 311.359375 753.414062 332.613281 747.730469 353.558594 C 730.886719 411.019531 726.757812 472.292969 722.90625 531.535156 C 720.789062 574.03125 716.46875 616.300781 709.949219 658.347656 L 709.695312 659.742188 C 705.152344 685.84375 700.035156 715.402344 715.460938 734.898438 C 720.660156 740.273438 726.464844 744.886719 732.875 748.738281 C 739.285156 752.589844 746.085938 755.546875 753.273438 757.609375 C 761.621094 760.824219 770.371094 763.71875 778.878906 766.4375 C 791.886719 770.496094 804.65625 775.199219 817.1875 780.550781 C 825.257812 784.179688 833.328125 788.148438 841.398438 792.078125 C 851.773438 797.195312 862.449219 802.453125 873.179688 806.9375 C 976.742188 850.042969 1083.851562 894.726562 1197.808594 902.152344 C 1203.777344 902.988281 1209.640625 902.523438 1215.402344 900.757812 C 1218.570312 899.003906 1221.429688 896.84375 1223.976562 894.273438 C 1226.527344 891.703125 1228.664062 888.824219 1230.386719 885.644531 C 1234.082031 878.597656 1237.023438 871.25 1239.203125 863.597656 C 1241.386719 855.949219 1242.765625 848.15625 1243.347656 840.21875 C 1244.339844 833.304688 1245.410156 826.019531 1246.898438 819.25 L 1270.183594 713.871094 C 1274.015625 696.085938 1278.734375 678.539062 1284.339844 661.230469 C 1286.503906 653.671875 1287.824219 645.964844 1288.308594 638.117188 C 1288.761719 631.757812 1289.617188 625.449219 1290.867188 619.199219 Z M 1316.136719 502.011719 " fill-opacity="1" fill-rule="nonzero"/><path fill="#a6a6a6" d="M 1306.246094 386.902344 C 1314.097656 403.167969 1307.492188 420.332031 1301.046875 436.945312 C 1297.929688 444.171875 1295.535156 451.632812 1293.863281 459.320312 C 1270.992188 583.691406 1244.292969 709.132812 1214.167969 832.09375 C 1213.980469 833.539062 1213.636719 834.945312 1213.144531 836.316406 C 1212.648438 837.6875 1212.015625 838.988281 1211.238281 840.222656 C 1210.460938 841.453125 1209.5625 842.589844 1208.539062 843.628906 C 1207.519531 844.664062 1206.398438 845.582031 1205.175781 846.375 C 1202.691406 847.683594 1200.050781 848.292969 1197.246094 848.199219 C 1195.757812 848.199219 1194.429688 848.023438 1193.441406 847.945312 C 1155.308594 842.90625 1118.066406 834.097656 1081.71875 821.523438 L 1030.1875 805.671875 C 1005.828125 798.152344 980.613281 790.394531 956.105469 781.550781 L 948.589844 778.914062 C 938.359375 775.644531 928.421875 771.652344 918.777344 766.933594 C 915.871094 765.449219 913.066406 763.796875 910.359375 761.976562 C 906.726562 759.390625 902.820312 757.328125 898.636719 755.785156 L 894.910156 754.632812 C 847.644531 740.6875 801.53125 723.621094 756.570312 703.4375 C 752.808594 701.972656 749.289062 700.070312 746 697.730469 C 742.714844 695.386719 739.765625 692.679688 737.15625 689.601562 C 735.5625 686.8125 734.253906 683.894531 733.226562 680.851562 C 732.199219 677.804688 731.480469 674.6875 731.0625 671.503906 C 730.644531 668.316406 730.539062 665.121094 730.746094 661.914062 C 730.953125 658.707031 731.46875 655.550781 732.292969 652.445312 C 747.152344 550.453125 764.746094 447.480469 784.640625 346.480469 C 789.3125 318.242188 796.9375 290.824219 807.515625 264.226562 C 807.847656 263.519531 808.246094 262.851562 808.714844 262.222656 C 809.183594 261.597656 809.710938 261.027344 810.296875 260.507812 C 810.882812 259.992188 811.515625 259.539062 812.195312 259.152344 C 812.875 258.765625 813.585938 258.453125 814.332031 258.210938 C 815.074219 257.972656 815.835938 257.808594 816.613281 257.726562 C 817.390625 257.644531 818.167969 257.640625 818.949219 257.714844 C 819.726562 257.792969 820.488281 257.949219 821.234375 258.183594 C 821.980469 258.417969 822.695312 258.726562 823.378906 259.109375 C 824.570312 259.503906 825.78125 259.832031 827.007812 260.097656 C 963.265625 284.632812 1100.683594 313.128906 1235.449219 344.660156 C 1265.019531 351.691406 1294.082031 361.550781 1306.246094 386.902344 Z M 1289.484375 432.484375 C 1295.246094 417.703125 1300.632812 403.742188 1295.097656 392.273438 C 1284.722656 370.554688 1257.363281 362.542969 1232.511719 356.671875 C 1098.042969 325.175781 960.796875 296.726562 824.703125 272.273438 C 822.894531 271.933594 821.132812 271.4375 819.414062 270.785156 C 819.078125 270.707031 818.675781 270.542969 818.257812 270.464844 C 808.25 295.820312 801.066406 321.949219 796.703125 348.855469 C 776.882812 449.683594 759.292969 552.414062 744.511719 654.234375 C 743.867188 656.546875 743.4375 658.898438 743.222656 661.289062 C 743.011719 663.679688 743.015625 666.070312 743.238281 668.460938 C 743.460938 670.851562 743.898438 673.203125 744.550781 675.515625 C 745.203125 677.824219 746.058594 680.058594 747.117188 682.210938 C 749.125 684.449219 751.371094 686.414062 753.855469 688.101562 C 756.34375 689.792969 758.996094 691.15625 761.816406 692.195312 C 806.269531 712.210938 851.882812 729.089844 898.660156 742.828125 L 902.371094 743.980469 C 907.640625 745.84375 912.566406 748.378906 917.148438 751.578125 C 919.457031 753.066406 921.867188 754.632812 924.425781 755.949219 C 933.578125 760.363281 942.988281 764.136719 952.65625 767.269531 L 960.347656 769.910156 C 984.558594 778.578125 1009.640625 786.347656 1033.839844 793.773438 L 1085.371094 809.714844 C 1120.960938 821.972656 1157.40625 830.613281 1194.707031 835.644531 C 1196.285156 835.890625 1197.855469 835.835938 1199.410156 835.484375 C 1200.816406 834.734375 1201.71875 830.765625 1202.144531 829.117188 C 1232.199219 706.410156 1258.875 581.257812 1281.691406 457.097656 C 1283.492188 448.644531 1286.082031 440.441406 1289.460938 432.484375 Z M 1289.484375 432.484375 " fill-opacity="1" fill-rule="nonzero"/></svg>