<svg xmlns="http://www.w3.org/2000/svg" xmlns:xlink="http://www.w3.org/1999/xlink" width="2000" zoomAndPan="magnify" viewBox="0 0 1500 1499.999933" height="2000" preserveAspectRatio="xMidYMid meet" version="1.0"><defs><clipPath id="7604dd70f7"><path d="M 141.042969 402 L 1313.03125 402 L 1313.03125 1264.449219 L 141.042969 1264.449219 Z M 141.042969 402 " clip-rule="nonzero"/></clipPath></defs><path fill="#a6a6a6" d="M 1129.859375 641.664062 C 1131.109375 641.664062 1132.253906 642.289062 1132.773438 643.332031 C 1174.195312 717.222656 1174.195312 807.25 1132.773438 881.039062 C 1131.941406 882.597656 1129.960938 883.121094 1128.402344 882.285156 C 1127.882812 881.976562 1127.464844 881.558594 1127.257812 881.039062 C 1085.835938 807.25 1085.835938 717.222656 1127.257812 643.332031 C 1127.777344 642.394531 1128.714844 641.769531 1129.859375 641.664062 Z M 1128.816406 615.75 C 1118.617188 616.167969 1109.460938 621.789062 1104.464844 630.632812 C 1058.671875 712.332031 1058.671875 812.035156 1104.464844 893.839844 C 1112.476562 907.890625 1130.378906 912.886719 1144.429688 904.976562 C 1149.113281 902.375 1152.964844 898.523438 1155.566406 893.839844 C 1201.359375 812.035156 1201.359375 712.332031 1155.566406 630.632812 C 1150.152344 620.957031 1139.746094 615.230469 1128.816406 615.75 " fill-opacity="1" fill-rule="nonzero"/><g clip-path="url(#7604dd70f7)"><path fill="#a6a6a6" d="M 969.375 921.210938 C 984.464844 974.082031 1007.15625 1024.453125 1036.503906 1070.871094 C 1042.644531 1080.445312 1050.035156 1088.980469 1058.671875 1096.265625 L 928.265625 1096.265625 C 948.039062 1039.441406 961.777344 980.847656 969.375 921.210938 Z M 1129.441406 428.105469 C 1129.859375 428.105469 1130.273438 428.105469 1130.585938 428.105469 C 1159.414062 428.3125 1186.058594 443.195312 1201.460938 467.445312 C 1315.527344 647.390625 1315.527344 876.980469 1201.460938 1056.925781 C 1176.484375 1096.472656 1124.238281 1108.234375 1084.792969 1083.152344 C 1074.179688 1076.492188 1065.226562 1067.539062 1058.566406 1056.925781 C 944.5 876.980469 944.5 647.390625 1058.566406 467.445312 C 1073.96875 443.195312 1100.71875 428.3125 1129.441406 428.105469 Z M 506.761719 428.105469 C 507.179688 428.105469 507.59375 428.105469 508.011719 428.105469 L 1058.671875 428.105469 C 1050.035156 435.390625 1042.644531 444.027344 1036.503906 453.5 C 967.085938 563.195312 936.589844 693.183594 950.121094 822.339844 C 948.558594 947.75 919.003906 1071.183594 863.636719 1183.582031 C 847.085938 1217.199219 812.949219 1238.429688 775.589844 1238.429688 L 218.789062 1238.429688 C 233.148438 1226.878906 244.804688 1212.101562 252.507812 1195.238281 C 316.824219 1055.570312 345.03125 901.957031 334.414062 748.550781 C 336.078125 661.441406 357 575.785156 395.820312 497.730469 C 416.738281 455.476562 459.617188 428.625 506.761719 428.105469 Z M 508.011719 402.085938 C 450.5625 402.085938 398.109375 434.660156 372.507812 486.074219 C 331.8125 567.980469 309.851562 657.902344 308.394531 749.28125 C 318.90625 898.730469 291.535156 1048.390625 228.777344 1184.417969 C 214.9375 1214.597656 186.003906 1234.996094 152.804688 1237.910156 C 145.621094 1238.742188 140.316406 1245.300781 141.148438 1252.585938 C 141.875 1259.246094 147.390625 1264.34375 154.054688 1264.449219 L 775.589844 1264.449219 C 822.839844 1264.449219 866.027344 1237.496094 886.949219 1195.136719 C 898.707031 1171.40625 909.324219 1147.054688 918.898438 1122.285156 L 1129.960938 1122.285156 C 1167.949219 1122.386719 1203.230469 1102.925781 1223.527344 1070.871094 C 1342.898438 882.390625 1342.898438 641.976562 1223.527344 453.5 C 1203.230469 421.546875 1167.949219 402.085938 1129.960938 402.085938 L 508.011719 402.085938 " fill-opacity="1" fill-rule="nonzero"/></g></svg>