<svg xmlns="http://www.w3.org/2000/svg" xmlns:xlink="http://www.w3.org/1999/xlink" width="2000" zoomAndPan="magnify" viewBox="0 0 1500 1499.999933" height="2000" preserveAspectRatio="xMidYMid meet" version="1.0"><defs><clipPath id="ceb15e3248"><path d="M 20.332031 810 L 40 810 L 40 825 L 20.332031 825 Z M 20.332031 810 " clip-rule="nonzero"/></clipPath><clipPath id="953adecbbc"><path d="M 26 458 L 1482.832031 458 L 1482.832031 1000 L 26 1000 Z M 26 458 " clip-rule="nonzero"/></clipPath></defs><path fill="#d6abc3" d="M 345.640625 588.464844 C 356.171875 589.121094 366.375 590.726562 377.273438 588.890625 C 387.300781 587.203125 397.234375 584.414062 407.46875 583.777344 C 407.285156 583.3125 407.019531 582.929688 406.691406 582.601562 C 410.921875 577.5 415.085938 575.222656 422.492188 578.347656 C 429.226562 581.195312 437.253906 580.75 444.65625 578.328125 C 461.316406 575.195312 477.335938 568.410156 494.738281 569.460938 C 495.484375 568.53125 496.230469 567.601562 496.976562 566.671875 C 496.957031 566.386719 496.9375 566.097656 496.917969 565.8125 C 497.046875 565.714844 497.179688 565.640625 497.308594 565.539062 C 511.136719 562.460938 525.34375 561.699219 539.183594 559.117188 C 547.609375 557.546875 556.984375 555.503906 562.933594 547.667969 C 564.066406 547.039062 564.773438 545.714844 563.90625 544.960938 C 557.75 539.617188 554.136719 532.628906 550.609375 525.507812 C 549.152344 522.5625 545.867188 521.972656 543.277344 522.703125 C 536.910156 524.496094 530.371094 523.125 524.03125 524.386719 C 523.445312 524.242188 522.855469 524.09375 522.269531 523.949219 C 513.40625 526.0625 504.988281 530.257812 495.484375 529.386719 C 493.015625 529.160156 490.542969 529.292969 488.042969 530.316406 C 475.398438 535.507812 461.652344 536.050781 448.523438 539.320312 C 437.25 542.125 425.816406 544.132812 415.507812 549.851562 C 414.46875 549.449219 413.914062 550.03125 413.476562 550.855469 C 413.050781 555.65625 411.355469 559.984375 406.308594 561.101562 C 400.984375 562.277344 400.835938 557.59375 399.277344 554.472656 C 400.238281 554.15625 401.105469 553.664062 401.828125 552.882812 C 396.273438 549.355469 390.585938 550.464844 385.070312 552.738281 C 376.867188 556.117188 368.640625 559.261719 360.023438 561.5625 C 353.648438 563.265625 347.445312 565.929688 341.515625 568.882812 C 336.464844 571.398438 332.597656 576.839844 333.410156 581.710938 C 334.207031 586.480469 340.207031 588.121094 345.640625 588.464844 Z M 345.640625 588.464844 " fill-opacity="1" fill-rule="nonzero"/><path fill="#d6abc3" d="M 944.003906 975.09375 C 940.132812 974.601562 936.164062 974.921875 932.234375 974.898438 C 918.570312 975.933594 905.414062 971.910156 892.042969 970.300781 C 887.457031 969.746094 884.207031 968.789062 881.097656 972.535156 C 875.507812 977.09375 871.65625 973.75 867.976562 969.644531 C 866.222656 968.324219 864.855469 966.230469 862.308594 966.40625 C 847.265625 967.421875 832.234375 964.277344 817.1875 966.308594 C 807.96875 969.398438 798.425781 967.574219 789.039062 968.097656 C 774.011719 968.9375 758.898438 966.789062 743.898438 969.199219 C 744.113281 969.570312 744.394531 969.871094 744.679688 970.164062 C 744.667969 970.164062 744.65625 970.164062 744.644531 970.164062 C 744.394531 969.839844 744.148438 969.519531 743.898438 969.199219 C 738.3125 971.226562 732.558594 971.703125 726.628906 971.625 C 721.652344 971.5625 716.539062 970.570312 711.675781 972.597656 C 700.738281 976.09375 688.773438 974.804688 678.160156 979.800781 C 677.710938 979.902344 677.253906 979.980469 676.796875 980.039062 C 672.582031 981.808594 668.066406 981.125 663.722656 981.714844 C 651.503906 983.375 639.027344 983.761719 627.328125 988.320312 C 616.089844 990.273438 604.886719 992.507812 593.59375 994.085938 C 585.191406 995.261719 579.324219 1003.269531 570.027344 1001.972656 C 556.535156 1000.085938 544.925781 1007.105469 532.570312 1010.578125 C 530.265625 1013.082031 527.296875 1013.800781 524.085938 1013.453125 C 512.511719 1012.203125 501.984375 1015.640625 491.746094 1020.484375 C 489.546875 1019.554688 487.984375 1020.472656 486.714844 1022.234375 C 483.953125 1023.871094 481.523438 1025.859375 477.859375 1025.859375 C 475.128906 1025.859375 471.558594 1026.242188 471.339844 1030.496094 C 466.375 1033.507812 461.148438 1025.25 456.242188 1030.84375 C 456.242188 1030.84375 456.242188 1030.84375 456.246094 1030.84375 C 456.242188 1030.84375 456.242188 1030.84375 456.242188 1030.84375 C 454.398438 1031.761719 452.554688 1032.679688 450.710938 1033.597656 C 442.796875 1032.617188 435.269531 1033.878906 428.003906 1037.199219 C 419.953125 1040.875 411.8125 1044.347656 403.707031 1047.90625 C 399.636719 1049.390625 396.84375 1052.546875 394.28125 1055.730469 C 390.5625 1060.347656 392.566406 1065.777344 398.472656 1068.03125 C 406.847656 1074.34375 415.53125 1077.425781 425.816406 1072.054688 C 428.347656 1070.730469 431.949219 1070.949219 434.992188 1071.21875 C 442.125 1071.851562 449.035156 1071.519531 455.507812 1068.167969 C 464.375 1063.570312 475.085938 1064.117188 483.425781 1058.082031 C 483.417969 1057.441406 483.414062 1056.800781 483.40625 1056.15625 C 487.070312 1055.867188 490.550781 1055.027344 493.578125 1052.804688 C 493.578125 1052.800781 493.582031 1052.800781 493.585938 1052.800781 C 501.730469 1052.554688 510.101562 1053.421875 517.96875 1051.820312 C 532.394531 1048.878906 546.15625 1043.300781 561.144531 1042.117188 C 568.691406 1041.519531 576.050781 1037.90625 582.8125 1033.761719 C 585.765625 1031.953125 585.117188 1030.816406 583.128906 1029.128906 C 582.285156 1026.21875 582.230469 1023.386719 583.617188 1020.136719 C 585.75 1022.65625 585.320312 1026.171875 588.441406 1027.222656 C 590.4375 1029.15625 590.773438 1033.386719 595.128906 1032.0625 C 603.828125 1034.371094 610.917969 1028.679688 618.875 1027.292969 C 618.871094 1027.296875 618.871094 1027.296875 618.871094 1027.296875 C 618.875 1027.296875 618.878906 1027.296875 618.878906 1027.296875 C 618.261719 1028.347656 617.640625 1029.398438 617.019531 1030.449219 C 623.207031 1028.027344 629.917969 1029.332031 636.21875 1027.738281 C 635.953125 1027.441406 635.691406 1027.140625 635.429688 1026.84375 C 635.460938 1026.8125 635.464844 1026.777344 635.492188 1026.746094 C 635.734375 1027.078125 635.976562 1027.40625 636.21875 1027.738281 C 650.667969 1024.605469 665.289062 1022.476562 680 1021.242188 C 684.394531 1020.875 688.847656 1021.378906 693.332031 1020.5625 C 713.265625 1016.9375 732.863281 1011.140625 753.4375 1011.582031 C 758.957031 1011.703125 764.65625 1012.863281 770.058594 1010.5 C 781.074219 1007.445312 793.105469 1007.308594 803.394531 1003.445312 C 816.152344 998.652344 829.023438 1001.472656 841.6875 998.527344 C 851.449219 996.257812 861.632812 993.125 872.222656 994.128906 C 875.511719 994.441406 878.300781 991.558594 880.0625 988.457031 C 881.664062 987.894531 883.265625 987.339844 884.917969 988.289062 C 888.015625 993.941406 893.59375 992.222656 897.765625 991.503906 C 913.0625 988.875 928.082031 984.65625 943.785156 984.554688 C 946.074219 984.542969 949.183594 983.628906 948.921875 980.199219 C 948.710938 977.398438 946.554688 975.417969 944.003906 975.09375 Z M 604.125 993.34375 C 608.429688 992.453125 612.917969 991.902344 617.382812 991.3125 C 612.996094 992.164062 608.558594 992.757812 604.125 993.34375 Z M 576.730469 1002.367188 C 578.367188 1002.101562 579.992188 1001.78125 581.605469 1001.386719 C 580.027344 1002.015625 578.417969 1002.398438 576.730469 1002.367188 Z M 635.699219 988.011719 C 635.703125 988.03125 635.703125 988.046875 635.703125 988.066406 C 635.691406 988.050781 635.683594 988.035156 635.671875 988.019531 C 635.679688 988.015625 635.691406 988.015625 635.699219 988.011719 Z M 454.269531 1035.890625 C 454.277344 1035.890625 454.285156 1035.890625 454.296875 1035.894531 C 454.289062 1035.902344 454.277344 1035.914062 454.273438 1035.921875 C 454.273438 1035.914062 454.269531 1035.902344 454.269531 1035.890625 Z M 461.222656 1040.839844 C 461.367188 1040.894531 461.511719 1040.957031 461.65625 1041.019531 C 461.578125 1041.039062 461.5 1041.070312 461.425781 1041.097656 C 461.351562 1041.015625 461.296875 1040.917969 461.222656 1040.839844 Z M 481.636719 1032.265625 C 481.636719 1032.265625 481.640625 1032.265625 481.640625 1032.265625 C 481.636719 1032.265625 481.636719 1032.265625 481.636719 1032.265625 C 481.589844 1032.242188 481.558594 1032.246094 481.515625 1032.222656 C 481.550781 1032.1875 481.585938 1032.152344 481.625 1032.117188 C 481.628906 1032.167969 481.632812 1032.214844 481.636719 1032.265625 Z M 473.203125 1054.378906 C 473.207031 1054.378906 473.207031 1054.378906 473.210938 1054.378906 C 473.195312 1054.394531 473.175781 1054.398438 473.164062 1054.414062 C 473.175781 1054.402344 473.191406 1054.390625 473.203125 1054.378906 Z M 491.898438 1022.128906 C 491.828125 1022.125 491.757812 1022.136719 491.6875 1022.128906 C 491.6875 1022.128906 491.765625 1022.195312 491.769531 1022.195312 C 491.742188 1022.207031 491.730469 1022.222656 491.703125 1022.234375 C 491.699219 1022.199219 491.691406 1022.164062 491.6875 1022.128906 C 491.699219 1021.964844 491.695312 1021.796875 491.703125 1021.628906 C 491.746094 1021.804688 491.8125 1021.96875 491.898438 1022.128906 Z M 491.898438 1022.128906 " fill-opacity="1" fill-rule="nonzero"/><path fill="#d6abc3" d="M 964.988281 976.207031 C 961.386719 973.550781 956.9375 973.90625 952.96875 975.851562 C 950.960938 976.839844 950.679688 978.96875 951.777344 980.992188 C 954.296875 985.640625 958.753906 984.992188 963.9375 984.972656 C 966.226562 984.15625 971.410156 986.734375 972.308594 981.804688 C 973.117188 977.375 967.507812 978.066406 964.988281 976.207031 Z M 964.988281 976.207031 " fill-opacity="1" fill-rule="nonzero"/><g clip-path="url(#ceb15e3248)"><path fill="#d6abc3" d="M 34.183594 817.132812 C 31.027344 815.800781 28.445312 813.800781 26.195312 811.171875 C 25.542969 810.410156 23.5625 810.417969 22.296875 810.652344 C 21.121094 810.867188 20.410156 812.46875 21.386719 813.234375 C 24.035156 815.308594 22.714844 820.210938 27.046875 820.9375 C 28.527344 823.125 30.554688 824.320312 33.222656 824.414062 C 36.070312 824.507812 39.230469 824.507812 39.730469 820.996094 C 40.324219 816.8125 36.957031 817.128906 34.183594 817.132812 Z M 34.183594 817.132812 " fill-opacity="1" fill-rule="nonzero"/></g><g clip-path="url(#953adecbbc)"><path fill="#d6abc3" d="M 1482.804688 753.171875 C 1477.140625 748.699219 1470.566406 751.945312 1464.476562 751.054688 C 1461.796875 750.664062 1458.257812 752.230469 1456.609375 749.546875 C 1450.679688 739.894531 1439.046875 737.152344 1432.152344 728.785156 C 1441.484375 722.085938 1441.484375 722.082031 1431.367188 715.445312 C 1430.664062 714.984375 1429.832031 714.703125 1429.191406 714.179688 C 1421.316406 707.730469 1422.3125 703.957031 1430.824219 698.074219 C 1435.675781 694.722656 1442.371094 697.316406 1445.960938 691.9375 C 1448.632812 692.582031 1451.167969 692.042969 1453.011719 690.125 C 1457.621094 685.339844 1462.28125 680.765625 1470.511719 680.847656 C 1466.304688 674.835938 1460.339844 674.0625 1455.746094 671.25 C 1453.171875 669.675781 1450.199219 668.53125 1451.976562 665.101562 C 1455.085938 659.105469 1450.851562 655.980469 1447.410156 652.992188 C 1442.925781 649.097656 1438.710938 645.007812 1434.878906 640.503906 C 1426.53125 630.699219 1409.910156 627.800781 1398.554688 634.199219 C 1391.5625 635.632812 1389.011719 627.996094 1389.894531 625.941406 C 1393.582031 617.328125 1386.980469 613.554688 1383.554688 608.207031 C 1383.265625 608.515625 1382.976562 608.824219 1382.691406 609.136719 C 1382.671875 609.109375 1382.644531 609.089844 1382.625 609.066406 C 1382.644531 609.074219 1382.667969 609.085938 1382.691406 609.09375 C 1382.980469 608.792969 1383.265625 608.5 1383.554688 608.203125 C 1381.632812 602.285156 1376.1875 599.417969 1371.335938 599.066406 C 1351.464844 597.621094 1336.441406 582.125 1316.628906 580.902344 C 1315.234375 580.816406 1313.8125 579.140625 1312.636719 577.972656 C 1307.25 572.628906 1305.082031 574.429688 1305.0625 581.277344 C 1304.136719 582.039062 1303.207031 582.800781 1302.28125 583.5625 C 1297.792969 583.75 1292.804688 578.722656 1288.992188 583.6875 C 1286.585938 586.824219 1283.398438 587.890625 1280.382812 589.519531 C 1280.136719 589.589844 1279.886719 589.707031 1279.628906 589.929688 C 1270.527344 594.96875 1263.226562 587.238281 1254.941406 586.441406 C 1247.550781 585.734375 1243.660156 577.960938 1237.011719 576.765625 C 1230.984375 575.683594 1225.574219 574.085938 1220.804688 570.460938 C 1217.292969 567.792969 1213.917969 567.125 1209.894531 569.339844 C 1203.035156 573.109375 1194.664062 573.074219 1188.65625 570.445312 C 1181.496094 567.3125 1179.121094 570.195312 1175.796875 574.589844 C 1174.890625 575.785156 1174.535156 578.007812 1172.136719 577.050781 C 1170.082031 571.6875 1170.746094 569.417969 1177.308594 566.878906 C 1185.054688 563.878906 1193.132812 566.917969 1200.296875 563.175781 C 1200.296875 563.175781 1200.296875 563.171875 1200.296875 563.171875 C 1202.820312 560.882812 1206.011719 561.441406 1209.015625 560.972656 C 1216.960938 559.738281 1224.882812 558.324219 1232.804688 556.9375 C 1234.347656 556.800781 1235.882812 556.558594 1237.414062 556.128906 C 1246.527344 554.023438 1255.796875 554.484375 1265.039062 554.25 C 1269.972656 554.125 1275.152344 555.796875 1279.839844 552.859375 C 1280.917969 552.226562 1281.996094 551.589844 1283.074219 550.953125 C 1285.800781 551.488281 1288.542969 551.9375 1291.242188 552.582031 C 1293.980469 553.234375 1297.804688 552.589844 1297.578125 550.363281 C 1296.886719 543.578125 1302.058594 544.464844 1305.550781 542.996094 C 1305.296875 542.683594 1305.039062 542.371094 1304.785156 542.058594 C 1304.800781 542.039062 1304.816406 542.027344 1304.832031 542.007812 C 1305.074219 542.335938 1305.3125 542.667969 1305.554688 543 C 1323.1875 538.164062 1340.964844 534.203125 1359.363281 533.871094 C 1359.363281 533.871094 1359.363281 533.867188 1359.363281 533.867188 C 1369.710938 535.433594 1379.914062 531.707031 1390.308594 533.128906 C 1396.113281 533.925781 1402.039062 533.910156 1407.914062 534.054688 C 1410.160156 534.109375 1412.867188 533.730469 1412.980469 530.824219 C 1413.097656 527.835938 1410.398438 527.53125 1408.136719 527.363281 C 1403.949219 527.054688 1399.324219 527.957031 1395.617188 526.488281 C 1377.878906 519.453125 1358.726562 521.558594 1340.53125 517.445312 C 1334.171875 516.007812 1326.976562 518.234375 1321.851562 512.28125 C 1318.917969 511.515625 1315.632812 511.347656 1313.117188 509.867188 C 1306.4375 505.933594 1299.527344 503.84375 1291.773438 505.046875 C 1290.089844 502.960938 1287.957031 501.699219 1285.226562 501.773438 C 1277.875 501.980469 1271.53125 497.839844 1264.425781 497.011719 C 1255.09375 492 1244.277344 494.90625 1234.511719 491.160156 C 1227.0625 488.300781 1218.613281 488.257812 1210.746094 486.753906 C 1200.363281 484.769531 1190.621094 480.394531 1180.492188 487.234375 C 1179.007812 488.238281 1176.605469 487.382812 1174.644531 487.546875 C 1167.585938 488.132812 1160.382812 484.976562 1153.921875 486.03125 C 1144.304688 487.601562 1134.839844 487.058594 1125.316406 487.507812 C 1122.246094 487.652344 1119.199219 487.226562 1116.617188 489.730469 C 1110.191406 495.960938 1101.484375 495.613281 1093.515625 497.386719 C 1092.445312 496.976562 1091.347656 496.679688 1090.242188 496.414062 C 1088.675781 495.269531 1086.8125 495.136719 1084.902344 495.15625 C 1083.9375 494.882812 1082.984375 494.558594 1082.0625 494.132812 C 1081.25 493.785156 1080.40625 493.582031 1079.527344 493.535156 C 1078.921875 493.617188 1078.316406 493.671875 1077.710938 493.726562 C 1069.566406 491.433594 1060.953125 493.132812 1052.703125 491.746094 C 1051.988281 492.421875 1051.226562 492.828125 1050.4375 493.082031 C 1049.613281 493.167969 1048.789062 493.292969 1047.964844 493.441406 C 1046.179688 493.472656 1044.339844 493.1875 1042.605469 493.507812 C 1033.03125 494.332031 1023.226562 491.433594 1013.839844 495.273438 C 1013.839844 495.269531 1013.84375 495.265625 1013.847656 495.261719 C 1009.265625 496.261719 1004.679688 497.265625 1000.097656 498.265625 C 1004.886719 498.242188 1010.226562 500.746094 1013.832031 495.285156 C 1014.824219 495.371094 1015.816406 495.460938 1016.8125 495.546875 C 1016.910156 496.003906 1016.949219 496.46875 1016.929688 496.9375 C 1016.933594 496.9375 1016.933594 496.9375 1016.933594 496.9375 C 1016.929688 496.9375 1016.929688 496.9375 1016.929688 496.9375 C 1013.789062 499.691406 1010.125 500.441406 1005.988281 500.410156 C 992.902344 500.320312 979.683594 499.46875 966.777344 501.039062 C 961.070312 501.734375 954.421875 498.597656 949.320312 503.613281 C 948.160156 502.570312 946.726562 502.328125 945.421875 502.945312 C 939.679688 505.644531 934.148438 505.015625 928.675781 502.839844 C 928.773438 502.78125 928.875 502.722656 928.972656 502.667969 C 928.542969 502.609375 928.117188 502.523438 927.6875 502.421875 C 927.394531 502.296875 927.101562 502.1875 926.808594 502.050781 C 926.457031 501.96875 926.101562 501.933594 925.75 501.867188 C 921.191406 500.347656 916.644531 497.808594 911.996094 502.425781 C 912.1875 502.550781 912.378906 502.679688 912.570312 502.808594 C 909.054688 504.183594 905.632812 505.828125 901.832031 506.355469 C 900.21875 506.511719 898.601562 506.648438 896.996094 506.902344 C 896.203125 507.039062 895.417969 507.214844 894.65625 507.476562 C 886.660156 511.679688 878.671875 508.34375 870.6875 507.5 C 870.621094 507.515625 870.554688 507.519531 870.488281 507.535156 C 870.757812 507.3125 871.03125 507.089844 871.300781 506.867188 C 871.335938 506.417969 871.394531 505.972656 871.476562 505.53125 C 870.078125 505.363281 868.761719 505.054688 868.007812 503.769531 C 868.617188 503.664062 869.226562 503.578125 869.820312 503.390625 C 876.398438 500.542969 883.167969 501.660156 889.917969 502.332031 C 893.027344 502.28125 895.933594 501.289062 898.847656 500.363281 C 901.761719 499.285156 904.464844 497.742188 907.273438 496.441406 C 923.6875 494.949219 940.617188 497.558594 956.363281 490.546875 C 956.378906 490.710938 956.355469 490.855469 956.425781 491.050781 C 956.914062 491.199219 957.382812 491.382812 957.839844 491.605469 C 960.59375 490.542969 963.929688 492.949219 966.390625 490.171875 C 966.394531 490.171875 966.394531 490.171875 966.394531 490.167969 C 966.394531 490.167969 966.367188 490.195312 966.367188 490.195312 C 966.546875 490.070312 966.734375 489.949219 966.917969 489.828125 C 971.152344 491.402344 975.457031 489.734375 978.59375 487.921875 C 983.097656 485.324219 986.410156 485.75 990.261719 488.140625 C 993.355469 488.714844 996.085938 488.367188 999.011719 486.664062 C 1005.402344 482.945312 1014.054688 480.453125 1019.667969 482.632812 C 1029.351562 486.390625 1037.21875 480.847656 1045.886719 481.519531 C 1046.273438 480.886719 1046.304688 480.3125 1046.03125 479.789062 C 1048.140625 479.367188 1050.242188 478.851562 1052.371094 478.570312 C 1055.125 478.210938 1058.582031 478.433594 1059.152344 475.050781 C 1059.6875 471.875 1056.078125 470.953125 1054.035156 470.453125 C 1041.277344 467.347656 1029.339844 459.851562 1015.390625 462.890625 C 1007.921875 468.1875 1000.667969 472.125 994.386719 461.175781 C 992.644531 458.136719 989.625 457.644531 986.449219 459.417969 C 982.6875 464.289062 974.925781 461.664062 971.472656 467.429688 C 970.929688 468.339844 968.476562 467.675781 968.132812 466.078125 C 966.988281 460.792969 962.949219 461.476562 959.445312 461.96875 C 947.628906 463.632812 935.789062 462.320312 923.964844 462.570312 C 917.757812 462.699219 911.542969 462.457031 905.648438 464.917969 C 905.582031 464.929688 905.515625 464.9375 905.445312 464.953125 C 905.464844 464.882812 905.5 464.835938 905.515625 464.761719 C 904.765625 463.839844 903.871094 463.664062 902.828125 464.242188 C 891.039062 464.371094 879.023438 462.394531 867.523438 465.183594 C 856.726562 467.804688 845.753906 469.691406 834.898438 470.476562 C 823.183594 471.324219 811.554688 473.421875 800.160156 475.160156 C 783.652344 477.675781 766.914062 479.9375 750.566406 484.234375 C 731.941406 489.128906 712.511719 489.550781 693.402344 491.683594 C 693.113281 492.269531 693.070312 492.792969 693.230469 493.269531 C 688.421875 498.078125 682.027344 495.496094 676.472656 496.8125 C 669.691406 500.722656 660.710938 497.78125 654.621094 503.839844 C 651.347656 507.140625 649.875 511.855469 645.335938 514.273438 C 638.625 517.855469 636.632812 517.25 635.335938 509.914062 C 635.136719 508.777344 634.875 507.792969 634.167969 506.914062 C 631.890625 506.894531 629.609375 506.875 627.328125 506.855469 C 622.574219 505.722656 618.179688 507.207031 613.789062 508.71875 C 613.765625 508.125 613.746094 507.53125 613.722656 506.9375 C 606.105469 506.246094 598.921875 510.160156 591.796875 510.136719 C 577.507812 510.09375 568.417969 515.222656 564.867188 529.269531 C 568.484375 529.257812 569.398438 526.773438 569.761719 523.851562 C 570.042969 521.609375 570.347656 519.433594 573.078125 518.835938 C 568.996094 532.492188 575.914062 540.980469 586.628906 547.683594 C 586.667969 548.246094 586.671875 548.808594 586.644531 549.371094 C 586.921875 549.667969 587.199219 549.96875 587.480469 550.261719 C 589.765625 551.171875 592.199219 551.625 594.546875 552.335938 C 591.742188 552.03125 589.042969 552.128906 586.460938 552.695312 C 586.753906 551.980469 586.832031 550.933594 586.601562 549.402344 L 586.644531 549.371094 C 585.613281 549.25 584.585938 549.128906 583.554688 549.011719 C 582.878906 550.230469 582.207031 551.449219 581.53125 552.667969 C 582.269531 553.074219 582.921875 553.351562 583.519531 553.542969 C 581.085938 554.460938 578.773438 555.84375 576.59375 557.753906 C 573.839844 557.785156 571.199219 558.035156 569.855469 560.898438 C 569.347656 560.542969 568.847656 560.167969 568.339844 559.820312 C 565.863281 558.949219 563.378906 559.074219 560.878906 559.796875 C 548.816406 563.285156 537.640625 569.257812 525.585938 572.664062 C 519.144531 574.484375 513.453125 579.867188 507.113281 579.308594 C 501.5625 578.820312 496.996094 578.722656 491.4375 580.378906 C 487.5625 581.53125 483.585938 582.328125 479.574219 583.011719 C 480.386719 582.328125 481.175781 581.535156 481.929688 580.546875 C 481.664062 580.136719 481.402344 579.726562 481.136719 579.316406 C 476.785156 580.085938 472.4375 580.855469 468.085938 581.625 C 468.042969 582.148438 468.015625 582.667969 467.996094 583.191406 C 468.835938 583.738281 469.648438 584.136719 470.449219 584.464844 C 458.789062 586.304688 447.257812 588.601562 437.484375 596.953125 C 434.992188 599.085938 430.910156 597.535156 427.566406 597.660156 C 422.859375 597.839844 418.257812 598.390625 413.730469 599.253906 C 414.015625 598.601562 414.1875 597.851562 414.144531 597.054688 C 412.949219 597.003906 411.753906 596.953125 410.558594 596.90625 C 404.625 600.460938 396.414062 596.910156 391.320312 603.074219 C 391.316406 603.074219 391.316406 603.074219 391.316406 603.070312 C 379.734375 605.363281 369.652344 613.105469 358.46875 614.644531 C 346.953125 616.230469 337.273438 620.738281 327.199219 625.25 C 327.199219 625.246094 327.199219 625.246094 327.195312 625.246094 C 322.382812 630.53125 315.460938 627.746094 309.929688 629.722656 C 284.847656 638.691406 259.226562 646.398438 235.890625 659.691406 C 235.890625 659.691406 235.890625 659.691406 235.890625 659.695312 C 235.890625 659.691406 235.890625 659.691406 235.890625 659.691406 C 226.9375 659.476562 219.023438 662.324219 212 667.796875 C 213.140625 667.84375 214.28125 667.886719 215.421875 667.933594 C 211.6875 673.335938 206.664062 678.601562 213.554688 685.15625 C 214.503906 689.285156 214.355469 689.523438 208.722656 692.839844 C 208.574219 693.128906 208.457031 693.433594 208.324219 693.730469 C 201.707031 698.09375 197.246094 691.480469 191.757812 690.105469 C 191.234375 690.003906 190.707031 689.957031 190.171875 689.96875 C 189.078125 688.585938 187.554688 687.4375 185.949219 687.980469 C 185.359375 688.179688 185.304688 689.964844 185.09375 691.277344 C 184.929688 691.304688 184.769531 691.289062 184.605469 691.34375 C 184.597656 691.347656 184.585938 691.355469 184.578125 691.363281 C 184.359375 691.226562 184.132812 691.167969 183.894531 691.160156 C 185.632812 688.152344 185.144531 684.667969 185.308594 681.328125 C 184.59375 680.867188 183.851562 680.8125 183.082031 681.160156 C 175.082031 684.539062 167.089844 687.917969 159.09375 691.300781 C 159.09375 691.300781 159.089844 691.300781 159.089844 691.300781 C 148.578125 696.847656 137.84375 702.039062 129.101562 710.367188 C 122.207031 713.1875 121.578125 723.191406 112.761719 724.488281 C 120.296875 723.847656 127.117188 721.203125 134.113281 719.660156 C 134.242188 719.65625 134.371094 719.648438 134.5 719.648438 C 134.691406 719.628906 134.816406 719.523438 134.984375 719.46875 C 136.378906 719.183594 137.777344 718.929688 139.195312 718.765625 C 142.339844 716.335938 146.503906 717.710938 149.8125 715.910156 C 149.535156 715.566406 149.253906 715.226562 148.976562 714.886719 C 148.984375 714.878906 148.996094 714.871094 149.003906 714.863281 C 149.003906 714.863281 149 714.867188 149 714.871094 C 149.273438 715.21875 149.542969 715.5625 149.8125 715.910156 C 151.019531 716.390625 150.875 717.347656 150.664062 718.324219 C 150.664062 718.324219 150.667969 718.324219 150.667969 718.328125 C 150.667969 718.328125 150.664062 718.324219 150.664062 718.324219 C 148.050781 720.230469 145.433594 722.132812 142.8125 724.035156 C 139.464844 723.941406 135.125 722.414062 133.023438 724.929688 C 127.210938 731.882812 119.429688 733.933594 111.289062 735.878906 C 105.253906 737.324219 102.191406 743.871094 97.152344 745.945312 C 75.472656 754.878906 61.304688 775.101562 39.402344 783.4375 C 36.394531 785.445312 33.335938 787.386719 30.382812 789.472656 C 24.945312 793.316406 24.664062 804.183594 30.527344 806.363281 C 36.558594 808.601562 42.558594 814.472656 50.035156 808.996094 C 51.535156 807.894531 54.476562 808.160156 56.589844 808.585938 C 67.683594 810.824219 77.375 807.472656 86.523438 801.597656 C 94.855469 797.710938 103.128906 793.707031 111.523438 789.96875 C 128.160156 782.554688 145.769531 778.105469 163.757812 776.800781 C 176.675781 775.863281 189.472656 774.980469 202.78125 772.652344 C 195.382812 777.859375 190.511719 785.335938 184.472656 791.792969 C 179.164062 797.472656 171.398438 799.5 166.46875 805.417969 C 165.414062 806.671875 163.003906 806.253906 162.707031 808.453125 C 157.054688 815.75 154.03125 825.054688 145.878906 830.4375 C 144.84375 830.558594 143.808594 830.679688 142.773438 830.804688 C 135.113281 835.285156 135.40625 844.355469 131.246094 850.890625 C 125.070312 860.589844 123.332031 873.539062 110.640625 878.339844 C 107.136719 882.65625 102.140625 885.292969 98.601562 889.757812 C 94.457031 894.980469 95.914062 898.191406 100.554688 901.371094 C 108.164062 906.585938 108.179688 906.585938 99.628906 910.808594 C 97.886719 911.667969 96.078125 912.390625 94.304688 913.175781 C 94.300781 913.175781 94.300781 913.175781 94.300781 913.179688 C 86.265625 916.125 80.800781 921.808594 78.453125 929.863281 C 76.96875 934.953125 75.421875 940.03125 74.660156 945.488281 C 73.421875 954.382812 79.765625 972.175781 88.0625 976.675781 C 88.0625 976.675781 88.066406 976.675781 88.066406 976.675781 C 89.878906 978.984375 91.847656 981.082031 94.824219 981.867188 C 94.828125 981.871094 94.828125 981.871094 94.828125 981.871094 C 100.527344 985.863281 103.171875 980.007812 107.035156 978.082031 C 115.8125 974.992188 125.78125 974.628906 132.5 966.832031 C 134.3125 964.730469 136.917969 964.859375 139.476562 964.542969 C 156.597656 962.421875 173.902344 961.425781 190.558594 956.394531 C 194.421875 952.605469 200.011719 958.949219 203.070312 954.839844 C 206.125 950.742188 206.988281 953.207031 208.808594 955.375 C 210.09375 956.902344 211.8125 957.953125 214.007812 957.601562 C 214.007812 957.601562 214.007812 957.601562 214.011719 957.601562 C 218.921875 960.894531 224.253906 967.578125 229.910156 960.949219 C 238.328125 951.09375 249.71875 953.601562 259.160156 954.054688 C 269.324219 954.539062 280.601562 957.574219 288.308594 966.378906 C 297.105469 968.738281 305.65625 971.699219 315.101562 971.480469 C 323.851562 971.28125 332.269531 968.921875 340.710938 968.410156 C 351.738281 967.746094 362.113281 964.761719 372.800781 963.023438 C 374.5 962.746094 375.839844 961.628906 376.929688 963.871094 C 377.929688 965.929688 377.621094 967.296875 375.878906 969.003906 C 371.441406 973.34375 366.324219 976.597656 360.921875 979.5 C 358.238281 982.015625 355.042969 985.113281 356.960938 988.664062 C 358.839844 992.144531 362.398438 988.785156 365.234375 988.496094 C 371.34375 987.871094 377.425781 987.863281 383.328125 989.9375 C 389.03125 990.480469 394.921875 990.65625 396.179688 998.222656 C 396.359375 999.304688 397.675781 999.679688 398.878906 999.417969 C 399.234375 999.769531 399.660156 999.914062 400.152344 999.851562 C 407.21875 1000.039062 413.082031 996.640625 419.039062 993.519531 C 420.097656 993.4375 421.15625 993.355469 422.214844 993.273438 C 425.335938 993.792969 427.101562 990.886719 429.773438 990.273438 C 429.777344 990.269531 429.78125 990.273438 429.785156 990.269531 C 439.488281 985.929688 449.5625 983.109375 460.238281 982.476562 C 461.40625 982.410156 462.492188 980.949219 463.617188 980.136719 C 467.601562 980.84375 469 978.53125 469.882812 975.152344 C 470.457031 972.964844 471.988281 970.453125 474.566406 971.582031 C 482.355469 974.992188 488.386719 969.632812 495.167969 968.054688 C 504.730469 967.828125 513.6875 965.277344 522.21875 961.058594 C 531.238281 959.570312 540.449219 958.777344 549.210938 956.351562 C 554.96875 954.753906 561.074219 958.472656 566.316406 954.378906 C 574.667969 954.683594 580.390625 947.894531 588.210938 946.414062 C 601.535156 943.890625 615.351562 943.480469 627.941406 937.519531 C 631.179688 935.984375 634.703125 934.246094 638.160156 934.09375 C 658.539062 933.1875 678.410156 928.929688 698.433594 925.648438 C 702.554688 926.792969 706.203125 925.859375 709.429688 923.113281 C 713.832031 919.367188 719.066406 919.367188 724.5 919.304688 C 739.996094 919.128906 755.675781 921.828125 770.90625 916.53125 C 772.183594 916.085938 774.027344 917.269531 775.605469 917.695312 C 786.46875 920.640625 797.105469 919.9375 807.511719 915.683594 C 807.515625 915.683594 807.515625 915.683594 807.519531 915.683594 C 816.71875 915.917969 826.015625 916.980469 834.503906 911.902344 C 837.570312 910.066406 840.871094 910.902344 844.277344 911.109375 C 856.714844 911.859375 869.195312 913.570312 881.503906 909.273438 C 885.855469 907.753906 890.574219 907.210938 895.558594 908.433594 C 900.625 909.679688 905.695312 909 911.042969 906.855469 C 927.25 900.355469 944.277344 901.273438 961.246094 903.433594 C 961.984375 906.054688 964.007812 906.855469 966.417969 906.925781 C 983.148438 907.414062 999.773438 907.820312 1016.550781 909.703125 C 1036.574219 911.953125 1057.34375 909.347656 1077.339844 912.496094 C 1093.46875 915.035156 1109.574219 912.597656 1125.894531 916.296875 C 1141.003906 919.71875 1157.46875 918.214844 1173.3125 920.296875 C 1183.304688 921.613281 1193.613281 920.539062 1203.78125 920.558594 C 1223.703125 920.589844 1243.585938 919.980469 1263.410156 923.621094 C 1273.359375 925.445312 1283.789062 923.085938 1294.777344 925.820312 C 1293.183594 921.464844 1291.398438 919.539062 1288.710938 918.417969 C 1288.707031 918.417969 1288.707031 918.421875 1288.707031 918.421875 C 1277.230469 912.914062 1264.074219 914.789062 1252.410156 910.152344 C 1247.46875 908.191406 1242.289062 904.855469 1237.203125 907.605469 C 1233.363281 909.679688 1230.972656 908.296875 1228.046875 906.886719 C 1224.527344 905.191406 1221.210938 902.613281 1217.515625 901.867188 C 1211.167969 900.585938 1205.144531 895.378906 1198.636719 898.164062 C 1195.257812 899.609375 1192.773438 898.449219 1189.890625 898.542969 C 1189.886719 898.546875 1189.890625 898.546875 1189.886719 898.550781 C 1178.609375 896.566406 1167.675781 892.238281 1155.910156 893.507812 C 1152.972656 891.492188 1149.332031 890.246094 1146.335938 891.683594 C 1139.878906 894.785156 1135.367188 891.757812 1130.722656 888.167969 C 1123.6875 882.003906 1115.714844 884.023438 1108.230469 886.378906 C 1102.980469 888.027344 1100.546875 887.382812 1100.238281 881.738281 C 1112.15625 880.171875 1123.96875 877.703125 1136.078125 877.777344 C 1137.070312 877.78125 1138.070312 876.878906 1139.066406 876.398438 C 1150.601562 878.082031 1161.9375 873.820312 1173.464844 875.246094 C 1173.464844 875.246094 1173.464844 875.246094 1173.464844 875.242188 C 1176.488281 874.113281 1177.910156 871.753906 1179.332031 868.136719 C 1175.476562 868.136719 1172.476562 868.136719 1169.476562 868.136719 C 1168.492188 868.171875 1167.511719 868.203125 1166.523438 868.238281 C 1166.523438 868.238281 1166.527344 868.238281 1166.527344 868.238281 C 1164.867188 869.140625 1163.207031 870.042969 1161.546875 870.949219 C 1161.546875 870.945312 1161.546875 870.945312 1161.550781 870.945312 C 1159.558594 870.085938 1157.566406 869.226562 1155.574219 868.363281 C 1167.117188 866.492188 1176.667969 858.984375 1188.257812 859.402344 C 1191.085938 857.957031 1193.917969 856.511719 1196.746094 855.066406 C 1203.003906 853.074219 1208.847656 859.363281 1215.175781 855.984375 C 1215.195312 855.449219 1215.390625 854.984375 1215.761719 854.597656 C 1220.085938 853.554688 1225.511719 857.257812 1228.753906 851.574219 C 1223.957031 848.953125 1218.972656 850.214844 1214.015625 850.847656 C 1214.011719 850.847656 1214.011719 850.847656 1214.011719 850.847656 C 1214.023438 850.796875 1214.039062 850.773438 1214.050781 850.714844 C 1214.132812 850.25 1213.898438 849.84375 1213.347656 849.488281 C 1212.324219 848.90625 1211.300781 848.324219 1210.277344 847.742188 C 1206.300781 844.898438 1202.339844 844.828125 1198.398438 847.808594 C 1197.832031 848.3125 1197.261719 848.816406 1196.695312 849.320312 C 1193.203125 849.367188 1189.710938 849.414062 1186.214844 849.464844 C 1186.21875 849.464844 1186.21875 849.464844 1186.21875 849.464844 C 1186.21875 849.464844 1186.214844 849.464844 1186.214844 849.464844 C 1185.710938 849.140625 1185.203125 848.820312 1184.695312 848.496094 C 1178.972656 844.542969 1171.710938 848.242188 1165.894531 844.730469 C 1164.113281 843.75 1162.292969 842.929688 1160.183594 843.058594 C 1157.269531 843.636719 1154.363281 844.1875 1151.445312 843.136719 C 1150.335938 842.863281 1149.214844 842.730469 1148.070312 842.851562 C 1147.308594 843 1146.605469 843.285156 1145.96875 843.726562 C 1145.90625 843.726562 1145.847656 843.785156 1145.789062 843.882812 C 1141.816406 843.386719 1137.707031 844.398438 1133.832031 842.8125 C 1132.886719 842.355469 1131.925781 841.929688 1130.945312 841.550781 C 1130.96875 841.1875 1130.882812 840.820312 1130.683594 840.445312 C 1130.097656 839.933594 1129.453125 839.546875 1128.707031 839.285156 C 1128.644531 839.265625 1128.582031 839.25 1128.519531 839.234375 C 1128.125 837.84375 1128.207031 836.808594 1128.636719 836.035156 C 1129.550781 835.375 1130.535156 834.839844 1131.535156 834.332031 C 1132.277344 834.195312 1133.101562 834.113281 1134.035156 834.121094 C 1134.039062 834 1134.042969 833.882812 1134.046875 833.761719 C 1134.28125 833.914062 1134.519531 834.058594 1134.753906 834.222656 C 1138.890625 836.507812 1143.4375 836.484375 1147.929688 836.289062 C 1153.082031 836.0625 1158.496094 836.316406 1162.816406 838.523438 C 1169.113281 841.742188 1174.453125 842.859375 1180.808594 838.917969 C 1183.59375 837.191406 1187.789062 837.335938 1190.496094 839.554688 C 1194.390625 842.742188 1198.613281 842.355469 1202.460938 841.035156 C 1208.304688 839.03125 1213.308594 840.253906 1218.542969 842.691406 C 1222.902344 844.722656 1227.988281 846.628906 1232.292969 844.246094 C 1233.542969 843.554688 1234.734375 843.140625 1235.898438 842.898438 C 1235.195312 843.5625 1234.492188 844.417969 1233.796875 845.640625 C 1234.035156 845.925781 1234.269531 846.210938 1234.503906 846.496094 C 1236.5625 846.394531 1238.621094 846.292969 1240.683594 846.191406 C 1240.683594 846.191406 1240.683594 846.191406 1240.683594 846.195312 C 1240.699219 847.667969 1240.714844 849.136719 1240.734375 850.609375 C 1239.542969 851.101562 1237.328125 851.164062 1237.898438 852.839844 C 1239.019531 856.140625 1242.035156 854.324219 1244.296875 854.492188 C 1244.296875 854.492188 1244.296875 854.492188 1244.300781 854.492188 C 1247.402344 855.042969 1251.027344 856.601562 1250.960938 851.039062 C 1250.984375 850.492188 1251.003906 849.945312 1251.011719 849.398438 C 1252.621094 849.429688 1254.226562 849.460938 1255.832031 849.496094 C 1255.628906 850.96875 1253.757812 852.523438 1255.730469 853.886719 C 1256.945312 854.726562 1258.46875 854.449219 1259.453125 853.304688 C 1261.25 851.210938 1258.183594 850.847656 1257.941406 849.445312 C 1257.941406 849.445312 1257.941406 849.445312 1257.941406 849.441406 C 1258.988281 849.382812 1260.03125 849.324219 1261.078125 849.261719 C 1263.980469 849.230469 1266.882812 849.199219 1269.78125 849.167969 C 1269.78125 849.164062 1269.78125 849.164062 1269.78125 849.160156 C 1269.78125 849.160156 1269.78125 849.164062 1269.785156 849.167969 C 1275.832031 849.015625 1281.660156 848.527344 1287.75 847.1875 C 1294.859375 845.617188 1302.417969 843.347656 1310.078125 844.347656 C 1311.917969 846.238281 1314.832031 846.804688 1316.164062 845.164062 C 1321.859375 838.15625 1329.53125 839.160156 1337.050781 839.136719 C 1339.386719 839.128906 1342.160156 838.566406 1343.113281 836.683594 C 1347.558594 827.914062 1359.878906 837.210938 1363.660156 827.464844 C 1372.265625 831.847656 1376.183594 824.5625 1381.34375 820.363281 C 1386.671875 815.425781 1394.960938 814.316406 1398.492188 807.066406 C 1408.410156 802.824219 1415.136719 793.488281 1425.578125 790.082031 C 1430.167969 791.601562 1433.789062 788.519531 1435.628906 785.800781 C 1440.324219 778.851562 1447.390625 776.207031 1454.371094 773.082031 C 1463.433594 766.597656 1472.464844 760.066406 1482.8125 755.679688 C 1482.808594 754.84375 1482.808594 754.007812 1482.804688 753.171875 Z M 1244.890625 845.132812 C 1244.59375 845.0625 1244.300781 844.996094 1244.007812 844.925781 C 1244.003906 844.925781 1244.003906 844.925781 1244 844.925781 C 1243.460938 844.269531 1242.921875 843.699219 1242.382812 843.21875 C 1243.007812 843.375 1243.632812 843.550781 1244.269531 843.746094 C 1245.105469 844.007812 1245.941406 844.261719 1246.777344 844.507812 C 1246.367188 844.554688 1245.957031 844.59375 1245.542969 844.691406 C 1245.289062 844.804688 1245.097656 844.972656 1244.890625 845.132812 Z M 1281.867188 590.550781 C 1281.863281 590.460938 1281.882812 590.382812 1281.875 590.289062 C 1281.933594 590.300781 1281.996094 590.308594 1282.054688 590.320312 C 1281.992188 590.394531 1281.929688 590.472656 1281.867188 590.550781 Z M 1261.199219 846.382812 C 1260.925781 846.457031 1260.65625 846.542969 1260.398438 846.640625 C 1260.296875 846.582031 1260.203125 846.507812 1260.097656 846.453125 C 1260.464844 846.429688 1260.828125 846.421875 1261.199219 846.382812 Z M 1439.296875 739.082031 C 1439.226562 739.089844 1439.15625 739.097656 1439.085938 739.105469 C 1439.105469 739.023438 1439.121094 738.9375 1439.136719 738.859375 C 1439.1875 738.9375 1439.246094 739 1439.296875 739.078125 C 1439.296875 739.082031 1439.296875 739.082031 1439.296875 739.082031 Z M 1285.652344 542.0625 C 1285.582031 542.027344 1285.507812 541.992188 1285.4375 541.953125 C 1285.925781 541.90625 1286.410156 541.847656 1286.902344 541.816406 C 1286.792969 541.867188 1286.683594 541.933594 1286.574219 541.988281 C 1286.265625 542.015625 1285.960938 542.039062 1285.652344 542.0625 Z M 1280.378906 543.832031 C 1280.375 543.558594 1280.550781 543.316406 1280.808594 543.105469 C 1280.660156 543.335938 1280.53125 543.617188 1280.378906 543.832031 Z M 1218.824219 556.222656 C 1218.992188 556.195312 1219.160156 556.164062 1219.328125 556.132812 C 1219.335938 556.164062 1219.339844 556.191406 1219.347656 556.222656 C 1219.171875 556.222656 1219 556.222656 1218.824219 556.222656 Z M 1028.050781 497.125 C 1027.914062 497.261719 1027.777344 497.394531 1027.644531 497.554688 C 1027.503906 497.359375 1027.351562 497.214844 1027.222656 497 C 1027.5 497.046875 1027.773438 497.082031 1028.050781 497.125 Z M 865.023438 507.566406 C 864.441406 507.410156 863.859375 507.203125 863.285156 506.914062 C 859.542969 505.027344 856.53125 505.453125 853.714844 509.042969 C 848.460938 515.746094 841.648438 516.074219 833.960938 513.511719 C 827.902344 511.488281 821.589844 511.117188 815.40625 513.46875 C 815.40625 513.378906 815.40625 513.285156 815.402344 513.195312 C 815.589844 513.125 815.777344 513.082031 815.957031 512.988281 C 832.390625 507.996094 848.824219 503.007812 866.300781 503.90625 C 865.257812 504.386719 864.496094 505.152344 864.695312 506.546875 C 864.757812 506.976562 864.878906 507.296875 865.023438 507.566406 Z M 634.09375 543.488281 C 635.351562 543.007812 636.5625 542.375 637.785156 541.785156 C 639.535156 541.390625 641.265625 541.171875 642.894531 541.816406 C 639.976562 542.445312 637.054688 543.054688 634.09375 543.488281 Z M 658.179688 544.097656 C 656.464844 544.5 654.757812 544.957031 653.050781 545.429688 C 654.414062 544.386719 656.355469 543.796875 658.179688 544.097656 Z M 801.917969 915.136719 C 801.910156 915.164062 801.902344 915.1875 801.894531 915.214844 C 801.8125 915.207031 801.726562 915.199219 801.644531 915.191406 C 801.734375 915.171875 801.828125 915.160156 801.917969 915.136719 Z M 427.6875 989.027344 C 427.609375 989.257812 427.535156 989.492188 427.460938 989.730469 C 427.195312 989.667969 426.929688 989.605469 426.667969 989.542969 C 426.957031 989.320312 427.308594 989.160156 427.6875 989.027344 Z M 396.792969 990.019531 C 396.890625 990.074219 396.992188 990.113281 397.089844 990.167969 C 397.058594 990.25 397.015625 990.335938 396.984375 990.417969 C 396.921875 990.285156 396.851562 990.152344 396.792969 990.019531 Z M 210.425781 952.699219 C 210.488281 952.691406 210.546875 952.6875 210.605469 952.683594 C 210.554688 952.789062 210.5 952.898438 210.460938 952.996094 C 210.453125 952.894531 210.421875 952.808594 210.425781 952.699219 Z M 181.800781 698.492188 C 181.738281 698.554688 181.671875 698.613281 181.609375 698.679688 C 181.613281 698.636719 181.617188 698.59375 181.617188 698.550781 C 181.632812 698.527344 181.652344 698.511719 181.667969 698.492188 C 181.710938 698.492188 181.753906 698.492188 181.800781 698.492188 Z M 161.675781 692.328125 C 161.667969 692.261719 161.640625 692.195312 161.628906 692.128906 C 161.679688 692.148438 161.730469 692.164062 161.78125 692.179688 C 161.742188 692.226562 161.714844 692.28125 161.675781 692.328125 Z M 154.304688 719.125 C 154.226562 719.214844 154.144531 719.296875 154.066406 719.382812 C 154.125 719.300781 154.183594 719.21875 154.246094 719.140625 C 154.265625 719.132812 154.285156 719.132812 154.304688 719.125 Z M 396.222656 604.167969 C 394.738281 604.710938 393.257812 605.28125 391.777344 605.878906 C 392 605.359375 392.140625 604.765625 392.175781 604.097656 C 392.191406 604.117188 392.210938 604.136719 392.226562 604.15625 C 393.578125 604.289062 394.90625 604.265625 396.222656 604.167969 Z M 212.4375 769.648438 C 212.8125 771.09375 211.742188 772.921875 210.652344 773.082031 C 211.113281 772.3125 211.273438 771.382812 210.78125 770.121094 C 210.191406 768.613281 209.285156 767.769531 208.242188 767.320312 C 208.328125 767.296875 208.421875 767.289062 208.507812 767.265625 C 209.871094 766.882812 211.957031 767.792969 212.4375 769.648438 Z M 183.707031 692.140625 C 183.652344 692.140625 183.597656 692.148438 183.542969 692.148438 C 183.621094 692.125 183.699219 692.105469 183.777344 692.082031 C 183.753906 692.101562 183.730469 692.121094 183.707031 692.140625 Z M 151.523438 719.242188 C 151.519531 719.246094 151.515625 719.25 151.511719 719.25 C 151.507812 719.246094 151.503906 719.242188 151.496094 719.234375 C 151.503906 719.238281 151.515625 719.238281 151.523438 719.242188 Z M 1159.21875 871.667969 C 1159.058594 871.59375 1158.898438 871.511719 1158.734375 871.4375 C 1158.902344 871.441406 1159.066406 871.449219 1159.234375 871.445312 C 1159.238281 871.535156 1159.21875 871.582031 1159.21875 871.667969 Z M 1176.578125 858.054688 C 1176.601562 858.015625 1176.636719 857.992188 1176.664062 857.953125 C 1176.683594 857.984375 1176.710938 858.019531 1176.734375 858.050781 C 1176.679688 858.054688 1176.628906 858.054688 1176.578125 858.054688 Z M 1176.578125 858.054688 " fill-opacity="1" fill-rule="nonzero"/></g><path fill="#d6abc3" d="M 318.632812 1027.199219 C 315.570312 1027.4375 313.511719 1029.320312 312.933594 1032.167969 C 312.566406 1033.992188 314.554688 1033.875 316.3125 1034.0625 C 318.554688 1033.203125 321.171875 1032.074219 321.632812 1029.035156 C 321.898438 1027.269531 319.960938 1027.097656 318.632812 1027.199219 Z M 318.632812 1027.199219 " fill-opacity="1" fill-rule="nonzero"/><path fill="#d6abc3" d="M 351.101562 1013.71875 C 349.324219 1014.808594 347.542969 1015.902344 345.765625 1016.996094 C 344.804688 1017.53125 343.835938 1018.21875 344.503906 1019.417969 C 345.632812 1021.449219 347.558594 1021.039062 349.394531 1020.6875 C 351.703125 1019.554688 354.007812 1018.425781 356.316406 1017.292969 C 359.492188 1015.65625 362.667969 1014.019531 367.195312 1011.6875 C 360.164062 1009.371094 355.765625 1012.417969 351.101562 1013.71875 Z M 351.101562 1013.71875 " fill-opacity="1" fill-rule="nonzero"/><path fill="#d6abc3" d="M 1189.910156 868.023438 C 1187.628906 868.308594 1183.582031 865.765625 1183.738281 870.039062 C 1183.84375 872.933594 1187.671875 871.253906 1189.898438 871.28125 C 1194.4375 871.300781 1198.976562 871.316406 1203.511719 871.335938 C 1205.519531 871 1208.027344 872.40625 1209.460938 869.65625 C 1208.023438 866.910156 1205.519531 868.3125 1203.507812 867.984375 C 1203.507812 867.984375 1203.507812 867.984375 1203.507812 867.988281 L 1203.507812 867.984375 C 1198.976562 868 1194.441406 868.011719 1189.910156 868.023438 Z M 1189.910156 868.023438 " fill-opacity="1" fill-rule="nonzero"/><path fill="#d6abc3" d="M 1311.972656 922.203125 C 1309.734375 922.1875 1307.5 922.171875 1305.265625 922.15625 C 1303.054688 922.242188 1299.34375 920.738281 1299.339844 923.886719 C 1299.339844 927.03125 1303.035156 925.570312 1305.253906 925.609375 C 1307.492188 925.597656 1309.734375 925.585938 1311.976562 925.574219 C 1316.140625 925.238281 1320.511719 926.441406 1326.203125 923.886719 C 1320.507812 921.332031 1316.136719 922.539062 1311.972656 922.203125 Z M 1311.972656 922.203125 " fill-opacity="1" fill-rule="nonzero"/><path fill="#d6abc3" d="M 382.15625 1002.367188 C 380.527344 1001.859375 378.691406 1002 378.378906 1004.179688 C 378.082031 1006.226562 379.660156 1007.078125 381.371094 1007.273438 C 383.199219 1007.476562 385.210938 1007.734375 386.292969 1005.585938 C 386.101562 1002.914062 383.828125 1002.890625 382.15625 1002.367188 Z M 382.15625 1002.367188 " fill-opacity="1" fill-rule="nonzero"/><path fill="#d6abc3" d="M 1015.296875 461.054688 C 1022.039062 461.175781 1028.78125 461.296875 1035.523438 461.417969 C 1028.835938 458.339844 1022.074219 459.210938 1015.296875 461.054688 Z M 1015.296875 461.054688 " fill-opacity="1" fill-rule="nonzero"/><path fill="#d6abc3" d="M 326.078125 1025.316406 C 328.535156 1028.105469 330.695312 1027.9375 332.921875 1026.449219 C 333.222656 1026.246094 333.414062 1025.214844 333.21875 1025.035156 C 331.097656 1023.0625 328.882812 1023.410156 326.078125 1025.316406 Z M 326.078125 1025.316406 " fill-opacity="1" fill-rule="nonzero"/><path fill="#d6abc3" d="M 1145.84375 474.6875 C 1146.949219 474.679688 1148.273438 474.609375 1148.28125 473.113281 C 1148.292969 471.597656 1146.953125 471.617188 1145.851562 471.515625 C 1144.734375 471.597656 1143.421875 471.628906 1143.414062 473.109375 C 1143.402344 474.613281 1144.726562 474.695312 1145.84375 474.6875 Z M 1145.84375 474.6875 " fill-opacity="1" fill-rule="nonzero"/><path fill="#d6abc3" d="M 1289.351562 577.898438 C 1288.832031 579.398438 1290.339844 579.542969 1291.378906 579.6875 C 1292.488281 579.835938 1293.535156 579.605469 1294.089844 578.425781 C 1294.238281 576.816406 1292.960938 576.582031 1291.957031 576.667969 C 1291.023438 576.746094 1289.578125 577.242188 1289.351562 577.898438 Z M 1289.351562 577.898438 " fill-opacity="1" fill-rule="nonzero"/><path fill="#d6abc3" d="M 1306.261719 550.480469 C 1305.636719 551.535156 1306.527344 552.484375 1307.800781 552.636719 C 1309.144531 552.796875 1310.53125 552.929688 1311.222656 551.320312 C 1311.347656 549.769531 1310.125 549.4375 1309.113281 549.460938 C 1308.121094 549.476562 1306.664062 549.792969 1306.261719 550.480469 Z M 1306.261719 550.480469 " fill-opacity="1" fill-rule="nonzero"/><path fill="#d6abc3" d="M 982.878906 979.941406 C 981.863281 980.222656 980.402344 980.21875 980.777344 981.804688 C 981.074219 983.042969 982.335938 983.226562 983.457031 983.070312 C 984.503906 982.921875 985.941406 982.839844 985.5625 981.246094 C 985.269531 980 984.015625 979.914062 982.878906 979.941406 Z M 982.878906 979.941406 " fill-opacity="1" fill-rule="nonzero"/><path fill="#d6abc3" d="M 1257.75 576.511719 C 1254.449219 576.148438 1250.992188 575.070312 1247.960938 578.210938 C 1251.320312 581.183594 1254.566406 580.261719 1257.746094 579.808594 C 1259.9375 580.066406 1263.585938 580.683594 1263.613281 578.585938 C 1263.664062 574.964844 1260.007812 576.605469 1257.75 576.511719 Z M 1257.75 576.511719 " fill-opacity="1" fill-rule="nonzero"/><path fill="#d6abc3" d="M 322.527344 586.515625 C 323.574219 586.367188 325.023438 586.285156 324.640625 584.683594 C 324.34375 583.433594 323.085938 583.34375 321.945312 583.371094 C 320.925781 583.65625 319.457031 583.652344 319.835938 585.246094 C 320.132812 586.488281 321.398438 586.675781 322.527344 586.515625 Z M 322.527344 586.515625 " fill-opacity="1" fill-rule="nonzero"/><path fill="#d6abc3" d="M 1316.238281 554.121094 C 1315.914062 556.046875 1317.570312 556.144531 1318.933594 556.089844 C 1319.992188 556.046875 1321.265625 555.886719 1321.207031 554.398438 C 1321.152344 552.949219 1319.910156 552.910156 1318.210938 552.710938 C 1317.78125 552.996094 1316.351562 553.449219 1316.238281 554.121094 Z M 1316.238281 554.121094 " fill-opacity="1" fill-rule="nonzero"/><path fill="#d6abc3" d="M 208.507812 671.234375 C 205.667969 674.726562 207.355469 679.460938 205.246094 683.152344 C 210.742188 680.386719 208.15625 675.40625 208.507812 671.234375 Z M 208.507812 671.234375 " fill-opacity="1" fill-rule="nonzero"/><path fill="#d6abc3" d="M 1084.832031 478.019531 C 1090.222656 475.460938 1095.78125 473.804688 1101.84375 474.792969 C 1105.21875 474.8125 1108.589844 474.832031 1111.960938 474.855469 C 1115.011719 474.992188 1118.097656 475.46875 1121.097656 475.15625 C 1123.386719 474.914062 1124.738281 473.425781 1122.28125 471.257812 C 1118.285156 469.644531 1114.230469 464.917969 1110.390625 471.484375 C 1107.574219 471.414062 1104.75 471.34375 1101.929688 471.273438 C 1097.375 471.339844 1092.816406 471.402344 1088.257812 471.46875 C 1083.0625 467.738281 1077.839844 465.183594 1072.40625 471.074219 C 1071.972656 470.84375 1071.605469 470.917969 1071.304688 471.304688 C 1071.277344 472.546875 1071.25 473.789062 1071.21875 475.027344 C 1072.636719 476.113281 1074.164062 476.871094 1076.019531 476.660156 C 1078.632812 479.234375 1081.730469 478.632812 1084.832031 478.019531 Z M 1078.394531 475.835938 C 1078.480469 475.917969 1078.582031 475.996094 1078.65625 476.089844 C 1078.542969 476.117188 1078.429688 476.140625 1078.316406 476.164062 C 1078.339844 476.058594 1078.382812 475.9375 1078.394531 475.835938 Z M 1078.394531 475.835938 " fill-opacity="1" fill-rule="nonzero"/><path fill="#d6abc3" d="M 569.671875 547.648438 C 572.394531 547.144531 575.117188 546.644531 577.835938 546.140625 C 574.480469 543.1875 571.550781 542.566406 569.671875 547.648438 Z M 569.671875 547.648438 " fill-opacity="1" fill-rule="nonzero"/><path fill="#d6abc3" d="M 1208.609375 840.75 C 1204.742188 842.558594 1199.695312 840.039062 1196.441406 844.082031 C 1200.679688 843.636719 1205.769531 846.292969 1208.609375 840.75 Z M 1208.609375 840.75 " fill-opacity="1" fill-rule="nonzero"/><path fill="#d6abc3" d="M 1179.359375 840.675781 C 1182.832031 840.738281 1186.308594 840.796875 1189.785156 840.855469 C 1186.375 837.007812 1182.878906 838.183594 1179.359375 840.675781 Z M 1179.359375 840.675781 " fill-opacity="1" fill-rule="nonzero"/><path fill="#d6abc3" d="M 201.472656 689.566406 C 202.980469 689.53125 204.039062 689.085938 204.019531 687.746094 C 204.015625 687.386719 202.824219 686.789062 202.152344 686.753906 C 201.210938 686.703125 199.621094 686.335938 199.9375 688.148438 C 200.039062 688.746094 201.035156 689.1875 201.472656 689.566406 Z M 201.472656 689.566406 " fill-opacity="1" fill-rule="nonzero"/></svg>