<?xml version="1.0" encoding="UTF-8" standalone="no" ?>
<!DOCTYPE svg PUBLIC "-//W3C//DTD SVG 1.1//EN" "http://www.w3.org/Graphics/SVG/1.1/DTD/svg11.dtd">
<svg xmlns="http://www.w3.org/2000/svg" xmlns:xlink="http://www.w3.org/1999/xlink" version="1.1" width="900" height="900" viewBox="0 0 900 900" xml:space="preserve">
<desc>Created with Fabric.js 5.2.4</desc>
<defs>
</defs>
<g transform="matrix(0 0 0 0 0 0)" id="4255a9b7-9677-46de-a118-87c1f12d70bd"  >
</g>
<g transform="matrix(1 0 0 1 450 450)" id="9bace2d8-6f2b-4e57-beef-0e101088e9b0"  >
<rect style="stroke: none; stroke-width: 1; stroke-dasharray: none; stroke-linecap: butt; stroke-dashoffset: 0; stroke-linejoin: miter; stroke-miterlimit: 4; fill: rgb(255,255,255); fill-rule: nonzero; opacity: 1; visibility: hidden;" vector-effect="non-scaling-stroke"  x="-450" y="-450" rx="0" ry="0" width="900" height="900" />
</g>
<g transform="matrix(1.16 0 0 1.09 537.63 743.02)"  >
<path style="stroke: none; stroke-width: 1; stroke-dasharray: none; stroke-linecap: butt; stroke-dashoffset: 0; stroke-linejoin: miter; stroke-miterlimit: 4; fill: rgb(221,177,124); fill-rule: nonzero; opacity: 1;" vector-effect="non-scaling-stroke"  transform=" translate(-357.82, -594.71)" d="M 306.320312 601.632812 C 306.320312 601.632812 332.667969 594.3125 365.097656 606.960938 C 387.863281 615.839844 404.53125 606.425781 408.519531 596.355469 C 413.75 583.132812 392.109375 572.148438 383.550781 583.941406 C 374.992188 595.738281 393.0625 597.257812 393.824219 589.648438 C 394.585938 582.039062 405.996094 583.179688 405.140625 592.597656 C 404.285156 602.015625 383.773438 609.789062 354.066406 601.824219 C 323.914062 593.738281 306.320312 601.632812 306.320312 601.632812 Z M 306.320312 601.632812" stroke-linecap="round" />
</g>
<g transform="matrix(1.16 0 0 1.09 535.49 743.05)"  >
<path style="stroke: none; stroke-width: 1; stroke-dasharray: none; stroke-linecap: butt; stroke-dashoffset: 0; stroke-linejoin: miter; stroke-miterlimit: 4; fill: rgb(221,177,124); fill-rule: nonzero; opacity: 1;" vector-effect="non-scaling-stroke"  transform=" translate(-355.91, -594.71)" d="M 336.164062 592.671875 C 336.164062 592.671875 346.261719 594.832031 358.695312 591.101562 C 367.421875 588.480469 373.816406 591.257812 375.339844 594.230469 C 377.347656 598.132812 369.050781 601.371094 365.769531 597.890625 C 362.488281 594.410156 369.417969 593.960938 369.707031 596.207031 C 370 598.453125 374.375 598.117188 374.046875 595.339844 C 373.71875 592.558594 365.855469 590.265625 354.46875 592.617188 C 342.910156 595.003906 336.164062 592.671875 336.164062 592.671875 Z M 336.164062 592.671875" stroke-linecap="round" />
</g>
<g transform="matrix(1.16 0 0 1.09 510.74 752.83)"  >
<path style="stroke: none; stroke-width: 1; stroke-dasharray: none; stroke-linecap: butt; stroke-dashoffset: 0; stroke-linejoin: miter; stroke-miterlimit: 4; fill: rgb(221,177,124); fill-rule: nonzero; opacity: 1;" vector-effect="non-scaling-stroke"  transform=" translate(-334.64, -603.63)" d="M 336.925781 603.632812 C 336.925781 602.371094 335.902344 601.351562 334.640625 601.351562 C 333.382812 601.351562 332.359375 602.371094 332.359375 603.632812 C 332.359375 604.894531 333.382812 605.917969 334.640625 605.917969 C 335.902344 605.917969 336.925781 604.894531 336.925781 603.632812 Z M 336.925781 603.632812" stroke-linecap="round" />
</g>
<g transform="matrix(1.16 0 0 1.09 521.94 754.61)"  >
<path style="stroke: none; stroke-width: 1; stroke-dasharray: none; stroke-linecap: butt; stroke-dashoffset: 0; stroke-linejoin: miter; stroke-miterlimit: 4; fill: rgb(221,177,124); fill-rule: nonzero; opacity: 1;" vector-effect="non-scaling-stroke"  transform=" translate(-344.25, -605.25)" d="M 346.53125 605.25 C 346.53125 603.988281 345.507812 602.96875 344.25 602.96875 C 342.988281 602.96875 341.964844 603.988281 341.964844 605.25 C 341.964844 606.511719 342.988281 607.53125 344.25 607.53125 C 345.507812 607.53125 346.53125 606.511719 346.53125 605.25 Z M 346.53125 605.25" stroke-linecap="round" />
</g>
<g transform="matrix(1.16 0 0 1.09 533.41 758)"  >
<path style="stroke: none; stroke-width: 1; stroke-dasharray: none; stroke-linecap: butt; stroke-dashoffset: 0; stroke-linejoin: miter; stroke-miterlimit: 4; fill: rgb(221,177,124); fill-rule: nonzero; opacity: 1;" vector-effect="non-scaling-stroke"  transform=" translate(-354.09, -608.34)" d="M 357.566406 608.339844 C 357.566406 606.421875 356.007812 604.871094 354.09375 604.871094 C 352.175781 604.871094 350.621094 606.421875 350.621094 608.339844 C 350.621094 610.257812 352.175781 611.8125 354.09375 611.8125 C 356.007812 611.8125 357.566406 610.257812 357.566406 608.339844 Z M 357.566406 608.339844" stroke-linecap="round" />
</g>
<g transform="matrix(1.16 0 0 1.09 614.8 743.04)"  >
<path style="stroke: none; stroke-width: 1; stroke-dasharray: none; stroke-linecap: butt; stroke-dashoffset: 0; stroke-linejoin: miter; stroke-miterlimit: 4; fill: rgb(221,177,124); fill-rule: nonzero; opacity: 1;" vector-effect="non-scaling-stroke"  transform=" translate(-423.89, -594.71)" d="M 433.277344 593.265625 C 433.335938 593.648438 431.765625 594.234375 429.328125 594.816406 C 431.742188 595.492188 433.289062 596.140625 433.214844 596.523438 C 433.140625 596.902344 431.464844 596.925781 428.972656 596.648438 C 431.015625 598.101562 432.253906 599.234375 432.054688 599.566406 C 431.855469 599.902344 430.269531 599.355469 428.019531 598.253906 C 429.453125 600.3125 430.230469 601.792969 429.933594 602.039062 C 429.632812 602.289062 428.324219 601.238281 426.578125 599.441406 C 427.234375 601.859375 427.464844 603.523438 427.101562 603.652344 C 426.734375 603.78125 425.859375 602.355469 424.824219 600.070312 C 424.621094 602.570312 424.277344 604.210938 423.890625 604.210938 C 423.484375 604.210938 423.128906 602.394531 422.929688 599.675781 C 421.726562 602.121094 420.71875 603.675781 420.339844 603.523438 C 419.980469 603.378906 420.277344 601.726562 421.023438 599.332031 C 419.207031 601.066406 417.863281 602.0625 417.570312 601.804688 C 417.28125 601.546875 418.121094 600.09375 419.628906 598.09375 C 417.335938 599.105469 415.730469 599.59375 415.546875 599.25 C 415.363281 598.910156 416.640625 597.828125 418.738281 596.453125 C 416.238281 596.632812 414.5625 596.546875 414.503906 596.164062 C 414.445312 595.78125 416.015625 595.191406 418.453125 594.609375 C 416.039062 593.933594 414.492188 593.285156 414.566406 592.90625 C 414.640625 592.523438 416.316406 592.5 418.808594 592.777344 C 416.765625 591.324219 415.527344 590.195312 415.726562 589.859375 C 415.925781 589.527344 417.507812 590.074219 419.761719 591.175781 C 418.328125 589.117188 417.546875 587.632812 417.847656 587.386719 C 418.148438 587.140625 419.453125 588.1875 421.203125 589.988281 C 420.546875 587.566406 420.316406 585.90625 420.679688 585.773438 C 421.046875 585.644531 421.921875 587.074219 422.957031 589.355469 C 423.160156 586.859375 423.503906 585.214844 423.890625 585.214844 C 424.296875 585.214844 424.652344 587.035156 424.851562 589.753906 C 426.054688 587.304688 427.0625 585.753906 427.441406 585.90625 C 427.800781 586.050781 427.503906 587.699219 426.757812 590.09375 C 428.574219 588.363281 429.921875 587.363281 430.210938 587.625 C 430.5 587.882812 429.660156 589.335938 428.152344 591.335938 C 430.445312 590.320312 432.046875 589.835938 432.234375 590.175781 C 432.417969 590.515625 431.140625 591.601562 429.042969 592.972656 C 431.542969 592.792969 433.21875 592.878906 433.277344 593.265625 Z M 433.277344 593.265625" stroke-linecap="round" />
</g>
<g transform="matrix(1.16 0 0 1.09 636.29 743.06)"  >
<path style="stroke: none; stroke-width: 1; stroke-dasharray: none; stroke-linecap: butt; stroke-dashoffset: 0; stroke-linejoin: miter; stroke-miterlimit: 4; fill: rgb(221,177,124); fill-rule: nonzero; opacity: 1;" vector-effect="non-scaling-stroke"  transform=" translate(-442.3, -594.71)" d="M 446.148438 594.121094 C 446.171875 594.277344 445.527344 594.519531 444.527344 594.757812 C 445.519531 595.035156 446.152344 595.296875 446.121094 595.453125 C 446.089844 595.609375 445.40625 595.621094 444.382812 595.507812 C 445.222656 596.101562 445.726562 596.566406 445.644531 596.703125 C 445.566406 596.835938 444.914062 596.613281 443.992188 596.164062 C 444.578125 597.007812 444.898438 597.613281 444.777344 597.714844 C 444.65625 597.816406 444.117188 597.386719 443.402344 596.648438 C 443.671875 597.640625 443.765625 598.320312 443.617188 598.375 C 443.46875 598.429688 443.109375 597.84375 442.683594 596.90625 C 442.601562 597.929688 442.460938 598.605469 442.300781 598.605469 C 442.136719 598.605469 441.988281 597.859375 441.90625 596.746094 C 441.417969 597.746094 441.003906 598.382812 440.847656 598.324219 C 440.699219 598.261719 440.824219 597.585938 441.128906 596.605469 C 440.382812 597.3125 439.832031 597.722656 439.714844 597.617188 C 439.59375 597.511719 439.9375 596.917969 440.558594 596.097656 C 439.617188 596.511719 438.960938 596.710938 438.886719 596.570312 C 438.808594 596.433594 439.332031 595.988281 440.191406 595.425781 C 439.167969 595.5 438.480469 595.464844 438.457031 595.308594 C 438.433594 595.152344 439.078125 594.910156 440.074219 594.671875 C 439.085938 594.394531 438.453125 594.128906 438.484375 593.972656 C 438.515625 593.816406 439.199219 593.808594 440.222656 593.921875 C 439.382812 593.328125 438.878906 592.863281 438.957031 592.726562 C 439.039062 592.589844 439.6875 592.8125 440.613281 593.265625 C 440.023438 592.421875 439.703125 591.8125 439.828125 591.714844 C 439.949219 591.609375 440.484375 592.042969 441.199219 592.777344 C 440.933594 591.785156 440.839844 591.105469 440.988281 591.050781 C 441.136719 591 441.496094 591.585938 441.921875 592.519531 C 442.003906 591.496094 442.144531 590.824219 442.300781 590.824219 C 442.46875 590.824219 442.613281 591.566406 442.695312 592.683594 C 443.1875 591.679688 443.601562 591.042969 443.757812 591.105469 C 443.902344 591.164062 443.78125 591.839844 443.476562 592.820312 C 444.21875 592.113281 444.769531 591.703125 444.890625 591.808594 C 445.007812 591.914062 444.664062 592.511719 444.046875 593.332031 C 444.988281 592.914062 445.644531 592.714844 445.71875 592.855469 C 445.796875 592.996094 445.273438 593.4375 444.410156 594 C 445.4375 593.925781 446.121094 593.964844 446.148438 594.121094 Z M 446.148438 594.121094" stroke-linecap="round" />
</g>
<g transform="matrix(1.16 0 0 1.09 647.76 743.07)"  >
<path style="stroke: none; stroke-width: 1; stroke-dasharray: none; stroke-linecap: butt; stroke-dashoffset: 0; stroke-linejoin: miter; stroke-miterlimit: 4; fill: rgb(221,177,124); fill-rule: nonzero; opacity: 1;" vector-effect="non-scaling-stroke"  transform=" translate(-452.13, -594.71)" d="M 452.941406 594.714844 C 452.941406 594.265625 452.582031 593.90625 452.136719 593.90625 C 451.6875 593.90625 451.328125 594.265625 451.328125 594.714844 C 451.328125 595.160156 451.6875 595.523438 452.136719 595.523438 C 452.582031 595.523438 452.941406 595.160156 452.941406 594.714844 Z M 452.941406 594.714844" stroke-linecap="round" />
</g>
<g transform="matrix(1.16 0 0 1.09 680.14 743.06)"  >
<path style="stroke: none; stroke-width: 1; stroke-dasharray: none; stroke-linecap: butt; stroke-dashoffset: 0; stroke-linejoin: miter; stroke-miterlimit: 4; fill: rgb(221,177,124); fill-rule: nonzero; opacity: 1;" vector-effect="non-scaling-stroke"  transform=" translate(-479.95, -594.71)" d="M 501.777344 594.714844 C 501.777344 594.503906 501.609375 594.332031 501.398438 594.332031 L 458.503906 594.332031 C 458.292969 594.332031 458.121094 594.503906 458.121094 594.714844 C 458.121094 594.925781 458.292969 595.09375 458.503906 595.09375 L 501.398438 595.09375 C 501.609375 595.09375 501.777344 594.925781 501.777344 594.714844 Z M 501.777344 594.714844" stroke-linecap="round" />
</g>
<g transform="matrix(1.16 0 0 1.09 718.89 743.05)"  >
<path style="stroke: none; stroke-width: 1; stroke-dasharray: none; stroke-linecap: butt; stroke-dashoffset: 0; stroke-linejoin: miter; stroke-miterlimit: 4; fill: rgb(221,177,124); fill-rule: nonzero; opacity: 1;" vector-effect="non-scaling-stroke"  transform=" translate(-513.15, -594.71)" d="M 519.339844 596.144531 C 518.886719 594.023438 518.089844 592.65625 516.09375 591.207031 C 515.3125 590.25 510.167969 589.070312 508.234375 592.800781 C 506.15625 596.5625 509.890625 599.132812 509.792969 598.757812 C 509.785156 598.71875 510.515625 599.257812 511.804688 599.175781 C 513.03125 599.164062 514.722656 597.898438 514.65625 596.042969 C 514.710938 594.257812 512.261719 592.972656 511.121094 594.101562 C 509.800781 595.113281 510.640625 596.679688 511.148438 596.765625 C 512.125 597.355469 513.097656 596.484375 512.941406 595.707031 C 512.996094 594.890625 511.378906 594.441406 511.199219 595.707031 C 511.035156 594.359375 513.242188 594.289062 513.417969 595.609375 C 513.863281 596.742188 512.257812 598.238281 510.832031 597.355469 C 510.039062 597.191406 508.910156 594.917969 510.703125 593.574219 C 512.347656 592.074219 515.375 593.75 515.328125 596.03125 C 515.410156 598.292969 513.34375 599.835938 511.851562 599.84375 C 510.339844 599.9375 509.488281 599.3125 509.492188 599.355469 C 509.515625 599.351562 508.535156 599 507.699219 597.753906 C 506.808594 596.535156 506.636719 594.308594 507.644531 592.476562 C 509.875 588.242188 515.628906 589.59375 516.453125 590.644531 C 518.671875 592.246094 519.324219 593.988281 519.339844 596.144531 Z M 519.339844 596.144531" stroke-linecap="round" />
</g>
<g transform="matrix(1.16 0 0 1.09 751.83 743.05)"  >
<path style="stroke: none; stroke-width: 1; stroke-dasharray: none; stroke-linecap: butt; stroke-dashoffset: 0; stroke-linejoin: miter; stroke-miterlimit: 4; fill: rgb(221,177,124); fill-rule: nonzero; opacity: 1;" vector-effect="non-scaling-stroke"  transform=" translate(-541.39, -594.71)" d="M 535.199219 596.144531 C 535.21875 593.988281 535.867188 592.246094 538.089844 590.644531 C 538.914062 589.59375 544.667969 588.242188 546.894531 592.476562 C 547.902344 594.308594 547.730469 596.535156 546.84375 597.753906 C 546.003906 599 545.023438 599.351562 545.050781 599.355469 C 545.054688 599.3125 544.203125 599.9375 542.691406 599.84375 C 541.195312 599.835938 539.132812 598.292969 539.210938 596.03125 C 539.167969 593.75 542.195312 592.074219 543.839844 593.574219 C 545.632812 594.917969 544.503906 597.191406 543.710938 597.355469 C 542.28125 598.238281 540.679688 596.742188 541.121094 595.609375 C 541.300781 594.289062 543.507812 594.359375 543.34375 595.707031 C 543.160156 594.441406 541.546875 594.890625 541.601562 595.707031 C 541.445312 596.484375 542.417969 597.355469 543.390625 596.765625 C 543.902344 596.679688 544.742188 595.113281 543.421875 594.101562 C 542.277344 592.972656 539.832031 594.257812 539.882812 596.042969 C 539.816406 597.898438 541.511719 599.164062 542.738281 599.175781 C 544.027344 599.257812 544.753906 598.71875 544.75 598.757812 C 544.652344 599.132812 548.386719 596.5625 546.304688 592.800781 C 544.375 589.070312 539.226562 590.25 538.449219 591.207031 C 536.453125 592.65625 535.65625 594.023438 535.199219 596.144531 Z M 535.199219 596.144531" stroke-linecap="round" />
</g>
<g transform="matrix(1.16 0 0 1.09 735.38 743.06)"  >
<path style="stroke: none; stroke-width: 1; stroke-dasharray: none; stroke-linecap: butt; stroke-dashoffset: 0; stroke-linejoin: miter; stroke-miterlimit: 4; fill: rgb(221,177,124); fill-rule: nonzero; opacity: 1;" vector-effect="non-scaling-stroke"  transform=" translate(-527.27, -594.71)" d="M 528.972656 592.101562 L 527.273438 592.992188 L 525.574219 592.097656 L 525.894531 593.988281 L 524.519531 595.328125 L 526.421875 595.605469 L 527.269531 597.332031 L 528.121094 595.609375 L 530.019531 595.332031 L 528.648438 593.992188 Z M 528.972656 592.101562" stroke-linecap="round" />
</g>
<g transform="matrix(1.16 0 0 1.09 771.62 743.05)"  >
<path style="stroke: none; stroke-width: 1; stroke-dasharray: none; stroke-linecap: butt; stroke-dashoffset: 0; stroke-linejoin: miter; stroke-miterlimit: 4; fill: rgb(221,177,124); fill-rule: nonzero; opacity: 1;" vector-effect="non-scaling-stroke"  transform=" translate(-558.36, -594.71)" d="M 555.789062 591.484375 L 552.761719 589.738281 L 552.761719 588.253906 L 558.355469 591.484375 L 563.953125 594.714844 L 558.355469 597.945312 L 552.761719 601.175781 L 552.761719 599.691406 L 555.789062 597.945312 L 561.382812 594.714844 Z M 555.789062 591.484375" stroke-linecap="round" />
</g>
<g transform="matrix(1.16 0 0 1.09 790.71 743.05)"  >
<path style="stroke: none; stroke-width: 1; stroke-dasharray: none; stroke-linecap: butt; stroke-dashoffset: 0; stroke-linejoin: miter; stroke-miterlimit: 4; fill: rgb(221,177,124); fill-rule: nonzero; opacity: 1;" vector-effect="non-scaling-stroke"  transform=" translate(-574.73, -594.71)" d="M 572.15625 591.484375 L 569.132812 589.738281 L 569.132812 588.253906 L 580.320312 594.714844 L 569.132812 601.175781 L 569.132812 599.691406 L 572.15625 597.945312 L 577.753906 594.714844 Z M 572.15625 591.484375" stroke-linecap="round" />
</g>
<g transform="matrix(1.16 0 0 1.09 806.74 743.06)" clip-path="url(#CLIPPATH_192)"  >
<clipPath id="CLIPPATH_192" >
	<path transform="matrix(1 0 0 1 -0.16 -0.21) translate(-588.3, -594.5)" d="M 585 591 L 591.609375 591 L 591.609375 598 L 585 598 Z M 585 591" stroke-linecap="round" />
</clipPath>
<path style="stroke: none; stroke-width: 1; stroke-dasharray: none; stroke-linecap: butt; stroke-dashoffset: 0; stroke-linejoin: miter; stroke-miterlimit: 4; fill: rgb(221,177,124); fill-rule: nonzero; opacity: 1;" vector-effect="non-scaling-stroke"  transform=" translate(-588.46, -594.71)" d="M 591.421875 594.714844 C 591.421875 593.078125 590.097656 591.753906 588.460938 591.753906 C 586.824219 591.753906 585.5 593.078125 585.5 594.714844 C 585.5 596.347656 586.824219 597.675781 588.460938 597.675781 C 590.097656 597.675781 591.421875 596.347656 591.421875 594.714844 Z M 591.421875 594.714844" stroke-linecap="round" />
</g>
<g transform="matrix(1.16 0 0 1.09 411.47 743.02)"  >
<path style="stroke: none; stroke-width: 1; stroke-dasharray: none; stroke-linecap: butt; stroke-dashoffset: 0; stroke-linejoin: miter; stroke-miterlimit: 4; fill: rgb(221,177,124); fill-rule: nonzero; opacity: 1;" vector-effect="non-scaling-stroke"  transform=" translate(-249.64, -594.71)" d="M 301.140625 601.632812 C 301.140625 601.632812 274.792969 594.3125 242.363281 606.960938 C 219.597656 615.839844 202.929688 606.425781 198.945312 596.355469 C 193.710938 583.132812 215.351562 572.148438 223.910156 583.941406 C 232.46875 595.738281 214.398438 597.257812 213.636719 589.648438 C 212.878906 582.039062 201.464844 583.179688 202.320312 592.597656 C 203.175781 602.015625 223.6875 609.789062 253.394531 601.824219 C 283.546875 593.738281 301.140625 601.632812 301.140625 601.632812 Z M 301.140625 601.632812" stroke-linecap="round" />
</g>
<g transform="matrix(1.16 0 0 1.09 413.79 743.05)"  >
<path style="stroke: none; stroke-width: 1; stroke-dasharray: none; stroke-linecap: butt; stroke-dashoffset: 0; stroke-linejoin: miter; stroke-miterlimit: 4; fill: rgb(221,177,124); fill-rule: nonzero; opacity: 1;" vector-effect="non-scaling-stroke"  transform=" translate(-251.55, -594.71)" d="M 271.296875 592.671875 C 271.296875 592.671875 261.199219 594.832031 248.765625 591.101562 C 240.039062 588.480469 233.648438 591.257812 232.121094 594.230469 C 230.113281 598.132812 238.410156 601.371094 241.691406 597.890625 C 244.972656 594.410156 238.042969 593.960938 237.753906 596.207031 C 237.460938 598.453125 233.085938 598.117188 233.414062 595.339844 C 233.742188 592.558594 241.605469 590.265625 252.996094 592.617188 C 264.550781 595.003906 271.296875 592.671875 271.296875 592.671875 Z M 271.296875 592.671875" stroke-linecap="round" />
</g>
<g transform="matrix(1.16 0 0 1.09 438.64 752.83)"  >
<path style="stroke: none; stroke-width: 1; stroke-dasharray: none; stroke-linecap: butt; stroke-dashoffset: 0; stroke-linejoin: miter; stroke-miterlimit: 4; fill: rgb(221,177,124); fill-rule: nonzero; opacity: 1;" vector-effect="non-scaling-stroke"  transform=" translate(-272.82, -603.63)" d="M 270.535156 603.632812 C 270.535156 602.371094 271.558594 601.351562 272.820312 601.351562 C 274.082031 601.351562 275.101562 602.371094 275.101562 603.632812 C 275.101562 604.894531 274.082031 605.917969 272.820312 605.917969 C 271.558594 605.917969 270.535156 604.894531 270.535156 603.632812 Z M 270.535156 603.632812" stroke-linecap="round" />
</g>
<g transform="matrix(1.16 0 0 1.09 427.44 754.61)"  >
<path style="stroke: none; stroke-width: 1; stroke-dasharray: none; stroke-linecap: butt; stroke-dashoffset: 0; stroke-linejoin: miter; stroke-miterlimit: 4; fill: rgb(221,177,124); fill-rule: nonzero; opacity: 1;" vector-effect="non-scaling-stroke"  transform=" translate(-263.21, -605.25)" d="M 260.929688 605.25 C 260.929688 603.988281 261.953125 602.96875 263.214844 602.96875 C 264.472656 602.96875 265.496094 603.988281 265.496094 605.25 C 265.496094 606.511719 264.472656 607.53125 263.214844 607.53125 C 261.953125 607.53125 260.929688 606.511719 260.929688 605.25 Z M 260.929688 605.25" stroke-linecap="round" />
</g>
<g transform="matrix(1.16 0 0 1.09 415.96 758)"  >
<path style="stroke: none; stroke-width: 1; stroke-dasharray: none; stroke-linecap: butt; stroke-dashoffset: 0; stroke-linejoin: miter; stroke-miterlimit: 4; fill: rgb(221,177,124); fill-rule: nonzero; opacity: 1;" vector-effect="non-scaling-stroke"  transform=" translate(-253.37, -608.34)" d="M 249.898438 608.339844 C 249.898438 606.421875 251.453125 604.871094 253.367188 604.871094 C 255.285156 604.871094 256.839844 606.421875 256.839844 608.339844 C 256.839844 610.257812 255.285156 611.8125 253.367188 611.8125 C 251.453125 611.8125 249.898438 610.257812 249.898438 608.339844 Z M 249.898438 608.339844" stroke-linecap="round" />
</g>
<g transform="matrix(1.16 0 0 1.09 334.54 743.04)"  >
<path style="stroke: none; stroke-width: 1; stroke-dasharray: none; stroke-linecap: butt; stroke-dashoffset: 0; stroke-linejoin: miter; stroke-miterlimit: 4; fill: rgb(221,177,124); fill-rule: nonzero; opacity: 1;" vector-effect="non-scaling-stroke"  transform=" translate(-183.57, -594.71)" d="M 174.183594 593.265625 C 174.125 593.648438 175.695312 594.234375 178.132812 594.816406 C 175.71875 595.492188 174.171875 596.140625 174.246094 596.523438 C 174.320312 596.902344 175.996094 596.925781 178.488281 596.648438 C 176.445312 598.101562 175.207031 599.234375 175.40625 599.566406 C 175.605469 599.902344 177.191406 599.355469 179.441406 598.253906 C 178.007812 600.3125 177.226562 601.792969 177.527344 602.039062 C 177.828125 602.289062 179.136719 601.238281 180.882812 599.441406 C 180.230469 601.859375 179.996094 603.523438 180.359375 603.652344 C 180.726562 603.78125 181.601562 602.355469 182.636719 600.070312 C 182.839844 602.570312 183.183594 604.210938 183.570312 604.210938 C 183.976562 604.210938 184.335938 602.394531 184.53125 599.675781 C 185.734375 602.121094 186.742188 603.675781 187.121094 603.523438 C 187.480469 603.378906 187.183594 601.726562 186.4375 599.332031 C 188.253906 601.066406 189.601562 602.0625 189.890625 601.804688 C 190.179688 601.546875 189.34375 600.09375 187.832031 598.09375 C 190.125 599.105469 191.730469 599.59375 191.914062 599.25 C 192.101562 598.910156 190.820312 597.828125 188.722656 596.453125 C 191.222656 596.632812 192.898438 596.546875 192.957031 596.164062 C 193.015625 595.78125 191.445312 595.191406 189.007812 594.609375 C 191.421875 593.933594 192.96875 593.285156 192.894531 592.90625 C 192.820312 592.523438 191.144531 592.5 188.652344 592.777344 C 190.695312 591.324219 191.933594 590.195312 191.734375 589.859375 C 191.539062 589.527344 189.949219 590.074219 187.699219 591.175781 C 189.132812 589.117188 189.910156 587.632812 189.613281 587.386719 C 189.3125 587.140625 188.007812 588.1875 186.257812 589.988281 C 186.914062 587.566406 187.144531 585.90625 186.78125 585.773438 C 186.417969 585.644531 185.539062 587.074219 184.503906 589.355469 C 184.300781 586.859375 183.957031 585.214844 183.570312 585.214844 C 183.164062 585.214844 182.808594 587.035156 182.609375 589.753906 C 181.40625 587.304688 180.398438 585.753906 180.019531 585.90625 C 179.660156 586.050781 179.957031 587.699219 180.703125 590.09375 C 178.886719 588.363281 177.539062 587.363281 177.25 587.625 C 176.960938 587.882812 177.800781 589.335938 179.308594 591.335938 C 177.019531 590.320312 175.410156 589.835938 175.226562 590.175781 C 175.042969 590.515625 176.320312 591.601562 178.417969 592.972656 C 175.917969 592.792969 174.242188 592.878906 174.183594 593.265625 Z M 174.183594 593.265625" stroke-linecap="round" />
</g>
<g transform="matrix(1.16 0 0 1.09 313.09 743.06)"  >
<path style="stroke: none; stroke-width: 1; stroke-dasharray: none; stroke-linecap: butt; stroke-dashoffset: 0; stroke-linejoin: miter; stroke-miterlimit: 4; fill: rgb(221,177,124); fill-rule: nonzero; opacity: 1;" vector-effect="non-scaling-stroke"  transform=" translate(-165.16, -594.71)" d="M 161.316406 594.121094 C 161.289062 594.277344 161.933594 594.519531 162.933594 594.757812 C 161.941406 595.035156 161.308594 595.296875 161.339844 595.453125 C 161.371094 595.609375 162.054688 595.621094 163.078125 595.507812 C 162.238281 596.101562 161.734375 596.566406 161.816406 596.703125 C 161.894531 596.835938 162.546875 596.613281 163.46875 596.164062 C 162.882812 597.007812 162.5625 597.613281 162.683594 597.714844 C 162.804688 597.816406 163.34375 597.386719 164.058594 596.648438 C 163.789062 597.640625 163.695312 598.320312 163.84375 598.375 C 163.992188 598.429688 164.351562 597.84375 164.777344 596.90625 C 164.859375 597.929688 165 598.605469 165.160156 598.605469 C 165.324219 598.605469 165.472656 597.859375 165.554688 596.746094 C 166.042969 597.746094 166.457031 598.382812 166.613281 598.324219 C 166.761719 598.261719 166.640625 597.585938 166.332031 596.605469 C 167.078125 597.3125 167.628906 597.722656 167.746094 597.617188 C 167.863281 597.511719 167.523438 596.917969 166.902344 596.097656 C 167.84375 596.511719 168.5 596.710938 168.578125 596.570312 C 168.652344 596.433594 168.128906 595.988281 167.269531 595.425781 C 168.292969 595.5 168.980469 595.464844 169.003906 595.308594 C 169.027344 595.152344 168.382812 594.910156 167.386719 594.671875 C 168.375 594.394531 169.007812 594.128906 168.976562 593.972656 C 168.949219 593.816406 168.261719 593.808594 167.238281 593.921875 C 168.078125 593.328125 168.582031 592.863281 168.503906 592.726562 C 168.421875 592.589844 167.773438 592.8125 166.847656 593.265625 C 167.4375 592.421875 167.757812 591.8125 167.632812 591.714844 C 167.511719 591.609375 166.976562 592.042969 166.261719 592.777344 C 166.527344 591.785156 166.625 591.105469 166.472656 591.050781 C 166.324219 591 165.964844 591.585938 165.542969 592.519531 C 165.457031 591.496094 165.316406 590.824219 165.160156 590.824219 C 164.992188 590.824219 164.847656 591.566406 164.765625 592.683594 C 164.273438 591.679688 163.859375 591.042969 163.707031 591.105469 C 163.558594 591.164062 163.679688 591.839844 163.984375 592.820312 C 163.242188 592.113281 162.6875 591.703125 162.570312 591.808594 C 162.453125 591.914062 162.796875 592.511719 163.414062 593.332031 C 162.476562 592.914062 161.816406 592.714844 161.742188 592.855469 C 161.664062 592.996094 162.191406 593.4375 163.050781 594 C 162.023438 593.925781 161.339844 593.964844 161.316406 594.121094 Z M 161.316406 594.121094" stroke-linecap="round" />
</g>
<g transform="matrix(1.16 0 0 1.09 301.63 743.07)"  >
<path style="stroke: none; stroke-width: 1; stroke-dasharray: none; stroke-linecap: butt; stroke-dashoffset: 0; stroke-linejoin: miter; stroke-miterlimit: 4; fill: rgb(221,177,124); fill-rule: nonzero; opacity: 1;" vector-effect="non-scaling-stroke"  transform=" translate(-155.33, -594.71)" d="M 154.519531 594.714844 C 154.519531 594.265625 154.878906 593.90625 155.324219 593.90625 C 155.773438 593.90625 156.132812 594.265625 156.132812 594.714844 C 156.132812 595.160156 155.773438 595.523438 155.324219 595.523438 C 154.878906 595.523438 154.519531 595.160156 154.519531 594.714844 Z M 154.519531 594.714844" stroke-linecap="round" />
</g>
<g transform="matrix(1.16 0 0 1.09 269.13 743.06)"  >
<path style="stroke: none; stroke-width: 1; stroke-dasharray: none; stroke-linecap: butt; stroke-dashoffset: 0; stroke-linejoin: miter; stroke-miterlimit: 4; fill: rgb(221,177,124); fill-rule: nonzero; opacity: 1;" vector-effect="non-scaling-stroke"  transform=" translate(-127.51, -594.71)" d="M 105.683594 594.714844 C 105.683594 594.503906 105.851562 594.332031 106.0625 594.332031 L 148.957031 594.332031 C 149.167969 594.332031 149.339844 594.503906 149.339844 594.714844 C 149.339844 594.925781 149.167969 595.09375 148.957031 595.09375 L 106.0625 595.09375 C 105.851562 595.09375 105.683594 594.925781 105.683594 594.714844 Z M 105.683594 594.714844" stroke-linecap="round" />
</g>
<g transform="matrix(1.16 0 0 1.09 230.45 743.05)"  >
<path style="stroke: none; stroke-width: 1; stroke-dasharray: none; stroke-linecap: butt; stroke-dashoffset: 0; stroke-linejoin: miter; stroke-miterlimit: 4; fill: rgb(221,177,124); fill-rule: nonzero; opacity: 1;" vector-effect="non-scaling-stroke"  transform=" translate(-94.31, -594.71)" d="M 88.121094 596.144531 C 88.574219 594.023438 89.371094 592.65625 91.371094 591.207031 C 92.148438 590.25 97.292969 589.070312 99.226562 592.800781 C 101.304688 596.5625 97.570312 599.132812 97.667969 598.757812 C 97.675781 598.71875 96.945312 599.257812 95.65625 599.175781 C 94.429688 599.164062 92.738281 597.898438 92.804688 596.042969 C 92.75 594.257812 95.199219 592.972656 96.339844 594.101562 C 97.660156 595.113281 96.820312 596.679688 96.3125 596.765625 C 95.335938 597.355469 94.363281 596.484375 94.519531 595.707031 C 94.46875 594.890625 96.082031 594.441406 96.261719 595.707031 C 96.425781 594.359375 94.21875 594.289062 94.042969 595.609375 C 93.597656 596.742188 95.203125 598.238281 96.628906 597.355469 C 97.421875 597.191406 98.550781 594.917969 96.757812 593.574219 C 95.113281 592.074219 92.085938 593.75 92.132812 596.03125 C 92.050781 598.292969 94.117188 599.835938 95.609375 599.84375 C 97.121094 599.9375 97.976562 599.3125 97.96875 599.355469 C 97.945312 599.351562 98.925781 599 99.761719 597.753906 C 100.652344 596.535156 100.824219 594.308594 99.816406 592.476562 C 97.585938 588.242188 91.835938 589.59375 91.007812 590.644531 C 88.785156 592.246094 88.136719 593.988281 88.121094 596.144531 Z M 88.121094 596.144531" stroke-linecap="round" />
</g>
<g transform="matrix(1.16 0 0 1.09 197.52 743.05)"  >
<path style="stroke: none; stroke-width: 1; stroke-dasharray: none; stroke-linecap: butt; stroke-dashoffset: 0; stroke-linejoin: miter; stroke-miterlimit: 4; fill: rgb(221,177,124); fill-rule: nonzero; opacity: 1;" vector-effect="non-scaling-stroke"  transform=" translate(-66.07, -594.71)" d="M 72.261719 596.144531 C 72.242188 593.988281 71.59375 592.246094 69.371094 590.644531 C 68.546875 589.59375 62.792969 588.242188 60.566406 592.476562 C 59.558594 594.308594 59.730469 596.535156 60.617188 597.753906 C 61.453125 599 62.4375 599.351562 62.410156 599.355469 C 62.40625 599.3125 63.257812 599.9375 64.769531 599.84375 C 66.265625 599.835938 68.328125 598.292969 68.25 596.03125 C 68.292969 593.75 65.265625 592.074219 63.621094 593.574219 C 61.828125 594.917969 62.957031 597.191406 63.75 597.355469 C 65.179688 598.238281 66.785156 596.742188 66.339844 595.609375 C 66.160156 594.289062 63.953125 594.359375 64.117188 595.707031 C 64.300781 594.441406 65.914062 594.890625 65.859375 595.707031 C 66.019531 596.484375 65.042969 597.355469 64.070312 596.765625 C 63.558594 596.679688 62.71875 595.113281 64.039062 594.101562 C 65.183594 592.972656 67.628906 594.257812 67.578125 596.042969 C 67.644531 597.898438 65.949219 599.164062 64.722656 599.175781 C 63.433594 599.257812 62.707031 598.71875 62.710938 598.757812 C 62.808594 599.132812 59.074219 596.5625 61.152344 592.800781 C 63.085938 589.070312 68.234375 590.25 69.011719 591.207031 C 71.007812 592.65625 71.808594 594.023438 72.261719 596.144531 Z M 72.261719 596.144531" stroke-linecap="round" />
</g>
<g transform="matrix(1.16 0 0 1.09 213.99 743.06)"  >
<path style="stroke: none; stroke-width: 1; stroke-dasharray: none; stroke-linecap: butt; stroke-dashoffset: 0; stroke-linejoin: miter; stroke-miterlimit: 4; fill: rgb(221,177,124); fill-rule: nonzero; opacity: 1;" vector-effect="non-scaling-stroke"  transform=" translate(-80.19, -594.71)" d="M 78.488281 592.101562 L 80.1875 592.992188 L 81.886719 592.097656 L 81.566406 593.988281 L 82.941406 595.328125 L 81.039062 595.605469 L 80.191406 597.332031 L 79.339844 595.609375 L 77.441406 595.332031 L 78.8125 593.992188 Z M 78.488281 592.101562" stroke-linecap="round" />
</g>
<g transform="matrix(1.16 0 0 1.09 177.74 743.05)"  >
<path style="stroke: none; stroke-width: 1; stroke-dasharray: none; stroke-linecap: butt; stroke-dashoffset: 0; stroke-linejoin: miter; stroke-miterlimit: 4; fill: rgb(221,177,124); fill-rule: nonzero; opacity: 1;" vector-effect="non-scaling-stroke"  transform=" translate(-49.1, -594.71)" d="M 46.078125 594.714844 L 51.671875 597.945312 L 54.699219 599.691406 L 54.699219 601.175781 L 49.105469 597.945312 L 43.507812 594.714844 L 49.105469 591.484375 L 54.699219 588.253906 L 54.699219 589.738281 L 51.671875 591.484375 Z M 46.078125 594.714844" stroke-linecap="round" />
</g>
<g transform="matrix(1.16 0 0 1.09 158.65 743.05)"  >
<path style="stroke: none; stroke-width: 1; stroke-dasharray: none; stroke-linecap: butt; stroke-dashoffset: 0; stroke-linejoin: miter; stroke-miterlimit: 4; fill: rgb(221,177,124); fill-rule: nonzero; opacity: 1;" vector-effect="non-scaling-stroke"  transform=" translate(-32.74, -594.71)" d="M 29.707031 594.714844 L 35.304688 597.945312 L 38.332031 599.691406 L 38.332031 601.175781 L 32.734375 597.945312 L 27.140625 594.714844 L 32.734375 591.484375 L 38.332031 588.253906 L 38.332031 589.738281 L 35.304688 591.484375 Z M 29.707031 594.714844" stroke-linecap="round" />
</g>
<g transform="matrix(1.16 0 0 1.09 142.64 743.06)" clip-path="url(#CLIPPATH_193)"  >
<clipPath id="CLIPPATH_193" >
	<path transform="matrix(1 0 0 1 0.04 -0.21) translate(-19.05, -594.5)" d="M 16.09375 591 L 22 591 L 22 598 L 16.09375 598 Z M 16.09375 591" stroke-linecap="round" />
</clipPath>
<path style="stroke: none; stroke-width: 1; stroke-dasharray: none; stroke-linecap: butt; stroke-dashoffset: 0; stroke-linejoin: miter; stroke-miterlimit: 4; fill: rgb(221,177,124); fill-rule: nonzero; opacity: 1;" vector-effect="non-scaling-stroke"  transform=" translate(-19, -594.71)" d="M 16.039062 594.714844 C 16.039062 593.078125 17.367188 591.753906 19 591.753906 C 20.636719 591.753906 21.960938 593.078125 21.960938 594.714844 C 21.960938 596.347656 20.636719 597.675781 19 597.675781 C 17.367188 597.675781 16.039062 596.347656 16.039062 594.714844 Z M 16.039062 594.714844" stroke-linecap="round" />
</g>
<g transform="matrix(1.16 0 0 1.09 475.03 774.6)"  >
<path style="stroke: none; stroke-width: 1; stroke-dasharray: none; stroke-linecap: butt; stroke-dashoffset: 0; stroke-linejoin: miter; stroke-miterlimit: 4; fill: rgb(221,177,124); fill-rule: nonzero; opacity: 1;" vector-effect="non-scaling-stroke"  transform=" translate(-304.07, -623.54)" d="M 324.296875 636.476562 C 324.296875 636.476562 318.269531 632.261719 311.867188 626.9375 C 308.6875 634.726562 304.074219 641.644531 304.074219 641.644531 C 304.074219 641.644531 299.457031 634.726562 296.28125 626.9375 C 289.875 632.261719 283.851562 636.476562 283.851562 636.476562 C 283.851562 636.476562 279.914062 605.429688 304.074219 605.429688 C 328.234375 605.429688 324.296875 636.476562 324.296875 636.476562 Z M 324.296875 636.476562" stroke-linecap="round" />
</g>
<g transform="matrix(1.16 0 0 1.09 475.07 739.09)"  >
<path style="stroke: none; stroke-width: 1; stroke-dasharray: none; stroke-linecap: butt; stroke-dashoffset: 0; stroke-linejoin: miter; stroke-miterlimit: 4; fill: rgb(221,177,124); fill-rule: nonzero; opacity: 1;" vector-effect="non-scaling-stroke"  transform=" translate(-304.07, -591.1)" d="M 311.019531 586.660156 C 311.019531 586.660156 308.949219 588.105469 306.75 589.933594 C 305.660156 587.257812 304.074219 584.882812 304.074219 584.882812 C 304.074219 584.882812 302.488281 587.257812 301.398438 589.933594 C 299.199219 588.105469 297.128906 586.660156 297.128906 586.660156 C 297.128906 586.660156 295.777344 597.320312 304.074219 597.320312 C 312.371094 597.320312 311.019531 586.660156 311.019531 586.660156 Z M 311.019531 586.660156" stroke-linecap="round" />
</g>
</svg>