<?xml version="1.0" encoding="UTF-8" standalone="no" ?>
<!DOCTYPE svg PUBLIC "-//W3C//DTD SVG 1.1//EN" "http://www.w3.org/Graphics/SVG/1.1/DTD/svg11.dtd">
<svg xmlns="http://www.w3.org/2000/svg" xmlns:xlink="http://www.w3.org/1999/xlink" version="1.1" width="900" height="900" viewBox="0 0 900 900" xml:space="preserve">
<desc>Created with Fabric.js 5.2.4</desc>
<defs>
</defs>
<rect x="0" y="0" width="100%" height="100%" fill="transparent"></rect>
<g transform="matrix(Infinity NaN NaN Infinity 0 0)" id="b5403b26-5283-46f2-98a2-4d63520bf694"  >
</g>
<g transform="matrix(1 0 0 1 450 450)" id="63aca9df-7393-43b8-993f-b501cf7fe4ed"  >
<rect style="stroke: none; stroke-width: 1; stroke-dasharray: none; stroke-linecap: butt; stroke-dashoffset: 0; stroke-linejoin: miter; stroke-miterlimit: 4; fill: rgb(255,255,255); fill-rule: nonzero; opacity: 1; visibility: hidden;" vector-effect="non-scaling-stroke"  x="-450" y="-450" rx="0" ry="0" width="900" height="900" />
</g>
<g transform="matrix(1.93 0 0 1.93 430.05 450)" clip-path="url(#CLIPPATH_7)"  >
<clipPath id="CLIPPATH_7" >
	<path transform="matrix(1 0 0 1 -0.15 0.11) translate(-129.77, -663.97)" d="M 35.265625 567.59375 L 224.265625 567.59375 L 224.265625 760.34375 L 35.265625 760.34375 Z M 35.265625 567.59375" stroke-linecap="round" />
</clipPath>
<path style="stroke: none; stroke-width: 1; stroke-dasharray: none; stroke-linecap: butt; stroke-dashoffset: 0; stroke-linejoin: miter; stroke-miterlimit: 4; fill: rgb(221,177,124); fill-rule: nonzero; opacity: 1;" vector-effect="non-scaling-stroke"  transform=" translate(-129.91, -663.87)" d="M 44.503906 619.597656 C 44.503906 611.515625 53.9375 607.214844 60.75 607.214844 C 61.988281 607.214844 63.371094 607.433594 64.804688 607.789062 L 64.714844 627.519531 C 61.945312 628.074219 54.3125 630.851562 54.3125 644.691406 L 54.3125 743.925781 L 55.558594 743.925781 L 55.558594 644.691406 C 55.558594 631.941406 62.109375 629.3125 64.707031 628.769531 L 64.21875 733.644531 L 65.464844 733.652344 L 66.050781 608.128906 C 72.269531 609.960938 78.964844 613.929688 79.050781 613.980469 L 79.890625 613.105469 C 77.382812 609.292969 75.058594 605.460938 73.898438 601.003906 L 193.351562 601.003906 L 193.351562 599.757812 L 97.519531 599.757812 C 97.910156 597.527344 100.199219 590.214844 113.507812 590.214844 L 212.738281 590.214844 L 212.738281 588.96875 L 113.507812 588.96875 C 98.960938 588.96875 96.628906 597.40625 96.265625 599.757812 L 73.609375 599.757812 C 73.300781 598.25 73.121094 596.667969 73.121094 594.988281 C 73.121094 588.214844 77.449219 578.828125 85.574219 578.828125 L 224.265625 578.828125 L 224.265625 577.582031 L 85.574219 577.582031 C 77.378906 577.582031 71.875 586.582031 71.875 594.988281 C 71.875 596.664062 72.039062 598.25 72.328125 599.757812 L 64.84375 599.757812 L 64.84375 599.8125 C 64.4375 599.042969 64.046875 598.300781 63.671875 597.566406 C 62.5 595.273438 61.40625 592.949219 60.632812 590.484375 C 60.171875 589.03125 59.9375 587.601562 59.9375 586.191406 C 59.9375 584.089844 60.460938 582.03125 61.550781 580.019531 C 62.902344 577.511719 64.636719 575.28125 66.429688 573.089844 C 67.03125 572.351562 67.648438 571.632812 68.261719 570.902344 C 67.316406 571.34375 66.40625 571.832031 65.484375 572.300781 C 63.203125 573.464844 60.890625 574.550781 58.441406 575.324219 C 54.832031 576.472656 51.359375 576.246094 48 574.441406 C 45.324219 573.003906 42.964844 571.132812 40.636719 569.214844 C 40.03125 568.714844 39.433594 568.203125 38.835938 567.703125 C 38.824219 567.714844 38.8125 567.722656 38.800781 567.730469 C 39.347656 568.789062 39.910156 569.835938 40.445312 570.894531 C 41.574219 573.125 42.621094 575.390625 43.339844 577.792969 C 43.753906 579.167969 43.964844 580.519531 43.964844 581.855469 C 43.964844 583.8125 43.507812 585.734375 42.546875 587.621094 C 41.109375 590.441406 39.152344 592.890625 37.160156 595.316406 C 36.652344 595.929688 36.136719 596.535156 35.558594 597.21875 C 36.714844 596.617188 37.765625 596.058594 38.828125 595.515625 C 41.0625 594.390625 43.324219 593.34375 45.730469 592.621094 C 49.152344 591.59375 52.457031 591.8125 55.65625 593.46875 C 57.855469 594.605469 59.835938 596.054688 61.761719 597.59375 C 62.78125 598.410156 63.785156 599.257812 64.839844 600.132812 L 64.8125 606.507812 C 63.390625 606.171875 62.007812 605.964844 60.75 605.964844 C 52.300781 605.964844 43.257812 611.445312 43.257812 619.597656 L 43.257812 760.03125 L 44.503906 760.03125 Z M 56.226562 592.363281 C 52.824219 590.597656 49.171875 590.285156 45.371094 591.429688 C 43.558594 591.972656 41.832031 592.695312 40.265625 593.425781 C 41.535156 591.769531 42.703125 590.058594 43.660156 588.183594 C 44.6875 586.160156 45.210938 584.03125 45.210938 581.855469 C 45.210938 580.417969 44.984375 578.933594 44.535156 577.4375 C 43.992188 575.621094 43.269531 573.894531 42.535156 572.332031 C 44.050781 573.488281 45.660156 574.601562 47.410156 575.539062 C 50.980469 577.457031 54.820312 577.785156 58.816406 576.515625 C 60.519531 575.976562 62.144531 575.292969 63.636719 574.597656 C 62.519531 576.0625 61.398438 577.675781 60.453125 579.425781 C 59.28125 581.589844 58.6875 583.863281 58.6875 586.191406 C 58.6875 587.707031 58.941406 589.28125 59.441406 590.863281 C 59.980469 592.570312 60.664062 594.199219 61.363281 595.699219 C 59.875 594.558594 58.15625 593.359375 56.226562 592.363281 Z M 66.082031 601.003906 L 72.605469 601.003906 C 73.570312 604.921875 75.394531 608.347656 77.484375 611.671875 C 74.882812 610.273438 70.375 608.042969 66.054688 606.828125 Z M 66.082031 601.003906" stroke-linecap="round" />
</g>
</svg>