<?xml version="1.0" encoding="UTF-8" standalone="no" ?>
<!DOCTYPE svg PUBLIC "-//W3C//DTD SVG 1.1//EN" "http://www.w3.org/Graphics/SVG/1.1/DTD/svg11.dtd">
<svg xmlns="http://www.w3.org/2000/svg" xmlns:xlink="http://www.w3.org/1999/xlink" version="1.1" width="1080" height="1080" viewBox="0 0 1080 1080" xml:space="preserve">
<desc>Created with Fabric.js 5.2.4</desc>
<defs>
</defs>
<g transform="matrix(1 0 0 1 540 540)" id="85a3c8b4-058a-4670-8026-e7349cf1fe49"  >
<rect style="stroke: none; stroke-width: 1; stroke-dasharray: none; stroke-linecap: butt; stroke-dashoffset: 0; stroke-linejoin: miter; stroke-miterlimit: 4; fill: rgb(255,255,255); fill-rule: nonzero; opacity: 1; visibility: hidden;" vector-effect="non-scaling-stroke"  x="-540" y="-540" rx="0" ry="0" width="1080" height="1080" />
</g>
<g transform="matrix(1 0 0 1 540 540)" id="274cd198-a3f7-4a89-aebc-e58f81454203"  >
</g>
<g transform="matrix(1.33 0 0 1.33 945.37 1759.07)"  >
<rect style="stroke: none; stroke-width: 1; stroke-dasharray: none; stroke-linecap: butt; stroke-dashoffset: 0; stroke-linejoin: miter; stroke-miterlimit: 4; fill: rgb(255,255,255); fill-rule: nonzero; opacity: 1;" vector-effect="non-scaling-stroke"  x="-864" y="-485.999996" rx="0" ry="0" width="1728" height="971.999992" />
</g>
<g transform="matrix(1.33 0 0 1.33 782.63 1729.48)"  >
<rect style="stroke: none; stroke-width: 1; stroke-dasharray: none; stroke-linecap: butt; stroke-dashoffset: 0; stroke-linejoin: miter; stroke-miterlimit: 4; fill: rgb(245,245,245); fill-rule: nonzero; opacity: 1;" vector-effect="non-scaling-stroke"  x="-864" y="-485.999996" rx="0" ry="0" width="1728" height="971.999992" />
</g>
<g transform="matrix(1.33 0 0 1.33 504.07 779.95)" clip-path="url(#CLIPPATH_3)"  >
<clipPath id="CLIPPATH_3" >
	<path transform="matrix(1 0 0 1 -0.3 -16.82) translate(-384.5, -315.07)" id="69150" clip-path="url(#undefined)" d="M 220 299 L 549 299 L 549 331.140625 L 220 331.140625 Z M 220 299" stroke-linecap="round" />
</clipPath>
<path style="stroke: none; stroke-width: 1; stroke-dasharray: none; stroke-linecap: butt; stroke-dashoffset: 0; stroke-linejoin: miter; stroke-miterlimit: 4; fill: rgb(214,171,195); fill-rule: nonzero; opacity: 1;" vector-effect="non-scaling-stroke"  transform=" translate(-384.8, -331.89)" d="M 545.792969 305.316406 C 543.515625 305.027344 541.175781 305.21875 538.863281 305.203125 C 530.8125 305.8125 523.066406 303.445312 515.191406 302.496094 C 512.488281 302.171875 510.574219 301.605469 508.742188 303.8125 C 505.449219 306.496094 503.183594 304.527344 501.015625 302.109375 C 499.980469 301.332031 499.175781 300.097656 497.675781 300.199219 C 488.816406 300.800781 479.960938 298.949219 471.097656 300.144531 C 465.667969 301.964844 460.046875 300.890625 454.519531 301.199219 C 445.664062 301.695312 436.765625 300.425781 427.929688 301.847656 C 428.054688 302.066406 428.222656 302.242188 428.390625 302.414062 C 428.382812 302.414062 428.375 302.414062 428.367188 302.414062 C 428.222656 302.226562 428.078125 302.035156 427.929688 301.847656 C 424.640625 303.042969 421.25 303.320312 417.757812 303.277344 C 414.828125 303.238281 411.816406 302.652344 408.949219 303.847656 C 402.507812 305.90625 395.460938 305.148438 389.207031 308.089844 C 388.941406 308.152344 388.675781 308.199219 388.40625 308.230469 C 385.921875 309.273438 383.261719 308.871094 380.703125 309.21875 C 373.507812 310.195312 366.15625 310.425781 359.269531 313.109375 C 352.648438 314.261719 346.050781 315.578125 339.398438 316.507812 C 334.445312 317.199219 330.992188 321.914062 325.515625 321.148438 C 317.570312 320.039062 310.730469 324.175781 303.453125 326.21875 C 302.097656 327.695312 300.347656 328.117188 298.457031 327.914062 C 291.636719 327.175781 285.4375 329.203125 279.40625 332.054688 C 278.109375 331.507812 277.191406 332.046875 276.445312 333.085938 C 274.816406 334.050781 273.386719 335.222656 271.226562 335.222656 C 269.617188 335.222656 267.515625 335.445312 267.386719 337.949219 C 264.460938 339.726562 261.382812 334.859375 258.496094 338.15625 C 257.410156 338.695312 256.320312 339.238281 255.234375 339.777344 C 250.574219 339.199219 246.140625 339.945312 241.863281 341.898438 C 237.121094 344.066406 232.324219 346.109375 227.550781 348.207031 C 225.152344 349.082031 223.507812 350.941406 221.996094 352.816406 C 219.808594 355.535156 220.988281 358.734375 224.46875 360.0625 C 229.398438 363.777344 234.515625 365.59375 240.574219 362.429688 C 242.0625 361.652344 244.183594 361.78125 245.976562 361.9375 C 250.179688 362.3125 254.25 362.113281 258.0625 360.140625 C 263.285156 357.433594 269.59375 357.757812 274.503906 354.199219 C 274.5 353.824219 274.496094 353.445312 274.496094 353.066406 C 276.652344 352.898438 278.703125 352.402344 280.484375 351.089844 C 280.488281 351.089844 280.488281 351.089844 280.492188 351.089844 C 285.289062 350.945312 290.21875 351.457031 294.851562 350.511719 C 303.351562 348.78125 311.453125 345.496094 320.28125 344.796875 C 324.730469 344.445312 329.0625 342.316406 333.046875 339.875 C 334.785156 338.808594 334.402344 338.140625 333.234375 337.144531 C 332.738281 335.433594 332.703125 333.765625 333.519531 331.851562 C 334.777344 333.332031 334.523438 335.40625 336.363281 336.023438 C 337.539062 337.164062 337.734375 339.65625 340.300781 338.875 C 345.425781 340.234375 349.601562 336.882812 354.289062 336.066406 C 354.285156 336.066406 354.285156 336.066406 354.285156 336.066406 C 354.289062 336.066406 354.289062 336.066406 354.292969 336.066406 C 353.925781 336.683594 353.5625 337.304688 353.195312 337.921875 C 356.839844 336.5 360.792969 337.265625 364.503906 336.328125 C 364.347656 336.152344 364.195312 335.976562 364.039062 335.800781 C 364.058594 335.785156 364.0625 335.761719 364.078125 335.742188 C 364.21875 335.9375 364.363281 336.132812 364.503906 336.328125 C 373.015625 334.480469 381.628906 333.226562 390.292969 332.503906 C 392.878906 332.285156 395.503906 332.582031 398.144531 332.101562 C 409.886719 329.964844 421.429688 326.550781 433.546875 326.8125 C 436.796875 326.882812 440.15625 327.566406 443.339844 326.175781 C 449.828125 324.375 456.914062 324.292969 462.972656 322.019531 C 470.488281 319.195312 478.070312 320.855469 485.527344 319.121094 C 491.277344 317.785156 497.277344 315.941406 503.515625 316.53125 C 505.453125 316.714844 507.09375 315.015625 508.132812 313.1875 C 509.078125 312.859375 510.019531 312.53125 510.992188 313.089844 C 512.816406 316.421875 516.101562 315.40625 518.5625 314.984375 C 527.570312 313.4375 536.417969 310.953125 545.667969 310.890625 C 547.015625 310.882812 548.84375 310.34375 548.691406 308.324219 C 548.566406 306.675781 547.296875 305.507812 545.792969 305.316406 Z M 345.601562 316.066406 C 348.136719 315.542969 350.777344 315.21875 353.410156 314.871094 C 350.824219 315.375 348.210938 315.722656 345.601562 316.066406 Z M 329.464844 321.382812 C 330.429688 321.226562 331.386719 321.039062 332.335938 320.804688 C 331.40625 321.175781 330.457031 321.402344 329.464844 321.382812 Z M 364.199219 312.929688 C 364.199219 312.9375 364.199219 312.949219 364.199219 312.960938 C 364.191406 312.949219 364.1875 312.941406 364.179688 312.933594 C 364.1875 312.929688 364.191406 312.929688 364.199219 312.929688 Z M 257.332031 341.128906 C 257.335938 341.128906 257.34375 341.128906 257.347656 341.132812 C 257.34375 341.136719 257.339844 341.144531 257.335938 341.148438 C 257.332031 341.140625 257.332031 341.136719 257.332031 341.128906 Z M 261.429688 344.042969 C 261.511719 344.078125 261.597656 344.113281 261.683594 344.148438 C 261.636719 344.164062 261.59375 344.179688 261.546875 344.195312 C 261.503906 344.148438 261.472656 344.089844 261.429688 344.042969 Z M 273.453125 338.992188 C 273.425781 338.980469 273.40625 338.980469 273.378906 338.96875 C 273.402344 338.949219 273.421875 338.929688 273.445312 338.90625 C 273.445312 338.9375 273.449219 338.964844 273.453125 338.992188 Z M 268.484375 352.019531 C 268.484375 352.019531 268.488281 352.019531 268.488281 352.019531 C 268.480469 352.027344 268.46875 352.03125 268.460938 352.039062 C 268.46875 352.03125 268.476562 352.027344 268.484375 352.019531 Z M 279.496094 333.023438 C 279.453125 333.019531 279.414062 333.027344 279.371094 333.023438 C 279.371094 333.023438 279.417969 333.0625 279.417969 333.0625 C 279.40625 333.070312 279.398438 333.078125 279.382812 333.085938 C 279.378906 333.066406 279.375 333.042969 279.371094 333.023438 C 279.378906 332.925781 279.378906 332.828125 279.382812 332.730469 C 279.40625 332.832031 279.445312 332.929688 279.496094 333.023438 Z M 279.496094 333.023438" stroke-linecap="round" />
</g>
<g transform="matrix(1.33 0 0 1.33 688.31 759.94)" clip-path="url(#CLIPPATH_4)"  >
<clipPath id="CLIPPATH_4" >
	<rect transform="matrix(1 0 0 1 -123.26 -125.51)" id="10" x="-433" y="-182.5" rx="0" ry="0" width="866" height="365" />
</clipPath>
<path style="stroke: none; stroke-width: 1; stroke-dasharray: none; stroke-linecap: butt; stroke-dashoffset: 0; stroke-linejoin: miter; stroke-miterlimit: 4; fill: rgb(214,171,195); fill-rule: nonzero; opacity: 1;" vector-effect="non-scaling-stroke"  transform=" translate(-556.26, -308.01)" d="M 558.15625 305.976562 C 556.035156 304.410156 553.414062 304.617188 551.078125 305.765625 C 549.894531 306.347656 549.726562 307.601562 550.375 308.792969 C 551.859375 311.53125 554.484375 311.148438 557.535156 311.136719 C 558.886719 310.65625 561.9375 312.175781 562.46875 309.273438 C 562.941406 306.664062 559.640625 307.070312 558.15625 305.976562 Z M 558.15625 305.976562" stroke-linecap="round" />
</g>
<g transform="matrix(1.33 0 0 1.33 -43.18 632.57)" clip-path="url(#CLIPPATH_5)"  >
<clipPath id="CLIPPATH_5" >
	<rect transform="matrix(1 0 0 1 425.36 -29.98)" id="10" x="-433" y="-182.5" rx="0" ry="0" width="866" height="365" />
</clipPath>
<path style="stroke: none; stroke-width: 1; stroke-dasharray: none; stroke-linecap: butt; stroke-dashoffset: 0; stroke-linejoin: miter; stroke-miterlimit: 4; fill: rgb(214,171,195); fill-rule: nonzero; opacity: 1;" vector-effect="non-scaling-stroke"  transform=" translate(-7.64, -212.48)" d="M 9.894531 212.277344 C 8.035156 211.492188 6.511719 210.316406 5.1875 208.765625 C 4.804688 208.316406 3.636719 208.324219 2.890625 208.460938 C 2.199219 208.585938 1.78125 209.53125 2.355469 209.980469 C 3.917969 211.203125 3.140625 214.089844 5.691406 214.515625 C 6.5625 215.804688 7.753906 216.511719 9.328125 216.566406 C 11.003906 216.621094 12.867188 216.621094 13.160156 214.550781 C 13.511719 212.085938 11.527344 212.273438 9.894531 212.277344 Z M 9.894531 212.277344" stroke-linecap="round" />
</g>
<g transform="matrix(1.19 0 0 1.19 540 561.84)" clip-path="url(#CLIPPATH_6)"  >
<clipPath id="CLIPPATH_6" >
	<path transform="matrix(1 0 0 1 0.06 17) translate(-434.24, -177.45)" id="cb3200b8cc" clip-path="url(#undefined)" d="M 5 34.890625 L 863.484375 34.890625 L 863.484375 320 L 5 320 Z M 5 34.890625" stroke-linecap="round" />
</clipPath>
<path style="stroke: none; stroke-width: 1; stroke-dasharray: none; stroke-linecap: butt; stroke-dashoffset: 0; stroke-linejoin: miter; stroke-miterlimit: 4; fill: rgb(214,171,195); fill-rule: nonzero; opacity: 1;" vector-effect="non-scaling-stroke"  transform=" translate(-434.18, -160.44)" d="M 863.160156 174.601562 C 859.824219 171.96875 855.953125 173.878906 852.363281 173.355469 C 850.785156 173.125 848.699219 174.046875 847.730469 172.46875 C 844.238281 166.78125 837.386719 165.167969 833.324219 160.238281 C 838.820312 156.292969 838.820312 156.289062 832.859375 152.378906 C 832.449219 152.109375 831.957031 151.945312 831.582031 151.636719 C 826.941406 147.835938 827.527344 145.613281 832.542969 142.148438 C 835.398438 140.171875 839.34375 141.703125 841.457031 138.535156 C 843.03125 138.914062 844.523438 138.597656 845.609375 137.46875 C 848.328125 134.648438 851.070312 131.953125 855.917969 132 C 853.441406 128.460938 849.929688 128.007812 847.222656 126.347656 C 845.703125 125.421875 843.953125 124.746094 845.003906 122.726562 C 846.832031 119.195312 844.339844 117.355469 842.3125 115.59375 C 839.667969 113.300781 837.1875 110.890625 834.929688 108.238281 C 830.015625 102.464844 820.222656 100.757812 813.535156 104.527344 C 809.417969 105.371094 807.914062 100.871094 808.433594 99.660156 C 810.605469 94.585938 806.714844 92.363281 804.699219 89.214844 C 804.527344 89.398438 804.359375 89.578125 804.191406 89.761719 C 804.179688 89.746094 804.164062 89.734375 804.152344 89.722656 C 804.164062 89.726562 804.175781 89.730469 804.191406 89.738281 C 804.359375 89.5625 804.53125 89.386719 804.699219 89.214844 C 803.570312 85.726562 800.359375 84.039062 797.5 83.832031 C 785.796875 82.980469 776.949219 73.851562 765.277344 73.132812 C 764.457031 73.082031 763.621094 72.09375 762.925781 71.40625 C 759.753906 68.261719 758.476562 69.320312 758.464844 73.351562 C 757.921875 73.800781 757.375 74.25 756.828125 74.699219 C 754.183594 74.8125 751.246094 71.847656 749 74.773438 C 747.582031 76.621094 745.703125 77.246094 743.929688 78.207031 C 743.785156 78.25 743.636719 78.320312 743.484375 78.449219 C 738.125 81.417969 733.824219 76.863281 728.945312 76.394531 C 724.589844 75.980469 722.300781 71.398438 718.382812 70.695312 C 714.832031 70.058594 711.648438 69.117188 708.835938 66.984375 C 706.765625 65.410156 704.78125 65.019531 702.410156 66.320312 C 698.371094 68.542969 693.4375 68.523438 689.902344 66.972656 C 685.683594 65.128906 684.285156 66.824219 682.324219 69.414062 C 681.792969 70.117188 681.582031 71.425781 680.171875 70.863281 C 678.960938 67.707031 679.351562 66.367188 683.214844 64.871094 C 687.78125 63.105469 692.539062 64.894531 696.757812 62.691406 C 698.242188 61.339844 700.125 61.667969 701.890625 61.394531 C 706.574219 60.664062 711.238281 59.832031 715.90625 59.015625 C 716.8125 58.9375 717.71875 58.792969 718.621094 58.542969 C 723.988281 57.300781 729.445312 57.574219 734.890625 57.433594 C 737.796875 57.359375 740.847656 58.34375 743.609375 56.617188 C 744.246094 56.242188 744.878906 55.867188 745.515625 55.492188 C 747.121094 55.808594 748.734375 56.070312 750.324219 56.449219 C 751.9375 56.835938 754.191406 56.453125 754.058594 55.144531 C 753.648438 51.148438 756.695312 51.667969 758.753906 50.804688 C 758.605469 50.621094 758.453125 50.4375 758.304688 50.253906 C 758.3125 50.242188 758.320312 50.234375 758.332031 50.222656 C 758.472656 50.417969 758.613281 50.613281 758.753906 50.804688 C 769.140625 47.960938 779.613281 45.625 790.449219 45.429688 C 796.546875 46.351562 802.554688 44.15625 808.679688 44.992188 C 812.097656 45.460938 815.585938 45.453125 819.046875 45.539062 C 820.371094 45.570312 821.964844 45.347656 822.03125 43.636719 C 822.101562 41.875 820.511719 41.695312 819.179688 41.597656 C 816.710938 41.414062 813.988281 41.945312 811.804688 41.082031 C 801.355469 36.9375 790.074219 38.175781 779.359375 35.753906 C 775.613281 34.90625 771.371094 36.21875 768.355469 32.714844 C 766.628906 32.261719 764.691406 32.164062 763.210938 31.292969 C 759.273438 28.972656 755.207031 27.746094 750.640625 28.453125 C 749.644531 27.222656 748.390625 26.480469 746.78125 26.523438 C 742.453125 26.644531 738.714844 24.207031 734.53125 23.71875 C 729.035156 20.769531 722.664062 22.480469 716.910156 20.273438 C 712.523438 18.589844 707.542969 18.5625 702.914062 17.679688 C 696.796875 16.507812 691.058594 13.933594 685.09375 17.960938 C 684.214844 18.550781 682.804688 18.046875 681.648438 18.144531 C 677.492188 18.488281 673.246094 16.628906 669.441406 17.253906 C 663.777344 18.175781 658.203125 17.855469 652.59375 18.121094 C 650.785156 18.207031 648.988281 17.957031 647.46875 19.429688 C 643.683594 23.101562 638.554688 22.894531 633.859375 23.941406 C 633.230469 23.699219 632.585938 23.523438 631.933594 23.367188 C 631.011719 22.691406 629.914062 22.613281 628.789062 22.628906 C 628.21875 22.464844 627.65625 22.273438 627.113281 22.023438 C 626.636719 21.820312 626.140625 21.699219 625.621094 21.671875 C 625.265625 21.71875 624.910156 21.753906 624.550781 21.785156 C 619.753906 20.433594 614.679688 21.433594 609.820312 20.617188 C 609.398438 21.015625 608.953125 21.253906 608.488281 21.402344 C 608 21.457031 607.515625 21.527344 607.03125 21.617188 C 605.980469 21.632812 604.894531 21.46875 603.871094 21.65625 C 598.234375 22.140625 592.460938 20.433594 586.929688 22.695312 C 586.929688 22.691406 586.933594 22.691406 586.933594 22.6875 C 584.234375 23.277344 581.535156 23.867188 578.835938 24.457031 C 581.65625 24.445312 584.804688 25.917969 586.925781 22.703125 C 587.507812 22.753906 588.09375 22.804688 588.679688 22.855469 C 588.738281 23.125 588.761719 23.398438 588.75 23.675781 C 586.902344 25.296875 584.742188 25.738281 582.304688 25.722656 C 574.597656 25.667969 566.8125 25.167969 559.210938 26.089844 C 555.847656 26.5 551.929688 24.652344 548.925781 27.609375 C 548.242188 26.992188 547.398438 26.851562 546.628906 27.214844 C 543.25 28.804688 539.988281 28.433594 536.765625 27.152344 C 536.824219 27.117188 536.882812 27.085938 536.941406 27.050781 C 536.691406 27.019531 536.4375 26.964844 536.1875 26.90625 C 536.011719 26.832031 535.839844 26.769531 535.667969 26.6875 C 535.460938 26.640625 535.25 26.621094 535.042969 26.578125 C 532.359375 25.683594 529.679688 24.1875 526.941406 26.90625 C 527.054688 26.984375 527.167969 27.058594 527.28125 27.132812 C 525.210938 27.941406 523.195312 28.910156 520.957031 29.222656 C 520.003906 29.316406 519.050781 29.394531 518.105469 29.542969 C 517.640625 29.625 517.179688 29.730469 516.726562 29.882812 C 512.019531 32.359375 507.3125 30.394531 502.609375 29.898438 C 502.570312 29.90625 502.53125 29.910156 502.492188 29.917969 C 502.652344 29.785156 502.8125 29.65625 502.972656 29.523438 C 502.992188 29.261719 503.027344 28.996094 503.074219 28.738281 C 502.25 28.640625 501.476562 28.457031 501.03125 27.699219 C 501.390625 27.636719 501.75 27.585938 502.101562 27.476562 C 505.972656 25.800781 509.964844 26.457031 513.9375 26.855469 C 515.769531 26.824219 517.480469 26.238281 519.199219 25.691406 C 520.914062 25.058594 522.507812 24.152344 524.160156 23.382812 C 533.828125 22.503906 543.800781 24.039062 553.074219 19.910156 C 553.085938 20.007812 553.070312 20.09375 553.113281 20.207031 C 553.398438 20.296875 553.675781 20.402344 553.945312 20.535156 C 555.566406 19.910156 557.53125 21.328125 558.984375 19.691406 C 558.984375 19.691406 558.984375 19.691406 558.984375 19.6875 C 558.984375 19.6875 558.96875 19.703125 558.96875 19.703125 C 559.074219 19.628906 559.183594 19.558594 559.292969 19.488281 C 561.785156 20.414062 564.320312 19.433594 566.171875 18.363281 C 568.820312 16.835938 570.773438 17.085938 573.042969 18.492188 C 574.867188 18.832031 576.472656 18.625 578.195312 17.625 C 581.960938 15.433594 587.054688 13.964844 590.363281 15.25 C 596.066406 17.464844 600.699219 14.199219 605.808594 14.59375 C 606.035156 14.222656 606.054688 13.882812 605.890625 13.574219 C 607.132812 13.324219 608.371094 13.023438 609.625 12.859375 C 611.25 12.644531 613.285156 12.777344 613.621094 10.785156 C 613.9375 8.914062 611.808594 8.371094 610.605469 8.078125 C 603.09375 6.246094 596.0625 1.832031 587.84375 3.621094 C 583.445312 6.742188 579.171875 9.058594 575.472656 2.613281 C 574.445312 0.820312 572.667969 0.53125 570.796875 1.574219 C 568.582031 4.445312 564.007812 2.898438 561.976562 6.296875 C 561.65625 6.832031 560.210938 6.4375 560.007812 5.5 C 559.332031 2.386719 556.953125 2.789062 554.890625 3.078125 C 547.929688 4.058594 540.957031 3.285156 533.992188 3.433594 C 530.335938 3.507812 526.675781 3.367188 523.203125 4.816406 C 523.164062 4.824219 523.125 4.828125 523.085938 4.835938 C 523.097656 4.792969 523.113281 4.765625 523.125 4.722656 C 522.683594 4.179688 522.15625 4.078125 521.542969 4.417969 C 514.597656 4.496094 507.523438 3.328125 500.746094 4.972656 C 494.386719 6.515625 487.925781 7.625 481.53125 8.089844 C 474.628906 8.589844 467.78125 9.824219 461.070312 10.847656 C 451.347656 12.332031 441.488281 13.660156 431.859375 16.191406 C 420.886719 19.078125 409.441406 19.324219 398.1875 20.582031 C 398.015625 20.925781 397.992188 21.234375 398.085938 21.515625 C 395.253906 24.347656 391.488281 22.828125 388.214844 23.601562 C 384.222656 25.90625 378.929688 24.171875 375.34375 27.742188 C 373.414062 29.6875 372.546875 32.460938 369.875 33.886719 C 365.921875 35.996094 364.746094 35.640625 363.984375 31.320312 C 363.867188 30.648438 363.710938 30.070312 363.296875 29.550781 C 361.953125 29.539062 360.609375 29.527344 359.265625 29.519531 C 359.265625 29.515625 359.265625 29.515625 359.265625 29.515625 C 356.464844 28.851562 353.878906 29.722656 351.292969 30.613281 C 351.277344 30.265625 351.265625 29.914062 351.253906 29.566406 C 346.765625 29.15625 342.535156 31.464844 338.335938 31.449219 C 329.921875 31.425781 324.566406 34.445312 322.476562 42.71875 C 324.609375 42.714844 325.144531 41.25 325.359375 39.527344 C 325.523438 38.207031 325.703125 36.925781 327.3125 36.574219 C 324.910156 44.617188 328.984375 49.617188 335.292969 53.566406 C 335.316406 53.898438 335.320312 54.226562 335.304688 54.558594 C 335.46875 54.734375 335.628906 54.910156 335.796875 55.085938 C 337.140625 55.621094 338.574219 55.890625 339.960938 56.304688 C 338.308594 56.125 336.714844 56.183594 335.195312 56.519531 C 335.367188 56.097656 335.414062 55.480469 335.28125 54.578125 L 335.304688 54.558594 C 334.695312 54.488281 334.089844 54.417969 333.484375 54.347656 C 333.085938 55.066406 332.6875 55.785156 332.292969 56.503906 C 332.726562 56.742188 333.109375 56.902344 333.464844 57.019531 C 332.03125 57.558594 330.667969 58.371094 329.382812 59.496094 C 327.761719 59.515625 326.207031 59.664062 325.414062 61.347656 C 325.117188 61.140625 324.820312 60.921875 324.523438 60.714844 C 323.0625 60.203125 321.597656 60.273438 320.128906 60.699219 C 313.023438 62.753906 306.4375 66.273438 299.339844 68.28125 C 295.542969 69.351562 292.195312 72.523438 288.457031 72.195312 C 285.1875 71.90625 282.5 71.847656 279.222656 72.824219 C 276.941406 73.503906 274.601562 73.972656 272.238281 74.375 C 272.714844 73.972656 273.179688 73.503906 273.625 72.921875 C 273.46875 72.679688 273.3125 72.441406 273.15625 72.199219 C 270.59375 72.652344 268.03125 73.105469 265.46875 73.558594 C 265.445312 73.867188 265.429688 74.171875 265.417969 74.480469 C 265.914062 74.804688 266.390625 75.039062 266.863281 75.230469 C 259.996094 76.3125 253.203125 77.667969 247.445312 82.585938 C 245.976562 83.84375 243.574219 82.929688 241.605469 83.003906 C 238.832031 83.109375 236.121094 83.433594 233.453125 83.941406 C 233.625 83.554688 233.722656 83.113281 233.699219 82.644531 C 232.996094 82.617188 232.289062 82.585938 231.585938 82.558594 C 228.09375 84.652344 223.253906 82.5625 220.253906 86.191406 C 213.429688 87.539062 207.492188 92.101562 200.90625 93.007812 C 194.121094 93.941406 188.417969 96.597656 182.484375 99.253906 C 179.648438 102.363281 175.570312 100.726562 172.316406 101.890625 C 157.539062 107.171875 142.449219 111.710938 128.703125 119.542969 C 123.429688 119.414062 118.765625 121.09375 114.628906 124.316406 C 115.304688 124.34375 115.976562 124.367188 116.648438 124.394531 C 114.449219 127.578125 111.488281 130.679688 115.546875 134.539062 C 116.105469 136.972656 116.019531 137.113281 112.699219 139.066406 C 112.613281 139.234375 112.542969 139.414062 112.464844 139.589844 C 108.566406 142.160156 105.941406 138.265625 102.707031 137.457031 C 102.398438 137.394531 102.089844 137.367188 101.773438 137.375 C 101.128906 136.558594 100.230469 135.882812 99.285156 136.203125 C 98.9375 136.320312 98.90625 137.371094 98.785156 138.144531 C 98.6875 138.160156 98.589844 138.152344 98.496094 138.183594 C 98.488281 138.1875 98.484375 138.191406 98.480469 138.195312 C 98.351562 138.117188 98.214844 138.082031 98.078125 138.078125 C 99.097656 136.304688 98.8125 134.253906 98.910156 132.285156 C 98.488281 132.015625 98.050781 131.980469 97.597656 132.1875 C 92.886719 134.175781 88.175781 136.167969 83.46875 138.160156 C 83.46875 138.160156 83.464844 138.160156 83.464844 138.160156 C 77.273438 141.425781 70.949219 144.484375 65.800781 149.390625 C 61.742188 151.050781 61.371094 156.945312 56.179688 157.707031 C 60.617188 157.332031 64.632812 155.769531 68.753906 154.863281 C 68.832031 154.859375 68.90625 154.855469 68.980469 154.855469 C 69.09375 154.84375 69.167969 154.78125 69.265625 154.75 C 70.085938 154.582031 70.914062 154.433594 71.75 154.335938 C 73.597656 152.90625 76.054688 153.714844 78.003906 152.652344 C 77.835938 152.453125 77.671875 152.253906 77.511719 152.050781 C 77.515625 152.046875 77.519531 152.042969 77.523438 152.035156 C 77.523438 152.039062 77.523438 152.039062 77.523438 152.042969 C 77.683594 152.246094 77.84375 152.449219 78.003906 152.652344 C 78.714844 152.9375 78.628906 153.5 78.503906 154.078125 C 76.964844 155.199219 75.421875 156.320312 73.878906 157.441406 C 71.90625 157.386719 69.347656 156.488281 68.113281 157.96875 C 64.6875 162.0625 60.105469 163.269531 55.3125 164.417969 C 51.757812 165.265625 49.953125 169.125 46.984375 170.347656 C 34.214844 175.609375 25.867188 187.519531 12.96875 192.429688 C 11.195312 193.613281 9.394531 194.757812 7.65625 195.984375 C 4.453125 198.25 4.285156 204.648438 7.742188 205.933594 C 11.292969 207.25 14.824219 210.710938 19.230469 207.484375 C 20.113281 206.835938 21.84375 206.992188 23.09375 207.242188 C 29.625 208.558594 35.335938 206.585938 40.722656 203.128906 C 40.722656 203.128906 40.722656 203.125 40.722656 203.125 C 45.628906 200.835938 50.503906 198.480469 55.449219 196.277344 C 65.25 191.910156 75.621094 189.289062 86.214844 188.519531 C 93.824219 187.96875 101.359375 187.445312 109.199219 186.078125 C 104.84375 189.144531 101.972656 193.546875 98.417969 197.351562 C 95.289062 200.695312 90.714844 201.890625 87.8125 205.375 C 87.191406 206.117188 85.769531 205.871094 85.597656 207.164062 C 82.269531 211.460938 80.484375 216.941406 75.683594 220.113281 C 75.074219 220.183594 74.464844 220.257812 73.855469 220.328125 C 69.34375 222.96875 69.515625 228.3125 67.066406 232.160156 C 63.429688 237.875 62.40625 245.5 54.929688 248.328125 C 52.863281 250.871094 49.921875 252.425781 47.835938 255.054688 C 45.394531 258.132812 46.253906 260.023438 48.988281 261.894531 C 53.46875 264.964844 53.480469 264.96875 48.441406 267.453125 C 47.417969 267.960938 46.351562 268.386719 45.304688 268.847656 C 45.304688 268.847656 45.304688 268.847656 45.304688 268.851562 C 40.570312 270.585938 37.351562 273.933594 35.96875 278.675781 C 35.09375 281.675781 34.183594 284.667969 33.734375 287.882812 C 33.003906 293.121094 36.742188 303.601562 41.628906 306.25 C 41.628906 306.25 41.632812 306.25 41.632812 306.25 C 42.699219 307.609375 43.859375 308.847656 45.613281 309.308594 C 45.613281 309.308594 45.613281 309.308594 45.613281 309.3125 C 48.972656 311.660156 50.53125 308.214844 52.804688 307.078125 C 57.976562 305.257812 63.847656 305.046875 67.804688 300.453125 C 68.871094 299.214844 70.40625 299.289062 71.914062 299.105469 C 81.996094 297.855469 92.191406 297.269531 102 294.304688 C 104.277344 292.074219 107.570312 295.808594 109.371094 293.390625 C 111.171875 290.976562 111.679688 292.425781 112.753906 293.703125 C 113.507812 294.605469 114.519531 295.222656 115.816406 295.015625 C 118.707031 296.953125 121.847656 300.890625 125.179688 296.988281 C 130.140625 291.183594 136.847656 292.660156 142.410156 292.925781 C 148.398438 293.210938 155.039062 295 159.578125 300.1875 C 164.761719 301.574219 169.796875 303.320312 175.359375 303.191406 C 180.511719 303.074219 185.472656 301.683594 190.445312 301.382812 C 196.9375 300.992188 203.050781 299.230469 209.347656 298.210938 C 210.347656 298.046875 211.136719 297.386719 211.777344 298.707031 C 212.367188 299.921875 212.183594 300.726562 211.160156 301.730469 C 208.546875 304.289062 205.53125 306.207031 202.347656 307.914062 C 200.765625 309.394531 198.886719 311.21875 200.015625 313.3125 C 201.125 315.363281 203.21875 313.382812 204.890625 313.210938 C 208.488281 312.847656 212.070312 312.839844 215.546875 314.0625 C 218.90625 314.382812 222.375 314.484375 223.117188 318.941406 C 223.222656 319.582031 224 319.800781 224.707031 319.644531 C 224.914062 319.851562 225.164062 319.9375 225.457031 319.902344 C 229.621094 320.011719 233.074219 318.007812 236.582031 316.171875 C 237.203125 316.125 237.828125 316.074219 238.449219 316.027344 C 240.289062 316.332031 241.332031 314.621094 242.902344 314.257812 C 242.90625 314.257812 242.910156 314.257812 242.910156 314.257812 C 248.625 311.703125 254.5625 310.039062 260.847656 309.667969 C 261.535156 309.628906 262.175781 308.769531 262.839844 308.289062 C 265.183594 308.707031 266.007812 307.34375 266.53125 305.351562 C 266.867188 304.0625 267.769531 302.585938 269.289062 303.25 C 273.875 305.257812 277.429688 302.101562 281.421875 301.171875 C 287.054688 301.039062 292.332031 299.535156 297.355469 297.050781 C 302.667969 296.175781 308.09375 295.710938 313.253906 294.28125 C 316.644531 293.339844 320.242188 295.527344 323.328125 293.117188 C 328.25 293.296875 331.621094 289.296875 336.226562 288.425781 C 344.074219 286.9375 352.214844 286.695312 359.628906 283.1875 C 361.535156 282.285156 363.609375 281.257812 365.648438 281.167969 C 377.652344 280.636719 389.355469 278.128906 401.148438 276.195312 C 403.578125 276.867188 405.726562 276.320312 407.625 274.703125 C 410.21875 272.496094 413.304688 272.496094 416.503906 272.457031 C 425.628906 272.355469 434.867188 273.945312 443.839844 270.824219 C 444.589844 270.5625 445.675781 271.257812 446.605469 271.511719 C 453.003906 273.246094 459.269531 272.832031 465.398438 270.324219 C 465.402344 270.324219 465.402344 270.324219 465.402344 270.324219 C 470.824219 270.464844 476.296875 271.089844 481.296875 268.097656 C 483.105469 267.015625 485.046875 267.507812 487.054688 267.628906 C 494.378906 268.074219 501.730469 269.082031 508.984375 266.550781 C 511.542969 265.65625 514.324219 265.335938 517.261719 266.054688 C 520.246094 266.789062 523.230469 266.386719 526.382812 265.125 C 535.925781 261.296875 545.957031 261.835938 555.949219 263.109375 C 556.386719 264.65625 557.578125 265.125 558.996094 265.167969 C 568.851562 265.453125 578.644531 265.691406 588.527344 266.800781 C 600.324219 268.128906 612.554688 266.59375 624.332031 268.445312 C 633.832031 269.941406 643.320312 268.507812 652.933594 270.6875 C 661.832031 272.703125 671.53125 271.816406 680.863281 273.042969 C 686.75 273.816406 692.820312 273.1875 698.808594 273.195312 C 710.542969 273.214844 722.253906 272.855469 733.929688 275 C 739.792969 276.074219 745.9375 274.6875 752.40625 276.296875 C 751.46875 273.730469 750.417969 272.59375 748.832031 271.9375 C 742.074219 268.691406 734.324219 269.796875 727.453125 267.066406 C 724.542969 265.910156 721.492188 263.945312 718.496094 265.566406 C 716.234375 266.789062 714.824219 265.976562 713.101562 265.144531 C 711.03125 264.144531 709.078125 262.625 706.898438 262.1875 C 703.160156 261.433594 699.613281 258.367188 695.777344 260.007812 C 693.789062 260.855469 692.324219 260.171875 690.625 260.230469 C 690.625 260.230469 690.625 260.234375 690.625 260.234375 C 683.980469 259.066406 677.542969 256.515625 670.613281 257.265625 C 668.882812 256.074219 666.738281 255.339844 664.972656 256.1875 C 661.167969 258.015625 658.511719 256.230469 655.777344 254.117188 C 651.632812 250.488281 646.9375 251.675781 642.527344 253.0625 C 639.4375 254.035156 638.003906 253.65625 637.820312 250.332031 C 644.839844 249.410156 651.796875 247.953125 658.929688 247.996094 C 659.515625 248 660.101562 247.46875 660.691406 247.183594 C 667.484375 248.179688 674.164062 245.667969 680.953125 246.507812 C 680.953125 246.507812 680.953125 246.503906 680.953125 246.503906 C 682.734375 245.839844 683.570312 244.449219 684.410156 242.320312 C 682.136719 242.320312 680.371094 242.320312 678.605469 242.320312 C 678.023438 242.339844 677.445312 242.359375 676.863281 242.378906 C 676.863281 242.378906 676.867188 242.378906 676.867188 242.378906 C 675.886719 242.910156 674.910156 243.441406 673.933594 243.976562 C 673.933594 243.972656 673.933594 243.972656 673.933594 243.972656 C 672.761719 243.464844 671.585938 242.960938 670.414062 242.453125 C 677.210938 241.351562 682.839844 236.929688 689.664062 237.175781 C 691.332031 236.324219 693 235.472656 694.664062 234.621094 C 698.351562 233.445312 701.792969 237.152344 705.519531 235.160156 C 705.53125 234.84375 705.648438 234.574219 705.867188 234.34375 C 708.414062 233.730469 711.609375 235.910156 713.519531 232.5625 C 710.695312 231.019531 707.757812 231.761719 704.835938 232.136719 C 704.84375 232.105469 704.851562 232.09375 704.859375 232.054688 C 704.90625 231.785156 704.769531 231.542969 704.445312 231.335938 C 703.84375 230.992188 703.238281 230.648438 702.636719 230.304688 C 700.292969 228.632812 697.960938 228.589844 695.636719 230.34375 C 695.304688 230.640625 694.96875 230.9375 694.636719 231.234375 C 692.578125 231.261719 690.519531 231.292969 688.464844 231.320312 C 688.164062 231.128906 687.867188 230.941406 687.566406 230.75 C 684.195312 228.421875 679.921875 230.601562 676.492188 228.535156 C 675.445312 227.953125 674.371094 227.472656 673.128906 227.546875 C 671.414062 227.886719 669.699219 228.214844 667.984375 227.59375 C 667.328125 227.433594 666.667969 227.355469 665.992188 227.425781 C 665.546875 227.511719 665.132812 227.683594 664.753906 227.941406 C 664.71875 227.941406 664.6875 227.976562 664.652344 228.03125 C 662.3125 227.738281 659.890625 228.335938 657.609375 227.402344 C 657.050781 227.132812 656.484375 226.882812 655.90625 226.660156 C 655.921875 226.445312 655.871094 226.230469 655.753906 226.007812 C 655.410156 225.707031 655.027344 225.480469 654.589844 225.324219 C 654.550781 225.3125 654.515625 225.304688 654.476562 225.292969 C 654.246094 224.476562 654.292969 223.867188 654.546875 223.410156 C 655.085938 223.023438 655.667969 222.707031 656.253906 222.40625 C 656.691406 222.328125 657.175781 222.28125 657.726562 222.28125 C 657.730469 222.210938 657.734375 222.140625 657.734375 222.070312 C 657.875 222.160156 658.011719 222.246094 658.152344 222.34375 C 660.585938 223.691406 663.265625 223.675781 665.914062 223.558594 C 668.945312 223.425781 672.136719 223.574219 674.679688 224.875 C 678.390625 226.773438 681.535156 227.429688 685.277344 225.109375 C 686.917969 224.089844 689.390625 224.175781 690.984375 225.484375 C 693.277344 227.363281 695.765625 227.132812 698.03125 226.355469 C 701.472656 225.175781 704.421875 225.894531 707.503906 227.332031 C 710.070312 228.527344 713.070312 229.652344 715.605469 228.246094 C 716.339844 227.839844 717.042969 227.597656 717.726562 227.453125 C 717.3125 227.84375 716.898438 228.347656 716.488281 229.070312 C 716.628906 229.234375 716.769531 229.40625 716.90625 229.574219 C 718.117188 229.511719 719.332031 229.453125 720.546875 229.394531 C 720.554688 230.261719 720.566406 231.128906 720.574219 231.996094 C 719.875 232.285156 718.570312 232.320312 718.902344 233.308594 C 719.566406 235.253906 721.339844 234.183594 722.675781 234.28125 C 724.503906 234.605469 726.636719 235.527344 726.597656 232.25 C 726.613281 231.925781 726.625 231.601562 726.628906 231.28125 C 727.574219 231.300781 728.523438 231.320312 729.46875 231.339844 C 729.347656 232.207031 728.246094 233.121094 729.410156 233.925781 C 730.125 234.421875 731.023438 234.257812 731.601562 233.582031 C 732.660156 232.347656 730.851562 232.136719 730.710938 231.308594 C 731.328125 231.273438 731.941406 231.238281 732.558594 231.203125 C 734.265625 231.183594 735.976562 231.164062 737.6875 231.144531 C 737.683594 231.144531 737.683594 231.144531 737.683594 231.140625 C 737.6875 231.144531 737.6875 231.144531 737.6875 231.144531 C 741.25 231.058594 744.679688 230.769531 748.269531 229.980469 C 752.457031 229.054688 756.90625 227.71875 761.421875 228.308594 C 762.503906 229.421875 764.21875 229.753906 765.007812 228.785156 C 768.359375 224.660156 772.878906 225.253906 777.308594 225.238281 C 778.683594 225.234375 780.316406 224.902344 780.878906 223.792969 C 783.496094 218.628906 790.753906 224.105469 792.980469 218.363281 C 798.050781 220.945312 800.359375 216.652344 803.398438 214.179688 C 806.535156 211.273438 811.417969 210.617188 813.5 206.347656 C 819.339844 203.847656 823.300781 198.351562 829.453125 196.34375 C 832.15625 197.238281 834.289062 195.421875 835.371094 193.820312 C 838.136719 189.730469 842.300781 188.171875 846.410156 186.328125 C 851.75 182.511719 857.070312 178.664062 863.164062 176.078125 C 863.164062 175.585938 863.160156 175.09375 863.160156 174.601562 Z M 723.023438 228.769531 C 722.851562 228.726562 722.675781 228.6875 722.503906 228.648438 C 722.503906 228.648438 722.5 228.648438 722.5 228.648438 C 722.179688 228.261719 721.863281 227.925781 721.546875 227.640625 C 721.914062 227.734375 722.28125 227.835938 722.65625 227.953125 C 723.148438 228.105469 723.644531 228.257812 724.136719 228.402344 C 723.894531 228.429688 723.652344 228.453125 723.40625 228.507812 C 723.257812 228.574219 723.144531 228.675781 723.023438 228.769531 Z M 744.800781 78.816406 C 744.800781 78.761719 744.8125 78.71875 744.808594 78.664062 C 744.84375 78.667969 744.878906 78.671875 744.914062 78.679688 C 744.878906 78.722656 744.839844 78.769531 744.800781 78.816406 Z M 732.628906 229.503906 C 732.46875 229.550781 732.3125 229.597656 732.160156 229.65625 C 732.097656 229.621094 732.042969 229.578125 731.980469 229.546875 C 732.195312 229.535156 732.410156 229.527344 732.628906 229.503906 Z M 837.53125 166.300781 C 837.492188 166.308594 837.449219 166.3125 837.410156 166.316406 C 837.421875 166.269531 837.429688 166.21875 837.4375 166.171875 C 837.46875 166.21875 837.503906 166.253906 837.53125 166.300781 Z M 747.035156 50.253906 C 746.992188 50.234375 746.949219 50.214844 746.90625 50.191406 C 747.195312 50.164062 747.480469 50.128906 747.769531 50.109375 C 747.703125 50.140625 747.640625 50.179688 747.574219 50.210938 C 747.394531 50.226562 747.214844 50.242188 747.035156 50.253906 Z M 743.925781 51.296875 C 743.925781 51.136719 744.027344 50.996094 744.179688 50.871094 C 744.09375 51.003906 744.015625 51.171875 743.925781 51.296875 Z M 707.671875 58.597656 C 707.769531 58.578125 707.867188 58.5625 707.96875 58.542969 C 707.972656 58.5625 707.972656 58.578125 707.980469 58.59375 C 707.875 58.597656 707.773438 58.597656 707.671875 58.597656 Z M 595.300781 23.785156 C 595.222656 23.867188 595.140625 23.945312 595.0625 24.039062 C 594.980469 23.925781 594.890625 23.839844 594.8125 23.710938 C 594.976562 23.738281 595.136719 23.761719 595.300781 23.785156 Z M 499.273438 29.9375 C 498.929688 29.84375 498.589844 29.722656 498.25 29.550781 C 496.046875 28.441406 494.273438 28.691406 492.613281 30.804688 C 489.519531 34.753906 485.503906 34.949219 480.980469 33.4375 C 477.410156 32.246094 473.691406 32.027344 470.050781 33.414062 C 470.050781 33.359375 470.046875 33.304688 470.046875 33.25 C 470.15625 33.210938 470.265625 33.183594 470.375 33.128906 C 480.054688 30.191406 489.734375 27.25 500.027344 27.78125 C 499.410156 28.0625 498.964844 28.515625 499.082031 29.335938 C 499.117188 29.589844 499.191406 29.777344 499.273438 29.9375 Z M 363.253906 51.09375 C 363.992188 50.8125 364.707031 50.4375 365.425781 50.089844 C 366.457031 49.859375 367.476562 49.730469 368.4375 50.109375 C 366.71875 50.480469 364.996094 50.839844 363.253906 51.09375 Z M 377.4375 51.453125 C 376.429688 51.691406 375.421875 51.960938 374.417969 52.238281 C 375.222656 51.625 376.363281 51.277344 377.4375 51.453125 Z M 462.105469 270.003906 C 462.101562 270.019531 462.09375 270.03125 462.089844 270.046875 C 462.042969 270.042969 461.992188 270.039062 461.941406 270.035156 C 461.996094 270.023438 462.050781 270.015625 462.105469 270.003906 Z M 241.675781 313.527344 C 241.628906 313.660156 241.585938 313.800781 241.542969 313.941406 C 241.386719 313.902344 241.230469 313.867188 241.074219 313.832031 C 241.246094 313.699219 241.453125 313.605469 241.675781 313.527344 Z M 223.476562 314.109375 C 223.535156 314.144531 223.59375 314.164062 223.652344 314.195312 C 223.632812 314.246094 223.609375 314.296875 223.589844 314.34375 C 223.554688 314.265625 223.511719 314.1875 223.476562 314.109375 Z M 113.703125 292.128906 C 113.738281 292.125 113.773438 292.121094 113.808594 292.117188 C 113.78125 292.179688 113.746094 292.246094 113.726562 292.304688 C 113.722656 292.242188 113.703125 292.191406 113.703125 292.128906 Z M 96.84375 142.394531 C 96.804688 142.433594 96.765625 142.46875 96.730469 142.507812 C 96.730469 142.480469 96.734375 142.457031 96.734375 142.429688 C 96.742188 142.417969 96.753906 142.40625 96.765625 142.394531 C 96.789062 142.394531 96.816406 142.394531 96.84375 142.394531 Z M 84.988281 138.765625 C 84.984375 138.726562 84.96875 138.6875 84.960938 138.648438 C 84.992188 138.65625 85.019531 138.667969 85.050781 138.675781 C 85.027344 138.703125 85.011719 138.738281 84.988281 138.765625 Z M 80.648438 154.550781 C 80.601562 154.601562 80.554688 154.648438 80.507812 154.699219 C 80.542969 154.652344 80.578125 154.605469 80.613281 154.558594 C 80.625 154.554688 80.636719 154.554688 80.648438 154.550781 Z M 223.144531 86.835938 C 222.265625 87.15625 221.394531 87.492188 220.523438 87.84375 C 220.65625 87.539062 220.738281 87.1875 220.757812 86.796875 C 220.769531 86.804688 220.777344 86.816406 220.785156 86.828125 C 221.585938 86.910156 222.367188 86.894531 223.144531 86.835938 Z M 114.890625 184.308594 C 115.109375 185.160156 114.480469 186.238281 113.835938 186.328125 C 114.109375 185.875 114.203125 185.328125 113.914062 184.585938 C 113.566406 183.699219 113.03125 183.203125 112.417969 182.933594 C 112.46875 182.921875 112.523438 182.917969 112.574219 182.90625 C 113.375 182.679688 114.605469 183.214844 114.890625 184.308594 Z M 97.964844 138.65625 C 97.933594 138.652344 97.902344 138.660156 97.871094 138.65625 C 97.914062 138.644531 97.960938 138.632812 98.007812 138.617188 C 97.992188 138.632812 97.980469 138.644531 97.964844 138.65625 Z M 79.011719 154.617188 C 79.007812 154.621094 79.003906 154.621094 79 154.621094 C 79 154.621094 78.996094 154.617188 78.992188 154.613281 C 79 154.617188 79.003906 154.617188 79.011719 154.617188 Z M 672.5625 244.398438 C 672.464844 244.355469 672.375 244.308594 672.277344 244.265625 C 672.375 244.265625 672.46875 244.269531 672.570312 244.269531 C 672.574219 244.320312 672.5625 244.347656 672.5625 244.398438 Z M 682.785156 236.382812 C 682.800781 236.359375 682.820312 236.34375 682.835938 236.320312 C 682.847656 236.339844 682.863281 236.359375 682.878906 236.378906 C 682.847656 236.378906 682.816406 236.378906 682.785156 236.382812 Z M 682.785156 236.382812" stroke-linecap="round" />
</g>
<g transform="matrix(1.33 0 0 1.33 212.36 788.41)" clip-path="url(#CLIPPATH_7)"  >
<clipPath id="CLIPPATH_7" >
	<path transform="matrix(1 0 0 1 0.2 -0.79) translate(-199.5, -328.57)" id="b4ad91dad7" clip-path="url(#undefined)" d="M 192 326 L 207 326 L 207 331.140625 L 192 331.140625 Z M 192 326" stroke-linecap="round" />
</clipPath>
<path style="stroke: none; stroke-width: 1; stroke-dasharray: none; stroke-linecap: butt; stroke-dashoffset: 0; stroke-linejoin: miter; stroke-miterlimit: 4; fill: rgb(214,171,195); fill-rule: nonzero; opacity: 1;" vector-effect="non-scaling-stroke"  transform=" translate(-199.3, -329.36)" d="M 196.566406 328.070312 C 195.515625 328.710938 194.46875 329.355469 193.421875 330 C 192.855469 330.316406 192.285156 330.71875 192.679688 331.425781 C 193.34375 332.625 194.476562 332.382812 195.558594 332.171875 C 195.558594 332.171875 195.558594 332.171875 195.558594 332.175781 C 196.917969 331.507812 198.277344 330.839844 199.636719 330.175781 C 201.507812 329.210938 203.375 328.246094 206.042969 326.871094 C 201.902344 325.511719 199.3125 327.304688 196.566406 328.070312 Z M 196.566406 328.070312" stroke-linecap="round" />
</g>
<g transform="matrix(1.33 0 0 1.33 872.74 673.53)" clip-path="url(#CLIPPATH_8)"  >
<clipPath id="CLIPPATH_8" >
	<rect transform="matrix(1 0 0 1 -261.58 -60.7)" id="10" x="-433" y="-182.5" rx="0" ry="0" width="866" height="365" />
</clipPath>
<path style="stroke: none; stroke-width: 1; stroke-dasharray: none; stroke-linecap: butt; stroke-dashoffset: 0; stroke-linejoin: miter; stroke-miterlimit: 4; fill: rgb(214,171,195); fill-rule: nonzero; opacity: 1;" vector-effect="non-scaling-stroke"  transform=" translate(-694.58, -243.2)" d="M 690.636719 242.253906 C 689.296875 242.421875 686.914062 240.921875 687.003906 243.441406 C 687.066406 245.144531 689.320312 244.15625 690.632812 244.171875 C 693.304688 244.183594 695.980469 244.191406 698.652344 244.203125 C 699.832031 244.007812 701.3125 244.835938 702.15625 243.214844 C 701.308594 241.59375 699.832031 242.421875 698.648438 242.230469 C 695.980469 242.238281 693.308594 242.246094 690.636719 242.253906 Z M 690.636719 242.253906" stroke-linecap="round" />
</g>
<g transform="matrix(1.33 0 0 1.33 963.97 716.14)" clip-path="url(#CLIPPATH_9)"  >
<clipPath id="CLIPPATH_9" >
	<rect transform="matrix(1 0 0 1 -330.01 -92.66)" id="10" x="-433" y="-182.5" rx="0" ry="0" width="866" height="365" />
</clipPath>
<path style="stroke: none; stroke-width: 1; stroke-dasharray: none; stroke-linecap: butt; stroke-dashoffset: 0; stroke-linejoin: miter; stroke-miterlimit: 4; fill: rgb(214,171,195); fill-rule: nonzero; opacity: 1;" vector-effect="non-scaling-stroke"  transform=" translate(-763.01, -275.16)" d="M 762.535156 274.164062 C 761.21875 274.15625 759.902344 274.148438 758.585938 274.136719 C 757.28125 274.1875 755.097656 273.300781 755.097656 275.15625 C 755.09375 277.007812 757.269531 276.148438 758.578125 276.171875 C 759.898438 276.164062 761.21875 276.160156 762.539062 276.152344 C 764.992188 275.953125 767.566406 276.660156 770.917969 275.15625 C 767.566406 273.652344 764.988281 274.363281 762.535156 274.164062 Z M 762.535156 274.164062" stroke-linecap="round" />
</g>
<g transform="matrix(1.33 0 0 1.33 233.23 779.65)" clip-path="url(#CLIPPATH_10)"  >
<clipPath id="CLIPPATH_10" >
	<rect transform="matrix(1 0 0 1 218.05 -140.3)" id="10" x="-433" y="-182.5" rx="0" ry="0" width="866" height="365" />
</clipPath>
<path style="stroke: none; stroke-width: 1; stroke-dasharray: none; stroke-linecap: butt; stroke-dashoffset: 0; stroke-linejoin: miter; stroke-miterlimit: 4; fill: rgb(214,171,195); fill-rule: nonzero; opacity: 1;" vector-effect="non-scaling-stroke"  transform=" translate(-214.95, -322.8)" d="M 214.855469 321.382812 C 213.898438 321.082031 212.816406 321.167969 212.628906 322.453125 C 212.457031 323.65625 213.386719 324.160156 214.394531 324.273438 C 215.46875 324.394531 216.65625 324.546875 217.292969 323.277344 C 217.179688 321.703125 215.839844 321.691406 214.855469 321.382812 Z M 214.855469 321.382812" stroke-linecap="round" />
</g>
<g transform="matrix(1.33 0 0 1.33 947.4 444.64)" clip-path="url(#CLIPPATH_11)"  >
<clipPath id="CLIPPATH_11" >
	<rect transform="matrix(1 0 0 1 -317.58 110.97)" id="10" x="-433" y="-182.5" rx="0" ry="0" width="866" height="365" />
</clipPath>
<path style="stroke: none; stroke-width: 1; stroke-dasharray: none; stroke-linecap: butt; stroke-dashoffset: 0; stroke-linejoin: miter; stroke-miterlimit: 4; fill: rgb(214,171,195); fill-rule: nonzero; opacity: 1;" vector-effect="non-scaling-stroke"  transform=" translate(-750.58, -71.53)" d="M 749.210938 71.363281 C 748.90625 72.246094 749.792969 72.332031 750.40625 72.417969 C 751.058594 72.503906 751.675781 72.367188 752.003906 71.671875 C 752.089844 70.726562 751.339844 70.589844 750.746094 70.636719 C 750.195312 70.683594 749.34375 70.976562 749.210938 71.363281 Z M 749.210938 71.363281" stroke-linecap="round" />
</g>
<g transform="matrix(1.33 0 0 1.33 960.73 423.36)" clip-path="url(#CLIPPATH_12)"  >
<clipPath id="CLIPPATH_12" >
	<rect transform="matrix(1 0 0 1 -327.58 126.92)" id="10" x="-433" y="-182.5" rx="0" ry="0" width="866" height="365" />
</clipPath>
<path style="stroke: none; stroke-width: 1; stroke-dasharray: none; stroke-linecap: butt; stroke-dashoffset: 0; stroke-linejoin: miter; stroke-miterlimit: 4; fill: rgb(214,171,195); fill-rule: nonzero; opacity: 1;" vector-effect="non-scaling-stroke"  transform=" translate(-760.58, -55.58)" d="M 759.171875 55.210938 C 758.804688 55.835938 759.328125 56.394531 760.078125 56.484375 C 760.871094 56.578125 761.6875 56.65625 762.09375 55.707031 C 762.167969 54.792969 761.449219 54.601562 760.851562 54.613281 C 760.265625 54.625 759.410156 54.808594 759.171875 55.210938 Z M 759.171875 55.210938" stroke-linecap="round" />
</g>
<g transform="matrix(1.33 0 0 1.33 705.12 761.4)" clip-path="url(#CLIPPATH_13)"  >
<clipPath id="CLIPPATH_13" >
	<rect transform="matrix(1 0 0 1 -135.87 -126.61)" id="10" x="-433" y="-182.5" rx="0" ry="0" width="866" height="365" />
</clipPath>
<path style="stroke: none; stroke-width: 1; stroke-dasharray: none; stroke-linecap: butt; stroke-dashoffset: 0; stroke-linejoin: miter; stroke-miterlimit: 4; fill: rgb(214,171,195); fill-rule: nonzero; opacity: 1;" vector-effect="non-scaling-stroke"  transform=" translate(-568.87, -309.11)" d="M 568.695312 308.175781 C 568.097656 308.339844 567.234375 308.335938 567.457031 309.273438 C 567.628906 310 568.375 310.109375 569.035156 310.015625 C 569.652344 309.929688 570.496094 309.882812 570.273438 308.945312 C 570.101562 308.210938 569.363281 308.15625 568.695312 308.175781 Z M 568.695312 308.175781" stroke-linecap="round" />
</g>
<g transform="matrix(1.33 0 0 1.33 919.22 444.63)" clip-path="url(#CLIPPATH_14)"  >
<clipPath id="CLIPPATH_14" >
	<rect transform="matrix(1 0 0 1 -296.44 110.98)" id="10" x="-433" y="-182.5" rx="0" ry="0" width="866" height="365" />
</clipPath>
<path style="stroke: none; stroke-width: 1; stroke-dasharray: none; stroke-linecap: butt; stroke-dashoffset: 0; stroke-linejoin: miter; stroke-miterlimit: 4; fill: rgb(214,171,195); fill-rule: nonzero; opacity: 1;" vector-effect="non-scaling-stroke"  transform=" translate(-729.44, -71.52)" d="M 730.597656 70.546875 C 728.65625 70.332031 726.617188 69.699219 724.832031 71.546875 C 726.808594 73.296875 728.722656 72.753906 730.597656 72.488281 C 731.886719 72.640625 734.035156 73.003906 734.050781 71.769531 C 734.082031 69.632812 731.929688 70.601562 730.597656 70.546875 Z M 730.597656 70.546875" stroke-linecap="round" />
</g>
<g transform="matrix(1.33 0 0 1.33 186.05 449.96)" clip-path="url(#CLIPPATH_15)"  >
<clipPath id="CLIPPATH_15" >
	<rect transform="matrix(1 0 0 1 253.44 106.97)" id="10" x="-433" y="-182.5" rx="0" ry="0" width="866" height="365" />
</clipPath>
<path style="stroke: none; stroke-width: 1; stroke-dasharray: none; stroke-linecap: butt; stroke-dashoffset: 0; stroke-linejoin: miter; stroke-miterlimit: 4; fill: rgb(214,171,195); fill-rule: nonzero; opacity: 1;" vector-effect="non-scaling-stroke"  transform=" translate(-179.56, -75.53)" d="M 179.734375 76.441406 C 180.351562 76.351562 181.203125 76.300781 180.980469 75.359375 C 180.804688 74.625 180.0625 74.570312 179.390625 74.585938 C 178.789062 74.753906 177.925781 74.753906 178.148438 75.691406 C 178.324219 76.421875 179.070312 76.535156 179.734375 76.441406 Z M 179.734375 76.441406" stroke-linecap="round" />
</g>
<g transform="matrix(1.33 0 0 1.33 968.63 425.96)" clip-path="url(#CLIPPATH_16)"  >
<clipPath id="CLIPPATH_16" >
	<rect transform="matrix(1 0 0 1 -333.5 124.98)" id="10" x="-433" y="-182.5" rx="0" ry="0" width="866" height="365" />
</clipPath>
<path style="stroke: none; stroke-width: 1; stroke-dasharray: none; stroke-linecap: butt; stroke-dashoffset: 0; stroke-linejoin: miter; stroke-miterlimit: 4; fill: rgb(214,171,195); fill-rule: nonzero; opacity: 1;" vector-effect="non-scaling-stroke"  transform=" translate(-766.5, -57.52)" d="M 765.046875 57.359375 C 764.855469 58.492188 765.832031 58.546875 766.636719 58.515625 C 767.261719 58.492188 768.007812 58.398438 767.976562 57.519531 C 767.941406 56.667969 767.210938 56.644531 766.210938 56.527344 C 765.957031 56.695312 765.113281 56.960938 765.046875 57.359375 Z M 765.046875 57.359375" stroke-linecap="round" />
</g>
<g transform="matrix(1.33 0 0 1.33 95.57 522.39)" clip-path="url(#CLIPPATH_17)"  >
<clipPath id="CLIPPATH_17" >
	<rect transform="matrix(1 0 0 1 321.3 52.65)" id="10" x="-433" y="-182.5" rx="0" ry="0" width="866" height="365" />
</clipPath>
<path style="stroke: none; stroke-width: 1; stroke-dasharray: none; stroke-linecap: butt; stroke-dashoffset: 0; stroke-linejoin: miter; stroke-miterlimit: 4; fill: rgb(214,171,195); fill-rule: nonzero; opacity: 1;" vector-effect="non-scaling-stroke"  transform=" translate(-111.7, -129.85)" d="M 112.574219 126.339844 C 110.902344 128.398438 111.894531 131.183594 110.652344 133.359375 C 113.890625 131.730469 112.367188 128.796875 112.574219 126.339844 Z M 112.574219 126.339844" stroke-linecap="round" />
</g>
<g transform="matrix(1.33 0 0 1.33 383.58 419.17)" clip-path="url(#CLIPPATH_18)"  >
<clipPath id="CLIPPATH_18" >
	<rect transform="matrix(1 0 0 1 105.29 130.07)" id="10" x="-433" y="-182.5" rx="0" ry="0" width="866" height="365" />
</clipPath>
<path style="stroke: none; stroke-width: 1; stroke-dasharray: none; stroke-linecap: butt; stroke-dashoffset: 0; stroke-linejoin: miter; stroke-miterlimit: 4; fill: rgb(214,171,195); fill-rule: nonzero; opacity: 1;" vector-effect="non-scaling-stroke"  transform=" translate(-327.71, -52.43)" d="M 325.308594 53.542969 C 326.910156 53.25 328.511719 52.953125 330.117188 52.65625 C 328.136719 50.917969 326.414062 50.550781 325.308594 53.542969 Z M 325.308594 53.542969" stroke-linecap="round" />
</g>
<g transform="matrix(1.33 0 0 1.33 877.39 652.25)" clip-path="url(#CLIPPATH_19)"  >
<clipPath id="CLIPPATH_19" >
	<rect transform="matrix(1 0 0 1 -265.07 -44.74)" id="10" x="-433" y="-182.5" rx="0" ry="0" width="866" height="365" />
</clipPath>
<path style="stroke: none; stroke-width: 1; stroke-dasharray: none; stroke-linecap: butt; stroke-dashoffset: 0; stroke-linejoin: miter; stroke-miterlimit: 4; fill: rgb(214,171,195); fill-rule: nonzero; opacity: 1;" vector-effect="non-scaling-stroke"  transform=" translate(-698.07, -227.24)" d="M 701.652344 226.1875 C 699.375 227.253906 696.402344 225.769531 694.488281 228.152344 C 696.984375 227.890625 699.980469 229.453125 701.652344 226.1875 Z M 701.652344 226.1875" stroke-linecap="round" />
</g>
<g transform="matrix(1.33 0 0 1.33 863.29 649.95)" clip-path="url(#CLIPPATH_20)"  >
<clipPath id="CLIPPATH_20" >
	<rect transform="matrix(1 0 0 1 -254.5 -43.02)" id="10" x="-433" y="-182.5" rx="0" ry="0" width="866" height="365" />
</clipPath>
<path style="stroke: none; stroke-width: 1; stroke-dasharray: none; stroke-linecap: butt; stroke-dashoffset: 0; stroke-linejoin: miter; stroke-miterlimit: 4; fill: rgb(214,171,195); fill-rule: nonzero; opacity: 1;" vector-effect="non-scaling-stroke"  transform=" translate(-687.5, -225.52)" d="M 684.425781 226.144531 C 686.472656 226.179688 688.519531 226.214844 690.566406 226.25 C 688.558594 223.984375 686.496094 224.675781 684.425781 226.144531 Z M 684.425781 226.144531" stroke-linecap="round" />
</g>
<g transform="matrix(1.33 0 0 1.33 91.58 530.98)" clip-path="url(#CLIPPATH_21)"  >
<clipPath id="CLIPPATH_21" >
	<rect transform="matrix(1 0 0 1 324.29 46.21)" id="10" x="-433" y="-182.5" rx="0" ry="0" width="866" height="365" />
</clipPath>
<path style="stroke: none; stroke-width: 1; stroke-dasharray: none; stroke-linecap: butt; stroke-dashoffset: 0; stroke-linejoin: miter; stroke-miterlimit: 4; fill: rgb(214,171,195); fill-rule: nonzero; opacity: 1;" vector-effect="non-scaling-stroke"  transform=" translate(-108.71, -136.29)" d="M 108.429688 137.136719 C 109.316406 137.117188 109.941406 136.855469 109.929688 136.066406 C 109.925781 135.851562 109.226562 135.503906 108.832031 135.480469 C 108.273438 135.453125 107.339844 135.234375 107.523438 136.304688 C 107.585938 136.652344 108.171875 136.914062 108.429688 137.136719 Z M 108.429688 137.136719" stroke-linecap="round" />
</g>
</svg>