<?xml version="1.0" encoding="UTF-8" standalone="no" ?>
<!DOCTYPE svg PUBLIC "-//W3C//DTD SVG 1.1//EN" "http://www.w3.org/Graphics/SVG/1.1/DTD/svg11.dtd">
<svg xmlns="http://www.w3.org/2000/svg" xmlns:xlink="http://www.w3.org/1999/xlink" version="1.1" width="900" height="900" viewBox="0 0 900 900" xml:space="preserve">
<desc>Created with Fabric.js 5.2.4</desc>
<defs>
</defs>
<g transform="matrix(0 0 0 0 0 0)" id="4255a9b7-9677-46de-a118-87c1f12d70bd"  >
</g>
<g transform="matrix(1 0 0 1 450 450)" id="9bace2d8-6f2b-4e57-beef-0e101088e9b0"  >
<rect style="stroke: none; stroke-width: 1; stroke-dasharray: none; stroke-linecap: butt; stroke-dashoffset: 0; stroke-linejoin: miter; stroke-miterlimit: 4; fill: rgb(255,255,255); fill-rule: nonzero; opacity: 1; visibility: hidden;" vector-effect="non-scaling-stroke"  x="-450" y="-450" rx="0" ry="0" width="900" height="900" />
</g>
<g transform="matrix(1.11 0 0 1.1 479.83 170.4)"  >
<path style="stroke: none; stroke-width: 1; stroke-dasharray: none; stroke-linecap: butt; stroke-dashoffset: 0; stroke-linejoin: miter; stroke-miterlimit: 4; fill: rgb(221,177,124); fill-rule: nonzero; opacity: 1;" vector-effect="non-scaling-stroke"  transform=" translate(-341.73, -47.79)" d="M 290.226562 40.875 C 290.226562 40.875 316.574219 48.199219 349.003906 35.546875 C 371.769531 26.667969 388.4375 36.082031 392.421875 46.152344 C 397.65625 59.375 376.015625 70.359375 367.457031 58.566406 C 358.898438 46.769531 376.96875 45.25 377.730469 52.859375 C 378.488281 60.46875 389.902344 59.328125 389.046875 49.910156 C 388.191406 40.492188 367.679688 32.71875 337.972656 40.683594 C 307.820312 48.769531 290.226562 40.875 290.226562 40.875 Z M 290.226562 40.875" stroke-linecap="round" />
</g>
<g transform="matrix(1.11 0 0 1.1 477.73 170.42)"  >
<path style="stroke: none; stroke-width: 1; stroke-dasharray: none; stroke-linecap: butt; stroke-dashoffset: 0; stroke-linejoin: miter; stroke-miterlimit: 4; fill: rgb(221,177,124); fill-rule: nonzero; opacity: 1;" vector-effect="non-scaling-stroke"  transform=" translate(-339.81, -47.79)" d="M 320.070312 49.835938 C 320.070312 49.835938 330.167969 47.675781 342.601562 51.40625 C 351.328125 54.027344 357.71875 51.25 359.246094 48.277344 C 361.253906 44.375 352.957031 41.136719 349.675781 44.617188 C 346.394531 48.097656 353.324219 48.546875 353.613281 46.300781 C 353.90625 44.054688 358.28125 44.390625 357.953125 47.167969 C 357.625 49.949219 349.761719 52.242188 338.371094 49.890625 C 326.816406 47.507812 320.070312 49.835938 320.070312 49.835938 Z M 320.070312 49.835938" stroke-linecap="round" />
</g>
<g transform="matrix(1.11 0 0 1.1 454.12 160.6)"  >
<path style="stroke: none; stroke-width: 1; stroke-dasharray: none; stroke-linecap: butt; stroke-dashoffset: 0; stroke-linejoin: miter; stroke-miterlimit: 4; fill: rgb(221,177,124); fill-rule: nonzero; opacity: 1;" vector-effect="non-scaling-stroke"  transform=" translate(-318.55, -38.88)" d="M 320.828125 38.875 C 320.828125 40.136719 319.808594 41.15625 318.546875 41.15625 C 317.285156 41.15625 316.265625 40.136719 316.265625 38.875 C 316.265625 37.613281 317.285156 36.59375 318.546875 36.59375 C 319.808594 36.59375 320.828125 37.613281 320.828125 38.875 Z M 320.828125 38.875" stroke-linecap="round" />
</g>
<g transform="matrix(1.11 0 0 1.1 464.79 158.81)"  >
<path style="stroke: none; stroke-width: 1; stroke-dasharray: none; stroke-linecap: butt; stroke-dashoffset: 0; stroke-linejoin: miter; stroke-miterlimit: 4; fill: rgb(221,177,124); fill-rule: nonzero; opacity: 1;" vector-effect="non-scaling-stroke"  transform=" translate(-328.15, -37.26)" d="M 330.4375 37.257812 C 330.4375 38.519531 329.414062 39.539062 328.152344 39.539062 C 326.894531 39.539062 325.871094 38.519531 325.871094 37.257812 C 325.871094 35.996094 326.894531 34.976562 328.152344 34.976562 C 329.414062 34.976562 330.4375 35.996094 330.4375 37.257812 Z M 330.4375 37.257812" stroke-linecap="round" />
</g>
<g transform="matrix(1.11 0 0 1.1 475.73 155.4)"  >
<path style="stroke: none; stroke-width: 1; stroke-dasharray: none; stroke-linecap: butt; stroke-dashoffset: 0; stroke-linejoin: miter; stroke-miterlimit: 4; fill: rgb(221,177,124); fill-rule: nonzero; opacity: 1;" vector-effect="non-scaling-stroke"  transform=" translate(-338, -34.17)" d="M 341.46875 34.167969 C 341.46875 36.085938 339.914062 37.636719 337.996094 37.636719 C 336.082031 37.636719 334.527344 36.085938 334.527344 34.167969 C 334.527344 32.25 336.082031 30.695312 337.996094 30.695312 C 339.914062 30.695312 341.46875 32.25 341.46875 34.167969 Z M 341.46875 34.167969" stroke-linecap="round" />
</g>
<g transform="matrix(1.11 0 0 1.1 553.28 170.41)"  >
<path style="stroke: none; stroke-width: 1; stroke-dasharray: none; stroke-linecap: butt; stroke-dashoffset: 0; stroke-linejoin: miter; stroke-miterlimit: 4; fill: rgb(221,177,124); fill-rule: nonzero; opacity: 1;" vector-effect="non-scaling-stroke"  transform=" translate(-407.8, -47.79)" d="M 417.183594 49.246094 C 417.242188 48.859375 415.671875 48.273438 413.234375 47.691406 C 415.648438 47.015625 417.191406 46.367188 417.121094 45.984375 C 417.046875 45.605469 415.371094 45.582031 412.878906 45.859375 C 414.921875 44.40625 416.15625 43.273438 415.960938 42.941406 C 415.761719 42.605469 414.175781 43.152344 411.921875 44.253906 C 413.355469 42.199219 414.136719 40.714844 413.839844 40.46875 C 413.539062 40.21875 412.230469 41.269531 410.484375 43.066406 C 411.136719 40.648438 411.371094 38.988281 411.007812 38.855469 C 410.640625 38.726562 409.765625 40.152344 408.726562 42.4375 C 408.527344 39.9375 408.183594 38.296875 407.796875 38.296875 C 407.390625 38.296875 407.03125 40.117188 406.832031 42.832031 C 405.632812 40.386719 404.625 38.832031 404.246094 38.984375 C 403.886719 39.128906 404.183594 40.78125 404.929688 43.175781 C 403.113281 41.445312 401.765625 40.445312 401.476562 40.703125 C 401.1875 40.960938 402.023438 42.414062 403.535156 44.414062 C 401.242188 43.402344 399.636719 42.914062 399.453125 43.257812 C 399.265625 43.597656 400.546875 44.679688 402.644531 46.054688 C 400.144531 45.875 398.46875 45.960938 398.410156 46.34375 C 398.351562 46.726562 399.921875 47.316406 402.359375 47.898438 C 399.945312 48.574219 398.398438 49.222656 398.472656 49.601562 C 398.546875 49.984375 400.222656 50.007812 402.714844 49.730469 C 400.667969 51.183594 399.433594 52.316406 399.632812 52.648438 C 399.828125 52.980469 401.414062 52.4375 403.667969 51.332031 C 402.234375 53.390625 401.453125 54.875 401.753906 55.121094 C 402.050781 55.367188 403.359375 54.320312 405.105469 52.519531 C 404.453125 54.941406 404.222656 56.601562 404.585938 56.734375 C 404.949219 56.863281 405.828125 55.433594 406.863281 53.152344 C 407.066406 55.652344 407.410156 57.292969 407.796875 57.292969 C 408.203125 57.292969 408.558594 55.472656 408.757812 52.753906 C 409.957031 55.203125 410.96875 56.753906 411.347656 56.605469 C 411.703125 56.457031 411.410156 54.808594 410.664062 52.414062 C 412.476562 54.144531 413.824219 55.144531 414.113281 54.882812 C 414.402344 54.625 413.566406 53.175781 412.054688 51.171875 C 414.347656 52.1875 415.953125 52.671875 416.140625 52.332031 C 416.324219 51.992188 415.046875 50.90625 412.949219 49.535156 C 415.449219 49.714844 417.125 49.628906 417.183594 49.246094 Z M 417.183594 49.246094" stroke-linecap="round" />
</g>
<g transform="matrix(1.11 0 0 1.1 573.74 170.43)"  >
<path style="stroke: none; stroke-width: 1; stroke-dasharray: none; stroke-linecap: butt; stroke-dashoffset: 0; stroke-linejoin: miter; stroke-miterlimit: 4; fill: rgb(221,177,124); fill-rule: nonzero; opacity: 1;" vector-effect="non-scaling-stroke"  transform=" translate(-426.21, -47.79)" d="M 430.050781 48.386719 C 430.074219 48.230469 429.433594 47.992188 428.433594 47.75 C 429.425781 47.476562 430.058594 47.210938 430.027344 47.054688 C 429.996094 46.898438 429.308594 46.886719 428.289062 47.003906 C 429.125 46.40625 429.632812 45.941406 429.550781 45.804688 C 429.46875 45.671875 428.820312 45.894531 427.898438 46.34375 C 428.484375 45.503906 428.804688 44.894531 428.683594 44.792969 C 428.558594 44.691406 428.023438 45.121094 427.308594 45.859375 C 427.578125 44.867188 427.671875 44.1875 427.523438 44.132812 C 427.375 44.078125 427.015625 44.664062 426.589844 45.601562 C 426.507812 44.578125 426.367188 43.90625 426.207031 43.90625 C 426.042969 43.90625 425.894531 44.648438 425.8125 45.761719 C 425.320312 44.761719 424.910156 44.125 424.753906 44.1875 C 424.605469 44.246094 424.726562 44.921875 425.035156 45.902344 C 424.289062 45.195312 423.738281 44.785156 423.617188 44.890625 C 423.5 44.996094 423.84375 45.589844 424.460938 46.410156 C 423.523438 45.996094 422.867188 45.796875 422.789062 45.9375 C 422.714844 46.074219 423.238281 46.519531 424.097656 47.082031 C 423.074219 47.007812 422.386719 47.042969 422.363281 47.199219 C 422.339844 47.355469 422.984375 47.597656 423.980469 47.835938 C 422.992188 48.113281 422.359375 48.378906 422.390625 48.535156 C 422.417969 48.691406 423.105469 48.699219 424.125 48.585938 C 423.289062 49.183594 422.78125 49.644531 422.863281 49.78125 C 422.945312 49.917969 423.59375 49.695312 424.515625 49.246094 C 423.929688 50.085938 423.609375 50.695312 423.730469 50.796875 C 423.855469 50.898438 424.390625 50.46875 425.105469 49.730469 C 424.839844 50.722656 424.742188 51.402344 424.894531 51.457031 C 425.042969 51.507812 425.402344 50.921875 425.824219 49.988281 C 425.910156 51.011719 426.050781 51.683594 426.207031 51.683594 C 426.375 51.683594 426.519531 50.941406 426.601562 49.824219 C 427.09375 50.828125 427.507812 51.464844 427.660156 51.402344 C 427.808594 51.34375 427.6875 50.667969 427.382812 49.6875 C 428.125 50.394531 428.675781 50.804688 428.796875 50.699219 C 428.914062 50.59375 428.570312 49.996094 427.953125 49.175781 C 428.890625 49.59375 429.550781 49.792969 429.625 49.652344 C 429.699219 49.511719 429.175781 49.070312 428.316406 48.507812 C 429.34375 48.582031 430.027344 48.542969 430.050781 48.386719 Z M 430.050781 48.386719" stroke-linecap="round" />
</g>
<g transform="matrix(1.11 0 0 1.1 584.68 170.43)"  >
<path style="stroke: none; stroke-width: 1; stroke-dasharray: none; stroke-linecap: butt; stroke-dashoffset: 0; stroke-linejoin: miter; stroke-miterlimit: 4; fill: rgb(221,177,124); fill-rule: nonzero; opacity: 1;" vector-effect="non-scaling-stroke"  transform=" translate(-436.04, -47.79)" d="M 436.847656 47.792969 C 436.847656 48.242188 436.488281 48.601562 436.039062 48.601562 C 435.59375 48.601562 435.234375 48.242188 435.234375 47.792969 C 435.234375 47.347656 435.59375 46.984375 436.039062 46.984375 C 436.488281 46.984375 436.847656 47.347656 436.847656 47.792969 Z M 436.847656 47.792969" stroke-linecap="round" />
</g>
<g transform="matrix(1.11 0 0 1.1 615.55 170.43)"  >
<path style="stroke: none; stroke-width: 1; stroke-dasharray: none; stroke-linecap: butt; stroke-dashoffset: 0; stroke-linejoin: miter; stroke-miterlimit: 4; fill: rgb(221,177,124); fill-rule: nonzero; opacity: 1;" vector-effect="non-scaling-stroke"  transform=" translate(-463.86, -47.79)" d="M 485.683594 47.792969 C 485.683594 48.003906 485.515625 48.175781 485.304688 48.175781 L 442.40625 48.175781 C 442.199219 48.175781 442.027344 48.003906 442.027344 47.792969 C 442.027344 47.585938 442.199219 47.414062 442.40625 47.414062 L 485.304688 47.414062 C 485.515625 47.414062 485.683594 47.585938 485.683594 47.792969 Z M 485.683594 47.792969" stroke-linecap="round" />
</g>
<g transform="matrix(1.11 0 0 1.1 652.46 170.42)"  >
<path style="stroke: none; stroke-width: 1; stroke-dasharray: none; stroke-linecap: butt; stroke-dashoffset: 0; stroke-linejoin: miter; stroke-miterlimit: 4; fill: rgb(221,177,124); fill-rule: nonzero; opacity: 1;" vector-effect="non-scaling-stroke"  transform=" translate(-497.05, -47.79)" d="M 503.246094 46.363281 C 502.792969 48.484375 501.992188 49.851562 500 51.300781 C 499.21875 52.257812 494.074219 53.4375 492.140625 49.707031 C 490.0625 45.945312 493.796875 43.375 493.695312 43.75 C 493.691406 43.789062 494.417969 43.25 495.710938 43.332031 C 496.933594 43.34375 498.628906 44.609375 498.5625 46.464844 C 498.617188 48.25 496.167969 49.535156 495.023438 48.40625 C 493.707031 47.394531 494.546875 45.832031 495.054688 45.742188 C 496.03125 45.152344 497.003906 46.023438 496.84375 46.800781 C 496.898438 47.617188 495.285156 48.066406 495.101562 46.800781 C 494.941406 48.148438 497.148438 48.21875 497.324219 46.898438 C 497.769531 45.765625 496.164062 44.269531 494.738281 45.15625 C 493.941406 45.316406 492.816406 47.589844 494.609375 48.933594 C 496.253906 50.4375 499.28125 48.757812 499.234375 46.476562 C 499.316406 44.214844 497.25 42.671875 495.753906 42.664062 C 494.246094 42.570312 493.390625 43.195312 493.398438 43.15625 C 493.421875 43.15625 492.441406 43.507812 491.605469 44.753906 C 490.714844 45.972656 490.542969 48.199219 491.550781 50.03125 C 493.78125 54.265625 499.53125 52.914062 500.359375 51.863281 C 502.578125 50.261719 503.230469 48.519531 503.246094 46.363281 Z M 503.246094 46.363281" stroke-linecap="round" />
</g>
<g transform="matrix(1.11 0 0 1.1 683.84 170.42)"  >
<path style="stroke: none; stroke-width: 1; stroke-dasharray: none; stroke-linecap: butt; stroke-dashoffset: 0; stroke-linejoin: miter; stroke-miterlimit: 4; fill: rgb(221,177,124); fill-rule: nonzero; opacity: 1;" vector-effect="non-scaling-stroke"  transform=" translate(-525.3, -47.79)" d="M 519.105469 46.363281 C 519.121094 48.519531 519.773438 50.261719 521.992188 51.863281 C 522.820312 52.914062 528.574219 54.265625 530.800781 50.03125 C 531.808594 48.199219 531.636719 45.972656 530.746094 44.753906 C 529.910156 43.507812 528.929688 43.15625 528.953125 43.15625 C 528.960938 43.195312 528.105469 42.570312 526.597656 42.664062 C 525.101562 42.671875 523.035156 44.214844 523.117188 46.476562 C 523.074219 48.757812 526.101562 50.4375 527.746094 48.933594 C 529.535156 47.589844 528.410156 45.316406 527.613281 45.15625 C 526.1875 44.269531 524.582031 45.765625 525.027344 46.898438 C 525.207031 48.21875 527.414062 48.148438 527.25 46.800781 C 527.066406 48.066406 525.453125 47.617188 525.507812 46.800781 C 525.347656 46.023438 526.324219 45.152344 527.296875 45.742188 C 527.808594 45.832031 528.648438 47.394531 527.328125 48.40625 C 526.183594 49.535156 523.738281 48.25 523.789062 46.464844 C 523.722656 44.609375 525.417969 43.34375 526.644531 43.332031 C 527.933594 43.25 528.660156 43.789062 528.65625 43.75 C 528.554688 43.375 532.292969 45.945312 530.210938 49.707031 C 528.28125 53.4375 523.132812 52.257812 522.355469 51.300781 C 520.359375 49.851562 519.558594 48.484375 519.105469 46.363281 Z M 519.105469 46.363281" stroke-linecap="round" />
</g>
<g transform="matrix(1.11 0 0 1.1 668.15 170.43)"  >
<path style="stroke: none; stroke-width: 1; stroke-dasharray: none; stroke-linecap: butt; stroke-dashoffset: 0; stroke-linejoin: miter; stroke-miterlimit: 4; fill: rgb(221,177,124); fill-rule: nonzero; opacity: 1;" vector-effect="non-scaling-stroke"  transform=" translate(-511.18, -47.79)" d="M 512.878906 50.40625 L 511.179688 49.515625 L 509.480469 50.410156 L 509.800781 48.519531 L 508.425781 47.179688 L 510.328125 46.902344 L 511.175781 45.175781 L 512.027344 46.898438 L 513.925781 47.175781 L 512.554688 48.515625 Z M 512.878906 50.40625" stroke-linecap="round" />
</g>
<g transform="matrix(1.11 0 0 1.1 702.69 170.42)"  >
<path style="stroke: none; stroke-width: 1; stroke-dasharray: none; stroke-linecap: butt; stroke-dashoffset: 0; stroke-linejoin: miter; stroke-miterlimit: 4; fill: rgb(221,177,124); fill-rule: nonzero; opacity: 1;" vector-effect="non-scaling-stroke"  transform=" translate(-542.26, -47.79)" d="M 539.695312 51.023438 L 536.667969 52.769531 L 536.667969 54.253906 L 547.855469 47.792969 L 536.667969 41.332031 L 536.667969 42.816406 L 539.695312 44.5625 L 545.289062 47.792969 Z M 539.695312 51.023438" stroke-linecap="round" />
</g>
<g transform="matrix(1.11 0 0 1.1 720.88 170.42)"  >
<path style="stroke: none; stroke-width: 1; stroke-dasharray: none; stroke-linecap: butt; stroke-dashoffset: 0; stroke-linejoin: miter; stroke-miterlimit: 4; fill: rgb(221,177,124); fill-rule: nonzero; opacity: 1;" vector-effect="non-scaling-stroke"  transform=" translate(-558.63, -47.79)" d="M 556.0625 51.023438 L 553.035156 52.769531 L 553.035156 54.253906 L 558.632812 51.023438 L 564.226562 47.792969 L 558.632812 44.5625 L 553.035156 41.332031 L 553.035156 42.816406 L 556.0625 44.5625 L 561.660156 47.792969 Z M 556.0625 51.023438" stroke-linecap="round" />
</g>
<g transform="matrix(1.11 0 0 1.1 736.15 170.43)" clip-path="url(#CLIPPATH_84)"  >
<clipPath id="CLIPPATH_84" >
	<path transform="matrix(1 0 0 1 -0.11 -0.29) translate(-572.26, -47.5)" d="M 569 44 L 575.515625 44 L 575.515625 51 L 569 51 Z M 569 44" stroke-linecap="round" />
</clipPath>
<path style="stroke: none; stroke-width: 1; stroke-dasharray: none; stroke-linecap: butt; stroke-dashoffset: 0; stroke-linejoin: miter; stroke-miterlimit: 4; fill: rgb(221,177,124); fill-rule: nonzero; opacity: 1;" vector-effect="non-scaling-stroke"  transform=" translate(-572.37, -47.79)" d="M 575.328125 47.792969 C 575.328125 49.429688 574 50.753906 572.367188 50.753906 C 570.730469 50.753906 569.40625 49.429688 569.40625 47.792969 C 569.40625 46.160156 570.730469 44.832031 572.367188 44.832031 C 574 44.832031 575.328125 46.160156 575.328125 47.792969 Z M 575.328125 47.792969" stroke-linecap="round" />
</g>
<g transform="matrix(1.11 0 0 1.1 359.62 170.4)"  >
<path style="stroke: none; stroke-width: 1; stroke-dasharray: none; stroke-linecap: butt; stroke-dashoffset: 0; stroke-linejoin: miter; stroke-miterlimit: 4; fill: rgb(221,177,124); fill-rule: nonzero; opacity: 1;" vector-effect="non-scaling-stroke"  transform=" translate(-233.54, -47.79)" d="M 285.046875 40.875 C 285.046875 40.875 258.699219 48.199219 226.269531 35.546875 C 203.503906 26.667969 186.832031 36.082031 182.847656 46.152344 C 177.617188 59.375 199.253906 70.359375 207.816406 58.566406 C 216.375 46.769531 198.304688 45.25 197.542969 52.859375 C 196.78125 60.46875 185.371094 59.328125 186.226562 49.910156 C 187.082031 40.492188 207.59375 32.71875 237.300781 40.683594 C 267.449219 48.769531 285.046875 40.875 285.046875 40.875 Z M 285.046875 40.875" stroke-linecap="round" />
</g>
<g transform="matrix(1.11 0 0 1.1 361.79 170.42)"  >
<path style="stroke: none; stroke-width: 1; stroke-dasharray: none; stroke-linecap: butt; stroke-dashoffset: 0; stroke-linejoin: miter; stroke-miterlimit: 4; fill: rgb(221,177,124); fill-rule: nonzero; opacity: 1;" vector-effect="non-scaling-stroke"  transform=" translate(-235.46, -47.79)" d="M 255.203125 49.835938 C 255.203125 49.835938 245.101562 47.675781 232.671875 51.40625 C 223.945312 54.027344 217.554688 51.25 216.023438 48.277344 C 214.019531 44.375 222.3125 41.136719 225.597656 44.617188 C 228.878906 48.097656 221.949219 48.546875 221.65625 46.300781 C 221.367188 44.054688 216.992188 44.390625 217.320312 47.167969 C 217.648438 49.949219 225.511719 52.242188 236.898438 49.890625 C 248.457031 47.507812 255.203125 49.835938 255.203125 49.835938 Z M 255.203125 49.835938" stroke-linecap="round" />
</g>
<g transform="matrix(1.11 0 0 1.1 385.43 160.6)"  >
<path style="stroke: none; stroke-width: 1; stroke-dasharray: none; stroke-linecap: butt; stroke-dashoffset: 0; stroke-linejoin: miter; stroke-miterlimit: 4; fill: rgb(221,177,124); fill-rule: nonzero; opacity: 1;" vector-effect="non-scaling-stroke"  transform=" translate(-256.72, -38.88)" d="M 254.441406 38.875 C 254.441406 40.136719 255.464844 41.15625 256.726562 41.15625 C 257.984375 41.15625 259.007812 40.136719 259.007812 38.875 C 259.007812 37.613281 257.984375 36.59375 256.726562 36.59375 C 255.464844 36.59375 254.441406 37.613281 254.441406 38.875 Z M 254.441406 38.875" stroke-linecap="round" />
</g>
<g transform="matrix(1.11 0 0 1.1 374.75 158.81)"  >
<path style="stroke: none; stroke-width: 1; stroke-dasharray: none; stroke-linecap: butt; stroke-dashoffset: 0; stroke-linejoin: miter; stroke-miterlimit: 4; fill: rgb(221,177,124); fill-rule: nonzero; opacity: 1;" vector-effect="non-scaling-stroke"  transform=" translate(-247.12, -37.26)" d="M 244.835938 37.257812 C 244.835938 38.519531 245.859375 39.539062 247.117188 39.539062 C 248.378906 39.539062 249.402344 38.519531 249.402344 37.257812 C 249.402344 35.996094 248.378906 34.976562 247.117188 34.976562 C 245.859375 34.976562 244.835938 35.996094 244.835938 37.257812 Z M 244.835938 37.257812" stroke-linecap="round" />
</g>
<g transform="matrix(1.11 0 0 1.1 363.81 155.4)"  >
<path style="stroke: none; stroke-width: 1; stroke-dasharray: none; stroke-linecap: butt; stroke-dashoffset: 0; stroke-linejoin: miter; stroke-miterlimit: 4; fill: rgb(221,177,124); fill-rule: nonzero; opacity: 1;" vector-effect="non-scaling-stroke"  transform=" translate(-237.27, -34.17)" d="M 233.800781 34.167969 C 233.800781 36.085938 235.355469 37.636719 237.273438 37.636719 C 239.191406 37.636719 240.746094 36.085938 240.746094 34.167969 C 240.746094 32.25 239.191406 30.695312 237.273438 30.695312 C 235.355469 30.695312 233.800781 32.25 233.800781 34.167969 Z M 233.800781 34.167969" stroke-linecap="round" />
</g>
<g transform="matrix(1.11 0 0 1.1 286.26 170.41)"  >
<path style="stroke: none; stroke-width: 1; stroke-dasharray: none; stroke-linecap: butt; stroke-dashoffset: 0; stroke-linejoin: miter; stroke-miterlimit: 4; fill: rgb(221,177,124); fill-rule: nonzero; opacity: 1;" vector-effect="non-scaling-stroke"  transform=" translate(-167.48, -47.79)" d="M 158.089844 49.246094 C 158.03125 48.859375 159.601562 48.273438 162.039062 47.691406 C 159.625 47.015625 158.078125 46.367188 158.152344 45.984375 C 158.226562 45.605469 159.902344 45.582031 162.394531 45.859375 C 160.351562 44.40625 159.113281 43.273438 159.3125 42.941406 C 159.511719 42.605469 161.097656 43.152344 163.347656 44.253906 C 161.914062 42.199219 161.132812 40.714844 161.433594 40.46875 C 161.730469 40.21875 163.039062 41.269531 164.789062 43.066406 C 164.132812 40.648438 163.902344 38.988281 164.265625 38.855469 C 164.628906 38.726562 165.507812 40.152344 166.542969 42.4375 C 166.746094 39.9375 167.089844 38.296875 167.476562 38.296875 C 167.882812 38.296875 168.238281 40.117188 168.4375 42.832031 C 169.636719 40.386719 170.648438 38.832031 171.027344 38.984375 C 171.386719 39.128906 171.089844 40.78125 170.34375 43.175781 C 172.15625 41.445312 173.503906 40.445312 173.796875 40.703125 C 174.085938 40.960938 173.246094 42.414062 171.738281 44.414062 C 174.03125 43.402344 175.632812 42.914062 175.820312 43.257812 C 176.003906 43.597656 174.726562 44.679688 172.628906 46.054688 C 175.128906 45.875 176.804688 45.960938 176.863281 46.34375 C 176.921875 46.726562 175.351562 47.316406 172.914062 47.898438 C 175.328125 48.574219 176.875 49.222656 176.800781 49.601562 C 176.726562 49.984375 175.050781 50.007812 172.558594 49.730469 C 174.601562 51.183594 175.835938 52.316406 175.640625 52.648438 C 175.441406 52.980469 173.855469 52.4375 171.605469 51.332031 C 173.035156 53.390625 173.816406 54.875 173.519531 55.121094 C 173.21875 55.367188 171.910156 54.320312 170.164062 52.519531 C 170.816406 54.941406 171.050781 56.601562 170.6875 56.734375 C 170.320312 56.863281 169.445312 55.433594 168.410156 53.152344 C 168.207031 55.652344 167.863281 57.292969 167.476562 57.292969 C 167.070312 57.292969 166.710938 55.472656 166.515625 52.753906 C 165.3125 55.203125 164.304688 56.753906 163.925781 56.605469 C 163.566406 56.457031 163.863281 54.808594 164.609375 52.414062 C 162.792969 54.144531 161.445312 55.144531 161.15625 54.882812 C 160.867188 54.625 161.707031 53.175781 163.214844 51.171875 C 160.921875 52.1875 159.316406 52.671875 159.132812 52.332031 C 158.949219 51.992188 160.226562 50.90625 162.324219 49.535156 C 159.824219 49.714844 158.148438 49.628906 158.089844 49.246094 Z M 158.089844 49.246094" stroke-linecap="round" />
</g>
<g transform="matrix(1.11 0 0 1.1 265.81 170.43)"  >
<path style="stroke: none; stroke-width: 1; stroke-dasharray: none; stroke-linecap: butt; stroke-dashoffset: 0; stroke-linejoin: miter; stroke-miterlimit: 4; fill: rgb(221,177,124); fill-rule: nonzero; opacity: 1;" vector-effect="non-scaling-stroke"  transform=" translate(-149.06, -47.79)" d="M 145.21875 48.386719 C 145.195312 48.230469 145.839844 47.992188 146.835938 47.75 C 145.847656 47.476562 145.214844 47.210938 145.246094 47.054688 C 145.277344 46.898438 145.960938 46.886719 146.984375 47.003906 C 146.144531 46.40625 145.640625 45.941406 145.722656 45.804688 C 145.800781 45.671875 146.453125 45.894531 147.375 46.34375 C 146.789062 45.503906 146.46875 44.894531 146.589844 44.792969 C 146.710938 44.691406 147.246094 45.121094 147.960938 45.859375 C 147.695312 44.867188 147.601562 44.1875 147.75 44.132812 C 147.898438 44.078125 148.257812 44.664062 148.683594 45.601562 C 148.765625 44.578125 148.90625 43.90625 149.0625 43.90625 C 149.230469 43.90625 149.375 44.648438 149.457031 45.761719 C 149.949219 44.761719 150.363281 44.125 150.519531 44.1875 C 150.664062 44.246094 150.542969 44.921875 150.238281 45.902344 C 150.980469 45.195312 151.535156 44.785156 151.652344 44.890625 C 151.769531 44.996094 151.429688 45.589844 150.808594 46.410156 C 151.75 45.996094 152.40625 45.796875 152.480469 45.9375 C 152.558594 46.074219 152.035156 46.519531 151.175781 47.082031 C 152.199219 47.007812 152.882812 47.042969 152.910156 47.199219 C 152.933594 47.355469 152.289062 47.597656 151.289062 47.835938 C 152.28125 48.113281 152.914062 48.378906 152.882812 48.535156 C 152.851562 48.691406 152.167969 48.699219 151.144531 48.585938 C 151.984375 49.183594 152.488281 49.644531 152.410156 49.78125 C 152.328125 49.917969 151.675781 49.695312 150.753906 49.246094 C 151.34375 50.085938 151.660156 50.695312 151.539062 50.796875 C 151.417969 50.898438 150.882812 50.46875 150.164062 49.730469 C 150.433594 50.722656 150.527344 51.402344 150.378906 51.457031 C 150.230469 51.507812 149.871094 50.921875 149.445312 49.988281 C 149.363281 51.011719 149.222656 51.683594 149.0625 51.683594 C 148.898438 51.683594 148.75 50.941406 148.667969 49.824219 C 148.179688 50.828125 147.765625 51.464844 147.609375 51.402344 C 147.460938 51.34375 147.585938 50.667969 147.890625 49.6875 C 147.148438 50.394531 146.59375 50.804688 146.476562 50.699219 C 146.359375 50.59375 146.699219 49.996094 147.320312 49.175781 C 146.378906 49.59375 145.722656 49.792969 145.648438 49.652344 C 145.570312 49.511719 146.09375 49.070312 146.953125 48.507812 C 145.929688 48.582031 145.242188 48.542969 145.21875 48.386719 Z M 145.21875 48.386719" stroke-linecap="round" />
</g>
<g transform="matrix(1.11 0 0 1.1 254.88 170.43)"  >
<path style="stroke: none; stroke-width: 1; stroke-dasharray: none; stroke-linecap: butt; stroke-dashoffset: 0; stroke-linejoin: miter; stroke-miterlimit: 4; fill: rgb(221,177,124); fill-rule: nonzero; opacity: 1;" vector-effect="non-scaling-stroke"  transform=" translate(-139.23, -47.79)" d="M 138.421875 47.792969 C 138.421875 48.242188 138.785156 48.601562 139.230469 48.601562 C 139.679688 48.601562 140.039062 48.242188 140.039062 47.792969 C 140.039062 47.347656 139.679688 46.984375 139.230469 46.984375 C 138.785156 46.984375 138.421875 47.347656 138.421875 47.792969 Z M 138.421875 47.792969" stroke-linecap="round" />
</g>
<g transform="matrix(1.11 0 0 1.1 223.95 170.43)"  >
<path style="stroke: none; stroke-width: 1; stroke-dasharray: none; stroke-linecap: butt; stroke-dashoffset: 0; stroke-linejoin: miter; stroke-miterlimit: 4; fill: rgb(221,177,124); fill-rule: nonzero; opacity: 1;" vector-effect="non-scaling-stroke"  transform=" translate(-111.41, -47.79)" d="M 89.585938 47.792969 C 89.585938 48.003906 89.757812 48.175781 89.96875 48.175781 L 132.863281 48.175781 C 133.074219 48.175781 133.242188 48.003906 133.242188 47.792969 C 133.242188 47.585938 133.074219 47.414062 132.863281 47.414062 L 89.96875 47.414062 C 89.757812 47.414062 89.585938 47.585938 89.585938 47.792969 Z M 89.585938 47.792969" stroke-linecap="round" />
</g>
<g transform="matrix(1.11 0 0 1.1 187.08 170.42)"  >
<path style="stroke: none; stroke-width: 1; stroke-dasharray: none; stroke-linecap: butt; stroke-dashoffset: 0; stroke-linejoin: miter; stroke-miterlimit: 4; fill: rgb(221,177,124); fill-rule: nonzero; opacity: 1;" vector-effect="non-scaling-stroke"  transform=" translate(-78.22, -47.79)" d="M 72.023438 46.363281 C 72.480469 48.484375 73.277344 49.851562 75.273438 51.300781 C 76.054688 52.257812 81.199219 53.4375 83.132812 49.707031 C 85.210938 45.945312 81.476562 43.375 81.574219 43.75 C 81.578125 43.789062 80.851562 43.25 79.5625 43.332031 C 78.335938 43.34375 76.644531 44.609375 76.707031 46.464844 C 76.65625 48.25 79.105469 49.535156 80.246094 48.40625 C 81.566406 47.394531 80.726562 45.832031 80.21875 45.742188 C 79.242188 45.152344 78.269531 46.023438 78.425781 46.800781 C 78.371094 47.617188 79.984375 48.066406 80.167969 46.800781 C 80.332031 48.148438 78.125 48.21875 77.945312 46.898438 C 77.503906 45.765625 79.105469 44.269531 80.535156 45.15625 C 81.328125 45.316406 82.457031 47.589844 80.664062 48.933594 C 79.019531 50.4375 75.992188 48.757812 76.035156 46.476562 C 75.957031 44.214844 78.019531 42.671875 79.515625 42.664062 C 81.027344 42.570312 81.878906 43.195312 81.875 43.15625 C 81.851562 43.15625 82.832031 43.507812 83.667969 44.753906 C 84.558594 45.972656 84.730469 48.199219 83.722656 50.03125 C 81.492188 54.265625 75.738281 52.914062 74.914062 51.863281 C 72.691406 50.261719 72.042969 48.519531 72.023438 46.363281 Z M 72.023438 46.363281" stroke-linecap="round" />
</g>
<g transform="matrix(1.11 0 0 1.1 155.7 170.42)"  >
<path style="stroke: none; stroke-width: 1; stroke-dasharray: none; stroke-linecap: butt; stroke-dashoffset: 0; stroke-linejoin: miter; stroke-miterlimit: 4; fill: rgb(221,177,124); fill-rule: nonzero; opacity: 1;" vector-effect="non-scaling-stroke"  transform=" translate(-49.97, -47.79)" d="M 56.167969 46.363281 C 56.148438 48.519531 55.5 50.261719 53.277344 51.863281 C 52.453125 52.914062 46.699219 54.265625 44.46875 50.03125 C 43.460938 48.199219 43.632812 45.972656 44.523438 44.753906 C 45.359375 43.507812 46.34375 43.15625 46.316406 43.15625 C 46.3125 43.195312 47.164062 42.570312 48.675781 42.664062 C 50.171875 42.671875 52.234375 44.214844 52.15625 46.476562 C 52.199219 48.757812 49.171875 50.4375 47.527344 48.933594 C 45.734375 47.589844 46.863281 45.316406 47.65625 45.15625 C 49.085938 44.269531 50.6875 45.765625 50.246094 46.898438 C 50.066406 48.21875 47.859375 48.148438 48.023438 46.800781 C 48.207031 48.066406 49.820312 47.617188 49.765625 46.800781 C 49.921875 46.023438 48.949219 45.152344 47.972656 45.742188 C 47.464844 45.832031 46.625 47.394531 47.945312 48.40625 C 49.085938 49.535156 51.535156 48.25 51.484375 46.464844 C 51.550781 44.609375 49.855469 43.34375 48.628906 43.332031 C 47.339844 43.25 46.613281 43.789062 46.617188 43.75 C 46.714844 43.375 42.980469 45.945312 45.058594 49.707031 C 46.992188 53.4375 52.140625 52.257812 52.917969 51.300781 C 54.914062 49.851562 55.710938 48.484375 56.167969 46.363281 Z M 56.167969 46.363281" stroke-linecap="round" />
</g>
<g transform="matrix(1.11 0 0 1.1 171.39 170.43)"  >
<path style="stroke: none; stroke-width: 1; stroke-dasharray: none; stroke-linecap: butt; stroke-dashoffset: 0; stroke-linejoin: miter; stroke-miterlimit: 4; fill: rgb(221,177,124); fill-rule: nonzero; opacity: 1;" vector-effect="non-scaling-stroke"  transform=" translate(-64.1, -47.79)" d="M 62.394531 50.40625 L 64.09375 49.515625 L 65.792969 50.410156 L 65.46875 48.519531 L 66.847656 47.179688 L 64.945312 46.902344 L 64.097656 45.175781 L 63.246094 46.898438 L 61.34375 47.175781 L 62.71875 48.515625 Z M 62.394531 50.40625" stroke-linecap="round" />
</g>
<g transform="matrix(1.11 0 0 1.1 136.85 170.42)"  >
<path style="stroke: none; stroke-width: 1; stroke-dasharray: none; stroke-linecap: butt; stroke-dashoffset: 0; stroke-linejoin: miter; stroke-miterlimit: 4; fill: rgb(221,177,124); fill-rule: nonzero; opacity: 1;" vector-effect="non-scaling-stroke"  transform=" translate(-33.01, -47.79)" d="M 29.980469 47.792969 L 35.578125 44.5625 L 38.605469 42.816406 L 38.605469 41.332031 L 33.007812 44.5625 L 27.414062 47.792969 L 33.007812 51.023438 L 38.605469 54.253906 L 38.605469 52.769531 L 35.578125 51.023438 Z M 29.980469 47.792969" stroke-linecap="round" />
</g>
<g transform="matrix(1.11 0 0 1.1 118.66 170.42)"  >
<path style="stroke: none; stroke-width: 1; stroke-dasharray: none; stroke-linecap: butt; stroke-dashoffset: 0; stroke-linejoin: miter; stroke-miterlimit: 4; fill: rgb(221,177,124); fill-rule: nonzero; opacity: 1;" vector-effect="non-scaling-stroke"  transform=" translate(-16.64, -47.79)" d="M 13.613281 47.792969 L 19.207031 44.5625 L 22.234375 42.816406 L 22.234375 41.332031 L 16.640625 44.5625 L 11.042969 47.792969 L 16.640625 51.023438 L 22.234375 54.253906 L 22.234375 52.769531 L 19.207031 51.023438 Z M 13.613281 47.792969" stroke-linecap="round" />
</g>
<g transform="matrix(1.11 0 0 1.1 103.41 170.43)"  >
<path style="stroke: none; stroke-width: 1; stroke-dasharray: none; stroke-linecap: butt; stroke-dashoffset: 0; stroke-linejoin: miter; stroke-miterlimit: 4; fill: rgb(221,177,124); fill-rule: nonzero; opacity: 1;" vector-effect="non-scaling-stroke"  transform=" translate(-2.91, -47.79)" d="M -0.0546875 47.792969 C -0.0546875 49.429688 1.269531 50.753906 2.90625 50.753906 C 4.542969 50.753906 5.867188 49.429688 5.867188 47.792969 C 5.867188 46.160156 4.542969 44.832031 2.90625 44.832031 C 1.269531 44.832031 -0.0546875 46.160156 -0.0546875 47.792969 Z M -0.0546875 47.792969" stroke-linecap="round" />
</g>
<g transform="matrix(1.11 0 0 1.1 420.14 138.62)" clip-path="url(#CLIPPATH_85)"  >
<clipPath id="CLIPPATH_85" >
	<path transform="matrix(1 0 0 1 0.02 0.04) translate(-288, -19.01)" d="M 267 0.0234375 L 309 0.0234375 L 309 38 L 267 38 Z M 267 0.0234375" stroke-linecap="round" />
</clipPath>
<path style="stroke: none; stroke-width: 1; stroke-dasharray: none; stroke-linecap: butt; stroke-dashoffset: 0; stroke-linejoin: miter; stroke-miterlimit: 4; fill: rgb(221,177,124); fill-rule: nonzero; opacity: 1;" vector-effect="non-scaling-stroke"  transform=" translate(-287.98, -18.97)" d="M 308.203125 6.03125 C 308.203125 6.03125 302.175781 10.246094 295.773438 15.570312 C 292.59375 7.78125 287.980469 0.863281 287.980469 0.863281 C 287.980469 0.863281 283.363281 7.78125 280.183594 15.570312 C 273.78125 10.246094 267.757812 6.03125 267.757812 6.03125 C 267.757812 6.03125 263.820312 37.078125 287.980469 37.078125 C 312.136719 37.078125 308.203125 6.03125 308.203125 6.03125 Z M 308.203125 6.03125" stroke-linecap="round" />
</g>
<g transform="matrix(1.11 0 0 1.1 420.15 174.4)"  >
<path style="stroke: none; stroke-width: 1; stroke-dasharray: none; stroke-linecap: butt; stroke-dashoffset: 0; stroke-linejoin: miter; stroke-miterlimit: 4; fill: rgb(221,177,124); fill-rule: nonzero; opacity: 1;" vector-effect="non-scaling-stroke"  transform=" translate(-287.98, -51.41)" d="M 294.921875 55.851562 C 294.921875 55.851562 292.855469 54.402344 290.65625 52.574219 C 289.5625 55.25 287.980469 57.625 287.980469 57.625 C 287.980469 57.625 286.394531 55.25 285.304688 52.574219 C 283.105469 54.402344 281.035156 55.851562 281.035156 55.851562 C 281.035156 55.851562 279.683594 45.1875 287.980469 45.1875 C 296.273438 45.1875 294.921875 55.851562 294.921875 55.851562 Z M 294.921875 55.851562" stroke-linecap="round" />
</g>
</svg>